<svg width="289" height="180" viewBox="0 0 289 180" fill="none" xmlns="http://www.w3.org/2000/svg">
<rect width="288" height="180" transform="translate(0.194824)" fill="white"/>
<path d="M57.8032 91.3257C56.3867 90.7684 55.4114 90.0136 54.8773 89.0615C54.3432 88.1095 54.1226 87.0529 54.2155 85.8918C54.3316 84.7075 54.7031 83.4535 55.3301 82.1298C55.9803 80.783 56.7699 79.4361 57.6987 78.0892C58.6508 76.7424 59.6958 75.4303 60.8337 74.1531C61.9716 72.8759 63.0978 71.7032 64.2125 70.635C65.3271 69.5668 66.3721 68.638 67.3474 67.8484C68.3227 67.0589 69.1123 66.4783 69.716 66.1068C70.552 65.5959 71.2487 65.3521 71.806 65.3753C72.3633 65.3753 72.8045 65.5495 73.1296 65.8978C73.478 66.2229 73.7102 66.6873 73.8263 67.2911C73.9656 67.8716 74.0237 68.4986 74.0005 69.1721C74.0005 69.8223 73.9308 70.4841 73.7915 71.1575C73.6753 71.8077 73.5128 72.3767 73.3038 72.8643C73.118 73.352 72.909 73.7119 72.6768 73.9441C72.4678 74.1764 72.2588 74.188 72.0498 73.979C72.0266 73.7932 72.0498 73.5145 72.1195 73.143C72.1891 72.7482 72.2704 72.307 72.3633 71.8193C72.4794 71.3317 72.5839 70.8324 72.6768 70.3215C72.7697 69.8107 72.8278 69.3462 72.851 68.9282C72.8974 68.487 72.8858 68.1155 72.8161 67.8136C72.7697 67.5117 72.642 67.3375 72.433 67.2911C71.6202 67.0821 70.6449 67.2795 69.507 67.8832C68.3924 68.4638 67.2197 69.3114 65.9889 70.426C64.7814 71.5175 63.5739 72.7947 62.3663 74.2576C61.182 75.6974 60.1022 77.1836 59.1269 78.7162C58.1516 80.2489 57.3504 81.7467 56.7234 83.2096C56.0964 84.6494 55.7365 85.9266 55.6436 87.0412C55.5739 88.1327 55.8178 88.9803 56.3751 89.584C56.9556 90.1646 57.9658 90.3504 59.4055 90.1414C60.7292 89.9556 61.9483 89.4911 63.063 88.7481C64.2008 87.9817 65.2923 87.1457 66.3373 86.2401C67.4055 85.3112 68.462 84.4056 69.507 83.5231C70.552 82.6175 71.6434 81.9324 72.7813 81.468C73.1993 81.3055 73.5244 81.3635 73.7566 81.6422C74.0121 81.9208 74.0817 82.2576 73.9656 82.6523C73.8263 83.0471 73.4083 83.5696 72.7116 84.2198C72.0382 84.87 71.1906 85.5551 70.1689 86.2749C69.1703 86.9716 68.0673 87.6798 66.8597 88.3997C65.6522 89.0964 64.4679 89.7001 63.3068 90.211C62.1689 90.7219 61.1007 91.0935 60.1022 91.3257C59.1269 91.5579 58.3606 91.5579 57.8032 91.3257Z" fill="#0078A3"/>
<path d="M74.8169 91.3257C74.7705 91.3025 74.7705 91.0354 74.8169 90.5245C74.8866 89.9904 74.9795 89.3286 75.0956 88.5391C75.2117 87.7495 75.3626 86.8787 75.5484 85.9266C75.7342 84.9745 75.9316 84.0689 76.1406 83.2096C76.3496 82.3272 76.5702 81.5609 76.8024 80.9107C77.0578 80.2373 77.3017 79.7728 77.5339 79.5174C77.6964 79.3548 77.859 79.3548 78.0215 79.5174C78.1841 79.6567 78.3466 79.8425 78.5092 80.0747C78.6718 80.2837 78.8343 80.4811 78.9969 80.6669C79.1594 80.8294 79.3336 80.841 79.5193 80.7017C80.1696 79.796 80.8778 78.9368 81.6441 78.1241C82.4337 77.2881 83.3045 76.5682 84.2566 75.9644C84.3495 75.8948 84.6049 75.7903 85.0229 75.6509C85.4409 75.4884 85.917 75.3375 86.4511 75.1981C86.9852 75.0356 87.5309 74.9078 88.0882 74.815C88.6687 74.6989 89.1564 74.6524 89.5512 74.6756C89.9692 74.6756 90.2478 74.7801 90.3872 74.9891C90.5497 75.1749 90.48 75.5 90.1782 75.9644C88.7849 75.9877 87.4844 76.394 86.2769 77.1836C85.0694 77.9731 83.9547 78.9484 82.933 80.1095C81.9112 81.2706 80.9823 82.5362 80.1463 83.9063C79.3104 85.2532 78.5789 86.5071 77.9519 87.6682C77.3481 88.8293 76.8372 89.793 76.4192 90.5594C76.0245 91.3257 75.7342 91.7088 75.5484 91.7088C75.5252 91.7088 75.4207 91.6624 75.2349 91.5695C75.0491 91.4534 74.9098 91.3721 74.8169 91.3257Z" fill="#0078A3"/>
<path d="M88.8002 91.3257C89.7523 88.2604 90.6115 85.8337 91.3778 84.0456C92.1673 82.2343 92.8176 80.9687 93.3284 80.2489C93.8625 79.529 94.2225 79.2968 94.4082 79.5522C94.594 79.8077 94.5708 80.4579 94.3386 81.5028C94.1296 82.5478 93.6651 83.9527 92.9453 85.7176C92.2486 87.4592 91.2617 89.4563 89.9845 91.7088C89.7987 91.7785 89.5781 91.7901 89.3227 91.7437C89.0672 91.6972 88.8931 91.5579 88.8002 91.3257ZM94.8959 74.5711C94.8495 74.455 94.8262 74.246 94.8262 73.9441C94.8262 73.6423 94.8495 73.4565 94.8959 73.3868C95.43 73.201 95.8364 73.1778 96.1151 73.3172C96.3937 73.4565 96.5679 73.6655 96.6375 73.9441C96.7072 74.1996 96.6956 74.4782 96.6027 74.7801C96.533 75.082 96.4053 75.3142 96.2195 75.4768C96.0338 75.6161 95.8132 75.6393 95.5577 75.5464C95.3255 75.4303 95.1049 75.1052 94.8959 74.5711Z" fill="#0078A3"/>
<path d="M95.9562 91.3257C95.6776 91.1399 95.6659 90.8961 95.9214 90.5942C96.2 90.2691 96.6296 89.9324 97.2102 89.584C97.814 89.2125 98.5106 88.8293 99.3002 88.4346C100.09 88.0398 100.844 87.6682 101.564 87.3199C102.307 86.9716 102.958 86.6697 103.515 86.4143C104.072 86.1356 104.432 85.9266 104.595 85.7873C105.361 85.1371 105.756 84.603 105.779 84.185C105.825 83.7437 105.64 83.3954 105.222 83.14C104.804 82.8613 104.212 82.6523 103.445 82.513C102.702 82.3504 101.924 82.2111 101.111 82.095C100.322 81.9557 99.5556 81.8163 98.8125 81.677C98.0926 81.5377 97.5469 81.3519 97.1754 81.1197C96.8038 80.8875 96.6761 80.5856 96.7922 80.214C96.9315 79.8193 97.4424 79.32 98.3248 78.7162C98.6499 78.484 99.126 78.1473 99.753 77.7061C100.38 77.2649 101.053 76.812 101.773 76.3476C102.516 75.8832 103.248 75.4652 103.968 75.0936C104.688 74.7221 105.291 74.4782 105.779 74.3621C106.034 74.3157 106.29 74.3389 106.545 74.4318C106.824 74.5247 107.045 74.664 107.207 74.8498C107.37 75.0123 107.439 75.1981 107.416 75.4071C107.416 75.6161 107.265 75.8019 106.963 75.9644C105.64 76.7075 104.363 77.4042 103.132 78.0544C101.924 78.7046 100.705 79.4477 99.4743 80.2837C99.4047 80.4695 99.4163 80.632 99.5092 80.7714C99.6253 80.9107 99.753 81.0152 99.8923 81.0849C102.354 81.3403 104.2 81.7002 105.431 82.1647C106.685 82.6291 107.474 83.14 107.799 83.6973C108.148 84.2546 108.113 84.8468 107.695 85.4738C107.277 86.1008 106.65 86.7161 105.814 87.3199C105.001 87.9237 104.061 88.4926 102.992 89.0267C101.924 89.5608 100.891 90.0136 99.8923 90.3852C98.917 90.7567 98.0578 91.0354 97.3147 91.2212C96.5716 91.4069 96.1188 91.4418 95.9562 91.3257Z" fill="#0078A3"/>
<path d="M126.222 91.3257C125.061 90.838 124.294 90.1646 123.923 89.3054C123.551 88.4229 123.423 87.4825 123.54 86.4839C123.656 85.4622 123.934 84.4404 124.376 83.4186C124.84 82.3969 125.316 81.4912 125.804 80.7017C125.966 80.423 126.268 79.947 126.709 79.2736C127.151 78.6001 127.615 77.8919 128.103 77.1488C128.614 76.3824 129.09 75.6742 129.531 75.024C129.995 74.3505 130.32 73.8861 130.506 73.6306C130.785 71.8426 131.342 70.426 132.178 69.3811C133.014 68.3129 133.955 67.5814 135 67.1866C136.068 66.7918 137.159 66.7105 138.274 66.9428C139.388 67.1518 140.364 67.651 141.2 68.4406C142.036 69.2069 142.639 70.2403 143.011 71.5407C143.383 72.8411 143.348 74.3621 142.907 76.1038C142.489 77.8454 141.583 79.796 140.19 81.9557C138.796 84.1153 136.753 86.4491 134.059 88.957C133.595 89.3983 133.037 89.8279 132.387 90.2459C131.76 90.6406 131.087 90.9657 130.367 91.2212C129.67 91.4766 128.962 91.6276 128.242 91.674C127.522 91.7204 126.849 91.6043 126.222 91.3257ZM125.003 88.5739C125.235 89.6189 125.676 90.2691 126.326 90.5245C126.976 90.78 127.743 90.7335 128.625 90.3852C129.508 90.0369 130.471 89.4447 131.516 88.6087C132.561 87.7727 133.606 86.7974 134.651 85.6828C135.696 84.5449 136.695 83.3141 137.647 81.9905C138.599 80.6669 139.423 79.3548 140.12 78.0544C140.84 76.754 141.386 75.5116 141.757 74.3273C142.129 73.143 142.245 72.1212 142.105 71.262C141.989 70.3796 141.571 69.7178 140.851 69.2766C140.155 68.8353 139.075 68.7076 137.612 68.8934C137.078 69.3578 136.37 70.0429 135.487 70.9485C134.605 71.831 133.664 72.8411 132.666 73.979C131.667 75.1168 130.669 76.3476 129.67 77.6712C128.672 78.9717 127.789 80.2721 127.023 81.5725C126.256 82.8729 125.676 84.1269 125.281 85.3344C124.886 86.542 124.794 87.6218 125.003 88.5739Z" fill="#0078A3"/>
<path d="M143.185 91.3257C142.512 90.838 142.071 90.2226 141.862 89.4795C141.676 88.7364 141.653 87.9353 141.792 87.0761C141.931 86.1937 142.175 85.288 142.523 84.3591C142.895 83.4303 143.29 82.5362 143.708 81.677C144.149 80.8178 144.567 80.0283 144.962 79.3084C145.38 78.5885 145.705 77.9964 145.937 77.5319C146.007 77.3926 146.169 77.0559 146.425 76.5218C146.703 75.9877 146.994 75.4071 147.295 74.7801C147.597 74.1531 147.876 73.5726 148.131 73.0385C148.41 72.4812 148.584 72.1328 148.654 71.9935C148.724 71.8774 148.816 71.6568 148.933 71.3317C149.072 70.9834 149.223 70.6118 149.385 70.217C149.548 69.8223 149.722 69.4507 149.908 69.1024C150.117 68.7308 150.326 68.4638 150.535 68.3012C150.767 68.1387 150.988 68.1155 151.197 68.2316C151.429 68.3477 151.65 68.696 151.859 69.2766C151.766 69.5088 151.533 69.9732 151.162 70.6699C150.814 71.3665 150.396 72.2025 149.908 73.1778C149.42 74.1531 148.875 75.233 148.271 76.4173C147.69 77.6016 147.121 78.7975 146.564 80.005C146.007 81.2126 145.484 82.3969 144.996 83.558C144.509 84.6958 144.102 85.7408 143.777 86.6929C143.475 87.6218 143.29 88.3997 143.22 89.0267C143.174 89.6305 143.29 90.002 143.568 90.1414C143.893 90.3039 144.311 90.3736 144.822 90.3504C145.356 90.3039 145.902 90.2342 146.459 90.1414C147.017 90.0485 147.563 89.9556 148.097 89.8627C148.631 89.7466 149.095 89.7001 149.49 89.7234C149.583 89.9324 149.513 90.1414 149.281 90.3504C149.049 90.5361 148.724 90.7103 148.306 90.8728C147.888 91.0122 147.4 91.1399 146.843 91.256C146.309 91.3489 145.786 91.4186 145.275 91.465C144.788 91.5114 144.346 91.5231 143.952 91.4998C143.58 91.4766 143.325 91.4186 143.185 91.3257Z" fill="#0078A3"/>
<path d="M150.69 91.3257C151.642 88.2604 152.501 85.8337 153.267 84.0456C154.057 82.2343 154.707 80.9687 155.218 80.2489C155.752 79.529 156.112 79.2968 156.298 79.5522C156.483 79.8077 156.46 80.4579 156.228 81.5028C156.019 82.5478 155.555 83.9527 154.835 85.7176C154.138 87.4592 153.151 89.4563 151.874 91.7088C151.688 91.7785 151.467 91.7901 151.212 91.7437C150.957 91.6972 150.782 91.5579 150.69 91.3257ZM156.785 74.5711C156.739 74.455 156.716 74.246 156.716 73.9441C156.716 73.6423 156.739 73.4565 156.785 73.3868C157.319 73.201 157.726 73.1778 158.004 73.3172C158.283 73.4565 158.457 73.6655 158.527 73.9441C158.597 74.1996 158.585 74.4782 158.492 74.7801C158.422 75.082 158.295 75.3142 158.109 75.4768C157.923 75.6161 157.703 75.6393 157.447 75.5464C157.215 75.4303 156.994 75.1052 156.785 74.5711Z" fill="#0078A3"/>
<path d="M158.821 90.9077C158.333 90.629 157.985 90.1878 157.776 89.584C157.567 88.9803 157.451 88.2952 157.428 87.5289C157.404 86.7626 157.451 85.9614 157.567 85.1254C157.683 84.2895 157.822 83.4767 157.985 82.6872C158.147 81.8976 158.31 81.1894 158.473 80.5624C158.635 79.9354 158.751 79.4477 158.821 79.0994C158.937 79.0297 159.053 79.0297 159.169 79.0994C159.309 79.1691 159.436 79.2736 159.552 79.4129C159.692 79.529 159.796 79.6451 159.866 79.7612C159.959 79.8541 160.005 79.9005 160.005 79.9005C160.075 80.7133 160.075 81.5145 160.005 82.304C159.959 83.0703 159.889 83.8366 159.796 84.603C159.727 85.3693 159.657 86.1472 159.587 86.9367C159.541 87.7263 159.541 88.5274 159.587 89.3402C159.773 89.6885 160.156 89.7001 160.737 89.375C161.317 89.0267 162.026 88.481 162.862 87.7379C163.698 86.9716 164.603 86.0775 165.578 85.0558C166.577 84.0108 167.552 82.9774 168.504 81.9557C169.48 80.9339 170.397 79.9818 171.256 79.0994C172.115 78.1937 172.835 77.5087 173.416 77.0443C174.02 76.5566 174.438 76.3592 174.67 76.4521C174.902 76.5218 174.867 77.0094 174.565 77.9151C174.008 78.4027 173.346 79.1342 172.58 80.1095C171.814 81.0849 170.978 82.1414 170.072 83.2793C169.166 84.394 168.226 85.5086 167.25 86.6233C166.275 87.7379 165.288 88.7016 164.29 89.5144C163.314 90.3039 162.362 90.8612 161.433 91.1863C160.505 91.4882 159.634 91.3953 158.821 90.9077Z" fill="#0078A3"/>
<path d="M175.974 91.3257C175.277 91.0935 174.743 90.7451 174.372 90.2807C174.023 89.793 173.791 89.2589 173.675 88.6784C173.559 88.0978 173.536 87.4941 173.605 86.8671C173.698 86.2169 173.838 85.6015 174.023 85.021C174.72 84.2779 175.498 83.4303 176.357 82.4782C177.24 81.5028 178.168 80.5507 179.144 79.6219C180.119 78.693 181.129 77.8338 182.174 77.0443C183.242 76.2315 184.322 75.6161 185.414 75.1981C185.785 75.0356 186.075 75.0472 186.284 75.233C186.517 75.3955 186.679 75.6626 186.772 76.0341C186.865 76.4057 186.9 76.8353 186.877 77.3229C186.877 77.8106 186.842 78.2866 186.772 78.7511C186.702 79.2155 186.61 79.6335 186.493 80.005C186.377 80.3766 186.261 80.632 186.145 80.7714C185.866 81.0965 185.321 81.4796 184.508 81.9208C183.718 82.3621 182.836 82.8497 181.861 83.3838C180.885 83.8947 179.91 84.4288 178.935 84.9861C177.959 85.5434 177.158 86.1008 176.531 86.6581C175.904 87.1922 175.533 87.7263 175.417 88.2604C175.301 88.7945 175.626 89.2822 176.392 89.7234C177.181 89.8163 178.134 89.7814 179.248 89.6189C180.386 89.4331 181.536 89.2009 182.697 88.9222C183.881 88.6203 185.019 88.3184 186.11 88.0166C187.202 87.6915 188.096 87.436 188.792 87.2502L189.21 87.6334C188.699 88.3068 187.864 88.9222 186.702 89.4795C185.541 90.0369 184.287 90.5013 182.94 90.8728C181.594 91.2212 180.282 91.4534 179.004 91.5695C177.727 91.6624 176.717 91.5811 175.974 91.3257ZM184.299 78.0196C184.276 77.9964 184.102 78.1008 183.776 78.3331C183.451 78.5421 183.045 78.8323 182.557 79.2039C182.093 79.5522 181.582 79.947 181.025 80.3882C180.491 80.8062 179.991 81.201 179.527 81.5725C179.086 81.9441 178.714 82.2692 178.412 82.5478C178.11 82.8033 177.983 82.931 178.029 82.931C178.401 83.0007 178.877 82.9542 179.457 82.7917C180.061 82.6059 180.676 82.3504 181.303 82.0253C181.954 81.7002 182.569 81.3403 183.149 80.9455C183.73 80.5275 184.183 80.1211 184.508 79.7264C184.856 79.3316 185.03 78.9833 185.03 78.6814C185.054 78.3795 184.81 78.1589 184.299 78.0196Z" fill="#0078A3"/>
<path d="M188.549 91.3257C189.501 88.2604 190.36 85.8337 191.126 84.0456C191.916 82.2343 192.566 80.9687 193.077 80.2489C193.611 79.529 193.971 79.2968 194.157 79.5522C194.342 79.8077 194.319 80.4579 194.087 81.5028C193.878 82.5478 193.414 83.9527 192.694 85.7176C191.997 87.4592 191.01 89.4563 189.733 91.7088C189.547 91.7785 189.326 91.7901 189.071 91.7437C188.816 91.6972 188.641 91.5579 188.549 91.3257ZM194.644 74.5711C194.598 74.455 194.575 74.246 194.575 73.9441C194.575 73.6423 194.598 73.4565 194.644 73.3868C195.178 73.201 195.585 73.1778 195.863 73.3172C196.142 73.4565 196.316 73.6655 196.386 73.9441C196.456 74.1996 196.444 74.4782 196.351 74.7801C196.281 75.082 196.154 75.3142 195.968 75.4768C195.782 75.6161 195.562 75.6393 195.306 75.5464C195.074 75.4303 194.853 75.1052 194.644 74.5711Z" fill="#0078A3"/>
<path d="M195.705 91.3257C195.658 91.3025 195.658 91.0354 195.705 90.5245C195.774 89.9904 195.867 89.3286 195.983 88.5391C196.099 87.7495 196.25 86.8787 196.436 85.9266C196.622 84.9745 196.819 84.0689 197.028 83.2096C197.237 82.3272 197.458 81.5609 197.69 80.9107C197.945 80.2373 198.189 79.7728 198.422 79.5174C198.584 79.3548 198.747 79.3548 198.909 79.5174C199.072 79.6567 199.234 79.8425 199.397 80.0747C199.559 80.2837 199.722 80.4811 199.885 80.6669C200.047 80.8294 200.221 80.841 200.407 80.7017C201.057 79.796 201.765 78.9368 202.532 78.1241C203.321 77.2881 204.192 76.5682 205.144 75.9644C205.237 75.8948 205.493 75.7903 205.911 75.6509C206.329 75.4884 206.805 75.3375 207.339 75.1981C207.873 75.0356 208.419 74.9078 208.976 74.815C209.556 74.6989 210.044 74.6524 210.439 74.6756C210.857 74.6756 211.135 74.7801 211.275 74.9891C211.437 75.1749 211.368 75.5 211.066 75.9644C209.673 75.9877 208.372 76.394 207.165 77.1836C205.957 77.9731 204.842 78.9484 203.821 80.1095C202.799 81.2706 201.87 82.5362 201.034 83.9063C200.198 85.2532 199.467 86.5071 198.84 87.6682C198.236 88.8293 197.725 89.793 197.307 90.5594C196.912 91.3257 196.622 91.7088 196.436 91.7088C196.413 91.7088 196.308 91.6624 196.123 91.5695C195.937 91.4534 195.797 91.3721 195.705 91.3257Z" fill="#0078A3"/>
<path d="M207.902 90.9077C207.344 90.4432 207.031 89.7582 206.961 88.8525C206.915 87.9469 207.042 86.9251 207.344 85.7873C207.669 84.6494 208.134 83.4651 208.738 82.2343C209.365 80.9804 210.084 79.796 210.897 78.6814C211.71 77.5435 212.592 76.5334 213.545 75.6509C214.497 74.7453 215.449 74.0835 216.401 73.6655C217.353 73.2243 218.282 73.0733 219.187 73.2127C220.093 73.3288 220.917 73.8513 221.661 74.7801C222.125 75.3607 222.404 75.9528 222.497 76.5566C222.589 77.1371 222.578 77.7409 222.462 78.3679C222.346 78.9717 222.16 79.5987 221.904 80.2489C221.649 80.8759 221.393 81.5145 221.138 82.1647C220.906 82.8149 220.708 83.4767 220.546 84.1501C220.407 84.8236 220.383 85.5086 220.476 86.2053C220.592 87.0877 220.987 87.6102 221.661 87.7727C222.334 87.9353 223.135 87.8888 224.064 87.6334C225.016 87.378 226.015 86.9716 227.06 86.4143C228.105 85.8569 229.068 85.2996 229.951 84.7423C230.856 84.185 231.599 83.6973 232.18 83.2793C232.784 82.8613 233.086 82.6523 233.086 82.6523C233.736 82.513 234.096 82.5594 234.165 82.7917C234.258 83.0007 234.131 83.3258 233.782 83.767C233.457 84.185 232.958 84.6726 232.285 85.2299C231.611 85.764 230.845 86.2865 229.986 86.7974C229.126 87.3083 228.209 87.7727 227.234 88.1907C226.258 88.6087 225.306 88.899 224.378 89.0615C223.449 89.2009 222.566 89.1893 221.73 89.0267C220.917 88.8409 220.244 88.4229 219.71 87.7727C219.454 87.4941 219.257 87.2154 219.118 86.9367C219.002 86.6581 218.804 86.4143 218.526 86.2053C218.177 86.5304 217.759 86.96 217.272 87.4941C216.784 88.005 216.25 88.5274 215.669 89.0615C215.112 89.5724 214.508 90.0601 213.858 90.5245C213.231 90.989 212.581 91.3373 211.907 91.5695C211.234 91.8017 210.549 91.883 209.852 91.8133C209.179 91.7437 208.529 91.4418 207.902 90.9077ZM208.285 89.7234C208.494 90.4665 208.958 90.8148 209.678 90.7683C210.398 90.6987 211.234 90.3387 212.186 89.6885C213.138 89.0383 214.125 88.1559 215.147 87.0412C216.169 85.9034 217.086 84.6494 217.899 83.2793C218.711 81.886 219.327 80.423 219.745 78.8904C220.186 77.3577 220.302 75.8483 220.093 74.3621C219.536 73.9209 218.839 73.9093 218.003 74.3273C217.167 74.7221 216.273 75.3839 215.321 76.3128C214.392 77.2184 213.463 78.3098 212.534 79.587C211.629 80.841 210.828 82.1182 210.131 83.4186C209.434 84.6958 208.9 85.9034 208.529 87.0412C208.18 88.1791 208.099 89.0732 208.285 89.7234Z" fill="#0078A3"/>
<path d="M87.8986 109.743H85.584V108.208H92.1071V109.743H89.7924V114.468H87.8986V109.743Z" fill="#FF9A2E"/>
<path d="M97.3727 111.873C97.3727 112.294 97.4779 112.604 97.6883 112.803C97.9046 113.001 98.2436 113.101 98.7054 113.101C99.173 113.101 99.512 113.001 99.7224 112.803C99.9387 112.604 100.047 112.294 100.047 111.873V108.208H101.941V111.724C101.941 112.753 101.663 113.495 101.108 113.951C100.552 114.401 99.7516 114.626 98.7054 114.626C97.6649 114.626 96.8671 114.401 96.3118 113.951C95.7565 113.495 95.4789 112.753 95.4789 111.724V108.208H97.3727V111.873Z" fill="#FF9A2E"/>
<path d="M105.919 108.208H108.883C110.145 108.208 111.098 108.474 111.741 109.006C112.384 109.532 112.706 110.31 112.706 111.338C112.706 112.332 112.369 113.104 111.697 113.653C111.025 114.197 110.061 114.468 108.804 114.468H105.919V108.208ZM108.848 112.969C110.14 112.969 110.785 112.423 110.785 111.33C110.785 110.248 110.163 109.708 108.918 109.708H107.787V112.969H108.848Z" fill="#FF9A2E"/>
<path d="M119.932 114.626C119.161 114.626 118.498 114.495 117.942 114.232C117.387 113.969 116.957 113.592 116.653 113.101C116.355 112.61 116.206 112.022 116.206 111.338C116.206 110.655 116.358 110.067 116.662 109.576C116.966 109.085 117.399 108.708 117.96 108.445C118.521 108.182 119.19 108.051 119.968 108.051C120.739 108.051 121.402 108.182 121.958 108.445C122.513 108.708 122.94 109.085 123.238 109.576C123.542 110.067 123.694 110.655 123.694 111.338C123.694 112.022 123.542 112.61 123.238 113.101C122.934 113.592 122.501 113.969 121.94 114.232C121.379 114.495 120.71 114.626 119.932 114.626ZM121.73 111.338C121.73 110.777 121.572 110.345 121.256 110.041C120.947 109.731 120.511 109.576 119.95 109.576C119.389 109.576 118.95 109.731 118.635 110.041C118.325 110.351 118.17 110.783 118.17 111.338C118.17 111.9 118.325 112.335 118.635 112.645C118.95 112.949 119.389 113.101 119.95 113.101C120.511 113.101 120.947 112.946 121.256 112.636C121.572 112.326 121.73 111.894 121.73 111.338Z" fill="#FF9A2E"/>
<path d="M132.476 108.208H135.439C136.702 108.208 137.654 108.474 138.297 109.006C138.94 109.532 139.262 110.31 139.262 111.338C139.262 112.332 138.926 113.104 138.254 113.653C137.581 114.197 136.617 114.468 135.36 114.468H132.476V108.208ZM135.404 112.969C136.696 112.969 137.342 112.423 137.342 111.33C137.342 110.248 136.719 109.708 135.474 109.708H134.343V112.969H135.404Z" fill="#FF9A2E"/>
<path d="M143.043 108.208H148.523V109.585H144.893V110.602H148.347V111.978H144.893V113.092H148.733L148.558 114.468H143.043V108.208Z" fill="#FF9A2E"/>
<path d="M159.158 109.743H156.843V108.208H163.366V109.743H161.051V114.468H159.158V109.743Z" fill="#FF9A2E"/>
<path d="M166.808 108.208H172.288V109.585H168.658V110.602H172.112V111.978H168.658V113.092H172.498L172.323 114.468H166.808V108.208Z" fill="#FF9A2E"/>
<path d="M183.094 114.468H180.875L179.28 112.373L177.684 114.468H175.58L178.122 111.216L175.773 108.208H177.991L179.306 110.032L180.691 108.208H182.796L180.472 111.154L183.094 114.468Z" fill="#FF9A2E"/>
<path d="M188.231 109.743H185.916V108.208H192.439V109.743H190.125V114.468H188.231V109.743Z" fill="#FF9A2E"/>
<path d="M199.045 114.626C198.273 114.626 197.61 114.495 197.054 114.232C196.499 113.969 196.069 113.592 195.765 113.101C195.467 112.61 195.318 112.022 195.318 111.338C195.318 110.655 195.47 110.067 195.774 109.576C196.078 109.085 196.511 108.708 197.072 108.445C197.633 108.182 198.302 108.051 199.08 108.051C199.851 108.051 200.515 108.182 201.07 108.445C201.625 108.708 202.052 109.085 202.35 109.576C202.654 110.067 202.806 110.655 202.806 111.338C202.806 112.022 202.654 112.61 202.35 113.101C202.046 113.592 201.613 113.969 201.052 114.232C200.491 114.495 199.822 114.626 199.045 114.626ZM200.842 111.338C200.842 110.777 200.684 110.345 200.368 110.041C200.059 109.731 199.623 109.576 199.062 109.576C198.501 109.576 198.063 109.731 197.747 110.041C197.437 110.351 197.282 110.783 197.282 111.338C197.282 111.9 197.437 112.335 197.747 112.645C198.063 112.949 198.501 113.101 199.062 113.101C199.623 113.101 200.059 112.946 200.368 112.636C200.684 112.326 200.842 111.894 200.842 111.338Z" fill="#FF9A2E"/>
</svg>
