<svg width="289" height="181" viewBox="0 0 289 181" fill="none" xmlns="http://www.w3.org/2000/svg">
<g clip-path="url(#clip0_104_5227)">
<rect width="288" height="180" transform="translate(0.194824 0.810303)" fill="white"/>
<path d="M14.0331 211.677C0.749435 206.451 -8.3967 199.373 -13.4053 190.445C-18.4139 181.517 -20.4827 171.608 -19.6116 160.72C-18.5228 149.614 -15.0385 137.855 -9.15888 125.442C-3.06145 112.812 4.34256 100.181 13.0532 87.5509C21.9815 74.9206 31.781 62.6168 42.4515 50.6397C53.122 38.6627 63.6836 27.6655 74.1363 17.6483C84.589 7.63111 94.3885 -1.07949 103.535 -8.48351C112.681 -15.8875 120.085 -21.3316 125.747 -24.8159C133.586 -29.6067 140.119 -31.8933 145.346 -31.6755C150.572 -31.6755 154.709 -30.0423 157.758 -26.7758C161.025 -23.7271 163.202 -19.3718 164.291 -13.7099C165.598 -8.26574 166.142 -2.38608 165.924 3.92911C165.924 10.0265 165.271 16.2328 163.964 22.548C162.876 28.6455 161.351 33.9807 159.391 38.5538C157.649 43.1268 155.689 46.5022 153.512 48.6798C151.552 50.8575 149.592 50.9664 147.632 49.0065C147.414 47.2644 147.632 44.6512 148.285 41.167C148.939 37.4649 149.701 33.3274 150.572 28.7543C151.661 24.1813 152.641 19.4993 153.512 14.7085C154.383 9.91765 154.927 5.56235 155.145 1.64257C155.58 -2.49496 155.472 -5.97921 154.818 -8.81015C154.383 -11.6411 153.185 -13.2743 151.225 -13.7099C143.603 -15.6698 134.457 -13.8188 123.787 -8.15686C113.334 -2.71273 102.337 5.2357 90.7953 15.6884C79.4715 25.9234 68.1478 37.9005 56.824 51.6197C45.7179 65.1211 35.5919 79.0581 26.4457 93.4306C17.2996 107.803 9.78669 121.849 3.90703 135.568C-1.97263 149.07 -5.34799 161.047 -6.21905 171.499C-6.87234 181.734 -4.58581 189.683 0.640554 195.345C6.08468 200.789 15.5575 202.531 29.0589 200.571C41.4715 198.829 52.9042 194.474 63.3569 187.505C74.0274 180.319 84.2624 172.479 94.0618 163.986C104.079 155.276 113.987 146.783 123.787 138.508C133.586 130.015 143.821 123.591 154.492 119.236C158.411 117.711 161.46 118.256 163.638 120.869C166.033 123.482 166.687 126.64 165.598 130.342C164.291 134.044 160.371 138.943 153.838 145.041C147.523 151.138 139.575 157.562 129.993 164.313C120.629 170.846 110.285 177.488 98.9615 184.239C87.6377 190.772 76.5317 196.434 65.6435 201.224C54.973 206.015 44.9558 209.499 35.5919 211.677C26.4457 213.855 19.2595 213.855 14.0331 211.677Z" fill="#0078A3"/>
<path d="M91.4748 76.5393C91.4748 77.6033 92.2588 78.3943 93.3718 78.3943C94.2958 78.3943 94.7858 77.8273 94.7858 77.8273L94.5128 77.3303C94.5128 77.3303 94.0788 77.8063 93.4208 77.8063C92.6858 77.8063 92.1678 77.2533 92.1678 76.5323C92.1678 75.8043 92.6858 75.2723 93.3998 75.2723C94.0018 75.2723 94.3798 75.6783 94.3798 75.6783L94.7018 75.2023C94.7018 75.2023 94.2608 74.6843 93.3718 74.6843C92.2588 74.6843 91.4748 75.4893 91.4748 76.5393ZM95.5549 78.3103H96.2339V76.8613C96.2339 76.6443 96.2549 76.4273 96.3179 76.2243C96.4789 75.6993 96.8779 75.3913 97.3119 75.3913C97.4169 75.3913 97.5079 75.4123 97.5079 75.4123V74.7403C97.5079 74.7403 97.4239 74.7263 97.3329 74.7263C96.7869 74.7263 96.3739 75.1323 96.2129 75.6503H96.1989C96.1989 75.6503 96.2129 75.5313 96.2129 75.3843V74.7683H95.5549V78.3103ZM98.1729 74.0613H98.8589V73.3683H98.1729V74.0613ZM98.1799 78.3103H98.8589V74.7683H98.1799V78.3103ZM99.6361 77.8763C99.6361 77.8763 100.112 78.3943 100.98 78.3943C101.757 78.3943 102.261 77.9533 102.261 77.3653C102.261 76.2033 100.441 76.3433 100.441 75.7063C100.441 75.3983 100.728 75.2723 101.022 75.2723C101.582 75.2723 101.897 75.5873 101.897 75.5873L102.17 75.0763C102.17 75.0763 101.806 74.6843 101.029 74.6843C100.322 74.6843 99.7481 75.0483 99.7481 75.6923C99.7481 76.8473 101.568 76.7143 101.568 77.3653C101.568 77.6523 101.274 77.8063 100.98 77.8063C100.364 77.8063 99.9651 77.3933 99.9651 77.3933L99.6361 77.8763ZM102.802 76.5323C102.802 77.6103 103.656 78.3943 104.713 78.3943C105.77 78.3943 106.624 77.6103 106.624 76.5323C106.624 75.4613 105.77 74.6843 104.713 74.6843C103.656 74.6843 102.802 75.4613 102.802 76.5323ZM103.495 76.5323C103.495 75.7973 104.048 75.2723 104.713 75.2723C105.385 75.2723 105.931 75.7973 105.931 76.5323C105.931 77.2743 105.385 77.8063 104.713 77.8063C104.048 77.8063 103.495 77.2743 103.495 76.5323ZM107.387 77.3443C107.387 78.2333 107.954 78.3383 108.339 78.3383C108.458 78.3383 108.563 78.3243 108.563 78.3243V77.7223C108.563 77.7223 108.507 77.7293 108.444 77.7293C108.234 77.7293 108.066 77.6523 108.066 77.2253V73.3683H107.387V77.3443ZM109.275 74.0613H109.961V73.3683H109.275V74.0613ZM109.282 78.3103H109.961V74.7683H109.282V78.3103ZM111.865 78.3103H112.649L113.958 74.7683H113.244L112.383 77.1623C112.313 77.3583 112.264 77.6453 112.257 77.6453H112.243C112.236 77.6453 112.194 77.3583 112.124 77.1623L111.263 74.7683H110.542L111.865 78.3103ZM114.293 76.5393C114.293 77.5893 115.056 78.3943 116.169 78.3943C117.016 78.3943 117.541 77.8903 117.541 77.8903L117.261 77.3933C117.261 77.3933 116.82 77.8063 116.211 77.8063C115.581 77.8063 115.028 77.4143 114.993 76.6373H117.576C117.576 76.6373 117.597 76.4343 117.597 76.3433C117.597 75.4263 117.065 74.6843 116.064 74.6843C115.056 74.6843 114.293 75.4123 114.293 76.5393ZM115.014 76.1263C115.112 75.5453 115.532 75.2233 116.05 75.2233C116.505 75.2233 116.883 75.5173 116.904 76.1263H115.014ZM118.414 74.0613H119.1V73.3683H118.414V74.0613ZM118.421 78.3103H119.1V74.7683H118.421V78.3103ZM120.164 78.3103H120.843V76.8613C120.843 76.6443 120.864 76.4273 120.927 76.2243C121.088 75.6993 121.487 75.3913 121.921 75.3913C122.026 75.3913 122.117 75.4123 122.117 75.4123V74.7403C122.117 74.7403 122.033 74.7263 121.942 74.7263C121.396 74.7263 120.983 75.1323 120.822 75.6503H120.808C120.808 75.6503 120.822 75.5313 120.822 75.3843V74.7683H120.164V78.3103ZM122.502 77.3163C122.502 78.0233 123.097 78.3943 123.706 78.3943C124.553 78.3943 124.84 77.6943 124.84 77.6943H124.854C124.854 77.6943 124.84 77.8133 124.84 77.9743V78.3103H125.47V76.0703C125.47 75.1743 124.966 74.6843 124.07 74.6843C123.258 74.6843 122.747 75.1043 122.747 75.1043L123.027 75.6013C123.027 75.6013 123.468 75.2583 124.014 75.2583C124.462 75.2583 124.791 75.4543 124.791 76.0353V76.0983H124.637C124.042 76.0983 122.502 76.1473 122.502 77.3163ZM123.188 77.2813C123.188 76.6443 124.112 76.6093 124.623 76.6093H124.798V76.7213C124.798 77.2463 124.427 77.8483 123.853 77.8483C123.412 77.8483 123.188 77.5683 123.188 77.2813ZM126.369 76.6233C126.369 78.0513 127.468 79.1853 129.036 79.1853V78.6323C127.846 78.6323 127.048 77.7293 127.048 76.6233C127.048 75.5313 127.874 74.5933 128.959 74.5933C129.68 74.5933 130.079 74.9153 130.093 75.3143H129.337C128.455 75.3143 127.888 75.9303 127.888 76.6233C127.888 77.3303 128.462 77.9463 129.337 77.9463H131.248V77.4353H130.744V75.4543C130.744 74.7123 130.275 74.0333 128.924 74.0333C127.496 74.0333 126.369 75.1813 126.369 76.6233ZM128.574 76.6163C128.574 76.1613 128.91 75.7833 129.4 75.7833H130.093V77.4353H129.386C128.91 77.4353 128.574 77.0713 128.574 76.6163ZM132.384 77.0153C132.384 78.1983 133.287 78.3383 133.742 78.3383C133.882 78.3383 133.98 78.3243 133.98 78.3243V77.7223C133.98 77.7223 133.917 77.7363 133.819 77.7363C133.56 77.7363 133.063 77.6453 133.063 76.9383V75.3633H133.917V74.8173H133.063V73.7953H132.405V74.8173H131.922V75.3633H132.384V77.0153ZM134.696 77.0363C134.696 77.9743 135.109 78.3943 135.907 78.3943C136.6 78.3943 137.062 77.9323 137.209 77.5823H137.223C137.223 77.5823 137.209 77.6943 137.209 77.8413V78.3103H137.867V74.7683H137.188V76.4273C137.188 77.1273 136.761 77.7643 136.04 77.7643C135.473 77.7643 135.375 77.3723 135.375 76.8823V74.7683H134.696V77.0363ZM138.698 76.5393C138.698 77.6383 139.3 78.3943 140.259 78.3943C141.134 78.3943 141.421 77.7363 141.421 77.7363H141.435C141.435 77.7363 141.428 77.8343 141.428 77.9743V78.3103H142.072V73.3683H141.393V75.0063C141.393 75.1393 141.407 75.2443 141.407 75.2443H141.393C141.393 75.2443 141.12 74.6843 140.301 74.6843C139.363 74.6843 138.698 75.4123 138.698 76.5393ZM139.391 76.5393C139.391 75.7343 139.853 75.2723 140.413 75.2723C141.085 75.2723 141.414 75.9023 141.414 76.5323C141.414 77.4353 140.917 77.8063 140.392 77.8063C139.804 77.8063 139.391 77.3093 139.391 76.5393ZM142.874 76.5323C142.874 77.6103 143.728 78.3943 144.785 78.3943C145.842 78.3943 146.696 77.6103 146.696 76.5323C146.696 75.4613 145.842 74.6843 144.785 74.6843C143.728 74.6843 142.874 75.4613 142.874 76.5323ZM143.567 76.5323C143.567 75.7973 144.12 75.2723 144.785 75.2723C145.457 75.2723 146.003 75.7973 146.003 76.5323C146.003 77.2743 145.457 77.8063 144.785 77.8063C144.12 77.8063 143.567 77.2743 143.567 76.5323ZM147.27 76.5393C147.27 77.6383 147.872 78.3943 148.831 78.3943C149.706 78.3943 149.993 77.7363 149.993 77.7363H150.007C150.007 77.7363 150 77.8343 150 77.9743V78.3103H150.644V73.3683H149.965V75.0063C149.965 75.1393 149.979 75.2443 149.979 75.2443H149.965C149.965 75.2443 149.692 74.6843 148.873 74.6843C147.935 74.6843 147.27 75.4123 147.27 76.5393ZM147.963 76.5393C147.963 75.7343 148.425 75.2723 148.985 75.2723C149.657 75.2723 149.986 75.9023 149.986 76.5323C149.986 77.4353 149.489 77.8063 148.964 77.8063C148.376 77.8063 147.963 77.3093 147.963 76.5393ZM151.46 76.5393C151.46 77.5893 152.223 78.3943 153.336 78.3943C154.183 78.3943 154.708 77.8903 154.708 77.8903L154.428 77.3933C154.428 77.3933 153.987 77.8063 153.378 77.8063C152.748 77.8063 152.195 77.4143 152.16 76.6373H154.743C154.743 76.6373 154.764 76.4343 154.764 76.3433C154.764 75.4263 154.232 74.6843 153.231 74.6843C152.223 74.6843 151.46 75.4123 151.46 76.5393ZM152.181 76.1263C152.279 75.5453 152.699 75.2233 153.217 75.2233C153.672 75.2233 154.05 75.5173 154.071 76.1263H152.181ZM155.735 77.0153C155.735 78.1983 156.638 78.3383 157.093 78.3383C157.233 78.3383 157.331 78.3243 157.331 78.3243V77.7223C157.331 77.7223 157.268 77.7363 157.17 77.7363C156.911 77.7363 156.414 77.6453 156.414 76.9383V75.3633H157.268V74.8173H156.414V73.7953H155.756V74.8173H155.273V75.3633H155.735V77.0153ZM157.852 76.5393C157.852 77.5893 158.615 78.3943 159.728 78.3943C160.575 78.3943 161.1 77.8903 161.1 77.8903L160.82 77.3933C160.82 77.3933 160.379 77.8063 159.77 77.8063C159.14 77.8063 158.587 77.4143 158.552 76.6373H161.135C161.135 76.6373 161.156 76.4343 161.156 76.3433C161.156 75.4263 160.624 74.6843 159.623 74.6843C158.615 74.6843 157.852 75.4123 157.852 76.5393ZM158.573 76.1263C158.671 75.5453 159.091 75.2233 159.609 75.2233C160.064 75.2233 160.442 75.5173 160.463 76.1263H158.573ZM163.233 76.9313C163.233 76.9313 163.289 77.0433 163.338 77.1273L164.08 78.3103H164.85L163.646 76.4903L164.787 74.7683H164.01L163.352 75.8463C163.296 75.9373 163.233 76.0563 163.233 76.0563H163.219C163.219 76.0563 163.156 75.9373 163.1 75.8463L162.442 74.7683H161.665L162.806 76.4903L161.602 78.3103H162.372L163.114 77.1273C163.163 77.0433 163.219 76.9313 163.219 76.9313H163.233ZM165.681 77.0153C165.681 78.1983 166.584 78.3383 167.039 78.3383C167.179 78.3383 167.277 78.3243 167.277 78.3243V77.7223C167.277 77.7223 167.214 77.7363 167.116 77.7363C166.857 77.7363 166.36 77.6453 166.36 76.9383V75.3633H167.214V74.8173H166.36V73.7953H165.702V74.8173H165.219V75.3633H165.681V77.0153ZM167.784 76.5323C167.784 77.6103 168.638 78.3943 169.695 78.3943C170.752 78.3943 171.606 77.6103 171.606 76.5323C171.606 75.4613 170.752 74.6843 169.695 74.6843C168.638 74.6843 167.784 75.4613 167.784 76.5323ZM168.477 76.5323C168.477 75.7973 169.03 75.2723 169.695 75.2723C170.367 75.2723 170.913 75.7973 170.913 76.5323C170.913 77.2743 170.367 77.8063 169.695 77.8063C169.03 77.8063 168.477 77.2743 168.477 76.5323ZM172.411 78.3103H173.125V77.5893H172.411V78.3103ZM173.937 76.5393C173.937 77.6033 174.721 78.3943 175.834 78.3943C176.758 78.3943 177.248 77.8273 177.248 77.8273L176.975 77.3303C176.975 77.3303 176.541 77.8063 175.883 77.8063C175.148 77.8063 174.63 77.2533 174.63 76.5323C174.63 75.8043 175.148 75.2723 175.862 75.2723C176.464 75.2723 176.842 75.6783 176.842 75.6783L177.164 75.2023C177.164 75.2023 176.723 74.6843 175.834 74.6843C174.721 74.6843 173.937 75.4893 173.937 76.5393ZM177.758 76.5323C177.758 77.6103 178.612 78.3943 179.669 78.3943C180.726 78.3943 181.58 77.6103 181.58 76.5323C181.58 75.4613 180.726 74.6843 179.669 74.6843C178.612 74.6843 177.758 75.4613 177.758 76.5323ZM178.451 76.5323C178.451 75.7973 179.004 75.2723 179.669 75.2723C180.341 75.2723 180.887 75.7973 180.887 76.5323C180.887 77.2743 180.341 77.8063 179.669 77.8063C179.004 77.8063 178.451 77.2743 178.451 76.5323ZM182.385 78.3103H183.064V76.6933C183.064 76.5323 183.071 76.3713 183.106 76.2313C183.239 75.7273 183.603 75.3003 184.121 75.3003C184.667 75.3003 184.737 75.7273 184.737 76.1893V78.3103H185.416V76.6933C185.416 76.5113 185.43 76.3503 185.465 76.2033C185.591 75.7203 185.962 75.3003 186.459 75.3003C186.991 75.3003 187.089 75.6923 187.089 76.1893V78.3103H187.768V76.0423C187.768 75.1393 187.397 74.6843 186.599 74.6843C186.025 74.6843 185.535 75.0623 185.339 75.4893H185.325C185.206 74.9573 184.856 74.6843 184.261 74.6843C183.708 74.6843 183.211 75.0833 183.043 75.4963H183.029C183.029 75.4963 183.043 75.3773 183.043 75.2373V74.7683H182.385V78.3103ZM188.783 78.3103H189.497V77.5893H188.783V78.3103ZM190.561 78.3103H191.205V78.0513C191.205 77.8973 191.191 77.7853 191.191 77.7853H191.205C191.205 77.7853 191.527 78.3943 192.318 78.3943C193.249 78.3943 193.928 77.6663 193.928 76.5393C193.928 75.4403 193.326 74.6843 192.374 74.6843C191.541 74.6843 191.24 75.2863 191.24 75.2863H191.226C191.226 75.2863 191.24 75.1603 191.24 74.9853V73.3683H190.561V78.3103ZM191.219 76.5533C191.219 75.6503 191.709 75.2793 192.241 75.2793C192.829 75.2793 193.242 75.7763 193.242 76.5463C193.242 77.3513 192.78 77.8133 192.22 77.8133C191.548 77.8133 191.219 77.1833 191.219 76.5533ZM194.758 78.3103H195.437V76.8613C195.437 76.6443 195.458 76.4273 195.521 76.2243C195.682 75.6993 196.081 75.3913 196.515 75.3913C196.62 75.3913 196.711 75.4123 196.711 75.4123V74.7403C196.711 74.7403 196.627 74.7263 196.536 74.7263C195.99 74.7263 195.577 75.1323 195.416 75.6503H195.402C195.402 75.6503 195.416 75.5313 195.416 75.3843V74.7683H194.758V78.3103Z" fill="#0078A3"/>
<path d="M103.455 88.3103H104.211L104.939 86.0353C104.995 85.8533 105.037 85.6503 105.037 85.6503H105.051C105.051 85.6503 105.093 85.8533 105.149 86.0353L105.884 88.3103H106.633L107.774 84.7683H107.06L106.318 87.2533C106.262 87.4353 106.234 87.6313 106.234 87.6313H106.22C106.22 87.6313 106.178 87.4353 106.122 87.2533L105.359 84.7753H104.736L103.966 87.2533C103.91 87.4353 103.875 87.6313 103.875 87.6313H103.861C103.854 87.6313 103.826 87.4353 103.77 87.2533L103.035 84.7683H102.314L103.455 88.3103ZM109.156 88.3103H109.912L110.64 86.0353C110.696 85.8533 110.738 85.6503 110.738 85.6503H110.752C110.752 85.6503 110.794 85.8533 110.85 86.0353L111.585 88.3103H112.334L113.475 84.7683H112.761L112.019 87.2533C111.963 87.4353 111.935 87.6313 111.935 87.6313H111.921C111.921 87.6313 111.879 87.4353 111.823 87.2533L111.06 84.7753H110.437L109.667 87.2533C109.611 87.4353 109.576 87.6313 109.576 87.6313H109.562C109.555 87.6313 109.527 87.4353 109.471 87.2533L108.736 84.7683H108.015L109.156 88.3103ZM114.857 88.3103H115.613L116.341 86.0353C116.397 85.8533 116.439 85.6503 116.439 85.6503H116.453C116.453 85.6503 116.495 85.8533 116.551 86.0353L117.286 88.3103H118.035L119.176 84.7683H118.462L117.72 87.2533C117.664 87.4353 117.636 87.6313 117.636 87.6313H117.622C117.622 87.6313 117.58 87.4353 117.524 87.2533L116.761 84.7753H116.138L115.368 87.2533C115.312 87.4353 115.277 87.6313 115.277 87.6313H115.263C115.256 87.6313 115.228 87.4353 115.172 87.2533L114.437 84.7683H113.716L114.857 88.3103ZM119.735 88.3103H120.449V87.5893H119.735V88.3103ZM121.618 87.0153C121.618 88.1983 122.521 88.3383 122.976 88.3383C123.116 88.3383 123.214 88.3243 123.214 88.3243V87.7223C123.214 87.7223 123.151 87.7363 123.053 87.7363C122.794 87.7363 122.297 87.6453 122.297 86.9383V85.3633H123.151V84.8173H122.297V83.7953H121.639V84.8173H121.156V85.3633H121.618V87.0153ZM123.931 87.0363C123.931 87.9743 124.344 88.3943 125.142 88.3943C125.835 88.3943 126.297 87.9323 126.444 87.5823H126.458C126.458 87.5823 126.444 87.6943 126.444 87.8413V88.3103H127.102V84.7683H126.423V86.4273C126.423 87.1273 125.996 87.7643 125.275 87.7643C124.708 87.7643 124.61 87.3723 124.61 86.8823V84.7683H123.931V87.0363ZM127.932 86.5393C127.932 87.6383 128.534 88.3943 129.493 88.3943C130.368 88.3943 130.655 87.7363 130.655 87.7363H130.669C130.669 87.7363 130.662 87.8343 130.662 87.9743V88.3103H131.306V83.3683H130.627V85.0063C130.627 85.1393 130.641 85.2443 130.641 85.2443H130.627C130.627 85.2443 130.354 84.6843 129.535 84.6843C128.597 84.6843 127.932 85.4123 127.932 86.5393ZM128.625 86.5393C128.625 85.7343 129.087 85.2723 129.647 85.2723C130.319 85.2723 130.648 85.9023 130.648 86.5323C130.648 87.4353 130.151 87.8063 129.626 87.8063C129.038 87.8063 128.625 87.3093 128.625 86.5393ZM132.108 86.5323C132.108 87.6103 132.962 88.3943 134.019 88.3943C135.076 88.3943 135.93 87.6103 135.93 86.5323C135.93 85.4613 135.076 84.6843 134.019 84.6843C132.962 84.6843 132.108 85.4613 132.108 86.5323ZM132.801 86.5323C132.801 85.7973 133.354 85.2723 134.019 85.2723C134.691 85.2723 135.237 85.7973 135.237 86.5323C135.237 87.2743 134.691 87.8063 134.019 87.8063C133.354 87.8063 132.801 87.2743 132.801 86.5323ZM136.505 86.5393C136.505 87.6383 137.107 88.3943 138.066 88.3943C138.941 88.3943 139.228 87.7363 139.228 87.7363H139.242C139.242 87.7363 139.235 87.8343 139.235 87.9743V88.3103H139.879V83.3683H139.2V85.0063C139.2 85.1393 139.214 85.2443 139.214 85.2443H139.2C139.2 85.2443 138.927 84.6843 138.108 84.6843C137.17 84.6843 136.505 85.4123 136.505 86.5393ZM137.198 86.5393C137.198 85.7343 137.66 85.2723 138.22 85.2723C138.892 85.2723 139.221 85.9023 139.221 86.5323C139.221 87.4353 138.724 87.8063 138.199 87.8063C137.611 87.8063 137.198 87.3093 137.198 86.5393ZM140.695 86.5393C140.695 87.5893 141.458 88.3943 142.571 88.3943C143.418 88.3943 143.943 87.8903 143.943 87.8903L143.663 87.3933C143.663 87.3933 143.222 87.8063 142.613 87.8063C141.983 87.8063 141.43 87.4143 141.395 86.6373H143.978C143.978 86.6373 143.999 86.4343 143.999 86.3433C143.999 85.4263 143.467 84.6843 142.466 84.6843C141.458 84.6843 140.695 85.4123 140.695 86.5393ZM141.416 86.1263C141.514 85.5453 141.934 85.2233 142.452 85.2233C142.907 85.2233 143.285 85.5173 143.306 86.1263H141.416ZM144.97 87.0153C144.97 88.1983 145.873 88.3383 146.328 88.3383C146.468 88.3383 146.566 88.3243 146.566 88.3243V87.7223C146.566 87.7223 146.503 87.7363 146.405 87.7363C146.146 87.7363 145.649 87.6453 145.649 86.9383V85.3633H146.503V84.8173H145.649V83.7953H144.991V84.8173H144.508V85.3633H144.97V87.0153ZM147.086 86.5393C147.086 87.5893 147.849 88.3943 148.962 88.3943C149.809 88.3943 150.334 87.8903 150.334 87.8903L150.054 87.3933C150.054 87.3933 149.613 87.8063 149.004 87.8063C148.374 87.8063 147.821 87.4143 147.786 86.6373H150.369C150.369 86.6373 150.39 86.4343 150.39 86.3433C150.39 85.4263 149.858 84.6843 148.857 84.6843C147.849 84.6843 147.086 85.4123 147.086 86.5393ZM147.807 86.1263C147.905 85.5453 148.325 85.2233 148.843 85.2233C149.298 85.2233 149.676 85.5173 149.697 86.1263H147.807ZM152.467 86.9313C152.467 86.9313 152.523 87.0433 152.572 87.1273L153.314 88.3103H154.084L152.88 86.4903L154.021 84.7683H153.244L152.586 85.8463C152.53 85.9373 152.467 86.0563 152.467 86.0563H152.453C152.453 86.0563 152.39 85.9373 152.334 85.8463L151.676 84.7683H150.899L152.04 86.4903L150.836 88.3103H151.606L152.348 87.1273C152.397 87.0433 152.453 86.9313 152.453 86.9313H152.467ZM154.916 87.0153C154.916 88.1983 155.819 88.3383 156.274 88.3383C156.414 88.3383 156.512 88.3243 156.512 88.3243V87.7223C156.512 87.7223 156.449 87.7363 156.351 87.7363C156.092 87.7363 155.595 87.6453 155.595 86.9383V85.3633H156.449V84.8173H155.595V83.7953H154.937V84.8173H154.454V85.3633H154.916V87.0153ZM157.019 86.5323C157.019 87.6103 157.873 88.3943 158.93 88.3943C159.987 88.3943 160.841 87.6103 160.841 86.5323C160.841 85.4613 159.987 84.6843 158.93 84.6843C157.873 84.6843 157.019 85.4613 157.019 86.5323ZM157.712 86.5323C157.712 85.7973 158.265 85.2723 158.93 85.2723C159.602 85.2723 160.148 85.7973 160.148 86.5323C160.148 87.2743 159.602 87.8063 158.93 87.8063C158.265 87.8063 157.712 87.2743 157.712 86.5323ZM161.646 88.3103H162.36V87.5893H161.646V88.3103ZM163.171 86.5393C163.171 87.6033 163.955 88.3943 165.068 88.3943C165.992 88.3943 166.482 87.8273 166.482 87.8273L166.209 87.3303C166.209 87.3303 165.775 87.8063 165.117 87.8063C164.382 87.8063 163.864 87.2533 163.864 86.5323C163.864 85.8043 164.382 85.2723 165.096 85.2723C165.698 85.2723 166.076 85.6783 166.076 85.6783L166.398 85.2023C166.398 85.2023 165.957 84.6843 165.068 84.6843C163.955 84.6843 163.171 85.4893 163.171 86.5393ZM166.992 86.5323C166.992 87.6103 167.846 88.3943 168.903 88.3943C169.96 88.3943 170.814 87.6103 170.814 86.5323C170.814 85.4613 169.96 84.6843 168.903 84.6843C167.846 84.6843 166.992 85.4613 166.992 86.5323ZM167.685 86.5323C167.685 85.7973 168.238 85.2723 168.903 85.2723C169.575 85.2723 170.121 85.7973 170.121 86.5323C170.121 87.2743 169.575 87.8063 168.903 87.8063C168.238 87.8063 167.685 87.2743 167.685 86.5323ZM171.619 88.3103H172.298V86.6933C172.298 86.5323 172.305 86.3713 172.34 86.2313C172.473 85.7273 172.837 85.3003 173.355 85.3003C173.901 85.3003 173.971 85.7273 173.971 86.1893V88.3103H174.65V86.6933C174.65 86.5113 174.664 86.3503 174.699 86.2033C174.825 85.7203 175.196 85.3003 175.693 85.3003C176.225 85.3003 176.323 85.6923 176.323 86.1893V88.3103H177.002V86.0423C177.002 85.1393 176.631 84.6843 175.833 84.6843C175.259 84.6843 174.769 85.0623 174.573 85.4893H174.559C174.44 84.9573 174.09 84.6843 173.495 84.6843C172.942 84.6843 172.445 85.0833 172.277 85.4963H172.263C172.263 85.4963 172.277 85.3773 172.277 85.2373V84.7683H171.619V88.3103ZM178.018 88.3103H178.732V87.5893H178.018V88.3103ZM179.795 88.3103H180.439V88.0513C180.439 87.8973 180.425 87.7853 180.425 87.7853H180.439C180.439 87.7853 180.761 88.3943 181.552 88.3943C182.483 88.3943 183.162 87.6663 183.162 86.5393C183.162 85.4403 182.56 84.6843 181.608 84.6843C180.775 84.6843 180.474 85.2863 180.474 85.2863H180.46C180.46 85.2863 180.474 85.1603 180.474 84.9853V83.3683H179.795V88.3103ZM180.453 86.5533C180.453 85.6503 180.943 85.2793 181.475 85.2793C182.063 85.2793 182.476 85.7763 182.476 86.5463C182.476 87.3513 182.014 87.8133 181.454 87.8133C180.782 87.8133 180.453 87.1833 180.453 86.5533ZM183.992 88.3103H184.671V86.8613C184.671 86.6443 184.692 86.4273 184.755 86.2243C184.916 85.6993 185.315 85.3913 185.749 85.3913C185.854 85.3913 185.945 85.4123 185.945 85.4123V84.7403C185.945 84.7403 185.861 84.7263 185.77 84.7263C185.224 84.7263 184.811 85.1323 184.65 85.6503H184.636C184.636 85.6503 184.65 85.5313 184.65 85.3843V84.7683H183.992V88.3103Z" fill="#0078A3"/>
<path d="M103.108 96.6233C103.108 98.0513 104.207 99.1853 105.775 99.1853V98.6323C104.585 98.6323 103.787 97.7293 103.787 96.6233C103.787 95.5313 104.613 94.5933 105.698 94.5933C106.419 94.5933 106.818 94.9153 106.832 95.3143H106.076C105.194 95.3143 104.627 95.9303 104.627 96.6233C104.627 97.3303 105.201 97.9463 106.076 97.9463H107.987V97.4353H107.483V95.4543C107.483 94.7123 107.014 94.0333 105.663 94.0333C104.235 94.0333 103.108 95.1813 103.108 96.6233ZM105.313 96.6163C105.313 96.1613 105.649 95.7833 106.139 95.7833H106.832V97.4353H106.125C105.649 97.4353 105.313 97.0713 105.313 96.6163ZM108.724 96.5393C108.724 97.6033 109.508 98.3943 110.621 98.3943C111.545 98.3943 112.035 97.8273 112.035 97.8273L111.762 97.3303C111.762 97.3303 111.328 97.8063 110.67 97.8063C109.935 97.8063 109.417 97.2533 109.417 96.5323C109.417 95.8043 109.935 95.2723 110.649 95.2723C111.251 95.2723 111.629 95.6783 111.629 95.6783L111.951 95.2023C111.951 95.2023 111.51 94.6843 110.621 94.6843C109.508 94.6843 108.724 95.4893 108.724 96.5393ZM112.804 98.3103H113.483V96.8613C113.483 96.6443 113.504 96.4273 113.567 96.2243C113.728 95.6993 114.127 95.3913 114.561 95.3913C114.666 95.3913 114.757 95.4123 114.757 95.4123V94.7403C114.757 94.7403 114.673 94.7263 114.582 94.7263C114.036 94.7263 113.623 95.1323 113.462 95.6503H113.448C113.448 95.6503 113.462 95.5313 113.462 95.3843V94.7683H112.804V98.3103ZM115.422 94.0613H116.108V93.3683H115.422V94.0613ZM115.429 98.3103H116.108V94.7683H115.429V98.3103ZM116.885 97.8763C116.885 97.8763 117.361 98.3943 118.229 98.3943C119.006 98.3943 119.51 97.9533 119.51 97.3653C119.51 96.2033 117.69 96.3433 117.69 95.7063C117.69 95.3983 117.977 95.2723 118.271 95.2723C118.831 95.2723 119.146 95.5873 119.146 95.5873L119.419 95.0763C119.419 95.0763 119.055 94.6843 118.278 94.6843C117.571 94.6843 116.997 95.0483 116.997 95.6923C116.997 96.8473 118.817 96.7143 118.817 97.3653C118.817 97.6523 118.523 97.8063 118.229 97.8063C117.613 97.8063 117.214 97.3933 117.214 97.3933L116.885 97.8763ZM120.051 96.5323C120.051 97.6103 120.905 98.3943 121.962 98.3943C123.019 98.3943 123.873 97.6103 123.873 96.5323C123.873 95.4613 123.019 94.6843 121.962 94.6843C120.905 94.6843 120.051 95.4613 120.051 96.5323ZM120.744 96.5323C120.744 95.7973 121.297 95.2723 121.962 95.2723C122.634 95.2723 123.18 95.7973 123.18 96.5323C123.18 97.2743 122.634 97.8063 121.962 97.8063C121.297 97.8063 120.744 97.2743 120.744 96.5323ZM124.636 97.3443C124.636 98.2333 125.203 98.3383 125.588 98.3383C125.707 98.3383 125.812 98.3243 125.812 98.3243V97.7223C125.812 97.7223 125.756 97.7293 125.693 97.7293C125.483 97.7293 125.315 97.6523 125.315 97.2253V93.3683H124.636V97.3443ZM126.524 94.0613H127.21V93.3683H126.524V94.0613ZM126.531 98.3103H127.21V94.7683H126.531V98.3103ZM129.114 98.3103H129.898L131.207 94.7683H130.493L129.632 97.1623C129.562 97.3583 129.513 97.6453 129.506 97.6453H129.492C129.485 97.6453 129.443 97.3583 129.373 97.1623L128.512 94.7683H127.791L129.114 98.3103ZM131.542 96.5393C131.542 97.5893 132.305 98.3943 133.418 98.3943C134.265 98.3943 134.79 97.8903 134.79 97.8903L134.51 97.3933C134.51 97.3933 134.069 97.8063 133.46 97.8063C132.83 97.8063 132.277 97.4143 132.242 96.6373H134.825C134.825 96.6373 134.846 96.4343 134.846 96.3433C134.846 95.4263 134.314 94.6843 133.313 94.6843C132.305 94.6843 131.542 95.4123 131.542 96.5393ZM132.263 96.1263C132.361 95.5453 132.781 95.2233 133.299 95.2233C133.754 95.2233 134.132 95.5173 134.153 96.1263H132.263ZM135.663 94.0613H136.349V93.3683H135.663V94.0613ZM135.67 98.3103H136.349V94.7683H135.67V98.3103ZM137.413 98.3103H138.092V96.8613C138.092 96.6443 138.113 96.4273 138.176 96.2243C138.337 95.6993 138.736 95.3913 139.17 95.3913C139.275 95.3913 139.366 95.4123 139.366 95.4123V94.7403C139.366 94.7403 139.282 94.7263 139.191 94.7263C138.645 94.7263 138.232 95.1323 138.071 95.6503H138.057C138.057 95.6503 138.071 95.5313 138.071 95.3843V94.7683H137.413V98.3103ZM139.751 97.3163C139.751 98.0233 140.346 98.3943 140.955 98.3943C141.802 98.3943 142.089 97.6943 142.089 97.6943H142.103C142.103 97.6943 142.089 97.8133 142.089 97.9743V98.3103H142.719V96.0703C142.719 95.1743 142.215 94.6843 141.319 94.6843C140.507 94.6843 139.996 95.1043 139.996 95.1043L140.276 95.6013C140.276 95.6013 140.717 95.2583 141.263 95.2583C141.711 95.2583 142.04 95.4543 142.04 96.0353V96.0983H141.886C141.291 96.0983 139.751 96.1473 139.751 97.3163ZM140.437 97.2813C140.437 96.6443 141.361 96.6093 141.872 96.6093H142.047V96.7213C142.047 97.2463 141.676 97.8483 141.102 97.8483C140.661 97.8483 140.437 97.5683 140.437 97.2813ZM143.737 98.3103H144.451V97.5893H143.737V98.3103ZM145.62 97.0153C145.62 98.1983 146.523 98.3383 146.978 98.3383C147.118 98.3383 147.216 98.3243 147.216 98.3243V97.7223C147.216 97.7223 147.153 97.7363 147.055 97.7363C146.796 97.7363 146.299 97.6453 146.299 96.9383V95.3633H147.153V94.8173H146.299V93.7953H145.641V94.8173H145.158V95.3633H145.62V97.0153ZM147.933 97.0363C147.933 97.9743 148.346 98.3943 149.144 98.3943C149.837 98.3943 150.299 97.9323 150.446 97.5823H150.46C150.46 97.5823 150.446 97.6943 150.446 97.8413V98.3103H151.104V94.7683H150.425V96.4273C150.425 97.1273 149.998 97.7643 149.277 97.7643C148.71 97.7643 148.612 97.3723 148.612 96.8823V94.7683H147.933V97.0363ZM151.934 96.5393C151.934 97.6383 152.536 98.3943 153.495 98.3943C154.37 98.3943 154.657 97.7363 154.657 97.7363H154.671C154.671 97.7363 154.664 97.8343 154.664 97.9743V98.3103H155.308V93.3683H154.629V95.0063C154.629 95.1393 154.643 95.2443 154.643 95.2443H154.629C154.629 95.2443 154.356 94.6843 153.537 94.6843C152.599 94.6843 151.934 95.4123 151.934 96.5393ZM152.627 96.5393C152.627 95.7343 153.089 95.2723 153.649 95.2723C154.321 95.2723 154.65 95.9023 154.65 96.5323C154.65 97.4353 154.153 97.8063 153.628 97.8063C153.04 97.8063 152.627 97.3093 152.627 96.5393ZM156.11 96.5323C156.11 97.6103 156.964 98.3943 158.021 98.3943C159.078 98.3943 159.932 97.6103 159.932 96.5323C159.932 95.4613 159.078 94.6843 158.021 94.6843C156.964 94.6843 156.11 95.4613 156.11 96.5323ZM156.803 96.5323C156.803 95.7973 157.356 95.2723 158.021 95.2723C158.693 95.2723 159.239 95.7973 159.239 96.5323C159.239 97.2743 158.693 97.8063 158.021 97.8063C157.356 97.8063 156.803 97.2743 156.803 96.5323ZM160.507 96.5393C160.507 97.6383 161.109 98.3943 162.068 98.3943C162.943 98.3943 163.23 97.7363 163.23 97.7363H163.244C163.244 97.7363 163.237 97.8343 163.237 97.9743V98.3103H163.881V93.3683H163.202V95.0063C163.202 95.1393 163.216 95.2443 163.216 95.2443H163.202C163.202 95.2443 162.929 94.6843 162.11 94.6843C161.172 94.6843 160.507 95.4123 160.507 96.5393ZM161.2 96.5393C161.2 95.7343 161.662 95.2723 162.222 95.2723C162.894 95.2723 163.223 95.9023 163.223 96.5323C163.223 97.4353 162.726 97.8063 162.201 97.8063C161.613 97.8063 161.2 97.3093 161.2 96.5393ZM164.697 96.5393C164.697 97.5893 165.46 98.3943 166.573 98.3943C167.42 98.3943 167.945 97.8903 167.945 97.8903L167.665 97.3933C167.665 97.3933 167.224 97.8063 166.615 97.8063C165.985 97.8063 165.432 97.4143 165.397 96.6373H167.98C167.98 96.6373 168.001 96.4343 168.001 96.3433C168.001 95.4263 167.469 94.6843 166.468 94.6843C165.46 94.6843 164.697 95.4123 164.697 96.5393ZM165.418 96.1263C165.516 95.5453 165.936 95.2233 166.454 95.2233C166.909 95.2233 167.287 95.5173 167.308 96.1263H165.418ZM168.971 97.0153C168.971 98.1983 169.874 98.3383 170.329 98.3383C170.469 98.3383 170.567 98.3243 170.567 98.3243V97.7223C170.567 97.7223 170.504 97.7363 170.406 97.7363C170.147 97.7363 169.65 97.6453 169.65 96.9383V95.3633H170.504V94.8173H169.65V93.7953H168.992V94.8173H168.509V95.3633H168.971V97.0153ZM171.088 96.5393C171.088 97.5893 171.851 98.3943 172.964 98.3943C173.811 98.3943 174.336 97.8903 174.336 97.8903L174.056 97.3933C174.056 97.3933 173.615 97.8063 173.006 97.8063C172.376 97.8063 171.823 97.4143 171.788 96.6373H174.371C174.371 96.6373 174.392 96.4343 174.392 96.3433C174.392 95.4263 173.86 94.6843 172.859 94.6843C171.851 94.6843 171.088 95.4123 171.088 96.5393ZM171.809 96.1263C171.907 95.5453 172.327 95.2233 172.845 95.2233C173.3 95.2233 173.678 95.5173 173.699 96.1263H171.809ZM176.469 96.9313C176.469 96.9313 176.525 97.0433 176.574 97.1273L177.316 98.3103H178.086L176.882 96.4903L178.023 94.7683H177.246L176.588 95.8463C176.532 95.9373 176.469 96.0563 176.469 96.0563H176.455C176.455 96.0563 176.392 95.9373 176.336 95.8463L175.678 94.7683H174.901L176.042 96.4903L174.838 98.3103H175.608L176.35 97.1273C176.399 97.0433 176.455 96.9313 176.455 96.9313H176.469ZM178.918 97.0153C178.918 98.1983 179.821 98.3383 180.276 98.3383C180.416 98.3383 180.514 98.3243 180.514 98.3243V97.7223C180.514 97.7223 180.451 97.7363 180.353 97.7363C180.094 97.7363 179.597 97.6453 179.597 96.9383V95.3633H180.451V94.8173H179.597V93.7953H178.939V94.8173H178.456V95.3633H178.918V97.0153ZM181.021 96.5323C181.021 97.6103 181.875 98.3943 182.932 98.3943C183.989 98.3943 184.843 97.6103 184.843 96.5323C184.843 95.4613 183.989 94.6843 182.932 94.6843C181.875 94.6843 181.021 95.4613 181.021 96.5323ZM181.714 96.5323C181.714 95.7973 182.267 95.2723 182.932 95.2723C183.604 95.2723 184.15 95.7973 184.15 96.5323C184.15 97.2743 183.604 97.8063 182.932 97.8063C182.267 97.8063 181.714 97.2743 181.714 96.5323Z" fill="#0078A3"/>
<path d="M120.587 108.31H123.429V107.708H122.351V103.368H121.735L120.552 104.516L120.972 104.95L121.434 104.495C121.616 104.32 121.672 104.208 121.672 104.208H121.686C121.686 104.208 121.679 104.362 121.679 104.516V107.708H120.587V108.31ZM124.012 108.31H126.854V107.708H125.776V103.368H125.16L123.977 104.516L124.397 104.95L124.859 104.495C125.041 104.32 125.097 104.208 125.097 104.208H125.111C125.111 104.208 125.104 104.362 125.104 104.516V107.708H124.012V108.31ZM130.396 108.394C131.929 108.394 132.622 106.882 132.622 105.615C132.622 104.201 131.824 103.284 130.774 103.284C129.85 103.284 129.185 103.963 129.185 104.936C129.185 105.853 129.808 106.56 130.746 106.56C131.18 106.56 131.635 106.378 131.838 106.098H131.852C131.747 106.917 131.278 107.757 130.368 107.757C129.976 107.757 129.661 107.589 129.661 107.589L129.437 108.191C129.437 108.191 129.808 108.394 130.396 108.394ZM130.886 105.979C130.249 105.979 129.871 105.538 129.871 104.936C129.871 104.362 130.207 103.921 130.781 103.921C131.411 103.921 131.894 104.642 131.894 105.286C131.894 105.636 131.446 105.979 130.886 105.979ZM134.587 108.394C136.12 108.394 136.813 106.882 136.813 105.615C136.813 104.201 136.015 103.284 134.965 103.284C134.041 103.284 133.376 103.963 133.376 104.936C133.376 105.853 133.999 106.56 134.937 106.56C135.371 106.56 135.826 106.378 136.029 106.098H136.043C135.938 106.917 135.469 107.757 134.559 107.757C134.167 107.757 133.852 107.589 133.852 107.589L133.628 108.191C133.628 108.191 133.999 108.394 134.587 108.394ZM135.077 105.979C134.44 105.979 134.062 105.538 134.062 104.936C134.062 104.362 134.398 103.921 134.972 103.921C135.602 103.921 136.085 104.642 136.085 105.286C136.085 105.636 135.637 105.979 135.077 105.979ZM137.615 108.31H140.457V107.708H139.379V103.368H138.763L137.58 104.516L138 104.95L138.462 104.495C138.644 104.32 138.7 104.208 138.7 104.208H138.714C138.714 104.208 138.707 104.362 138.707 104.516V107.708H137.615V108.31ZM140.984 107.708C140.984 107.708 141.481 108.394 142.496 108.394C143.497 108.394 144.246 107.68 144.246 106.728C144.246 105.839 143.567 105.118 142.524 105.118C142.16 105.118 141.887 105.272 141.887 105.272H141.873C141.873 105.272 141.901 105.16 141.908 105.013L142.027 103.97H143.917V103.368H141.425L141.18 105.818L141.579 105.965C141.579 105.965 141.929 105.72 142.412 105.72C143.049 105.72 143.539 106.14 143.539 106.735C143.539 107.337 143.035 107.736 142.454 107.736C141.754 107.736 141.369 107.204 141.369 107.204L140.984 107.708ZM145.012 108.31H148.197V107.708H145.747C145.761 106.581 148.12 106.329 148.12 104.705C148.12 103.851 147.469 103.284 146.559 103.284C145.446 103.284 144.998 104.222 144.998 104.222L145.509 104.565C145.509 104.565 145.859 103.935 146.51 103.935C147.028 103.935 147.399 104.264 147.399 104.754C147.399 105.916 144.977 106.168 144.977 107.932C144.977 108.051 144.991 108.177 145.012 108.31ZM149.228 106.616H151.272V106.014H149.228V106.616ZM154.161 108.394C155.085 108.394 155.75 107.715 155.75 106.742C155.75 105.825 155.127 105.111 154.189 105.111C153.755 105.111 153.307 105.3 153.097 105.58H153.083C153.188 104.761 153.657 103.921 154.567 103.921C154.959 103.921 155.274 104.082 155.274 104.082L155.498 103.487C155.498 103.487 155.12 103.284 154.539 103.284C153.006 103.284 152.313 104.796 152.313 106.063C152.313 107.47 153.104 108.394 154.161 108.394ZM154.154 107.757C153.524 107.757 153.041 107.036 153.041 106.392C153.041 106.035 153.489 105.699 154.049 105.699C154.679 105.699 155.064 106.14 155.064 106.742C155.064 107.316 154.721 107.757 154.154 107.757ZM157.644 108.394C159.177 108.394 159.87 106.882 159.87 105.615C159.87 104.201 159.072 103.284 158.022 103.284C157.098 103.284 156.433 103.963 156.433 104.936C156.433 105.853 157.056 106.56 157.994 106.56C158.428 106.56 158.883 106.378 159.086 106.098H159.1C158.995 106.917 158.526 107.757 157.616 107.757C157.224 107.757 156.909 107.589 156.909 107.589L156.685 108.191C156.685 108.191 157.056 108.394 157.644 108.394ZM158.134 105.979C157.497 105.979 157.119 105.538 157.119 104.936C157.119 104.362 157.455 103.921 158.029 103.921C158.659 103.921 159.142 104.642 159.142 105.286C159.142 105.636 158.694 105.979 158.134 105.979ZM160.673 108.31H163.515V107.708H162.437V103.368H161.821L160.638 104.516L161.058 104.95L161.52 104.495C161.702 104.32 161.758 104.208 161.758 104.208H161.772C161.772 104.208 161.765 104.362 161.765 104.516V107.708H160.673V108.31ZM165.89 108.394C167.213 108.394 167.64 107.26 167.64 105.832C167.64 104.411 167.213 103.284 165.89 103.284C164.574 103.284 164.147 104.411 164.147 105.832C164.147 107.26 164.574 108.394 165.89 108.394ZM165.89 107.757C165.085 107.757 164.854 106.91 164.854 105.832C164.854 104.761 165.085 103.921 165.89 103.921C166.702 103.921 166.933 104.761 166.933 105.832C166.933 106.91 166.702 107.757 165.89 107.757Z" fill="#0078A3"/>
</g>
<defs>
<clipPath id="clip0_104_5227">
<rect width="288" height="180" fill="white" transform="translate(0.194824 0.810303)"/>
</clipPath>
</defs>
</svg>
