<svg width="613" height="859" viewBox="0 0 613 859" fill="none" xmlns="http://www.w3.org/2000/svg">
<rect width="612.28" height="858.9" fill="white"/>
<path d="M237.37 768.751C237.37 770.156 238.405 771.201 239.875 771.201C241.095 771.201 241.742 770.452 241.742 770.452L241.382 769.796C241.382 769.796 240.809 770.424 239.94 770.424C238.969 770.424 238.285 769.694 238.285 768.742C238.285 767.781 238.969 767.078 239.912 767.078C240.707 767.078 241.206 767.614 241.206 767.614L241.632 766.986C241.632 766.986 241.049 766.301 239.875 766.301C238.405 766.301 237.37 767.365 237.37 768.751ZM242.758 771.09H243.655V769.176C243.655 768.89 243.683 768.603 243.766 768.335C243.978 767.642 244.505 767.235 245.079 767.235C245.217 767.235 245.337 767.263 245.337 767.263V766.375C245.337 766.375 245.227 766.357 245.106 766.357C244.385 766.357 243.84 766.893 243.627 767.577H243.609C243.609 767.577 243.627 767.42 243.627 767.226V766.412H242.758V771.09ZM246.216 765.479H247.122V764.563H246.216V765.479ZM246.225 771.09H247.122V766.412H246.225V771.09ZM248.148 770.517C248.148 770.517 248.777 771.201 249.923 771.201C250.949 771.201 251.615 770.619 251.615 769.842C251.615 768.307 249.211 768.492 249.211 767.651C249.211 767.244 249.59 767.078 249.978 767.078C250.718 767.078 251.134 767.494 251.134 767.494L251.495 766.819C251.495 766.819 251.014 766.301 249.988 766.301C249.054 766.301 248.296 766.782 248.296 767.633C248.296 769.158 250.7 768.982 250.7 769.842C250.7 770.221 250.311 770.424 249.923 770.424C249.109 770.424 248.583 769.879 248.583 769.879L248.148 770.517ZM252.329 768.742C252.329 770.166 253.457 771.201 254.853 771.201C256.248 771.201 257.376 770.166 257.376 768.742C257.376 767.328 256.248 766.301 254.853 766.301C253.457 766.301 252.329 767.328 252.329 768.742ZM253.244 768.742C253.244 767.771 253.974 767.078 254.853 767.078C255.74 767.078 256.461 767.771 256.461 768.742C256.461 769.722 255.74 770.424 254.853 770.424C253.974 770.424 253.244 769.722 253.244 768.742ZM258.384 769.814C258.384 770.988 259.133 771.127 259.641 771.127C259.799 771.127 259.937 771.109 259.937 771.109V770.314C259.937 770.314 259.863 770.323 259.78 770.323C259.503 770.323 259.281 770.221 259.281 769.657V764.563H258.384V769.814ZM260.877 765.479H261.783V764.563H260.877V765.479ZM260.886 771.09H261.783V766.412H260.886V771.09ZM264.298 771.09H265.333L267.062 766.412H266.119L264.982 769.574C264.889 769.833 264.825 770.212 264.815 770.212H264.797C264.788 770.212 264.732 769.833 264.64 769.574L263.503 766.412H262.55L264.298 771.09ZM267.505 768.751C267.505 770.138 268.513 771.201 269.983 771.201C271.101 771.201 271.795 770.535 271.795 770.535L271.425 769.879C271.425 769.879 270.842 770.424 270.038 770.424C269.206 770.424 268.476 769.907 268.43 768.881H271.841C271.841 768.881 271.869 768.613 271.869 768.492C271.869 767.281 271.166 766.301 269.844 766.301C268.513 766.301 267.505 767.263 267.505 768.751ZM268.457 768.206C268.587 767.438 269.141 767.013 269.826 767.013C270.426 767.013 270.926 767.402 270.953 768.206H268.457ZM272.947 765.479H273.853V764.563H272.947V765.479ZM272.957 771.09H273.853V766.412H272.957V771.09ZM275.259 771.09H276.155V769.176C276.155 768.89 276.183 768.603 276.266 768.335C276.479 767.642 277.006 767.235 277.579 767.235C277.718 767.235 277.838 767.263 277.838 767.263V766.375C277.838 766.375 277.727 766.357 277.607 766.357C276.886 766.357 276.34 766.893 276.128 767.577H276.109C276.109 767.577 276.128 767.42 276.128 767.226V766.412H275.259V771.09ZM278.346 769.777C278.346 770.711 279.132 771.201 279.936 771.201C281.055 771.201 281.434 770.277 281.434 770.277H281.452C281.452 770.277 281.434 770.434 281.434 770.646V771.09H282.266V768.132C282.266 766.949 281.6 766.301 280.417 766.301C279.345 766.301 278.67 766.856 278.67 766.856L279.04 767.512C279.04 767.512 279.622 767.059 280.343 767.059C280.935 767.059 281.369 767.318 281.369 768.086V768.169H281.166C280.38 768.169 278.346 768.234 278.346 769.777ZM279.252 769.731C279.252 768.89 280.473 768.844 281.147 768.844H281.379V768.992C281.379 769.685 280.889 770.48 280.131 770.48C279.548 770.48 279.252 770.11 279.252 769.731ZM283.452 768.862C283.452 770.748 284.904 772.246 286.974 772.246V771.515C285.403 771.515 284.349 770.323 284.349 768.862C284.349 767.42 285.44 766.181 286.873 766.181C287.825 766.181 288.352 766.606 288.37 767.133H287.372C286.207 767.133 285.458 767.947 285.458 768.862C285.458 769.796 286.216 770.609 287.372 770.609H289.896V769.935H289.23V767.318C289.23 766.338 288.611 765.442 286.827 765.442C284.941 765.442 283.452 766.958 283.452 768.862ZM286.364 768.853C286.364 768.252 286.808 767.753 287.455 767.753H288.37V769.935H287.437C286.808 769.935 286.364 769.454 286.364 768.853ZM291.396 769.38C291.396 770.942 292.589 771.127 293.189 771.127C293.374 771.127 293.504 771.109 293.504 771.109V770.314C293.504 770.314 293.421 770.332 293.291 770.332C292.949 770.332 292.293 770.212 292.293 769.278V767.198H293.421V766.477H292.293V765.127H291.424V766.477H290.786V767.198H291.396V769.38ZM294.45 769.408C294.45 770.646 294.996 771.201 296.05 771.201C296.965 771.201 297.575 770.591 297.769 770.129H297.788C297.788 770.129 297.769 770.277 297.769 770.471V771.09H298.638V766.412H297.741V768.603C297.741 769.528 297.178 770.369 296.225 770.369C295.477 770.369 295.347 769.851 295.347 769.204V766.412H294.45V769.408ZM299.735 768.751C299.735 770.203 300.53 771.201 301.797 771.201C302.952 771.201 303.331 770.332 303.331 770.332H303.35C303.35 770.332 303.341 770.461 303.341 770.646V771.09H304.191V764.563H303.294V766.727C303.294 766.902 303.313 767.041 303.313 767.041H303.294C303.294 767.041 302.934 766.301 301.852 766.301C300.613 766.301 299.735 767.263 299.735 768.751ZM300.65 768.751C300.65 767.688 301.26 767.078 302 767.078C302.888 767.078 303.322 767.91 303.322 768.742C303.322 769.935 302.666 770.424 301.972 770.424C301.196 770.424 300.65 769.768 300.65 768.751ZM305.25 768.742C305.25 770.166 306.378 771.201 307.774 771.201C309.17 771.201 310.298 770.166 310.298 768.742C310.298 767.328 309.17 766.301 307.774 766.301C306.378 766.301 305.25 767.328 305.25 768.742ZM306.166 768.742C306.166 767.771 306.896 767.078 307.774 767.078C308.662 767.078 309.383 767.771 309.383 768.742C309.383 769.722 308.662 770.424 307.774 770.424C306.896 770.424 306.166 769.722 306.166 768.742ZM311.056 768.751C311.056 770.203 311.851 771.201 313.118 771.201C314.273 771.201 314.652 770.332 314.652 770.332H314.671C314.671 770.332 314.661 770.461 314.661 770.646V771.09H315.512V764.563H314.615V766.727C314.615 766.902 314.634 767.041 314.634 767.041H314.615C314.615 767.041 314.255 766.301 313.173 766.301C311.934 766.301 311.056 767.263 311.056 768.751ZM311.971 768.751C311.971 767.688 312.581 767.078 313.321 767.078C314.209 767.078 314.643 767.91 314.643 768.742C314.643 769.935 313.987 770.424 313.293 770.424C312.517 770.424 311.971 769.768 311.971 768.751ZM316.59 768.751C316.59 770.138 317.597 771.201 319.067 771.201C320.186 771.201 320.879 770.535 320.879 770.535L320.509 769.879C320.509 769.879 319.927 770.424 319.123 770.424C318.291 770.424 317.56 769.907 317.514 768.881H320.925C320.925 768.881 320.953 768.613 320.953 768.492C320.953 767.281 320.251 766.301 318.929 766.301C317.597 766.301 316.59 767.263 316.59 768.751ZM317.542 768.206C317.671 767.438 318.226 767.013 318.91 767.013C319.511 767.013 320.01 767.402 320.038 768.206H317.542ZM322.235 769.38C322.235 770.942 323.428 771.127 324.029 771.127C324.214 771.127 324.343 771.109 324.343 771.109V770.314C324.343 770.314 324.26 770.332 324.13 770.332C323.788 770.332 323.132 770.212 323.132 769.278V767.198H324.26V766.477H323.132V765.127H322.263V766.477H321.625V767.198H322.235V769.38ZM325.031 768.751C325.031 770.138 326.039 771.201 327.508 771.201C328.627 771.201 329.32 770.535 329.32 770.535L328.951 769.879C328.951 769.879 328.368 770.424 327.564 770.424C326.732 770.424 326.002 769.907 325.955 768.881H329.367C329.367 768.881 329.394 768.613 329.394 768.492C329.394 767.281 328.692 766.301 327.37 766.301C326.039 766.301 325.031 767.263 325.031 768.751ZM325.983 768.206C326.112 767.438 326.667 767.013 327.351 767.013C327.952 767.013 328.451 767.402 328.479 768.206H325.983ZM332.137 769.269C332.137 769.269 332.211 769.417 332.276 769.528L333.256 771.09H334.273L332.682 768.687L334.189 766.412H333.163L332.294 767.836C332.22 767.956 332.137 768.113 332.137 768.113H332.119C332.119 768.113 332.035 767.956 331.961 767.836L331.092 766.412H330.066L331.573 768.687L329.983 771.09H331L331.98 769.528C332.045 769.417 332.119 769.269 332.119 769.269H332.137ZM335.371 769.38C335.371 770.942 336.563 771.127 337.164 771.127C337.349 771.127 337.479 771.109 337.479 771.109V770.314C337.479 770.314 337.395 770.332 337.266 770.332C336.924 770.332 336.268 770.212 336.268 769.278V767.198H337.395V766.477H336.268V765.127H335.399V766.477H334.761V767.198H335.371V769.38ZM338.148 768.742C338.148 770.166 339.276 771.201 340.672 771.201C342.068 771.201 343.196 770.166 343.196 768.742C343.196 767.328 342.068 766.301 340.672 766.301C339.276 766.301 338.148 767.328 338.148 768.742ZM339.063 768.742C339.063 767.771 339.794 767.078 340.672 767.078C341.559 767.078 342.28 767.771 342.28 768.742C342.28 769.722 341.559 770.424 340.672 770.424C339.794 770.424 339.063 769.722 339.063 768.742ZM344.259 771.09H345.202V770.138H344.259V771.09ZM346.273 768.751C346.273 770.156 347.309 771.201 348.779 771.201C349.999 771.201 350.646 770.452 350.646 770.452L350.285 769.796C350.285 769.796 349.712 770.424 348.843 770.424C347.873 770.424 347.188 769.694 347.188 768.742C347.188 767.781 347.873 767.078 348.816 767.078C349.611 767.078 350.11 767.614 350.11 767.614L350.535 766.986C350.535 766.986 349.953 766.301 348.779 766.301C347.309 766.301 346.273 767.365 346.273 768.751ZM351.32 768.742C351.32 770.166 352.448 771.201 353.843 771.201C355.239 771.201 356.367 770.166 356.367 768.742C356.367 767.328 355.239 766.301 353.843 766.301C352.448 766.301 351.32 767.328 351.32 768.742ZM352.235 768.742C352.235 767.771 352.965 767.078 353.843 767.078C354.731 767.078 355.452 767.771 355.452 768.742C355.452 769.722 354.731 770.424 353.843 770.424C352.965 770.424 352.235 769.722 352.235 768.742ZM357.431 771.09H358.327V768.955C358.327 768.742 358.337 768.529 358.383 768.344C358.558 767.679 359.039 767.115 359.723 767.115C360.444 767.115 360.537 767.679 360.537 768.289V771.09H361.433V768.955C361.433 768.714 361.452 768.502 361.498 768.307C361.665 767.67 362.155 767.115 362.811 767.115C363.513 767.115 363.643 767.633 363.643 768.289V771.09H364.54V768.095C364.54 766.902 364.05 766.301 362.996 766.301C362.238 766.301 361.591 766.801 361.332 767.365H361.313C361.156 766.662 360.694 766.301 359.908 766.301C359.178 766.301 358.521 766.828 358.3 767.374H358.281C358.281 767.374 358.3 767.217 358.3 767.032V766.412H357.431V771.09ZM365.881 771.09H366.824V770.138H365.881V771.09ZM368.228 771.09H369.078V770.748C369.078 770.545 369.06 770.397 369.06 770.397H369.078C369.078 770.397 369.504 771.201 370.548 771.201C371.778 771.201 372.675 770.24 372.675 768.751C372.675 767.3 371.88 766.301 370.622 766.301C369.522 766.301 369.125 767.096 369.125 767.096H369.106C369.106 767.096 369.125 766.93 369.125 766.699V764.563H368.228V771.09ZM369.097 768.77C369.097 767.577 369.744 767.087 370.447 767.087C371.223 767.087 371.769 767.744 371.769 768.76C371.769 769.824 371.158 770.434 370.419 770.434C369.531 770.434 369.097 769.602 369.097 768.77ZM373.771 771.09H374.668V769.176C374.668 768.89 374.695 768.603 374.779 768.335C374.991 767.642 375.518 767.235 376.091 767.235C376.23 767.235 376.35 767.263 376.35 767.263V766.375C376.35 766.375 376.239 766.357 376.119 766.357C375.398 766.357 374.853 766.893 374.64 767.577H374.622C374.622 767.577 374.64 767.42 374.64 767.226V766.412H373.771V771.09Z" fill="#0078A3"/>
<path d="M253.164 783.693H254.162L255.124 780.689C255.198 780.449 255.253 780.18 255.253 780.18H255.272C255.272 780.18 255.327 780.449 255.401 780.689L256.372 783.693H257.361L258.868 779.016H257.925L256.945 782.297C256.871 782.538 256.834 782.797 256.834 782.797H256.816C256.816 782.797 256.76 782.538 256.686 782.297L255.679 779.025H254.856L253.839 782.297C253.765 782.538 253.719 782.797 253.719 782.797H253.7C253.691 782.797 253.654 782.538 253.58 782.297L252.609 779.016H251.657L253.164 783.693ZM260.693 783.693H261.692L262.653 780.689C262.727 780.449 262.783 780.18 262.783 780.18H262.801C262.801 780.18 262.857 780.449 262.93 780.689L263.901 783.693H264.89L266.397 779.016H265.454L264.474 782.297C264.4 782.538 264.363 782.797 264.363 782.797H264.345C264.345 782.797 264.289 782.538 264.215 782.297L263.208 779.025H262.385L261.368 782.297C261.294 782.538 261.248 782.797 261.248 782.797H261.229C261.22 782.797 261.183 782.538 261.109 782.297L260.139 779.016H259.186L260.693 783.693ZM268.223 783.693H269.221L270.182 780.689C270.256 780.449 270.312 780.18 270.312 780.18H270.33C270.33 780.18 270.386 780.449 270.46 780.689L271.43 783.693H272.42L273.926 779.016H272.984L272.004 782.297C271.93 782.538 271.893 782.797 271.893 782.797H271.874C271.874 782.797 271.819 782.538 271.745 782.297L270.737 779.025H269.914L268.897 782.297C268.823 782.538 268.777 782.797 268.777 782.797H268.759C268.749 782.797 268.713 782.538 268.639 782.297L267.668 779.016H266.716L268.223 783.693ZM274.664 783.693H275.607V782.741H274.664V783.693ZM277.151 781.983C277.151 783.545 278.344 783.73 278.945 783.73C279.13 783.73 279.259 783.712 279.259 783.712V782.917C279.259 782.917 279.176 782.935 279.046 782.935C278.704 782.935 278.048 782.815 278.048 781.881V779.801H279.176V779.08H278.048V777.731H277.179V779.08H276.541V779.801H277.151V781.983ZM280.206 782.011C280.206 783.25 280.751 783.804 281.805 783.804C282.72 783.804 283.33 783.194 283.524 782.732H283.543C283.543 782.732 283.524 782.88 283.524 783.074V783.693H284.393V779.016H283.497V781.207C283.497 782.131 282.933 782.972 281.981 782.972C281.232 782.972 281.102 782.455 281.102 781.807V779.016H280.206V782.011ZM285.49 781.354C285.49 782.806 286.285 783.804 287.552 783.804C288.707 783.804 289.086 782.935 289.086 782.935H289.105C289.105 782.935 289.096 783.065 289.096 783.25V783.693H289.946V777.167H289.049V779.33C289.049 779.506 289.068 779.644 289.068 779.644H289.049C289.049 779.644 288.689 778.905 287.607 778.905C286.369 778.905 285.49 779.866 285.49 781.354ZM286.406 781.354C286.406 780.291 287.016 779.681 287.755 779.681C288.643 779.681 289.077 780.513 289.077 781.345C289.077 782.538 288.421 783.028 287.728 783.028C286.951 783.028 286.406 782.371 286.406 781.354ZM291.005 781.345C291.005 782.769 292.133 783.804 293.529 783.804C294.925 783.804 296.053 782.769 296.053 781.345C296.053 779.931 294.925 778.905 293.529 778.905C292.133 778.905 291.005 779.931 291.005 781.345ZM291.921 781.345C291.921 780.375 292.651 779.681 293.529 779.681C294.417 779.681 295.138 780.375 295.138 781.345C295.138 782.325 294.417 783.028 293.529 783.028C292.651 783.028 291.921 782.325 291.921 781.345ZM296.811 781.354C296.811 782.806 297.606 783.804 298.873 783.804C300.028 783.804 300.407 782.935 300.407 782.935H300.426C300.426 782.935 300.417 783.065 300.417 783.25V783.693H301.267V777.167H300.37V779.33C300.37 779.506 300.389 779.644 300.389 779.644H300.37C300.37 779.644 300.01 778.905 298.928 778.905C297.69 778.905 296.811 779.866 296.811 781.354ZM297.727 781.354C297.727 780.291 298.337 779.681 299.076 779.681C299.964 779.681 300.398 780.513 300.398 781.345C300.398 782.538 299.742 783.028 299.048 783.028C298.272 783.028 297.727 782.371 297.727 781.354ZM302.345 781.354C302.345 782.741 303.353 783.804 304.823 783.804C305.941 783.804 306.634 783.139 306.634 783.139L306.265 782.482C306.265 782.482 305.682 783.028 304.878 783.028C304.046 783.028 303.316 782.51 303.269 781.484H306.681C306.681 781.484 306.708 781.216 306.708 781.096C306.708 779.885 306.006 778.905 304.684 778.905C303.353 778.905 302.345 779.866 302.345 781.354ZM303.297 780.809C303.427 780.042 303.981 779.617 304.665 779.617C305.266 779.617 305.765 780.005 305.793 780.809H303.297ZM307.991 781.983C307.991 783.545 309.183 783.73 309.784 783.73C309.969 783.73 310.098 783.712 310.098 783.712V782.917C310.098 782.917 310.015 782.935 309.886 782.935C309.544 782.935 308.887 782.815 308.887 781.881V779.801H310.015V779.08H308.887V777.731H308.018V779.08H307.38V779.801H307.991V781.983ZM310.786 781.354C310.786 782.741 311.794 783.804 313.264 783.804C314.382 783.804 315.076 783.139 315.076 783.139L314.706 782.482C314.706 782.482 314.123 783.028 313.319 783.028C312.487 783.028 311.757 782.51 311.711 781.484H315.122C315.122 781.484 315.149 781.216 315.149 781.096C315.149 779.885 314.447 778.905 313.125 778.905C311.794 778.905 310.786 779.866 310.786 781.354ZM311.738 780.809C311.868 780.042 312.422 779.617 313.106 779.617C313.707 779.617 314.207 780.005 314.234 780.809H311.738ZM317.892 781.872C317.892 781.872 317.966 782.02 318.031 782.131L319.011 783.693H320.028L318.438 781.29L319.945 779.016H318.918L318.049 780.439C317.975 780.559 317.892 780.717 317.892 780.717H317.874C317.874 780.717 317.791 780.559 317.717 780.439L316.848 779.016H315.821L317.328 781.29L315.738 783.693H316.755L317.735 782.131C317.8 782.02 317.874 781.872 317.874 781.872H317.892ZM321.126 781.983C321.126 783.545 322.319 783.73 322.92 783.73C323.104 783.73 323.234 783.712 323.234 783.712V782.917C323.234 782.917 323.151 782.935 323.021 782.935C322.679 782.935 322.023 782.815 322.023 781.881V779.801H323.151V779.08H322.023V777.731H321.154V779.08H320.516V779.801H321.126V781.983ZM323.903 781.345C323.903 782.769 325.031 783.804 326.427 783.804C327.823 783.804 328.951 782.769 328.951 781.345C328.951 779.931 327.823 778.905 326.427 778.905C325.031 778.905 323.903 779.931 323.903 781.345ZM324.818 781.345C324.818 780.375 325.549 779.681 326.427 779.681C327.314 779.681 328.035 780.375 328.035 781.345C328.035 782.325 327.314 783.028 326.427 783.028C325.549 783.028 324.818 782.325 324.818 781.345ZM330.014 783.693H330.957V782.741H330.014V783.693ZM332.028 781.354C332.028 782.76 333.064 783.804 334.534 783.804C335.754 783.804 336.401 783.055 336.401 783.055L336.041 782.399C336.041 782.399 335.467 783.028 334.598 783.028C333.628 783.028 332.944 782.297 332.944 781.345C332.944 780.384 333.628 779.681 334.571 779.681C335.366 779.681 335.865 780.217 335.865 780.217L336.29 779.589C336.29 779.589 335.708 778.905 334.534 778.905C333.064 778.905 332.028 779.968 332.028 781.354ZM337.075 781.345C337.075 782.769 338.203 783.804 339.599 783.804C340.995 783.804 342.122 782.769 342.122 781.345C342.122 779.931 340.995 778.905 339.599 778.905C338.203 778.905 337.075 779.931 337.075 781.345ZM337.99 781.345C337.99 780.375 338.72 779.681 339.599 779.681C340.486 779.681 341.207 780.375 341.207 781.345C341.207 782.325 340.486 783.028 339.599 783.028C338.72 783.028 337.99 782.325 337.99 781.345ZM343.186 783.693H344.082V781.558C344.082 781.345 344.092 781.133 344.138 780.948C344.314 780.282 344.794 779.718 345.478 779.718C346.199 779.718 346.292 780.282 346.292 780.892V783.693H347.189V781.558C347.189 781.318 347.207 781.105 347.253 780.911C347.42 780.273 347.91 779.718 348.566 779.718C349.269 779.718 349.398 780.236 349.398 780.892V783.693H350.295V780.698C350.295 779.506 349.805 778.905 348.751 778.905C347.993 778.905 347.346 779.404 347.087 779.968H347.068C346.911 779.265 346.449 778.905 345.663 778.905C344.933 778.905 344.277 779.432 344.055 779.977H344.036C344.036 779.977 344.055 779.82 344.055 779.635V779.016H343.186V783.693ZM351.636 783.693H352.579V782.741H351.636V783.693ZM353.983 783.693H354.834V783.351C354.834 783.148 354.815 783 354.815 783H354.834C354.834 783 355.259 783.804 356.303 783.804C357.533 783.804 358.43 782.843 358.43 781.354C358.43 779.903 357.635 778.905 356.377 778.905C355.277 778.905 354.88 779.7 354.88 779.7H354.861C354.861 779.7 354.88 779.533 354.88 779.302V777.167H353.983V783.693ZM354.852 781.373C354.852 780.18 355.499 779.69 356.202 779.69C356.978 779.69 357.524 780.347 357.524 781.364C357.524 782.427 356.914 783.037 356.174 783.037C355.287 783.037 354.852 782.205 354.852 781.373ZM359.526 783.693H360.423V781.78C360.423 781.493 360.451 781.207 360.534 780.938C360.746 780.245 361.273 779.838 361.847 779.838C361.985 779.838 362.105 779.866 362.105 779.866V778.979C362.105 778.979 361.995 778.96 361.874 778.96C361.153 778.96 360.608 779.496 360.395 780.18H360.377C360.377 780.18 360.395 780.023 360.395 779.829V779.016H359.526V783.693Z" fill="#0078A3"/>
<path d="M253.045 794.069C253.045 795.955 254.497 797.452 256.568 797.452V796.722C254.996 796.722 253.942 795.529 253.942 794.069C253.942 792.627 255.033 791.388 256.466 791.388C257.418 791.388 257.945 791.813 257.964 792.34H256.965C255.8 792.34 255.052 793.153 255.052 794.069C255.052 795.002 255.81 795.816 256.965 795.816H259.489V795.141H258.823V792.525C258.823 791.545 258.204 790.648 256.42 790.648C254.534 790.648 253.045 792.164 253.045 794.069ZM255.957 794.059C255.957 793.459 256.401 792.959 257.048 792.959H257.964V795.141H257.03C256.401 795.141 255.957 794.66 255.957 794.059ZM260.462 793.958C260.462 795.363 261.498 796.408 262.968 796.408C264.188 796.408 264.835 795.659 264.835 795.659L264.474 795.002C264.474 795.002 263.901 795.631 263.032 795.631C262.062 795.631 261.377 794.901 261.377 793.949C261.377 792.987 262.062 792.284 263.004 792.284C263.8 792.284 264.299 792.821 264.299 792.821L264.724 792.192C264.724 792.192 264.142 791.508 262.968 791.508C261.498 791.508 260.462 792.571 260.462 793.958ZM265.851 796.297H266.747V794.383C266.747 794.096 266.775 793.81 266.858 793.542C267.071 792.848 267.598 792.442 268.171 792.442C268.31 792.442 268.43 792.469 268.43 792.469V791.582C268.43 791.582 268.319 791.563 268.199 791.563C267.478 791.563 266.932 792.1 266.72 792.784H266.701C266.701 792.784 266.72 792.627 266.72 792.432V791.619H265.851V796.297ZM269.308 790.685H270.214V789.77H269.308V790.685ZM269.317 796.297H270.214V791.619H269.317V796.297ZM271.24 795.723C271.24 795.723 271.869 796.408 273.015 796.408C274.042 796.408 274.707 795.825 274.707 795.049C274.707 793.514 272.304 793.699 272.304 792.858C272.304 792.451 272.683 792.284 273.071 792.284C273.81 792.284 274.226 792.7 274.226 792.7L274.587 792.026C274.587 792.026 274.106 791.508 273.08 791.508C272.146 791.508 271.388 791.989 271.388 792.839C271.388 794.365 273.792 794.189 273.792 795.049C273.792 795.428 273.404 795.631 273.015 795.631C272.202 795.631 271.675 795.086 271.675 795.086L271.24 795.723ZM275.421 793.949C275.421 795.372 276.549 796.408 277.945 796.408C279.341 796.408 280.469 795.372 280.469 793.949C280.469 792.534 279.341 791.508 277.945 791.508C276.549 791.508 275.421 792.534 275.421 793.949ZM276.336 793.949C276.336 792.978 277.067 792.284 277.945 792.284C278.832 792.284 279.554 792.978 279.554 793.949C279.554 794.928 278.832 795.631 277.945 795.631C277.067 795.631 276.336 794.928 276.336 793.949ZM281.477 795.021C281.477 796.195 282.225 796.334 282.734 796.334C282.891 796.334 283.03 796.315 283.03 796.315V795.52C283.03 795.52 282.956 795.529 282.873 795.529C282.595 795.529 282.373 795.428 282.373 794.864V789.77H281.477V795.021ZM283.969 790.685H284.875V789.77H283.969V790.685ZM283.979 796.297H284.875V791.619H283.979V796.297ZM287.39 796.297H288.426L290.154 791.619H289.211L288.074 794.781C287.982 795.039 287.917 795.418 287.908 795.418H287.889C287.88 795.418 287.825 795.039 287.732 794.781L286.595 791.619H285.643L287.39 796.297ZM290.598 793.958C290.598 795.344 291.605 796.408 293.075 796.408C294.194 796.408 294.887 795.742 294.887 795.742L294.517 795.086C294.517 795.086 293.935 795.631 293.131 795.631C292.299 795.631 291.568 795.113 291.522 794.087H294.933C294.933 794.087 294.961 793.819 294.961 793.699C294.961 792.488 294.258 791.508 292.936 791.508C291.605 791.508 290.598 792.469 290.598 793.958ZM291.55 793.412C291.679 792.645 292.234 792.22 292.918 792.22C293.519 792.22 294.018 792.608 294.046 793.412H291.55ZM296.04 790.685H296.946V789.77H296.04V790.685ZM296.049 796.297H296.946V791.619H296.049V796.297ZM298.351 796.297H299.248V794.383C299.248 794.096 299.276 793.81 299.359 793.542C299.571 792.848 300.098 792.442 300.671 792.442C300.81 792.442 300.93 792.469 300.93 792.469V791.582C300.93 791.582 300.819 791.563 300.699 791.563C299.978 791.563 299.433 792.1 299.22 792.784H299.202C299.202 792.784 299.22 792.627 299.22 792.432V791.619H298.351V796.297ZM301.439 794.984C301.439 795.918 302.225 796.408 303.029 796.408C304.147 796.408 304.526 795.483 304.526 795.483H304.545C304.545 795.483 304.526 795.64 304.526 795.853V796.297H305.358V793.338C305.358 792.155 304.693 791.508 303.51 791.508C302.437 791.508 301.762 792.063 301.762 792.063L302.132 792.719C302.132 792.719 302.715 792.266 303.436 792.266C304.027 792.266 304.462 792.525 304.462 793.292V793.375H304.258C303.473 793.375 301.439 793.44 301.439 794.984ZM302.345 794.938C302.345 794.096 303.565 794.05 304.24 794.05H304.471V794.198C304.471 794.891 303.981 795.686 303.223 795.686C302.641 795.686 302.345 795.317 302.345 794.938ZM306.702 796.297H307.645V795.344H306.702V796.297ZM309.189 794.586C309.189 796.149 310.382 796.334 310.983 796.334C311.167 796.334 311.297 796.315 311.297 796.315V795.52C311.297 795.52 311.214 795.539 311.084 795.539C310.742 795.539 310.086 795.418 310.086 794.485V792.405H311.214V791.684H310.086V790.334H309.217V791.684H308.579V792.405H309.189V794.586ZM312.244 794.614C312.244 795.853 312.789 796.408 313.843 796.408C314.758 796.408 315.368 795.797 315.562 795.335H315.581C315.581 795.335 315.562 795.483 315.562 795.677V796.297H316.431V791.619H315.535V793.81C315.535 794.734 314.971 795.576 314.018 795.576C313.27 795.576 313.14 795.058 313.14 794.411V791.619H312.244V794.614ZM317.528 793.958C317.528 795.409 318.323 796.408 319.59 796.408C320.745 796.408 321.124 795.539 321.124 795.539H321.143C321.143 795.539 321.134 795.668 321.134 795.853V796.297H321.984V789.77H321.087V791.933C321.087 792.109 321.106 792.248 321.106 792.248H321.087C321.087 792.248 320.727 791.508 319.645 791.508C318.406 791.508 317.528 792.469 317.528 793.958ZM318.443 793.958C318.443 792.895 319.054 792.284 319.793 792.284C320.681 792.284 321.115 793.117 321.115 793.949C321.115 795.141 320.459 795.631 319.765 795.631C318.989 795.631 318.443 794.975 318.443 793.958ZM323.043 793.949C323.043 795.372 324.171 796.408 325.567 796.408C326.963 796.408 328.091 795.372 328.091 793.949C328.091 792.534 326.963 791.508 325.567 791.508C324.171 791.508 323.043 792.534 323.043 793.949ZM323.959 793.949C323.959 792.978 324.689 792.284 325.567 792.284C326.455 792.284 327.176 792.978 327.176 793.949C327.176 794.928 326.455 795.631 325.567 795.631C324.689 795.631 323.959 794.928 323.959 793.949ZM328.849 793.958C328.849 795.409 329.644 796.408 330.911 796.408C332.066 796.408 332.445 795.539 332.445 795.539H332.464C332.464 795.539 332.455 795.668 332.455 795.853V796.297H333.305V789.77H332.408V791.933C332.408 792.109 332.427 792.248 332.427 792.248H332.408C332.408 792.248 332.048 791.508 330.966 791.508C329.727 791.508 328.849 792.469 328.849 793.958ZM329.764 793.958C329.764 792.895 330.375 792.284 331.114 792.284C332.002 792.284 332.436 793.117 332.436 793.949C332.436 795.141 331.78 795.631 331.086 795.631C330.31 795.631 329.764 794.975 329.764 793.958ZM334.383 793.958C334.383 795.344 335.391 796.408 336.86 796.408C337.979 796.408 338.672 795.742 338.672 795.742L338.303 795.086C338.303 795.086 337.72 795.631 336.916 795.631C336.084 795.631 335.354 795.113 335.307 794.087H338.719C338.719 794.087 338.746 793.819 338.746 793.699C338.746 792.488 338.044 791.508 336.722 791.508C335.391 791.508 334.383 792.469 334.383 793.958ZM335.335 793.412C335.464 792.645 336.019 792.22 336.703 792.22C337.304 792.22 337.803 792.608 337.831 793.412H335.335ZM340.028 794.586C340.028 796.149 341.221 796.334 341.822 796.334C342.007 796.334 342.136 796.315 342.136 796.315V795.52C342.136 795.52 342.053 795.539 341.924 795.539C341.581 795.539 340.925 795.418 340.925 794.485V792.405H342.053V791.684H340.925V790.334H340.056V791.684H339.418V792.405H340.028V794.586ZM342.824 793.958C342.824 795.344 343.832 796.408 345.301 796.408C346.42 796.408 347.113 795.742 347.113 795.742L346.744 795.086C346.744 795.086 346.161 795.631 345.357 795.631C344.525 795.631 343.795 795.113 343.748 794.087H347.16C347.16 794.087 347.187 793.819 347.187 793.699C347.187 792.488 346.485 791.508 345.163 791.508C343.832 791.508 342.824 792.469 342.824 793.958ZM343.776 793.412C343.906 792.645 344.46 792.22 345.144 792.22C345.745 792.22 346.244 792.608 346.272 793.412H343.776ZM349.93 794.475C349.93 794.475 350.004 794.623 350.069 794.734L351.049 796.297H352.066L350.476 793.893L351.982 791.619H350.956L350.087 793.043C350.013 793.163 349.93 793.32 349.93 793.32H349.912C349.912 793.32 349.828 793.163 349.754 793.043L348.885 791.619H347.859L349.366 793.893L347.776 796.297H348.793L349.773 794.734C349.838 794.623 349.912 794.475 349.912 794.475H349.93ZM353.164 794.586C353.164 796.149 354.357 796.334 354.957 796.334C355.142 796.334 355.272 796.315 355.272 796.315V795.52C355.272 795.52 355.189 795.539 355.059 795.539C354.717 795.539 354.061 795.418 354.061 794.485V792.405H355.189V791.684H354.061V790.334H353.192V791.684H352.554V792.405H353.164V794.586ZM355.941 793.949C355.941 795.372 357.069 796.408 358.465 796.408C359.861 796.408 360.989 795.372 360.989 793.949C360.989 792.534 359.861 791.508 358.465 791.508C357.069 791.508 355.941 792.534 355.941 793.949ZM356.856 793.949C356.856 792.978 357.587 792.284 358.465 792.284C359.352 792.284 360.073 792.978 360.073 793.949C360.073 794.928 359.352 795.631 358.465 795.631C357.587 795.631 356.856 794.928 356.856 793.949Z" fill="#0078A3"/>
<path d="M275.518 808.9H279.271V808.105H277.847V802.373H277.034L275.471 803.889L276.026 804.463L276.636 803.862C276.877 803.63 276.951 803.483 276.951 803.483H276.969C276.969 803.483 276.96 803.686 276.96 803.889V808.105H275.518V808.9ZM280.041 808.9H283.794V808.105H282.37V802.373H281.557L279.994 803.889L280.549 804.463L281.159 803.862C281.4 803.63 281.474 803.483 281.474 803.483H281.492C281.492 803.483 281.483 803.686 281.483 803.889V808.105H280.041V808.9ZM288.473 809.011C290.497 809.011 291.412 807.014 291.412 805.341C291.412 803.473 290.358 802.262 288.972 802.262C287.752 802.262 286.873 803.159 286.873 804.444C286.873 805.655 287.696 806.589 288.935 806.589C289.508 806.589 290.109 806.348 290.377 805.979H290.395C290.257 807.06 289.637 808.17 288.436 808.17C287.918 808.17 287.502 807.948 287.502 807.948L287.206 808.743C287.206 808.743 287.696 809.011 288.473 809.011ZM289.12 805.821C288.278 805.821 287.779 805.239 287.779 804.444C287.779 803.686 288.223 803.104 288.981 803.104C289.813 803.104 290.451 804.056 290.451 804.906C290.451 805.368 289.859 805.821 289.12 805.821ZM294.007 809.011C296.031 809.011 296.946 807.014 296.946 805.341C296.946 803.473 295.893 802.262 294.506 802.262C293.286 802.262 292.407 803.159 292.407 804.444C292.407 805.655 293.23 806.589 294.469 806.589C295.042 806.589 295.643 806.348 295.911 805.979H295.93C295.791 807.06 295.171 808.17 293.97 808.17C293.452 808.17 293.036 807.948 293.036 807.948L292.74 808.743C292.74 808.743 293.23 809.011 294.007 809.011ZM294.654 805.821C293.813 805.821 293.313 805.239 293.313 804.444C293.313 803.686 293.757 803.104 294.515 803.104C295.347 803.104 295.985 804.056 295.985 804.906C295.985 805.368 295.393 805.821 294.654 805.821ZM298.006 808.9H301.759V808.105H300.336V802.373H299.522L297.96 803.889L298.515 804.463L299.125 803.862C299.365 803.63 299.439 803.483 299.439 803.483H299.458C299.458 803.483 299.448 803.686 299.448 803.889V808.105H298.006V808.9ZM302.455 808.105C302.455 808.105 303.112 809.011 304.452 809.011C305.774 809.011 306.763 808.068 306.763 806.811C306.763 805.637 305.866 804.684 304.489 804.684C304.008 804.684 303.648 804.888 303.648 804.888H303.629C303.629 804.888 303.666 804.74 303.675 804.546L303.833 803.168H306.329V802.373H303.038L302.714 805.609L303.241 805.803C303.241 805.803 303.703 805.479 304.341 805.479C305.182 805.479 305.829 806.034 305.829 806.82C305.829 807.615 305.164 808.142 304.397 808.142C303.472 808.142 302.964 807.439 302.964 807.439L302.455 808.105ZM307.775 808.9H311.982V808.105H308.746C308.764 806.616 311.88 806.284 311.88 804.139C311.88 803.011 311.02 802.262 309.818 802.262C308.348 802.262 307.757 803.501 307.757 803.501L308.432 803.954C308.432 803.954 308.894 803.122 309.754 803.122C310.438 803.122 310.928 803.557 310.928 804.204C310.928 805.738 307.729 806.071 307.729 808.401C307.729 808.558 307.747 808.724 307.775 808.9ZM313.343 806.663H316.042V805.868H313.343V806.663ZM319.857 809.011C321.078 809.011 321.956 808.114 321.956 806.829C321.956 805.618 321.133 804.675 319.894 804.675C319.321 804.675 318.73 804.925 318.452 805.295H318.434C318.572 804.213 319.192 803.104 320.394 803.104C320.911 803.104 321.327 803.316 321.327 803.316L321.623 802.53C321.623 802.53 321.124 802.262 320.357 802.262C318.332 802.262 317.417 804.259 317.417 805.932C317.417 807.791 318.461 809.011 319.857 809.011ZM319.848 808.17C319.016 808.17 318.378 807.217 318.378 806.367C318.378 805.895 318.97 805.452 319.709 805.452C320.541 805.452 321.05 806.034 321.05 806.829C321.05 807.587 320.597 808.17 319.848 808.17ZM324.458 809.011C326.482 809.011 327.398 807.014 327.398 805.341C327.398 803.473 326.344 802.262 324.957 802.262C323.737 802.262 322.858 803.159 322.858 804.444C322.858 805.655 323.681 806.589 324.92 806.589C325.493 806.589 326.094 806.348 326.362 805.979H326.381C326.242 807.06 325.623 808.17 324.421 808.17C323.903 808.17 323.487 807.948 323.487 807.948L323.191 808.743C323.191 808.743 323.681 809.011 324.458 809.011ZM325.105 805.821C324.264 805.821 323.764 805.239 323.764 804.444C323.764 803.686 324.208 803.104 324.966 803.104C325.798 803.104 326.436 804.056 326.436 804.906C326.436 805.368 325.844 805.821 325.105 805.821ZM328.457 808.9H332.211V808.105H330.787V802.373H329.973L328.411 803.889L328.966 804.463L329.576 803.862C329.816 803.63 329.89 803.483 329.89 803.483H329.909C329.909 803.483 329.899 803.686 329.899 803.889V808.105H328.457V808.9ZM335.347 809.011C337.094 809.011 337.658 807.513 337.658 805.627C337.658 803.751 337.094 802.262 335.347 802.262C333.609 802.262 333.045 803.751 333.045 805.627C333.045 807.513 333.609 809.011 335.347 809.011ZM335.347 808.17C334.284 808.17 333.979 807.051 333.979 805.627C333.979 804.213 334.284 803.104 335.347 803.104C336.419 803.104 336.724 804.213 336.724 805.627C336.724 807.051 336.419 808.17 335.347 808.17Z" fill="#0078A3"/>
<path d="M224 57.471C222.501 56.881 221.468 56.0821 220.903 55.0743C220.338 54.0665 220.104 52.948 220.203 51.719C220.325 50.4653 220.719 49.138 221.382 47.7368C222.071 46.3111 222.906 44.8854 223.89 43.4597C224.897 42.034 226.004 40.6452 227.208 39.2932C228.413 37.9413 229.605 36.6999 230.785 35.5692C231.965 34.4385 233.071 33.4552 234.103 32.6195C235.136 31.7837 235.971 31.1692 236.61 30.7759C237.495 30.2351 238.233 29.977 238.823 30.0016C239.413 30.0016 239.88 30.186 240.224 30.5547C240.593 30.8988 240.838 31.3904 240.961 32.0295C241.109 32.6441 241.17 33.3078 241.146 34.0206C241.146 34.7089 241.072 35.4094 240.924 36.1223C240.801 36.8106 240.629 37.4128 240.408 37.929C240.212 38.4452 239.99 38.8262 239.744 39.072C239.523 39.3178 239.302 39.3301 239.081 39.1089C239.056 38.9122 239.081 38.6173 239.155 38.224C239.228 37.8061 239.314 37.3391 239.413 36.8229C239.536 36.3066 239.646 35.7782 239.744 35.2374C239.843 34.6966 239.904 34.205 239.929 33.7625C239.978 33.2955 239.966 32.9022 239.892 32.5826C239.843 32.2631 239.708 32.0787 239.486 32.0295C238.626 31.8083 237.594 32.0173 236.389 32.6564C235.209 33.2709 233.968 34.1681 232.665 35.348C231.387 36.5033 230.109 37.8553 228.83 39.4039C227.577 40.9279 226.434 42.5011 225.401 44.1234C224.369 45.7458 223.521 47.3313 222.857 48.8799C222.194 50.4039 221.813 51.7558 221.714 52.9357C221.641 54.0911 221.899 54.9883 222.489 55.6274C223.103 56.2419 224.172 56.4385 225.696 56.2173C227.098 56.0207 228.388 55.529 229.568 54.7425C230.772 53.9313 231.928 53.0464 233.034 52.0877C234.165 51.1045 235.283 50.1458 236.389 49.2117C237.495 48.253 238.651 47.5279 239.855 47.0363C240.298 46.8642 240.642 46.9257 240.887 47.2206C241.158 47.5156 241.232 47.872 241.109 48.2899C240.961 48.7078 240.519 49.2609 239.781 49.9491C239.068 50.6374 238.171 51.3626 237.09 52.1246C236.033 52.862 234.865 53.6117 233.587 54.3737C232.309 55.1112 231.055 55.7503 229.826 56.2911C228.622 56.8318 227.491 57.2251 226.434 57.471C225.401 57.7168 224.59 57.7168 224 57.471Z" fill="#0078A3"/>
<path d="M242.01 57.471C241.961 57.4464 241.961 57.1637 242.01 56.6229C242.084 56.0575 242.182 55.357 242.305 54.5212C242.428 53.6855 242.588 52.7637 242.784 51.7558C242.981 50.748 243.19 49.7894 243.411 48.8799C243.632 47.9458 243.866 47.1346 244.112 46.4463C244.382 45.7335 244.64 45.2419 244.886 44.9715C245.058 44.7994 245.23 44.7994 245.402 44.9715C245.574 45.119 245.746 45.3156 245.918 45.5614C246.09 45.7826 246.262 45.9916 246.434 46.1882C246.607 46.3603 246.791 46.3726 246.988 46.2251C247.676 45.2664 248.426 44.3569 249.237 43.4966C250.072 42.6117 250.994 41.8497 252.002 41.2106C252.1 41.1368 252.371 41.0262 252.813 40.8787C253.256 40.7067 253.76 40.5469 254.325 40.3994C254.89 40.2273 255.468 40.0921 256.058 39.9938C256.672 39.8709 257.189 39.8217 257.607 39.8463C258.049 39.8463 258.344 39.9569 258.491 40.1782C258.664 40.3748 258.59 40.719 258.27 41.2106C256.795 41.2352 255.419 41.6653 254.141 42.5011C252.862 43.3368 251.683 44.3692 250.601 45.5983C249.519 46.8273 248.536 48.167 247.651 49.6173C246.766 51.043 245.992 52.3704 245.328 53.5994C244.689 54.8285 244.148 55.8486 243.706 56.6598C243.288 57.4709 242.981 57.8765 242.784 57.8765C242.76 57.8765 242.649 57.8274 242.452 57.7291C242.256 57.6061 242.108 57.5201 242.01 57.471Z" fill="#0078A3"/>
<path d="M256.812 57.471C257.819 54.2262 258.729 51.6575 259.54 49.7648C260.376 47.8475 261.064 46.5078 261.605 45.7458C262.17 44.9838 262.551 44.738 262.748 45.0083C262.945 45.2787 262.92 45.967 262.674 47.0732C262.453 48.1793 261.961 49.6665 261.199 51.5346C260.462 53.3782 259.417 55.4922 258.065 57.8765C257.869 57.9503 257.635 57.9626 257.365 57.9134C257.094 57.8642 256.91 57.7168 256.812 57.471ZM263.264 39.7357C263.215 39.6128 263.19 39.3916 263.19 39.072C263.19 38.7525 263.215 38.5558 263.264 38.4821C263.829 38.2854 264.26 38.2608 264.555 38.4083C264.85 38.5558 265.034 38.777 265.108 39.072C265.181 39.3424 265.169 39.6374 265.071 39.9569C264.997 40.2765 264.862 40.5223 264.665 40.6944C264.469 40.8419 264.235 40.8664 263.965 40.7681C263.719 40.6452 263.485 40.3011 263.264 39.7357Z" fill="#0078A3"/>
<path d="M264.386 57.471C264.092 57.2743 264.079 57.0162 264.35 56.6966C264.645 56.3525 265.099 55.9961 265.714 55.6274C266.353 55.2341 267.09 54.8285 267.926 54.4106C268.762 53.9927 269.561 53.5994 270.323 53.2307C271.109 52.862 271.798 52.5424 272.388 52.2721C272.978 51.9771 273.359 51.7558 273.531 51.6084C274.342 50.9201 274.76 50.3547 274.784 49.9123C274.833 49.4452 274.637 49.0765 274.194 48.8061C273.752 48.5111 273.125 48.2899 272.314 48.1424C271.527 47.9704 270.704 47.8229 269.843 47.7C269.008 47.5525 268.197 47.405 267.41 47.2575C266.648 47.11 266.07 46.9134 265.677 46.6676C265.284 46.4218 265.149 46.1022 265.271 45.7089C265.419 45.291 265.96 44.7625 266.894 44.1234C267.238 43.8776 267.742 43.5212 268.405 43.0542C269.069 42.5871 269.782 42.1078 270.544 41.6162C271.331 41.1245 272.105 40.6821 272.867 40.2888C273.629 39.8955 274.268 39.6374 274.784 39.5145C275.055 39.4653 275.325 39.4899 275.595 39.5882C275.89 39.6865 276.124 39.834 276.296 40.0307C276.468 40.2027 276.542 40.3994 276.517 40.6206C276.517 40.8419 276.357 41.0385 276.038 41.2106C274.637 41.9972 273.285 42.7346 271.982 43.4229C270.704 44.1111 269.413 44.8977 268.111 45.7826C268.037 45.9793 268.049 46.1514 268.147 46.2989C268.27 46.4463 268.405 46.557 268.553 46.6307C271.159 46.9011 273.113 47.2821 274.416 47.7737C275.743 48.2653 276.579 48.8061 276.923 49.3961C277.292 49.986 277.255 50.6128 276.812 51.2765C276.37 51.9402 275.706 52.5916 274.821 53.2307C273.961 53.8698 272.965 54.4721 271.835 55.0374C270.704 55.6028 269.61 56.0821 268.553 56.4754C267.521 56.8687 266.611 57.1637 265.824 57.3603C265.038 57.557 264.559 57.5939 264.386 57.471Z" fill="#0078A3"/>
<path d="M296.423 57.471C295.194 56.9547 294.383 56.2419 293.99 55.3324C293.597 54.3983 293.461 53.4028 293.584 52.3458C293.707 51.2642 294.002 50.1827 294.469 49.1011C294.961 48.0195 295.465 47.0609 295.981 46.2251C296.153 45.9301 296.473 45.4262 296.94 44.7134C297.407 44.0005 297.898 43.2508 298.415 42.4642C298.955 41.653 299.459 40.9033 299.926 40.215C300.418 39.5022 300.762 39.0106 300.959 38.7402C301.254 36.8474 301.844 35.348 302.729 34.2418C303.613 33.1111 304.609 32.3368 305.715 31.9189C306.846 31.501 308.001 31.415 309.181 31.6608C310.361 31.8821 311.393 32.4105 312.278 33.2463C313.163 34.0575 313.802 35.1513 314.196 36.5279C314.589 37.9044 314.552 39.5145 314.085 41.3581C313.643 43.2016 312.684 45.2664 311.209 47.5525C309.734 49.8385 307.571 52.3089 304.72 54.9637C304.228 55.4307 303.638 55.8855 302.95 56.3279C302.286 56.7458 301.573 57.0899 300.811 57.3603C300.074 57.6307 299.324 57.7905 298.562 57.8397C297.8 57.8888 297.087 57.7659 296.423 57.471ZM295.133 54.5581C295.379 55.6642 295.846 56.3525 296.534 56.6229C297.222 56.8933 298.034 56.8441 298.968 56.4754C299.902 56.1067 300.922 55.4799 302.028 54.595C303.134 53.71 304.24 52.6776 305.346 51.4977C306.453 50.2933 307.51 48.9905 308.517 47.5894C309.525 46.1882 310.398 44.7994 311.135 43.4229C311.897 42.0463 312.475 40.7312 312.868 39.4776C313.262 38.224 313.384 37.1424 313.237 36.2329C313.114 35.2988 312.672 34.5983 311.91 34.1312C311.172 33.6642 310.029 33.529 308.48 33.7256C307.915 34.2173 307.165 34.9424 306.231 35.9011C305.297 36.8351 304.302 37.9044 303.245 39.1089C302.188 40.3134 301.131 41.6162 300.074 43.0173C299.017 44.3938 298.083 45.7704 297.272 47.1469C296.46 48.5234 295.846 49.8508 295.428 51.129C295.01 52.4072 294.912 53.5503 295.133 54.5581Z" fill="#0078A3"/>
<path d="M314.38 57.471C313.667 56.9547 313.2 56.3033 312.979 55.5168C312.782 54.7302 312.758 53.8821 312.905 52.9726C313.053 52.0385 313.311 51.0799 313.679 50.0966C314.073 49.1134 314.491 48.167 314.933 47.2575C315.4 46.348 315.843 45.5123 316.26 44.7502C316.703 43.9882 317.047 43.3614 317.293 42.8698C317.367 42.7223 317.539 42.3659 317.809 41.8005C318.104 41.2352 318.411 40.6206 318.731 39.9569C319.05 39.2932 319.345 38.6787 319.616 38.1134C319.911 37.5234 320.095 37.1547 320.169 37.0072C320.243 36.8843 320.341 36.6508 320.464 36.3066C320.611 35.9379 320.771 35.5446 320.943 35.1268C321.115 34.7089 321.3 34.3156 321.496 33.9469C321.717 33.5536 321.939 33.2709 322.16 33.0988C322.406 32.9268 322.639 32.9022 322.86 33.0251C323.106 33.148 323.34 33.5167 323.561 34.1312C323.463 34.377 323.217 34.8687 322.824 35.6061C322.455 36.3435 322.012 37.2284 321.496 38.2608C320.98 39.2932 320.402 40.4363 319.763 41.6899C319.149 42.9435 318.546 44.2095 317.956 45.4877C317.367 46.7659 316.813 48.0195 316.297 49.2486C315.781 50.4531 315.351 51.5592 315.007 52.567C314.687 53.5503 314.491 54.3737 314.417 55.0374C314.368 55.6765 314.491 56.0698 314.786 56.2173C315.13 56.3894 315.572 56.4631 316.113 56.4385C316.678 56.3894 317.256 56.3156 317.846 56.2173C318.436 56.119 319.013 56.0207 319.579 55.9223C320.144 55.7994 320.636 55.7503 321.054 55.7749C321.152 55.9961 321.078 56.2173 320.832 56.4385C320.587 56.6352 320.243 56.8196 319.8 56.9916C319.358 57.1391 318.841 57.2743 318.251 57.3972C317.686 57.4955 317.133 57.5693 316.592 57.6184C316.076 57.6676 315.609 57.6799 315.191 57.6553C314.798 57.6307 314.527 57.5693 314.38 57.471Z" fill="#0078A3"/>
<path d="M322.324 57.471C323.331 54.2262 324.241 51.6575 325.052 49.7648C325.888 47.8475 326.576 46.5078 327.117 45.7458C327.682 44.9838 328.063 44.738 328.26 45.0083C328.457 45.2787 328.432 45.967 328.186 47.0732C327.965 48.1793 327.473 49.6665 326.711 51.5346C325.974 53.3782 324.929 55.4922 323.577 57.8765C323.381 57.9503 323.147 57.9626 322.877 57.9134C322.606 57.8642 322.422 57.7168 322.324 57.471ZM328.776 39.7357C328.727 39.6128 328.702 39.3916 328.702 39.072C328.702 38.7525 328.727 38.5558 328.776 38.4821C329.341 38.2854 329.772 38.2608 330.067 38.4083C330.362 38.5558 330.546 38.777 330.62 39.072C330.693 39.3424 330.681 39.6374 330.583 39.9569C330.509 40.2765 330.374 40.5223 330.177 40.6944C329.981 40.8419 329.747 40.8664 329.477 40.7681C329.231 40.6452 328.997 40.3011 328.776 39.7357Z" fill="#0078A3"/>
<path d="M330.931 57.0285C330.415 56.7335 330.046 56.2665 329.825 55.6274C329.604 54.9883 329.481 54.2631 329.456 53.4519C329.431 52.6408 329.481 51.7927 329.604 50.9078C329.726 50.0229 329.874 49.1625 330.046 48.3268C330.218 47.491 330.39 46.7413 330.562 46.0776C330.734 45.4139 330.857 44.8977 330.931 44.529C331.054 44.4553 331.177 44.4553 331.3 44.529C331.447 44.6028 331.582 44.7134 331.705 44.8609C331.853 44.9838 331.963 45.1067 332.037 45.2296C332.135 45.3279 332.185 45.3771 332.185 45.3771C332.258 46.2374 332.258 47.0854 332.185 47.9212C332.135 48.7324 332.062 49.5436 331.963 50.3547C331.89 51.1659 331.816 51.9894 331.742 52.8251C331.693 53.6609 331.693 54.5089 331.742 55.3693C331.939 55.738 332.344 55.7503 332.959 55.4061C333.573 55.0374 334.323 54.4598 335.208 53.6732C336.093 52.862 337.052 51.9156 338.084 50.8341C339.141 49.7279 340.173 48.6341 341.181 47.5525C342.214 46.4709 343.185 45.4631 344.094 44.529C345.004 43.5704 345.766 42.8452 346.38 42.3536C347.019 41.8374 347.462 41.6285 347.707 41.7268C347.953 41.8005 347.916 42.3167 347.597 43.2754C347.007 43.7916 346.306 44.5659 345.495 45.5983C344.684 46.6307 343.799 47.7491 342.84 48.9536C341.882 50.1335 340.886 51.3134 339.854 52.4933C338.821 53.6732 337.777 54.6933 336.72 55.5536C335.687 56.3894 334.68 56.9793 333.696 57.3235C332.713 57.643 331.791 57.5447 330.931 57.0285Z" fill="#0078A3"/>
<path d="M349.088 57.471C348.351 57.2251 347.785 56.8564 347.392 56.3648C347.023 55.8486 346.777 55.2832 346.654 54.6687C346.532 54.0542 346.507 53.4151 346.581 52.7514C346.679 52.0631 346.826 51.4117 347.023 50.7972C347.761 50.0106 348.584 49.1134 349.494 48.1056C350.428 47.0732 351.411 46.0653 352.443 45.0821C353.476 44.0988 354.545 43.1893 355.651 42.3536C356.782 41.4933 357.925 40.8419 359.08 40.3994C359.473 40.2273 359.781 40.2396 360.002 40.4363C360.248 40.6083 360.42 40.891 360.518 41.2843C360.616 41.6776 360.653 42.1324 360.629 42.6486C360.629 43.1648 360.592 43.6687 360.518 44.1603C360.444 44.6519 360.346 45.0944 360.223 45.4877C360.1 45.881 359.977 46.1514 359.854 46.2989C359.559 46.643 358.982 47.0486 358.121 47.5156C357.286 47.9827 356.352 48.4989 355.319 49.0642C354.287 49.605 353.254 50.1704 352.222 50.7603C351.19 51.3503 350.342 51.9402 349.678 52.5302C349.014 53.0955 348.621 53.6609 348.498 54.2262C348.375 54.7916 348.719 55.3078 349.53 55.7749C350.366 55.8732 351.374 55.8363 352.554 55.6642C353.758 55.4676 354.975 55.2218 356.204 54.9268C357.458 54.6073 358.662 54.2877 359.818 53.9681C360.973 53.624 361.919 53.3536 362.657 53.157L363.099 53.5626C362.558 54.2754 361.673 54.9268 360.444 55.5168C359.215 56.1067 357.888 56.5983 356.462 56.9916C355.037 57.3603 353.648 57.6061 352.296 57.7291C350.944 57.8274 349.875 57.7413 349.088 57.471ZM357.9 43.386C357.876 43.3614 357.691 43.472 357.347 43.7178C357.003 43.9391 356.573 44.2463 356.057 44.6396C355.565 45.0083 355.024 45.4262 354.434 45.8933C353.869 46.3357 353.34 46.7536 352.849 47.1469C352.382 47.5402 351.988 47.8843 351.669 48.1793C351.349 48.4497 351.214 48.5849 351.263 48.5849C351.657 48.6586 352.161 48.6095 352.775 48.4374C353.414 48.2408 354.066 47.9704 354.729 47.6262C355.418 47.2821 356.069 46.9011 356.683 46.4832C357.298 46.0408 357.777 45.6106 358.121 45.1927C358.49 44.7748 358.675 44.4061 358.675 44.0866C358.699 43.767 358.441 43.5335 357.9 43.386Z" fill="#0078A3"/>
<path d="M362.399 57.471C363.406 54.2262 364.316 51.6575 365.127 49.7648C365.963 47.8475 366.651 46.5078 367.192 45.7458C367.757 44.9838 368.138 44.738 368.335 45.0083C368.532 45.2787 368.507 45.967 368.261 47.0732C368.04 48.1793 367.548 49.6665 366.786 51.5346C366.049 53.3782 365.004 55.4922 363.652 57.8765C363.456 57.9503 363.222 57.9626 362.952 57.9134C362.681 57.8642 362.497 57.7168 362.399 57.471ZM368.851 39.7357C368.802 39.6128 368.777 39.3916 368.777 39.072C368.777 38.7525 368.802 38.5558 368.851 38.4821C369.416 38.2854 369.847 38.2608 370.142 38.4083C370.437 38.5558 370.621 38.777 370.695 39.072C370.768 39.3424 370.756 39.6374 370.658 39.9569C370.584 40.2765 370.449 40.5223 370.252 40.6944C370.056 40.8419 369.822 40.8664 369.552 40.7681C369.306 40.6452 369.072 40.3011 368.851 39.7357Z" fill="#0078A3"/>
<path d="M369.973 57.471C369.924 57.4464 369.924 57.1637 369.973 56.6229C370.047 56.0575 370.146 55.357 370.268 54.5212C370.391 53.6855 370.551 52.7637 370.748 51.7558C370.944 50.748 371.153 49.7894 371.375 48.8799C371.596 47.9458 371.829 47.1346 372.075 46.4463C372.346 45.7335 372.604 45.2419 372.849 44.9715C373.022 44.7994 373.194 44.7994 373.366 44.9715C373.538 45.119 373.71 45.3156 373.882 45.5614C374.054 45.7826 374.226 45.9916 374.398 46.1882C374.57 46.3603 374.755 46.3726 374.951 46.2251C375.639 45.2664 376.389 44.3569 377.2 43.4966C378.036 42.6117 378.958 41.8497 379.966 41.2106C380.064 41.1368 380.334 41.0262 380.777 40.8787C381.219 40.7067 381.723 40.5469 382.289 40.3994C382.854 40.2273 383.432 40.0921 384.022 39.9938C384.636 39.8709 385.152 39.8217 385.57 39.8463C386.013 39.8463 386.308 39.9569 386.455 40.1782C386.627 40.3748 386.553 40.719 386.234 41.2106C384.759 41.2352 383.382 41.6653 382.104 42.5011C380.826 43.3368 379.646 44.3692 378.565 45.5983C377.483 46.8273 376.5 48.167 375.615 49.6173C374.73 51.043 373.956 52.3704 373.292 53.5994C372.653 54.8285 372.112 55.8486 371.67 56.6598C371.252 57.4709 370.944 57.8765 370.748 57.8765C370.723 57.8765 370.613 57.8274 370.416 57.7291C370.219 57.6061 370.072 57.5201 369.973 57.471Z" fill="#0078A3"/>
<path d="M382.884 57.0285C382.295 56.5369 381.963 55.8117 381.889 54.8531C381.84 53.8944 381.975 52.8128 382.295 51.6084C382.639 50.4039 383.13 49.1503 383.769 47.8475C384.433 46.5201 385.195 45.2664 386.055 44.0866C386.916 42.8821 387.85 41.8128 388.858 40.8787C389.865 39.9201 390.873 39.2195 391.881 38.777C392.889 38.31 393.872 38.1502 394.831 38.2977C395.79 38.4206 396.662 38.9737 397.449 39.9569C397.94 40.5715 398.235 41.1983 398.334 41.8374C398.432 42.4519 398.42 43.091 398.297 43.7547C398.174 44.3938 397.977 45.0575 397.707 45.7458C397.436 46.4095 397.166 47.0854 396.896 47.7737C396.65 48.462 396.441 49.1625 396.269 49.8754C396.121 50.5882 396.097 51.3134 396.195 52.0508C396.318 52.9849 396.736 53.538 397.449 53.71C398.162 53.8821 399.01 53.833 399.993 53.5626C401.001 53.2922 402.058 52.862 403.164 52.2721C404.27 51.6821 405.29 51.0922 406.224 50.5022C407.183 49.9123 407.969 49.3961 408.584 48.9536C409.223 48.5111 409.543 48.2899 409.543 48.2899C410.231 48.1424 410.612 48.1916 410.686 48.4374C410.784 48.6586 410.649 49.0028 410.28 49.4698C409.936 49.9123 409.407 50.4285 408.695 51.0184C407.982 51.5838 407.171 52.1369 406.261 52.6776C405.352 53.2184 404.381 53.71 403.348 54.1525C402.316 54.595 401.308 54.9022 400.325 55.0743C399.341 55.2218 398.407 55.2095 397.522 55.0374C396.662 54.8408 395.949 54.3983 395.384 53.71C395.114 53.4151 394.905 53.1201 394.757 52.8251C394.634 52.5302 394.425 52.2721 394.13 52.0508C393.762 52.395 393.319 52.8497 392.803 53.4151C392.287 53.9559 391.721 54.5089 391.107 55.0743C390.517 55.6151 389.878 56.1313 389.189 56.6229C388.526 57.1145 387.838 57.4832 387.125 57.7291C386.412 57.9749 385.687 58.0609 384.949 57.9872C384.236 57.9134 383.548 57.5939 382.884 57.0285ZM383.29 55.7749C383.511 56.5615 384.003 56.9302 384.765 56.881C385.527 56.8073 386.412 56.4263 387.42 55.738C388.427 55.0497 389.472 54.1156 390.554 52.9357C391.635 51.7313 392.606 50.4039 393.467 48.9536C394.327 47.4787 394.978 45.9301 395.421 44.3078C395.888 42.6854 396.011 41.0877 395.79 39.5145C395.2 39.0474 394.462 39.0351 393.577 39.4776C392.692 39.8955 391.746 40.596 390.738 41.5793C389.755 42.5379 388.772 43.6933 387.788 45.0452C386.83 46.3726 385.982 47.7246 385.244 49.1011C384.507 50.4531 383.941 51.7313 383.548 52.9357C383.179 54.1402 383.093 55.0866 383.29 55.7749Z" fill="#0078A3"/>
<path d="M255.857 76.9659H253.407V75.3417H260.312V76.9659H257.862V81.9682H255.857V76.9659Z" fill="#FF9A2E"/>
<path d="M265.886 79.2211C265.886 79.6666 265.997 79.9945 266.22 80.2049C266.449 80.4152 266.808 80.5204 267.297 80.5204C267.792 80.5204 268.15 80.4152 268.373 80.2049C268.602 79.9945 268.717 79.6666 268.717 79.2211V75.3417H270.721V79.0633C270.721 80.1523 270.427 80.9381 269.84 81.4207C269.252 81.8971 268.404 82.1353 267.297 82.1353C266.195 82.1353 265.351 81.8971 264.763 81.4207C264.175 80.9381 263.881 80.1523 263.881 79.0633V75.3417H265.886V79.2211Z" fill="#FF9A2E"/>
<path d="M274.933 75.3417H278.07C279.406 75.3417 280.415 75.6233 281.095 76.1863C281.776 76.7431 282.116 77.566 282.116 78.655C282.116 79.7068 281.761 80.5235 281.049 81.1051C280.338 81.6805 279.317 81.9682 277.986 81.9682H274.933V75.3417ZM278.033 80.3812C279.4 80.3812 280.084 79.8027 280.084 78.6457C280.084 77.5011 279.425 76.9288 278.107 76.9288H276.91V80.3812H278.033Z" fill="#FF9A2E"/>
<path d="M289.766 82.1353C288.95 82.1353 288.247 81.9961 287.66 81.7176C287.072 81.4392 286.617 81.0401 286.295 80.5204C285.98 80.0007 285.822 79.3789 285.822 78.655C285.822 77.9311 285.983 77.3093 286.305 76.7895C286.626 76.2698 287.084 75.8707 287.678 75.5923C288.272 75.3139 288.98 75.1747 289.803 75.1747C290.62 75.1747 291.322 75.3139 291.91 75.5923C292.498 75.8707 292.95 76.2698 293.265 76.7895C293.587 77.3093 293.748 77.9311 293.748 78.655C293.748 79.3789 293.587 80.0007 293.265 80.5204C292.943 81.0401 292.486 81.4392 291.892 81.7176C291.298 81.9961 290.589 82.1353 289.766 82.1353ZM291.669 78.655C291.669 78.061 291.502 77.6032 291.168 77.2814C290.84 76.9535 290.379 76.7895 289.785 76.7895C289.191 76.7895 288.727 76.9535 288.393 77.2814C288.065 77.6093 287.901 78.0672 287.901 78.655C287.901 79.249 288.065 79.7099 288.393 80.0378C288.727 80.3596 289.191 80.5204 289.785 80.5204C290.379 80.5204 290.84 80.3565 291.168 80.0285C291.502 79.7006 291.669 79.2428 291.669 78.655Z" fill="#FF9A2E"/>
<path d="M303.044 75.3417H306.181C307.517 75.3417 308.526 75.6233 309.206 76.1863C309.887 76.7431 310.227 77.566 310.227 78.655C310.227 79.7068 309.871 80.5235 309.16 81.1051C308.448 81.6805 307.427 81.9682 306.097 81.9682H303.044V75.3417ZM306.143 80.3812C307.511 80.3812 308.194 79.8027 308.194 78.6457C308.194 77.5011 307.536 76.9288 306.218 76.9288H305.02V80.3812H306.143Z" fill="#FF9A2E"/>
<path d="M314.23 75.3417H320.03V76.7988H316.188V77.8754H319.844V79.3325H316.188V80.5111H320.253L320.067 81.9682H314.23V75.3417Z" fill="#FF9A2E"/>
<path d="M331.287 76.9659H328.837V75.3417H335.742V76.9659H333.292V81.9682H331.287V76.9659Z" fill="#FF9A2E"/>
<path d="M339.386 75.3417H345.186V76.7988H341.344V77.8754H345V79.3325H341.344V80.5111H345.409L345.223 81.9682H339.386V75.3417Z" fill="#FF9A2E"/>
<path d="M356.624 81.9682H354.276L352.587 79.7501L350.898 81.9682H348.671L351.362 78.525L348.875 75.3417H351.223L352.615 77.2721L354.082 75.3417H356.309L353.85 78.4601L356.624 81.9682Z" fill="#FF9A2E"/>
<path d="M362.063 76.9659H359.612V75.3417H366.517V76.9659H364.067V81.9682H362.063V76.9659Z" fill="#FF9A2E"/>
<path d="M373.509 82.1353C372.692 82.1353 371.99 81.9961 371.402 81.7176C370.815 81.4392 370.36 81.0401 370.038 80.5204C369.723 80.0007 369.565 79.3789 369.565 78.655C369.565 77.9311 369.726 77.3093 370.047 76.7895C370.369 76.2698 370.827 75.8707 371.421 75.5923C372.015 75.3139 372.723 75.1747 373.546 75.1747C374.363 75.1747 375.065 75.3139 375.653 75.5923C376.241 75.8707 376.692 76.2698 377.008 76.7895C377.33 77.3093 377.491 77.9311 377.491 78.655C377.491 79.3789 377.33 80.0007 377.008 80.5204C376.686 81.0401 376.228 81.4392 375.634 81.7176C375.04 81.9961 374.332 82.1353 373.509 82.1353ZM375.412 78.655C375.412 78.061 375.245 77.6032 374.91 77.2814C374.583 76.9535 374.122 76.7895 373.528 76.7895C372.934 76.7895 372.47 76.9535 372.136 77.2814C371.808 77.6093 371.644 78.0672 371.644 78.655C371.644 79.249 371.808 79.7099 372.136 80.0378C372.47 80.3596 372.934 80.5204 373.528 80.5204C374.122 80.5204 374.583 80.3565 374.91 80.0285C375.245 79.7006 375.412 79.2428 375.412 78.655Z" fill="#FF9A2E"/>
</svg>
