<svg width="158" height="62" viewBox="0 0 158 62" fill="none" xmlns="http://www.w3.org/2000/svg">
<path d="M13.3668 30.6458C12.2902 30.2222 11.5489 29.6486 11.143 28.925C10.737 28.2014 10.5694 27.3983 10.64 26.5159C10.7282 25.6157 11.0106 24.6627 11.4871 23.6566C11.9813 22.633 12.5814 21.6093 13.2874 20.5856C14.011 19.562 14.8052 18.5648 15.6701 17.594C16.5349 16.6233 17.3909 15.732 18.2381 14.9201C19.0852 14.1083 19.8795 13.4023 20.6207 12.8022C21.362 12.2021 21.9621 11.7609 22.421 11.4785C23.0564 11.0902 23.5859 10.9049 24.0094 10.9225C24.433 10.9225 24.7684 11.0549 25.0155 11.3197C25.2802 11.5667 25.4567 11.9197 25.5449 12.3786C25.6508 12.8199 25.695 13.2964 25.6773 13.8082C25.6773 14.3024 25.6244 14.8054 25.5185 15.3173C25.4302 15.8114 25.3067 16.2439 25.1478 16.6145C25.0066 16.9851 24.8478 17.2587 24.6713 17.4352C24.5124 17.6117 24.3536 17.6205 24.1948 17.4617C24.1771 17.3205 24.1948 17.1087 24.2477 16.8263C24.3007 16.5262 24.3624 16.1909 24.433 15.8203C24.5213 15.4496 24.6007 15.0702 24.6713 14.6819C24.7419 14.2936 24.786 13.9406 24.8037 13.6229C24.839 13.2876 24.8301 13.0052 24.7772 12.7757C24.7419 12.5463 24.6448 12.4139 24.486 12.3786C23.8682 12.2198 23.127 12.3698 22.2621 12.8287C21.415 13.2699 20.5237 13.9141 19.5882 14.7613C18.6705 15.5908 17.7527 16.5615 16.8349 17.6735C15.9348 18.7677 15.1141 19.8973 14.3728 21.0622C13.6315 22.227 13.0226 23.3654 12.5461 24.4773C12.0696 25.5716 11.796 26.5423 11.7254 27.3895C11.6725 28.219 11.8578 28.8632 12.2814 29.3221C12.7226 29.7634 13.4903 29.9046 14.5846 29.7457C15.5906 29.6045 16.5172 29.2515 17.3644 28.6867C18.2292 28.1043 19.0588 27.4689 19.853 26.7806C20.6649 26.0746 21.4679 25.3863 22.2621 24.7156C23.0564 24.0273 23.8859 23.5066 24.7507 23.1536C25.0684 23.0301 25.3155 23.0742 25.492 23.286C25.6861 23.4978 25.7391 23.7537 25.6508 24.0538C25.5449 24.3538 25.2273 24.7509 24.6978 25.2451C24.1859 25.7393 23.5417 26.2599 22.7652 26.8071C22.0062 27.3366 21.1679 27.8749 20.2501 28.422C19.3323 28.9515 18.4322 29.4104 17.5497 29.7987C16.6849 30.1869 15.873 30.4693 15.1141 30.6458C14.3728 30.8223 13.7904 30.8223 13.3668 30.6458Z" fill="#0078A3"/>
<path d="M26.2979 30.6458C26.2626 30.6282 26.2626 30.4252 26.2979 30.0369C26.3508 29.631 26.4214 29.128 26.5097 28.5279C26.5979 27.9278 26.7126 27.266 26.8538 26.5423C26.995 25.8187 27.145 25.1304 27.3039 24.4773C27.4627 23.8067 27.6304 23.2242 27.8069 22.73C28.001 22.2182 28.1864 21.8652 28.3629 21.6711C28.4864 21.5475 28.61 21.5475 28.7335 21.6711C28.857 21.777 28.9806 21.9182 29.1041 22.0947C29.2277 22.2535 29.3512 22.4035 29.4748 22.5447C29.5983 22.6683 29.7307 22.6771 29.8719 22.5712C30.3661 21.8829 30.9044 21.2298 31.4868 20.6121C32.0869 19.9767 32.7488 19.4296 33.4724 18.9707C33.543 18.9178 33.7371 18.8383 34.0548 18.7324C34.3725 18.6089 34.7343 18.4942 35.1403 18.3883C35.5462 18.2647 35.961 18.1676 36.3846 18.0971C36.8258 18.0088 37.1964 17.9735 37.4965 17.9912C37.8142 17.9912 38.026 18.0706 38.1318 18.2294C38.2554 18.3706 38.2024 18.6177 37.973 18.9707C36.914 18.9883 35.9257 19.2972 35.0079 19.8973C34.0901 20.4974 33.2429 21.2387 32.4664 22.1211C31.6898 23.0036 30.9838 23.9655 30.3484 25.0068C29.713 26.0305 29.1571 26.9836 28.6806 27.866C28.2217 28.7485 27.8334 29.481 27.5157 30.0634C27.2156 30.6458 26.995 30.937 26.8538 30.937C26.8362 30.937 26.7568 30.9018 26.6156 30.8312C26.4744 30.7429 26.3685 30.6811 26.2979 30.6458Z" fill="#0078A3"/>
<path d="M36.9257 30.6458C37.6493 28.3161 38.3023 26.4717 38.8848 25.1127C39.4849 23.7361 39.979 22.7742 40.3673 22.227C40.7733 21.6799 41.0468 21.5034 41.188 21.6975C41.3292 21.8917 41.3116 22.3859 41.1351 23.1801C40.9762 23.9743 40.6232 25.0421 40.0761 26.3835C39.5466 27.7072 38.7965 29.225 37.8258 30.937C37.6846 30.99 37.5169 30.9988 37.3228 30.9635C37.1287 30.9282 36.9963 30.8223 36.9257 30.6458ZM41.5587 17.9117C41.5234 17.8235 41.5057 17.6646 41.5057 17.4352C41.5057 17.2058 41.5234 17.0646 41.5587 17.0116C41.9646 16.8704 42.2735 16.8528 42.4853 16.9587C42.6971 17.0646 42.8294 17.2234 42.8824 17.4352C42.9353 17.6293 42.9265 17.8411 42.8559 18.0706C42.803 18.3 42.7059 18.4765 42.5647 18.6001C42.4235 18.706 42.2558 18.7236 42.0617 18.653C41.8852 18.5648 41.7175 18.3177 41.5587 17.9117Z" fill="#0078A3"/>
<path d="M42.3645 30.6458C42.1528 30.5046 42.1439 30.3193 42.3381 30.0899C42.5499 29.8428 42.8764 29.5869 43.3176 29.3221C43.7765 29.0397 44.306 28.7485 44.9061 28.4485C45.5062 28.1484 46.0798 27.866 46.6269 27.6013C47.1917 27.3366 47.6859 27.1071 48.1095 26.913C48.533 26.7012 48.8066 26.5423 48.9302 26.4364C49.5126 25.9422 49.8126 25.5363 49.8303 25.2186C49.8656 24.8833 49.7244 24.6185 49.4067 24.4244C49.089 24.2126 48.6389 24.0538 48.0565 23.9479C47.4917 23.8243 46.9005 23.7184 46.2827 23.6302C45.6827 23.5243 45.1002 23.4184 44.5354 23.3125C43.9883 23.2066 43.5735 23.0654 43.2911 22.8889C43.0088 22.7124 42.9117 22.4829 42.9999 22.2006C43.1058 21.9005 43.4941 21.5211 44.1648 21.0622C44.4119 20.8857 44.7737 20.6298 45.2502 20.2944C45.7268 19.9591 46.2386 19.6149 46.7857 19.2619C47.3505 18.9089 47.9065 18.5912 48.4536 18.3088C49.0008 18.0265 49.4596 17.8411 49.8303 17.7529C50.0244 17.7176 50.2186 17.7352 50.4127 17.8058C50.6245 17.8764 50.7922 17.9823 50.9157 18.1235C51.0393 18.2471 51.0922 18.3883 51.0746 18.5471C51.0746 18.706 50.9598 18.8472 50.7304 18.9707C49.7244 19.5355 48.7537 20.065 47.8182 20.5592C46.9005 21.0533 45.9739 21.6181 45.0384 22.2535C44.9855 22.3947 44.9943 22.5182 45.0649 22.6241C45.1532 22.73 45.2502 22.8095 45.3561 22.8624C47.227 23.0566 48.6301 23.3301 49.5655 23.6831C50.5186 24.0361 51.1187 24.4244 51.3658 24.848C51.6305 25.2716 51.6041 25.7216 51.2864 26.1982C50.9687 26.6747 50.4921 27.1424 49.8568 27.6013C49.239 28.0602 48.5242 28.4926 47.7123 28.8985C46.9005 29.3045 46.1151 29.6486 45.3561 29.931C44.6149 30.2134 43.9618 30.4252 43.397 30.5664C42.8323 30.7076 42.4881 30.7341 42.3645 30.6458Z" fill="#0078A3"/>
<path d="M65.3675 30.6458C64.485 30.2752 63.9026 29.7634 63.6202 29.1103C63.3378 28.4396 63.2407 27.7248 63.329 26.9659C63.4172 26.1893 63.629 25.4128 63.9643 24.6362C64.3173 23.8596 64.6791 23.1713 65.0498 22.5712C65.1733 22.3594 65.4028 21.9976 65.7381 21.4858C66.0735 20.9739 66.4264 20.4356 66.7971 19.8708C67.1854 19.2884 67.5472 18.7501 67.8825 18.2559C68.2355 17.7441 68.4826 17.3911 68.6238 17.1969C68.8356 15.8379 69.2592 14.7613 69.8946 13.9671C70.5299 13.1552 71.2448 12.5992 72.039 12.2992C72.8509 11.9992 73.6804 11.9374 74.5276 12.1139C75.3747 12.2727 76.116 12.6522 76.7514 13.2523C77.3868 13.8347 77.8457 14.6201 78.1281 15.6085C78.4104 16.5968 78.384 17.7529 78.0486 19.0766C77.7309 20.4003 77.0426 21.8829 75.9836 23.5243C74.9247 25.1657 73.3715 26.9394 71.3242 28.8456C70.9712 29.1809 70.5476 29.5074 70.0534 29.8251C69.5769 30.1252 69.065 30.3723 68.5179 30.5664C67.9884 30.7606 67.4501 30.8753 66.903 30.9106C66.3558 30.9459 65.844 30.8576 65.3675 30.6458ZM64.4409 28.5544C64.6174 29.3486 64.9527 29.8428 65.4469 30.0369C65.9411 30.2311 66.5235 30.1958 67.1942 29.931C67.8649 29.6663 68.5973 29.2162 69.3916 28.5808C70.1858 27.9455 70.98 27.2042 71.7742 26.357C72.5685 25.4922 73.3274 24.5568 74.051 23.5507C74.7747 22.5447 75.4012 21.5475 75.9307 20.5592C76.4778 19.5708 76.8926 18.6265 77.175 17.7264C77.4574 16.8263 77.5456 16.0497 77.4397 15.3967C77.3515 14.726 77.0338 14.223 76.4866 13.8877C75.9572 13.5523 75.1365 13.4552 74.0245 13.5964C73.6186 13.9494 73.0803 14.4701 72.4096 15.1584C71.7389 15.8291 71.0241 16.5968 70.2652 17.4617C69.5063 18.3265 68.7473 19.2619 67.9884 20.2679C67.2295 21.2563 66.5588 22.2447 65.9764 23.2331C65.3939 24.2214 64.9527 25.1745 64.6527 26.0923C64.3526 27.01 64.282 27.8307 64.4409 28.5544Z" fill="#0078A3"/>
<path d="M78.2604 30.6458C77.7486 30.2752 77.4132 29.8075 77.2544 29.2427C77.1132 28.6779 77.0956 28.069 77.2015 27.416C77.3074 26.7453 77.4927 26.057 77.7574 25.351C78.0398 24.645 78.3398 23.9655 78.6575 23.3125C78.9929 22.6594 79.3106 22.0594 79.6106 21.5122C79.9283 20.9651 80.1754 20.515 80.3519 20.162C80.4048 20.0561 80.5284 19.8002 80.7225 19.3943C80.9343 18.9883 81.1549 18.5471 81.3844 18.0706C81.6138 17.594 81.8256 17.1528 82.0198 16.7469C82.2316 16.3233 82.3639 16.0585 82.4169 15.9526C82.4698 15.8644 82.5404 15.6967 82.6287 15.4496C82.7346 15.1849 82.8493 14.9025 82.9728 14.6025C83.0964 14.3024 83.2287 14.02 83.3699 13.7553C83.5288 13.4729 83.6876 13.2699 83.8465 13.1464C84.023 13.0228 84.1906 13.0052 84.3495 13.0934C84.526 13.1817 84.6936 13.4464 84.8525 13.8877C84.7819 14.0641 84.6054 14.4171 84.323 14.9466C84.0583 15.4761 83.7406 16.1115 83.3699 16.8528C82.9993 17.594 82.5845 18.4147 82.1257 19.3149C81.6844 20.215 81.252 21.1239 80.8284 22.0417C80.4048 22.9595 80.0077 23.8596 79.6371 24.7421C79.2664 25.6069 78.9576 26.4011 78.7105 27.1248C78.481 27.8307 78.3398 28.422 78.2869 28.8985C78.2516 29.3574 78.3398 29.6398 78.5516 29.7457C78.7987 29.8693 79.1164 29.9222 79.5047 29.9046C79.9106 29.8693 80.3254 29.8163 80.749 29.7457C81.1726 29.6751 81.5873 29.6045 81.9933 29.5339C82.3992 29.4457 82.7522 29.4104 83.0523 29.428C83.1228 29.5869 83.0699 29.7457 82.8934 29.9046C82.7169 30.0458 82.4698 30.1781 82.1521 30.3017C81.8344 30.4076 81.4638 30.5046 81.0402 30.5929C80.6343 30.6635 80.2372 30.7164 79.8489 30.7517C79.4782 30.787 79.1429 30.7959 78.8428 30.7782C78.5605 30.7606 78.3663 30.7164 78.2604 30.6458Z" fill="#0078A3"/>
<path d="M83.964 30.6458C84.6877 28.3161 85.3407 26.4717 85.9231 25.1127C86.5232 23.7361 87.0174 22.7742 87.4057 22.227C87.8116 21.6799 88.0852 21.5034 88.2264 21.6975C88.3676 21.8917 88.3499 22.3859 88.1734 23.1801C88.0146 23.9743 87.6616 25.0421 87.1145 26.3835C86.585 27.7072 85.8349 29.225 84.8641 30.937C84.723 30.99 84.5553 30.9988 84.3611 30.9635C84.167 30.9282 84.0346 30.8223 83.964 30.6458ZM88.597 17.9117C88.5617 17.8235 88.5441 17.6646 88.5441 17.4352C88.5441 17.2058 88.5617 17.0646 88.597 17.0116C89.003 16.8704 89.3118 16.8528 89.5236 16.9587C89.7354 17.0646 89.8678 17.2234 89.9207 17.4352C89.9737 17.6293 89.9648 17.8411 89.8942 18.0706C89.8413 18.3 89.7442 18.4765 89.603 18.6001C89.4618 18.706 89.2942 18.7236 89.1 18.653C88.9235 18.5648 88.7559 18.3177 88.597 17.9117Z" fill="#0078A3"/>
<path d="M90.1442 30.3281C89.7735 30.1163 89.5088 29.781 89.3499 29.3221C89.1911 28.8632 89.1028 28.3426 89.0852 27.7601C89.0676 27.1777 89.1028 26.5688 89.1911 25.9334C89.2793 25.298 89.3852 24.6803 89.5088 24.0802C89.6323 23.4801 89.7559 22.9418 89.8794 22.4653C90.003 21.9888 90.0912 21.6181 90.1442 21.3534C90.2324 21.3004 90.3207 21.3004 90.4089 21.3534C90.5148 21.4063 90.6119 21.4858 90.7001 21.5916C90.806 21.6799 90.8854 21.7681 90.9384 21.8564C91.009 21.927 91.0443 21.9623 91.0443 21.9623C91.0972 22.58 91.0972 23.1889 91.0443 23.789C91.009 24.3714 90.956 24.9539 90.8854 25.5363C90.8325 26.1187 90.7795 26.71 90.7266 27.3101C90.6913 27.9102 90.6913 28.5191 90.7266 29.1368C90.8678 29.4015 91.159 29.4104 91.6003 29.1633C92.0415 28.8985 92.5798 28.4838 93.2152 27.919C93.8506 27.3366 94.5389 26.657 95.2802 25.8805C96.0391 25.0862 96.7804 24.3008 97.504 23.5243C98.2453 22.7477 98.9424 22.0241 99.5955 21.3534C100.248 20.6651 100.796 20.1444 101.237 19.7914C101.696 19.4208 102.013 19.2707 102.19 19.3413C102.366 19.3943 102.34 19.7649 102.111 20.4533C101.687 20.8239 101.184 21.3799 100.601 22.1211C100.019 22.8624 99.3837 23.6655 98.6953 24.5303C98.007 25.3775 97.2922 26.2246 96.5509 27.0718C95.8096 27.919 95.0595 28.6514 94.3006 29.2692C93.5593 29.8693 92.8357 30.2928 92.1297 30.5399C91.4238 30.7694 90.7619 30.6988 90.1442 30.3281Z" fill="#0078A3"/>
<path d="M103.181 30.6458C102.652 30.4693 102.246 30.2046 101.963 29.8516C101.699 29.481 101.522 29.075 101.434 28.6338C101.346 28.1926 101.328 27.7337 101.381 27.2571C101.451 26.7629 101.557 26.2952 101.699 25.854C102.228 25.2892 102.819 24.645 103.472 23.9214C104.143 23.1801 104.849 22.4565 105.59 21.7505C106.332 21.0445 107.099 20.3915 107.894 19.7914C108.705 19.1737 109.526 18.706 110.356 18.3883C110.638 18.2647 110.859 18.2735 111.018 18.4147C111.194 18.5383 111.318 18.7413 111.388 19.0236C111.459 19.306 111.485 19.6326 111.468 20.0032C111.468 20.3738 111.441 20.7356 111.388 21.0886C111.335 21.4416 111.265 21.7593 111.176 22.0417C111.088 22.3241 111 22.5182 110.912 22.6241C110.7 22.8712 110.285 23.1625 109.667 23.4978C109.067 23.8331 108.397 24.2038 107.655 24.6097C106.914 24.998 106.173 25.4039 105.431 25.8275C104.69 26.2511 104.081 26.6747 103.605 27.0983C103.128 27.5042 102.846 27.9102 102.758 28.3161C102.669 28.722 102.916 29.0927 103.499 29.428C104.099 29.4986 104.823 29.4721 105.67 29.3486C106.535 29.2074 107.408 29.0309 108.291 28.8191C109.191 28.5897 110.056 28.3602 110.885 28.1308C111.715 27.8837 112.394 27.6895 112.924 27.5483L113.241 27.8396C112.853 28.3514 112.218 28.8191 111.335 29.2427C110.453 29.6663 109.5 30.0193 108.476 30.3017C107.452 30.5664 106.455 30.7429 105.484 30.8312C104.514 30.9018 103.746 30.84 103.181 30.6458ZM109.508 20.5327C109.491 20.515 109.358 20.5945 109.111 20.7709C108.864 20.9298 108.555 21.1504 108.185 21.4328C107.832 21.6975 107.443 21.9976 107.02 22.3329C106.614 22.6506 106.234 22.9507 105.882 23.2331C105.546 23.5154 105.264 23.7625 105.034 23.9743C104.805 24.1685 104.708 24.2655 104.743 24.2655C105.026 24.3185 105.387 24.2832 105.829 24.1596C106.287 24.0185 106.755 23.8243 107.232 23.5772C107.726 23.3301 108.194 23.0566 108.635 22.7565C109.076 22.4388 109.42 22.13 109.667 21.8299C109.932 21.5299 110.064 21.2651 110.064 21.0357C110.082 20.8062 109.897 20.6386 109.508 20.5327Z" fill="#0078A3"/>
<path d="M112.738 30.6458C113.462 28.3161 114.115 26.4717 114.697 25.1127C115.298 23.7361 115.792 22.7742 116.18 22.227C116.586 21.6799 116.859 21.5034 117.001 21.6975C117.142 21.8917 117.124 22.3859 116.948 23.1801C116.789 23.9743 116.436 25.0421 115.889 26.3835C115.359 27.7072 114.609 29.225 113.638 30.937C113.497 30.99 113.33 30.9988 113.135 30.9635C112.941 30.9282 112.809 30.8223 112.738 30.6458ZM117.371 17.9117C117.336 17.8235 117.318 17.6646 117.318 17.4352C117.318 17.2058 117.336 17.0646 117.371 17.0116C117.777 16.8704 118.086 16.8528 118.298 16.9587C118.51 17.0646 118.642 17.2234 118.695 17.4352C118.748 17.6293 118.739 17.8411 118.669 18.0706C118.616 18.3 118.519 18.4765 118.377 18.6001C118.236 18.706 118.068 18.7236 117.874 18.653C117.698 18.5648 117.53 18.3177 117.371 17.9117Z" fill="#0078A3"/>
<path d="M118.177 30.6458C118.142 30.6282 118.142 30.4252 118.177 30.0369C118.23 29.631 118.301 29.128 118.389 28.5279C118.477 27.9278 118.592 27.266 118.733 26.5423C118.874 25.8187 119.024 25.1304 119.183 24.4773C119.342 23.8067 119.51 23.2242 119.686 22.73C119.88 22.2182 120.066 21.8652 120.242 21.6711C120.366 21.5475 120.489 21.5475 120.613 21.6711C120.736 21.777 120.86 21.9182 120.983 22.0947C121.107 22.2535 121.231 22.4035 121.354 22.5447C121.478 22.6683 121.61 22.6771 121.751 22.5712C122.245 21.8829 122.784 21.2298 123.366 20.6121C123.966 19.9767 124.628 19.4296 125.352 18.9707C125.422 18.9178 125.616 18.8383 125.934 18.7324C126.252 18.6089 126.614 18.4942 127.02 18.3883C127.426 18.2647 127.84 18.1676 128.264 18.0971C128.705 18.0088 129.076 17.9735 129.376 17.9912C129.693 17.9912 129.905 18.0706 130.011 18.2294C130.135 18.3706 130.082 18.6177 129.852 18.9707C128.793 18.9883 127.805 19.2972 126.887 19.8973C125.969 20.4974 125.122 21.2387 124.346 22.1211C123.569 23.0036 122.863 23.9655 122.228 25.0068C121.592 26.0305 121.036 26.9836 120.56 27.866C120.101 28.7485 119.713 29.481 119.395 30.0634C119.095 30.6458 118.874 30.937 118.733 30.937C118.715 30.937 118.636 30.9018 118.495 30.8312C118.354 30.7429 118.248 30.6811 118.177 30.6458Z" fill="#0078A3"/>
<path d="M127.447 30.3281C127.024 29.9752 126.786 29.4545 126.733 28.7662C126.697 28.0778 126.794 27.3013 127.024 26.4364C127.271 25.5716 127.624 24.6715 128.083 23.7361C128.559 22.783 129.106 21.8829 129.724 21.0357C130.342 20.1709 131.013 19.4031 131.736 18.7324C132.46 18.0441 133.183 17.5411 133.907 17.2234C134.631 16.8881 135.337 16.7733 136.025 16.8792C136.713 16.9675 137.34 17.3646 137.905 18.0706C138.258 18.5118 138.47 18.9619 138.54 19.4208C138.611 19.862 138.602 20.3209 138.514 20.7974C138.425 21.2563 138.284 21.7328 138.09 22.227C137.896 22.7036 137.702 23.1889 137.508 23.6831C137.331 24.1773 137.181 24.6803 137.058 25.1921C136.952 25.704 136.934 26.2246 137.005 26.7541C137.093 27.4248 137.393 27.8219 137.905 27.9455C138.417 28.069 139.025 28.0337 139.731 27.8396C140.455 27.6454 141.214 27.3366 142.008 26.913C142.802 26.4894 143.535 26.0658 144.206 25.6422C144.894 25.2186 145.459 24.848 145.9 24.5303C146.359 24.2126 146.588 24.0538 146.588 24.0538C147.082 23.9479 147.356 23.9832 147.409 24.1596C147.48 24.3185 147.382 24.5656 147.118 24.9009C146.871 25.2186 146.491 25.5893 145.979 26.0128C145.468 26.4188 144.885 26.8159 144.232 27.2042C143.579 27.5925 142.882 27.9455 142.141 28.2632C141.399 28.5808 140.676 28.8015 139.97 28.925C139.264 29.0309 138.593 29.0221 137.958 28.8985C137.34 28.7573 136.828 28.4396 136.422 27.9455C136.228 27.7337 136.078 27.5219 135.972 27.3101C135.884 27.0983 135.734 26.913 135.522 26.7541C135.257 27.0012 134.94 27.3277 134.569 27.7337C134.198 28.122 133.792 28.5191 133.351 28.925C132.928 29.3133 132.469 29.6839 131.974 30.0369C131.498 30.3899 131.004 30.6547 130.492 30.8312C129.98 31.0076 129.459 31.0694 128.93 31.0165C128.418 30.9635 127.924 30.7341 127.447 30.3281ZM127.739 29.428C127.897 29.9928 128.25 30.2575 128.798 30.2222C129.345 30.1693 129.98 29.8957 130.704 29.4015C131.427 28.9074 132.177 28.2367 132.954 27.3895C133.731 26.5247 134.428 25.5716 135.046 24.5303C135.663 23.4713 136.131 22.3594 136.449 21.1945C136.784 20.0297 136.872 18.8825 136.713 17.7529C136.29 17.4175 135.76 17.4087 135.125 17.7264C134.49 18.0265 133.81 18.5295 133.086 19.2354C132.38 19.9238 131.674 20.7533 130.968 21.724C130.28 22.6771 129.671 23.6478 129.142 24.6362C128.612 25.6069 128.206 26.5247 127.924 27.3895C127.659 28.2543 127.597 28.9338 127.739 29.428Z" fill="#0078A3"/>
<path d="M16.2771 44.9496H17.1967C17.2516 45.233 17.4887 45.3747 17.908 45.3747C18.336 45.3747 18.55 45.2721 18.55 45.0668C18.55 44.9945 18.5182 44.9366 18.4545 44.8933C18.3909 44.847 18.2868 44.8137 18.1422 44.7935L17.587 44.7111C17.1591 44.6446 16.8468 44.5332 16.6501 44.3771C16.4564 44.2209 16.3595 44.0069 16.3595 43.7351C16.3595 43.4344 16.4954 43.2002 16.7672 43.0324C17.042 42.8647 17.4193 42.7809 17.8993 42.7809C18.7871 42.7809 19.2845 43.0917 19.3915 43.7134L18.5023 43.8002C18.456 43.673 18.3837 43.5819 18.2854 43.5269C18.1871 43.4691 18.0483 43.4402 17.869 43.4402C17.6781 43.4402 17.5306 43.4633 17.4265 43.5096C17.3253 43.5558 17.2747 43.6224 17.2747 43.7091C17.2747 43.7814 17.3022 43.8363 17.3571 43.8739C17.4121 43.9115 17.5133 43.9419 17.6608 43.965L18.3374 44.0735C18.7394 44.1371 19.03 44.2455 19.2093 44.3988C19.3886 44.5491 19.4782 44.7617 19.4782 45.0364C19.4782 45.366 19.3452 45.6147 19.0791 45.7824C18.8131 45.9502 18.4213 46.034 17.9037 46.034C16.8858 46.034 16.3436 45.6726 16.2771 44.9496Z" fill="#0078A3"/>
<path d="M22.9822 46.034C22.6005 46.034 22.2723 45.969 21.9976 45.8388C21.7229 45.7087 21.5103 45.5222 21.3599 45.2793C21.2125 45.0364 21.1387 44.7458 21.1387 44.4074C21.1387 44.0691 21.2139 43.7785 21.3643 43.5356C21.5147 43.2927 21.7286 43.1062 22.0062 42.9761C22.2838 42.8459 22.6149 42.7809 22.9995 42.7809C23.3812 42.7809 23.7094 42.8459 23.9842 42.9761C24.2589 43.1062 24.47 43.2927 24.6174 43.5356C24.7678 43.7785 24.843 44.0691 24.843 44.4074C24.843 44.7458 24.7678 45.0364 24.6174 45.2793C24.4671 45.5222 24.2531 45.7087 23.9755 45.8388C23.6979 45.969 23.3668 46.034 22.9822 46.034ZM23.8714 44.4074C23.8714 44.1298 23.7933 43.9159 23.6372 43.7655C23.4839 43.6122 23.2685 43.5356 22.9909 43.5356C22.7133 43.5356 22.4964 43.6122 22.3402 43.7655C22.187 43.9188 22.1103 44.1327 22.1103 44.4074C22.1103 44.685 22.187 44.9005 22.3402 45.0537C22.4964 45.2041 22.7133 45.2793 22.9909 45.2793C23.2685 45.2793 23.4839 45.2027 23.6372 45.0494C23.7933 44.8961 23.8714 44.6822 23.8714 44.4074Z" fill="#0078A3"/>
<path d="M26.7088 42.8589H27.6457V45.1969H29.4067L29.3113 45.9559H26.7088V42.8589Z" fill="#0078A3"/>
<path d="M32.0044 44.672C32.0044 44.8802 32.0565 45.0335 32.1606 45.1318C32.2676 45.2301 32.4353 45.2793 32.6637 45.2793C32.8951 45.2793 33.0628 45.2301 33.1669 45.1318C33.2739 45.0335 33.3274 44.8802 33.3274 44.672V42.8589H34.2643V44.5983C34.2643 45.1072 34.1269 45.4745 33.8522 45.7C33.5775 45.9227 33.1813 46.034 32.6637 46.034C32.149 46.034 31.7543 45.9227 31.4796 45.7C31.2049 45.4745 31.0675 45.1072 31.0675 44.5983V42.8589H32.0044V44.672Z" fill="#0078A3"/>
<path d="M39.5032 43.8826L38.5793 43.9824C38.5244 43.8233 38.442 43.7091 38.3321 43.6397C38.2222 43.5703 38.0733 43.5356 37.8853 43.5356C37.628 43.5356 37.427 43.6108 37.2824 43.7612C37.1378 43.9086 37.0655 44.1241 37.0655 44.4074C37.0655 44.6908 37.1378 44.9077 37.2824 45.0581C37.4299 45.2056 37.6366 45.2793 37.9027 45.2793C38.3133 45.2793 38.5547 45.1202 38.627 44.8022H39.5639C39.5264 45.1925 39.3586 45.4962 39.0608 45.713C38.7658 45.927 38.3726 46.034 37.881 46.034C37.4877 46.034 37.1581 45.9646 36.892 45.8258C36.6289 45.687 36.4293 45.4962 36.2934 45.2533C36.1604 45.0075 36.0939 44.7255 36.0939 44.4074C36.0939 44.098 36.1604 43.8204 36.2934 43.5746C36.4293 43.3288 36.6303 43.1351 36.8964 42.9934C37.1624 42.8517 37.4935 42.7809 37.8897 42.7809C38.7832 42.7809 39.321 43.1481 39.5032 43.8826ZM37.6554 45.8605L38.0675 45.9559L37.9851 46.1468C38.1673 46.167 38.3017 46.2104 38.3885 46.2769C38.4752 46.3463 38.5186 46.436 38.5186 46.5459C38.5186 46.6731 38.455 46.7729 38.3277 46.8451C38.2005 46.9174 38.0212 46.9536 37.7899 46.9536C37.5788 46.9536 37.4125 46.9333 37.2911 46.8929V46.5415C37.3634 46.5531 37.427 46.5618 37.4819 46.5675C37.5398 46.5762 37.5947 46.5806 37.6468 46.5806C37.7393 46.5806 37.8058 46.5719 37.8463 46.5545C37.8897 46.5401 37.9113 46.5169 37.9113 46.4851C37.9113 46.4446 37.8853 46.4172 37.8333 46.4027C37.7841 46.3883 37.6988 46.381 37.5774 46.381H37.4255L37.6554 45.8605Z" fill="#0078A3"/>
<path d="M43.0509 46.034C42.6692 46.034 42.341 45.969 42.0663 45.8388C41.7916 45.7087 41.579 45.5222 41.4287 45.2793C41.2812 45.0364 41.2075 44.7458 41.2075 44.4074C41.2075 44.0691 41.2826 43.7785 41.433 43.5356C41.5834 43.2927 41.7974 43.1062 42.075 42.9761C42.3526 42.8459 42.6837 42.7809 43.0683 42.7809C43.45 42.7809 43.7782 42.8459 44.0529 42.9761C44.3276 43.1062 44.5387 43.2927 44.6862 43.5356C44.8365 43.7785 44.9117 44.0691 44.9117 44.4074C44.9117 44.7458 44.8365 45.0364 44.6862 45.2793C44.5358 45.5222 44.3218 45.7087 44.0442 45.8388C43.7666 45.969 43.4355 46.034 43.0509 46.034ZM43.9401 44.4074C43.9401 44.1298 43.862 43.9159 43.7059 43.7655C43.5526 43.6122 43.3372 43.5356 43.0596 43.5356C42.782 43.5356 42.5651 43.6122 42.409 43.7655C42.2557 43.9188 42.1791 44.1327 42.1791 44.4074C42.1791 44.685 42.2557 44.9005 42.409 45.0537C42.5651 45.2041 42.782 45.2793 43.0596 45.2793C43.3372 45.2793 43.5526 45.2027 43.7059 45.0494C43.862 44.8961 43.9401 44.6822 43.9401 44.4074ZM42.0793 42.603C42.0793 42.3457 42.127 42.1606 42.2224 42.0478C42.3179 41.9351 42.461 41.8787 42.6519 41.8787C42.7907 41.8787 42.9555 41.9264 43.1463 42.0218C43.2215 42.0594 43.2794 42.0854 43.3198 42.0999C43.3603 42.1143 43.3965 42.1216 43.4283 42.1216C43.4832 42.1216 43.5194 42.1042 43.5367 42.0695C43.5541 42.0319 43.5627 41.9726 43.5627 41.8917H44.0789C44.0789 42.1404 44.0312 42.324 43.9358 42.4425C43.8403 42.5582 43.6972 42.616 43.5064 42.616C43.3704 42.616 43.21 42.5698 43.0249 42.4772C42.8832 42.4078 42.7849 42.3731 42.7299 42.3731C42.6779 42.3731 42.6417 42.3934 42.6215 42.4339C42.6041 42.4715 42.5955 42.5278 42.5955 42.603H42.0793Z" fill="#0078A3"/>
<path d="M46.7775 42.8589H49.4885V43.5399H47.6927V44.0431H49.4017V44.7241H47.6927V45.275H49.5926L49.5058 45.9559H46.7775V42.8589Z" fill="#0078A3"/>
<path d="M51.1909 44.9496H52.1104C52.1654 45.233 52.4025 45.3747 52.8218 45.3747C53.2498 45.3747 53.4637 45.2721 53.4637 45.0668C53.4637 44.9945 53.4319 44.9366 53.3683 44.8933C53.3047 44.847 53.2006 44.8137 53.056 44.7935L52.5008 44.7111C52.0728 44.6446 51.7605 44.5332 51.5639 44.3771C51.3702 44.2209 51.2733 44.0069 51.2733 43.7351C51.2733 43.4344 51.4092 43.2002 51.681 43.0324C51.9557 42.8647 52.3331 42.7809 52.8131 42.7809C53.7009 42.7809 54.1982 43.0917 54.3052 43.7134L53.416 43.8002C53.3698 43.673 53.2975 43.5819 53.1992 43.5269C53.1008 43.4691 52.962 43.4402 52.7828 43.4402C52.5919 43.4402 52.4444 43.4633 52.3403 43.5096C52.2391 43.5558 52.1885 43.6224 52.1885 43.7091C52.1885 43.7814 52.216 43.8363 52.2709 43.8739C52.3259 43.9115 52.4271 43.9419 52.5746 43.965L53.2512 44.0735C53.6532 44.1371 53.9438 44.2455 54.1231 44.3988C54.3023 44.5491 54.392 44.7617 54.392 45.0364C54.392 45.366 54.259 45.6147 53.9929 45.7824C53.7269 45.9502 53.3351 46.034 52.8175 46.034C51.7996 46.034 51.2574 45.6726 51.1909 44.9496Z" fill="#0078A3"/>
<path d="M58.6701 42.8589H60.21C61.1382 42.8589 61.6023 43.2161 61.6023 43.9303C61.6023 44.2976 61.4823 44.5694 61.2423 44.7458C61.0052 44.9193 60.6437 45.006 60.1579 45.006H59.5767V45.9559H58.6701V42.8589ZM60.1406 44.312C60.3285 44.312 60.4673 44.2831 60.557 44.2253C60.6466 44.1674 60.6914 44.0677 60.6914 43.926C60.6914 43.793 60.6481 43.6975 60.5613 43.6397C60.4746 43.5819 60.3372 43.553 60.1492 43.553H59.5767V44.312H60.1406Z" fill="#0078A3"/>
<path d="M64.0452 42.8589H65.1383L66.4829 45.9559H65.5113L65.2814 45.3921H63.8674L63.6505 45.9559H62.7006L64.0452 42.8589ZM65.0211 44.6981L64.5787 43.566L64.1363 44.6981H65.0211Z" fill="#0078A3"/>
<path d="M68.1771 42.8589H69.769C70.6973 42.8589 71.1614 43.2016 71.1614 43.8869C71.1614 44.1067 71.1151 44.286 71.0226 44.4248C70.93 44.5607 70.7941 44.6691 70.6148 44.7501L71.3739 45.9559H70.3719L69.7603 44.928H69.0533V45.9559H68.1771V42.8589ZM69.7126 44.26C69.9035 44.26 70.0423 44.2325 70.129 44.1776C70.2187 44.1197 70.2635 44.0243 70.2635 43.8913C70.2635 43.7583 70.2216 43.6643 70.1377 43.6093C70.0539 43.5544 69.9151 43.5269 69.7213 43.5269H69.0533V44.26H69.7126Z" fill="#0078A3"/>
<path d="M74.141 42.8589H75.234L76.5787 45.9559H75.6071L75.3772 45.3921H73.9632L73.7463 45.9559H72.7964L74.141 42.8589ZM75.1169 44.6981L74.6745 43.566L74.2321 44.6981H75.1169Z" fill="#0078A3"/>
<path d="M81.7884 42.8589H82.8815L84.2261 45.9559H83.2545L83.0246 45.3921H81.6106L81.3937 45.9559H80.4438L81.7884 42.8589ZM82.7644 44.6981L82.322 43.566L81.8795 44.6981H82.7644Z" fill="#0078A3"/>
<path d="M91.6697 43.8826L90.7458 43.9824C90.6909 43.8233 90.6085 43.7091 90.4986 43.6397C90.3887 43.5703 90.2398 43.5356 90.0518 43.5356C89.7944 43.5356 89.5935 43.6108 89.4489 43.7612C89.3043 43.9086 89.232 44.1241 89.232 44.4074C89.232 44.6908 89.3043 44.9077 89.4489 45.0581C89.5964 45.2056 89.8031 45.2793 90.0692 45.2793C90.4798 45.2793 90.7212 45.1202 90.7935 44.8022H91.7304C91.6928 45.1925 91.5251 45.4962 91.2273 45.713C90.9323 45.927 90.5391 46.034 90.0475 46.034C89.6542 46.034 89.3245 45.9646 89.0585 45.8258C88.7954 45.687 88.5958 45.4962 88.4599 45.2533C88.3269 45.0075 88.2604 44.7255 88.2604 44.4074C88.2604 44.098 88.3269 43.8204 88.4599 43.5746C88.5958 43.3288 88.7968 43.1351 89.0629 42.9934C89.3289 42.8517 89.66 42.7809 90.0561 42.7809C90.9497 42.7809 91.4875 43.1481 91.6697 43.8826Z" fill="#0078A3"/>
<path d="M95.2174 46.034C94.8357 46.034 94.5075 45.969 94.2328 45.8388C93.9581 45.7087 93.7456 45.5222 93.5952 45.2793C93.4477 45.0364 93.374 44.7458 93.374 44.4074C93.374 44.0691 93.4492 43.7785 93.5995 43.5356C93.7499 43.2927 93.9639 43.1062 94.2415 42.9761C94.5191 42.8459 94.8502 42.7809 95.2348 42.7809C95.6165 42.7809 95.9447 42.8459 96.2194 42.9761C96.4941 43.1062 96.7052 43.2927 96.8527 43.5356C97.003 43.7785 97.0782 44.0691 97.0782 44.4074C97.0782 44.7458 97.003 45.0364 96.8527 45.2793C96.7023 45.5222 96.4883 45.7087 96.2107 45.8388C95.9331 45.969 95.602 46.034 95.2174 46.034ZM96.1066 44.4074C96.1066 44.1298 96.0285 43.9159 95.8724 43.7655C95.7191 43.6122 95.5037 43.5356 95.2261 43.5356C94.9485 43.5356 94.7316 43.6122 94.5755 43.7655C94.4222 43.9188 94.3456 44.1327 94.3456 44.4074C94.3456 44.685 94.4222 44.9005 94.5755 45.0537C94.7316 45.2041 94.9485 45.2793 95.2261 45.2793C95.5037 45.2793 95.7191 45.2027 95.8724 45.0494C96.0285 44.8961 96.1066 44.6822 96.1066 44.4074Z" fill="#0078A3"/>
<path d="M98.944 42.8589H100.002L100.935 44.954L101.863 42.8589H102.9V45.9559H102.041V44.1515L101.256 45.9559H100.571L99.7898 44.1602V45.9559H98.944V42.8589Z" fill="#0078A3"/>
<path d="M105.811 44.672C105.811 44.8802 105.863 45.0335 105.967 45.1318C106.074 45.2301 106.242 45.2793 106.47 45.2793C106.702 45.2793 106.87 45.2301 106.974 45.1318C107.081 45.0335 107.134 44.8802 107.134 44.672V42.8589H108.071V44.5983C108.071 45.1072 107.934 45.4745 107.659 45.7C107.384 45.9227 106.988 46.034 106.47 46.034C105.956 46.034 105.561 45.9227 105.286 45.7C105.012 45.4745 104.874 45.1072 104.874 44.5983V42.8589H105.811V44.672Z" fill="#0078A3"/>
<path d="M110.039 42.8589H110.872L112.421 44.7197V42.8589H113.306V45.9559H112.473L110.924 44.0951V45.9559H110.039V42.8589Z" fill="#0078A3"/>
<path d="M115.31 42.8589H116.247V45.9559H115.31V42.8589Z" fill="#0078A3"/>
<path d="M121.521 43.8826L120.597 43.9824C120.542 43.8233 120.46 43.7091 120.35 43.6397C120.24 43.5703 120.091 43.5356 119.903 43.5356C119.646 43.5356 119.445 43.6108 119.3 43.7612C119.155 43.9086 119.083 44.1241 119.083 44.4074C119.083 44.6908 119.155 44.9077 119.3 45.0581C119.447 45.2056 119.654 45.2793 119.92 45.2793C120.331 45.2793 120.572 45.1202 120.645 44.8022H121.582C121.544 45.1925 121.376 45.4962 121.078 45.713C120.783 45.927 120.39 46.034 119.899 46.034C119.505 46.034 119.176 45.9646 118.91 45.8258C118.646 45.687 118.447 45.4962 118.311 45.2533C118.178 45.0075 118.111 44.7255 118.111 44.4074C118.111 44.098 118.178 43.8204 118.311 43.5746C118.447 43.3288 118.648 43.1351 118.914 42.9934C119.18 42.8517 119.511 42.7809 119.907 42.7809C120.801 42.7809 121.339 43.1481 121.521 43.8826Z" fill="#0078A3"/>
<path d="M124.29 42.8589H125.383L126.728 45.9559H125.756L125.527 45.3921H124.113L123.896 45.9559H122.946L124.29 42.8589ZM125.266 44.6981L124.824 43.566L124.381 44.6981H125.266Z" fill="#0078A3"/>
<path d="M131.502 43.8826L130.578 43.9824C130.523 43.8233 130.441 43.7091 130.331 43.6397C130.221 43.5703 130.072 43.5356 129.884 43.5356C129.627 43.5356 129.426 43.6108 129.281 43.7612C129.137 43.9086 129.064 44.1241 129.064 44.4074C129.064 44.6908 129.137 44.9077 129.281 45.0581C129.429 45.2056 129.636 45.2793 129.902 45.2793C130.312 45.2793 130.554 45.1202 130.626 44.8022H131.563C131.525 45.1925 131.358 45.4962 131.06 45.713C130.765 45.927 130.372 46.034 129.88 46.034C129.487 46.034 129.157 45.9646 128.891 45.8258C128.628 45.687 128.428 45.4962 128.292 45.2533C128.159 45.0075 128.093 44.7255 128.093 44.4074C128.093 44.098 128.159 43.8204 128.292 43.5746C128.428 43.3288 128.629 43.1351 128.895 42.9934C129.161 42.8517 129.492 42.7809 129.889 42.7809C130.782 42.7809 131.32 43.1481 131.502 43.8826ZM129.654 45.8605L130.066 45.9559L129.984 46.1468C130.166 46.167 130.301 46.2104 130.387 46.2769C130.474 46.3463 130.518 46.436 130.518 46.5459C130.518 46.6731 130.454 46.7729 130.327 46.8451C130.199 46.9174 130.02 46.9536 129.789 46.9536C129.578 46.9536 129.412 46.9333 129.29 46.8929V46.5415C129.362 46.5531 129.426 46.5618 129.481 46.5675C129.539 46.5762 129.594 46.5806 129.646 46.5806C129.738 46.5806 129.805 46.5719 129.845 46.5545C129.889 46.5401 129.91 46.5169 129.91 46.4851C129.91 46.4446 129.884 46.4172 129.832 46.4027C129.783 46.3883 129.698 46.381 129.576 46.381H129.425L129.654 45.8605Z" fill="#0078A3"/>
<path d="M134.272 42.8589H135.365L136.709 45.9559H135.738L135.508 45.3921H134.094L133.877 45.9559H132.927L134.272 42.8589ZM135.248 44.6981L134.805 43.566L134.363 44.6981H135.248ZM133.838 42.603C133.838 42.3457 133.886 42.1606 133.981 42.0478C134.077 41.9351 134.22 41.8787 134.411 41.8787C134.549 41.8787 134.714 41.9264 134.905 42.0218C134.98 42.0594 135.038 42.0854 135.079 42.0999C135.119 42.1143 135.155 42.1216 135.187 42.1216C135.242 42.1216 135.278 42.1042 135.295 42.0695C135.313 42.0319 135.321 41.9726 135.321 41.8917H135.838C135.838 42.1404 135.79 42.324 135.694 42.4425C135.599 42.5582 135.456 42.616 135.265 42.616C135.129 42.616 134.969 42.5698 134.784 42.4772C134.642 42.4078 134.544 42.3731 134.489 42.3731C134.437 42.3731 134.4 42.3934 134.38 42.4339C134.363 42.4715 134.354 42.5278 134.354 42.603H133.838Z" fill="#0078A3"/>
<path d="M139.918 46.034C139.536 46.034 139.208 45.969 138.933 45.8388C138.658 45.7087 138.446 45.5222 138.296 45.2793C138.148 45.0364 138.074 44.7458 138.074 44.4074C138.074 44.0691 138.149 43.7785 138.3 43.5356C138.45 43.2927 138.664 43.1062 138.942 42.9761C139.219 42.8459 139.551 42.7809 139.935 42.7809C140.317 42.7809 140.645 42.8459 140.92 42.9761C141.194 43.1062 141.406 43.2927 141.553 43.5356C141.703 43.7785 141.779 44.0691 141.779 44.4074C141.779 44.7458 141.703 45.0364 141.553 45.2793C141.403 45.5222 141.189 45.7087 140.911 45.8388C140.633 45.969 140.302 46.034 139.918 46.034ZM140.807 44.4074C140.807 44.1298 140.729 43.9159 140.573 43.7655C140.419 43.6122 140.204 43.5356 139.926 43.5356C139.649 43.5356 139.432 43.6122 139.276 43.7655C139.123 43.9188 139.046 44.1327 139.046 44.4074C139.046 44.685 139.123 44.9005 139.276 45.0537C139.432 45.2041 139.649 45.2793 139.926 45.2793C140.204 45.2793 140.419 45.2027 140.573 45.0494C140.729 44.8961 140.807 44.6822 140.807 44.4074Z" fill="#0078A3"/>
<path d="M51.1512 51.4559C50.7695 51.4559 50.4413 51.3909 50.1666 51.2608C49.8918 51.1306 49.6793 50.9441 49.5289 50.7012C49.3815 50.4583 49.3077 50.1677 49.3077 49.8294C49.3077 49.491 49.3829 49.2004 49.5333 48.9575C49.6836 48.7146 49.8976 48.5281 50.1752 48.398C50.4528 48.2679 50.7839 48.2028 51.1685 48.2028C51.5502 48.2028 51.8784 48.2679 52.1532 48.398C52.4279 48.5281 52.639 48.7146 52.7864 48.9575C52.9368 49.2004 53.012 49.491 53.012 49.8294C53.012 50.1677 52.9368 50.4583 52.7864 50.7012C52.6361 50.9441 52.4221 51.1306 52.1445 51.2608C51.8669 51.3909 51.5358 51.4559 51.1512 51.4559ZM52.0404 49.8294C52.0404 49.5518 51.9623 49.3378 51.8061 49.1874C51.6529 49.0342 51.4375 48.9575 51.1599 48.9575C50.8823 48.9575 50.6654 49.0342 50.5092 49.1874C50.356 49.3407 50.2793 49.5547 50.2793 49.8294C50.2793 50.107 50.356 50.3224 50.5092 50.4757C50.6654 50.626 50.8823 50.7012 51.1599 50.7012C51.4375 50.7012 51.6529 50.6246 51.8061 50.4713C51.9623 50.3181 52.0404 50.1041 52.0404 49.8294Z" fill="#0078A3"/>
<path d="M54.8778 48.2809H56.4696C57.3979 48.2809 57.862 48.6235 57.862 49.3089C57.862 49.5286 57.8157 49.7079 57.7232 49.8467C57.6307 49.9826 57.4947 50.0911 57.3155 50.172L58.0745 51.3779H57.0726L56.461 50.3499H55.7539V51.3779H54.8778V48.2809ZM56.4133 49.6819C56.6041 49.6819 56.7429 49.6544 56.8297 49.5995C56.9193 49.5416 56.9641 49.4462 56.9641 49.3132C56.9641 49.1802 56.9222 49.0862 56.8383 49.0313C56.7545 48.9763 56.6157 48.9488 56.4219 48.9488H55.7539V49.6819H56.4133Z" fill="#0078A3"/>
<path d="M60.8416 48.2809H61.9347L63.2793 51.3779H62.3077L62.0778 50.814H60.6638L60.4469 51.3779H59.497L60.8416 48.2809ZM61.8176 50.12L61.3751 48.9879L60.9327 50.12H61.8176Z" fill="#0078A3"/>
<path d="M64.9736 48.2809H65.9105V50.6188H67.6715L67.5761 51.3779H64.9736V48.2809Z" fill="#0078A3"/>
<path d="M71.9051 48.2809H74.6161V48.9619H72.8204V49.465H74.5293V50.146H72.8204V50.6969H74.7202L74.6334 51.3779H71.9051V48.2809Z" fill="#0078A3"/>
<path d="M79.0316 48.2809H81.7425V48.9619H79.9468V49.465H81.6558V50.146H79.9468V50.6969H81.8466L81.7599 51.3779H79.0316V48.2809Z" fill="#0078A3"/>
<path d="M83.445 50.3716H84.3645C84.4194 50.6549 84.6566 50.7966 85.0759 50.7966C85.5038 50.7966 85.7178 50.694 85.7178 50.4887C85.7178 50.4164 85.686 50.3585 85.6224 50.3152C85.5588 50.2689 85.4547 50.2357 85.3101 50.2154L84.7549 50.133C84.3269 50.0665 84.0146 49.9552 83.818 49.799C83.6242 49.6429 83.5274 49.4289 83.5274 49.157C83.5274 48.8563 83.6633 48.6221 83.9351 48.4544C84.2098 48.2866 84.5872 48.2028 85.0672 48.2028C85.9549 48.2028 86.4523 48.5136 86.5593 49.1354L85.6701 49.2221C85.6238 49.0949 85.5516 49.0038 85.4532 48.9488C85.3549 48.891 85.2161 48.8621 85.0368 48.8621C84.846 48.8621 84.6985 48.8852 84.5944 48.9315C84.4932 48.9778 84.4426 49.0443 84.4426 49.131C84.4426 49.2033 84.4701 49.2583 84.525 49.2959C84.5799 49.3334 84.6811 49.3638 84.8286 49.3869L85.5053 49.4954C85.9072 49.559 86.1978 49.6674 86.3771 49.8207C86.5564 49.9711 86.6461 50.1836 86.6461 50.4583C86.6461 50.788 86.513 51.0366 86.247 51.2044C85.981 51.3721 85.5891 51.4559 85.0715 51.4559C84.0536 51.4559 83.5115 51.0945 83.445 50.3716Z" fill="#0078A3"/>
<path d="M91.7159 49.3045L90.792 49.4043C90.7371 49.2452 90.6546 49.131 90.5448 49.0616C90.4349 48.9922 90.2859 48.9575 90.098 48.9575C89.8406 48.9575 89.6397 49.0327 89.4951 49.1831C89.3505 49.3306 89.2782 49.546 89.2782 49.8294C89.2782 50.1128 89.3505 50.3296 89.4951 50.48C89.6425 50.6275 89.8493 50.7012 90.1153 50.7012C90.526 50.7012 90.7674 50.5422 90.8397 50.2241H91.7766C91.739 50.6145 91.5713 50.9181 91.2735 51.135C90.9785 51.349 90.5852 51.4559 90.0937 51.4559C89.7004 51.4559 89.3707 51.3865 89.1047 51.2477C88.8416 51.1089 88.642 50.9181 88.5061 50.6752C88.3731 50.4294 88.3066 50.1475 88.3066 49.8294C88.3066 49.52 88.3731 49.2424 88.5061 48.9966C88.642 48.7508 88.843 48.557 89.109 48.4153C89.3751 48.2736 89.7062 48.2028 90.1023 48.2028C90.9959 48.2028 91.5337 48.57 91.7159 49.3045Z" fill="#0078A3"/>
<path d="M93.5589 48.2809H95.1508C96.079 48.2809 96.5432 48.6235 96.5432 49.3089C96.5432 49.5286 96.4969 49.7079 96.4044 49.8467C96.3118 49.9826 96.1759 50.0911 95.9966 50.172L96.7557 51.3779H95.7537L95.1421 50.3499H94.4351V51.3779H93.5589V48.2809ZM95.0944 49.6819C95.2853 49.6819 95.4241 49.6544 95.5108 49.5995C95.6005 49.5416 95.6453 49.4462 95.6453 49.3132C95.6453 49.1802 95.6034 49.0862 95.5195 49.0313C95.4356 48.9763 95.2968 48.9488 95.1031 48.9488H94.4351V49.6819H95.0944Z" fill="#0078A3"/>
<path d="M98.448 48.2809H99.3849V51.3779H98.448V48.2809Z" fill="#0078A3"/>
<path d="M102.234 49.0399H101.089V48.2809H104.316V49.0399H103.171V51.3779H102.234V49.0399Z" fill="#0078A3"/>
<path d="M106.577 48.2809H107.67L109.015 51.3779H108.043L107.813 50.814H106.399L106.182 51.3779H105.233L106.577 48.2809ZM107.553 50.12L107.111 48.9879L106.668 50.12H107.553Z" fill="#0078A3"/>
</svg>
