<svg width="158" height="64" viewBox="0 0 158 64" fill="none" xmlns="http://www.w3.org/2000/svg">
<path d="M13.3377 29.9085C12.2606 29.4847 11.519 28.9109 11.1129 28.1869C10.7068 27.463 10.5391 26.6595 10.6097 25.7767C10.698 24.8762 10.9805 23.9227 11.4572 22.9162C11.9516 21.8921 12.552 20.8679 13.2583 19.8438C13.9822 18.8197 14.7768 17.8221 15.642 16.8509C16.5072 15.8798 17.3636 14.9881 18.2112 14.1758C19.0587 13.3636 19.8533 12.6573 20.5949 12.0569C21.3365 11.4566 21.9369 11.0152 22.3959 10.7326C23.0316 10.3442 23.5613 10.1588 23.9851 10.1764C24.4089 10.1764 24.7444 10.3089 24.9916 10.5737C25.2564 10.8209 25.433 11.1741 25.5213 11.6332C25.6272 12.0746 25.6714 12.5514 25.6537 13.0634C25.6537 13.5578 25.6007 14.0611 25.4948 14.5731C25.4065 15.0675 25.2829 15.5001 25.124 15.8709C24.9827 16.2417 24.8238 16.5154 24.6473 16.692C24.4883 16.8686 24.3294 16.8774 24.1705 16.7185C24.1528 16.5772 24.1705 16.3653 24.2235 16.0828C24.2764 15.7826 24.3382 15.4472 24.4089 15.0763C24.4972 14.7055 24.5766 14.3259 24.6473 13.9375C24.7179 13.549 24.762 13.1958 24.7797 12.878C24.815 12.5425 24.8062 12.26 24.7532 12.0305C24.7179 11.8009 24.6208 11.6685 24.4619 11.6332C23.8438 11.4743 23.1022 11.6243 22.237 12.0834C21.3895 12.5249 20.4978 13.1694 19.5619 14.0169C18.6438 14.8468 17.7256 15.818 16.8074 16.9304C15.9069 18.0251 15.0858 19.1552 14.3442 20.3206C13.6026 21.486 12.9934 22.6248 12.5167 23.7373C12.0399 24.832 11.7662 25.8032 11.6956 26.6507C11.6426 27.4806 11.828 28.1251 12.2518 28.5842C12.6933 29.0256 13.4613 29.1669 14.5561 29.008C15.5626 28.8667 16.4896 28.5136 17.3371 27.9485C18.2023 27.3658 19.0322 26.7302 19.8268 26.0415C20.639 25.3352 21.4424 24.6466 22.237 23.9756C23.0316 23.287 23.8615 22.7661 24.7267 22.413C25.0445 22.2894 25.2917 22.3335 25.4683 22.5454C25.6625 22.7573 25.7155 23.0133 25.6272 23.3135C25.5213 23.6137 25.2035 24.0109 24.6737 24.5054C24.1617 24.9998 23.5172 25.5206 22.7403 26.068C21.981 26.5977 21.1423 27.1363 20.2241 27.6837C19.3059 28.2134 18.4054 28.6725 17.5225 29.0609C16.6573 29.4494 15.8451 29.7319 15.0858 29.9085C14.3442 30.0851 13.7615 30.0851 13.3377 29.9085Z" fill="#FF9A2E"/>
<path d="M26.2745 29.9085C26.2392 29.8908 26.2392 29.6878 26.2745 29.2993C26.3275 28.8932 26.3982 28.39 26.4864 27.7896C26.5747 27.1893 26.6895 26.5271 26.8308 25.8032C26.972 25.0792 27.1221 24.3906 27.281 23.7373C27.4399 23.0663 27.6077 22.4836 27.7842 21.9892C27.9785 21.4771 28.1639 21.124 28.3405 20.9297C28.4641 20.8061 28.5877 20.8061 28.7113 20.9297C28.8349 21.0357 28.9585 21.1769 29.0821 21.3535C29.2057 21.5124 29.3293 21.6625 29.4529 21.8038C29.5765 21.9274 29.7089 21.9362 29.8502 21.8303C30.3446 21.1416 30.8831 20.4883 31.4658 19.8703C32.0661 19.2346 32.7283 18.6873 33.4522 18.2282C33.5229 18.1752 33.7171 18.0957 34.0349 17.9898C34.3528 17.8662 34.7147 17.7514 35.1209 17.6455C35.527 17.5219 35.9419 17.4248 36.3657 17.3541C36.8071 17.2659 37.1779 17.2305 37.4781 17.2482C37.7959 17.2482 38.0078 17.3277 38.1138 17.4866C38.2374 17.6278 38.1844 17.875 37.9549 18.2282C36.8954 18.2458 35.9066 18.5548 34.9884 19.1552C34.0703 19.7555 33.2227 20.4971 32.4458 21.38C31.6689 22.2629 30.9626 23.2252 30.3269 24.267C29.6912 25.2911 29.135 26.2446 28.6583 27.1275C28.1992 28.0103 27.8107 28.7431 27.4929 29.3258C27.1927 29.9085 26.972 30.1998 26.8308 30.1998C26.8131 30.1998 26.7336 30.1645 26.5924 30.0939C26.4511 30.0056 26.3452 29.9438 26.2745 29.9085Z" fill="#FF9A2E"/>
<path d="M36.9071 29.9085C37.631 27.5777 38.2843 25.7325 38.867 24.3729C39.4674 22.9957 39.9618 22.0333 40.3503 21.486C40.7564 20.9386 41.0301 20.762 41.1713 20.9562C41.3126 21.1505 41.2949 21.6449 41.1183 22.4394C40.9594 23.234 40.6063 24.3023 40.0589 25.6442C39.5292 26.9685 38.7787 28.4871 37.8076 30.1998C37.6663 30.2528 37.4986 30.2616 37.3044 30.2263C37.1101 30.191 36.9777 30.0851 36.9071 29.9085ZM41.5421 17.1687C41.5068 17.0805 41.4891 16.9215 41.4891 16.692C41.4891 16.4624 41.5068 16.3212 41.5421 16.2682C41.9482 16.127 42.2572 16.1093 42.4691 16.2152C42.681 16.3212 42.8134 16.4801 42.8664 16.692C42.9194 16.8862 42.9106 17.0981 42.8399 17.3277C42.787 17.5572 42.6898 17.7338 42.5486 17.8574C42.4073 17.9633 42.2396 17.981 42.0454 17.9103C41.8688 17.8221 41.701 17.5749 41.5421 17.1687Z" fill="#FF9A2E"/>
<path d="M42.3484 29.9085C42.1365 29.7672 42.1276 29.5818 42.3219 29.3523C42.5338 29.1051 42.8604 28.8491 43.3018 28.5842C43.7609 28.3017 44.2907 28.0103 44.891 27.7102C45.4914 27.41 46.0652 27.1275 46.6126 26.8626C47.1776 26.5977 47.672 26.3682 48.0958 26.174C48.5196 25.9621 48.7933 25.8032 48.9169 25.6972C49.4996 25.2028 49.7997 24.7967 49.8174 24.4789C49.8527 24.1434 49.7115 23.8785 49.3936 23.6843C49.0758 23.4724 48.6255 23.3135 48.0428 23.2075C47.4778 23.0839 46.8863 22.978 46.2683 22.8897C45.6679 22.7838 45.0852 22.6778 44.5202 22.5719C43.9728 22.4659 43.5579 22.3247 43.2754 22.1481C42.9928 21.9715 42.8957 21.742 42.984 21.4595C43.09 21.1593 43.4784 20.7797 44.1494 20.3206C44.3966 20.144 44.7586 19.888 45.2353 19.5525C45.7121 19.217 46.2241 18.8727 46.7715 18.5195C47.3365 18.1664 47.8927 17.8485 48.4401 17.566C48.9875 17.2835 49.4466 17.0981 49.8174 17.0098C50.0116 16.9745 50.2059 16.9922 50.4001 17.0628C50.612 17.1334 50.7797 17.2394 50.9033 17.3806C51.0269 17.5042 51.0799 17.6455 51.0622 17.8044C51.0622 17.9633 50.9475 18.1046 50.7179 18.2282C49.7114 18.7932 48.7403 19.3229 47.8045 19.8173C46.8863 20.3117 45.9593 20.8768 45.0234 21.5124C44.9705 21.6537 44.9793 21.7773 45.0499 21.8832C45.1382 21.9892 45.2353 22.0686 45.3413 22.1216C47.2129 22.3158 48.6167 22.5895 49.5525 22.9427C50.506 23.2958 51.1064 23.6843 51.3536 24.1081C51.6184 24.5318 51.5919 24.9821 51.2741 25.4588C50.9563 25.9356 50.4795 26.4035 49.8439 26.8626C49.2259 27.3217 48.5108 27.7543 47.6985 28.1604C46.8863 28.5665 46.1005 28.9109 45.3413 29.1934C44.5997 29.4759 43.9463 29.6878 43.3813 29.829C42.8163 29.9703 42.472 29.9968 42.3484 29.9085Z" fill="#FF9A2E"/>
<path d="M65.3615 29.9085C64.4786 29.5377 63.8959 29.0256 63.6134 28.3723C63.3309 27.7013 63.2338 26.9862 63.3221 26.2269C63.4103 25.45 63.6222 24.6731 63.9577 23.8962C64.3109 23.1193 64.6728 22.4306 65.0436 21.8303C65.1672 21.6184 65.3968 21.2564 65.7323 20.7443C66.0678 20.2323 66.4209 19.6937 66.7917 19.1287C67.1802 18.546 67.5422 18.0075 67.8776 17.5131C68.2308 17.001 68.478 16.6478 68.6192 16.4536C68.8311 15.094 69.2549 14.0169 69.8906 13.2223C70.5262 12.4101 71.2414 11.8539 72.0359 11.5537C72.8482 11.2535 73.6781 11.1917 74.5256 11.3683C75.3732 11.5272 76.1148 11.9069 76.7504 12.5072C77.3861 13.0899 77.8452 13.8757 78.1277 14.8645C78.4102 15.8533 78.3837 17.0098 78.0482 18.3341C77.7304 19.6584 77.0418 21.1416 75.9823 22.7838C74.9229 24.4259 73.3691 26.2005 71.3208 28.1074C70.9677 28.4429 70.5439 28.7696 70.0495 29.0874C69.5727 29.3876 69.0607 29.6348 68.5133 29.829C67.9836 30.0233 67.445 30.138 66.8977 30.1734C66.3503 30.2087 65.8382 30.1204 65.3615 29.9085ZM64.4345 27.8161C64.611 28.6107 64.9465 29.1051 65.4409 29.2993C65.9353 29.4935 66.518 29.4582 67.189 29.1934C67.86 28.9285 68.5928 28.4782 69.3873 27.8426C70.1819 27.2069 70.9765 26.4653 71.7711 25.6178C72.5657 24.7526 73.3249 23.8167 74.0489 22.8103C74.7728 21.8038 75.3997 20.8061 75.9294 19.8173C76.4768 18.8285 76.8917 17.8839 77.1742 16.9833C77.4567 16.0828 77.545 15.3059 77.4391 14.6526C77.3508 13.9816 77.033 13.4784 76.4856 13.1429C75.9559 12.8074 75.1348 12.7103 74.0224 12.8515C73.6163 13.2047 73.0777 13.7256 72.4067 14.4142C71.7358 15.0852 71.0206 15.8533 70.2614 16.7185C69.5021 17.5837 68.7428 18.5195 67.9836 19.526C67.2243 20.5148 66.5533 21.5036 65.9706 22.4924C65.388 23.4812 64.9465 24.4347 64.6464 25.3529C64.3462 26.2711 64.2756 27.0921 64.4345 27.8161Z" fill="#FF9A2E"/>
<path d="M78.2601 29.9085C77.7481 29.5377 77.4126 29.0698 77.2537 28.5047C77.1124 27.9397 77.0948 27.3305 77.2007 26.6772C77.3066 26.0062 77.492 25.3176 77.7569 24.6113C78.0394 23.905 78.3396 23.2252 78.6574 22.5719C78.9929 21.9186 79.3108 21.3182 79.6109 20.7708C79.9288 20.2235 80.176 19.7732 80.3525 19.42C80.4055 19.3141 80.5291 19.0581 80.7233 18.652C80.9352 18.2458 81.1559 17.8044 81.3855 17.3277C81.615 16.8509 81.8269 16.4095 82.0211 16.0034C82.233 15.5796 82.3655 15.3147 82.4184 15.2088C82.4714 15.1205 82.542 14.9527 82.6303 14.7055C82.7363 14.4407 82.851 14.1582 82.9746 13.858C83.0982 13.5578 83.2307 13.2753 83.3719 13.0104C83.5308 12.7279 83.6898 12.5249 83.8487 12.4013C84.0253 12.2777 84.193 12.26 84.3519 12.3483C84.5285 12.4366 84.6962 12.7014 84.8551 13.1429C84.7845 13.3194 84.6079 13.6726 84.3254 14.2023C84.0606 14.732 83.7427 15.3677 83.3719 16.1093C83.0011 16.8509 82.5862 17.672 82.1271 18.5725C81.6857 19.473 81.2531 20.3824 80.8293 21.3006C80.4055 22.2187 80.0082 23.1193 79.6374 24.0021C79.2666 24.8673 78.9576 25.6619 78.7104 26.3859C78.4809 27.0921 78.3396 27.6837 78.2866 28.1604C78.2513 28.6195 78.3396 28.902 78.5515 29.008C78.7987 29.1316 79.1165 29.1845 79.505 29.1669C79.9111 29.1316 80.326 29.0786 80.7498 29.008C81.1736 28.9373 81.5885 28.8667 81.9947 28.7961C82.4008 28.7078 82.7539 28.6725 83.0541 28.6901C83.1247 28.8491 83.0718 29.008 82.8952 29.1669C82.7186 29.3081 82.4714 29.4406 82.1536 29.5642C81.8357 29.6701 81.4649 29.7672 81.0412 29.8555C80.635 29.9261 80.2378 29.9791 79.8493 30.0144C79.4785 30.0497 79.143 30.0586 78.8428 30.0409C78.5603 30.0233 78.3661 29.9791 78.2601 29.9085Z" fill="#FF9A2E"/>
<path d="M83.9663 29.9085C84.6902 27.5777 85.3436 25.7325 85.9262 24.3729C86.5266 22.9957 87.021 22.0333 87.4095 21.486C87.8156 20.9386 88.0893 20.762 88.2305 20.9562C88.3718 21.1505 88.3541 21.6449 88.1776 22.4394C88.0186 23.234 87.6655 24.3023 87.1181 25.6442C86.5884 26.9685 85.838 28.4871 84.8668 30.1998C84.7255 30.2528 84.5578 30.2616 84.3636 30.2263C84.1693 30.191 84.0369 30.0851 83.9663 29.9085ZM88.6013 17.1687C88.566 17.0805 88.5484 16.9215 88.5484 16.692C88.5484 16.4624 88.566 16.3212 88.6013 16.2682C89.0074 16.127 89.3164 16.1093 89.5283 16.2152C89.7402 16.3212 89.8727 16.4801 89.9256 16.692C89.9786 16.8862 89.9698 17.0981 89.8991 17.3277C89.8462 17.5572 89.749 17.7338 89.6078 17.8574C89.4665 17.9633 89.2988 17.981 89.1046 17.9103C88.928 17.8221 88.7602 17.5749 88.6013 17.1687Z" fill="#FF9A2E"/>
<path d="M90.1492 29.5907C89.7784 29.3788 89.5135 29.0433 89.3546 28.5842C89.1957 28.1251 89.1074 27.6042 89.0897 27.0215C89.0721 26.4388 89.1074 25.8297 89.1957 25.194C89.284 24.5583 89.3899 23.9403 89.5135 23.34C89.6371 22.7396 89.7607 22.2011 89.8843 21.7243C90.0079 21.2476 90.0962 20.8768 90.1492 20.6119C90.2375 20.5589 90.3257 20.5589 90.414 20.6119C90.52 20.6649 90.6171 20.7443 90.7054 20.8503C90.8113 20.9386 90.8908 21.0269 90.9437 21.1151C91.0144 21.1858 91.0497 21.2211 91.0497 21.2211C91.1027 21.8391 91.1027 22.4483 91.0497 23.0486C91.0144 23.6313 90.9614 24.214 90.8908 24.7967C90.8378 25.3794 90.7848 25.9709 90.7319 26.5713C90.6965 27.1716 90.6965 27.7808 90.7319 28.3988C90.8731 28.6637 91.1645 28.6725 91.6059 28.4253C92.0473 28.1604 92.5859 27.7455 93.2215 27.1804C93.8572 26.5977 94.5458 25.9179 95.2875 25.141C96.0467 24.3464 96.7883 23.5607 97.5123 22.7838C98.2539 22.0068 98.9513 21.2829 99.6047 20.6119C100.258 19.9233 100.805 19.4024 101.247 19.0492C101.706 18.6784 102.024 18.5284 102.2 18.599C102.377 18.652 102.35 19.0228 102.121 19.7114C101.697 20.0822 101.194 20.6384 100.611 21.38C100.028 22.1216 99.3928 22.925 98.7041 23.7902C98.0155 24.6378 97.3004 25.4853 96.5588 26.3329C95.8172 27.1804 95.0667 27.9132 94.3075 28.5312C93.5659 29.1316 92.8419 29.5553 92.1356 29.8025C91.4293 30.0321 90.7672 29.9615 90.1492 29.5907Z" fill="#FF9A2E"/>
<path d="M103.192 29.9085C102.662 29.7319 102.256 29.4671 101.974 29.1139C101.709 28.7431 101.532 28.337 101.444 27.8956C101.356 27.4541 101.338 26.995 101.391 26.5183C101.461 26.0239 101.567 25.556 101.709 25.1145C102.238 24.5495 102.83 23.905 103.483 23.1811C104.154 22.4394 104.861 21.7155 105.602 21.0092C106.344 20.3029 107.112 19.6496 107.906 19.0492C108.719 18.4312 109.54 17.9633 110.37 17.6455C110.652 17.5219 110.873 17.5307 111.032 17.672C111.208 17.7956 111.332 17.9986 111.403 18.2812C111.473 18.5637 111.5 18.8903 111.482 19.2611C111.482 19.6319 111.456 19.9939 111.403 20.3471C111.35 20.7002 111.279 21.018 111.191 21.3006C111.102 21.5831 111.014 21.7773 110.926 21.8832C110.714 22.1304 110.299 22.4218 109.681 22.7573C109.081 23.0928 108.41 23.4636 107.668 23.8697C106.926 24.2582 106.185 24.6643 105.443 25.088C104.702 25.5118 104.092 25.9356 103.616 26.3594C103.139 26.7655 102.856 27.1716 102.768 27.5777C102.68 27.9838 102.927 28.3546 103.51 28.6901C104.11 28.7608 104.834 28.7343 105.682 28.6107C106.547 28.4694 107.421 28.2928 108.304 28.081C109.204 27.8514 110.069 27.6219 110.899 27.3923C111.729 27.1451 112.409 26.9509 112.939 26.8096L113.257 27.101C112.868 27.613 112.232 28.081 111.35 28.5047C110.467 28.9285 109.513 29.2817 108.489 29.5642C107.465 29.829 106.467 30.0056 105.496 30.0939C104.525 30.1645 103.757 30.1027 103.192 29.9085ZM109.522 19.7909C109.504 19.7732 109.372 19.8527 109.125 20.0292C108.878 20.1881 108.569 20.4089 108.198 20.6914C107.845 20.9562 107.456 21.2564 107.032 21.5919C106.626 21.9097 106.247 22.2099 105.893 22.4924C105.558 22.7749 105.275 23.0221 105.046 23.234C104.816 23.4283 104.719 23.5254 104.755 23.5254C105.037 23.5783 105.399 23.543 105.841 23.4194C106.3 23.2782 106.768 23.0839 107.244 22.8367C107.739 22.5895 108.207 22.3158 108.648 22.0157C109.089 21.6978 109.434 21.3888 109.681 21.0887C109.946 20.7885 110.078 20.5236 110.078 20.2941C110.096 20.0645 109.911 19.8968 109.522 19.7909Z" fill="#FF9A2E"/>
<path d="M112.753 29.9085C113.477 27.5777 114.131 25.7325 114.713 24.3729C115.314 22.9957 115.808 22.0333 116.197 21.486C116.603 20.9386 116.876 20.762 117.018 20.9562C117.159 21.1505 117.141 21.6449 116.965 22.4394C116.806 23.234 116.453 24.3023 115.905 25.6442C115.375 26.9685 114.625 28.4871 113.654 30.1998C113.513 30.2528 113.345 30.2616 113.151 30.2263C112.956 30.191 112.824 30.0851 112.753 29.9085ZM117.388 17.1687C117.353 17.0805 117.335 16.9215 117.335 16.692C117.335 16.4624 117.353 16.3212 117.388 16.2682C117.795 16.127 118.104 16.1093 118.315 16.2152C118.527 16.3212 118.66 16.4801 118.713 16.692C118.766 16.8862 118.757 17.0981 118.686 17.3277C118.633 17.5572 118.536 17.7338 118.395 17.8574C118.254 17.9633 118.086 17.981 117.892 17.9103C117.715 17.8221 117.547 17.5749 117.388 17.1687Z" fill="#FF9A2E"/>
<path d="M118.195 29.9085C118.159 29.8908 118.159 29.6878 118.195 29.2993C118.248 28.8932 118.318 28.39 118.407 27.7896C118.495 27.1893 118.61 26.5271 118.751 25.8032C118.892 25.0792 119.042 24.3906 119.201 23.7373C119.36 23.0663 119.528 22.4836 119.704 21.9892C119.899 21.4771 120.084 21.124 120.261 20.9297C120.384 20.8061 120.508 20.8061 120.631 20.9297C120.755 21.0357 120.879 21.1769 121.002 21.3535C121.126 21.5124 121.249 21.6625 121.373 21.8038C121.497 21.9274 121.629 21.9362 121.77 21.8303C122.265 21.1416 122.803 20.4883 123.386 19.8703C123.986 19.2346 124.648 18.6873 125.372 18.2282C125.443 18.1752 125.637 18.0957 125.955 17.9898C126.273 17.8662 126.635 17.7514 127.041 17.6455C127.447 17.5219 127.862 17.4248 128.286 17.3541C128.727 17.2659 129.098 17.2305 129.398 17.2482C129.716 17.2482 129.928 17.3277 130.034 17.4866C130.157 17.6278 130.104 17.875 129.875 18.2282C128.815 18.2458 127.827 18.5548 126.909 19.1552C125.99 19.7555 125.143 20.4971 124.366 21.38C123.589 22.2629 122.883 23.2252 122.247 24.267C121.611 25.2911 121.055 26.2446 120.578 27.1275C120.119 28.0103 119.731 28.7431 119.413 29.3258C119.113 29.9085 118.892 30.1998 118.751 30.1998C118.733 30.1998 118.654 30.1645 118.512 30.0939C118.371 30.0056 118.265 29.9438 118.195 29.9085Z" fill="#FF9A2E"/>
<path d="M127.469 29.5907C127.045 29.2375 126.807 28.7166 126.754 28.028C126.719 27.3394 126.816 26.5624 127.045 25.6972C127.292 24.832 127.646 23.9315 128.105 22.9957C128.581 22.0422 129.129 21.1416 129.747 20.2941C130.365 19.4289 131.036 18.6608 131.76 17.9898C132.484 17.3012 133.208 16.7979 133.932 16.4801C134.655 16.1446 135.362 16.0298 136.05 16.1358C136.739 16.2241 137.366 16.6214 137.931 17.3277C138.284 17.7691 138.496 18.2193 138.567 18.6784C138.637 19.1199 138.628 19.579 138.54 20.0557C138.452 20.5148 138.311 20.9915 138.116 21.486C137.922 21.9627 137.728 22.4483 137.534 22.9427C137.357 23.4371 137.207 23.9403 137.083 24.4524C136.977 24.9644 136.96 25.4853 137.03 26.0151C137.119 26.686 137.419 27.0833 137.931 27.2069C138.443 27.3305 139.052 27.2952 139.758 27.101C140.482 26.9067 141.242 26.5977 142.036 26.174C142.831 25.7502 143.564 25.3264 144.235 24.9026C144.923 24.4789 145.488 24.1081 145.93 23.7902C146.389 23.4724 146.618 23.3135 146.618 23.3135C147.113 23.2075 147.386 23.2429 147.439 23.4194C147.51 23.5783 147.413 23.8255 147.148 24.161C146.901 24.4789 146.521 24.8497 146.009 25.2734C145.497 25.6796 144.914 26.0769 144.261 26.4653C143.608 26.8538 142.91 27.2069 142.169 27.5248C141.427 27.8426 140.703 28.0633 139.997 28.1869C139.291 28.2928 138.62 28.284 137.984 28.1604C137.366 28.0192 136.854 27.7013 136.448 27.2069C136.253 26.995 136.103 26.7831 135.997 26.5713C135.909 26.3594 135.759 26.174 135.547 26.0151C135.282 26.2623 134.964 26.5889 134.594 26.995C134.223 27.3835 133.817 27.7808 133.375 28.1869C132.952 28.5754 132.492 28.9462 131.998 29.2993C131.521 29.6525 131.027 29.9173 130.515 30.0939C130.003 30.2705 129.482 30.3323 128.952 30.2793C128.44 30.2263 127.946 29.9968 127.469 29.5907ZM127.76 28.6901C127.919 29.2552 128.272 29.52 128.82 29.4847C129.367 29.4317 130.003 29.1581 130.727 28.6637C131.451 28.1692 132.201 27.4983 132.978 26.6507C133.755 25.7855 134.452 24.832 135.07 23.7902C135.688 22.7308 136.156 21.6184 136.474 20.453C136.81 19.2876 136.898 18.1399 136.739 17.0098C136.315 16.6743 135.786 16.6655 135.15 16.9833C134.514 17.2835 133.834 17.7867 133.11 18.493C132.404 19.1817 131.698 20.0116 130.992 20.9827C130.303 21.9362 129.694 22.9074 129.164 23.8962C128.634 24.8673 128.228 25.7855 127.946 26.6507C127.681 27.5159 127.619 28.1957 127.76 28.6901Z" fill="#FF9A2E"/>
<path d="M23.7693 46.117H24.8147C24.8772 46.4392 25.1467 46.6003 25.6234 46.6003C26.11 46.6003 26.3532 46.4836 26.3532 46.2502C26.3532 46.168 26.3171 46.1022 26.2448 46.0529C26.1724 46.0003 26.0541 45.9625 25.8897 45.9395L25.2585 45.8458C24.772 45.7702 24.4169 45.6436 24.1934 45.4661C23.9731 45.2886 23.863 45.0453 23.863 44.7363C23.863 44.3944 24.0175 44.1281 24.3265 43.9374C24.6388 43.7468 25.0678 43.6514 25.6136 43.6514C26.6228 43.6514 27.1883 44.0048 27.3099 44.7116L26.299 44.8103C26.2464 44.6656 26.1642 44.5621 26.0524 44.4996C25.9407 44.4338 25.7829 44.401 25.579 44.401C25.3621 44.401 25.1944 44.4273 25.0761 44.4799C24.961 44.5325 24.9035 44.6081 24.9035 44.7067C24.9035 44.7889 24.9347 44.8513 24.9972 44.8941C25.0596 44.9368 25.1747 44.9713 25.3423 44.9976L26.1116 45.1209C26.5686 45.1932 26.899 45.3165 27.1028 45.4908C27.3066 45.6617 27.4085 45.9033 27.4085 46.2157C27.4085 46.5904 27.2573 46.8731 26.9548 47.0638C26.6524 47.2545 26.2069 47.3498 25.6185 47.3498C24.4613 47.3498 23.8449 46.9389 23.7693 46.117Z" fill="#FF9A2E"/>
<path d="M31.3921 47.3498C30.9581 47.3498 30.585 47.2759 30.2727 47.1279C29.9604 46.98 29.7188 46.7679 29.5478 46.4918C29.3802 46.2157 29.2963 45.8853 29.2963 45.5006C29.2963 45.116 29.3818 44.7856 29.5527 44.5095C29.7237 44.2333 29.967 44.0213 30.2826 43.8733C30.5982 43.7254 30.9746 43.6514 31.4118 43.6514C31.8458 43.6514 32.2189 43.7254 32.5312 43.8733C32.8435 44.0213 33.0835 44.2333 33.2511 44.5095C33.4221 44.7856 33.5076 45.116 33.5076 45.5006C33.5076 45.8853 33.4221 46.2157 33.2511 46.4918C33.0802 46.7679 32.8369 46.98 32.5213 47.1279C32.2057 47.2759 31.8293 47.3498 31.3921 47.3498ZM32.403 45.5006C32.403 45.185 32.3142 44.9418 32.1367 44.7708C31.9625 44.5966 31.7175 44.5095 31.4019 44.5095C31.0863 44.5095 30.8398 44.5966 30.6623 44.7708C30.488 44.945 30.4009 45.1883 30.4009 45.5006C30.4009 45.8162 30.488 46.0611 30.6623 46.2354C30.8398 46.4063 31.0863 46.4918 31.4019 46.4918C31.7175 46.4918 31.9625 46.4047 32.1367 46.2304C32.3142 46.0562 32.403 45.8129 32.403 45.5006Z" fill="#FF9A2E"/>
<path d="M35.6287 43.7402H36.6939V46.3981H38.6959L38.5874 47.2611H35.6287V43.7402Z" fill="#FF9A2E"/>
<path d="M41.6492 45.8014C41.6492 46.0381 41.7084 46.2124 41.8267 46.3241C41.9483 46.4359 42.139 46.4918 42.3987 46.4918C42.6617 46.4918 42.8524 46.4359 42.9707 46.3241C43.0924 46.2124 43.1532 46.0381 43.1532 45.8014V43.7402H44.2183V45.7176C44.2183 46.2962 44.0622 46.7137 43.7499 46.9701C43.4376 47.2233 42.9872 47.3498 42.3987 47.3498C41.8136 47.3498 41.3648 47.2233 41.0525 46.9701C40.7402 46.7137 40.584 46.2962 40.584 45.7176V43.7402H41.6492V45.8014Z" fill="#FF9A2E"/>
<path d="M50.1743 44.9039L49.124 45.0174C49.0615 44.8366 48.9678 44.7067 48.8429 44.6278C48.718 44.5489 48.5487 44.5095 48.335 44.5095C48.0424 44.5095 47.8139 44.5949 47.6495 44.7659C47.4852 44.9335 47.403 45.1785 47.403 45.5006C47.403 45.8228 47.4852 46.0694 47.6495 46.2403C47.8172 46.408 48.0522 46.4918 48.3547 46.4918C48.8215 46.4918 49.096 46.311 49.1782 45.9494H50.2433C50.2006 46.3932 50.0099 46.7384 49.6713 46.9849C49.336 47.2282 48.8889 47.3498 48.33 47.3498C47.8829 47.3498 47.5082 47.2709 47.2057 47.1131C46.9066 46.9553 46.6797 46.7384 46.5252 46.4622C46.374 46.1828 46.2984 45.8622 46.2984 45.5006C46.2984 45.1489 46.374 44.8333 46.5252 44.5538C46.6797 44.2744 46.9082 44.0541 47.2107 43.8931C47.5131 43.732 47.8895 43.6514 48.3399 43.6514C49.3557 43.6514 49.9672 44.0689 50.1743 44.9039ZM48.0736 47.1526L48.5421 47.2611L48.4484 47.478C48.6555 47.5011 48.8084 47.5504 48.907 47.626C49.0056 47.7049 49.0549 47.8068 49.0549 47.9317C49.0549 48.0764 48.9826 48.1898 48.838 48.272C48.6933 48.3541 48.4895 48.3952 48.2265 48.3952C47.9865 48.3952 47.7975 48.3722 47.6594 48.3262V47.9268C47.7416 47.9399 47.8139 47.9498 47.8764 47.9564C47.9421 47.9662 48.0046 47.9712 48.0638 47.9712C48.169 47.9712 48.2446 47.9613 48.2906 47.9416C48.3399 47.9251 48.3646 47.8988 48.3646 47.8627C48.3646 47.8166 48.335 47.7854 48.2758 47.769C48.2199 47.7525 48.1229 47.7443 47.9849 47.7443H47.8123L48.0736 47.1526Z" fill="#FF9A2E"/>
<path d="M54.2076 47.3498C53.7736 47.3498 53.4005 47.2759 53.0882 47.1279C52.7759 46.98 52.5343 46.7679 52.3633 46.4918C52.1956 46.2157 52.1118 45.8853 52.1118 45.5006C52.1118 45.116 52.1973 44.7856 52.3682 44.5095C52.5392 44.2333 52.7825 44.0213 53.0981 43.8733C53.4137 43.7254 53.7901 43.6514 54.2273 43.6514C54.6612 43.6514 55.0344 43.7254 55.3467 43.8733C55.659 44.0213 55.899 44.2333 56.0666 44.5095C56.2376 44.7856 56.3231 45.116 56.3231 45.5006C56.3231 45.8853 56.2376 46.2157 56.0666 46.4918C55.8957 46.7679 55.6524 46.98 55.3368 47.1279C55.0212 47.2759 54.6448 47.3498 54.2076 47.3498ZM55.2185 45.5006C55.2185 45.185 55.1297 44.9418 54.9522 44.7708C54.778 44.5966 54.533 44.5095 54.2174 44.5095C53.9018 44.5095 53.6553 44.5966 53.4778 44.7708C53.3035 44.945 53.2164 45.1883 53.2164 45.5006C53.2164 45.8162 53.3035 46.0611 53.4778 46.2354C53.6553 46.4063 53.9018 46.4918 54.2174 46.4918C54.533 46.4918 54.778 46.4047 54.9522 46.2304C55.1297 46.0562 55.2185 45.8129 55.2185 45.5006ZM53.103 43.4492C53.103 43.1567 53.1572 42.9463 53.2657 42.818C53.3742 42.6898 53.5369 42.6257 53.7539 42.6257C53.9117 42.6257 54.0991 42.68 54.3161 42.7885C54.4015 42.8312 54.4673 42.8608 54.5133 42.8772C54.5593 42.8937 54.6004 42.9019 54.6366 42.9019C54.6991 42.9019 54.7401 42.8822 54.7599 42.8427C54.7796 42.8 54.7895 42.7326 54.7895 42.6405H55.3763C55.3763 42.9232 55.322 43.132 55.2135 43.2668C55.1051 43.3983 54.9423 43.464 54.7254 43.464C54.5708 43.464 54.3884 43.4114 54.178 43.3062C54.0169 43.2273 53.9051 43.1879 53.8427 43.1879C53.7835 43.1879 53.7424 43.2109 53.7194 43.2569C53.6997 43.2997 53.6898 43.3638 53.6898 43.4492H53.103Z" fill="#FF9A2E"/>
<path d="M58.4442 43.7402H61.5262V44.5144H59.4847V45.0864H61.4276V45.8606H59.4847V46.4869H61.6446L61.5459 47.2611H58.4442V43.7402Z" fill="#FF9A2E"/>
<path d="M63.4616 46.117H64.5071C64.5695 46.4392 64.8391 46.6003 65.3158 46.6003C65.8023 46.6003 66.0456 46.4836 66.0456 46.2502C66.0456 46.168 66.0094 46.1022 65.9371 46.0529C65.8648 46.0003 65.7464 45.9625 65.5821 45.9395L64.9509 45.8458C64.4643 45.7702 64.1093 45.6436 63.8857 45.4661C63.6655 45.2886 63.5553 45.0453 63.5553 44.7363C63.5553 44.3944 63.7098 44.1281 64.0189 43.9374C64.3312 43.7468 64.7602 43.6514 65.3059 43.6514C66.3152 43.6514 66.8806 44.0048 67.0022 44.7116L65.9913 44.8103C65.9387 44.6656 65.8566 44.5621 65.7448 44.4996C65.633 44.4338 65.4752 44.401 65.2714 44.401C65.0544 44.401 64.8868 44.4273 64.7684 44.4799C64.6533 44.5325 64.5958 44.6081 64.5958 44.7067C64.5958 44.7889 64.627 44.8513 64.6895 44.8941C64.752 44.9368 64.867 44.9713 65.0347 44.9976L65.804 45.1209C66.2609 45.1932 66.5913 45.3165 66.7951 45.4908C66.999 45.6617 67.1009 45.9033 67.1009 46.2157C67.1009 46.5904 66.9496 46.8731 66.6472 47.0638C66.3447 47.2545 65.8993 47.3498 65.3108 47.3498C64.1537 47.3498 63.5373 46.9389 63.4616 46.117Z" fill="#FF9A2E"/>
<path d="M71.9646 43.7402H75.0466V44.5144H73.0051V45.0864H74.948V45.8606H73.0051V46.4869H75.1649L75.0663 47.2611H71.9646V43.7402Z" fill="#FF9A2E"/>
<path d="M77.2483 43.7402H78.915C79.6251 43.7402 80.161 43.8898 80.5226 44.1889C80.8842 44.4848 81.065 44.922 81.065 45.5006C81.065 46.0595 80.876 46.4934 80.4979 46.8025C80.1199 47.1082 79.5775 47.2611 78.8706 47.2611H77.2483V43.7402ZM78.8953 46.4178C79.6218 46.4178 79.9851 46.1105 79.9851 45.4957C79.9851 44.8875 79.635 44.5834 78.9348 44.5834H78.2986V46.4178H78.8953Z" fill="#FF9A2E"/>
<path d="M84.2174 45.8014C84.2174 46.0381 84.2766 46.2124 84.3949 46.3241C84.5166 46.4359 84.7073 46.4918 84.967 46.4918C85.23 46.4918 85.4206 46.4359 85.539 46.3241C85.6606 46.2124 85.7214 46.0381 85.7214 45.8014V43.7402H86.7866V45.7176C86.7866 46.2962 86.6304 46.7137 86.3181 46.9701C86.0058 47.2233 85.5554 47.3498 84.967 47.3498C84.3818 47.3498 83.9331 47.2233 83.6208 46.9701C83.3084 46.7137 83.1523 46.2962 83.1523 45.7176V43.7402H84.2174V45.8014Z" fill="#FF9A2E"/>
<path d="M92.7426 44.9039L91.6922 45.0174C91.6297 44.8366 91.536 44.7067 91.4111 44.6278C91.2862 44.5489 91.1169 44.5095 90.9032 44.5095C90.6106 44.5095 90.3821 44.5949 90.2178 44.7659C90.0534 44.9335 89.9712 45.1785 89.9712 45.5006C89.9712 45.8228 90.0534 46.0694 90.2178 46.2403C90.3854 46.408 90.6205 46.4918 90.9229 46.4918C91.3898 46.4918 91.6643 46.311 91.7465 45.9494H92.8116C92.7689 46.3932 92.5782 46.7384 92.2396 46.9849C91.9043 47.2282 91.4572 47.3498 90.8983 47.3498C90.4512 47.3498 90.0764 47.2709 89.774 47.1131C89.4748 46.9553 89.248 46.7384 89.0935 46.4622C88.9422 46.1828 88.8666 45.8622 88.8666 45.5006C88.8666 45.1489 88.9422 44.8333 89.0935 44.5538C89.248 44.2744 89.4765 44.0541 89.7789 43.8931C90.0814 43.732 90.4578 43.6514 90.9081 43.6514C91.924 43.6514 92.5354 44.0689 92.7426 44.9039Z" fill="#FF9A2E"/>
<path d="M95.8912 43.7402H97.1339L98.6625 47.2611H97.558L97.2966 46.62H95.689L95.4425 47.2611H94.3625L95.8912 43.7402ZM97.0007 45.831L96.4977 44.544L95.9948 45.831H97.0007Z" fill="#FF9A2E"/>
<path d="M104.09 44.9039L103.04 45.0174C102.977 44.8366 102.884 44.7067 102.759 44.6278C102.634 44.5489 102.464 44.5095 102.251 44.5095C101.958 44.5095 101.73 44.5949 101.565 44.7659C101.401 44.9335 101.319 45.1785 101.319 45.5006C101.319 45.8228 101.401 46.0694 101.565 46.2403C101.733 46.408 101.968 46.4918 102.27 46.4918C102.737 46.4918 103.012 46.311 103.094 45.9494H104.159C104.116 46.3932 103.926 46.7384 103.587 46.9849C103.252 47.2282 102.805 47.3498 102.246 47.3498C101.799 47.3498 101.424 47.2709 101.122 47.1131C100.822 46.9553 100.596 46.7384 100.441 46.4622C100.29 46.1828 100.214 45.8622 100.214 45.5006C100.214 45.1489 100.29 44.8333 100.441 44.5538C100.596 44.2744 100.824 44.0541 101.126 43.8931C101.429 43.732 101.805 43.6514 102.256 43.6514C103.272 43.6514 103.883 44.0689 104.09 44.9039Z" fill="#FF9A2E"/>
<path d="M106.185 43.7402H107.251V47.2611H106.185V43.7402Z" fill="#FF9A2E"/>
<path d="M111.466 47.3498C111.032 47.3498 110.659 47.2759 110.347 47.1279C110.035 46.98 109.793 46.7679 109.622 46.4918C109.454 46.2157 109.371 45.8853 109.371 45.5006C109.371 45.116 109.456 44.7856 109.627 44.5095C109.798 44.2333 110.041 44.0213 110.357 43.8733C110.672 43.7254 111.049 43.6514 111.486 43.6514C111.92 43.6514 112.293 43.7254 112.605 43.8733C112.918 44.0213 113.158 44.2333 113.325 44.5095C113.496 44.7856 113.582 45.116 113.582 45.5006C113.582 45.8853 113.496 46.2157 113.325 46.4918C113.154 46.7679 112.911 46.98 112.596 47.1279C112.28 47.2759 111.904 47.3498 111.466 47.3498ZM112.477 45.5006C112.477 45.185 112.389 44.9418 112.211 44.7708C112.037 44.5966 111.792 44.5095 111.476 44.5095C111.161 44.5095 110.914 44.5966 110.737 44.7708C110.562 44.945 110.475 45.1883 110.475 45.5006C110.475 45.8162 110.562 46.0611 110.737 46.2354C110.914 46.4063 111.161 46.4918 111.476 46.4918C111.792 46.4918 112.037 46.4047 112.211 46.2304C112.389 46.0562 112.477 45.8129 112.477 45.5006Z" fill="#FF9A2E"/>
<path d="M115.703 43.7402H116.65L118.41 45.8557V43.7402H119.416V47.2611H118.469L116.709 45.1456V47.2611H115.703V43.7402Z" fill="#FF9A2E"/>
<path d="M122.873 43.7402H124.116L125.645 47.2611H124.54L124.279 46.62H122.671L122.424 47.2611H121.345L122.873 43.7402ZM123.983 45.831L123.48 44.544L122.977 45.831H123.983Z" fill="#FF9A2E"/>
<path d="M127.571 43.7402H128.636V47.2611H127.571V43.7402Z" fill="#FF9A2E"/>
<path d="M130.647 46.117H131.693C131.755 46.4392 132.025 46.6003 132.502 46.6003C132.988 46.6003 133.231 46.4836 133.231 46.2502C133.231 46.168 133.195 46.1022 133.123 46.0529C133.051 46.0003 132.932 45.9625 132.768 45.9395L132.137 45.8458C131.65 45.7702 131.295 45.6436 131.071 45.4661C130.851 45.2886 130.741 45.0453 130.741 44.7363C130.741 44.3944 130.896 44.1281 131.205 43.9374C131.517 43.7468 131.946 43.6514 132.492 43.6514C133.501 43.6514 134.066 44.0048 134.188 44.7116L133.177 44.8103C133.124 44.6656 133.042 44.5621 132.931 44.4996C132.819 44.4338 132.661 44.401 132.457 44.401C132.24 44.401 132.072 44.4273 131.954 44.4799C131.839 44.5325 131.782 44.6081 131.782 44.7067C131.782 44.7889 131.813 44.8513 131.875 44.8941C131.938 44.9368 132.053 44.9713 132.22 44.9976L132.99 45.1209C133.447 45.1932 133.777 45.3165 133.981 45.4908C134.185 45.6617 134.287 45.9033 134.287 46.2157C134.287 46.5904 134.135 46.8731 133.833 47.0638C133.53 47.2545 133.085 47.3498 132.497 47.3498C131.339 47.3498 130.723 46.9389 130.647 46.117Z" fill="#FF9A2E"/>
<path d="M41.2274 49.9042H44.3094V50.6784H42.2679V51.2504H44.2108V52.0246H42.2679V52.6509H44.4277L44.3291 53.4251H41.2274V49.9042Z" fill="#FF9A2E"/>
<path d="M49.3292 49.9042H51.0798C52.135 49.9042 52.6627 50.3102 52.6627 51.1222C52.6627 51.5397 52.5263 51.8487 52.2534 52.0493C51.9838 52.2465 51.5729 52.3451 51.0206 52.3451H50.3598V53.4251H49.3292V49.9042ZM51.0009 51.5561C51.2146 51.5561 51.3724 51.5233 51.4743 51.4575C51.5762 51.3918 51.6271 51.2784 51.6271 51.1173C51.6271 50.966 51.5778 50.8576 51.4792 50.7918C51.3806 50.7261 51.2244 50.6932 51.0107 50.6932H50.3598V51.5561H51.0009Z" fill="#FF9A2E"/>
<path d="M55.4399 49.9042H56.6826L58.2113 53.4251H57.1067L56.8453 52.784H55.2377L54.9912 53.4251H53.9112L55.4399 49.9042ZM56.5494 51.995L56.0465 50.708L55.5435 51.995H56.5494Z" fill="#FF9A2E"/>
<path d="M60.1374 49.9042H61.9471C63.0024 49.9042 63.5301 50.2938 63.5301 51.0729C63.5301 51.3227 63.4775 51.5266 63.3723 51.6844C63.2671 51.8389 63.1125 51.9621 62.9087 52.0542L63.7717 53.4251H62.6326L61.9373 52.2564H61.1335V53.4251H60.1374V49.9042ZM61.883 51.497C62.1 51.497 62.2578 51.4657 62.3564 51.4033C62.4583 51.3375 62.5093 51.229 62.5093 51.0778C62.5093 50.9266 62.4616 50.8198 62.3663 50.7573C62.271 50.6948 62.1132 50.6636 61.8929 50.6636H61.1335V51.497H61.883Z" fill="#FF9A2E"/>
<path d="M66.9175 49.9042H68.1602L69.6888 53.4251H68.5842L68.3229 52.784H66.7153L66.4687 53.4251H65.3888L66.9175 49.9042ZM68.027 51.995L67.524 50.708L67.021 51.995H68.027Z" fill="#FF9A2E"/>
<path d="M75.6116 49.9042H76.8543L78.383 53.4251H77.2784L77.017 52.784H75.4094L75.1629 53.4251H74.083L75.6116 49.9042ZM76.7211 51.995L76.2182 50.708L75.7152 51.995H76.7211Z" fill="#FF9A2E"/>
<path d="M83.1272 49.9042H86.2092V50.6784H84.1677V51.2504H86.1106V52.0246H84.1677V52.6509H86.3276L86.2289 53.4251H83.1272V49.9042Z" fill="#FF9A2E"/>
<path d="M88.1446 52.281H89.19C89.2525 52.6032 89.5221 52.7643 89.9988 52.7643C90.4853 52.7643 90.7286 52.6476 90.7286 52.4142C90.7286 52.332 90.6924 52.2662 90.6201 52.2169C90.5478 52.1643 90.4294 52.1265 90.265 52.1035L89.6339 52.0098C89.1473 51.9342 88.7923 51.8076 88.5687 51.6301C88.3484 51.4526 88.2383 51.2093 88.2383 50.9003C88.2383 50.5584 88.3928 50.2921 88.7019 50.1014C89.0142 49.9108 89.4432 49.8154 89.9889 49.8154C90.9982 49.8154 91.5636 50.1688 91.6852 50.8756L90.6743 50.9743C90.6217 50.8296 90.5396 50.7261 90.4278 50.6636C90.316 50.5978 90.1582 50.565 89.9544 50.565C89.7374 50.565 89.5697 50.5913 89.4514 50.6439C89.3363 50.6965 89.2788 50.7721 89.2788 50.8707C89.2788 50.9529 89.31 51.0154 89.3725 51.0581C89.435 51.1008 89.55 51.1353 89.7177 51.1616L90.487 51.2849C90.9439 51.3573 91.2743 51.4805 91.4781 51.6548C91.6819 51.8257 91.7839 52.0673 91.7839 52.3797C91.7839 52.7544 91.6326 53.0372 91.3302 53.2278C91.0277 53.4185 90.5823 53.5138 89.9938 53.5138C88.8366 53.5138 88.2202 53.1029 88.1446 52.281Z" fill="#FF9A2E"/>
<path d="M97.5476 51.068L96.4972 51.1814C96.4348 51.0006 96.3411 50.8707 96.2162 50.7918C96.0912 50.7129 95.9219 50.6735 95.7083 50.6735C95.4157 50.6735 95.1872 50.7589 95.0228 50.9299C94.8584 51.0975 94.7763 51.3425 94.7763 51.6646C94.7763 51.9868 94.8584 52.2334 95.0228 52.4043C95.1905 52.572 95.4255 52.6558 95.728 52.6558C96.1948 52.6558 96.4693 52.475 96.5515 52.1134H97.6166C97.5739 52.5572 97.3832 52.9024 97.0446 53.1489C96.7093 53.3922 96.2622 53.5138 95.7033 53.5138C95.2562 53.5138 94.8815 53.4349 94.579 53.2771C94.2798 53.1193 94.053 52.9024 93.8985 52.6262C93.7473 52.3468 93.6717 52.0263 93.6717 51.6646C93.6717 51.3129 93.7473 50.9973 93.8985 50.7178C94.053 50.4384 94.2815 50.2181 94.5839 50.0571C94.8864 49.896 95.2628 49.8154 95.7132 49.8154C96.729 49.8154 97.3405 50.2329 97.5476 51.068Z" fill="#FF9A2E"/>
<path d="M99.6429 49.9042H101.453C102.508 49.9042 103.036 50.2938 103.036 51.0729C103.036 51.3227 102.983 51.5266 102.878 51.6844C102.773 51.8389 102.618 51.9621 102.414 52.0542L103.277 53.4251H102.138L101.443 52.2564H100.639V53.4251H99.6429V49.9042ZM101.389 51.497C101.606 51.497 101.763 51.4657 101.862 51.4033C101.964 51.3375 102.015 51.229 102.015 51.0778C102.015 50.9266 101.967 50.8198 101.872 50.7573C101.776 50.6948 101.619 50.6636 101.398 50.6636H100.639V51.497H101.389Z" fill="#FF9A2E"/>
<path d="M105.201 49.9042H106.266V53.4251H105.201V49.9042Z" fill="#FF9A2E"/>
<path d="M109.506 50.7672H108.204V49.9042H111.873V50.7672H110.571V53.4251H109.506V50.7672Z" fill="#FF9A2E"/>
<path d="M114.443 49.9042H115.686L117.214 53.4251H116.11L115.848 52.784H114.241L113.994 53.4251H112.914L114.443 49.9042ZM115.552 51.995L115.049 50.708L114.546 51.995H115.552Z" fill="#FF9A2E"/>
</svg>
