<svg width="158" height="58" viewBox="0 0 158 58" fill="none" xmlns="http://www.w3.org/2000/svg">
<path d="M13.3377 29.9855C12.2606 29.5617 11.519 28.9879 11.1129 28.2639C10.7068 27.54 10.5391 26.7366 10.6097 25.8537C10.698 24.9532 10.9805 23.9997 11.4572 22.9932C11.9516 21.9691 12.552 20.945 13.2583 19.9208C13.9822 18.8967 14.7768 17.8991 15.642 16.9279C16.5072 15.9568 17.3636 15.0651 18.2112 14.2529C19.0587 13.4406 19.8533 12.7343 20.5949 12.134C21.3365 11.5336 21.9369 11.0922 22.3959 10.8097C23.0316 10.4212 23.5613 10.2358 23.9851 10.2535C24.4089 10.2535 24.7444 10.3859 24.9916 10.6508C25.2564 10.898 25.433 11.2511 25.5213 11.7102C25.6272 12.1516 25.6714 12.6284 25.6537 13.1404C25.6537 13.6348 25.6007 14.1381 25.4948 14.6501C25.4065 15.1445 25.2829 15.5772 25.124 15.948C24.9827 16.3188 24.8238 16.5924 24.6473 16.769C24.4883 16.9456 24.3294 16.9544 24.1705 16.7955C24.1528 16.6542 24.1705 16.4424 24.2235 16.1598C24.2764 15.8597 24.3382 15.5242 24.4089 15.1534C24.4972 14.7826 24.5766 14.4029 24.6473 14.0145C24.7179 13.626 24.762 13.2729 24.7797 12.955C24.815 12.6196 24.8062 12.337 24.7532 12.1075C24.7179 11.8779 24.6208 11.7455 24.4619 11.7102C23.8438 11.5513 23.1022 11.7014 22.237 12.1605C21.3895 12.6019 20.4978 13.2464 19.5619 14.0939C18.6438 14.9238 17.7256 15.895 16.8074 17.0074C15.9069 18.1021 15.0858 19.2322 14.3442 20.3976C13.6026 21.563 12.9934 22.7019 12.5167 23.8143C12.0399 24.909 11.7662 25.8802 11.6956 26.7277C11.6426 27.5576 11.828 28.2021 12.2518 28.6612C12.6933 29.1027 13.4613 29.2439 14.5561 29.085C15.5626 28.9437 16.4896 28.5906 17.3371 28.0256C18.2023 27.4429 19.0322 26.8072 19.8268 26.1186C20.639 25.4123 21.4424 24.7236 22.237 24.0527C23.0316 23.364 23.8615 22.8431 24.7267 22.49C25.0445 22.3664 25.2917 22.4105 25.4683 22.6224C25.6625 22.8343 25.7155 23.0903 25.6272 23.3905C25.5213 23.6907 25.2035 24.088 24.6737 24.5824C24.1617 25.0768 23.5172 25.5977 22.7403 26.1451C21.981 26.6748 21.1423 27.2133 20.2241 27.7607C19.3059 28.2904 18.4054 28.7495 17.5225 29.138C16.6573 29.5264 15.8451 29.8089 15.0858 29.9855C14.3442 30.1621 13.7615 30.1621 13.3377 29.9855Z" fill="#010101"/>
<path d="M26.2745 29.9855C26.2392 29.9679 26.2392 29.7648 26.2745 29.3763C26.3275 28.9702 26.3982 28.467 26.4864 27.8666C26.5747 27.2663 26.6895 26.6041 26.8308 25.8802C26.972 25.1562 27.1221 24.4676 27.281 23.8143C27.4399 23.1433 27.6077 22.5606 27.7842 22.0662C27.9785 21.5542 28.1639 21.201 28.3405 21.0068C28.4641 20.8832 28.5877 20.8832 28.7113 21.0068C28.8349 21.1127 28.9585 21.254 29.0821 21.4305C29.2057 21.5895 29.3293 21.7396 29.4529 21.8808C29.5765 22.0044 29.7089 22.0132 29.8502 21.9073C30.3446 21.2187 30.8831 20.5653 31.4658 19.9473C32.0661 19.3117 32.7283 18.7643 33.4522 18.3052C33.5229 18.2522 33.7171 18.1728 34.0349 18.0668C34.3528 17.9432 34.7147 17.8285 35.1209 17.7225C35.527 17.5989 35.9419 17.5018 36.3657 17.4312C36.8071 17.3429 37.1779 17.3076 37.4781 17.3252C37.7959 17.3252 38.0078 17.4047 38.1138 17.5636C38.2374 17.7049 38.1844 17.9521 37.9549 18.3052C36.8954 18.3229 35.9066 18.6319 34.9884 19.2322C34.0703 19.8326 33.2227 20.5742 32.4458 21.457C31.6689 22.3399 30.9626 23.3022 30.3269 24.344C29.6912 25.3681 29.135 26.3216 28.6583 27.2045C28.1992 28.0874 27.8107 28.8201 27.4929 29.4028C27.1927 29.9855 26.972 30.2769 26.8308 30.2769C26.8131 30.2769 26.7336 30.2415 26.5924 30.1709C26.4511 30.0826 26.3452 30.0208 26.2745 29.9855Z" fill="#010101"/>
<path d="M36.9071 29.9855C37.631 27.6548 38.2843 25.8096 38.867 24.4499C39.4674 23.0727 39.9618 22.1104 40.3503 21.563C40.7564 21.0156 41.0301 20.839 41.1713 21.0333C41.3126 21.2275 41.2949 21.7219 41.1183 22.5165C40.9594 23.3111 40.6063 24.3793 40.0589 25.7213C39.5292 27.0456 38.7787 28.5641 37.8076 30.2769C37.6663 30.3298 37.4986 30.3387 37.3044 30.3034C37.1101 30.268 36.9777 30.1621 36.9071 29.9855ZM41.5421 17.2458C41.5068 17.1575 41.4891 16.9986 41.4891 16.769C41.4891 16.5395 41.5068 16.3982 41.5421 16.3452C41.9482 16.204 42.2572 16.1863 42.4691 16.2923C42.681 16.3982 42.8134 16.5571 42.8664 16.769C42.9194 16.9632 42.9106 17.1751 42.8399 17.4047C42.787 17.6342 42.6898 17.8108 42.5486 17.9344C42.4073 18.0403 42.2396 18.058 42.0454 17.9874C41.8688 17.8991 41.701 17.6519 41.5421 17.2458Z" fill="#010101"/>
<path d="M42.3484 29.9855C42.1365 29.8443 42.1276 29.6589 42.3219 29.4293C42.5338 29.1821 42.8604 28.9261 43.3018 28.6612C43.7609 28.3787 44.2907 28.0874 44.891 27.7872C45.4914 27.487 46.0652 27.2045 46.6126 26.9396C47.1776 26.6748 47.672 26.4452 48.0958 26.251C48.5196 26.0391 48.7933 25.8802 48.9169 25.7742C49.4996 25.2798 49.7997 24.8737 49.8174 24.5559C49.8527 24.2204 49.7115 23.9555 49.3936 23.7613C49.0758 23.5494 48.6255 23.3905 48.0428 23.2846C47.4778 23.161 46.8863 23.055 46.2683 22.9667C45.6679 22.8608 45.0852 22.7548 44.5202 22.6489C43.9728 22.543 43.5579 22.4017 43.2754 22.2251C42.9928 22.0486 42.8957 21.819 42.984 21.5365C43.09 21.2363 43.4784 20.8567 44.1494 20.3976C44.3966 20.221 44.7586 19.965 45.2353 19.6295C45.7121 19.294 46.2241 18.9497 46.7715 18.5966C47.3365 18.2434 47.8927 17.9256 48.4401 17.6431C48.9875 17.3605 49.4466 17.1751 49.8174 17.0869C50.0116 17.0515 50.2059 17.0692 50.4001 17.1398C50.612 17.2105 50.7797 17.3164 50.9033 17.4577C51.0269 17.5813 51.0799 17.7225 51.0622 17.8814C51.0622 18.0403 50.9475 18.1816 50.7179 18.3052C49.7114 18.8702 48.7403 19.4 47.8045 19.8944C46.8863 20.3888 45.9593 20.9538 45.0234 21.5895C44.9705 21.7307 44.9793 21.8543 45.0499 21.9603C45.1382 22.0662 45.2353 22.1457 45.3413 22.1986C47.2129 22.3929 48.6167 22.6666 49.5525 23.0197C50.506 23.3729 51.1064 23.7613 51.3536 24.1851C51.6184 24.6089 51.5919 25.0591 51.2741 25.5359C50.9563 26.0126 50.4795 26.4805 49.8439 26.9396C49.2259 27.3987 48.5108 27.8313 47.6985 28.2374C46.8863 28.6436 46.1005 28.9879 45.3413 29.2704C44.5997 29.5529 43.9463 29.7648 43.3813 29.9061C42.8163 30.0473 42.472 30.0738 42.3484 29.9855Z" fill="#010101"/>
<path d="M65.3615 29.9855C64.4786 29.6147 63.8959 29.1027 63.6134 28.4493C63.3309 27.7784 63.2338 27.0632 63.3221 26.304C63.4103 25.527 63.6222 24.7501 63.9577 23.9732C64.3109 23.1963 64.6728 22.5076 65.0436 21.9073C65.1672 21.6954 65.3968 21.3334 65.7323 20.8214C66.0678 20.3093 66.4209 19.7708 66.7917 19.2057C67.1802 18.623 67.5422 18.0845 67.8776 17.5901C68.2308 17.078 68.478 16.7249 68.6192 16.5306C68.8311 15.171 69.2549 14.0939 69.8906 13.2994C70.5262 12.4871 71.2414 11.9309 72.0359 11.6307C72.8482 11.3306 73.6781 11.2688 74.5256 11.4453C75.3732 11.6043 76.1148 11.9839 76.7504 12.5842C77.3861 13.1669 77.8452 13.9527 78.1277 14.9415C78.4102 15.9303 78.3837 17.0869 78.0482 18.4111C77.7304 19.7354 77.0418 21.2187 75.9823 22.8608C74.9229 24.5029 73.3691 26.2775 71.3208 28.1845C70.9677 28.52 70.5439 28.8466 70.0495 29.1645C69.5727 29.4646 69.0607 29.7118 68.5133 29.9061C67.9836 30.1003 67.445 30.2151 66.8977 30.2504C66.3503 30.2857 65.8382 30.1974 65.3615 29.9855ZM64.4345 27.8931C64.611 28.6877 64.9465 29.1821 65.4409 29.3763C65.9353 29.5706 66.518 29.5353 67.189 29.2704C67.86 29.0055 68.5928 28.5553 69.3873 27.9196C70.1819 27.2839 70.9765 26.5423 71.7711 25.6948C72.5657 24.8296 73.3249 23.8937 74.0489 22.8873C74.7728 21.8808 75.3997 20.8832 75.9294 19.8944C76.4768 18.9056 76.8917 17.9609 77.1742 17.0604C77.4567 16.1598 77.545 15.3829 77.4391 14.7296C77.3508 14.0586 77.033 13.5554 76.4856 13.2199C75.9559 12.8844 75.1348 12.7873 74.0224 12.9286C73.6163 13.2817 73.0777 13.8026 72.4067 14.4912C71.7358 15.1622 71.0206 15.9303 70.2614 16.7955C69.5021 17.6607 68.7428 18.5966 67.9836 19.603C67.2243 20.5918 66.5533 21.5806 65.9706 22.5694C65.388 23.5583 64.9465 24.5118 64.6464 25.4299C64.3462 26.3481 64.2756 27.1692 64.4345 27.8931Z" fill="#010101"/>
<path d="M78.2601 29.9855C77.7481 29.6147 77.4126 29.1468 77.2537 28.5818C77.1124 28.0167 77.0948 27.4075 77.2007 26.7542C77.3066 26.0833 77.492 25.3946 77.7569 24.6883C78.0394 23.982 78.3396 23.3022 78.6574 22.6489C78.9929 21.9956 79.3108 21.3952 79.6109 20.8479C79.9288 20.3005 80.176 19.8502 80.3525 19.4971C80.4055 19.3911 80.5291 19.1351 80.7233 18.729C80.9352 18.3229 81.1559 17.8814 81.3855 17.4047C81.615 16.9279 81.8269 16.4865 82.0211 16.0804C82.233 15.6566 82.3655 15.3917 82.4184 15.2858C82.4714 15.1975 82.542 15.0298 82.6303 14.7826C82.7363 14.5177 82.851 14.2352 82.9746 13.935C83.0982 13.6348 83.2307 13.3523 83.3719 13.0875C83.5308 12.805 83.6898 12.6019 83.8487 12.4783C84.0253 12.3547 84.193 12.337 84.3519 12.4253C84.5285 12.5136 84.6962 12.7785 84.8551 13.2199C84.7845 13.3965 84.6079 13.7496 84.3254 14.2793C84.0606 14.8091 83.7427 15.4447 83.3719 16.1863C83.0011 16.9279 82.5862 17.749 82.1271 18.6495C81.6857 19.55 81.2531 20.4594 80.8293 21.3776C80.4055 22.2958 80.0082 23.1963 79.6374 24.0791C79.2666 24.9444 78.9576 25.7389 78.7104 26.4629C78.4809 27.1692 78.3396 27.7607 78.2866 28.2374C78.2513 28.6965 78.3396 28.979 78.5515 29.085C78.7987 29.2086 79.1165 29.2616 79.505 29.2439C79.9111 29.2086 80.326 29.1556 80.7498 29.085C81.1736 29.0144 81.5885 28.9437 81.9947 28.8731C82.4008 28.7848 82.7539 28.7495 83.0541 28.7672C83.1247 28.9261 83.0718 29.085 82.8952 29.2439C82.7186 29.3852 82.4714 29.5176 82.1536 29.6412C81.8357 29.7471 81.4649 29.8443 81.0412 29.9325C80.635 30.0032 80.2378 30.0561 79.8493 30.0915C79.4785 30.1268 79.143 30.1356 78.8428 30.1179C78.5603 30.1003 78.3661 30.0561 78.2601 29.9855Z" fill="#010101"/>
<path d="M83.9663 29.9855C84.6902 27.6548 85.3436 25.8096 85.9262 24.4499C86.5266 23.0727 87.021 22.1104 87.4095 21.563C87.8156 21.0156 88.0893 20.839 88.2305 21.0333C88.3718 21.2275 88.3541 21.7219 88.1776 22.5165C88.0186 23.3111 87.6655 24.3793 87.1181 25.7213C86.5884 27.0456 85.838 28.5641 84.8668 30.2769C84.7255 30.3298 84.5578 30.3387 84.3636 30.3034C84.1693 30.268 84.0369 30.1621 83.9663 29.9855ZM88.6013 17.2458C88.566 17.1575 88.5484 16.9986 88.5484 16.769C88.5484 16.5395 88.566 16.3982 88.6013 16.3452C89.0074 16.204 89.3164 16.1863 89.5283 16.2923C89.7402 16.3982 89.8727 16.5571 89.9256 16.769C89.9786 16.9632 89.9698 17.1751 89.8991 17.4047C89.8462 17.6342 89.749 17.8108 89.6078 17.9344C89.4665 18.0403 89.2988 18.058 89.1046 17.9874C88.928 17.8991 88.7602 17.6519 88.6013 17.2458Z" fill="#010101"/>
<path d="M90.1492 29.6677C89.7784 29.4558 89.5135 29.1203 89.3546 28.6612C89.1957 28.2021 89.1074 27.6812 89.0897 27.0985C89.0721 26.5159 89.1074 25.9067 89.1957 25.271C89.284 24.6354 89.3899 24.0173 89.5135 23.417C89.6371 22.8166 89.7607 22.2781 89.8843 21.8014C90.0079 21.3246 90.0962 20.9538 90.1492 20.6889C90.2375 20.636 90.3257 20.636 90.414 20.6889C90.52 20.7419 90.6171 20.8214 90.7054 20.9273C90.8113 21.0156 90.8908 21.1039 90.9437 21.1922C91.0144 21.2628 91.0497 21.2981 91.0497 21.2981C91.1027 21.9161 91.1027 22.5253 91.0497 23.1257C91.0144 23.7083 90.9614 24.291 90.8908 24.8737C90.8378 25.4564 90.7848 26.0479 90.7319 26.6483C90.6965 27.2486 90.6965 27.8578 90.7319 28.4758C90.8731 28.7407 91.1645 28.7495 91.6059 28.5023C92.0473 28.2374 92.5859 27.8225 93.2215 27.2575C93.8572 26.6748 94.5458 25.995 95.2875 25.218C96.0467 24.4235 96.7883 23.6377 97.5123 22.8608C98.2539 22.0839 98.9513 21.3599 99.6047 20.6889C100.258 20.0003 100.805 19.4794 101.247 19.1263C101.706 18.7555 102.024 18.6054 102.2 18.676C102.377 18.729 102.35 19.0998 102.121 19.7884C101.697 20.1592 101.194 20.7154 100.611 21.457C100.028 22.1986 99.3928 23.002 98.7041 23.8673C98.0155 24.7148 97.3004 25.5624 96.5588 26.4099C95.8172 27.2575 95.0667 27.9902 94.3075 28.6082C93.5659 29.2086 92.8419 29.6324 92.1356 29.8796C91.4293 30.1091 90.7672 30.0385 90.1492 29.6677Z" fill="#010101"/>
<path d="M103.192 29.9855C102.662 29.8089 102.256 29.5441 101.974 29.1909C101.709 28.8201 101.532 28.414 101.444 27.9726C101.356 27.5312 101.338 27.0721 101.391 26.5953C101.461 26.1009 101.567 25.633 101.709 25.1916C102.238 24.6265 102.83 23.982 103.483 23.2581C104.154 22.5165 104.861 21.7925 105.602 21.0862C106.344 20.3799 107.112 19.7266 107.906 19.1263C108.719 18.5083 109.54 18.0403 110.37 17.7225C110.652 17.5989 110.873 17.6077 111.032 17.749C111.208 17.8726 111.332 18.0757 111.403 18.3582C111.473 18.6407 111.5 18.9674 111.482 19.3382C111.482 19.709 111.456 20.0709 111.403 20.4241C111.35 20.7772 111.279 21.0951 111.191 21.3776C111.102 21.6601 111.014 21.8543 110.926 21.9603C110.714 22.2075 110.299 22.4988 109.681 22.8343C109.081 23.1698 108.41 23.5406 107.668 23.9467C106.926 24.3352 106.185 24.7413 105.443 25.1651C104.702 25.5888 104.092 26.0126 103.616 26.4364C103.139 26.8425 102.856 27.2486 102.768 27.6548C102.68 28.0609 102.927 28.4317 103.51 28.7672C104.11 28.8378 104.834 28.8113 105.682 28.6877C106.547 28.5464 107.421 28.3699 108.304 28.158C109.204 27.9284 110.069 27.6989 110.899 27.4693C111.729 27.2221 112.409 27.0279 112.939 26.8867L113.257 27.178C112.868 27.6901 112.232 28.158 111.35 28.5818C110.467 29.0055 109.513 29.3587 108.489 29.6412C107.465 29.9061 106.467 30.0826 105.496 30.1709C104.525 30.2415 103.757 30.1797 103.192 29.9855ZM109.522 19.8679C109.504 19.8502 109.372 19.9297 109.125 20.1063C108.878 20.2652 108.569 20.4859 108.198 20.7684C107.845 21.0333 107.456 21.3334 107.032 21.6689C106.626 21.9868 106.247 22.2869 105.893 22.5694C105.558 22.852 105.275 23.0992 105.046 23.3111C104.816 23.5053 104.719 23.6024 104.755 23.6024C105.037 23.6554 105.399 23.6201 105.841 23.4965C106.3 23.3552 106.768 23.161 107.244 22.9138C107.739 22.6666 108.207 22.3929 108.648 22.0927C109.089 21.7749 109.434 21.4659 109.681 21.1657C109.946 20.8655 110.078 20.6007 110.078 20.3711C110.096 20.1416 109.911 19.9738 109.522 19.8679Z" fill="#010101"/>
<path d="M112.753 29.9855C113.477 27.6548 114.131 25.8096 114.713 24.4499C115.314 23.0727 115.808 22.1104 116.197 21.563C116.603 21.0156 116.876 20.839 117.018 21.0333C117.159 21.2275 117.141 21.7219 116.965 22.5165C116.806 23.3111 116.453 24.3793 115.905 25.7213C115.375 27.0456 114.625 28.5641 113.654 30.2769C113.513 30.3298 113.345 30.3387 113.151 30.3034C112.956 30.268 112.824 30.1621 112.753 29.9855ZM117.388 17.2458C117.353 17.1575 117.335 16.9986 117.335 16.769C117.335 16.5395 117.353 16.3982 117.388 16.3452C117.795 16.204 118.104 16.1863 118.315 16.2923C118.527 16.3982 118.66 16.5571 118.713 16.769C118.766 16.9632 118.757 17.1751 118.686 17.4047C118.633 17.6342 118.536 17.8108 118.395 17.9344C118.254 18.0403 118.086 18.058 117.892 17.9874C117.715 17.8991 117.547 17.6519 117.388 17.2458Z" fill="#010101"/>
<path d="M118.195 29.9855C118.159 29.9679 118.159 29.7648 118.195 29.3763C118.248 28.9702 118.318 28.467 118.407 27.8666C118.495 27.2663 118.61 26.6041 118.751 25.8802C118.892 25.1562 119.042 24.4676 119.201 23.8143C119.36 23.1433 119.528 22.5606 119.704 22.0662C119.899 21.5542 120.084 21.201 120.261 21.0068C120.384 20.8832 120.508 20.8832 120.631 21.0068C120.755 21.1127 120.879 21.254 121.002 21.4305C121.126 21.5895 121.249 21.7396 121.373 21.8808C121.497 22.0044 121.629 22.0132 121.77 21.9073C122.265 21.2187 122.803 20.5653 123.386 19.9473C123.986 19.3117 124.648 18.7643 125.372 18.3052C125.443 18.2522 125.637 18.1728 125.955 18.0668C126.273 17.9432 126.635 17.8285 127.041 17.7225C127.447 17.5989 127.862 17.5018 128.286 17.4312C128.727 17.3429 129.098 17.3076 129.398 17.3252C129.716 17.3252 129.928 17.4047 130.034 17.5636C130.157 17.7049 130.104 17.9521 129.875 18.3052C128.815 18.3229 127.827 18.6319 126.909 19.2322C125.99 19.8326 125.143 20.5742 124.366 21.457C123.589 22.3399 122.883 23.3022 122.247 24.344C121.611 25.3681 121.055 26.3216 120.578 27.2045C120.119 28.0874 119.731 28.8201 119.413 29.4028C119.113 29.9855 118.892 30.2769 118.751 30.2769C118.733 30.2769 118.654 30.2415 118.512 30.1709C118.371 30.0826 118.265 30.0208 118.195 29.9855Z" fill="#010101"/>
<path d="M127.469 29.6677C127.045 29.3145 126.807 28.7936 126.754 28.105C126.719 27.4164 126.816 26.6395 127.045 25.7742C127.292 24.909 127.646 24.0085 128.105 23.0727C128.581 22.1192 129.129 21.2187 129.747 20.3711C130.365 19.5059 131.036 18.7378 131.76 18.0668C132.484 17.3782 133.208 16.875 133.932 16.5571C134.655 16.2216 135.362 16.1069 136.05 16.2128C136.739 16.3011 137.366 16.6984 137.931 17.4047C138.284 17.8461 138.496 18.2964 138.567 18.7555C138.637 19.1969 138.628 19.656 138.54 20.1327C138.452 20.5918 138.311 21.0686 138.116 21.563C137.922 22.0397 137.728 22.5253 137.534 23.0197C137.357 23.5141 137.207 24.0173 137.083 24.5294C136.977 25.0415 136.96 25.5624 137.03 26.0921C137.119 26.7631 137.419 27.1603 137.931 27.2839C138.443 27.4075 139.052 27.3722 139.758 27.178C140.482 26.9838 141.242 26.6748 142.036 26.251C142.831 25.8272 143.564 25.4034 144.235 24.9797C144.923 24.5559 145.488 24.1851 145.93 23.8673C146.389 23.5494 146.618 23.3905 146.618 23.3905C147.113 23.2846 147.386 23.3199 147.439 23.4965C147.51 23.6554 147.413 23.9026 147.148 24.2381C146.901 24.5559 146.521 24.9267 146.009 25.3505C145.497 25.7566 144.914 26.1539 144.261 26.5423C143.608 26.9308 142.91 27.2839 142.169 27.6018C141.427 27.9196 140.703 28.1403 139.997 28.2639C139.291 28.3699 138.62 28.361 137.984 28.2374C137.366 28.0962 136.854 27.7784 136.448 27.2839C136.253 27.0721 136.103 26.8602 135.997 26.6483C135.909 26.4364 135.759 26.251 135.547 26.0921C135.282 26.3393 134.964 26.6659 134.594 27.0721C134.223 27.4605 133.817 27.8578 133.375 28.2639C132.952 28.6524 132.492 29.0232 131.998 29.3763C131.521 29.7295 131.027 29.9943 130.515 30.1709C130.003 30.3475 129.482 30.4093 128.952 30.3563C128.44 30.3034 127.946 30.0738 127.469 29.6677ZM127.76 28.7672C127.919 29.3322 128.272 29.5971 128.82 29.5617C129.367 29.5088 130.003 29.2351 130.727 28.7407C131.451 28.2463 132.201 27.5753 132.978 26.7277C133.755 25.8625 134.452 24.909 135.07 23.8673C135.688 22.8078 136.156 21.6954 136.474 20.53C136.81 19.3646 136.898 18.2169 136.739 17.0869C136.315 16.7514 135.786 16.7425 135.15 17.0604C134.514 17.3605 133.834 17.8638 133.11 18.5701C132.404 19.2587 131.698 20.0886 130.992 21.0597C130.303 22.0132 129.694 22.9844 129.164 23.9732C128.634 24.9444 128.228 25.8625 127.946 26.7277C127.681 27.593 127.619 28.2728 127.76 28.7672Z" fill="#010101"/>
<path d="M36.2214 43.9893H34.4614V42.8226H39.4214V43.9893H37.6614V47.5826H36.2214V43.9893Z" fill="#010101"/>
<path d="M43.4253 45.6093C43.4253 45.9293 43.5053 46.1649 43.6653 46.316C43.8297 46.4671 44.0875 46.5426 44.4386 46.5426C44.7942 46.5426 45.0519 46.4671 45.2119 46.316C45.3764 46.1649 45.4586 45.9293 45.4586 45.6093V42.8226H46.8986V45.496C46.8986 46.2782 46.6875 46.8426 46.2653 47.1893C45.8431 47.5315 45.2342 47.7026 44.4386 47.7026C43.6475 47.7026 43.0408 47.5315 42.6186 47.1893C42.1964 46.8426 41.9853 46.2782 41.9853 45.496V42.8226H43.4253V45.6093Z" fill="#010101"/>
<path d="M49.924 42.8226H52.1774C53.1374 42.8226 53.8618 43.0249 54.3507 43.4293C54.8396 43.8293 55.084 44.4204 55.084 45.2026C55.084 45.9582 54.8285 46.5449 54.3174 46.9626C53.8062 47.376 53.0729 47.5826 52.1174 47.5826H49.924V42.8226ZM52.1507 46.4426C53.1329 46.4426 53.624 46.0271 53.624 45.196C53.624 44.3737 53.1507 43.9626 52.204 43.9626H51.344V46.4426H52.1507Z" fill="#010101"/>
<path d="M60.5792 47.7026C59.9925 47.7026 59.4881 47.6026 59.0659 47.4026C58.6436 47.2026 58.317 46.916 58.0859 46.5426C57.8592 46.1693 57.7459 45.7226 57.7459 45.2026C57.7459 44.6826 57.8614 44.236 58.0925 43.8626C58.3236 43.4893 58.6525 43.2026 59.0792 43.0026C59.5059 42.8026 60.0147 42.7026 60.6059 42.7026C61.1925 42.7026 61.697 42.8026 62.1192 43.0026C62.5414 43.2026 62.8659 43.4893 63.0925 43.8626C63.3236 44.236 63.4392 44.6826 63.4392 45.2026C63.4392 45.7226 63.3236 46.1693 63.0925 46.5426C62.8614 46.916 62.5325 47.2026 62.1059 47.4026C61.6792 47.6026 61.1703 47.7026 60.5792 47.7026ZM61.9459 45.2026C61.9459 44.776 61.8259 44.4471 61.5859 44.216C61.3503 43.9804 61.0192 43.8626 60.5925 43.8626C60.1659 43.8626 59.8325 43.9804 59.5925 44.216C59.357 44.4515 59.2392 44.7804 59.2392 45.2026C59.2392 45.6293 59.357 45.9604 59.5925 46.196C59.8325 46.4271 60.1659 46.5426 60.5925 46.5426C61.0192 46.5426 61.3503 46.4249 61.5859 46.1893C61.8259 45.9537 61.9459 45.6249 61.9459 45.2026Z" fill="#010101"/>
<path d="M70.1167 42.8226H72.3701C73.3301 42.8226 74.0545 43.0249 74.5434 43.4293C75.0323 43.8293 75.2767 44.4204 75.2767 45.2026C75.2767 45.9582 75.0212 46.5449 74.5101 46.9626C73.999 47.376 73.2656 47.5826 72.3101 47.5826H70.1167V42.8226ZM72.3434 46.4426C73.3256 46.4426 73.8167 46.0271 73.8167 45.196C73.8167 44.3737 73.3434 43.9626 72.3967 43.9626H71.5367V46.4426H72.3434Z" fill="#010101"/>
<path d="M78.1519 42.8226H82.3186V43.8693H79.5586V44.6426H82.1852V45.6893H79.5586V46.536H82.4786L82.3452 47.5826H78.1519V42.8226Z" fill="#010101"/>
<path d="M90.405 43.9893H88.645V42.8226H93.605V43.9893H91.845V47.5826H90.405V43.9893Z" fill="#010101"/>
<path d="M96.2222 42.8226H100.389V43.8693H97.6289V44.6426H100.256V45.6893H97.6289V46.536H100.549L100.416 47.5826H96.2222V42.8226Z" fill="#010101"/>
<path d="M108.605 47.5826H106.919L105.705 45.9893L104.492 47.5826H102.892L104.825 45.1093L103.039 42.8226H104.725L105.725 44.2093L106.779 42.8226H108.379L106.612 45.0626L108.605 47.5826Z" fill="#010101"/>
<path d="M112.512 43.9893H110.752V42.8226H115.712V43.9893H113.952V47.5826H112.512V43.9893Z" fill="#010101"/>
<path d="M120.734 47.7026C120.147 47.7026 119.643 47.6026 119.221 47.4026C118.799 47.2026 118.472 46.916 118.241 46.5426C118.014 46.1693 117.901 45.7226 117.901 45.2026C117.901 44.6826 118.016 44.236 118.247 43.8626C118.479 43.4893 118.807 43.2026 119.234 43.0026C119.661 42.8026 120.17 42.7026 120.761 42.7026C121.347 42.7026 121.852 42.8026 122.274 43.0026C122.696 43.2026 123.021 43.4893 123.247 43.8626C123.479 44.236 123.594 44.6826 123.594 45.2026C123.594 45.7226 123.479 46.1693 123.247 46.5426C123.016 46.916 122.687 47.2026 122.261 47.4026C121.834 47.6026 121.325 47.7026 120.734 47.7026ZM122.101 45.2026C122.101 44.776 121.981 44.4471 121.741 44.216C121.505 43.9804 121.174 43.8626 120.747 43.8626C120.321 43.8626 119.987 43.9804 119.747 44.216C119.512 44.4515 119.394 44.7804 119.394 45.2026C119.394 45.6293 119.512 45.9604 119.747 46.196C119.987 46.4271 120.321 46.5426 120.747 46.5426C121.174 46.5426 121.505 46.4249 121.741 46.1893C121.981 45.9537 122.101 45.6249 122.101 45.2026Z" fill="#010101"/>
</svg>
