<svg width="158" height="59" viewBox="0 0 158 59" fill="none" xmlns="http://www.w3.org/2000/svg">
<path d="M13.2267 30.4692C12.1477 30.0447 11.4049 29.4699 10.9981 28.7447C10.5913 28.0195 10.4232 27.2148 10.494 26.3304C10.5824 25.4284 10.8654 24.4733 11.343 23.4651C11.8382 22.4392 12.4396 21.4134 13.1471 20.3875C13.8722 19.3617 14.6682 18.3623 15.5348 17.3895C16.4015 16.4167 17.2593 15.5235 18.1083 14.7099C18.9573 13.8963 19.7532 13.1888 20.4961 12.5875C21.2389 11.9861 21.8403 11.5439 22.3002 11.2609C22.9369 10.8718 23.4675 10.6861 23.892 10.7038C24.3165 10.7038 24.6526 10.8364 24.9002 11.1018C25.1655 11.3494 25.3424 11.7031 25.4308 12.163C25.5369 12.6052 25.5811 13.0827 25.5635 13.5956C25.5635 14.0909 25.5104 14.595 25.4043 15.1079C25.3158 15.6031 25.192 16.0365 25.0328 16.4079C24.8913 16.7793 24.7322 17.0535 24.5553 17.2304C24.3961 17.4072 24.2369 17.4161 24.0777 17.2569C24.0601 17.1154 24.0777 16.9031 24.1308 16.6201C24.1839 16.3195 24.2458 15.9834 24.3165 15.612C24.405 15.2405 24.4845 14.8603 24.5553 14.4712C24.626 14.082 24.6703 13.7283 24.6879 13.4099C24.7233 13.0739 24.7145 12.7909 24.6614 12.5609C24.626 12.331 24.5288 12.1984 24.3696 12.163C23.7505 12.0038 23.0077 12.1541 22.141 12.614C21.292 13.0562 20.3988 13.7018 19.4614 14.5507C18.5417 15.382 17.6219 16.3548 16.7022 17.4691C15.8001 18.5657 14.9777 19.6977 14.2348 20.8651C13.492 22.0324 12.8818 23.1732 12.4042 24.2875C11.9267 25.3841 11.6525 26.3569 11.5818 27.2059C11.5287 28.0372 11.7144 28.6828 12.1389 29.1427C12.5811 29.5848 13.3505 29.7263 14.4471 29.5672C15.4552 29.4257 16.3838 29.0719 17.2328 28.5059C18.0995 27.9222 18.9308 27.2855 19.7267 26.5957C20.5403 25.8882 21.3451 25.1984 22.141 24.5263C22.9369 23.8365 23.7682 23.3147 24.6349 22.961C24.9533 22.8372 25.2009 22.8814 25.3777 23.0937C25.5723 23.3059 25.6254 23.5624 25.5369 23.863C25.4308 24.1637 25.1124 24.5617 24.5818 25.0569C24.0689 25.5522 23.4233 26.0739 22.6451 26.6222C21.8845 27.1529 21.0444 27.6923 20.1247 28.2406C19.2049 28.7712 18.3029 29.2311 17.4185 29.6202C16.5518 30.0093 15.7382 30.2923 14.9777 30.4692C14.2348 30.6461 13.6512 30.6461 13.2267 30.4692Z" fill="#0078A3"/>
<path d="M26.1853 30.4692C26.15 30.4515 26.15 30.2481 26.1853 29.859C26.2384 29.4522 26.3092 28.9481 26.3976 28.3467C26.486 27.7454 26.601 27.0821 26.7425 26.3569C26.884 25.6318 27.0343 24.942 27.1935 24.2875C27.3527 23.6154 27.5207 23.0317 27.6976 22.5365C27.8922 22.0236 28.0779 21.6698 28.2547 21.4753C28.3786 21.3515 28.5024 21.3515 28.6262 21.4753C28.75 21.5814 28.8738 21.7229 28.9976 21.8998C29.1214 22.059 29.2452 22.2093 29.369 22.3508C29.4928 22.4746 29.6255 22.4834 29.767 22.3773C30.2622 21.6875 30.8017 21.0331 31.3854 20.414C31.9867 19.7773 32.65 19.229 33.3752 18.7691C33.4459 18.7161 33.6405 18.6365 33.9589 18.5304C34.2772 18.4066 34.6398 18.2916 35.0466 18.1855C35.4534 18.0617 35.8691 17.9644 36.2936 17.8936C36.7357 17.8052 37.1072 17.7698 37.4079 17.7875C37.7262 17.7875 37.9385 17.8671 38.0446 18.0263C38.1684 18.1678 38.1153 18.4154 37.8854 18.7691C36.8242 18.7868 35.8337 19.0964 34.914 19.6977C33.9942 20.2991 33.1452 21.0419 32.367 21.9263C31.5888 22.8107 30.8813 23.7746 30.2445 24.8182C29.6078 25.844 29.0507 26.7991 28.5731 27.6835C28.1132 28.5678 27.7241 29.3018 27.4058 29.8855C27.1051 30.4692 26.884 30.761 26.7425 30.761C26.7248 30.761 26.6452 30.7257 26.5037 30.6549C26.3622 30.5665 26.2561 30.5046 26.1853 30.4692Z" fill="#0078A3"/>
<path d="M36.8358 30.4692C37.561 28.1345 38.2154 26.2862 38.7991 24.9243C39.4005 23.5447 39.8957 22.5807 40.2848 22.0324C40.6917 21.4841 40.9658 21.3072 41.1073 21.5018C41.2488 21.6964 41.2311 22.1916 41.0542 22.9875C40.8951 23.7835 40.5413 24.8535 39.993 26.1978C39.4624 27.5243 38.7107 29.0454 37.7379 30.761C37.5964 30.8141 37.4284 30.8229 37.2338 30.7876C37.0393 30.7522 36.9066 30.6461 36.8358 30.4692ZM41.4787 17.7079C41.4434 17.6195 41.4257 17.4603 41.4257 17.2304C41.4257 17.0004 41.4434 16.8589 41.4787 16.8059C41.8855 16.6644 42.1951 16.6467 42.4073 16.7528C42.6196 16.8589 42.7522 17.0181 42.8053 17.2304C42.8583 17.4249 42.8495 17.6372 42.7787 17.8671C42.7257 18.097 42.6284 18.2739 42.4869 18.3977C42.3454 18.5038 42.1774 18.5215 41.9828 18.4508C41.8059 18.3623 41.6379 18.1147 41.4787 17.7079Z" fill="#0078A3"/>
<path d="M42.2863 30.4692C42.0741 30.3277 42.0652 30.142 42.2598 29.9121C42.472 29.6644 42.7993 29.408 43.2414 29.1427C43.7013 28.8597 44.2319 28.5678 44.8333 28.2671C45.4346 27.9665 46.0095 27.6835 46.5578 27.4182C47.1238 27.1529 47.619 26.9229 48.0435 26.7284C48.468 26.5161 48.7421 26.3569 48.866 26.2508C49.4496 25.7556 49.7503 25.3488 49.768 25.0304C49.8034 24.6943 49.6619 24.429 49.3435 24.2345C49.0251 24.0222 48.5741 23.863 47.9904 23.7569C47.4245 23.6331 46.8319 23.527 46.2129 23.4386C45.6115 23.3324 45.0278 23.2263 44.4618 23.1202C43.9135 23.0141 43.4979 22.8726 43.2149 22.6957C42.9319 22.5188 42.8346 22.2889 42.9231 22.0059C43.0292 21.7052 43.4183 21.3249 44.0904 20.8651C44.338 20.6882 44.7006 20.4317 45.1782 20.0957C45.6557 19.7596 46.1687 19.4147 46.717 19.061C47.283 18.7072 47.8401 18.3889 48.3884 18.1059C48.9367 17.8229 49.3966 17.6372 49.768 17.5487C49.9626 17.5134 50.1571 17.531 50.3517 17.6018C50.5639 17.6725 50.7319 17.7787 50.8558 17.9202C50.9796 18.044 51.0326 18.1855 51.0149 18.3446C51.0149 18.5038 50.9 18.6453 50.67 18.7691C49.6619 19.3351 48.6891 19.8657 47.7517 20.361C46.8319 20.8562 45.9034 21.4222 44.9659 22.059C44.9129 22.2004 44.9217 22.3243 44.9925 22.4304C45.0809 22.5365 45.1782 22.6161 45.2843 22.6692C47.1591 22.8637 48.5653 23.1379 49.5027 23.4916C50.4578 23.8454 51.0592 24.2345 51.3068 24.659C51.5721 25.0835 51.5456 25.5345 51.2272 26.012C50.9088 26.4896 50.4313 26.9583 49.7945 27.4182C49.1755 27.878 48.4592 28.3114 47.6455 28.7182C46.8319 29.125 46.0449 29.4699 45.2843 29.7529C44.5414 30.0359 43.887 30.2481 43.321 30.3896C42.755 30.5311 42.4101 30.5576 42.2863 30.4692Z" fill="#0078A3"/>
<path d="M65.3384 30.4692C64.454 30.0978 63.8703 29.5848 63.5873 28.9304C63.3043 28.2583 63.2071 27.542 63.2955 26.7814C63.3839 26.0032 63.5962 25.225 63.9322 24.4467C64.286 23.6685 64.6486 22.9787 65.02 22.3773C65.1438 22.1651 65.3737 21.8025 65.7098 21.2896C66.0459 20.7766 66.3996 20.2372 66.771 19.6712C67.1601 19.0875 67.5227 18.548 67.8588 18.0528C68.2125 17.5399 68.4602 17.1861 68.6017 16.9916C68.8139 15.6297 69.2384 14.5507 69.8751 13.7548C70.5119 12.9412 71.2282 12.3841 72.0241 12.0834C72.8377 11.7827 73.669 11.7208 74.518 11.8977C75.367 12.0569 76.1099 12.4371 76.7466 13.0385C77.3833 13.6222 77.8432 14.4093 78.1262 15.3997C78.4092 16.3902 78.3827 17.5487 78.0466 18.8753C77.7282 20.2018 77.0384 21.6875 75.9772 23.3324C74.916 24.9773 73.3595 26.7549 71.3078 28.6651C70.954 29.0012 70.5295 29.3284 70.0343 29.6467C69.5568 29.9474 69.0438 30.1951 68.4955 30.3896C67.9649 30.5842 67.4255 30.6991 66.8772 30.7345C66.3288 30.7699 65.8159 30.6814 65.3384 30.4692ZM64.4098 28.3733C64.5867 29.1692 64.9227 29.6644 65.418 29.859C65.9132 30.0536 66.4969 30.0182 67.169 29.7529C67.8411 29.4876 68.5751 29.0365 69.371 28.3998C70.167 27.7631 70.9629 27.0202 71.7588 26.1712C72.5547 25.3045 73.3153 24.3671 74.0405 23.359C74.7656 22.3508 75.3935 21.3515 75.9241 20.361C76.4724 19.3705 76.8881 18.4242 77.1711 17.5222C77.4541 16.6201 77.5425 15.8419 77.4364 15.1875C77.348 14.5154 77.0296 14.0113 76.4813 13.6752C75.9507 13.3392 75.1282 13.2419 74.0139 13.3834C73.6071 13.7371 73.0677 14.2589 72.3955 14.9487C71.7234 15.6208 71.0071 16.3902 70.2466 17.2569C69.486 18.1236 68.7255 19.061 67.9649 20.0691C67.2044 21.0596 66.5322 22.0501 65.9486 23.0406C65.3649 24.0311 64.9227 24.9862 64.622 25.9059C64.3214 26.8256 64.2506 27.6481 64.4098 28.3733Z" fill="#0078A3"/>
<path d="M78.2588 30.4692C77.7459 30.0978 77.4099 29.6291 77.2507 29.0631C77.1092 28.4971 77.0915 27.8869 77.1976 27.2325C77.3037 26.5603 77.4894 25.8705 77.7548 25.1631C78.0378 24.4556 78.3384 23.7746 78.6568 23.1202C78.9929 22.4658 79.3112 21.8644 79.6119 21.3161C79.9303 20.7678 80.1779 20.3168 80.3548 19.963C80.4078 19.8569 80.5316 19.6004 80.7262 19.1936C80.9385 18.7868 81.1595 18.3446 81.3895 17.8671C81.6194 17.3895 81.8316 16.9474 82.0262 16.5406C82.2385 16.1161 82.3711 15.8508 82.4242 15.7446C82.4772 15.6562 82.548 15.4882 82.6364 15.2405C82.7425 14.9752 82.8575 14.6922 82.9813 14.3916C83.1051 14.0909 83.2378 13.8079 83.3793 13.5426C83.5385 13.2596 83.6976 13.0562 83.8568 12.9324C84.0337 12.8086 84.2017 12.7909 84.3609 12.8793C84.5378 12.9677 84.7058 13.2331 84.865 13.6752C84.7943 13.8521 84.6174 14.2058 84.3344 14.7365C84.0691 15.2671 83.7507 15.9038 83.3793 16.6467C83.0079 17.3895 82.5922 18.212 82.1323 19.114C81.6902 20.0161 81.2568 20.927 80.8323 21.8467C80.4078 22.7664 80.0099 23.6685 79.6384 24.5528C79.267 25.4195 78.9575 26.2154 78.7099 26.9406C78.4799 27.6481 78.3384 28.2406 78.2854 28.7182C78.25 29.178 78.3384 29.461 78.5507 29.5672C78.7983 29.691 79.1167 29.744 79.5058 29.7263C79.9126 29.691 80.3282 29.6379 80.7527 29.5672C81.1772 29.4964 81.5929 29.4257 81.9997 29.3549C82.4065 29.2665 82.7602 29.2311 83.0609 29.2488C83.1317 29.408 83.0786 29.5672 82.9017 29.7263C82.7249 29.8678 82.4772 30.0005 82.1589 30.1243C81.8405 30.2304 81.4691 30.3277 81.0446 30.4161C80.6378 30.4869 80.2398 30.54 79.8507 30.5753C79.4793 30.6107 79.1432 30.6195 78.8425 30.6019C78.5595 30.5842 78.365 30.54 78.2588 30.4692Z" fill="#0078A3"/>
<path d="M83.9746 30.4692C84.6998 28.1345 85.3542 26.2862 85.9379 24.9243C86.5393 23.5447 87.0345 22.5807 87.4236 22.0324C87.8304 21.4841 88.1046 21.3072 88.2461 21.5018C88.3876 21.6964 88.3699 22.1916 88.193 22.9875C88.0338 23.7835 87.6801 24.8535 87.1318 26.1978C86.6012 27.5243 85.8495 29.0454 84.8767 30.761C84.7352 30.8141 84.5672 30.8229 84.3726 30.7876C84.178 30.7522 84.0454 30.6461 83.9746 30.4692ZM88.6175 17.7079C88.5821 17.6195 88.5645 17.4603 88.5645 17.2304C88.5645 17.0004 88.5821 16.8589 88.6175 16.8059C89.0243 16.6644 89.3338 16.6467 89.5461 16.7528C89.7583 16.8589 89.891 17.0181 89.9441 17.2304C89.9971 17.4249 89.9883 17.6372 89.9175 17.8671C89.8645 18.097 89.7672 18.2739 89.6257 18.3977C89.4842 18.5038 89.3162 18.5215 89.1216 18.4508C88.9447 18.3623 88.7767 18.1147 88.6175 17.7079Z" fill="#0078A3"/>
<path d="M90.168 30.1508C89.7966 29.9386 89.5312 29.6025 89.372 29.1427C89.2129 28.6828 89.1244 28.161 89.1067 27.5774C89.0891 26.9937 89.1244 26.3835 89.2129 25.7467C89.3013 25.11 89.4074 24.4909 89.5312 23.8896C89.6551 23.2882 89.7789 22.7488 89.9027 22.2712C90.0265 21.7936 90.1149 21.4222 90.168 21.1569C90.2564 21.1038 90.3449 21.1038 90.4333 21.1569C90.5394 21.21 90.6367 21.2896 90.7251 21.3957C90.8313 21.4841 90.9108 21.5726 90.9639 21.661C91.0347 21.7317 91.07 21.7671 91.07 21.7671C91.1231 22.3862 91.1231 22.9964 91.07 23.5977C91.0347 24.1814 90.9816 24.7651 90.9108 25.3488C90.8578 25.9324 90.8047 26.525 90.7517 27.1263C90.7163 27.7277 90.7163 28.3379 90.7517 28.9569C90.8932 29.2223 91.185 29.2311 91.6272 28.9835C92.0694 28.7182 92.6088 28.3025 93.2456 27.7365C93.8823 27.1529 94.5721 26.4719 95.3149 25.6937C96.0755 24.8977 96.8184 24.1107 97.5435 23.3324C98.2864 22.5542 98.985 21.829 99.6395 21.1569C100.294 20.4671 100.842 19.9453 101.284 19.5916C101.744 19.2202 102.063 19.0698 102.239 19.1406C102.416 19.1936 102.39 19.5651 102.16 20.2549C101.735 20.6263 101.231 21.1834 100.648 21.9263C100.064 22.6692 99.4272 23.4739 98.7374 24.3406C98.0476 25.1896 97.3313 26.0386 96.5884 26.8876C95.8456 27.7365 95.0939 28.4706 94.3333 29.0896C93.5904 29.691 92.8653 30.1155 92.1578 30.3631C91.4503 30.593 90.787 30.5223 90.168 30.1508Z" fill="#0078A3"/>
<path d="M103.233 30.4692C102.702 30.2923 102.295 30.027 102.012 29.6733C101.747 29.3018 101.57 28.895 101.482 28.4529C101.393 28.0107 101.376 27.5508 101.429 27.0733C101.499 26.578 101.606 26.1093 101.747 25.6671C102.278 25.1011 102.87 24.4556 103.525 23.7304C104.197 22.9875 104.904 22.2624 105.647 21.5549C106.39 20.8474 107.159 20.193 107.955 19.5916C108.769 18.9725 109.591 18.5038 110.423 18.1855C110.706 18.0617 110.927 18.0705 111.086 18.212C111.263 18.3358 111.387 18.5392 111.457 18.8222C111.528 19.1052 111.555 19.4324 111.537 19.8038C111.537 20.1753 111.51 20.5379 111.457 20.8916C111.404 21.2453 111.334 21.5637 111.245 21.8467C111.157 22.1297 111.068 22.3243 110.98 22.4304C110.768 22.678 110.352 22.9698 109.733 23.3059C109.131 23.642 108.459 24.0134 107.716 24.4202C106.974 24.8093 106.231 25.2161 105.488 25.6406C104.745 26.0651 104.135 26.4896 103.657 26.9141C103.18 27.3209 102.897 27.7277 102.808 28.1345C102.72 28.5413 102.967 28.9127 103.551 29.2488C104.153 29.3195 104.878 29.293 105.727 29.1692C106.593 29.0277 107.469 28.8508 108.353 28.6386C109.255 28.4086 110.122 28.1787 110.953 27.9488C111.785 27.7012 112.465 27.5066 112.996 27.3651L113.314 27.6569C112.925 28.1699 112.289 28.6386 111.404 29.0631C110.52 29.4876 109.565 29.8413 108.539 30.1243C107.513 30.3896 106.514 30.5665 105.541 30.6549C104.568 30.7257 103.799 30.6638 103.233 30.4692ZM109.574 20.3345C109.556 20.3168 109.423 20.3964 109.176 20.5732C108.928 20.7324 108.619 20.9535 108.247 21.2365C107.893 21.5018 107.504 21.8025 107.08 22.1385C106.673 22.4569 106.293 22.7576 105.939 23.0406C105.603 23.3236 105.32 23.5712 105.09 23.7835C104.86 23.978 104.763 24.0753 104.798 24.0753C105.081 24.1284 105.444 24.093 105.886 23.9692C106.346 23.8277 106.814 23.6331 107.292 23.3855C107.787 23.1379 108.256 22.8637 108.698 22.563C109.14 22.2447 109.485 21.9351 109.733 21.6345C109.998 21.3338 110.131 21.0685 110.131 20.8385C110.148 20.6086 109.963 20.4406 109.574 20.3345Z" fill="#0078A3"/>
<path d="M112.81 30.4692C113.536 28.1345 114.19 26.2862 114.774 24.9243C115.375 23.5447 115.87 22.5807 116.259 22.0324C116.666 21.4841 116.94 21.3072 117.082 21.5018C117.223 21.6964 117.206 22.1916 117.029 22.9875C116.87 23.7835 116.516 24.8535 115.968 26.1978C115.437 27.5243 114.685 29.0454 113.712 30.761C113.571 30.8141 113.403 30.8229 113.208 30.7876C113.014 30.7522 112.881 30.6461 112.81 30.4692ZM117.453 17.7079C117.418 17.6195 117.4 17.4603 117.4 17.2304C117.4 17.0004 117.418 16.8589 117.453 16.8059C117.86 16.6644 118.17 16.6467 118.382 16.7528C118.594 16.8589 118.727 17.0181 118.78 17.2304C118.833 17.4249 118.824 17.6372 118.753 17.8671C118.7 18.097 118.603 18.2739 118.461 18.3977C118.32 18.5038 118.152 18.5215 117.957 18.4508C117.78 18.3623 117.612 18.1147 117.453 17.7079Z" fill="#0078A3"/>
<path d="M118.261 30.4692C118.225 30.4515 118.225 30.2481 118.261 29.859C118.314 29.4522 118.385 28.9481 118.473 28.3467C118.562 27.7454 118.677 27.0821 118.818 26.3569C118.96 25.6318 119.11 24.942 119.269 24.2875C119.428 23.6154 119.596 23.0317 119.773 22.5365C119.968 22.0236 120.153 21.6698 120.33 21.4753C120.454 21.3515 120.578 21.3515 120.702 21.4753C120.826 21.5814 120.949 21.7229 121.073 21.8998C121.197 22.059 121.321 22.2093 121.445 22.3508C121.568 22.4746 121.701 22.4834 121.843 22.3773C122.338 21.6875 122.877 21.0331 123.461 20.414C124.062 19.7773 124.726 19.229 125.451 18.7691C125.521 18.7161 125.716 18.6365 126.034 18.5304C126.353 18.4066 126.715 18.2916 127.122 18.1855C127.529 18.0617 127.945 17.9644 128.369 17.8936C128.811 17.8052 129.183 17.7698 129.483 17.7875C129.802 17.7875 130.014 17.8671 130.12 18.0263C130.244 18.1678 130.191 18.4154 129.961 18.7691C128.9 18.7868 127.909 19.0964 126.989 19.6977C126.07 20.2991 125.221 21.0419 124.443 21.9263C123.664 22.8107 122.957 23.7746 122.32 24.8182C121.683 25.844 121.126 26.7991 120.649 27.6835C120.189 28.5678 119.8 29.3018 119.481 29.8855C119.181 30.4692 118.96 30.761 118.818 30.761C118.8 30.761 118.721 30.7257 118.579 30.6549C118.438 30.5665 118.332 30.5046 118.261 30.4692Z" fill="#0078A3"/>
<path d="M127.551 30.1508C127.126 29.7971 126.888 29.2753 126.835 28.5855C126.799 27.8957 126.896 27.1175 127.126 26.2508C127.374 25.3841 127.728 24.4821 128.188 23.5447C128.665 22.5896 129.213 21.6875 129.833 20.8385C130.452 19.9719 131.124 19.2025 131.849 18.5304C132.574 17.8406 133.299 17.3365 134.024 17.0181C134.75 16.6821 135.457 16.5671 136.147 16.6732C136.837 16.7616 137.465 17.1596 138.031 17.8671C138.384 18.3093 138.597 18.7603 138.667 19.2202C138.738 19.6623 138.729 20.1222 138.641 20.5998C138.552 21.0596 138.411 21.5372 138.216 22.0324C138.022 22.51 137.827 22.9964 137.633 23.4916C137.456 23.9869 137.305 24.4909 137.182 25.0039C137.075 25.5168 137.058 26.0386 137.128 26.5692C137.217 27.2413 137.518 27.6393 138.031 27.7631C138.543 27.8869 139.154 27.8515 139.861 27.6569C140.586 27.4624 141.347 27.1529 142.143 26.7284C142.939 26.3039 143.673 25.8794 144.345 25.4549C145.035 25.0304 145.601 24.659 146.043 24.3406C146.503 24.0222 146.733 23.863 146.733 23.863C147.228 23.7569 147.502 23.7923 147.555 23.9692C147.626 24.1284 147.529 24.376 147.263 24.712C147.016 25.0304 146.635 25.4018 146.122 25.8263C145.609 26.2331 145.026 26.6311 144.371 27.0202C143.717 27.4093 143.018 27.7631 142.275 28.0814C141.533 28.3998 140.807 28.6209 140.1 28.7447C139.392 28.8508 138.72 28.842 138.084 28.7182C137.465 28.5767 136.952 28.2583 136.545 27.7631C136.35 27.5508 136.2 27.3386 136.094 27.1263C136.005 26.9141 135.855 26.7284 135.643 26.5692C135.377 26.8168 135.059 27.144 134.688 27.5508C134.316 27.9399 133.909 28.3379 133.467 28.7447C133.043 29.1338 132.583 29.5053 132.088 29.859C131.61 30.2127 131.115 30.478 130.602 30.6549C130.089 30.8318 129.567 30.8937 129.037 30.8406C128.524 30.7876 128.028 30.5576 127.551 30.1508ZM127.843 29.2488C128.002 29.8148 128.356 30.0801 128.904 30.0447C129.452 29.9916 130.089 29.7175 130.814 29.2223C131.539 28.727 132.291 28.0549 133.069 27.2059C133.848 26.3392 134.546 25.3841 135.165 24.3406C135.784 23.2794 136.253 22.1651 136.571 20.9977C136.907 19.8304 136.996 18.6807 136.837 17.5487C136.412 17.2127 135.882 17.2038 135.245 17.5222C134.608 17.8229 133.927 18.327 133.202 19.0344C132.494 19.7242 131.787 20.5555 131.079 21.5283C130.39 22.4834 129.779 23.4562 129.249 24.4467C128.718 25.4195 128.311 26.3392 128.028 27.2059C127.763 28.0726 127.701 28.7535 127.843 29.2488Z" fill="#0078A3"/>
<path d="M36.2214 44.4946H34.4614V43.3279H39.4214V44.4946H37.6614V48.0879H36.2214V44.4946Z" fill="#0078A3"/>
<path d="M43.4253 46.1146C43.4253 46.4346 43.5053 46.6701 43.6653 46.8212C43.8297 46.9723 44.0875 47.0479 44.4386 47.0479C44.7942 47.0479 45.0519 46.9723 45.2119 46.8212C45.3764 46.6701 45.4586 46.4346 45.4586 46.1146V43.3279H46.8986V46.0012C46.8986 46.7834 46.6875 47.3479 46.2653 47.6946C45.8431 48.0368 45.2342 48.2079 44.4386 48.2079C43.6475 48.2079 43.0408 48.0368 42.6186 47.6946C42.1964 47.3479 41.9853 46.7834 41.9853 46.0012V43.3279H43.4253V46.1146Z" fill="#0078A3"/>
<path d="M49.924 43.3279H52.1774C53.1374 43.3279 53.8618 43.5301 54.3507 43.9346C54.8396 44.3346 55.084 44.9257 55.084 45.7079C55.084 46.4634 54.8285 47.0501 54.3174 47.4679C53.8062 47.8812 53.0729 48.0879 52.1174 48.0879H49.924V43.3279ZM52.1507 46.9479C53.1329 46.9479 53.624 46.5323 53.624 45.7012C53.624 44.879 53.1507 44.4679 52.204 44.4679H51.344V46.9479H52.1507Z" fill="#0078A3"/>
<path d="M60.5792 48.2079C59.9925 48.2079 59.4881 48.1079 59.0659 47.9079C58.6436 47.7079 58.317 47.4212 58.0859 47.0479C57.8592 46.6746 57.7459 46.2279 57.7459 45.7079C57.7459 45.1879 57.8614 44.7412 58.0925 44.3679C58.3236 43.9946 58.6525 43.7079 59.0792 43.5079C59.5059 43.3079 60.0147 43.2079 60.6059 43.2079C61.1925 43.2079 61.697 43.3079 62.1192 43.5079C62.5414 43.7079 62.8659 43.9946 63.0925 44.3679C63.3236 44.7412 63.4392 45.1879 63.4392 45.7079C63.4392 46.2279 63.3236 46.6746 63.0925 47.0479C62.8614 47.4212 62.5325 47.7079 62.1059 47.9079C61.6792 48.1079 61.1703 48.2079 60.5792 48.2079ZM61.9459 45.7079C61.9459 45.2812 61.8259 44.9523 61.5859 44.7212C61.3503 44.4857 61.0192 44.3679 60.5925 44.3679C60.1659 44.3679 59.8325 44.4857 59.5925 44.7212C59.357 44.9568 59.2392 45.2857 59.2392 45.7079C59.2392 46.1346 59.357 46.4657 59.5925 46.7012C59.8325 46.9323 60.1659 47.0479 60.5925 47.0479C61.0192 47.0479 61.3503 46.9301 61.5859 46.6946C61.8259 46.459 61.9459 46.1301 61.9459 45.7079Z" fill="#0078A3"/>
<path d="M70.1167 43.3279H72.3701C73.3301 43.3279 74.0545 43.5301 74.5434 43.9346C75.0323 44.3346 75.2767 44.9257 75.2767 45.7079C75.2767 46.4634 75.0212 47.0501 74.5101 47.4679C73.999 47.8812 73.2656 48.0879 72.3101 48.0879H70.1167V43.3279ZM72.3434 46.9479C73.3256 46.9479 73.8167 46.5323 73.8167 45.7012C73.8167 44.879 73.3434 44.4679 72.3967 44.4679H71.5367V46.9479H72.3434Z" fill="#0078A3"/>
<path d="M78.1519 43.3279H82.3186V44.3746H79.5586V45.1479H82.1852V46.1946H79.5586V47.0412H82.4786L82.3452 48.0879H78.1519V43.3279Z" fill="#0078A3"/>
<path d="M90.405 44.4946H88.645V43.3279H93.605V44.4946H91.845V48.0879H90.405V44.4946Z" fill="#0078A3"/>
<path d="M96.2222 43.3279H100.389V44.3746H97.6289V45.1479H100.256V46.1946H97.6289V47.0412H100.549L100.416 48.0879H96.2222V43.3279Z" fill="#0078A3"/>
<path d="M108.605 48.0879H106.919L105.705 46.4946L104.492 48.0879H102.892L104.825 45.6146L103.039 43.3279H104.725L105.725 44.7146L106.779 43.3279H108.379L106.612 45.5679L108.605 48.0879Z" fill="#0078A3"/>
<path d="M112.512 44.4946H110.752V43.3279H115.712V44.4946H113.952V48.0879H112.512V44.4946Z" fill="#0078A3"/>
<path d="M120.734 48.2079C120.147 48.2079 119.643 48.1079 119.221 47.9079C118.799 47.7079 118.472 47.4212 118.241 47.0479C118.014 46.6746 117.901 46.2279 117.901 45.7079C117.901 45.1879 118.016 44.7412 118.247 44.3679C118.479 43.9946 118.807 43.7079 119.234 43.5079C119.661 43.3079 120.17 43.2079 120.761 43.2079C121.347 43.2079 121.852 43.3079 122.274 43.5079C122.696 43.7079 123.021 43.9946 123.247 44.3679C123.479 44.7412 123.594 45.1879 123.594 45.7079C123.594 46.2279 123.479 46.6746 123.247 47.0479C123.016 47.4212 122.687 47.7079 122.261 47.9079C121.834 48.1079 121.325 48.2079 120.734 48.2079ZM122.101 45.7079C122.101 45.2812 121.981 44.9523 121.741 44.7212C121.505 44.4857 121.174 44.3679 120.747 44.3679C120.321 44.3679 119.987 44.4857 119.747 44.7212C119.512 44.9568 119.394 45.2857 119.394 45.7079C119.394 46.1346 119.512 46.4657 119.747 46.7012C119.987 46.9323 120.321 47.0479 120.747 47.0479C121.174 47.0479 121.505 46.9301 121.741 46.6946C121.981 46.459 122.101 46.1301 122.101 45.7079Z" fill="#0078A3"/>
</svg>
