<svg width="158" height="71" viewBox="0 0 158 71" fill="none" xmlns="http://www.w3.org/2000/svg">
<path d="M13.6323 29.6742C12.5601 29.2524 11.8218 28.6811 11.4175 27.9604C11.0132 27.2397 10.8462 26.4399 10.9165 25.561C11.0044 24.6645 11.2856 23.7153 11.7603 22.7133C12.2524 21.6938 12.8501 20.6742 13.5532 19.6547C14.2739 18.6352 15.0649 17.642 15.9263 16.6752C16.7876 15.7084 17.6401 14.8207 18.4839 14.0121C19.3276 13.2035 20.1187 12.5004 20.8569 11.9028C21.5952 11.3051 22.1929 10.8656 22.6499 10.5844C23.2827 10.1977 23.8101 10.0131 24.2319 10.0307C24.6538 10.0307 24.9878 10.1625 25.2339 10.4262C25.4976 10.6723 25.6733 11.0239 25.7612 11.4809C25.8667 11.9203 25.9106 12.3949 25.8931 12.9047C25.8931 13.3969 25.8403 13.8979 25.7349 14.4076C25.647 14.8998 25.5239 15.3305 25.3657 15.6996C25.2251 16.0688 25.0669 16.3412 24.8911 16.517C24.7329 16.6928 24.5747 16.7016 24.4165 16.5434C24.3989 16.4028 24.4165 16.1918 24.4692 15.9106C24.522 15.6117 24.5835 15.2778 24.6538 14.9086C24.7417 14.5395 24.8208 14.1615 24.8911 13.7748C24.9614 13.3881 25.0054 13.0365 25.0229 12.7201C25.0581 12.3862 25.0493 12.1049 24.9966 11.8764C24.9614 11.6479 24.8647 11.516 24.7065 11.4809C24.0913 11.3227 23.353 11.4721 22.4917 11.9291C21.6479 12.3686 20.7603 13.0102 19.8286 13.8539C18.9146 14.6801 18.0005 15.6469 17.0864 16.7543C16.1899 17.8442 15.3726 18.9692 14.6343 20.1293C13.896 21.2895 13.2896 22.4233 12.8149 23.5307C12.3403 24.6205 12.0679 25.5873 11.9976 26.4311C11.9448 27.2572 12.1294 27.8989 12.5513 28.3559C12.9907 28.7953 13.7554 28.936 14.8452 28.7778C15.8472 28.6371 16.77 28.2856 17.6138 27.7231C18.4751 27.143 19.3013 26.5102 20.0923 25.8246C20.9009 25.1215 21.7007 24.436 22.4917 23.768C23.2827 23.0824 24.1089 22.5639 24.9702 22.2123C25.2866 22.0893 25.5327 22.1332 25.7085 22.3442C25.9019 22.5551 25.9546 22.81 25.8667 23.1088C25.7612 23.4076 25.4448 23.8031 24.9175 24.2953C24.4077 24.7875 23.7661 25.3061 22.9927 25.851C22.2368 26.3783 21.4019 26.9145 20.4878 27.4594C19.5737 27.9867 18.6772 28.4438 17.7983 28.8305C16.937 29.2172 16.1284 29.4985 15.3726 29.6742C14.6343 29.85 14.0542 29.85 13.6323 29.6742Z" fill="#0078A3"/>
<path d="M26.5111 29.6742C26.476 29.6567 26.476 29.4545 26.5111 29.0678C26.5638 28.6635 26.6342 28.1625 26.7221 27.5649C26.8099 26.9672 26.9242 26.308 27.0648 25.5873C27.2054 24.8666 27.3549 24.1811 27.5131 23.5307C27.6713 22.8627 27.8383 22.2826 28.014 21.7905C28.2074 21.2807 28.392 20.9291 28.5678 20.7358C28.6908 20.6127 28.8138 20.6127 28.9369 20.7358C29.0599 20.8412 29.183 20.9819 29.306 21.1576C29.4291 21.3158 29.5521 21.4653 29.6752 21.6059C29.7982 21.7289 29.9301 21.7377 30.0707 21.6322C30.5629 20.9467 31.099 20.2963 31.6791 19.6811C32.2767 19.0483 32.9359 18.5033 33.6566 18.0463C33.7269 17.9936 33.9203 17.9145 34.2367 17.809C34.5531 17.686 34.9135 17.5717 35.3178 17.4662C35.722 17.3432 36.1351 17.2465 36.557 17.1762C36.9965 17.0883 37.3656 17.0531 37.6644 17.0707C37.9808 17.0707 38.1918 17.1498 38.2972 17.308C38.4203 17.4487 38.3676 17.6947 38.139 18.0463C37.0844 18.0639 36.1 18.3715 35.1859 18.9692C34.2719 19.5668 33.4281 20.3051 32.6547 21.184C31.8812 22.0629 31.1781 23.0209 30.5453 24.058C29.9125 25.0776 29.3588 26.0268 28.8842 26.9057C28.4271 27.7846 28.0404 28.5141 27.724 29.0942C27.4252 29.6742 27.2054 29.9643 27.0648 29.9643C27.0472 29.9643 26.9681 29.9291 26.8275 29.8588C26.6869 29.7709 26.5814 29.7094 26.5111 29.6742Z" fill="#0078A3"/>
<path d="M37.096 29.6742C37.8167 27.3539 38.4671 25.517 39.0471 24.1635C39.6448 22.7924 40.137 21.8344 40.5237 21.2895C40.928 20.7446 41.2004 20.5688 41.3411 20.7621C41.4817 20.9555 41.4641 21.4477 41.2883 22.2387C41.1301 23.0297 40.7786 24.0932 40.2337 25.4291C39.7063 26.7475 38.9592 28.2592 37.9924 29.9643C37.8518 30.017 37.6848 30.0258 37.4915 29.9906C37.2981 29.9555 37.1663 29.85 37.096 29.6742ZM41.7102 16.9916C41.6751 16.9037 41.6575 16.7455 41.6575 16.517C41.6575 16.2885 41.6751 16.1479 41.7102 16.0951C42.1145 15.9545 42.4221 15.9369 42.6331 16.0424C42.844 16.1479 42.9758 16.3061 43.0286 16.517C43.0813 16.7104 43.0725 16.9213 43.0022 17.1498C42.9495 17.3783 42.8528 17.5541 42.7122 17.6772C42.5715 17.7826 42.4046 17.8002 42.2112 17.7299C42.0354 17.642 41.8684 17.3959 41.7102 16.9916Z" fill="#0078A3"/>
<path d="M42.5128 29.6742C42.3019 29.5336 42.2931 29.349 42.4865 29.1205C42.6974 28.8744 43.0226 28.6196 43.4621 28.3559C43.9191 28.0746 44.4464 27.7846 45.0441 27.4858C45.6417 27.1869 46.213 26.9057 46.7579 26.642C47.3204 26.3783 47.8126 26.1498 48.2345 25.9565C48.6564 25.7455 48.9288 25.5873 49.0519 25.4819C49.632 24.9897 49.9308 24.5854 49.9484 24.269C49.9835 23.935 49.8429 23.6713 49.5265 23.478C49.2101 23.267 48.7619 23.1088 48.1818 23.0033C47.6193 22.8803 47.0304 22.7748 46.4152 22.6869C45.8175 22.5815 45.2374 22.476 44.6749 22.3705C44.13 22.2651 43.7169 22.1244 43.4357 21.9487C43.1544 21.7729 43.0578 21.5444 43.1456 21.2631C43.2511 20.9643 43.6378 20.5864 44.3058 20.1293C44.5519 19.9535 44.9122 19.6987 45.3869 19.3647C45.8615 19.0307 46.3712 18.6879 46.9162 18.3364C47.4787 17.9848 48.0324 17.6684 48.5773 17.3871C49.1222 17.1059 49.5792 16.9213 49.9484 16.8334C50.1417 16.7983 50.3351 16.8158 50.5285 16.8862C50.7394 16.9565 50.9064 17.0619 51.0294 17.2026C51.1525 17.3256 51.2052 17.4662 51.1876 17.6244C51.1876 17.7826 51.0734 17.9233 50.8449 18.0463C49.8429 18.6088 48.8761 19.1362 47.9445 19.6283C47.0304 20.1205 46.1076 20.683 45.1759 21.3158C45.1232 21.4565 45.132 21.5795 45.2023 21.685C45.2902 21.7905 45.3869 21.8696 45.4923 21.9223C47.3556 22.1156 48.7531 22.3881 49.6847 22.7397C50.6339 23.0912 51.2316 23.478 51.4777 23.8998C51.7413 24.3217 51.715 24.7699 51.3986 25.2446C51.0822 25.7192 50.6076 26.185 49.9747 26.642C49.3595 27.099 48.6476 27.5297 47.839 27.934C47.0304 28.3383 46.2482 28.6811 45.4923 28.9623C44.754 29.2436 44.1037 29.4545 43.5412 29.5951C42.9787 29.7358 42.6359 29.7621 42.5128 29.6742Z" fill="#0078A3"/>
<path d="M65.4228 29.6742C64.5438 29.3051 63.9638 28.7953 63.6825 28.1449C63.4013 27.477 63.3046 26.7651 63.3925 26.0092C63.4804 25.2358 63.6913 24.4623 64.0253 23.6889C64.3769 22.9155 64.7372 22.2299 65.1063 21.6322C65.2294 21.4213 65.4579 21.061 65.7919 20.5512C66.1259 20.0414 66.4774 19.5053 66.8466 18.9428C67.2333 18.3627 67.5937 17.8266 67.9276 17.3344C68.2792 16.8246 68.5253 16.4731 68.6659 16.2797C68.8769 14.9262 69.2987 13.8539 69.9315 13.0629C70.5644 12.2543 71.2763 11.7006 72.0673 11.4018C72.8759 11.103 73.702 11.0414 74.5458 11.2172C75.3895 11.3754 76.1278 11.7533 76.7606 12.351C77.3935 12.9311 77.8505 13.7133 78.1317 14.6977C78.413 15.6821 78.3866 16.8334 78.0526 18.1518C77.7362 19.4701 77.0507 20.9467 75.996 22.5815C74.9413 24.2162 73.3944 25.9828 71.3554 27.8813C71.0038 28.2153 70.5819 28.5405 70.0897 28.8569C69.6151 29.1557 69.1054 29.4018 68.5604 29.5951C68.0331 29.7885 67.497 29.9028 66.952 29.9379C66.4071 29.9731 65.8974 29.8852 65.4228 29.6742ZM64.4999 27.5912C64.6757 28.3822 65.0097 28.8744 65.5019 29.0678C65.994 29.2612 66.5741 29.226 67.2421 28.9623C67.9101 28.6987 68.6395 28.2504 69.4306 27.6176C70.2216 26.9848 71.0126 26.2465 71.8036 25.4028C72.5946 24.5414 73.3505 23.6098 74.0712 22.6078C74.7919 21.6059 75.4159 20.6127 75.9433 19.6283C76.4882 18.644 76.9013 17.7035 77.1825 16.8071C77.4638 15.9106 77.5517 15.1371 77.4462 14.4867C77.3583 13.8188 77.0419 13.3178 76.497 12.9838C75.9696 12.6498 75.1522 12.5531 74.0448 12.6938C73.6405 13.0453 73.1044 13.5639 72.4364 14.2494C71.7685 14.9174 71.0565 15.6821 70.3007 16.5434C69.5448 17.4047 68.789 18.3364 68.0331 19.3383C67.2772 20.3227 66.6093 21.3071 66.0292 22.2914C65.4491 23.2758 65.0097 24.225 64.7108 25.1391C64.412 26.0531 64.3417 26.8705 64.4999 27.5912Z" fill="#0078A3"/>
<path d="M78.2636 29.6742C77.7538 29.3051 77.4198 28.8393 77.2616 28.2768C77.121 27.7143 77.1034 27.1078 77.2089 26.4574C77.3144 25.7895 77.4989 25.1039 77.7626 24.4008C78.0438 23.6977 78.3427 23.0209 78.6591 22.3705C78.9931 21.7201 79.3095 21.1225 79.6083 20.5776C79.9247 20.0326 80.1708 19.5844 80.3466 19.2328C80.3993 19.1274 80.5224 18.8725 80.7157 18.4682C80.9267 18.0639 81.1464 17.6244 81.3749 17.1498C81.6034 16.6752 81.8144 16.2358 82.0077 15.8315C82.2187 15.4096 82.3505 15.1459 82.4032 15.0405C82.456 14.9526 82.5263 14.7856 82.6142 14.5395C82.7196 14.2758 82.8339 13.9946 82.9569 13.6957C83.08 13.3969 83.2118 13.1156 83.3524 12.852C83.5106 12.5707 83.6688 12.3686 83.827 12.2455C84.0028 12.1225 84.1698 12.1049 84.328 12.1928C84.5038 12.2807 84.6708 12.5444 84.829 12.9838C84.7587 13.1596 84.5829 13.5112 84.3017 14.0385C84.038 14.5658 83.7216 15.1987 83.3524 15.9369C82.9833 16.6752 82.5702 17.4926 82.1132 18.3891C81.6737 19.2856 81.2431 20.1908 80.8212 21.1049C80.3993 22.019 80.0038 22.9155 79.6347 23.7944C79.2655 24.6557 78.9579 25.4467 78.7118 26.1674C78.4833 26.8705 78.3427 27.4594 78.2899 27.934C78.2548 28.391 78.3427 28.6723 78.5536 28.7778C78.7997 28.9008 79.1161 28.9535 79.5028 28.936C79.9071 28.9008 80.3202 28.8481 80.7421 28.7778C81.164 28.7074 81.577 28.6371 81.9813 28.5668C82.3856 28.4789 82.7372 28.4438 83.036 28.4614C83.1063 28.6196 83.0536 28.7778 82.8778 28.936C82.702 29.0766 82.456 29.2084 82.1395 29.3315C81.8231 29.4369 81.454 29.5336 81.0321 29.6215C80.6278 29.6918 80.2323 29.7446 79.8456 29.7797C79.4765 29.8149 79.1425 29.8237 78.8437 29.8061C78.5624 29.7885 78.369 29.7446 78.2636 29.6742Z" fill="#0078A3"/>
<path d="M83.9441 29.6742C84.6648 27.3539 85.3152 25.517 85.8953 24.1635C86.493 22.7924 86.9851 21.8344 87.3719 21.2895C87.7762 20.7446 88.0486 20.5688 88.1892 20.7621C88.3299 20.9555 88.3123 21.4477 88.1365 22.2387C87.9783 23.0297 87.6267 24.0932 87.0818 25.4291C86.5545 26.7475 85.8074 28.2592 84.8406 29.9643C84.7 30.017 84.533 30.0258 84.3396 29.9906C84.1463 29.9555 84.0144 29.85 83.9441 29.6742ZM88.5584 16.9916C88.5232 16.9037 88.5056 16.7455 88.5056 16.517C88.5056 16.2885 88.5232 16.1479 88.5584 16.0951C88.9627 15.9545 89.2703 15.9369 89.4812 16.0424C89.6922 16.1479 89.824 16.3061 89.8767 16.517C89.9295 16.7104 89.9207 16.9213 89.8504 17.1498C89.7976 17.3783 89.701 17.5541 89.5603 17.6772C89.4197 17.7826 89.2527 17.8002 89.0594 17.7299C88.8836 17.642 88.7166 17.3959 88.5584 16.9916Z" fill="#0078A3"/>
<path d="M90.0993 29.3578C89.7301 29.1469 89.4665 28.8129 89.3083 28.3559C89.1501 27.8989 89.0622 27.3803 89.0446 26.8002C89.027 26.2201 89.0622 25.6137 89.1501 24.9809C89.2379 24.3481 89.3434 23.7328 89.4665 23.1352C89.5895 22.5375 89.7126 22.0014 89.8356 21.5268C89.9586 21.0522 90.0465 20.683 90.0993 20.4194C90.1872 20.3666 90.2751 20.3666 90.3629 20.4194C90.4684 20.4721 90.5651 20.5512 90.653 20.6567C90.7585 20.7446 90.8376 20.8324 90.8903 20.9203C90.9606 20.9906 90.9958 21.0258 90.9958 21.0258C91.0485 21.641 91.0485 22.2475 90.9958 22.8451C90.9606 23.4252 90.9079 24.0053 90.8376 24.5854C90.7848 25.1655 90.7321 25.7543 90.6794 26.352C90.6442 26.9496 90.6442 27.5561 90.6794 28.1713C90.82 28.435 91.11 28.4438 91.5495 28.1977C91.9889 27.934 92.5251 27.5209 93.1579 26.9584C93.7907 26.3783 94.4762 25.7016 95.2145 24.9281C95.9704 24.1371 96.7086 23.3549 97.4294 22.5815C98.1676 21.808 98.862 21.0873 99.5124 20.4194C100.163 19.7338 100.708 19.2153 101.147 18.8637C101.604 18.4946 101.921 18.3451 102.096 18.4155C102.272 18.4682 102.246 18.8373 102.017 19.5229C101.595 19.892 101.094 20.4457 100.514 21.184C99.9342 21.9223 99.3014 22.7221 98.6159 23.5834C97.9303 24.4272 97.2184 25.2709 96.4801 26.1147C95.7419 26.9584 94.9948 27.6879 94.2389 28.3031C93.5006 28.9008 92.7799 29.3227 92.0768 29.5688C91.3737 29.7973 90.7145 29.727 90.0993 29.3578Z" fill="#0078A3"/>
<path d="M103.084 29.6742C102.556 29.4985 102.152 29.2348 101.871 28.8832C101.607 28.5141 101.431 28.1098 101.343 27.6703C101.255 27.2309 101.238 26.7739 101.291 26.2992C101.361 25.8071 101.466 25.3412 101.607 24.9018C102.134 24.3393 102.723 23.6977 103.374 22.977C104.042 22.2387 104.745 21.518 105.483 20.8149C106.221 20.1117 106.986 19.4614 107.777 18.8637C108.585 18.2485 109.403 17.7826 110.229 17.4662C110.51 17.3432 110.73 17.352 110.888 17.4926C111.064 17.6156 111.187 17.8178 111.257 18.099C111.328 18.3803 111.354 18.7055 111.336 19.0746C111.336 19.4438 111.31 19.8041 111.257 20.1557C111.205 20.5072 111.134 20.8237 111.046 21.1049C110.959 21.3862 110.871 21.5795 110.783 21.685C110.572 21.9311 110.159 22.2211 109.543 22.5551C108.946 22.8891 108.278 23.2582 107.54 23.6625C106.801 24.0492 106.063 24.4535 105.325 24.8754C104.586 25.2973 103.98 25.7192 103.505 26.141C103.031 26.5453 102.75 26.9496 102.662 27.3539C102.574 27.7582 102.82 28.1274 103.4 28.4614C103.998 28.5317 104.718 28.5053 105.562 28.3822C106.423 28.2416 107.293 28.0658 108.172 27.8549C109.069 27.6264 109.93 27.3979 110.756 27.1694C111.583 26.9233 112.259 26.7299 112.787 26.5893L113.103 26.8793C112.716 27.3891 112.084 27.8549 111.205 28.2768C110.326 28.6987 109.377 29.0502 108.357 29.3315C107.337 29.5951 106.344 29.7709 105.377 29.8588C104.411 29.9291 103.646 29.8676 103.084 29.6742ZM109.385 19.602C109.368 19.5844 109.236 19.6635 108.99 19.8393C108.744 19.9975 108.436 20.2172 108.067 20.4985C107.715 20.7621 107.329 21.061 106.907 21.3949C106.502 21.7114 106.125 22.0102 105.773 22.2914C105.439 22.5727 105.158 22.8188 104.929 23.0297C104.701 23.2231 104.604 23.3197 104.639 23.3197C104.92 23.3725 105.281 23.3373 105.72 23.2143C106.177 23.0737 106.643 22.8803 107.118 22.6342C107.61 22.3881 108.076 22.1156 108.515 21.8168C108.955 21.5004 109.297 21.1928 109.543 20.894C109.807 20.5951 109.939 20.3315 109.939 20.103C109.957 19.8744 109.772 19.7074 109.385 19.602Z" fill="#0078A3"/>
<path d="M112.602 29.6742C113.323 27.3539 113.973 25.517 114.553 24.1635C115.151 22.7924 115.643 21.8344 116.03 21.2895C116.434 20.7446 116.707 20.5688 116.847 20.7621C116.988 20.9555 116.97 21.4477 116.794 22.2387C116.636 23.0297 116.285 24.0932 115.74 25.4291C115.212 26.7475 114.465 28.2592 113.499 29.9643C113.358 30.017 113.191 30.0258 112.998 29.9906C112.804 29.9555 112.672 29.85 112.602 29.6742ZM117.216 16.9916C117.181 16.9037 117.164 16.7455 117.164 16.517C117.164 16.2885 117.181 16.1479 117.216 16.0951C117.621 15.9545 117.928 15.9369 118.139 16.0424C118.35 16.1479 118.482 16.3061 118.535 16.517C118.587 16.7104 118.579 16.9213 118.508 17.1498C118.456 17.3783 118.359 17.5541 118.218 17.6772C118.078 17.7826 117.911 17.8002 117.717 17.7299C117.542 17.642 117.375 17.3959 117.216 16.9916Z" fill="#0078A3"/>
<path d="M118.019 29.6742C117.984 29.6567 117.984 29.4545 118.019 29.0678C118.072 28.6635 118.142 28.1625 118.23 27.5649C118.318 26.9672 118.432 26.308 118.573 25.5873C118.713 24.8666 118.863 24.1811 119.021 23.5307C119.179 22.8627 119.346 22.2826 119.522 21.7905C119.715 21.2807 119.9 20.9291 120.076 20.7358C120.199 20.6127 120.322 20.6127 120.445 20.7358C120.568 20.8412 120.691 20.9819 120.814 21.1576C120.937 21.3158 121.06 21.4653 121.183 21.6059C121.306 21.7289 121.438 21.7377 121.579 21.6322C122.071 20.9467 122.607 20.2963 123.187 19.6811C123.785 19.0483 124.444 18.5033 125.164 18.0463C125.235 17.9936 125.428 17.9145 125.745 17.809C126.061 17.686 126.421 17.5717 126.826 17.4662C127.23 17.3432 127.643 17.2465 128.065 17.1762C128.504 17.0883 128.873 17.0531 129.172 17.0707C129.489 17.0707 129.7 17.1498 129.805 17.308C129.928 17.4487 129.875 17.6947 129.647 18.0463C128.592 18.0639 127.608 18.3715 126.694 18.9692C125.78 19.5668 124.936 20.3051 124.163 21.184C123.389 22.0629 122.686 23.0209 122.053 24.058C121.42 25.0776 120.867 26.0268 120.392 26.9057C119.935 27.7846 119.548 28.5141 119.232 29.0942C118.933 29.6742 118.713 29.9643 118.573 29.9643C118.555 29.9643 118.476 29.9291 118.335 29.8588C118.195 29.7709 118.089 29.7094 118.019 29.6742Z" fill="#0078A3"/>
<path d="M127.252 29.3578C126.83 29.0063 126.593 28.4877 126.54 27.8022C126.505 27.1166 126.601 26.3432 126.83 25.4819C127.076 24.6205 127.427 23.724 127.885 22.7924C128.359 21.8432 128.904 20.9467 129.519 20.103C130.135 19.2416 130.802 18.477 131.523 17.809C132.244 17.1235 132.965 16.6225 133.685 16.3061C134.406 15.9721 135.109 15.8578 135.795 15.9633C136.48 16.0512 137.104 16.4467 137.667 17.1498C138.018 17.5893 138.229 18.0375 138.3 18.4946C138.37 18.934 138.361 19.391 138.273 19.8656C138.185 20.3227 138.045 20.7973 137.851 21.2895C137.658 21.7641 137.465 22.2475 137.271 22.7397C137.095 23.2319 136.946 23.7328 136.823 24.2426C136.718 24.7524 136.7 25.2709 136.77 25.7983C136.858 26.4662 137.157 26.8617 137.667 26.9848C138.177 27.1078 138.783 27.0727 139.486 26.8793C140.207 26.686 140.963 26.3783 141.754 25.9565C142.545 25.5346 143.274 25.1127 143.942 24.6908C144.628 24.269 145.19 23.8998 145.63 23.5834C146.087 23.267 146.315 23.1088 146.315 23.1088C146.807 23.0033 147.08 23.0385 147.133 23.2143C147.203 23.3725 147.106 23.6186 146.843 23.9526C146.596 24.269 146.219 24.6381 145.709 25.06C145.199 25.4643 144.619 25.8598 143.969 26.2465C143.318 26.6332 142.624 26.9848 141.885 27.3012C141.147 27.6176 140.427 27.8373 139.723 27.9604C139.02 28.0658 138.352 28.0571 137.719 27.934C137.104 27.7934 136.594 27.477 136.19 26.9848C135.997 26.7739 135.847 26.5629 135.742 26.352C135.654 26.141 135.505 25.9565 135.294 25.7983C135.03 26.0444 134.714 26.3696 134.344 26.7739C133.975 27.1606 133.571 27.5561 133.132 27.9604C132.71 28.3471 132.253 28.7162 131.76 29.0678C131.286 29.4194 130.794 29.683 130.284 29.8588C129.774 30.0346 129.256 30.0961 128.728 30.0434C128.218 29.9906 127.726 29.7621 127.252 29.3578ZM127.542 28.4614C127.7 29.0239 128.052 29.2875 128.596 29.2524C129.141 29.1996 129.774 28.9272 130.495 28.435C131.216 27.9428 131.963 27.2748 132.736 26.4311C133.51 25.5697 134.204 24.6205 134.819 23.5834C135.434 22.5287 135.9 21.4213 136.217 20.2612C136.551 19.101 136.638 17.9584 136.48 16.8334C136.058 16.4994 135.531 16.4906 134.898 16.8071C134.265 17.1059 133.589 17.6069 132.868 18.31C132.165 18.9955 131.462 19.8217 130.759 20.7885C130.073 21.7377 129.467 22.7045 128.939 23.6889C128.412 24.6557 128.008 25.5697 127.726 26.4311C127.463 27.2924 127.401 27.9692 127.542 28.4614Z" fill="#0078A3"/>
<path d="M23.4386 41.7324H21.1531V40.2174H27.5942V41.7324H25.3087V46.3988H23.4386V41.7324Z" fill="#FF9A2E"/>
<path d="M32.7937 43.8362C32.7937 44.2517 32.8976 44.5576 33.1054 44.7539C33.3189 44.9501 33.6537 45.0482 34.1096 45.0482C34.5714 45.0482 34.9061 44.9501 35.1139 44.7539C35.3274 44.5576 35.4342 44.2517 35.4342 43.8362V40.2174H37.3042V43.689C37.3042 44.7048 37.0301 45.4378 36.4818 45.888C35.9335 46.3324 35.1427 46.5546 34.1096 46.5546C33.0823 46.5546 32.2944 46.3324 31.7461 45.888C31.1978 45.4378 30.9237 44.7048 30.9237 43.689V40.2174H32.7937V43.8362Z" fill="#FF9A2E"/>
<path d="M41.2331 40.2174H44.1593C45.406 40.2174 46.3467 40.48 46.9816 41.0052C47.6165 41.5246 47.9339 42.2923 47.9339 43.3081C47.9339 44.2892 47.6021 45.0511 46.9383 45.5936C46.2746 46.1304 45.3223 46.3988 44.0814 46.3988H41.2331V40.2174ZM44.1247 44.9184C45.4002 44.9184 46.038 44.3787 46.038 43.2994C46.038 42.2317 45.4233 41.6978 44.1939 41.6978H43.0771V44.9184H44.1247Z" fill="#FF9A2E"/>
<path d="M55.07 46.5546C54.3082 46.5546 53.6531 46.4247 53.1048 46.165C52.5565 45.9053 52.1323 45.533 51.8322 45.0482C51.5378 44.5634 51.3906 43.9833 51.3906 43.3081C51.3906 42.6328 51.5407 42.0527 51.8408 41.5679C52.1409 41.0831 52.568 40.7108 53.1221 40.4511C53.6762 40.1914 54.3371 40.0615 55.1047 40.0615C55.8665 40.0615 56.5216 40.1914 57.0699 40.4511C57.6182 40.7108 58.0396 41.0831 58.3339 41.5679C58.634 42.0527 58.7841 42.6328 58.7841 43.3081C58.7841 43.9833 58.634 44.5634 58.3339 45.0482C58.0338 45.533 57.6067 45.9053 57.0526 46.165C56.4985 46.4247 55.8377 46.5546 55.07 46.5546ZM56.8448 43.3081C56.8448 42.754 56.689 42.3269 56.3773 42.0268C56.0714 41.7209 55.6414 41.5679 55.0874 41.5679C54.5333 41.5679 54.1004 41.7209 53.7887 42.0268C53.4828 42.3327 53.3299 42.7598 53.3299 43.3081C53.3299 43.8621 53.4828 44.2921 53.7887 44.598C54.1004 44.8982 54.5333 45.0482 55.0874 45.0482C55.6414 45.0482 56.0714 44.8953 56.3773 44.5894C56.689 44.2835 56.8448 43.8564 56.8448 43.3081Z" fill="#FF9A2E"/>
<path d="M67.4557 40.2174H70.3819C71.6286 40.2174 72.5693 40.48 73.2042 41.0052C73.8391 41.5246 74.1565 42.2923 74.1565 43.3081C74.1565 44.2892 73.8247 45.0511 73.1609 45.5936C72.4972 46.1304 71.5449 46.3988 70.304 46.3988H67.4557V40.2174ZM70.3473 44.9184C71.6228 44.9184 72.2606 44.3787 72.2606 43.2994C72.2606 42.2317 71.6459 41.6978 70.4165 41.6978H69.2997V44.9184H70.3473Z" fill="#FF9A2E"/>
<path d="M77.8903 40.2174H83.3012V41.5766H79.717V42.5808H83.128V43.9401H79.717V45.0396H83.509L83.3358 46.3988H77.8903V40.2174Z" fill="#FF9A2E"/>
<path d="M93.8024 41.7324H91.5168V40.2174H97.958V41.7324H95.6724V46.3988H93.8024V41.7324Z" fill="#FF9A2E"/>
<path d="M101.357 40.2174H106.768V41.5766H103.183V42.5808H106.594V43.9401H103.183V45.0396H106.975L106.802 46.3988H101.357V40.2174Z" fill="#FF9A2E"/>
<path d="M117.438 46.3988H115.247L113.672 44.3296L112.096 46.3988H110.018L112.529 43.1869L110.209 40.2174H112.399L113.698 42.0181L115.066 40.2174H117.143L114.849 43.1263L117.438 46.3988Z" fill="#FF9A2E"/>
<path d="M122.511 41.7324H120.225V40.2174H126.666V41.7324H124.381V46.3988H122.511V41.7324Z" fill="#FF9A2E"/>
<path d="M133.188 46.5546C132.426 46.5546 131.771 46.4247 131.223 46.165C130.675 45.9053 130.251 45.533 129.95 45.0482C129.656 44.5634 129.509 43.9833 129.509 43.3081C129.509 42.6328 129.659 42.0527 129.959 41.5679C130.259 41.0831 130.686 40.7108 131.24 40.4511C131.794 40.1914 132.455 40.0615 133.223 40.0615C133.985 40.0615 134.64 40.1914 135.188 40.4511C135.736 40.7108 136.158 41.0831 136.452 41.5679C136.752 42.0527 136.902 42.6328 136.902 43.3081C136.902 43.9833 136.752 44.5634 136.452 45.0482C136.152 45.533 135.725 45.9053 135.171 46.165C134.617 46.4247 133.956 46.5546 133.188 46.5546ZM134.963 43.3081C134.963 42.754 134.807 42.3269 134.496 42.0268C134.19 41.7209 133.76 41.5679 133.206 41.5679C132.652 41.5679 132.219 41.7209 131.907 42.0268C131.601 42.3327 131.448 42.7598 131.448 43.3081C131.448 43.8621 131.601 44.2921 131.907 44.598C132.219 44.8982 132.652 45.0482 133.206 45.0482C133.76 45.0482 134.19 44.8953 134.496 44.5894C134.807 44.2835 134.963 43.8564 134.963 43.3081Z" fill="#FF9A2E"/>
<path d="M21.1602 54.3867H22.0082C22.0588 54.648 22.2775 54.7787 22.6642 54.7787C23.0588 54.7787 23.2562 54.684 23.2562 54.4947C23.2562 54.428 23.2268 54.3747 23.1682 54.3347C23.1095 54.292 23.0135 54.2614 22.8802 54.2427L22.3682 54.1667C21.9735 54.1054 21.6855 54.0027 21.5042 53.8587C21.3255 53.7147 21.2362 53.5174 21.2362 53.2667C21.2362 52.9894 21.3615 52.7734 21.6122 52.6187C21.8655 52.464 22.2135 52.3867 22.6562 52.3867C23.4748 52.3867 23.9335 52.6734 24.0322 53.2467L23.2122 53.3267C23.1695 53.2094 23.1028 53.1254 23.0122 53.0747C22.9215 53.0214 22.7935 52.9947 22.6282 52.9947C22.4522 52.9947 22.3162 53.016 22.2202 53.0587C22.1268 53.1014 22.0802 53.1627 22.0802 53.2427C22.0802 53.3094 22.1055 53.36 22.1562 53.3947C22.2068 53.4294 22.3002 53.4574 22.4362 53.4787L23.0602 53.5787C23.4308 53.6374 23.6988 53.7374 23.8642 53.8787C24.0295 54.0174 24.1122 54.2134 24.1122 54.4667C24.1122 54.7707 23.9895 55 23.7442 55.1547C23.4988 55.3094 23.1375 55.3867 22.6602 55.3867C21.7215 55.3867 21.2215 55.0534 21.1602 54.3867Z" fill="#FF9A2E"/>
<path d="M27.3435 55.3867C26.9915 55.3867 26.6888 55.3267 26.4355 55.2067C26.1821 55.0867 25.9861 54.9147 25.8475 54.6907C25.7115 54.4667 25.6435 54.1987 25.6435 53.8867C25.6435 53.5747 25.7128 53.3067 25.8515 53.0827C25.9901 52.8587 26.1875 52.6867 26.4435 52.5667C26.6995 52.4467 27.0048 52.3867 27.3595 52.3867C27.7115 52.3867 28.0141 52.4467 28.2675 52.5667C28.5208 52.6867 28.7155 52.8587 28.8515 53.0827C28.9901 53.3067 29.0595 53.5747 29.0595 53.8867C29.0595 54.1987 28.9901 54.4667 28.8515 54.6907C28.7128 54.9147 28.5155 55.0867 28.2595 55.2067C28.0035 55.3267 27.6981 55.3867 27.3435 55.3867ZM28.1635 53.8867C28.1635 53.6307 28.0915 53.4334 27.9475 53.2947C27.8061 53.1534 27.6075 53.0827 27.3515 53.0827C27.0955 53.0827 26.8955 53.1534 26.7515 53.2947C26.6101 53.436 26.5395 53.6334 26.5395 53.8867C26.5395 54.1427 26.6101 54.3414 26.7515 54.4827C26.8955 54.6214 27.0955 54.6907 27.3515 54.6907C27.6075 54.6907 27.8061 54.62 27.9475 54.4787C28.0915 54.3374 28.1635 54.14 28.1635 53.8867Z" fill="#FF9A2E"/>
<path d="M30.7801 52.4587H31.6441V54.6147H33.2681L33.1801 55.3147H30.7801V52.4587Z" fill="#FF9A2E"/>
<path d="M35.6636 54.1307C35.6636 54.3227 35.7116 54.464 35.8076 54.5547C35.9063 54.6454 36.061 54.6907 36.2716 54.6907C36.485 54.6907 36.6396 54.6454 36.7356 54.5547C36.8343 54.464 36.8836 54.3227 36.8836 54.1307V52.4587H37.7476V54.0627C37.7476 54.532 37.621 54.8707 37.3676 55.0787C37.1143 55.284 36.749 55.3867 36.2716 55.3867C35.797 55.3867 35.433 55.284 35.1796 55.0787C34.9263 54.8707 34.7996 54.532 34.7996 54.0627V52.4587H35.6636V54.1307Z" fill="#FF9A2E"/>
<path d="M42.5789 53.4027L41.7269 53.4947C41.6762 53.348 41.6002 53.2427 41.4989 53.1787C41.3975 53.1147 41.2602 53.0827 41.0869 53.0827C40.8495 53.0827 40.6642 53.152 40.5309 53.2907C40.3975 53.4267 40.3309 53.6254 40.3309 53.8867C40.3309 54.148 40.3975 54.348 40.5309 54.4867C40.6669 54.6227 40.8575 54.6907 41.1029 54.6907C41.4815 54.6907 41.7042 54.544 41.7709 54.2507H42.6349C42.6002 54.6107 42.4455 54.8907 42.1709 55.0907C41.8989 55.288 41.5362 55.3867 41.0829 55.3867C40.7202 55.3867 40.4162 55.3227 40.1709 55.1947C39.9282 55.0667 39.7442 54.8907 39.6189 54.6667C39.4962 54.44 39.4349 54.18 39.4349 53.8867C39.4349 53.6014 39.4962 53.3454 39.6189 53.1187C39.7442 52.892 39.9295 52.7134 40.1749 52.5827C40.4202 52.452 40.7255 52.3867 41.0909 52.3867C41.9149 52.3867 42.4109 52.7254 42.5789 53.4027ZM40.8749 55.2267L41.2549 55.3147L41.1789 55.4907C41.3469 55.5094 41.4709 55.5494 41.5509 55.6107C41.6309 55.6747 41.6709 55.7574 41.6709 55.8587C41.6709 55.976 41.6122 56.068 41.4949 56.1347C41.3775 56.2014 41.2122 56.2347 40.9989 56.2347C40.8042 56.2347 40.6509 56.216 40.5389 56.1787V55.8547C40.6055 55.8654 40.6642 55.8734 40.7149 55.8787C40.7682 55.8867 40.8189 55.8907 40.8669 55.8907C40.9522 55.8907 41.0135 55.8827 41.0509 55.8667C41.0909 55.8534 41.1109 55.832 41.1109 55.8027C41.1109 55.7654 41.0869 55.74 41.0389 55.7267C40.9935 55.7134 40.9149 55.7067 40.8029 55.7067H40.6629L40.8749 55.2267Z" fill="#FF9A2E"/>
<path d="M45.8505 55.3867C45.4985 55.3867 45.1958 55.3267 44.9425 55.2067C44.6892 55.0867 44.4932 54.9147 44.3545 54.6907C44.2185 54.4667 44.1505 54.1987 44.1505 53.8867C44.1505 53.5747 44.2198 53.3067 44.3585 53.0827C44.4972 52.8587 44.6945 52.6867 44.9505 52.5667C45.2065 52.4467 45.5118 52.3867 45.8665 52.3867C46.2185 52.3867 46.5212 52.4467 46.7745 52.5667C47.0278 52.6867 47.2225 52.8587 47.3585 53.0827C47.4972 53.3067 47.5665 53.5747 47.5665 53.8867C47.5665 54.1987 47.4972 54.4667 47.3585 54.6907C47.2198 54.9147 47.0225 55.0867 46.7665 55.2067C46.5105 55.3267 46.2052 55.3867 45.8505 55.3867ZM46.6705 53.8867C46.6705 53.6307 46.5985 53.4334 46.4545 53.2947C46.3132 53.1534 46.1145 53.0827 45.8585 53.0827C45.6025 53.0827 45.4025 53.1534 45.2585 53.2947C45.1172 53.436 45.0465 53.6334 45.0465 53.8867C45.0465 54.1427 45.1172 54.3414 45.2585 54.4827C45.4025 54.6214 45.6025 54.6907 45.8585 54.6907C46.1145 54.6907 46.3132 54.62 46.4545 54.4787C46.5985 54.3374 46.6705 54.14 46.6705 53.8867ZM44.9545 52.2227C44.9545 51.9854 44.9985 51.8147 45.0865 51.7107C45.1745 51.6067 45.3065 51.5547 45.4825 51.5547C45.6105 51.5547 45.7625 51.5987 45.9385 51.6867C46.0078 51.7214 46.0612 51.7454 46.0985 51.7587C46.1358 51.772 46.1692 51.7787 46.1985 51.7787C46.2492 51.7787 46.2825 51.7627 46.2985 51.7307C46.3145 51.696 46.3225 51.6414 46.3225 51.5667H46.7985C46.7985 51.796 46.7545 51.9654 46.6665 52.0747C46.5785 52.1814 46.4465 52.2347 46.2705 52.2347C46.1452 52.2347 45.9972 52.192 45.8265 52.1067C45.6958 52.0427 45.6052 52.0107 45.5545 52.0107C45.5065 52.0107 45.4732 52.0294 45.4545 52.0667C45.4385 52.1014 45.4305 52.1534 45.4305 52.2227H44.9545Z" fill="#FF9A2E"/>
<path d="M49.2871 52.4587H51.7871V53.0867H50.1311V53.5507H51.7071V54.1787H50.1311V54.6867H51.8831L51.8031 55.3147H49.2871V52.4587Z" fill="#FF9A2E"/>
<path d="M53.357 54.3867H54.205C54.2557 54.648 54.4744 54.7787 54.861 54.7787C55.2557 54.7787 55.453 54.684 55.453 54.4947C55.453 54.428 55.4237 54.3747 55.365 54.3347C55.3064 54.292 55.2104 54.2614 55.077 54.2427L54.565 54.1667C54.1704 54.1054 53.8824 54.0027 53.701 53.8587C53.5224 53.7147 53.433 53.5174 53.433 53.2667C53.433 52.9894 53.5584 52.7734 53.809 52.6187C54.0624 52.464 54.4104 52.3867 54.853 52.3867C55.6717 52.3867 56.1304 52.6734 56.229 53.2467L55.409 53.3267C55.3664 53.2094 55.2997 53.1254 55.209 53.0747C55.1184 53.0214 54.9904 52.9947 54.825 52.9947C54.649 52.9947 54.513 53.016 54.417 53.0587C54.3237 53.1014 54.277 53.1627 54.277 53.2427C54.277 53.3094 54.3024 53.36 54.353 53.3947C54.4037 53.4294 54.497 53.4574 54.633 53.4787L55.257 53.5787C55.6277 53.6374 55.8957 53.7374 56.061 53.8787C56.2264 54.0174 56.309 54.2134 56.309 54.4667C56.309 54.7707 56.1864 55 55.941 55.1547C55.6957 55.3094 55.3344 55.3867 54.857 55.3867C53.9184 55.3867 53.4184 55.0534 53.357 54.3867Z" fill="#FF9A2E"/>
<path d="M60.2543 52.4587H61.6743C62.5303 52.4587 62.9583 52.788 62.9583 53.4467C62.9583 53.7854 62.8476 54.036 62.6263 54.1987C62.4076 54.3587 62.0743 54.4387 61.6263 54.4387H61.0903V55.3147H60.2543V52.4587ZM61.6103 53.7987C61.7836 53.7987 61.9116 53.772 61.9943 53.7187C62.0769 53.6654 62.1183 53.5734 62.1183 53.4427C62.1183 53.32 62.0783 53.232 61.9983 53.1787C61.9183 53.1254 61.7916 53.0987 61.6183 53.0987H61.0903V53.7987H61.6103Z" fill="#FF9A2E"/>
<path d="M65.2111 52.4587H66.2191L67.4591 55.3147H66.5631L66.3511 54.7947H65.0471L64.8471 55.3147H63.9711L65.2111 52.4587ZM66.1111 54.1547L65.7031 53.1107L65.2951 54.1547H66.1111Z" fill="#FF9A2E"/>
<path d="M69.0215 52.4587H70.4895C71.3455 52.4587 71.7735 52.7747 71.7735 53.4067C71.7735 53.6094 71.7308 53.7747 71.6455 53.9027C71.5601 54.028 71.4348 54.128 71.2695 54.2027L71.9695 55.3147H71.0455L70.4815 54.3667H69.8295V55.3147H69.0215V52.4587ZM70.4375 53.7507C70.6135 53.7507 70.7415 53.7254 70.8215 53.6747C70.9041 53.6214 70.9455 53.5334 70.9455 53.4107C70.9455 53.288 70.9068 53.2014 70.8295 53.1507C70.7521 53.1 70.6241 53.0747 70.4455 53.0747H69.8295V53.7507H70.4375Z" fill="#FF9A2E"/>
<path d="M74.5212 52.4587H75.5292L76.7692 55.3147H75.8732L75.6612 54.7947H74.3572L74.1572 55.3147H73.2812L74.5212 52.4587ZM75.4212 54.1547L75.0132 53.1107L74.6052 54.1547H75.4212Z" fill="#FF9A2E"/>
<path d="M81.5736 52.4587H82.5816L83.8216 55.3147H82.9256L82.7136 54.7947H81.4096L81.2096 55.3147H80.3336L81.5736 52.4587ZM82.4736 54.1547L82.0656 53.1107L81.6576 54.1547H82.4736Z" fill="#FF9A2E"/>
<path d="M90.6859 53.4027L89.8339 53.4947C89.7832 53.348 89.7072 53.2427 89.6059 53.1787C89.5046 53.1147 89.3672 53.0827 89.1939 53.0827C88.9566 53.0827 88.7712 53.152 88.6379 53.2907C88.5046 53.4267 88.4379 53.6254 88.4379 53.8867C88.4379 54.148 88.5046 54.348 88.6379 54.4867C88.7739 54.6227 88.9646 54.6907 89.2099 54.6907C89.5886 54.6907 89.8112 54.544 89.8779 54.2507H90.7419C90.7072 54.6107 90.5526 54.8907 90.2779 55.0907C90.0059 55.288 89.6432 55.3867 89.1899 55.3867C88.8272 55.3867 88.5232 55.3227 88.2779 55.1947C88.0352 55.0667 87.8512 54.8907 87.7259 54.6667C87.6032 54.44 87.5419 54.18 87.5419 53.8867C87.5419 53.6014 87.6032 53.3454 87.7259 53.1187C87.8512 52.892 88.0366 52.7134 88.2819 52.5827C88.5272 52.452 88.8326 52.3867 89.1979 52.3867C90.0219 52.3867 90.5179 52.7254 90.6859 53.4027Z" fill="#FF9A2E"/>
<path d="M93.9575 55.3867C93.6055 55.3867 93.3029 55.3267 93.0495 55.2067C92.7962 55.0867 92.6002 54.9147 92.4615 54.6907C92.3255 54.4667 92.2575 54.1987 92.2575 53.8867C92.2575 53.5747 92.3269 53.3067 92.4655 53.0827C92.6042 52.8587 92.8015 52.6867 93.0575 52.5667C93.3135 52.4467 93.6189 52.3867 93.9735 52.3867C94.3255 52.3867 94.6282 52.4467 94.8815 52.5667C95.1349 52.6867 95.3295 52.8587 95.4655 53.0827C95.6042 53.3067 95.6735 53.5747 95.6735 53.8867C95.6735 54.1987 95.6042 54.4667 95.4655 54.6907C95.3269 54.9147 95.1295 55.0867 94.8735 55.2067C94.6175 55.3267 94.3122 55.3867 93.9575 55.3867ZM94.7775 53.8867C94.7775 53.6307 94.7055 53.4334 94.5615 53.2947C94.4202 53.1534 94.2215 53.0827 93.9655 53.0827C93.7095 53.0827 93.5095 53.1534 93.3655 53.2947C93.2242 53.436 93.1535 53.6334 93.1535 53.8867C93.1535 54.1427 93.2242 54.3414 93.3655 54.4827C93.5095 54.6214 93.7095 54.6907 93.9655 54.6907C94.2215 54.6907 94.4202 54.62 94.5615 54.4787C94.7055 54.3374 94.7775 54.14 94.7775 53.8867Z" fill="#FF9A2E"/>
<path d="M97.3941 52.4587H98.3701L99.2301 54.3907L100.086 52.4587H101.042V55.3147H100.25V53.6507L99.5261 55.3147H98.8941L98.1741 53.6587V55.3147H97.3941V52.4587Z" fill="#FF9A2E"/>
<path d="M103.727 54.1307C103.727 54.3227 103.775 54.464 103.871 54.5547C103.97 54.6454 104.124 54.6907 104.335 54.6907C104.548 54.6907 104.703 54.6454 104.799 54.5547C104.898 54.464 104.947 54.3227 104.947 54.1307V52.4587H105.811V54.0627C105.811 54.532 105.684 54.8707 105.431 55.0787C105.178 55.284 104.812 55.3867 104.335 55.3867C103.86 55.3867 103.496 55.284 103.243 55.0787C102.99 54.8707 102.863 54.532 102.863 54.0627V52.4587H103.727V54.1307Z" fill="#FF9A2E"/>
<path d="M107.626 52.4587H108.394L109.822 54.1747V52.4587H110.638V55.3147H109.87L108.442 53.5987V55.3147H107.626V52.4587Z" fill="#FF9A2E"/>
<path d="M112.486 52.4587H113.35V55.3147H112.486V52.4587Z" fill="#FF9A2E"/>
<path d="M118.214 53.4027L117.362 53.4947C117.311 53.348 117.235 53.2427 117.134 53.1787C117.033 53.1147 116.895 53.0827 116.722 53.0827C116.485 53.0827 116.299 53.152 116.166 53.2907C116.033 53.4267 115.966 53.6254 115.966 53.8867C115.966 54.148 116.033 54.348 116.166 54.4867C116.302 54.6227 116.493 54.6907 116.738 54.6907C117.117 54.6907 117.339 54.544 117.406 54.2507H118.27C118.235 54.6107 118.081 54.8907 117.806 55.0907C117.534 55.288 117.171 55.3867 116.718 55.3867C116.355 55.3867 116.051 55.3227 115.806 55.1947C115.563 55.0667 115.379 54.8907 115.254 54.6667C115.131 54.44 115.07 54.18 115.07 53.8867C115.07 53.6014 115.131 53.3454 115.254 53.1187C115.379 52.892 115.565 52.7134 115.81 52.5827C116.055 52.452 116.361 52.3867 116.726 52.3867C117.55 52.3867 118.046 52.7254 118.214 53.4027Z" fill="#FF9A2E"/>
<path d="M120.768 52.4587H121.776L123.016 55.3147H122.12L121.908 54.7947H120.604L120.404 55.3147H119.528L120.768 52.4587ZM121.668 54.1547L121.26 53.1107L120.852 54.1547H121.668Z" fill="#FF9A2E"/>
<path d="M127.419 53.4027L126.567 53.4947C126.516 53.348 126.44 53.2427 126.339 53.1787C126.237 53.1147 126.1 53.0827 125.927 53.0827C125.689 53.0827 125.504 53.152 125.371 53.2907C125.237 53.4267 125.171 53.6254 125.171 53.8867C125.171 54.148 125.237 54.348 125.371 54.4867C125.507 54.6227 125.697 54.6907 125.943 54.6907C126.321 54.6907 126.544 54.544 126.611 54.2507H127.475C127.44 54.6107 127.285 54.8907 127.011 55.0907C126.739 55.288 126.376 55.3867 125.923 55.3867C125.56 55.3867 125.256 55.3227 125.011 55.1947C124.768 55.0667 124.584 54.8907 124.459 54.6667C124.336 54.44 124.275 54.18 124.275 53.8867C124.275 53.6014 124.336 53.3454 124.459 53.1187C124.584 52.892 124.769 52.7134 125.015 52.5827C125.26 52.452 125.565 52.3867 125.931 52.3867C126.755 52.3867 127.251 52.7254 127.419 53.4027ZM125.715 55.2267L126.095 55.3147L126.019 55.4907C126.187 55.5094 126.311 55.5494 126.391 55.6107C126.471 55.6747 126.511 55.7574 126.511 55.8587C126.511 55.976 126.452 56.068 126.335 56.1347C126.217 56.2014 126.052 56.2347 125.839 56.2347C125.644 56.2347 125.491 56.216 125.379 56.1787V55.8547C125.445 55.8654 125.504 55.8734 125.555 55.8787C125.608 55.8867 125.659 55.8907 125.707 55.8907C125.792 55.8907 125.853 55.8827 125.891 55.8667C125.931 55.8534 125.951 55.832 125.951 55.8027C125.951 55.7654 125.927 55.74 125.879 55.7267C125.833 55.7134 125.755 55.7067 125.643 55.7067H125.503L125.715 55.2267Z" fill="#FF9A2E"/>
<path d="M129.973 52.4587H130.981L132.221 55.3147H131.325L131.113 54.7947H129.809L129.609 55.3147H128.733L129.973 52.4587ZM130.873 54.1547L130.465 53.1107L130.057 54.1547H130.873ZM129.573 52.2227C129.573 51.9854 129.617 51.8147 129.705 51.7107C129.793 51.6067 129.925 51.5547 130.101 51.5547C130.229 51.5547 130.381 51.5987 130.557 51.6867C130.626 51.7214 130.679 51.7454 130.717 51.7587C130.754 51.772 130.787 51.7787 130.817 51.7787C130.867 51.7787 130.901 51.7627 130.917 51.7307C130.933 51.696 130.941 51.6414 130.941 51.5667H131.417C131.417 51.796 131.373 51.9654 131.285 52.0747C131.197 52.1814 131.065 52.2347 130.889 52.2347C130.763 52.2347 130.615 52.192 130.445 52.1067C130.314 52.0427 130.223 52.0107 130.173 52.0107C130.125 52.0107 130.091 52.0294 130.073 52.0667C130.057 52.1014 130.049 52.1534 130.049 52.2227H129.573Z" fill="#FF9A2E"/>
<path d="M135.179 55.3867C134.827 55.3867 134.525 55.3267 134.271 55.2067C134.018 55.0867 133.822 54.9147 133.683 54.6907C133.547 54.4667 133.479 54.1987 133.479 53.8867C133.479 53.5747 133.549 53.3067 133.687 53.0827C133.826 52.8587 134.023 52.6867 134.279 52.5667C134.535 52.4467 134.841 52.3867 135.195 52.3867C135.547 52.3867 135.85 52.4467 136.103 52.5667C136.357 52.6867 136.551 52.8587 136.687 53.0827C136.826 53.3067 136.895 53.5747 136.895 53.8867C136.895 54.1987 136.826 54.4667 136.687 54.6907C136.549 54.9147 136.351 55.0867 136.095 55.2067C135.839 55.3267 135.534 55.3867 135.179 55.3867ZM135.999 53.8867C135.999 53.6307 135.927 53.4334 135.783 53.2947C135.642 53.1534 135.443 53.0827 135.187 53.0827C134.931 53.0827 134.731 53.1534 134.587 53.2947C134.446 53.436 134.375 53.6334 134.375 53.8867C134.375 54.1427 134.446 54.3414 134.587 54.4827C134.731 54.6214 134.931 54.6907 135.187 54.6907C135.443 54.6907 135.642 54.62 135.783 54.4787C135.927 54.3374 135.999 54.14 135.999 53.8867Z" fill="#FF9A2E"/>
<path d="M53.3204 60.3867C52.9684 60.3867 52.6658 60.3267 52.4124 60.2067C52.1591 60.0867 51.9631 59.9147 51.8244 59.6907C51.6884 59.4667 51.6204 59.1987 51.6204 58.8867C51.6204 58.5747 51.6898 58.3067 51.8284 58.0827C51.9671 57.8587 52.1644 57.6867 52.4204 57.5667C52.6764 57.4467 52.9818 57.3867 53.3364 57.3867C53.6884 57.3867 53.9911 57.4467 54.2444 57.5667C54.4978 57.6867 54.6924 57.8587 54.8284 58.0827C54.9671 58.3067 55.0364 58.5747 55.0364 58.8867C55.0364 59.1987 54.9671 59.4667 54.8284 59.6907C54.6898 59.9147 54.4924 60.0867 54.2364 60.2067C53.9804 60.3267 53.6751 60.3867 53.3204 60.3867ZM54.1404 58.8867C54.1404 58.6307 54.0684 58.4334 53.9244 58.2947C53.7831 58.1534 53.5844 58.0827 53.3284 58.0827C53.0724 58.0827 52.8724 58.1534 52.7284 58.2947C52.5871 58.436 52.5164 58.6334 52.5164 58.8867C52.5164 59.1427 52.5871 59.3414 52.7284 59.4827C52.8724 59.6214 53.0724 59.6907 53.3284 59.6907C53.5844 59.6907 53.7831 59.62 53.9244 59.4787C54.0684 59.3374 54.1404 59.14 54.1404 58.8867Z" fill="#FF9A2E"/>
<path d="M56.757 57.4587H58.225C59.081 57.4587 59.509 57.7747 59.509 58.4067C59.509 58.6094 59.4664 58.7747 59.381 58.9027C59.2957 59.028 59.1703 59.128 59.005 59.2027L59.705 60.3147H58.781L58.217 59.3667H57.565V60.3147H56.757V57.4587ZM58.173 58.7507C58.349 58.7507 58.477 58.7254 58.557 58.6747C58.6397 58.6214 58.681 58.5334 58.681 58.4107C58.681 58.288 58.6423 58.2014 58.565 58.1507C58.4877 58.1 58.3597 58.0747 58.181 58.0747H57.565V58.7507H58.173Z" fill="#FF9A2E"/>
<path d="M62.2568 57.4587H63.2648L64.5048 60.3147H63.6088L63.3968 59.7947H62.0928L61.8928 60.3147H61.0168L62.2568 57.4587ZM63.1568 59.1547L62.7488 58.1107L62.3408 59.1547H63.1568Z" fill="#FF9A2E"/>
<path d="M66.0672 57.4587H66.9312V59.6147H68.5552L68.4672 60.3147H66.0672V57.4587Z" fill="#FF9A2E"/>
<path d="M72.4594 57.4587H74.9594V58.0867H73.3034V58.5507H74.8794V59.1787H73.3034V59.6867H75.0554L74.9754 60.3147H72.4594V57.4587Z" fill="#FF9A2E"/>
<path d="M79.0312 57.4587H81.5312V58.0867H79.8752V58.5507H81.4512V59.1787H79.8752V59.6867H81.6272L81.5472 60.3147H79.0312V57.4587Z" fill="#FF9A2E"/>
<path d="M83.1012 59.3867H83.9492C83.9998 59.648 84.2185 59.7787 84.6052 59.7787C84.9998 59.7787 85.1972 59.684 85.1972 59.4947C85.1972 59.428 85.1678 59.3747 85.1092 59.3347C85.0505 59.292 84.9545 59.2614 84.8212 59.2427L84.3092 59.1667C83.9145 59.1054 83.6265 59.0027 83.4452 58.8587C83.2665 58.7147 83.1772 58.5174 83.1772 58.2667C83.1772 57.9894 83.3025 57.7734 83.5532 57.6187C83.8065 57.464 84.1545 57.3867 84.5972 57.3867C85.4158 57.3867 85.8745 57.6734 85.9732 58.2467L85.1532 58.3267C85.1105 58.2094 85.0438 58.1254 84.9532 58.0747C84.8625 58.0214 84.7345 57.9947 84.5692 57.9947C84.3932 57.9947 84.2572 58.016 84.1612 58.0587C84.0678 58.1014 84.0212 58.1627 84.0212 58.2427C84.0212 58.3094 84.0465 58.36 84.0972 58.3947C84.1478 58.4294 84.2412 58.4574 84.3772 58.4787L85.0012 58.5787C85.3718 58.6374 85.6398 58.7374 85.8052 58.8787C85.9705 59.0174 86.0532 59.2134 86.0532 59.4667C86.0532 59.7707 85.9305 60 85.6852 60.1547C85.4398 60.3094 85.0785 60.3867 84.6012 60.3867C83.6625 60.3867 83.1625 60.0534 83.1012 59.3867Z" fill="#FF9A2E"/>
<path d="M90.7285 58.4027L89.8765 58.4947C89.8258 58.348 89.7498 58.2427 89.6485 58.1787C89.5472 58.1147 89.4098 58.0827 89.2365 58.0827C88.9992 58.0827 88.8138 58.152 88.6805 58.2907C88.5472 58.4267 88.4805 58.6254 88.4805 58.8867C88.4805 59.148 88.5472 59.348 88.6805 59.4867C88.8165 59.6227 89.0072 59.6907 89.2525 59.6907C89.6312 59.6907 89.8538 59.544 89.9205 59.2507H90.7845C90.7498 59.6107 90.5952 59.8907 90.3205 60.0907C90.0485 60.288 89.6858 60.3867 89.2325 60.3867C88.8698 60.3867 88.5658 60.3227 88.3205 60.1947C88.0778 60.0667 87.8938 59.8907 87.7685 59.6667C87.6458 59.44 87.5845 59.18 87.5845 58.8867C87.5845 58.6014 87.6458 58.3454 87.7685 58.1187C87.8938 57.892 88.0792 57.7134 88.3245 57.5827C88.5698 57.452 88.8752 57.3867 89.2405 57.3867C90.0645 57.3867 90.5605 57.7254 90.7285 58.4027Z" fill="#FF9A2E"/>
<path d="M92.4281 57.4587H93.8961C94.7521 57.4587 95.1801 57.7747 95.1801 58.4067C95.1801 58.6094 95.1374 58.7747 95.0521 58.9027C94.9668 59.028 94.8414 59.128 94.6761 59.2027L95.3761 60.3147H94.4521L93.8881 59.3667H93.2361V60.3147H92.4281V57.4587ZM93.8441 58.7507C94.0201 58.7507 94.1481 58.7254 94.2281 58.6747C94.3108 58.6214 94.3521 58.5334 94.3521 58.4107C94.3521 58.288 94.3134 58.2014 94.2361 58.1507C94.1588 58.1 94.0308 58.0747 93.8521 58.0747H93.2361V58.7507H93.8441Z" fill="#FF9A2E"/>
<path d="M96.9367 57.4587H97.8007V60.3147H96.9367V57.4587Z" fill="#FF9A2E"/>
<path d="M100.428 58.1587H99.3724V57.4587H102.348V58.1587H101.292V60.3147H100.428V58.1587Z" fill="#FF9A2E"/>
<path d="M104.433 57.4587H105.441L106.681 60.3147H105.785L105.573 59.7947H104.269L104.069 60.3147H103.193L104.433 57.4587ZM105.333 59.1547L104.925 58.1107L104.517 59.1547H105.333Z" fill="#FF9A2E"/>
</svg>
