<svg width="158" height="58" viewBox="0 0 158 58" fill="none" xmlns="http://www.w3.org/2000/svg">
<path d="M13.3377 30.1842C12.2606 29.7605 11.519 29.1866 11.1129 28.4627C10.7068 27.7387 10.5391 26.9353 10.6097 26.0524C10.698 25.1519 10.9805 24.1984 11.4572 23.192C11.9516 22.1678 12.552 21.1437 13.2583 20.1196C13.9822 19.0955 14.7768 18.0978 15.642 17.1267C16.5072 16.1555 17.3636 15.2638 18.2112 14.4516C19.0587 13.6393 19.8533 12.9331 20.5949 12.3327C21.3365 11.7324 21.9369 11.2909 22.3959 11.0084C23.0316 10.6199 23.5613 10.4345 23.9851 10.4522C24.4089 10.4522 24.7444 10.5846 24.9916 10.8495C25.2564 11.0967 25.433 11.4498 25.5213 11.9089C25.6272 12.3504 25.6714 12.8271 25.6537 13.3392C25.6537 13.8336 25.6007 14.3368 25.4948 14.8489C25.4065 15.3433 25.2829 15.7759 25.124 16.1467C24.9827 16.5175 24.8238 16.7912 24.6473 16.9677C24.4883 17.1443 24.3294 17.1532 24.1705 16.9942C24.1528 16.853 24.1705 16.6411 24.2235 16.3586C24.2764 16.0584 24.3382 15.7229 24.4089 15.3521C24.4972 14.9813 24.5766 14.6017 24.6473 14.2132C24.7179 13.8247 24.762 13.4716 24.7797 13.1538C24.815 12.8183 24.8062 12.5358 24.7532 12.3062C24.7179 12.0767 24.6208 11.9442 24.4619 11.9089C23.8438 11.75 23.1022 11.9001 22.237 12.3592C21.3895 12.8006 20.4978 13.4451 19.5619 14.2927C18.6438 15.1226 17.7256 16.0937 16.8074 17.2061C15.9069 18.3009 15.0858 19.4309 14.3442 20.5963C13.6026 21.7617 12.9934 22.9006 12.5167 24.013C12.0399 25.1078 11.7662 26.0789 11.6956 26.9265C11.6426 27.7564 11.828 28.4009 12.2518 28.8599C12.6933 29.3014 13.4613 29.4426 14.5561 29.2837C15.5626 29.1425 16.4896 28.7893 17.3371 28.2243C18.2023 27.6416 19.0322 27.0059 19.8268 26.3173C20.639 25.611 21.4424 24.9224 22.237 24.2514C23.0316 23.5628 23.8615 23.0419 24.7267 22.6887C25.0445 22.5651 25.2917 22.6093 25.4683 22.8211C25.6625 23.033 25.7155 23.2891 25.6272 23.5892C25.5213 23.8894 25.2035 24.2867 24.6737 24.7811C24.1617 25.2755 23.5172 25.7964 22.7403 26.3438C21.981 26.8735 21.1423 27.412 20.2241 27.9594C19.3059 28.4891 18.4054 28.9482 17.5225 29.3367C16.6573 29.7252 15.8451 30.0077 15.0858 30.1842C14.3442 30.3608 13.7615 30.3608 13.3377 30.1842Z" fill="#0078A3"/>
<path d="M26.2745 30.1842C26.2392 30.1666 26.2392 29.9635 26.2745 29.5751C26.3275 29.169 26.3982 28.6657 26.4864 28.0654C26.5747 27.465 26.6895 26.8029 26.8308 26.0789C26.972 25.355 27.1221 24.6663 27.281 24.013C27.4399 23.342 27.6077 22.7593 27.7842 22.2649C27.9785 21.7529 28.1639 21.3997 28.3405 21.2055C28.4641 21.0819 28.5877 21.0819 28.7113 21.2055C28.8349 21.3114 28.9585 21.4527 29.0821 21.6293C29.2057 21.7882 29.3293 21.9383 29.4529 22.0795C29.5765 22.2031 29.7089 22.212 29.8502 22.106C30.3446 21.4174 30.8831 20.7641 31.4658 20.1461C32.0661 19.5104 32.7283 18.963 33.4522 18.5039C33.5229 18.451 33.7171 18.3715 34.0349 18.2656C34.3528 18.142 34.7147 18.0272 35.1209 17.9212C35.527 17.7976 35.9419 17.7005 36.3657 17.6299C36.8071 17.5416 37.1779 17.5063 37.4781 17.524C37.7959 17.524 38.0078 17.6034 38.1138 17.7623C38.2374 17.9036 38.1844 18.1508 37.9549 18.5039C36.8954 18.5216 35.9066 18.8306 34.9884 19.4309C34.0703 20.0313 33.2227 20.7729 32.4458 21.6558C31.6689 22.5386 30.9626 23.501 30.3269 24.5427C29.6912 25.5669 29.135 26.5204 28.6583 27.4032C28.1992 28.2861 27.8107 29.0189 27.4929 29.6016C27.1927 30.1842 26.972 30.4756 26.8308 30.4756C26.8131 30.4756 26.7336 30.4403 26.5924 30.3696C26.4511 30.2814 26.3452 30.2196 26.2745 30.1842Z" fill="#0078A3"/>
<path d="M36.9071 30.1842C37.631 27.8535 38.2843 26.0083 38.867 24.6487C39.4674 23.2714 39.9618 22.3091 40.3503 21.7617C40.7564 21.2143 41.0301 21.0378 41.1713 21.232C41.3126 21.4262 41.2949 21.9206 41.1183 22.7152C40.9594 23.5098 40.6063 24.5781 40.0589 25.92C39.5292 27.2443 38.7787 28.7628 37.8076 30.4756C37.6663 30.5286 37.4986 30.5374 37.3044 30.5021C37.1101 30.4668 36.9777 30.3608 36.9071 30.1842ZM41.5421 17.4445C41.5068 17.3562 41.4891 17.1973 41.4891 16.9677C41.4891 16.7382 41.5068 16.5969 41.5421 16.544C41.9482 16.4027 42.2572 16.3851 42.4691 16.491C42.681 16.5969 42.8134 16.7559 42.8664 16.9677C42.9194 17.162 42.9106 17.3739 42.8399 17.6034C42.787 17.833 42.6898 18.0095 42.5486 18.1331C42.4073 18.2391 42.2396 18.2567 42.0454 18.1861C41.8688 18.0978 41.701 17.8506 41.5421 17.4445Z" fill="#0078A3"/>
<path d="M42.3484 30.1842C42.1365 30.043 42.1276 29.8576 42.3219 29.628C42.5338 29.3808 42.8604 29.1248 43.3018 28.8599C43.7609 28.5774 44.2907 28.2861 44.891 27.9859C45.4914 27.6857 46.0652 27.4032 46.6126 27.1384C47.1776 26.8735 47.672 26.644 48.0958 26.4497C48.5196 26.2378 48.7933 26.0789 48.9169 25.973C49.4996 25.4786 49.7997 25.0725 49.8174 24.7546C49.8527 24.4191 49.7115 24.1543 49.3936 23.96C49.0758 23.7482 48.6255 23.5892 48.0428 23.4833C47.4778 23.3597 46.8863 23.2538 46.2683 23.1655C45.6679 23.0595 45.0852 22.9536 44.5202 22.8476C43.9728 22.7417 43.5579 22.6004 43.2754 22.4239C42.9928 22.2473 42.8957 22.0177 42.984 21.7352C43.09 21.435 43.4784 21.0554 44.1494 20.5963C44.3966 20.4198 44.7586 20.1637 45.2353 19.8282C45.7121 19.4927 46.2241 19.1484 46.7715 18.7953C47.3365 18.4421 47.8927 18.1243 48.4401 17.8418C48.9875 17.5593 49.4466 17.3739 49.8174 17.2856C50.0116 17.2503 50.2059 17.2679 50.4001 17.3386C50.612 17.4092 50.7797 17.5151 50.9033 17.6564C51.0269 17.78 51.0799 17.9212 51.0622 18.0802C51.0622 18.2391 50.9475 18.3803 50.7179 18.5039C49.7114 19.069 48.7403 19.5987 47.8045 20.0931C46.8863 20.5875 45.9593 21.1525 45.0234 21.7882C44.9705 21.9295 44.9793 22.0531 45.0499 22.159C45.1382 22.2649 45.2353 22.3444 45.3413 22.3974C47.2129 22.5916 48.6167 22.8653 49.5525 23.2184C50.506 23.5716 51.1064 23.96 51.3536 24.3838C51.6184 24.8076 51.5919 25.2579 51.2741 25.7346C50.9563 26.2114 50.4795 26.6793 49.8439 27.1384C49.2259 27.5975 48.5108 28.0301 47.6985 28.4362C46.8863 28.8423 46.1005 29.1866 45.3413 29.4691C44.5997 29.7516 43.9463 29.9635 43.3813 30.1048C42.8163 30.246 42.472 30.2725 42.3484 30.1842Z" fill="#0078A3"/>
<path d="M65.3615 30.1842C64.4786 29.8134 63.8959 29.3014 63.6134 28.6481C63.3309 27.9771 63.2338 27.262 63.3221 26.5027C63.4103 25.7258 63.6222 24.9489 63.9577 24.1719C64.3109 23.395 64.6728 22.7064 65.0436 22.106C65.1672 21.8941 65.3968 21.5322 65.7323 21.0201C66.0678 20.508 66.4209 19.9695 66.7917 19.4045C67.1802 18.8218 67.5422 18.2832 67.8776 17.7888C68.2308 17.2768 68.478 16.9236 68.6192 16.7294C68.8311 15.3698 69.2549 14.2927 69.8906 13.4981C70.5262 12.6859 71.2414 12.1296 72.0359 11.8295C72.8482 11.5293 73.6781 11.4675 74.5256 11.6441C75.3732 11.803 76.1148 12.1826 76.7504 12.783C77.3861 13.3657 77.8452 14.1514 78.1277 15.1402C78.4102 16.129 78.3837 17.2856 78.0482 18.6099C77.7304 19.9342 77.0418 21.4174 75.9823 23.0595C74.9229 24.7017 73.3691 26.4762 71.3208 28.3832C70.9677 28.7187 70.5439 29.0454 70.0495 29.3632C69.5727 29.6634 69.0607 29.9106 68.5133 30.1048C67.9836 30.299 67.445 30.4138 66.8977 30.4491C66.3503 30.4844 65.8382 30.3961 65.3615 30.1842ZM64.4345 28.0919C64.611 28.8864 64.9465 29.3808 65.4409 29.5751C65.9353 29.7693 66.518 29.734 67.189 29.4691C67.86 29.2043 68.5928 28.754 69.3873 28.1183C70.1819 27.4827 70.9765 26.7411 71.7711 25.8935C72.5657 25.0283 73.3249 24.0925 74.0489 23.086C74.7728 22.0795 75.3997 21.0819 75.9294 20.0931C76.4768 19.1043 76.8917 18.1596 77.1742 17.2591C77.4567 16.3586 77.545 15.5817 77.4391 14.9283C77.3508 14.2574 77.033 13.7541 76.4856 13.4186C75.9559 13.0831 75.1348 12.986 74.0224 13.1273C73.6163 13.4804 73.0777 14.0013 72.4067 14.69C71.7358 15.3609 71.0206 16.129 70.2614 16.9942C69.5021 17.8594 68.7428 18.7953 67.9836 19.8017C67.2243 20.7906 66.5533 21.7794 65.9706 22.7682C65.388 23.757 64.9465 24.7105 64.6464 25.6287C64.3462 26.5468 64.2756 27.3679 64.4345 28.0919Z" fill="#0078A3"/>
<path d="M78.2601 30.1842C77.7481 29.8134 77.4126 29.3455 77.2537 28.7805C77.1124 28.2155 77.0948 27.6063 77.2007 26.953C77.3066 26.282 77.492 25.5933 77.7569 24.8871C78.0394 24.1808 78.3396 23.501 78.6574 22.8476C78.9929 22.1943 79.3108 21.594 79.6109 21.0466C79.9288 20.4992 80.176 20.049 80.3525 19.6958C80.4055 19.5899 80.5291 19.3338 80.7233 18.9277C80.9352 18.5216 81.1559 18.0802 81.3855 17.6034C81.615 17.1267 81.8269 16.6852 82.0211 16.2791C82.233 15.8553 82.3655 15.5905 82.4184 15.4845C82.4714 15.3962 82.542 15.2285 82.6303 14.9813C82.7363 14.7164 82.851 14.4339 82.9746 14.1338C83.0982 13.8336 83.2307 13.5511 83.3719 13.2862C83.5308 13.0037 83.6898 12.8006 83.8487 12.677C84.0253 12.5534 84.193 12.5358 84.3519 12.6241C84.5285 12.7123 84.6962 12.9772 84.8551 13.4186C84.7845 13.5952 84.6079 13.9483 84.3254 14.4781C84.0606 15.0078 83.7427 15.6435 83.3719 16.3851C83.0011 17.1267 82.5862 17.9477 82.1271 18.8483C81.6857 19.7488 81.2531 20.6581 80.8293 21.5763C80.4055 22.4945 80.0082 23.395 79.6374 24.2779C79.2666 25.1431 78.9576 25.9377 78.7104 26.6616C78.4809 27.3679 78.3396 27.9594 78.2866 28.4362C78.2513 28.8953 78.3396 29.1778 78.5515 29.2837C78.7987 29.4073 79.1165 29.4603 79.505 29.4426C79.9111 29.4073 80.326 29.3544 80.7498 29.2837C81.1736 29.2131 81.5885 29.1425 81.9947 29.0718C82.4008 28.9835 82.7539 28.9482 83.0541 28.9659C83.1247 29.1248 83.0718 29.2837 82.8952 29.4426C82.7186 29.5839 82.4714 29.7163 82.1536 29.8399C81.8357 29.9459 81.4649 30.043 81.0412 30.1313C80.635 30.2019 80.2378 30.2549 79.8493 30.2902C79.4785 30.3255 79.143 30.3343 78.8428 30.3167C78.5603 30.299 78.3661 30.2549 78.2601 30.1842Z" fill="#0078A3"/>
<path d="M83.9663 30.1842C84.6902 27.8535 85.3436 26.0083 85.9262 24.6487C86.5266 23.2714 87.021 22.3091 87.4095 21.7617C87.8156 21.2143 88.0893 21.0378 88.2305 21.232C88.3718 21.4262 88.3541 21.9206 88.1776 22.7152C88.0186 23.5098 87.6655 24.5781 87.1181 25.92C86.5884 27.2443 85.838 28.7628 84.8668 30.4756C84.7255 30.5286 84.5578 30.5374 84.3636 30.5021C84.1693 30.4668 84.0369 30.3608 83.9663 30.1842ZM88.6013 17.4445C88.566 17.3562 88.5484 17.1973 88.5484 16.9677C88.5484 16.7382 88.566 16.5969 88.6013 16.544C89.0074 16.4027 89.3164 16.3851 89.5283 16.491C89.7402 16.5969 89.8727 16.7559 89.9256 16.9677C89.9786 17.162 89.9698 17.3739 89.8991 17.6034C89.8462 17.833 89.749 18.0095 89.6078 18.1331C89.4665 18.2391 89.2988 18.2567 89.1046 18.1861C88.928 18.0978 88.7602 17.8506 88.6013 17.4445Z" fill="#0078A3"/>
<path d="M90.1492 29.8664C89.7784 29.6545 89.5135 29.319 89.3546 28.8599C89.1957 28.4009 89.1074 27.88 89.0897 27.2973C89.0721 26.7146 89.1074 26.1054 89.1957 25.4697C89.284 24.8341 89.3899 24.2161 89.5135 23.6157C89.6371 23.0154 89.7607 22.4768 89.8843 22.0001C90.0079 21.5233 90.0962 21.1525 90.1492 20.8877C90.2375 20.8347 90.3257 20.8347 90.414 20.8877C90.52 20.9406 90.6171 21.0201 90.7054 21.126C90.8113 21.2143 90.8908 21.3026 90.9437 21.3909C91.0144 21.4615 91.0497 21.4969 91.0497 21.4969C91.1027 22.1149 91.1027 22.724 91.0497 23.3244C91.0144 23.9071 90.9614 24.4898 90.8908 25.0725C90.8378 25.6551 90.7848 26.2467 90.7319 26.847C90.6965 27.4474 90.6965 28.0565 90.7319 28.6745C90.8731 28.9394 91.1645 28.9482 91.6059 28.701C92.0473 28.4362 92.5859 28.0212 93.2215 27.4562C93.8572 26.8735 94.5458 26.1937 95.2875 25.4168C96.0467 24.6222 96.7883 23.8364 97.5123 23.0595C98.2539 22.2826 98.9513 21.5587 99.6047 20.8877C100.258 20.199 100.805 19.6781 101.247 19.325C101.706 18.9542 102.024 18.8041 102.2 18.8747C102.377 18.9277 102.35 19.2985 102.121 19.9872C101.697 20.358 101.194 20.9142 100.611 21.6558C100.028 22.3974 99.3928 23.2008 98.7041 24.066C98.0155 24.9135 97.3004 25.7611 96.5588 26.6086C95.8172 27.4562 95.0667 28.189 94.3075 28.807C93.5659 29.4073 92.8419 29.8311 92.1356 30.0783C91.4293 30.3078 90.7672 30.2372 90.1492 29.8664Z" fill="#0078A3"/>
<path d="M103.192 30.1842C102.662 30.0077 102.256 29.7428 101.974 29.3897C101.709 29.0189 101.532 28.6127 101.444 28.1713C101.356 27.7299 101.338 27.2708 101.391 26.794C101.461 26.2996 101.567 25.8317 101.709 25.3903C102.238 24.8253 102.83 24.1808 103.483 23.4568C104.154 22.7152 104.861 21.9913 105.602 21.285C106.344 20.5787 107.112 19.9253 107.906 19.325C108.719 18.707 109.54 18.2391 110.37 17.9212C110.652 17.7976 110.873 17.8065 111.032 17.9477C111.208 18.0713 111.332 18.2744 111.403 18.5569C111.473 18.8394 111.5 19.1661 111.482 19.5369C111.482 19.9077 111.456 20.2697 111.403 20.6228C111.35 20.976 111.279 21.2938 111.191 21.5763C111.102 21.8588 111.014 22.0531 110.926 22.159C110.714 22.4062 110.299 22.6975 109.681 23.033C109.081 23.3685 108.41 23.7393 107.668 24.1454C106.926 24.5339 106.185 24.94 105.443 25.3638C104.702 25.7876 104.092 26.2114 103.616 26.6351C103.139 27.0412 102.856 27.4474 102.768 27.8535C102.68 28.2596 102.927 28.6304 103.51 28.9659C104.11 29.0365 104.834 29.01 105.682 28.8864C106.547 28.7452 107.421 28.5686 108.304 28.3567C109.204 28.1272 110.069 27.8976 110.899 27.6681C111.729 27.4209 112.409 27.2266 112.939 27.0854L113.257 27.3767C112.868 27.8888 112.232 28.3567 111.35 28.7805C110.467 29.2043 109.513 29.5574 108.489 29.8399C107.465 30.1048 106.467 30.2814 105.496 30.3696C104.525 30.4403 103.757 30.3785 103.192 30.1842ZM109.522 20.0666C109.504 20.049 109.372 20.1284 109.125 20.305C108.878 20.4639 108.569 20.6846 108.198 20.9671C107.845 21.232 107.456 21.5322 107.032 21.8677C106.626 22.1855 106.247 22.4857 105.893 22.7682C105.558 23.0507 105.275 23.2979 105.046 23.5098C104.816 23.704 104.719 23.8011 104.755 23.8011C105.037 23.8541 105.399 23.8188 105.841 23.6952C106.3 23.5539 106.768 23.3597 107.244 23.1125C107.739 22.8653 108.207 22.5916 108.648 22.2914C109.089 21.9736 109.434 21.6646 109.681 21.3644C109.946 21.0642 110.078 20.7994 110.078 20.5698C110.096 20.3403 109.911 20.1726 109.522 20.0666Z" fill="#0078A3"/>
<path d="M112.753 30.1842C113.477 27.8535 114.131 26.0083 114.713 24.6487C115.314 23.2714 115.808 22.3091 116.197 21.7617C116.603 21.2143 116.876 21.0378 117.018 21.232C117.159 21.4262 117.141 21.9206 116.965 22.7152C116.806 23.5098 116.453 24.5781 115.905 25.92C115.375 27.2443 114.625 28.7628 113.654 30.4756C113.513 30.5286 113.345 30.5374 113.151 30.5021C112.956 30.4668 112.824 30.3608 112.753 30.1842ZM117.388 17.4445C117.353 17.3562 117.335 17.1973 117.335 16.9677C117.335 16.7382 117.353 16.5969 117.388 16.544C117.795 16.4027 118.104 16.3851 118.315 16.491C118.527 16.5969 118.66 16.7559 118.713 16.9677C118.766 17.162 118.757 17.3739 118.686 17.6034C118.633 17.833 118.536 18.0095 118.395 18.1331C118.254 18.2391 118.086 18.2567 117.892 18.1861C117.715 18.0978 117.547 17.8506 117.388 17.4445Z" fill="#0078A3"/>
<path d="M118.195 30.1842C118.159 30.1666 118.159 29.9635 118.195 29.5751C118.248 29.169 118.318 28.6657 118.407 28.0654C118.495 27.465 118.61 26.8029 118.751 26.0789C118.892 25.355 119.042 24.6663 119.201 24.013C119.36 23.342 119.528 22.7593 119.704 22.2649C119.899 21.7529 120.084 21.3997 120.261 21.2055C120.384 21.0819 120.508 21.0819 120.631 21.2055C120.755 21.3114 120.879 21.4527 121.002 21.6293C121.126 21.7882 121.249 21.9383 121.373 22.0795C121.497 22.2031 121.629 22.212 121.77 22.106C122.265 21.4174 122.803 20.7641 123.386 20.1461C123.986 19.5104 124.648 18.963 125.372 18.5039C125.443 18.451 125.637 18.3715 125.955 18.2656C126.273 18.142 126.635 18.0272 127.041 17.9212C127.447 17.7976 127.862 17.7005 128.286 17.6299C128.727 17.5416 129.098 17.5063 129.398 17.524C129.716 17.524 129.928 17.6034 130.034 17.7623C130.157 17.9036 130.104 18.1508 129.875 18.5039C128.815 18.5216 127.827 18.8306 126.909 19.4309C125.99 20.0313 125.143 20.7729 124.366 21.6558C123.589 22.5386 122.883 23.501 122.247 24.5427C121.611 25.5669 121.055 26.5204 120.578 27.4032C120.119 28.2861 119.731 29.0189 119.413 29.6016C119.113 30.1842 118.892 30.4756 118.751 30.4756C118.733 30.4756 118.654 30.4403 118.512 30.3696C118.371 30.2814 118.265 30.2196 118.195 30.1842Z" fill="#0078A3"/>
<path d="M127.469 29.8664C127.045 29.5133 126.807 28.9924 126.754 28.3037C126.719 27.6151 126.816 26.8382 127.045 25.973C127.292 25.1078 127.646 24.2072 128.105 23.2714C128.581 22.3179 129.129 21.4174 129.747 20.5698C130.365 19.7046 131.036 18.9365 131.76 18.2656C132.484 17.5769 133.208 17.0737 133.932 16.7559C134.655 16.4204 135.362 16.3056 136.05 16.4115C136.739 16.4998 137.366 16.8971 137.931 17.6034C138.284 18.0448 138.496 18.4951 138.567 18.9542C138.637 19.3956 138.628 19.8547 138.54 20.3315C138.452 20.7906 138.311 21.2673 138.116 21.7617C137.922 22.2385 137.728 22.724 137.534 23.2184C137.357 23.7128 137.207 24.2161 137.083 24.7281C136.977 25.2402 136.96 25.7611 137.03 26.2908C137.119 26.9618 137.419 27.3591 137.931 27.4827C138.443 27.6063 139.052 27.571 139.758 27.3767C140.482 27.1825 141.242 26.8735 142.036 26.4497C142.831 26.026 143.564 25.6022 144.235 25.1784C144.923 24.7546 145.488 24.3838 145.93 24.066C146.389 23.7482 146.618 23.5892 146.618 23.5892C147.113 23.4833 147.386 23.5186 147.439 23.6952C147.51 23.8541 147.413 24.1013 147.148 24.4368C146.901 24.7546 146.521 25.1254 146.009 25.5492C145.497 25.9553 144.914 26.3526 144.261 26.7411C143.608 27.1295 142.91 27.4827 142.169 27.8005C141.427 28.1183 140.703 28.3391 139.997 28.4627C139.291 28.5686 138.62 28.5598 137.984 28.4362C137.366 28.2949 136.854 27.9771 136.448 27.4827C136.253 27.2708 136.103 27.0589 135.997 26.847C135.909 26.6351 135.759 26.4497 135.547 26.2908C135.282 26.538 134.964 26.8647 134.594 27.2708C134.223 27.6593 133.817 28.0565 133.375 28.4627C132.952 28.8511 132.492 29.2219 131.998 29.5751C131.521 29.9282 131.027 30.1931 130.515 30.3696C130.003 30.5462 129.482 30.608 128.952 30.5551C128.44 30.5021 127.946 30.2725 127.469 29.8664ZM127.76 28.9659C127.919 29.5309 128.272 29.7958 128.82 29.7605C129.367 29.7075 130.003 29.4338 130.727 28.9394C131.451 28.445 132.201 27.774 132.978 26.9265C133.755 26.0613 134.452 25.1078 135.07 24.066C135.688 23.0065 136.156 21.8941 136.474 20.7288C136.81 19.5634 136.898 18.4156 136.739 17.2856C136.315 16.9501 135.786 16.9413 135.15 17.2591C134.514 17.5593 133.834 18.0625 133.11 18.7688C132.404 19.4574 131.698 20.2873 130.992 21.2585C130.303 22.212 129.694 23.1831 129.164 24.1719C128.634 25.1431 128.228 26.0613 127.946 26.9265C127.681 27.7917 127.619 28.4715 127.76 28.9659Z" fill="#0078A3"/>
<path d="M26.6118 44.0406H29.9082V44.8687H27.7247V45.4805H29.8027V46.3085H27.7247V46.9784H30.0348L29.9293 47.8064H26.6118V44.0406Z" fill="#0078A3"/>
<path d="M32.2631 44.0406H35.4066V44.895H33.4023V45.6229H35.2958V46.4773H33.4023V47.8064H32.2631V44.0406Z" fill="#0078A3"/>
<path d="M37.5693 44.0406H38.7085V47.8064H37.5693V44.0406Z" fill="#0078A3"/>
<path d="M45.1217 45.2853L43.9983 45.4066C43.9314 45.2133 43.8312 45.0744 43.6976 44.99C43.564 44.9056 43.3829 44.8634 43.1544 44.8634C42.8414 44.8634 42.5971 44.9548 42.4212 45.1377C42.2454 45.317 42.1575 45.5789 42.1575 45.9235C42.1575 46.2681 42.2454 46.5318 42.4212 46.7147C42.6006 46.894 42.852 46.9836 43.1755 46.9836C43.6748 46.9836 43.9684 46.7903 44.0563 46.4035H45.1955C45.1498 46.8782 44.9459 47.2474 44.5837 47.5111C44.225 47.7713 43.7468 47.9014 43.1491 47.9014C42.6709 47.9014 42.2701 47.817 41.9466 47.6482C41.6266 47.4794 41.384 47.2474 41.2187 46.952C41.057 46.6531 40.9761 46.3103 40.9761 45.9235C40.9761 45.5473 41.057 45.2097 41.2187 44.9109C41.384 44.612 41.6284 44.3764 41.9518 44.2041C42.2753 44.0318 42.6779 43.9457 43.1596 43.9457C44.2461 43.9457 44.9002 44.3922 45.1217 45.2853Z" fill="#0078A3"/>
<path d="M48.4894 44.0406H49.8185L51.4535 47.8064H50.2721L49.9925 47.1208H48.2731L48.0094 47.8064H46.8543L48.4894 44.0406ZM49.6761 46.2769L49.1381 44.9003L48.6001 46.2769H49.6761ZM49.2858 42.9014H50.5411L49.5126 43.7347H48.4788L49.2858 42.9014Z" fill="#0078A3"/>
<path d="M57.2587 45.2853L56.1352 45.4066C56.0684 45.2133 55.9682 45.0744 55.8346 44.99C55.701 44.9056 55.5199 44.8634 55.2914 44.8634C54.9784 44.8634 54.734 44.9548 54.5582 45.1377C54.3824 45.317 54.2945 45.5789 54.2945 45.9235C54.2945 46.2681 54.3824 46.5318 54.5582 46.7147C54.7376 46.894 54.989 46.9836 55.3125 46.9836C55.8117 46.9836 56.1053 46.7903 56.1933 46.4035H57.3325C57.2868 46.8782 57.0828 47.2474 56.7207 47.5111C56.362 47.7713 55.8838 47.9014 55.2861 47.9014C54.8079 47.9014 54.407 47.817 54.0835 47.6482C53.7636 47.4794 53.521 47.2474 53.3557 46.952C53.194 46.6531 53.1131 46.3103 53.1131 45.9235C53.1131 45.5473 53.194 45.2097 53.3557 44.9109C53.521 44.612 53.7653 44.3764 54.0888 44.2041C54.4123 44.0318 54.8149 43.9457 55.2966 43.9457C56.3831 43.9457 57.0371 44.3922 57.2587 45.2853Z" fill="#0078A3"/>
<path d="M59.4997 44.0406H60.639V47.8064H59.4997V44.0406Z" fill="#0078A3"/>
<path d="M64.3358 44.0406H65.665L67.3 47.8064H66.1185L65.839 47.1208H64.1196L63.8559 47.8064H62.7008L64.3358 44.0406ZM65.5226 46.2769L64.9846 44.9003L64.4466 46.2769H65.5226Z" fill="#0078A3"/>
<path d="M72.3743 44.0406H75.6707V44.8687H73.4871V45.4805H75.5652V46.3085H73.4871V46.9784H75.7973L75.6918 47.8064H72.3743V44.0406Z" fill="#0078A3"/>
<path d="M81.0397 44.0406H84.3361V44.8687H82.1526V45.4805H84.2306V46.3085H82.1526V46.9784H84.4627L84.3572 47.8064H81.0397V44.0406Z" fill="#0078A3"/>
<path d="M86.691 44.0406H89.8345V44.895H87.8302V45.6229H89.7237V46.4773H87.8302V47.8064H86.691V44.0406Z" fill="#0078A3"/>
<path d="M91.9972 44.0406H93.1364V47.8064H91.9972V44.0406Z" fill="#0078A3"/>
<path d="M99.5496 45.2853L98.4261 45.4066C98.3593 45.2133 98.2591 45.0744 98.1255 44.99C97.9919 44.9056 97.8108 44.8634 97.5823 44.8634C97.2693 44.8634 97.025 44.9548 96.8491 45.1377C96.6733 45.317 96.5854 45.5789 96.5854 45.9235C96.5854 46.2681 96.6733 46.5318 96.8491 46.7147C97.0285 46.894 97.2799 46.9836 97.6034 46.9836C98.1027 46.9836 98.3963 46.7903 98.4842 46.4035H99.6234C99.5777 46.8782 99.3738 47.2474 99.0116 47.5111C98.6529 47.7713 98.1747 47.9014 97.577 47.9014C97.0988 47.9014 96.698 47.817 96.3745 47.6482C96.0545 47.4794 95.8119 47.2474 95.6466 46.952C95.4849 46.6531 95.404 46.3103 95.404 45.9235C95.404 45.5473 95.4849 45.2097 95.6466 44.9109C95.8119 44.612 96.0563 44.3764 96.3797 44.2041C96.7032 44.0318 97.1058 43.9457 97.5875 43.9457C98.674 43.9457 99.328 44.3922 99.5496 45.2853Z" fill="#0078A3"/>
<path d="M101.791 44.0406H102.93V47.8064H101.791V44.0406Z" fill="#0078A3"/>
<path d="M105.366 44.0406H108.663V44.8687H106.479V45.4805H108.557V46.3085H106.479V46.9784H108.789L108.684 47.8064H105.366V44.0406ZM106.505 42.9014H107.529L108.304 43.7347H107.413L107.017 43.3339L106.616 43.7347H105.73L106.505 42.9014Z" fill="#0078A3"/>
<path d="M111.018 44.0406H112.03L113.913 46.3033V44.0406H114.989V47.8064H113.976L112.093 45.5438V47.8064H111.018V44.0406Z" fill="#0078A3"/>
<path d="M121.403 45.2853L120.279 45.4066C120.213 45.2133 120.112 45.0744 119.979 44.99C119.845 44.9056 119.664 44.8634 119.435 44.8634C119.122 44.8634 118.878 44.9548 118.702 45.1377C118.527 45.317 118.439 45.5789 118.439 45.9235C118.439 46.2681 118.527 46.5318 118.702 46.7147C118.882 46.894 119.133 46.9836 119.457 46.9836C119.956 46.9836 120.249 46.7903 120.337 46.4035H121.477C121.431 46.8782 121.227 47.2474 120.865 47.5111C120.506 47.7713 120.028 47.9014 119.43 47.9014C118.952 47.9014 118.551 47.817 118.228 47.6482C117.908 47.4794 117.665 47.2474 117.5 46.952C117.338 46.6531 117.257 46.3103 117.257 45.9235C117.257 45.5473 117.338 45.2097 117.5 44.9109C117.665 44.612 117.909 44.3764 118.233 44.2041C118.556 44.0318 118.959 43.9457 119.441 43.9457C120.527 43.9457 121.181 44.3922 121.403 45.2853Z" fill="#0078A3"/>
<path d="M123.644 44.0406H124.783V47.8064H123.644V44.0406Z" fill="#0078A3"/>
<path d="M128.48 44.0406H129.809L131.444 47.8064H130.263L129.983 47.1208H128.264L128 47.8064H126.845L128.48 44.0406ZM129.667 46.2769L129.129 44.9003L128.591 46.2769H129.667Z" fill="#0078A3"/>
</svg>
