<svg width="158" height="64" viewBox="0 0 158 64" fill="none" xmlns="http://www.w3.org/2000/svg">
<path d="M13.3377 30.2312C12.2606 29.8075 11.519 29.2336 11.1129 28.5097C10.7068 27.7857 10.5391 26.9823 10.6097 26.0994C10.698 25.1989 10.9805 24.2454 11.4572 23.2389C11.9516 22.2148 12.552 21.1907 13.2583 20.1666C13.9822 19.1425 14.7768 18.1448 15.642 17.1737C16.5072 16.2025 17.3636 15.3108 18.2112 14.4986C19.0587 13.6863 19.8533 12.9801 20.5949 12.3797C21.3365 11.7794 21.9369 11.3379 22.3959 11.0554C23.0316 10.6669 23.5613 10.4815 23.9851 10.4992C24.4089 10.4992 24.7444 10.6316 24.9916 10.8965C25.2564 11.1437 25.433 11.4968 25.5213 11.9559C25.6272 12.3974 25.6714 12.8741 25.6537 13.3862C25.6537 13.8806 25.6007 14.3838 25.4948 14.8959C25.4065 15.3903 25.2829 15.8229 25.124 16.1937C24.9827 16.5645 24.8238 16.8382 24.6473 17.0147C24.4883 17.1913 24.3294 17.2001 24.1705 17.0412C24.1528 16.9 24.1705 16.6881 24.2235 16.4056C24.2764 16.1054 24.3382 15.7699 24.4089 15.3991C24.4972 15.0283 24.5766 14.6487 24.6473 14.2602C24.7179 13.8717 24.762 13.5186 24.7797 13.2008C24.815 12.8653 24.8062 12.5828 24.7532 12.3532C24.7179 12.1237 24.6208 11.9912 24.4619 11.9559C23.8438 11.797 23.1022 11.9471 22.237 12.4062C21.3895 12.8476 20.4978 13.4921 19.5619 14.3397C18.6438 15.1696 17.7256 16.1407 16.8074 17.2531C15.9069 18.3479 15.0858 19.4779 14.3442 20.6433C13.6026 21.8087 12.9934 22.9476 12.5167 24.06C12.0399 25.1548 11.7662 26.1259 11.6956 26.9735C11.6426 27.8034 11.828 28.4479 12.2518 28.9069C12.6933 29.3484 13.4613 29.4896 14.5561 29.3307C15.5626 29.1895 16.4896 28.8363 17.3371 28.2713C18.2023 27.6886 19.0322 27.0529 19.8268 26.3643C20.639 25.658 21.4424 24.9694 22.237 24.2984C23.0316 23.6098 23.8615 23.0889 24.7267 22.7357C25.0445 22.6121 25.2917 22.6563 25.4683 22.8681C25.6625 23.08 25.7155 23.3361 25.6272 23.6362C25.5213 23.9364 25.2035 24.3337 24.6737 24.8281C24.1617 25.3225 23.5172 25.8434 22.7403 26.3908C21.981 26.9205 21.1423 27.459 20.2241 28.0064C19.3059 28.5361 18.4054 28.9952 17.5225 29.3837C16.6573 29.7722 15.8451 30.0547 15.0858 30.2312C14.3442 30.4078 13.7615 30.4078 13.3377 30.2312Z" fill="#010101"/>
<path d="M26.2745 30.2312C26.2392 30.2136 26.2392 30.0105 26.2745 29.6221C26.3275 29.2159 26.3982 28.7127 26.4864 28.1124C26.5747 27.512 26.6895 26.8499 26.8308 26.1259C26.972 25.402 27.1221 24.7133 27.281 24.06C27.4399 23.389 27.6077 22.8063 27.7842 22.3119C27.9785 21.7999 28.1639 21.4467 28.3405 21.2525C28.4641 21.1289 28.5877 21.1289 28.7113 21.2525C28.8349 21.3584 28.9585 21.4997 29.0821 21.6763C29.2057 21.8352 29.3293 21.9853 29.4529 22.1265C29.5765 22.2501 29.7089 22.259 29.8502 22.153C30.3446 21.4644 30.8831 20.8111 31.4658 20.1931C32.0661 19.5574 32.7283 19.01 33.4522 18.5509C33.5229 18.498 33.7171 18.4185 34.0349 18.3126C34.3528 18.189 34.7147 18.0742 35.1209 17.9682C35.527 17.8446 35.9419 17.7475 36.3657 17.6769C36.8071 17.5886 37.1779 17.5533 37.4781 17.571C37.7959 17.571 38.0078 17.6504 38.1138 17.8093C38.2374 17.9506 38.1844 18.1978 37.9549 18.5509C36.8954 18.5686 35.9066 18.8776 34.9884 19.4779C34.0703 20.0783 33.2227 20.8199 32.4458 21.7028C31.6689 22.5856 30.9626 23.548 30.3269 24.5897C29.6912 25.6139 29.135 26.5674 28.6583 27.4502C28.1992 28.3331 27.8107 29.0659 27.4929 29.6486C27.1927 30.2312 26.972 30.5226 26.8308 30.5226C26.8131 30.5226 26.7336 30.4873 26.5924 30.4166C26.4511 30.3284 26.3452 30.2666 26.2745 30.2312Z" fill="#010101"/>
<path d="M36.9071 30.2312C37.631 27.9005 38.2843 26.0553 38.867 24.6957C39.4674 23.3184 39.9618 22.3561 40.3503 21.8087C40.7564 21.2613 41.0301 21.0848 41.1713 21.279C41.3126 21.4732 41.2949 21.9676 41.1183 22.7622C40.9594 23.5568 40.6063 24.625 40.0589 25.967C39.5292 27.2913 38.7787 28.8098 37.8076 30.5226C37.6663 30.5756 37.4986 30.5844 37.3044 30.5491C37.1101 30.5138 36.9777 30.4078 36.9071 30.2312ZM41.5421 17.4915C41.5068 17.4032 41.4891 17.2443 41.4891 17.0147C41.4891 16.7852 41.5068 16.6439 41.5421 16.591C41.9482 16.4497 42.2572 16.4321 42.4691 16.538C42.681 16.6439 42.8134 16.8029 42.8664 17.0147C42.9194 17.209 42.9106 17.4209 42.8399 17.6504C42.787 17.88 42.6898 18.0565 42.5486 18.1801C42.4073 18.2861 42.2396 18.3037 42.0454 18.2331C41.8688 18.1448 41.701 17.8976 41.5421 17.4915Z" fill="#010101"/>
<path d="M42.3484 30.2312C42.1365 30.09 42.1276 29.9046 42.3219 29.675C42.5338 29.4278 42.8604 29.1718 43.3018 28.9069C43.7609 28.6244 44.2907 28.3331 44.891 28.0329C45.4914 27.7327 46.0652 27.4502 46.6126 27.1854C47.1776 26.9205 47.672 26.691 48.0958 26.4967C48.5196 26.2848 48.7933 26.1259 48.9169 26.02C49.4996 25.5256 49.7997 25.1195 49.8174 24.8016C49.8527 24.4661 49.7115 24.2013 49.3936 24.007C49.0758 23.7952 48.6255 23.6362 48.0428 23.5303C47.4778 23.4067 46.8863 23.3007 46.2683 23.2125C45.6679 23.1065 45.0852 23.0006 44.5202 22.8946C43.9728 22.7887 43.5579 22.6474 43.2754 22.4709C42.9928 22.2943 42.8957 22.0647 42.984 21.7822C43.09 21.482 43.4784 21.1024 44.1494 20.6433C44.3966 20.4668 44.7586 20.2107 45.2353 19.8752C45.7121 19.5397 46.2241 19.1954 46.7715 18.8423C47.3365 18.4891 47.8927 18.1713 48.4401 17.8888C48.9875 17.6063 49.4466 17.4209 49.8174 17.3326C50.0116 17.2973 50.2059 17.3149 50.4001 17.3856C50.612 17.4562 50.7797 17.5621 50.9033 17.7034C51.0269 17.827 51.0799 17.9682 51.0622 18.1272C51.0622 18.2861 50.9475 18.4273 50.7179 18.5509C49.7114 19.116 48.7403 19.6457 47.8045 20.1401C46.8863 20.6345 45.9593 21.1995 45.0234 21.8352C44.9705 21.9765 44.9793 22.1001 45.0499 22.206C45.1382 22.3119 45.2353 22.3914 45.3413 22.4444C47.2129 22.6386 48.6167 22.9123 49.5525 23.2654C50.506 23.6186 51.1064 24.007 51.3536 24.4308C51.6184 24.8546 51.5919 25.3049 51.2741 25.7816C50.9563 26.2583 50.4795 26.7263 49.8439 27.1854C49.2259 27.6444 48.5108 28.0771 47.6985 28.4832C46.8863 28.8893 46.1005 29.2336 45.3413 29.5161C44.5997 29.7986 43.9463 30.0105 43.3813 30.1518C42.8163 30.293 42.472 30.3195 42.3484 30.2312Z" fill="#010101"/>
<path d="M65.3615 30.2312C64.4786 29.8604 63.8959 29.3484 63.6134 28.6951C63.3309 28.0241 63.2338 27.309 63.3221 26.5497C63.4103 25.7728 63.6222 24.9959 63.9577 24.2189C64.3109 23.442 64.6728 22.7534 65.0436 22.153C65.1672 21.9411 65.3968 21.5792 65.7323 21.0671C66.0678 20.555 66.4209 20.0165 66.7917 19.4515C67.1802 18.8688 67.5422 18.3302 67.8776 17.8358C68.2308 17.3237 68.478 16.9706 68.6192 16.7764C68.8311 15.4168 69.2549 14.3397 69.8906 13.5451C70.5262 12.7328 71.2414 12.1766 72.0359 11.8765C72.8482 11.5763 73.6781 11.5145 74.5256 11.6911C75.3732 11.85 76.1148 12.2296 76.7504 12.83C77.3861 13.4127 77.8452 14.1984 78.1277 15.1872C78.4102 16.176 78.3837 17.3326 78.0482 18.6569C77.7304 19.9812 77.0418 21.4644 75.9823 23.1065C74.9229 24.7486 73.3691 26.5232 71.3208 28.4302C70.9677 28.7657 70.5439 29.0923 70.0495 29.4102C69.5727 29.7104 69.0607 29.9576 68.5133 30.1518C67.9836 30.346 67.445 30.4608 66.8977 30.4961C66.3503 30.5314 65.8382 30.4431 65.3615 30.2312ZM64.4345 28.1389C64.611 28.9334 64.9465 29.4278 65.4409 29.6221C65.9353 29.8163 66.518 29.781 67.189 29.5161C67.86 29.2513 68.5928 28.801 69.3873 28.1653C70.1819 27.5297 70.9765 26.7881 71.7711 25.9405C72.5657 25.0753 73.3249 24.1395 74.0489 23.133C74.7728 22.1265 75.3997 21.1289 75.9294 20.1401C76.4768 19.1513 76.8917 18.2066 77.1742 17.3061C77.4567 16.4056 77.545 15.6286 77.4391 14.9753C77.3508 14.3043 77.033 13.8011 76.4856 13.4656C75.9559 13.1301 75.1348 13.033 74.0224 13.1743C73.6163 13.5274 73.0777 14.0483 72.4067 14.737C71.7358 15.4079 71.0206 16.176 70.2614 17.0412C69.5021 17.9064 68.7428 18.8423 67.9836 19.8487C67.2243 20.8376 66.5533 21.8264 65.9706 22.8152C65.388 23.804 64.9465 24.7575 64.6464 25.6757C64.3462 26.5938 64.2756 27.4149 64.4345 28.1389Z" fill="#010101"/>
<path d="M78.2601 30.2312C77.7481 29.8604 77.4126 29.3925 77.2537 28.8275C77.1124 28.2625 77.0948 27.6533 77.2007 27C77.3066 26.329 77.492 25.6403 77.7569 24.9341C78.0394 24.2278 78.3396 23.548 78.6574 22.8946C78.9929 22.2413 79.3108 21.641 79.6109 21.0936C79.9288 20.5462 80.176 20.0959 80.3525 19.7428C80.4055 19.6369 80.5291 19.3808 80.7233 18.9747C80.9352 18.5686 81.1559 18.1272 81.3855 17.6504C81.615 17.1737 81.8269 16.7322 82.0211 16.3261C82.233 15.9023 82.3655 15.6375 82.4184 15.5315C82.4714 15.4432 82.542 15.2755 82.6303 15.0283C82.7363 14.7634 82.851 14.4809 82.9746 14.1807C83.0982 13.8806 83.2307 13.5981 83.3719 13.3332C83.5308 13.0507 83.6898 12.8476 83.8487 12.724C84.0253 12.6004 84.193 12.5828 84.3519 12.671C84.5285 12.7593 84.6962 13.0242 84.8551 13.4656C84.7845 13.6422 84.6079 13.9953 84.3254 14.5251C84.0606 15.0548 83.7427 15.6904 83.3719 16.4321C83.0011 17.1737 82.5862 17.9947 82.1271 18.8953C81.6857 19.7958 81.2531 20.7051 80.8293 21.6233C80.4055 22.5415 80.0082 23.442 79.6374 24.3249C79.2666 25.1901 78.9576 25.9847 78.7104 26.7086C78.4809 27.4149 78.3396 28.0064 78.2866 28.4832C78.2513 28.9423 78.3396 29.2248 78.5515 29.3307C78.7987 29.4543 79.1165 29.5073 79.505 29.4896C79.9111 29.4543 80.326 29.4014 80.7498 29.3307C81.1736 29.2601 81.5885 29.1895 81.9947 29.1188C82.4008 29.0305 82.7539 28.9952 83.0541 29.0129C83.1247 29.1718 83.0718 29.3307 82.8952 29.4896C82.7186 29.6309 82.4714 29.7633 82.1536 29.8869C81.8357 29.9929 81.4649 30.09 81.0412 30.1783C80.635 30.2489 80.2378 30.3019 79.8493 30.3372C79.4785 30.3725 79.143 30.3813 78.8428 30.3637C78.5603 30.346 78.3661 30.3019 78.2601 30.2312Z" fill="#010101"/>
<path d="M83.9663 30.2312C84.6902 27.9005 85.3436 26.0553 85.9262 24.6957C86.5266 23.3184 87.021 22.3561 87.4095 21.8087C87.8156 21.2613 88.0893 21.0848 88.2305 21.279C88.3718 21.4732 88.3541 21.9676 88.1776 22.7622C88.0186 23.5568 87.6655 24.625 87.1181 25.967C86.5884 27.2913 85.838 28.8098 84.8668 30.5226C84.7255 30.5756 84.5578 30.5844 84.3636 30.5491C84.1693 30.5138 84.0369 30.4078 83.9663 30.2312ZM88.6013 17.4915C88.566 17.4032 88.5484 17.2443 88.5484 17.0147C88.5484 16.7852 88.566 16.6439 88.6013 16.591C89.0074 16.4497 89.3164 16.4321 89.5283 16.538C89.7402 16.6439 89.8727 16.8029 89.9256 17.0147C89.9786 17.209 89.9698 17.4209 89.8991 17.6504C89.8462 17.88 89.749 18.0565 89.6078 18.1801C89.4665 18.2861 89.2988 18.3037 89.1046 18.2331C88.928 18.1448 88.7602 17.8976 88.6013 17.4915Z" fill="#010101"/>
<path d="M90.1492 29.9134C89.7784 29.7015 89.5135 29.366 89.3546 28.9069C89.1957 28.4479 89.1074 27.927 89.0897 27.3443C89.0721 26.7616 89.1074 26.1524 89.1957 25.5167C89.284 24.8811 89.3899 24.2631 89.5135 23.6627C89.6371 23.0624 89.7607 22.5238 89.8843 22.0471C90.0079 21.5703 90.0962 21.1995 90.1492 20.9347C90.2375 20.8817 90.3257 20.8817 90.414 20.9347C90.52 20.9876 90.6171 21.0671 90.7054 21.173C90.8113 21.2613 90.8908 21.3496 90.9437 21.4379C91.0144 21.5085 91.0497 21.5438 91.0497 21.5438C91.1027 22.1619 91.1027 22.771 91.0497 23.3714C91.0144 23.9541 90.9614 24.5368 90.8908 25.1195C90.8378 25.7021 90.7848 26.2937 90.7319 26.894C90.6965 27.4944 90.6965 28.1035 90.7319 28.7215C90.8731 28.9864 91.1645 28.9952 91.6059 28.748C92.0473 28.4832 92.5859 28.0682 93.2215 27.5032C93.8572 26.9205 94.5458 26.2407 95.2875 25.4638C96.0467 24.6692 96.7883 23.8834 97.5123 23.1065C98.2539 22.3296 98.9513 21.6056 99.6047 20.9347C100.258 20.246 100.805 19.7251 101.247 19.372C101.706 19.0012 102.024 18.8511 102.2 18.9217C102.377 18.9747 102.35 19.3455 102.121 20.0341C101.697 20.405 101.194 20.9612 100.611 21.7028C100.028 22.4444 99.3928 23.2478 98.7041 24.113C98.0155 24.9605 97.3004 25.8081 96.5588 26.6556C95.8172 27.5032 95.0667 28.236 94.3075 28.854C93.5659 29.4543 92.8419 29.8781 92.1356 30.1253C91.4293 30.3548 90.7672 30.2842 90.1492 29.9134Z" fill="#010101"/>
<path d="M103.192 30.2312C102.662 30.0547 102.256 29.7898 101.974 29.4367C101.709 29.0659 101.532 28.6597 101.444 28.2183C101.356 27.7769 101.338 27.3178 101.391 26.841C101.461 26.3466 101.567 25.8787 101.709 25.4373C102.238 24.8722 102.83 24.2278 103.483 23.5038C104.154 22.7622 104.861 22.0383 105.602 21.332C106.344 20.6257 107.112 19.9723 107.906 19.372C108.719 18.754 109.54 18.2861 110.37 17.9682C110.652 17.8446 110.873 17.8535 111.032 17.9947C111.208 18.1183 111.332 18.3214 111.403 18.6039C111.473 18.8864 111.5 19.2131 111.482 19.5839C111.482 19.9547 111.456 20.3167 111.403 20.6698C111.35 21.023 111.279 21.3408 111.191 21.6233C111.102 21.9058 111.014 22.1001 110.926 22.206C110.714 22.4532 110.299 22.7445 109.681 23.08C109.081 23.4155 108.41 23.7863 107.668 24.1924C106.926 24.5809 106.185 24.987 105.443 25.4108C104.702 25.8346 104.092 26.2583 103.616 26.6821C103.139 27.0882 102.856 27.4944 102.768 27.9005C102.68 28.3066 102.927 28.6774 103.51 29.0129C104.11 29.0835 104.834 29.057 105.682 28.9334C106.547 28.7922 107.421 28.6156 108.304 28.4037C109.204 28.1742 110.069 27.9446 110.899 27.7151C111.729 27.4679 112.409 27.2736 112.939 27.1324L113.257 27.4237C112.868 27.9358 112.232 28.4037 111.35 28.8275C110.467 29.2513 109.513 29.6044 108.489 29.8869C107.465 30.1518 106.467 30.3284 105.496 30.4166C104.525 30.4873 103.757 30.4255 103.192 30.2312ZM109.522 20.1136C109.504 20.0959 109.372 20.1754 109.125 20.352C108.878 20.5109 108.569 20.7316 108.198 21.0141C107.845 21.279 107.456 21.5792 107.032 21.9146C106.626 22.2325 106.247 22.5327 105.893 22.8152C105.558 23.0977 105.275 23.3449 105.046 23.5568C104.816 23.751 104.719 23.8481 104.755 23.8481C105.037 23.9011 105.399 23.8658 105.841 23.7422C106.3 23.6009 106.768 23.4067 107.244 23.1595C107.739 22.9123 108.207 22.6386 108.648 22.3384C109.089 22.0206 109.434 21.7116 109.681 21.4114C109.946 21.1112 110.078 20.8464 110.078 20.6168C110.096 20.3873 109.911 20.2195 109.522 20.1136Z" fill="#010101"/>
<path d="M112.753 30.2312C113.477 27.9005 114.131 26.0553 114.713 24.6957C115.314 23.3184 115.808 22.3561 116.197 21.8087C116.603 21.2613 116.876 21.0848 117.018 21.279C117.159 21.4732 117.141 21.9676 116.965 22.7622C116.806 23.5568 116.453 24.625 115.905 25.967C115.375 27.2913 114.625 28.8098 113.654 30.5226C113.513 30.5756 113.345 30.5844 113.151 30.5491C112.956 30.5138 112.824 30.4078 112.753 30.2312ZM117.388 17.4915C117.353 17.4032 117.335 17.2443 117.335 17.0147C117.335 16.7852 117.353 16.6439 117.388 16.591C117.795 16.4497 118.104 16.4321 118.315 16.538C118.527 16.6439 118.66 16.8029 118.713 17.0147C118.766 17.209 118.757 17.4209 118.686 17.6504C118.633 17.88 118.536 18.0565 118.395 18.1801C118.254 18.2861 118.086 18.3037 117.892 18.2331C117.715 18.1448 117.547 17.8976 117.388 17.4915Z" fill="#010101"/>
<path d="M118.195 30.2312C118.159 30.2136 118.159 30.0105 118.195 29.6221C118.248 29.2159 118.318 28.7127 118.407 28.1124C118.495 27.512 118.61 26.8499 118.751 26.1259C118.892 25.402 119.042 24.7133 119.201 24.06C119.36 23.389 119.528 22.8063 119.704 22.3119C119.899 21.7999 120.084 21.4467 120.261 21.2525C120.384 21.1289 120.508 21.1289 120.631 21.2525C120.755 21.3584 120.879 21.4997 121.002 21.6763C121.126 21.8352 121.249 21.9853 121.373 22.1265C121.497 22.2501 121.629 22.259 121.77 22.153C122.265 21.4644 122.803 20.8111 123.386 20.1931C123.986 19.5574 124.648 19.01 125.372 18.5509C125.443 18.498 125.637 18.4185 125.955 18.3126C126.273 18.189 126.635 18.0742 127.041 17.9682C127.447 17.8446 127.862 17.7475 128.286 17.6769C128.727 17.5886 129.098 17.5533 129.398 17.571C129.716 17.571 129.928 17.6504 130.034 17.8093C130.157 17.9506 130.104 18.1978 129.875 18.5509C128.815 18.5686 127.827 18.8776 126.909 19.4779C125.99 20.0783 125.143 20.8199 124.366 21.7028C123.589 22.5856 122.883 23.548 122.247 24.5897C121.611 25.6139 121.055 26.5674 120.578 27.4502C120.119 28.3331 119.731 29.0659 119.413 29.6486C119.113 30.2312 118.892 30.5226 118.751 30.5226C118.733 30.5226 118.654 30.4873 118.512 30.4166C118.371 30.3284 118.265 30.2666 118.195 30.2312Z" fill="#010101"/>
<path d="M127.469 29.9134C127.045 29.5603 126.807 29.0394 126.754 28.3507C126.719 27.6621 126.816 26.8852 127.045 26.02C127.292 25.1548 127.646 24.2542 128.105 23.3184C128.581 22.3649 129.129 21.4644 129.747 20.6168C130.365 19.7516 131.036 18.9835 131.76 18.3126C132.484 17.6239 133.208 17.1207 133.932 16.8029C134.655 16.4674 135.362 16.3526 136.05 16.4585C136.739 16.5468 137.366 16.9441 137.931 17.6504C138.284 18.0918 138.496 18.5421 138.567 19.0012C138.637 19.4426 138.628 19.9017 138.54 20.3785C138.452 20.8376 138.311 21.3143 138.116 21.8087C137.922 22.2855 137.728 22.771 137.534 23.2654C137.357 23.7598 137.207 24.2631 137.083 24.7751C136.977 25.2872 136.96 25.8081 137.03 26.3378C137.119 27.0088 137.419 27.4061 137.931 27.5297C138.443 27.6533 139.052 27.618 139.758 27.4237C140.482 27.2295 141.242 26.9205 142.036 26.4967C142.831 26.0729 143.564 25.6492 144.235 25.2254C144.923 24.8016 145.488 24.4308 145.93 24.113C146.389 23.7952 146.618 23.6362 146.618 23.6362C147.113 23.5303 147.386 23.5656 147.439 23.7422C147.51 23.9011 147.413 24.1483 147.148 24.4838C146.901 24.8016 146.521 25.1724 146.009 25.5962C145.497 26.0023 144.914 26.3996 144.261 26.7881C143.608 27.1765 142.91 27.5297 142.169 27.8475C141.427 28.1653 140.703 28.3861 139.997 28.5097C139.291 28.6156 138.62 28.6068 137.984 28.4832C137.366 28.3419 136.854 28.0241 136.448 27.5297C136.253 27.3178 136.103 27.1059 135.997 26.894C135.909 26.6821 135.759 26.4967 135.547 26.3378C135.282 26.585 134.964 26.9117 134.594 27.3178C134.223 27.7062 133.817 28.1035 133.375 28.5097C132.952 28.8981 132.492 29.2689 131.998 29.6221C131.521 29.9752 131.027 30.2401 130.515 30.4166C130.003 30.5932 129.482 30.655 128.952 30.602C128.44 30.5491 127.946 30.3195 127.469 29.9134ZM127.76 29.0129C127.919 29.5779 128.272 29.8428 128.82 29.8075C129.367 29.7545 130.003 29.4808 130.727 28.9864C131.451 28.492 132.201 27.821 132.978 26.9735C133.755 26.1083 134.452 25.1548 135.07 24.113C135.688 23.0535 136.156 21.9411 136.474 20.7758C136.81 19.6104 136.898 18.4626 136.739 17.3326C136.315 16.9971 135.786 16.9883 135.15 17.3061C134.514 17.6063 133.834 18.1095 133.11 18.8158C132.404 19.5044 131.698 20.3343 130.992 21.3055C130.303 22.259 129.694 23.2301 129.164 24.2189C128.634 25.1901 128.228 26.1083 127.946 26.9735C127.681 27.8387 127.619 28.5185 127.76 29.0129Z" fill="#010101"/>
<path d="M23.7693 46.4398H24.8147C24.8772 46.762 25.1467 46.923 25.6234 46.923C26.11 46.923 26.3532 46.8063 26.3532 46.5729C26.3532 46.4907 26.3171 46.425 26.2448 46.3757C26.1724 46.3231 26.0541 46.2853 25.8897 46.2623L25.2585 46.1686C24.772 46.093 24.4169 45.9664 24.1934 45.7889C23.9731 45.6113 23.863 45.3681 23.863 45.059C23.863 44.7171 24.0175 44.4509 24.3265 44.2602C24.6388 44.0695 25.0678 43.9742 25.6136 43.9742C26.6228 43.9742 27.1883 44.3276 27.3099 45.0344L26.299 45.133C26.2464 44.9884 26.1642 44.8848 26.0524 44.8223C25.9407 44.7566 25.7829 44.7237 25.579 44.7237C25.3621 44.7237 25.1944 44.75 25.0761 44.8026C24.961 44.8552 24.9035 44.9308 24.9035 45.0295C24.9035 45.1116 24.9347 45.1741 24.9972 45.2168C25.0596 45.2596 25.1747 45.2941 25.3423 45.3204L26.1116 45.4437C26.5686 45.516 26.899 45.6393 27.1028 45.8135C27.3066 45.9845 27.4085 46.2261 27.4085 46.5384C27.4085 46.9132 27.2573 47.1959 26.9548 47.3866C26.6524 47.5772 26.2069 47.6726 25.6185 47.6726C24.4613 47.6726 23.8449 47.2616 23.7693 46.4398Z" fill="#010101"/>
<path d="M31.3921 47.6726C30.9581 47.6726 30.585 47.5986 30.2727 47.4507C29.9604 47.3027 29.7188 47.0907 29.5478 46.8146C29.3802 46.5384 29.2963 46.208 29.2963 45.8234C29.2963 45.4387 29.3818 45.1084 29.5527 44.8322C29.7237 44.5561 29.967 44.344 30.2826 44.1961C30.5982 44.0481 30.9746 43.9742 31.4118 43.9742C31.8458 43.9742 32.2189 44.0481 32.5312 44.1961C32.8435 44.344 33.0835 44.5561 33.2511 44.8322C33.4221 45.1084 33.5076 45.4387 33.5076 45.8234C33.5076 46.208 33.4221 46.5384 33.2511 46.8146C33.0802 47.0907 32.8369 47.3027 32.5213 47.4507C32.2057 47.5986 31.8293 47.6726 31.3921 47.6726ZM32.403 45.8234C32.403 45.5078 32.3142 45.2645 32.1367 45.0936C31.9625 44.9193 31.7175 44.8322 31.4019 44.8322C31.0863 44.8322 30.8398 44.9193 30.6623 45.0936C30.488 45.2678 30.4009 45.5111 30.4009 45.8234C30.4009 46.139 30.488 46.3839 30.6623 46.5581C30.8398 46.7291 31.0863 46.8146 31.4019 46.8146C31.7175 46.8146 31.9625 46.7274 32.1367 46.5532C32.3142 46.379 32.403 46.1357 32.403 45.8234Z" fill="#010101"/>
<path d="M35.6287 44.0629H36.6939V46.7209H38.6959L38.5874 47.5838H35.6287V44.0629Z" fill="#010101"/>
<path d="M41.6492 46.1242C41.6492 46.3609 41.7084 46.5351 41.8267 46.6469C41.9483 46.7587 42.139 46.8146 42.3987 46.8146C42.6617 46.8146 42.8524 46.7587 42.9707 46.6469C43.0924 46.5351 43.1532 46.3609 43.1532 46.1242V44.0629H44.2183V46.0404C44.2183 46.6189 44.0622 47.0365 43.7499 47.2929C43.4376 47.546 42.9872 47.6726 42.3987 47.6726C41.8136 47.6726 41.3648 47.546 41.0525 47.2929C40.7402 47.0365 40.584 46.6189 40.584 46.0404V44.0629H41.6492V46.1242Z" fill="#010101"/>
<path d="M50.1743 45.2267L49.124 45.3401C49.0615 45.1593 48.9678 45.0295 48.8429 44.9506C48.718 44.8717 48.5487 44.8322 48.335 44.8322C48.0424 44.8322 47.8139 44.9177 47.6495 45.0886C47.4852 45.2563 47.403 45.5012 47.403 45.8234C47.403 46.1456 47.4852 46.3921 47.6495 46.5631C47.8172 46.7307 48.0522 46.8146 48.3547 46.8146C48.8215 46.8146 49.096 46.6337 49.1782 46.2721H50.2433C50.2006 46.7159 50.0099 47.0611 49.6713 47.3077C49.336 47.5509 48.8889 47.6726 48.33 47.6726C47.8829 47.6726 47.5082 47.5937 47.2057 47.4359C46.9066 47.2781 46.6797 47.0611 46.5252 46.785C46.374 46.5055 46.2984 46.185 46.2984 45.8234C46.2984 45.4716 46.374 45.156 46.5252 44.8766C46.6797 44.5972 46.9082 44.3769 47.2107 44.2158C47.5131 44.0547 47.8895 43.9742 48.3399 43.9742C49.3557 43.9742 49.9672 44.3917 50.1743 45.2267ZM48.0736 47.4753L48.5421 47.5838L48.4484 47.8008C48.6555 47.8238 48.8084 47.8731 48.907 47.9487C49.0056 48.0276 49.0549 48.1295 49.0549 48.2545C49.0549 48.3991 48.9826 48.5125 48.838 48.5947C48.6933 48.6769 48.4895 48.718 48.2265 48.718C47.9865 48.718 47.7975 48.695 47.6594 48.649V48.2495C47.7416 48.2627 47.8139 48.2725 47.8764 48.2791C47.9421 48.289 48.0046 48.2939 48.0638 48.2939C48.169 48.2939 48.2446 48.2841 48.2906 48.2643C48.3399 48.2479 48.3646 48.2216 48.3646 48.1854C48.3646 48.1394 48.335 48.1082 48.2758 48.0917C48.2199 48.0753 48.1229 48.0671 47.9849 48.0671H47.8123L48.0736 47.4753Z" fill="#010101"/>
<path d="M54.2076 47.6726C53.7736 47.6726 53.4005 47.5986 53.0882 47.4507C52.7759 47.3027 52.5343 47.0907 52.3633 46.8146C52.1956 46.5384 52.1118 46.208 52.1118 45.8234C52.1118 45.4387 52.1973 45.1084 52.3682 44.8322C52.5392 44.5561 52.7825 44.344 53.0981 44.1961C53.4137 44.0481 53.7901 43.9742 54.2273 43.9742C54.6612 43.9742 55.0344 44.0481 55.3467 44.1961C55.659 44.344 55.899 44.5561 56.0666 44.8322C56.2376 45.1084 56.3231 45.4387 56.3231 45.8234C56.3231 46.208 56.2376 46.5384 56.0666 46.8146C55.8957 47.0907 55.6524 47.3027 55.3368 47.4507C55.0212 47.5986 54.6448 47.6726 54.2076 47.6726ZM55.2185 45.8234C55.2185 45.5078 55.1297 45.2645 54.9522 45.0936C54.778 44.9193 54.533 44.8322 54.2174 44.8322C53.9018 44.8322 53.6553 44.9193 53.4778 45.0936C53.3035 45.2678 53.2164 45.5111 53.2164 45.8234C53.2164 46.139 53.3035 46.3839 53.4778 46.5581C53.6553 46.7291 53.9018 46.8146 54.2174 46.8146C54.533 46.8146 54.778 46.7274 54.9522 46.5532C55.1297 46.379 55.2185 46.1357 55.2185 45.8234ZM53.103 43.772C53.103 43.4794 53.1572 43.269 53.2657 43.1408C53.3742 43.0126 53.5369 42.9485 53.7539 42.9485C53.9117 42.9485 54.0991 43.0027 54.3161 43.1112C54.4015 43.154 54.4673 43.1835 54.5133 43.2C54.5593 43.2164 54.6004 43.2246 54.6366 43.2246C54.6991 43.2246 54.7401 43.2049 54.7599 43.1655C54.7796 43.1227 54.7895 43.0553 54.7895 42.9633H55.3763C55.3763 43.246 55.322 43.4548 55.2135 43.5895C55.1051 43.721 54.9423 43.7868 54.7254 43.7868C54.5708 43.7868 54.3884 43.7342 54.178 43.629C54.0169 43.5501 53.9051 43.5106 53.8427 43.5106C53.7835 43.5106 53.7424 43.5337 53.7194 43.5797C53.6997 43.6224 53.6898 43.6865 53.6898 43.772H53.103Z" fill="#010101"/>
<path d="M58.4442 44.0629H61.5262V44.8371H59.4847V45.4092H61.4276V46.1834H59.4847V46.8096H61.6446L61.5459 47.5838H58.4442V44.0629Z" fill="#010101"/>
<path d="M63.4616 46.4398H64.5071C64.5695 46.762 64.8391 46.923 65.3158 46.923C65.8023 46.923 66.0456 46.8063 66.0456 46.5729C66.0456 46.4907 66.0094 46.425 65.9371 46.3757C65.8648 46.3231 65.7464 46.2853 65.5821 46.2623L64.9509 46.1686C64.4643 46.093 64.1093 45.9664 63.8857 45.7889C63.6655 45.6113 63.5553 45.3681 63.5553 45.059C63.5553 44.7171 63.7098 44.4509 64.0189 44.2602C64.3312 44.0695 64.7602 43.9742 65.3059 43.9742C66.3152 43.9742 66.8806 44.3276 67.0022 45.0344L65.9913 45.133C65.9387 44.9884 65.8566 44.8848 65.7448 44.8223C65.633 44.7566 65.4752 44.7237 65.2714 44.7237C65.0544 44.7237 64.8868 44.75 64.7684 44.8026C64.6533 44.8552 64.5958 44.9308 64.5958 45.0295C64.5958 45.1116 64.627 45.1741 64.6895 45.2168C64.752 45.2596 64.867 45.2941 65.0347 45.3204L65.804 45.4437C66.2609 45.516 66.5913 45.6393 66.7951 45.8135C66.999 45.9845 67.1009 46.2261 67.1009 46.5384C67.1009 46.9132 66.9496 47.1959 66.6472 47.3866C66.3447 47.5772 65.8993 47.6726 65.3108 47.6726C64.1537 47.6726 63.5373 47.2616 63.4616 46.4398Z" fill="#010101"/>
<path d="M71.9646 44.0629H75.0466V44.8371H73.0051V45.4092H74.948V46.1834H73.0051V46.8096H75.1649L75.0663 47.5838H71.9646V44.0629Z" fill="#010101"/>
<path d="M77.2483 44.0629H78.915C79.6251 44.0629 80.161 44.2125 80.5226 44.5117C80.8842 44.8076 81.065 45.2448 81.065 45.8234C81.065 46.3822 80.876 46.8162 80.4979 47.1252C80.1199 47.431 79.5775 47.5838 78.8706 47.5838H77.2483V44.0629ZM78.8953 46.7406C79.6218 46.7406 79.9851 46.4332 79.9851 45.8184C79.9851 45.2103 79.635 44.9062 78.9348 44.9062H78.2986V46.7406H78.8953Z" fill="#010101"/>
<path d="M84.2174 46.1242C84.2174 46.3609 84.2766 46.5351 84.3949 46.6469C84.5166 46.7587 84.7073 46.8146 84.967 46.8146C85.23 46.8146 85.4206 46.7587 85.539 46.6469C85.6606 46.5351 85.7214 46.3609 85.7214 46.1242V44.0629H86.7866V46.0404C86.7866 46.6189 86.6304 47.0365 86.3181 47.2929C86.0058 47.546 85.5554 47.6726 84.967 47.6726C84.3818 47.6726 83.9331 47.546 83.6208 47.2929C83.3084 47.0365 83.1523 46.6189 83.1523 46.0404V44.0629H84.2174V46.1242Z" fill="#010101"/>
<path d="M92.7426 45.2267L91.6922 45.3401C91.6297 45.1593 91.536 45.0295 91.4111 44.9506C91.2862 44.8717 91.1169 44.8322 90.9032 44.8322C90.6106 44.8322 90.3821 44.9177 90.2178 45.0886C90.0534 45.2563 89.9712 45.5012 89.9712 45.8234C89.9712 46.1456 90.0534 46.3921 90.2178 46.5631C90.3854 46.7307 90.6205 46.8146 90.9229 46.8146C91.3898 46.8146 91.6643 46.6337 91.7465 46.2721H92.8116C92.7689 46.7159 92.5782 47.0611 92.2396 47.3077C91.9043 47.5509 91.4572 47.6726 90.8983 47.6726C90.4512 47.6726 90.0764 47.5937 89.774 47.4359C89.4748 47.2781 89.248 47.0611 89.0935 46.785C88.9422 46.5055 88.8666 46.185 88.8666 45.8234C88.8666 45.4716 88.9422 45.156 89.0935 44.8766C89.248 44.5972 89.4765 44.3769 89.7789 44.2158C90.0814 44.0547 90.4578 43.9742 90.9081 43.9742C91.924 43.9742 92.5354 44.3917 92.7426 45.2267Z" fill="#010101"/>
<path d="M95.8912 44.0629H97.1339L98.6625 47.5838H97.558L97.2966 46.9428H95.689L95.4425 47.5838H94.3625L95.8912 44.0629ZM97.0007 46.1538L96.4977 44.8667L95.9948 46.1538H97.0007Z" fill="#010101"/>
<path d="M104.09 45.2267L103.04 45.3401C102.977 45.1593 102.884 45.0295 102.759 44.9506C102.634 44.8717 102.464 44.8322 102.251 44.8322C101.958 44.8322 101.73 44.9177 101.565 45.0886C101.401 45.2563 101.319 45.5012 101.319 45.8234C101.319 46.1456 101.401 46.3921 101.565 46.5631C101.733 46.7307 101.968 46.8146 102.27 46.8146C102.737 46.8146 103.012 46.6337 103.094 46.2721H104.159C104.116 46.7159 103.926 47.0611 103.587 47.3077C103.252 47.5509 102.805 47.6726 102.246 47.6726C101.799 47.6726 101.424 47.5937 101.122 47.4359C100.822 47.2781 100.596 47.0611 100.441 46.785C100.29 46.5055 100.214 46.185 100.214 45.8234C100.214 45.4716 100.29 45.156 100.441 44.8766C100.596 44.5972 100.824 44.3769 101.126 44.2158C101.429 44.0547 101.805 43.9742 102.256 43.9742C103.272 43.9742 103.883 44.3917 104.09 45.2267Z" fill="#010101"/>
<path d="M106.185 44.0629H107.251V47.5838H106.185V44.0629Z" fill="#010101"/>
<path d="M111.466 47.6726C111.032 47.6726 110.659 47.5986 110.347 47.4507C110.035 47.3027 109.793 47.0907 109.622 46.8146C109.454 46.5384 109.371 46.208 109.371 45.8234C109.371 45.4387 109.456 45.1084 109.627 44.8322C109.798 44.5561 110.041 44.344 110.357 44.1961C110.672 44.0481 111.049 43.9742 111.486 43.9742C111.92 43.9742 112.293 44.0481 112.605 44.1961C112.918 44.344 113.158 44.5561 113.325 44.8322C113.496 45.1084 113.582 45.4387 113.582 45.8234C113.582 46.208 113.496 46.5384 113.325 46.8146C113.154 47.0907 112.911 47.3027 112.596 47.4507C112.28 47.5986 111.904 47.6726 111.466 47.6726ZM112.477 45.8234C112.477 45.5078 112.389 45.2645 112.211 45.0936C112.037 44.9193 111.792 44.8322 111.476 44.8322C111.161 44.8322 110.914 44.9193 110.737 45.0936C110.562 45.2678 110.475 45.5111 110.475 45.8234C110.475 46.139 110.562 46.3839 110.737 46.5581C110.914 46.7291 111.161 46.8146 111.476 46.8146C111.792 46.8146 112.037 46.7274 112.211 46.5532C112.389 46.379 112.477 46.1357 112.477 45.8234Z" fill="#010101"/>
<path d="M115.703 44.0629H116.65L118.41 46.1784V44.0629H119.416V47.5838H118.469L116.709 45.4683V47.5838H115.703V44.0629Z" fill="#010101"/>
<path d="M122.873 44.0629H124.116L125.645 47.5838H124.54L124.279 46.9428H122.671L122.424 47.5838H121.345L122.873 44.0629ZM123.983 46.1538L123.48 44.8667L122.977 46.1538H123.983Z" fill="#010101"/>
<path d="M127.571 44.0629H128.636V47.5838H127.571V44.0629Z" fill="#010101"/>
<path d="M130.647 46.4398H131.693C131.755 46.762 132.025 46.923 132.502 46.923C132.988 46.923 133.231 46.8063 133.231 46.5729C133.231 46.4907 133.195 46.425 133.123 46.3757C133.051 46.3231 132.932 46.2853 132.768 46.2623L132.137 46.1686C131.65 46.093 131.295 45.9664 131.071 45.7889C130.851 45.6113 130.741 45.3681 130.741 45.059C130.741 44.7171 130.896 44.4509 131.205 44.2602C131.517 44.0695 131.946 43.9742 132.492 43.9742C133.501 43.9742 134.066 44.3276 134.188 45.0344L133.177 45.133C133.124 44.9884 133.042 44.8848 132.931 44.8223C132.819 44.7566 132.661 44.7237 132.457 44.7237C132.24 44.7237 132.072 44.75 131.954 44.8026C131.839 44.8552 131.782 44.9308 131.782 45.0295C131.782 45.1116 131.813 45.1741 131.875 45.2168C131.938 45.2596 132.053 45.2941 132.22 45.3204L132.99 45.4437C133.447 45.516 133.777 45.6393 133.981 45.8135C134.185 45.9845 134.287 46.2261 134.287 46.5384C134.287 46.9132 134.135 47.1959 133.833 47.3866C133.53 47.5772 133.085 47.6726 132.497 47.6726C131.339 47.6726 130.723 47.2616 130.647 46.4398Z" fill="#010101"/>
<path d="M41.2274 50.2269H44.3094V51.0011H42.2679V51.5732H44.2108V52.3474H42.2679V52.9736H44.4277L44.3291 53.7478H41.2274V50.2269Z" fill="#010101"/>
<path d="M49.3292 50.2269H51.0798C52.135 50.2269 52.6627 50.6329 52.6627 51.445C52.6627 51.8625 52.5263 52.1715 52.2534 52.372C51.9838 52.5693 51.5729 52.6679 51.0206 52.6679H50.3598V53.7478H49.3292V50.2269ZM51.0009 51.8789C51.2146 51.8789 51.3724 51.846 51.4743 51.7803C51.5762 51.7145 51.6271 51.6011 51.6271 51.44C51.6271 51.2888 51.5778 51.1803 51.4792 51.1146C51.3806 51.0488 51.2244 51.0159 51.0107 51.0159H50.3598V51.8789H51.0009Z" fill="#010101"/>
<path d="M55.4399 50.2269H56.6826L58.2113 53.7478H57.1067L56.8453 53.1068H55.2377L54.9912 53.7478H53.9112L55.4399 50.2269ZM56.5494 52.3178L56.0465 51.0307L55.5435 52.3178H56.5494Z" fill="#010101"/>
<path d="M60.1374 50.2269H61.9471C63.0024 50.2269 63.5301 50.6165 63.5301 51.3956C63.5301 51.6455 63.4775 51.8493 63.3723 52.0071C63.2671 52.1616 63.1125 52.2849 62.9087 52.377L63.7717 53.7478H62.6326L61.9373 52.5791H61.1335V53.7478H60.1374V50.2269ZM61.883 51.8197C62.1 51.8197 62.2578 51.7885 62.3564 51.726C62.4583 51.6603 62.5093 51.5518 62.5093 51.4006C62.5093 51.2493 62.4616 51.1425 62.3663 51.08C62.271 51.0176 62.1132 50.9864 61.8929 50.9864H61.1335V51.8197H61.883Z" fill="#010101"/>
<path d="M66.9175 50.2269H68.1602L69.6888 53.7478H68.5842L68.3229 53.1068H66.7153L66.4687 53.7478H65.3888L66.9175 50.2269ZM68.027 52.3178L67.524 51.0307L67.021 52.3178H68.027Z" fill="#010101"/>
<path d="M75.6116 50.2269H76.8543L78.383 53.7478H77.2784L77.017 53.1068H75.4094L75.1629 53.7478H74.083L75.6116 50.2269ZM76.7211 52.3178L76.2182 51.0307L75.7152 52.3178H76.7211Z" fill="#010101"/>
<path d="M83.1272 50.2269H86.2092V51.0011H84.1677V51.5732H86.1106V52.3474H84.1677V52.9736H86.3276L86.2289 53.7478H83.1272V50.2269Z" fill="#010101"/>
<path d="M88.1446 52.6038H89.19C89.2525 52.926 89.5221 53.087 89.9988 53.087C90.4853 53.087 90.7286 52.9703 90.7286 52.7369C90.7286 52.6547 90.6924 52.589 90.6201 52.5397C90.5478 52.4871 90.4294 52.4493 90.265 52.4263L89.6339 52.3326C89.1473 52.257 88.7923 52.1304 88.5687 51.9529C88.3484 51.7753 88.2383 51.5321 88.2383 51.223C88.2383 50.8812 88.3928 50.6149 88.7019 50.4242C89.0142 50.2335 89.4432 50.1382 89.9889 50.1382C90.9982 50.1382 91.5636 50.4916 91.6852 51.1984L90.6743 51.297C90.6217 51.1524 90.5396 51.0488 90.4278 50.9864C90.316 50.9206 90.1582 50.8877 89.9544 50.8877C89.7374 50.8877 89.5697 50.914 89.4514 50.9666C89.3363 51.0192 89.2788 51.0948 89.2788 51.1935C89.2788 51.2756 89.31 51.3381 89.3725 51.3808C89.435 51.4236 89.55 51.4581 89.7177 51.4844L90.487 51.6077C90.9439 51.68 91.2743 51.8033 91.4781 51.9775C91.6819 52.1485 91.7839 52.3901 91.7839 52.7024C91.7839 53.0772 91.6326 53.3599 91.3302 53.5506C91.0277 53.7413 90.5823 53.8366 89.9938 53.8366C88.8366 53.8366 88.2202 53.4257 88.1446 52.6038Z" fill="#010101"/>
<path d="M97.5476 51.3907L96.4972 51.5041C96.4348 51.3233 96.3411 51.1935 96.2162 51.1146C96.0912 51.0357 95.9219 50.9962 95.7083 50.9962C95.4157 50.9962 95.1872 51.0817 95.0228 51.2526C94.8584 51.4203 94.7763 51.6652 94.7763 51.9874C94.7763 52.3096 94.8584 52.5561 95.0228 52.7271C95.1905 52.8947 95.4255 52.9786 95.728 52.9786C96.1948 52.9786 96.4693 52.7977 96.5515 52.4361H97.6166C97.5739 52.8799 97.3832 53.2251 97.0446 53.4717C96.7093 53.715 96.2622 53.8366 95.7033 53.8366C95.2562 53.8366 94.8815 53.7577 94.579 53.5999C94.2798 53.4421 94.053 53.2251 93.8985 52.949C93.7473 52.6695 93.6717 52.349 93.6717 51.9874C93.6717 51.6356 93.7473 51.32 93.8985 51.0406C94.053 50.7612 94.2815 50.5409 94.5839 50.3798C94.8864 50.2187 95.2628 50.1382 95.7132 50.1382C96.729 50.1382 97.3405 50.5557 97.5476 51.3907Z" fill="#010101"/>
<path d="M99.6429 50.2269H101.453C102.508 50.2269 103.036 50.6165 103.036 51.3956C103.036 51.6455 102.983 51.8493 102.878 52.0071C102.773 52.1616 102.618 52.2849 102.414 52.377L103.277 53.7478H102.138L101.443 52.5791H100.639V53.7478H99.6429V50.2269ZM101.389 51.8197C101.606 51.8197 101.763 51.7885 101.862 51.726C101.964 51.6603 102.015 51.5518 102.015 51.4006C102.015 51.2493 101.967 51.1425 101.872 51.08C101.776 51.0176 101.619 50.9864 101.398 50.9864H100.639V51.8197H101.389Z" fill="#010101"/>
<path d="M105.201 50.2269H106.266V53.7478H105.201V50.2269Z" fill="#010101"/>
<path d="M109.506 51.0899H108.204V50.2269H111.873V51.0899H110.571V53.7478H109.506V51.0899Z" fill="#010101"/>
<path d="M114.443 50.2269H115.686L117.214 53.7478H116.11L115.848 53.1068H114.241L113.994 53.7478H112.914L114.443 50.2269ZM115.552 52.3178L115.049 51.0307L114.546 52.3178H115.552Z" fill="#010101"/>
</svg>
