<svg width="158" height="76" viewBox="0 0 158 76" fill="none" xmlns="http://www.w3.org/2000/svg">
<path d="M13.6302 29.7764C12.5579 29.3545 11.8196 28.7832 11.4153 28.0625C11.011 27.3418 10.844 26.542 10.9143 25.663C11.0022 24.7665 11.2835 23.8173 11.7581 22.8153C12.2503 21.7957 12.848 20.7761 13.5511 19.7566C14.2718 18.737 15.0629 17.7438 15.9242 16.777C16.7856 15.8102 17.6382 14.9224 18.4819 14.1138C19.3257 13.3052 20.1168 12.6021 20.8551 12.0044C21.5934 11.4067 22.191 10.9672 22.6481 10.686C23.2809 10.2992 23.8083 10.1147 24.2302 10.1322C24.6521 10.1322 24.986 10.2641 25.2321 10.5278C25.4958 10.7739 25.6716 11.1254 25.7595 11.5825C25.865 12.022 25.9089 12.4966 25.8913 13.0064C25.8913 13.4986 25.8386 13.9996 25.7331 14.5093C25.6452 15.0015 25.5222 15.4322 25.364 15.8014C25.2234 16.1705 25.0652 16.443 24.8894 16.6188C24.7312 16.7946 24.5729 16.8034 24.4147 16.6452C24.3972 16.5045 24.4147 16.2936 24.4675 16.0123C24.5202 15.7135 24.5817 15.3795 24.6521 15.0103C24.7399 14.6412 24.819 14.2632 24.8894 13.8765C24.9597 13.4898 25.0036 13.1382 25.0212 12.8218C25.0564 12.4878 25.0476 12.2065 24.9948 11.978C24.9597 11.7495 24.863 11.6176 24.7048 11.5825C24.0895 11.4243 23.3512 11.5737 22.4899 12.0307C21.6461 12.4702 20.7584 13.1118 19.8267 13.9556C18.9126 14.7818 17.9985 15.7486 17.0844 16.8561C16.1879 17.946 15.3705 19.071 14.6322 20.2312C13.8939 21.3914 13.2874 22.5252 12.8128 23.6327C12.3382 24.7226 12.0657 25.6894 11.9954 26.5332C11.9427 27.3594 12.1272 28.001 12.5491 28.458C12.9886 28.8975 13.7533 29.0381 14.8431 28.8799C15.8451 28.7393 16.768 28.3877 17.6118 27.8252C18.4731 27.2451 19.2993 26.6123 20.0904 25.9267C20.899 25.2236 21.6988 24.538 22.4899 23.87C23.2809 23.1844 24.1071 22.6659 24.9685 22.3143C25.2849 22.1912 25.531 22.2352 25.7068 22.4461C25.9001 22.6571 25.9529 22.912 25.865 23.2108C25.7595 23.5096 25.4431 23.9052 24.9157 24.3974C24.406 24.8896 23.7643 25.4081 22.9909 25.9531C22.235 26.4804 21.4 27.0166 20.4859 27.5615C19.5718 28.0889 18.6753 28.5459 17.7964 28.9327C16.935 29.3194 16.1264 29.6007 15.3705 29.7764C14.6322 29.9522 14.0521 29.9522 13.6302 29.7764Z" fill="#0078A3"/>
<path d="M26.5094 29.7764C26.4743 29.7589 26.4743 29.5567 26.5094 29.17C26.5622 28.7657 26.6325 28.2647 26.7204 27.667C26.8083 27.0693 26.9225 26.4101 27.0631 25.6894C27.2038 24.9687 27.3532 24.2831 27.5114 23.6327C27.6696 22.9647 27.8366 22.3846 28.0124 21.8924C28.2058 21.3826 28.3903 21.031 28.5661 20.8377C28.6892 20.7146 28.8122 20.7146 28.9353 20.8377C29.0583 20.9431 29.1814 21.0838 29.3044 21.2596C29.4275 21.4178 29.5505 21.5672 29.6736 21.7078C29.7966 21.8309 29.9285 21.8397 30.0691 21.7342C30.5613 21.0486 31.0975 20.3982 31.6776 19.783C32.2752 19.1501 32.9344 18.6052 33.6552 18.1481C33.7255 18.0954 33.9188 18.0163 34.2353 17.9108C34.5517 17.7878 34.912 17.6735 35.3163 17.568C35.7206 17.445 36.1337 17.3483 36.5556 17.278C36.9951 17.1901 37.3643 17.1549 37.6631 17.1725C37.9795 17.1725 38.1905 17.2516 38.2959 17.4098C38.419 17.5505 38.3662 17.7966 38.1377 18.1481C37.083 18.1657 36.0986 18.4733 35.1845 19.071C34.2704 19.6687 33.4266 20.407 32.6532 21.2859C31.8797 22.1649 31.1766 23.1229 30.5437 24.16C29.9109 25.1796 29.3572 26.1289 28.8825 27.0078C28.4255 27.8867 28.0388 28.6162 27.7223 29.1963C27.4235 29.7764 27.2038 30.0665 27.0631 30.0665C27.0456 30.0665 26.9665 30.0313 26.8258 29.961C26.6852 29.8731 26.5797 29.8116 26.5094 29.7764Z" fill="#0078A3"/>
<path d="M37.0946 29.7764C37.8153 27.4561 38.4657 25.6191 39.0458 24.2655C39.6435 22.8944 40.1357 21.9363 40.5224 21.3914C40.9268 20.8465 41.1992 20.6707 41.3399 20.864C41.4805 21.0574 41.4629 21.5496 41.2871 22.3406C41.1289 23.1317 40.7773 24.1952 40.2324 25.5312C39.705 26.8496 38.9579 28.3614 37.9911 30.0665C37.8505 30.1192 37.6835 30.128 37.4901 30.0929C37.2968 30.0577 37.1649 29.9522 37.0946 29.7764ZM41.709 17.0934C41.6738 17.0055 41.6563 16.8473 41.6563 16.6188C41.6563 16.3903 41.6738 16.2496 41.709 16.1969C42.1133 16.0563 42.4209 16.0387 42.6319 16.1442C42.8428 16.2496 42.9747 16.4078 43.0274 16.6188C43.0801 16.8122 43.0714 17.0231 43.001 17.2516C42.9483 17.4801 42.8516 17.6559 42.711 17.779C42.5704 17.8845 42.4034 17.902 42.21 17.8317C42.0342 17.7438 41.8672 17.4977 41.709 17.0934Z" fill="#0078A3"/>
<path d="M42.5117 29.7764C42.3007 29.6358 42.2919 29.4512 42.4853 29.2227C42.6962 28.9766 43.0214 28.7217 43.4609 28.458C43.9179 28.1768 44.4453 27.8867 45.043 27.5879C45.6407 27.2891 46.212 27.0078 46.7569 26.7441C47.3194 26.4804 47.8116 26.2519 48.2335 26.0585C48.6554 25.8476 48.9279 25.6894 49.0509 25.5839C49.631 25.0917 49.9299 24.6874 49.9474 24.371C49.9826 24.037 49.842 23.7733 49.5255 23.5799C49.2091 23.369 48.7609 23.2108 48.1808 23.1053C47.6183 22.9823 47.0294 22.8768 46.4141 22.7889C45.8164 22.6834 45.2363 22.578 44.6738 22.4725C44.1289 22.367 43.7158 22.2264 43.4345 22.0506C43.1533 21.8748 43.0566 21.6463 43.1445 21.365C43.25 21.0662 43.6367 20.6883 44.3047 20.2312C44.5508 20.0554 44.9111 19.8005 45.3858 19.4665C45.8604 19.1325 46.3702 18.7898 46.9151 18.4382C47.4776 18.0866 48.0314 17.7702 48.5763 17.4889C49.1212 17.2077 49.5783 17.0231 49.9474 16.9352C50.1408 16.9 50.3342 16.9176 50.5275 16.9879C50.7385 17.0583 50.9055 17.1637 51.0285 17.3044C51.1516 17.4274 51.2043 17.568 51.1867 17.7262C51.1867 17.8845 51.0725 18.0251 50.8439 18.1481C49.842 18.7107 48.8751 19.238 47.9435 19.7302C47.0294 20.2224 46.1065 20.7849 45.1748 21.4178C45.1221 21.5584 45.1309 21.6814 45.2012 21.7869C45.2891 21.8924 45.3858 21.9715 45.4912 22.0242C47.3546 22.2176 48.7521 22.4901 49.6838 22.8416C50.633 23.1932 51.2307 23.5799 51.4768 24.0018C51.7405 24.4237 51.7141 24.872 51.3977 25.3466C51.0813 25.8212 50.6066 26.2871 49.9738 26.7441C49.3586 27.2012 48.6466 27.6318 47.838 28.0361C47.0294 28.4405 46.2471 28.7832 45.4912 29.0645C44.7529 29.3458 44.1025 29.5567 43.54 29.6973C42.9775 29.838 42.6347 29.8643 42.5117 29.7764Z" fill="#0078A3"/>
<path d="M65.4223 29.7764C64.5434 29.4073 63.9633 28.8975 63.682 28.2471C63.4008 27.5791 63.3041 26.8672 63.392 26.1113C63.4799 25.3378 63.6908 24.5644 64.0248 23.7909C64.3764 23.0174 64.7367 22.3319 65.1059 21.7342C65.2289 21.5232 65.4575 21.1629 65.7915 20.6531C66.1255 20.1433 66.477 19.6072 66.8462 19.0446C67.2329 18.4645 67.5933 17.9284 67.9273 17.4362C68.2788 16.9264 68.5249 16.5748 68.6656 16.3815C68.8765 15.0279 69.2984 13.9556 69.9312 13.1646C70.5641 12.356 71.276 11.8022 72.067 11.5034C72.8757 11.2046 73.7019 11.143 74.5456 11.3188C75.3894 11.477 76.1277 11.855 76.7606 12.4526C77.3934 13.0327 77.8504 13.815 78.1317 14.7994C78.4129 15.7838 78.3866 16.9352 78.0526 18.2536C77.7362 19.572 77.0506 21.0486 75.9959 22.6834C74.9412 24.3183 73.3942 26.0849 71.3551 27.9834C71.0035 28.3174 70.5816 28.6426 70.0894 28.959C69.6148 29.2579 69.105 29.504 68.5601 29.6973C68.0327 29.8907 67.4966 30.005 66.9516 30.0401C66.4067 30.0753 65.8969 29.9874 65.4223 29.7764ZM64.4994 27.6934C64.6752 28.4844 65.0092 28.9766 65.5014 29.17C65.9936 29.3633 66.5737 29.3282 67.2417 29.0645C67.9097 28.8008 68.6392 28.3526 69.4302 27.7197C70.2213 27.0869 71.0123 26.3486 71.8034 25.5048C72.5944 24.6435 73.3503 23.7118 74.071 22.7098C74.7917 21.7078 75.4158 20.7146 75.9431 19.7302C76.4881 18.7458 76.9012 17.8053 77.1824 16.9088C77.4637 16.0123 77.5516 15.2389 77.4461 14.5884C77.3582 13.9205 77.0418 13.4195 76.4969 13.0855C75.9695 12.7515 75.1521 12.6548 74.0446 12.7954C73.6403 13.147 73.1042 13.6656 72.4362 14.3511C71.7682 15.0191 71.0563 15.7838 70.3004 16.6452C69.5445 17.5065 68.7886 18.4382 68.0327 19.4402C67.2769 20.4246 66.6089 21.409 66.0288 22.3934C65.4487 23.3778 65.0092 24.327 64.7104 25.2411C64.4115 26.1552 64.3412 26.9726 64.4994 27.6934Z" fill="#0078A3"/>
<path d="M78.2635 29.7764C77.7538 29.4073 77.4198 28.9414 77.2616 28.3789C77.1209 27.8164 77.1033 27.2099 77.2088 26.5595C77.3143 25.8915 77.4989 25.206 77.7625 24.5028C78.0438 23.7997 78.3426 23.1229 78.659 22.4725C78.993 21.8221 79.3095 21.2244 79.6083 20.6795C79.9247 20.1345 80.1708 19.6863 80.3466 19.3347C80.3993 19.2292 80.5224 18.9743 80.7158 18.57C80.9267 18.1657 81.1464 17.7262 81.375 17.2516C81.6035 16.777 81.8144 16.3375 82.0078 15.9332C82.2187 15.5113 82.3506 15.2476 82.4033 15.1422C82.456 15.0543 82.5264 14.8873 82.6143 14.6412C82.7197 14.3775 82.834 14.0962 82.957 13.7974C83.0801 13.4986 83.2119 13.2173 83.3526 12.9536C83.5108 12.6724 83.669 12.4702 83.8272 12.3472C84.003 12.2241 84.17 12.2065 84.3282 12.2944C84.504 12.3823 84.671 12.646 84.8292 13.0855C84.7589 13.2613 84.5831 13.6128 84.3018 14.1402C84.0381 14.6676 83.7217 15.3004 83.3526 16.0387C82.9834 16.777 82.5703 17.5944 82.1133 18.4909C81.6738 19.3874 81.2431 20.2927 80.8212 21.2068C80.3993 22.1209 80.0038 23.0174 79.6347 23.8964C79.2655 24.7577 78.9579 25.5488 78.7118 26.2695C78.4833 26.9726 78.3426 27.5615 78.2899 28.0361C78.2547 28.4932 78.3426 28.7745 78.5536 28.8799C78.7997 29.003 79.1161 29.0557 79.5028 29.0381C79.9071 29.003 80.3202 28.9502 80.7421 28.8799C81.164 28.8096 81.5771 28.7393 81.9814 28.669C82.3857 28.5811 82.7373 28.5459 83.0361 28.5635C83.1065 28.7217 83.0537 28.8799 82.8779 29.0381C82.7021 29.1788 82.456 29.3106 82.1396 29.4337C81.8232 29.5391 81.4541 29.6358 81.0322 29.7237C80.6279 29.794 80.2323 29.8468 79.8456 29.8819C79.4765 29.9171 79.1425 29.9259 78.8436 29.9083C78.5624 29.8907 78.369 29.8468 78.2635 29.7764Z" fill="#0078A3"/>
<path d="M83.9443 29.7764C84.665 27.4561 85.3154 25.6191 85.8955 24.2655C86.4932 22.8944 86.9854 21.9363 87.3721 21.3914C87.7764 20.8465 88.0489 20.6707 88.1895 20.864C88.3301 21.0574 88.3126 21.5496 88.1368 22.3406C87.9786 23.1317 87.627 24.1952 87.0821 25.5312C86.5547 26.8496 85.8076 28.3614 84.8408 30.0665C84.7001 30.1192 84.5331 30.128 84.3398 30.0929C84.1464 30.0577 84.0146 29.9522 83.9443 29.7764ZM88.5587 17.0934C88.5235 17.0055 88.5059 16.8473 88.5059 16.6188C88.5059 16.3903 88.5235 16.2496 88.5587 16.1969C88.963 16.0563 89.2706 16.0387 89.4816 16.1442C89.6925 16.2496 89.8243 16.4078 89.8771 16.6188C89.9298 16.8122 89.921 17.0231 89.8507 17.2516C89.798 17.4801 89.7013 17.6559 89.5607 17.779C89.42 17.8845 89.253 17.902 89.0597 17.8317C88.8839 17.7438 88.7169 17.4977 88.5587 17.0934Z" fill="#0078A3"/>
<path d="M90.0996 29.46C89.7305 29.2491 89.4668 28.9151 89.3086 28.458C89.1504 28.001 89.0625 27.4824 89.0449 26.9023C89.0273 26.3222 89.0625 25.7158 89.1504 25.0829C89.2383 24.4501 89.3437 23.8348 89.4668 23.2372C89.5898 22.6395 89.7129 22.1033 89.836 21.6287C89.959 21.1541 90.0469 20.7849 90.0996 20.5213C90.1875 20.4685 90.2754 20.4685 90.3633 20.5213C90.4688 20.574 90.5655 20.6531 90.6534 20.7586C90.7588 20.8465 90.8379 20.9344 90.8907 21.0222C90.961 21.0926 90.9961 21.1277 90.9961 21.1277C91.0489 21.743 91.0489 22.3494 90.9961 22.9471C90.961 23.5272 90.9082 24.1073 90.8379 24.6874C90.7852 25.2675 90.7325 25.8564 90.6797 26.4541C90.6446 27.0517 90.6446 27.6582 90.6797 28.2735C90.8204 28.5371 91.1104 28.5459 91.5499 28.2998C91.9893 28.0361 92.5255 27.623 93.1583 27.0605C93.7912 26.4804 94.4767 25.8037 95.215 25.0302C95.9709 24.2391 96.7092 23.4569 97.4299 22.6834C98.1683 21.91 98.8626 21.1892 99.513 20.5213C100.163 19.8357 100.708 19.3171 101.148 18.9655C101.605 18.5964 101.921 18.447 102.097 18.5173C102.273 18.57 102.247 18.9392 102.018 19.6247C101.596 19.9939 101.095 20.5476 100.515 21.2859C99.9349 22.0242 99.3021 22.8241 98.6165 23.6854C97.9309 24.5292 97.219 25.373 96.4807 26.2168C95.7424 27.0605 94.9953 27.79 94.2394 28.4053C93.5011 29.003 92.7804 29.4249 92.0772 29.671C91.3741 29.8995 90.7149 29.8292 90.0996 29.46Z" fill="#0078A3"/>
<path d="M103.084 29.7764C102.557 29.6007 102.153 29.337 101.871 28.9854C101.608 28.6162 101.432 28.2119 101.344 27.7725C101.256 27.333 101.239 26.876 101.291 26.4013C101.362 25.9091 101.467 25.4433 101.608 25.0038C102.135 24.4413 102.724 23.7997 103.374 23.079C104.042 22.3406 104.745 21.6199 105.484 20.9168C106.222 20.2136 106.987 19.5632 107.778 18.9655C108.586 18.3503 109.404 17.8845 110.23 17.568C110.511 17.445 110.731 17.4538 110.889 17.5944C111.065 17.7175 111.188 17.9196 111.258 18.2009C111.329 18.4821 111.355 18.8073 111.337 19.1765C111.337 19.5456 111.311 19.906 111.258 20.2576C111.206 20.6091 111.135 20.9256 111.047 21.2068C110.96 21.4881 110.872 21.6814 110.784 21.7869C110.573 22.033 110.16 22.3231 109.544 22.6571C108.947 22.9911 108.279 23.3602 107.54 23.7645C106.802 24.1513 106.064 24.5556 105.326 24.9775C104.587 25.3993 103.981 25.8212 103.506 26.2431C103.032 26.6474 102.75 27.0517 102.662 27.456C102.575 27.8604 102.821 28.2295 103.401 28.5635C103.998 28.6338 104.719 28.6075 105.563 28.4844C106.424 28.3438 107.294 28.168 108.173 27.957C109.07 27.7285 109.931 27.5 110.757 27.2715C111.584 27.0254 112.26 26.832 112.788 26.6914L113.104 26.9814C112.717 27.4912 112.085 27.957 111.206 28.3789C110.327 28.8008 109.377 29.1524 108.358 29.4337C107.338 29.6973 106.345 29.8731 105.378 29.961C104.411 30.0313 103.647 29.9698 103.084 29.7764ZM109.386 19.7038C109.369 19.6863 109.237 19.7654 108.991 19.9412C108.745 20.0994 108.437 20.3191 108.068 20.6004C107.716 20.864 107.33 21.1629 106.908 21.4969C106.503 21.8133 106.125 22.1121 105.774 22.3934C105.44 22.6746 105.159 22.9207 104.93 23.1317C104.702 23.3251 104.605 23.4217 104.64 23.4217C104.921 23.4745 105.282 23.4393 105.721 23.3163C106.178 23.1756 106.644 22.9823 107.119 22.7362C107.611 22.4901 108.077 22.2176 108.516 21.9188C108.956 21.6023 109.298 21.2947 109.544 20.9959C109.808 20.697 109.94 20.4334 109.94 20.2048C109.958 19.9763 109.773 19.8093 109.386 19.7038Z" fill="#0078A3"/>
<path d="M112.603 29.7764C113.324 27.4561 113.974 25.6191 114.554 24.2655C115.152 22.8944 115.644 21.9363 116.031 21.3914C116.435 20.8465 116.708 20.6707 116.848 20.864C116.989 21.0574 116.971 21.5496 116.796 22.3406C116.637 23.1317 116.286 24.1952 115.741 25.5312C115.214 26.8496 114.466 28.3614 113.5 30.0665C113.359 30.1192 113.192 30.128 112.999 30.0929C112.805 30.0577 112.673 29.9522 112.603 29.7764ZM117.218 17.0934C117.182 17.0055 117.165 16.8473 117.165 16.6188C117.165 16.3903 117.182 16.2496 117.218 16.1969C117.622 16.0563 117.929 16.0387 118.14 16.1442C118.351 16.2496 118.483 16.4078 118.536 16.6188C118.589 16.8122 118.58 17.0231 118.51 17.2516C118.457 17.4801 118.36 17.6559 118.22 17.779C118.079 17.8845 117.912 17.902 117.719 17.8317C117.543 17.7438 117.376 17.4977 117.218 17.0934Z" fill="#0078A3"/>
<path d="M118.02 29.7764C117.985 29.7589 117.985 29.5567 118.02 29.17C118.073 28.7657 118.143 28.2647 118.231 27.667C118.319 27.0693 118.433 26.4101 118.574 25.6894C118.715 24.9687 118.864 24.2831 119.022 23.6327C119.18 22.9647 119.347 22.3846 119.523 21.8924C119.717 21.3826 119.901 21.031 120.077 20.8377C120.2 20.7146 120.323 20.7146 120.446 20.8377C120.569 20.9431 120.692 21.0838 120.815 21.2596C120.938 21.4178 121.061 21.5672 121.184 21.7078C121.307 21.8309 121.439 21.8397 121.58 21.7342C122.072 21.0486 122.608 20.3982 123.188 19.783C123.786 19.1501 124.445 18.6052 125.166 18.1481C125.236 18.0954 125.43 18.0163 125.746 17.9108C126.062 17.7878 126.423 17.6735 126.827 17.568C127.231 17.445 127.645 17.3483 128.066 17.278C128.506 17.1901 128.875 17.1549 129.174 17.1725C129.49 17.1725 129.701 17.2516 129.807 17.4098C129.93 17.5505 129.877 17.7966 129.649 18.1481C128.594 18.1657 127.609 18.4733 126.695 19.071C125.781 19.6687 124.937 20.407 124.164 21.2859C123.39 22.1649 122.687 23.1229 122.055 24.16C121.422 25.1796 120.868 26.1289 120.393 27.0078C119.936 27.8867 119.55 28.6162 119.233 29.1963C118.934 29.7764 118.715 30.0665 118.574 30.0665C118.556 30.0665 118.477 30.0313 118.337 29.961C118.196 29.8731 118.091 29.8116 118.02 29.7764Z" fill="#0078A3"/>
<path d="M127.253 29.46C126.831 29.1084 126.594 28.5899 126.541 27.9043C126.506 27.2187 126.603 26.4453 126.831 25.5839C127.077 24.7226 127.429 23.826 127.886 22.8944C128.361 21.9451 128.906 21.0486 129.521 20.2048C130.136 19.3435 130.804 18.5788 131.525 17.9108C132.246 17.2253 132.966 16.7243 133.687 16.4078C134.408 16.0738 135.111 15.9596 135.796 16.0651C136.482 16.153 137.106 16.5485 137.669 17.2516C138.02 17.6911 138.231 18.1393 138.301 18.5964C138.372 19.0359 138.363 19.4929 138.275 19.9675C138.187 20.4246 138.047 20.8992 137.853 21.3914C137.66 21.866 137.466 22.3494 137.273 22.8416C137.097 23.3338 136.948 23.8348 136.825 24.3446C136.719 24.8544 136.702 25.373 136.772 25.9003C136.86 26.5683 137.159 26.9638 137.669 27.0869C138.178 27.2099 138.785 27.1748 139.488 26.9814C140.209 26.7881 140.965 26.4804 141.756 26.0585C142.547 25.6367 143.276 25.2148 143.944 24.7929C144.63 24.371 145.192 24.0018 145.632 23.6854C146.089 23.369 146.317 23.2108 146.317 23.2108C146.81 23.1053 147.082 23.1405 147.135 23.3163C147.205 23.4745 147.108 23.7206 146.845 24.0546C146.599 24.371 146.221 24.7401 145.711 25.162C145.201 25.5663 144.621 25.9619 143.971 26.3486C143.32 26.7353 142.626 27.0869 141.887 27.4033C141.149 27.7197 140.428 27.9395 139.725 28.0625C139.022 28.168 138.354 28.1592 137.721 28.0361C137.106 27.8955 136.596 27.5791 136.192 27.0869C135.999 26.876 135.849 26.665 135.744 26.4541C135.656 26.2431 135.506 26.0585 135.295 25.9003C135.032 26.1464 134.715 26.4716 134.346 26.876C133.977 27.2627 133.573 27.6582 133.133 28.0625C132.711 28.4492 132.254 28.8184 131.762 29.17C131.288 29.5215 130.795 29.7852 130.286 29.961C129.776 30.1368 129.257 30.1983 128.73 30.1456C128.22 30.0929 127.728 29.8643 127.253 29.46ZM127.543 28.5635C127.701 29.126 128.053 29.3897 128.598 29.3545C129.143 29.3018 129.776 29.0293 130.497 28.5371C131.217 28.0449 131.964 27.3769 132.738 26.5332C133.511 25.6718 134.206 24.7226 134.821 23.6854C135.436 22.6307 135.902 21.5232 136.218 20.363C136.552 19.2029 136.64 18.0602 136.482 16.9352C136.06 16.6012 135.533 16.5924 134.9 16.9088C134.267 17.2077 133.59 17.7087 132.87 18.4118C132.166 19.0974 131.463 19.9236 130.76 20.8904C130.075 21.8397 129.468 22.8065 128.941 23.7909C128.413 24.7577 128.009 25.6718 127.728 26.5332C127.464 27.3945 127.403 28.0713 127.543 28.5635Z" fill="#0078A3"/>
<path d="M26.0535 44.0293H23.8755V42.5855H30.0137V44.0293H27.8356V48.4762H26.0535V44.0293Z" fill="#FF9A2E"/>
<path d="M34.9686 46.0341C34.9686 46.4301 35.0676 46.7216 35.2656 46.9086C35.4691 47.0956 35.7881 47.1891 36.2226 47.1891C36.6626 47.1891 36.9816 47.0956 37.1796 46.9086C37.3831 46.7216 37.4849 46.4301 37.4849 46.0341V42.5855H39.2669V45.8939C39.2669 46.8619 39.0057 47.5604 38.4831 47.9894C37.9606 48.4129 37.2071 48.6247 36.2226 48.6247C35.2436 48.6247 34.4928 48.4129 33.9703 47.9894C33.4478 47.5604 33.1865 46.8619 33.1865 45.8939V42.5855H34.9686V46.0341Z" fill="#FF9A2E"/>
<path d="M43.011 42.5855H45.7995C46.9876 42.5855 47.8841 42.8358 48.4891 43.3363C49.0941 43.8313 49.3966 44.5628 49.3966 45.5308C49.3966 46.4659 49.0804 47.1919 48.4479 47.7089C47.8154 48.2204 46.9078 48.4762 45.7253 48.4762H43.011V42.5855ZM45.7665 47.0654C46.9821 47.0654 47.5898 46.5511 47.5898 45.5226C47.5898 44.5051 47.0041 43.9963 45.8326 43.9963H44.7683V47.0654H45.7665Z" fill="#FF9A2E"/>
<path d="M56.1971 48.6247C55.4711 48.6247 54.8468 48.5009 54.3243 48.2534C53.8018 48.0059 53.3975 47.6512 53.1115 47.1891C52.831 46.7271 52.6907 46.1744 52.6907 45.5308C52.6907 44.8873 52.8337 44.3346 53.1198 43.8726C53.4058 43.4105 53.8128 43.0558 54.3408 42.8083C54.8688 42.5608 55.4986 42.437 56.2301 42.437C56.9561 42.437 57.5804 42.5608 58.1029 42.8083C58.6254 43.0558 59.0269 43.4105 59.3074 43.8726C59.5934 44.3346 59.7364 44.8873 59.7364 45.5308C59.7364 46.1744 59.5934 46.7271 59.3074 47.1891C59.0214 47.6512 58.6144 48.0059 58.0864 48.2534C57.5584 48.5009 56.9286 48.6247 56.1971 48.6247ZM57.8884 45.5308C57.8884 45.0028 57.7399 44.5958 57.4429 44.3098C57.1514 44.0183 56.7416 43.8726 56.2136 43.8726C55.6856 43.8726 55.2731 44.0183 54.9761 44.3098C54.6845 44.6013 54.5388 45.0083 54.5388 45.5308C54.5388 46.0589 54.6845 46.4686 54.9761 46.7601C55.2731 47.0461 55.6856 47.1891 56.2136 47.1891C56.7416 47.1891 57.1514 47.0434 57.4429 46.7519C57.7399 46.4604 57.8884 46.0534 57.8884 45.5308Z" fill="#FF9A2E"/>
<path d="M68.0001 42.5855H70.7887C71.9767 42.5855 72.8732 42.8358 73.4783 43.3363C74.0833 43.8313 74.3858 44.5628 74.3858 45.5308C74.3858 46.4659 74.0695 47.1919 73.437 47.7089C72.8045 48.2204 71.897 48.4762 70.7144 48.4762H68.0001V42.5855ZM70.7557 47.0654C71.9712 47.0654 72.579 46.5511 72.579 45.5226C72.579 44.5051 71.9932 43.9963 70.8217 43.9963H69.7574V47.0654H70.7557Z" fill="#FF9A2E"/>
<path d="M77.9439 42.5855H83.1003V43.8808H79.6847V44.8378H82.9353V46.1331H79.6847V47.1809H83.2983L83.1333 48.4762H77.9439V42.5855Z" fill="#FF9A2E"/>
<path d="M93.1075 44.0293H90.9295V42.5855H97.0676V44.0293H94.8896V48.4762H93.1075V44.0293Z" fill="#FF9A2E"/>
<path d="M100.307 42.5855H105.463V43.8808H102.047V44.8378H105.298V46.1331H102.047V47.1809H105.661L105.496 48.4762H100.307V42.5855Z" fill="#FF9A2E"/>
<path d="M115.631 48.4762H113.544L112.042 46.5044L110.541 48.4762H108.561L110.953 45.4153L108.742 42.5855H110.83L112.067 44.3016L113.371 42.5855H115.351L113.164 45.3576L115.631 48.4762Z" fill="#FF9A2E"/>
<path d="M120.465 44.0293H118.287V42.5855H124.426V44.0293H122.247V48.4762H120.465V44.0293Z" fill="#FF9A2E"/>
<path d="M130.641 48.6247C129.915 48.6247 129.291 48.5009 128.768 48.2534C128.246 48.0059 127.841 47.6512 127.555 47.1891C127.275 46.7271 127.134 46.1744 127.134 45.5308C127.134 44.8873 127.277 44.3346 127.563 43.8726C127.85 43.4105 128.257 43.0558 128.785 42.8083C129.313 42.5608 129.942 42.437 130.674 42.437C131.4 42.437 132.024 42.5608 132.547 42.8083C133.069 43.0558 133.471 43.4105 133.751 43.8726C134.037 44.3346 134.18 44.8873 134.18 45.5308C134.18 46.1744 134.037 46.7271 133.751 47.1891C133.465 47.6512 133.058 48.0059 132.53 48.2534C132.002 48.5009 131.372 48.6247 130.641 48.6247ZM132.332 45.5308C132.332 45.0028 132.184 44.5958 131.887 44.3098C131.595 44.0183 131.185 43.8726 130.657 43.8726C130.129 43.8726 129.717 44.0183 129.42 44.3098C129.128 44.6013 128.983 45.0083 128.983 45.5308C128.983 46.0589 129.128 46.4686 129.42 46.7601C129.717 47.0461 130.129 47.1891 130.657 47.1891C131.185 47.1891 131.595 47.0434 131.887 46.7519C132.184 46.4604 132.332 46.0534 132.332 45.5308Z" fill="#FF9A2E"/>
<path d="M24.0154 58.237H25.0561C25.1183 58.5577 25.3867 58.7181 25.8613 58.7181C26.3456 58.7181 26.5878 58.6019 26.5878 58.3695C26.5878 58.2877 26.5518 58.2223 26.4798 58.1732C26.4078 58.1208 26.29 58.0832 26.1264 58.0602L25.498 57.967C25.0136 57.8917 24.6601 57.7657 24.4376 57.589C24.2183 57.4122 24.1087 57.17 24.1087 56.8624C24.1087 56.522 24.2625 56.2569 24.5701 56.0671C24.881 55.8773 25.3081 55.7824 25.8514 55.7824C26.8562 55.7824 27.4191 56.1342 27.5402 56.8378L26.5338 56.936C26.4815 56.792 26.3996 56.6889 26.2884 56.6267C26.1771 56.5613 26.02 56.5286 25.8171 56.5286C25.6011 56.5286 25.4342 56.5547 25.3163 56.6071C25.2018 56.6595 25.1445 56.7347 25.1445 56.8329C25.1445 56.9148 25.1756 56.9769 25.2378 57.0195C25.3 57.062 25.4145 57.0964 25.5814 57.1226L26.3473 57.2453C26.8022 57.3173 27.1311 57.44 27.334 57.6135C27.5369 57.7837 27.6384 58.0242 27.6384 58.3352C27.6384 58.7083 27.4879 58.9897 27.1868 59.1796C26.8857 59.3694 26.4422 59.4643 25.8563 59.4643C24.7043 59.4643 24.0907 59.0552 24.0154 58.237Z" fill="#FF9A2E"/>
<path d="M31.6042 59.4643C31.1722 59.4643 30.8008 59.3907 30.4898 59.2434C30.1789 59.0961 29.9384 58.885 29.7682 58.6101C29.6013 58.3352 29.5178 58.0062 29.5178 57.6233C29.5178 57.2404 29.6029 56.9115 29.7731 56.6366C29.9433 56.3616 30.1855 56.1505 30.4997 56.0033C30.8138 55.856 31.1886 55.7824 31.6239 55.7824C32.0559 55.7824 32.4274 55.856 32.7383 56.0033C33.0492 56.1505 33.2881 56.3616 33.455 56.6366C33.6252 56.9115 33.7103 57.2404 33.7103 57.6233C33.7103 58.0062 33.6252 58.3352 33.455 58.6101C33.2848 58.885 33.0426 59.0961 32.7285 59.2434C32.4143 59.3907 32.0395 59.4643 31.6042 59.4643ZM32.6106 57.6233C32.6106 57.3091 32.5223 57.0669 32.3455 56.8968C32.1721 56.7233 31.9282 56.6366 31.6141 56.6366C31.2999 56.6366 31.0544 56.7233 30.8777 56.8968C30.7042 57.0702 30.6175 57.3124 30.6175 57.6233C30.6175 57.9375 30.7042 58.1813 30.8777 58.3548C31.0544 58.525 31.2999 58.6101 31.6141 58.6101C31.9282 58.6101 32.1721 58.5234 32.3455 58.3499C32.5223 58.1764 32.6106 57.9342 32.6106 57.6233Z" fill="#FF9A2E"/>
<path d="M35.822 55.8707H36.8824V58.5168H38.8756L38.7676 59.3759H35.822V55.8707Z" fill="#FF9A2E"/>
<path d="M41.8157 57.9228C41.8157 58.1584 41.8746 58.3319 41.9924 58.4432C42.1135 58.5544 42.3033 58.6101 42.5619 58.6101C42.8237 58.6101 43.0135 58.5544 43.1313 58.4432C43.2524 58.3319 43.313 58.1584 43.313 57.9228V55.8707H44.3734V57.8393C44.3734 58.4153 44.2179 58.831 43.907 59.0863C43.5961 59.3383 43.1477 59.4643 42.5619 59.4643C41.9793 59.4643 41.5326 59.3383 41.2216 59.0863C40.9107 58.831 40.7553 58.4153 40.7553 57.8393V55.8707H41.8157V57.9228Z" fill="#FF9A2E"/>
<path d="M50.3028 57.0293L49.2572 57.1422C49.195 56.9622 49.1017 56.8329 48.9773 56.7544C48.853 56.6758 48.6844 56.6366 48.4717 56.6366C48.1804 56.6366 47.9529 56.7217 47.7893 56.8918C47.6257 57.0588 47.5438 57.3026 47.5438 57.6233C47.5438 57.9441 47.6257 58.1895 47.7893 58.3597C47.9562 58.5266 48.1902 58.6101 48.4913 58.6101C48.9561 58.6101 49.2293 58.4301 49.3112 58.0701H50.3716C50.329 58.5119 50.1392 58.8555 49.8021 59.101C49.4683 59.3432 49.0232 59.4643 48.4668 59.4643C48.0217 59.4643 47.6486 59.3857 47.3475 59.2286C47.0496 59.0716 46.8238 58.8555 46.67 58.5806C46.5194 58.3024 46.4442 57.9833 46.4442 57.6233C46.4442 57.2731 46.5194 56.9589 46.67 56.6807C46.8238 56.4026 47.0513 56.1833 47.3524 56.0229C47.6535 55.8625 48.0282 55.7824 48.4766 55.7824C49.4879 55.7824 50.0966 56.198 50.3028 57.0293ZM48.2115 59.2679L48.6779 59.3759L48.5846 59.5919C48.7908 59.6148 48.943 59.6639 49.0412 59.7392C49.1393 59.8178 49.1884 59.9192 49.1884 60.0436C49.1884 60.1876 49.1164 60.3005 48.9724 60.3823C48.8284 60.4641 48.6255 60.5051 48.3637 60.5051C48.1248 60.5051 47.9366 60.4821 47.7991 60.4363V60.0387C47.8809 60.0518 47.9529 60.0616 48.0151 60.0681C48.0806 60.0779 48.1428 60.0829 48.2017 60.0829C48.3064 60.0829 48.3817 60.073 48.4275 60.0534C48.4766 60.037 48.5011 60.0109 48.5011 59.9749C48.5011 59.929 48.4717 59.8979 48.4128 59.8816C48.3571 59.8652 48.2606 59.857 48.1231 59.857H47.9513L48.2115 59.2679Z" fill="#FF9A2E"/>
<path d="M54.3181 59.4643C53.8861 59.4643 53.5147 59.3907 53.2037 59.2434C52.8928 59.0961 52.6523 58.885 52.4821 58.6101C52.3152 58.3352 52.2317 58.0062 52.2317 57.6233C52.2317 57.2404 52.3168 56.9115 52.487 56.6366C52.6572 56.3616 52.8994 56.1505 53.2136 56.0033C53.5278 55.856 53.9025 55.7824 54.3378 55.7824C54.7698 55.7824 55.1413 55.856 55.4522 56.0033C55.7631 56.1505 56.002 56.3616 56.1689 56.6366C56.3391 56.9115 56.4242 57.2404 56.4242 57.6233C56.4242 58.0062 56.3391 58.3352 56.1689 58.6101C55.9987 58.885 55.7565 59.0961 55.4424 59.2434C55.1282 59.3907 54.7534 59.4643 54.3181 59.4643ZM55.3245 57.6233C55.3245 57.3091 55.2362 57.0669 55.0594 56.8968C54.886 56.7233 54.6421 56.6366 54.328 56.6366C54.0138 56.6366 53.7683 56.7233 53.5916 56.8968C53.4181 57.0702 53.3314 57.3124 53.3314 57.6233C53.3314 57.9375 53.4181 58.1813 53.5916 58.3548C53.7683 58.525 54.0138 58.6101 54.328 58.6101C54.6421 58.6101 54.886 58.5234 55.0594 58.3499C55.2362 58.1764 55.3245 57.9342 55.3245 57.6233ZM53.2185 55.5811C53.2185 55.2898 53.2725 55.0803 53.3805 54.9527C53.4885 54.8251 53.6505 54.7612 53.8665 54.7612C54.0236 54.7612 54.2101 54.8152 54.4261 54.9232C54.5112 54.9658 54.5767 54.9952 54.6225 55.0116C54.6683 55.028 54.7092 55.0361 54.7452 55.0361C54.8074 55.0361 54.8483 55.0165 54.868 54.9772C54.8876 54.9347 54.8974 54.8676 54.8974 54.776H55.4816C55.4816 55.0574 55.4276 55.2652 55.3196 55.3994C55.2116 55.5303 55.0496 55.5958 54.8336 55.5958C54.6798 55.5958 54.4981 55.5434 54.2887 55.4387C54.1283 55.3602 54.017 55.3209 53.9549 55.3209C53.8959 55.3209 53.855 55.3438 53.8321 55.3896C53.8125 55.4322 53.8027 55.496 53.8027 55.5811H53.2185Z" fill="#FF9A2E"/>
<path d="M58.5359 55.8707H61.6042V56.6415H59.5718V57.2109H61.506V57.9817H59.5718V58.6052H61.722L61.6238 59.3759H58.5359V55.8707Z" fill="#FF9A2E"/>
<path d="M63.531 58.237H64.5718C64.6339 58.5577 64.9023 58.7181 65.3769 58.7181C65.8613 58.7181 66.1034 58.6019 66.1034 58.3695C66.1034 58.2877 66.0674 58.2223 65.9954 58.1732C65.9234 58.1208 65.8056 58.0832 65.642 58.0602L65.0136 57.967C64.5292 57.8917 64.1757 57.7657 63.9532 57.589C63.7339 57.4122 63.6243 57.17 63.6243 56.8624C63.6243 56.522 63.7781 56.2569 64.0857 56.0671C64.3967 55.8773 64.8238 55.7824 65.3671 55.7824C66.3718 55.7824 66.9347 56.1342 67.0558 56.8378L66.0494 56.936C65.9971 56.792 65.9153 56.6889 65.804 56.6267C65.6927 56.5613 65.5356 56.5286 65.3327 56.5286C65.1167 56.5286 64.9498 56.5547 64.8319 56.6071C64.7174 56.6595 64.6601 56.7347 64.6601 56.8329C64.6601 56.9148 64.6912 56.9769 64.7534 57.0195C64.8156 57.062 64.9301 57.0964 65.097 57.1226L65.8629 57.2453C66.3178 57.3173 66.6467 57.44 66.8496 57.6135C67.0526 57.7837 67.154 58.0242 67.154 58.3352C67.154 58.7083 67.0035 58.9897 66.7024 59.1796C66.4013 59.3694 65.9578 59.4643 65.372 59.4643C64.2199 59.4643 63.6063 59.0552 63.531 58.237Z" fill="#FF9A2E"/>
<path d="M71.9961 55.8707H75.0644V56.6415H73.0319V57.2109H74.9662V57.9817H73.0319V58.6052H75.1822L75.084 59.3759H71.9961V55.8707Z" fill="#FF9A2E"/>
<path d="M77.2563 55.8707H78.9156C79.6225 55.8707 80.156 56.0196 80.516 56.3175C80.876 56.612 81.056 57.0473 81.056 57.6233C81.056 58.1797 80.8678 58.6117 80.4914 58.9194C80.1151 59.2237 79.5751 59.3759 78.8714 59.3759H77.2563V55.8707ZM78.8959 58.5364C79.6192 58.5364 79.9809 58.2304 79.9809 57.6184C79.9809 57.0129 79.6323 56.7102 78.9352 56.7102H78.3019V58.5364H78.8959Z" fill="#FF9A2E"/>
<path d="M84.1944 57.9228C84.1944 58.1584 84.2533 58.3319 84.3711 58.4432C84.4922 58.5544 84.682 58.6101 84.9406 58.6101C85.2024 58.6101 85.3922 58.5544 85.51 58.4432C85.6311 58.3319 85.6917 58.1584 85.6917 57.9228V55.8707H86.7521V57.8393C86.7521 58.4153 86.5966 58.831 86.2857 59.0863C85.9748 59.3383 85.5264 59.4643 84.9406 59.4643C84.358 59.4643 83.9113 59.3383 83.6003 59.0863C83.2894 58.831 83.134 58.4153 83.134 57.8393V55.8707H84.1944V57.9228Z" fill="#FF9A2E"/>
<path d="M92.6815 57.0293L91.6359 57.1422C91.5737 56.9622 91.4804 56.8329 91.356 56.7544C91.2317 56.6758 91.0631 56.6366 90.8504 56.6366C90.5591 56.6366 90.3316 56.7217 90.168 56.8918C90.0044 57.0588 89.9225 57.3026 89.9225 57.6233C89.9225 57.9441 90.0044 58.1895 90.168 58.3597C90.3349 58.5266 90.5689 58.6101 90.87 58.6101C91.3348 58.6101 91.608 58.4301 91.6899 58.0701H92.7503C92.7077 58.5119 92.5179 58.8555 92.1808 59.101C91.847 59.3432 91.4019 59.4643 90.8455 59.4643C90.4004 59.4643 90.0273 59.3857 89.7262 59.2286C89.4283 59.0716 89.2025 58.8555 89.0487 58.5806C88.8981 58.3024 88.8229 57.9833 88.8229 57.6233C88.8229 57.2731 88.8981 56.9589 89.0487 56.6807C89.2025 56.4026 89.43 56.1833 89.7311 56.0229C90.0322 55.8625 90.4069 55.7824 90.8553 55.7824C91.8666 55.7824 92.4753 56.198 92.6815 57.0293Z" fill="#FF9A2E"/>
<path d="M95.8162 55.8707H97.0533L98.5752 59.3759H97.4755L97.2153 58.7377H95.6149L95.3694 59.3759H94.2943L95.8162 55.8707ZM96.9208 57.9522L96.42 56.6709L95.9193 57.9522H96.9208Z" fill="#FF9A2E"/>
<path d="M103.979 57.0293L102.933 57.1422C102.871 56.9622 102.777 56.8329 102.653 56.7544C102.529 56.6758 102.36 56.6366 102.147 56.6366C101.856 56.6366 101.629 56.7217 101.465 56.8918C101.301 57.0588 101.22 57.3026 101.22 57.6233C101.22 57.9441 101.301 58.1895 101.465 58.3597C101.632 58.5266 101.866 58.6101 102.167 58.6101C102.632 58.6101 102.905 58.4301 102.987 58.0701H104.047C104.005 58.5119 103.815 58.8555 103.478 59.101C103.144 59.3432 102.699 59.4643 102.143 59.4643C101.697 59.4643 101.324 59.3857 101.023 59.2286C100.725 59.0716 100.5 58.8555 100.346 58.5806C100.195 58.3024 100.12 57.9833 100.12 57.6233C100.12 57.2731 100.195 56.9589 100.346 56.6807C100.5 56.4026 100.727 56.1833 101.028 56.0229C101.329 55.8625 101.704 55.7824 102.152 55.7824C103.164 55.7824 103.772 56.198 103.979 57.0293Z" fill="#FF9A2E"/>
<path d="M106.065 55.8707H107.125V59.3759H106.065V55.8707Z" fill="#FF9A2E"/>
<path d="M111.322 59.4643C110.89 59.4643 110.519 59.3907 110.208 59.2434C109.897 59.0961 109.656 58.885 109.486 58.6101C109.319 58.3352 109.236 58.0062 109.236 57.6233C109.236 57.2404 109.321 56.9115 109.491 56.6366C109.661 56.3616 109.903 56.1505 110.217 56.0033C110.532 55.856 110.906 55.7824 111.342 55.7824C111.774 55.7824 112.145 55.856 112.456 56.0033C112.767 56.1505 113.006 56.3616 113.173 56.6366C113.343 56.9115 113.428 57.2404 113.428 57.6233C113.428 58.0062 113.343 58.3352 113.173 58.6101C113.003 58.885 112.76 59.0961 112.446 59.2434C112.132 59.3907 111.757 59.4643 111.322 59.4643ZM112.328 57.6233C112.328 57.3091 112.24 57.0669 112.063 56.8968C111.89 56.7233 111.646 56.6366 111.332 56.6366C111.018 56.6366 110.772 56.7233 110.595 56.8968C110.422 57.0702 110.335 57.3124 110.335 57.6233C110.335 57.9375 110.422 58.1813 110.595 58.3548C110.772 58.525 111.018 58.6101 111.332 58.6101C111.646 58.6101 111.89 58.5234 112.063 58.3499C112.24 58.1764 112.328 57.9342 112.328 57.6233Z" fill="#FF9A2E"/>
<path d="M115.54 55.8707H116.482L118.235 57.9768V55.8707H119.236V59.3759H118.294L116.541 57.2699V59.3759H115.54V55.8707Z" fill="#FF9A2E"/>
<path d="M122.678 55.8707H123.915L125.437 59.3759H124.337L124.077 58.7377H122.477L122.231 59.3759H121.156L122.678 55.8707ZM123.783 57.9522L123.282 56.6709L122.781 57.9522H123.783Z" fill="#FF9A2E"/>
<path d="M127.355 55.8707H128.415V59.3759H127.355V55.8707Z" fill="#FF9A2E"/>
<path d="M130.418 58.237H131.458C131.521 58.5577 131.789 58.7181 132.263 58.7181C132.748 58.7181 132.99 58.6019 132.99 58.3695C132.99 58.2877 132.954 58.2223 132.882 58.1732C132.81 58.1208 132.692 58.0832 132.529 58.0602L131.9 57.967C131.416 57.8917 131.062 57.7657 130.84 57.589C130.621 57.4122 130.511 57.17 130.511 56.8624C130.511 56.522 130.665 56.2569 130.972 56.0671C131.283 55.8773 131.71 55.7824 132.254 55.7824C133.258 55.7824 133.821 56.1342 133.942 56.8378L132.936 56.936C132.884 56.792 132.802 56.6889 132.691 56.6267C132.579 56.5613 132.422 56.5286 132.219 56.5286C132.003 56.5286 131.836 56.5547 131.719 56.6071C131.604 56.6595 131.547 56.7347 131.547 56.8329C131.547 56.9148 131.578 56.9769 131.64 57.0195C131.702 57.062 131.817 57.0964 131.984 57.1226L132.749 57.2453C133.204 57.3173 133.533 57.44 133.736 57.6135C133.939 57.7837 134.041 58.0242 134.041 58.3352C134.041 58.7083 133.89 58.9897 133.589 59.1796C133.288 59.3694 132.844 59.4643 132.259 59.4643C131.107 59.4643 130.493 59.0552 130.418 58.237Z" fill="#FF9A2E"/>
<path d="M41.3957 62.0073H44.464V62.778H42.4316V63.3475H44.3658V64.1183H42.4316V64.7417H44.5818L44.4836 65.5125H41.3957V62.0073Z" fill="#FF9A2E"/>
<path d="M49.4615 62.0073H51.2043C52.2548 62.0073 52.7801 62.4115 52.7801 63.2199C52.7801 63.6355 52.6443 63.9432 52.3727 64.1428C52.1043 64.3392 51.6952 64.4374 51.1453 64.4374H50.4875V65.5125H49.4615V62.0073ZM51.1257 63.6519C51.3384 63.6519 51.4955 63.6192 51.597 63.5537C51.6985 63.4882 51.7492 63.3753 51.7492 63.215C51.7492 63.0644 51.7001 62.9564 51.6019 62.8909C51.5037 62.8255 51.3483 62.7928 51.1355 62.7928H50.4875V63.6519H51.1257Z" fill="#FF9A2E"/>
<path d="M55.545 62.0073H56.7821L58.304 65.5125H57.2043L56.9441 64.8743H55.3437L55.0982 65.5125H54.0231L55.545 62.0073ZM56.6496 64.0888L56.1488 62.8075L55.6481 64.0888H56.6496Z" fill="#FF9A2E"/>
<path d="M60.2215 62.0073H62.0232C63.0738 62.0073 63.5991 62.3951 63.5991 63.1708C63.5991 63.4195 63.5467 63.6224 63.442 63.7795C63.3373 63.9333 63.1835 64.0561 62.9805 64.1477L63.8397 65.5125H62.7056L62.0134 64.349H61.2132V65.5125H60.2215V62.0073ZM61.9594 63.593C62.1754 63.593 62.3325 63.5619 62.4307 63.4997C62.5322 63.4342 62.5829 63.3262 62.5829 63.1757C62.5829 63.0251 62.5354 62.9188 62.4405 62.8566C62.3456 62.7944 62.1885 62.7633 61.9692 62.7633H61.2132V63.593H61.9594Z" fill="#FF9A2E"/>
<path d="M66.9715 62.0073H68.2086L69.7305 65.5125H68.6308L68.3706 64.8743H66.7702L66.5247 65.5125H65.4496L66.9715 62.0073ZM68.076 64.0888L67.5753 62.8075L67.0745 64.0888H68.076Z" fill="#FF9A2E"/>
<path d="M75.6269 62.0073H76.864L78.3859 65.5125H77.2862L77.026 64.8743H75.4256L75.1801 65.5125H74.105L75.6269 62.0073ZM76.7315 64.0888L76.2307 62.8075L75.73 64.0888H76.7315Z" fill="#FF9A2E"/>
<path d="M83.109 62.0073H86.1773V62.778H84.1448V63.3475H86.0791V64.1183H84.1448V64.7417H86.2951L86.1969 65.5125H83.109V62.0073Z" fill="#FF9A2E"/>
<path d="M88.1041 64.3735H89.1448C89.207 64.6943 89.4754 64.8546 89.95 64.8546C90.4343 64.8546 90.6765 64.7385 90.6765 64.5061C90.6765 64.4243 90.6405 64.3588 90.5685 64.3097C90.4965 64.2574 90.3787 64.2197 90.2151 64.1968L89.5867 64.1035C89.1023 64.0283 88.7488 63.9023 88.5263 63.7255C88.307 63.5488 88.1974 63.3066 88.1974 62.9989C88.1974 62.6586 88.3512 62.3935 88.6588 62.2037C88.9697 62.0138 89.3969 61.9189 89.9401 61.9189C90.9449 61.9189 91.5078 62.2707 91.6289 62.9744L90.6225 63.0726C90.5702 62.9286 90.4883 62.8255 90.3771 62.7633C90.2658 62.6978 90.1087 62.6651 89.9058 62.6651C89.6898 62.6651 89.5229 62.6913 89.405 62.7437C89.2905 62.796 89.2332 62.8713 89.2332 62.9695C89.2332 63.0513 89.2643 63.1135 89.3265 63.156C89.3887 63.1986 89.5032 63.233 89.6701 63.2591L90.436 63.3819C90.8909 63.4539 91.2198 63.5766 91.4227 63.7501C91.6256 63.9203 91.7271 64.1608 91.7271 64.4717C91.7271 64.8448 91.5766 65.1263 91.2755 65.3161C90.9744 65.5059 90.5309 65.6009 89.9451 65.6009C88.793 65.6009 88.1794 65.1917 88.1041 64.3735Z" fill="#FF9A2E"/>
<path d="M97.4652 63.1659L96.4195 63.2788C96.3573 63.0988 96.264 62.9695 96.1397 62.8909C96.0153 62.8124 95.8468 62.7731 95.634 62.7731C95.3427 62.7731 95.1153 62.8582 94.9516 63.0284C94.788 63.1953 94.7062 63.4391 94.7062 63.7599C94.7062 64.0806 94.788 64.3261 94.9516 64.4963C95.1186 64.6632 95.3526 64.7466 95.6537 64.7466C96.1184 64.7466 96.3917 64.5666 96.4735 64.2066H97.5339C97.4914 64.6485 97.3015 64.9921 96.9644 65.2376C96.6306 65.4798 96.1855 65.6009 95.6291 65.6009C95.184 65.6009 94.8109 65.5223 94.5098 65.3652C94.212 65.2081 93.9862 64.9921 93.8323 64.7172C93.6818 64.439 93.6065 64.1199 93.6065 63.7599C93.6065 63.4097 93.6818 63.0955 93.8323 62.8173C93.9862 62.5391 94.2136 62.3198 94.5147 62.1595C94.8158 61.9991 95.1906 61.9189 95.6389 61.9189C96.6502 61.9189 97.259 62.3346 97.4652 63.1659Z" fill="#FF9A2E"/>
<path d="M99.5511 62.0073H101.353C102.403 62.0073 102.929 62.3951 102.929 63.1708C102.929 63.4195 102.876 63.6224 102.772 63.7795C102.667 63.9333 102.513 64.0561 102.31 64.1477L103.169 65.5125H102.035L101.343 64.349H100.543V65.5125H99.5511V62.0073ZM101.289 63.593C101.505 63.593 101.662 63.5619 101.76 63.4997C101.862 63.4342 101.912 63.3262 101.912 63.1757C101.912 63.0251 101.865 62.9188 101.77 62.8566C101.675 62.7944 101.518 62.7633 101.299 62.7633H100.543V63.593H101.289Z" fill="#FF9A2E"/>
<path d="M105.085 62.0073H106.145V65.5125H105.085V62.0073Z" fill="#FF9A2E"/>
<path d="M109.37 62.8664H108.074V62.0073H111.726V62.8664H110.43V65.5125H109.37V62.8664Z" fill="#FF9A2E"/>
<path d="M114.285 62.0073H115.522L117.044 65.5125H115.945L115.684 64.8743H114.084L113.839 65.5125H112.763L114.285 62.0073ZM115.39 64.0888L114.889 62.8075L114.388 64.0888H115.39Z" fill="#FF9A2E"/>
</svg>
