<svg width="158" height="41" viewBox="0 0 158 41" fill="none" xmlns="http://www.w3.org/2000/svg">
<path d="M12.9309 30.3469C11.8471 29.9205 11.1009 29.343 10.6923 28.6146C10.2837 27.8862 10.1149 27.0778 10.186 26.1895C10.2748 25.2834 10.5591 24.324 11.0388 23.3113C11.5362 22.2808 12.1403 21.2503 12.851 20.2199C13.5794 19.1894 14.3789 18.1856 15.2495 17.2084C16.12 16.2312 16.9817 15.334 17.8345 14.5168C18.6873 13.6995 19.4868 12.9888 20.233 12.3848C20.9792 11.7807 21.5833 11.3365 22.0452 11.0523C22.6848 10.6614 23.2178 10.4748 23.6442 10.4926C24.0706 10.4926 24.4082 10.6259 24.6569 10.8924C24.9234 11.1411 25.1011 11.4964 25.1899 11.9584C25.2965 12.4025 25.3409 12.8822 25.3232 13.3975C25.3232 13.8949 25.2699 14.4013 25.1633 14.9165C25.0744 15.414 24.9501 15.8493 24.7902 16.2224C24.648 16.5955 24.4881 16.8708 24.3105 17.0485C24.1506 17.2262 23.9907 17.2351 23.8308 17.0752C23.813 16.933 23.8308 16.7198 23.8841 16.4356C23.9374 16.1335 23.9995 15.796 24.0706 15.4229C24.1594 15.0498 24.2394 14.6678 24.3105 14.2769C24.3815 13.886 24.4259 13.5307 24.4437 13.2109C24.4792 12.8733 24.4704 12.5891 24.4171 12.3581C24.3815 12.1271 24.2838 11.9939 24.1239 11.9584C23.5021 11.7985 22.7559 11.9495 21.8853 12.4114C21.0325 12.8556 20.1353 13.5041 19.1937 14.3569C18.2698 15.1919 17.3459 16.1691 16.4221 17.2884C15.516 18.3899 14.6898 19.527 13.9436 20.6996C13.1974 21.8722 12.5845 23.0181 12.1048 24.1374C11.6251 25.2389 11.3497 26.2161 11.2786 27.0689C11.2253 27.9039 11.4119 28.5524 11.8383 29.0144C12.2824 29.4585 13.0553 29.6007 14.1568 29.4408C15.1695 29.2986 16.1023 28.9433 16.9551 28.3748C17.8256 27.7885 18.6607 27.1489 19.4602 26.456C20.2774 25.7453 21.0858 25.0524 21.8853 24.3773C22.6848 23.6844 23.5198 23.1602 24.3904 22.8049C24.7102 22.6805 24.9589 22.725 25.1366 22.9382C25.332 23.1514 25.3853 23.409 25.2965 23.711C25.1899 24.013 24.8701 24.4128 24.3371 24.9103C23.8219 25.4077 23.1734 25.9318 22.3917 26.4826C21.6277 27.0156 20.7838 27.5575 19.8599 28.1083C18.936 28.6413 18.0299 29.1032 17.1416 29.4941C16.271 29.8849 15.4538 30.1692 14.6898 30.3469C13.9436 30.5245 13.3573 30.5245 12.9309 30.3469Z" fill="#0078A3"/>
<path d="M25.9478 30.3469C25.9123 30.3291 25.9123 30.1248 25.9478 29.7339C26.0011 29.3253 26.0722 28.8189 26.161 28.2149C26.2499 27.6108 26.3653 26.9445 26.5075 26.2161C26.6496 25.4877 26.8006 24.7948 26.9605 24.1374C27.1204 23.4623 27.2892 22.876 27.4669 22.3785C27.6623 21.8633 27.8489 21.5079 28.0265 21.3125C28.1509 21.1881 28.2753 21.1881 28.3996 21.3125C28.524 21.4191 28.6484 21.5612 28.7727 21.7389C28.8971 21.8988 29.0215 22.0498 29.1458 22.192C29.2702 22.3163 29.4034 22.3252 29.5456 22.2186C30.043 21.5257 30.5849 20.8683 31.1712 20.2465C31.7753 19.6069 32.4415 19.0561 33.17 18.5942C33.241 18.5409 33.4365 18.461 33.7563 18.3544C34.0761 18.23 34.4403 18.1145 34.8489 18.0079C35.2576 17.8835 35.6751 17.7858 36.1015 17.7148C36.5456 17.6259 36.9187 17.5904 37.2208 17.6082C37.5406 17.6082 37.7538 17.6881 37.8604 17.848C37.9847 17.9901 37.9314 18.2389 37.7005 18.5942C36.6345 18.612 35.6395 18.9229 34.7157 19.527C33.7918 20.131 32.939 20.8772 32.1573 21.7656C31.3755 22.6539 30.6649 23.6222 30.0253 24.6704C29.3857 25.7009 28.826 26.6603 28.3463 27.5486C27.8844 28.4369 27.4935 29.1743 27.1737 29.7606C26.8717 30.3469 26.6496 30.64 26.5075 30.64C26.4897 30.64 26.4098 30.6045 26.2676 30.5334C26.1255 30.4446 26.0189 30.3824 25.9478 30.3469Z" fill="#0078A3"/>
<path d="M36.6462 30.3469C37.3746 28.0017 38.032 26.145 38.6183 24.777C39.2224 23.3912 39.7198 22.4229 40.1107 21.8722C40.5193 21.3214 40.7947 21.1437 40.9368 21.3392C41.079 21.5346 41.0612 22.0321 40.8835 22.8316C40.7236 23.6311 40.3683 24.7059 39.8175 26.0562C39.2845 27.3887 38.5295 28.9166 37.5523 30.64C37.4102 30.6933 37.2414 30.7022 37.0459 30.6667C36.8505 30.6311 36.7173 30.5245 36.6462 30.3469ZM41.3099 17.5282C41.2744 17.4394 41.2566 17.2795 41.2566 17.0485C41.2566 16.8175 41.2744 16.6754 41.3099 16.6221C41.7186 16.48 42.0295 16.4622 42.2427 16.5688C42.4559 16.6754 42.5891 16.8353 42.6424 17.0485C42.6957 17.2439 42.6869 17.4571 42.6158 17.6881C42.5625 17.9191 42.4648 18.0967 42.3226 18.2211C42.1805 18.3277 42.0117 18.3455 41.8163 18.2744C41.6386 18.1856 41.4698 17.9368 41.3099 17.5282Z" fill="#0078A3"/>
<path d="M42.1212 30.3469C41.908 30.2047 41.8991 30.0182 42.0945 29.7872C42.3077 29.5385 42.6364 29.2809 43.0806 29.0144C43.5425 28.7301 44.0755 28.4369 44.6796 28.1349C45.2836 27.8329 45.8611 27.5486 46.4118 27.2821C46.9804 27.0156 47.4778 26.7846 47.9042 26.5892C48.3306 26.376 48.606 26.2161 48.7304 26.1095C49.3167 25.612 49.6187 25.2034 49.6365 24.8836C49.672 24.546 49.5299 24.2795 49.2101 24.0841C48.8903 23.8709 48.4372 23.711 47.8509 23.6044C47.2824 23.48 46.6872 23.3734 46.0654 23.2846C45.4613 23.178 44.875 23.0714 44.3065 22.9648C43.7557 22.8582 43.3382 22.7161 43.0539 22.5384C42.7697 22.3607 42.6719 22.1298 42.7608 21.8455C42.8674 21.5435 43.2582 21.1615 43.9334 20.6996C44.1821 20.5219 44.5463 20.2643 45.026 19.9267C45.5057 19.5891 46.021 19.2427 46.5717 18.8874C47.1403 18.532 47.6999 18.2122 48.2507 17.928C48.8014 17.6437 49.2634 17.4571 49.6365 17.3683C49.8319 17.3328 50.0273 17.3505 50.2228 17.4216C50.436 17.4927 50.6047 17.5993 50.7291 17.7414C50.8535 17.8658 50.9068 18.0079 50.889 18.1678C50.889 18.3277 50.7735 18.4698 50.5426 18.5942C49.5299 19.1627 48.5527 19.6957 47.6111 20.1932C46.6872 20.6907 45.7545 21.2592 44.8128 21.8988C44.7595 22.0409 44.7684 22.1653 44.8395 22.2719C44.9283 22.3785 45.026 22.4585 45.1326 22.5118C47.0159 22.7072 48.4283 22.9826 49.37 23.3379C50.3294 23.6932 50.9334 24.0841 51.1822 24.5105C51.4487 24.9369 51.422 25.39 51.1022 25.8697C50.7824 26.3494 50.3027 26.8202 49.6631 27.2821C49.0413 27.744 48.3217 28.1793 47.5045 28.588C46.6872 28.9966 45.8966 29.343 45.1326 29.6273C44.3864 29.9116 43.7291 30.1248 43.1605 30.2669C42.592 30.409 42.2455 30.4357 42.1212 30.3469Z" fill="#0078A3"/>
<path d="M65.2768 30.3469C64.3885 29.9738 63.8022 29.4585 63.5179 28.8012C63.2336 28.126 63.1359 27.4065 63.2248 26.6425C63.3136 25.8608 63.5268 25.079 63.8644 24.2973C64.2197 23.5156 64.5839 22.8227 64.957 22.2186C65.0814 22.0054 65.3123 21.6412 65.6499 21.126C65.9875 20.6107 66.3428 20.0688 66.7159 19.5003C67.1068 18.914 67.471 18.3721 67.8086 17.8747C68.1639 17.3594 68.4126 17.0041 68.5548 16.8087C68.768 15.4406 69.1944 14.3569 69.834 13.5574C70.4736 12.7401 71.1931 12.1804 71.9926 11.8784C72.8099 11.5764 73.6449 11.5142 74.4977 11.6919C75.3505 11.8518 76.0967 12.2337 76.7363 12.8378C77.3759 13.4241 77.8378 14.2147 78.1221 15.2097C78.4064 16.2046 78.3797 17.3683 78.0422 18.7008C77.7224 20.0333 77.0295 21.5257 75.9635 23.178C74.8975 24.8303 73.334 26.6159 71.2731 28.5347C70.9177 28.8722 70.4913 29.2009 69.9939 29.5207C69.5142 29.8227 68.9989 30.0715 68.4482 30.2669C67.9152 30.4623 67.3733 30.5778 66.8225 30.6134C66.2717 30.6489 65.7565 30.5601 65.2768 30.3469ZM64.3441 28.2415C64.5217 29.041 64.8593 29.5385 65.3568 29.7339C65.8542 29.9293 66.4405 29.8938 67.1157 29.6273C67.7908 29.3608 68.5281 28.9078 69.3276 28.2682C70.1271 27.6286 70.9266 26.8824 71.7261 26.0296C72.5256 25.159 73.2896 24.2174 74.018 23.2047C74.7464 22.192 75.3772 21.1881 75.9102 20.1932C76.4609 19.1983 76.8784 18.2478 77.1627 17.3417C77.447 16.4356 77.5358 15.6538 77.4292 14.9965C77.3404 14.3213 77.0206 13.815 76.4698 13.4774C75.9368 13.1398 75.1107 13.0421 73.9914 13.1843C73.5827 13.5396 73.0408 14.0637 72.3657 14.7566C71.6906 15.4317 70.971 16.2046 70.2071 17.0752C69.4431 17.9457 68.6791 18.8874 67.9152 19.9001C67.1512 20.895 66.4761 21.8899 65.8898 22.8849C65.3035 23.8798 64.8593 24.8392 64.5573 25.7631C64.2552 26.6869 64.1842 27.5131 64.3441 28.2415Z" fill="#0078A3"/>
<path d="M78.2554 30.3469C77.7401 29.9738 77.4026 29.5029 77.2427 28.9344C77.1005 28.3659 77.0828 27.7529 77.1894 27.0956C77.296 26.4204 77.4825 25.7275 77.749 25.0169C78.0333 24.3062 78.3353 23.6222 78.6551 22.9648C78.9927 22.3074 79.3125 21.7034 79.6145 21.1526C79.9343 20.6018 80.183 20.1488 80.3607 19.7935C80.414 19.6869 80.5384 19.4292 80.7338 19.0206C80.947 18.612 81.1691 18.1678 81.4001 17.6881C81.631 17.2084 81.8442 16.7642 82.0397 16.3556C82.2529 15.9292 82.3861 15.6627 82.4394 15.5561C82.4927 15.4673 82.5638 15.2985 82.6526 15.0498C82.7592 14.7833 82.8747 14.499 82.9991 14.197C83.1234 13.8949 83.2567 13.6107 83.3988 13.3442C83.5587 13.0599 83.7186 12.8556 83.8785 12.7312C84.0562 12.6068 84.225 12.5891 84.3848 12.6779C84.5625 12.7667 84.7313 13.0332 84.8912 13.4774C84.8201 13.6551 84.6425 14.0104 84.3582 14.5434C84.0917 15.0764 83.7719 15.716 83.3988 16.4622C83.0257 17.2084 82.6082 18.0346 82.1463 18.9407C81.7021 19.8468 81.2668 20.7617 80.8404 21.6856C80.414 22.6095 80.0143 23.5156 79.6412 24.4039C79.2681 25.2745 78.9571 26.074 78.7084 26.8024C78.4774 27.5131 78.3353 28.1083 78.282 28.588C78.2465 29.0499 78.3353 29.3342 78.5485 29.4408C78.7972 29.5651 79.117 29.6184 79.5079 29.6007C79.9165 29.5651 80.3341 29.5118 80.7605 29.4408C81.1869 29.3697 81.6044 29.2986 82.013 29.2276C82.4216 29.1387 82.777 29.1032 83.079 29.121C83.1501 29.2809 83.0968 29.4408 82.9191 29.6007C82.7414 29.7428 82.4927 29.876 82.1729 30.0004C81.8531 30.107 81.48 30.2047 81.0536 30.2936C80.645 30.3646 80.2452 30.4179 79.8544 30.4535C79.4813 30.489 79.1437 30.4979 78.8417 30.4801C78.5574 30.4623 78.362 30.4179 78.2554 30.3469Z" fill="#0078A3"/>
<path d="M83.9968 30.3469C84.7253 28.0017 85.3826 26.145 85.9689 24.777C86.573 23.3912 87.0705 22.4229 87.4613 21.8722C87.87 21.3214 88.1453 21.1437 88.2875 21.3392C88.4296 21.5346 88.4118 22.0321 88.2342 22.8316C88.0743 23.6311 87.7189 24.7059 87.1682 26.0562C86.6352 27.3887 85.8801 28.9166 84.9029 30.64C84.7608 30.6933 84.592 30.7022 84.3966 30.6667C84.2011 30.6311 84.0679 30.5245 83.9968 30.3469ZM88.6606 17.5282C88.625 17.4394 88.6073 17.2795 88.6073 17.0485C88.6073 16.8175 88.625 16.6754 88.6606 16.6221C89.0692 16.48 89.3801 16.4622 89.5933 16.5688C89.8065 16.6754 89.9398 16.8353 89.9931 17.0485C90.0464 17.2439 90.0375 17.4571 89.9664 17.6881C89.9131 17.9191 89.8154 18.0967 89.6733 18.2211C89.5312 18.3277 89.3624 18.3455 89.1669 18.2744C88.9893 18.1856 88.8205 17.9368 88.6606 17.5282Z" fill="#0078A3"/>
<path d="M90.218 30.0271C89.8449 29.8139 89.5784 29.4763 89.4185 29.0144C89.2586 28.5524 89.1698 28.0283 89.152 27.442C89.1342 26.8557 89.1698 26.2428 89.2586 25.6032C89.3474 24.9636 89.454 24.3417 89.5784 23.7377C89.7028 23.1336 89.8271 22.5917 89.9515 22.112C90.0759 21.6323 90.1647 21.2592 90.218 20.9927C90.3068 20.9394 90.3957 20.9394 90.4845 20.9927C90.5911 21.046 90.6888 21.126 90.7777 21.2326C90.8843 21.3214 90.9642 21.4102 91.0175 21.4991C91.0886 21.5701 91.1241 21.6057 91.1241 21.6057C91.1774 22.2275 91.1774 22.8404 91.1241 23.4445C91.0886 24.0308 91.0353 24.6171 90.9642 25.2034C90.9109 25.7897 90.8576 26.3849 90.8043 26.989C90.7688 27.593 90.7688 28.206 90.8043 28.8278C90.9464 29.0943 91.2396 29.1032 91.6838 28.8545C92.1279 28.588 92.6698 28.1704 93.3094 27.6019C93.949 27.0156 94.6419 26.3316 95.3881 25.5499C96.1521 24.7504 96.8983 23.9597 97.6267 23.178C98.3729 22.3963 99.0747 21.6678 99.7321 20.9927C100.389 20.2998 100.94 19.7757 101.384 19.4204C101.846 19.0473 102.166 18.8962 102.344 18.9673C102.521 19.0206 102.495 19.3937 102.264 20.0866C101.837 20.4597 101.331 21.0194 100.745 21.7656C100.158 22.5118 99.5189 23.3201 98.826 24.1907C98.1331 25.0435 97.4135 25.8963 96.6673 26.7491C95.9211 27.6019 95.166 28.3392 94.4021 28.9611C93.6559 29.5651 92.9274 29.9915 92.2168 30.2403C91.5061 30.4712 90.8399 30.4002 90.218 30.0271Z" fill="#0078A3"/>
<path d="M103.342 30.3469C102.809 30.1692 102.4 29.9027 102.116 29.5474C101.849 29.1743 101.671 28.7656 101.583 28.3215C101.494 27.8773 101.476 27.4154 101.529 26.9357C101.6 26.4382 101.707 25.9674 101.849 25.5232C102.382 24.9547 102.977 24.3062 103.635 23.5778C104.31 22.8316 105.02 22.1031 105.767 21.3925C106.513 20.6818 107.286 20.0244 108.085 19.4204C108.902 18.7985 109.729 18.3277 110.564 18.0079C110.848 17.8835 111.07 17.8924 111.23 18.0346C111.408 18.1589 111.532 18.3632 111.603 18.6475C111.674 18.9318 111.701 19.2605 111.683 19.6336C111.683 20.0067 111.656 20.3709 111.603 20.7262C111.55 21.0815 111.479 21.4013 111.39 21.6856C111.301 21.9699 111.212 22.1653 111.123 22.2719C110.91 22.5206 110.493 22.8138 109.871 23.1514C109.267 23.4889 108.592 23.862 107.845 24.2707C107.099 24.6615 106.353 25.0702 105.607 25.4966C104.861 25.923 104.248 26.3494 103.768 26.7758C103.288 27.1844 103.004 27.593 102.915 28.0017C102.826 28.4103 103.075 28.7834 103.661 29.121C104.265 29.192 104.994 29.1654 105.847 29.041C106.717 28.8989 107.597 28.7212 108.485 28.508C109.391 28.277 110.262 28.0461 111.097 27.8151C111.932 27.5664 112.616 27.3709 113.149 27.2288L113.469 27.522C113.078 28.0372 112.438 28.508 111.55 28.9344C110.661 29.3608 109.702 29.7161 108.672 30.0004C107.641 30.2669 106.637 30.4446 105.66 30.5334C104.683 30.6045 103.91 30.5423 103.342 30.3469ZM109.711 20.1666C109.693 20.1488 109.56 20.2287 109.311 20.4064C109.062 20.5663 108.751 20.7884 108.378 21.0727C108.023 21.3392 107.632 21.6412 107.206 21.9788C106.797 22.2986 106.415 22.6006 106.06 22.8849C105.722 23.1691 105.438 23.4179 105.207 23.6311C104.976 23.8265 104.878 23.9242 104.914 23.9242C105.198 23.9775 105.562 23.942 106.007 23.8176C106.468 23.6755 106.939 23.48 107.419 23.2313C107.916 22.9826 108.387 22.7072 108.831 22.4052C109.276 22.0854 109.622 21.7744 109.871 21.4724C110.137 21.1704 110.271 20.9039 110.271 20.6729C110.288 20.4419 110.102 20.2732 109.711 20.1666Z" fill="#0078A3"/>
<path d="M112.962 30.3469C113.691 28.0017 114.348 26.145 114.934 24.777C115.538 23.3912 116.036 22.4229 116.427 21.8722C116.835 21.3214 117.111 21.1437 117.253 21.3392C117.395 21.5346 117.377 22.0321 117.2 22.8316C117.04 23.6311 116.684 24.7059 116.134 26.0562C115.601 27.3887 114.845 28.9166 113.868 30.64C113.726 30.6933 113.557 30.7022 113.362 30.6667C113.166 30.6311 113.033 30.5245 112.962 30.3469ZM117.626 17.5282C117.59 17.4394 117.573 17.2795 117.573 17.0485C117.573 16.8175 117.59 16.6754 117.626 16.6221C118.035 16.48 118.345 16.4622 118.559 16.5688C118.772 16.6754 118.905 16.8353 118.958 17.0485C119.012 17.2439 119.003 17.4571 118.932 17.6881C118.878 17.9191 118.781 18.0967 118.639 18.2211C118.496 18.3277 118.328 18.3455 118.132 18.2744C117.955 18.1856 117.786 17.9368 117.626 17.5282Z" fill="#0078A3"/>
<path d="M118.437 30.3469C118.402 30.3291 118.402 30.1248 118.437 29.7339C118.49 29.3253 118.562 28.8189 118.65 28.2149C118.739 27.6108 118.855 26.9445 118.997 26.2161C119.139 25.4877 119.29 24.7948 119.45 24.1374C119.61 23.4623 119.779 22.876 119.956 22.3785C120.152 21.8633 120.338 21.5079 120.516 21.3125C120.64 21.1881 120.765 21.1881 120.889 21.3125C121.013 21.4191 121.138 21.5612 121.262 21.7389C121.386 21.8988 121.511 22.0498 121.635 22.192C121.76 22.3163 121.893 22.3252 122.035 22.2186C122.532 21.5257 123.074 20.8683 123.661 20.2465C124.265 19.6069 124.931 19.0561 125.659 18.5942C125.73 18.5409 125.926 18.461 126.246 18.3544C126.565 18.23 126.93 18.1145 127.338 18.0079C127.747 17.8835 128.164 17.7858 128.591 17.7148C129.035 17.6259 129.408 17.5904 129.71 17.6082C130.03 17.6082 130.243 17.6881 130.35 17.848C130.474 17.9901 130.421 18.2389 130.19 18.5942C129.124 18.612 128.129 18.9229 127.205 19.527C126.281 20.131 125.428 20.8772 124.647 21.7656C123.865 22.6539 123.154 23.6222 122.515 24.6704C121.875 25.7009 121.315 26.6603 120.836 27.5486C120.374 28.4369 119.983 29.1743 119.663 29.7606C119.361 30.3469 119.139 30.64 118.997 30.64C118.979 30.64 118.899 30.6045 118.757 30.5334C118.615 30.4446 118.508 30.3824 118.437 30.3469Z" fill="#0078A3"/>
<path d="M127.769 30.0271C127.343 29.6717 127.103 29.1476 127.049 28.4547C127.014 27.7618 127.112 26.9801 127.343 26.1095C127.591 25.2389 127.947 24.3328 128.409 23.3912C128.888 22.4318 129.439 21.5257 130.061 20.6729C130.683 19.8023 131.358 19.0295 132.086 18.3544C132.815 17.6615 133.543 17.1551 134.272 16.8353C135 16.4977 135.711 16.3823 136.404 16.4889C137.096 16.5777 137.727 16.9774 138.296 17.6881C138.651 18.1323 138.864 18.5853 138.935 19.0473C139.006 19.4914 138.997 19.9534 138.909 20.4331C138.82 20.895 138.678 21.3747 138.482 21.8722C138.287 22.3519 138.091 22.8404 137.896 23.3379C137.718 23.8354 137.567 24.3417 137.443 24.857C137.336 25.3722 137.318 25.8963 137.39 26.4293C137.478 27.1044 137.78 27.5042 138.296 27.6286C138.811 27.7529 139.424 27.7174 140.135 27.522C140.863 27.3265 141.627 27.0156 142.426 26.5892C143.226 26.1628 143.963 25.7364 144.638 25.31C145.331 24.8836 145.9 24.5105 146.344 24.1907C146.806 23.8709 147.037 23.711 147.037 23.711C147.534 23.6044 147.81 23.6399 147.863 23.8176C147.934 23.9775 147.836 24.2262 147.57 24.5638C147.321 24.8836 146.939 25.2567 146.424 25.6831C145.909 26.0917 145.322 26.4915 144.665 26.8824C144.008 27.2732 143.306 27.6286 142.56 27.9484C141.813 28.2682 141.085 28.4902 140.374 28.6146C139.664 28.7212 138.989 28.7123 138.349 28.588C137.727 28.4458 137.212 28.126 136.803 27.6286C136.608 27.4154 136.457 27.2022 136.35 26.989C136.261 26.7758 136.11 26.5892 135.897 26.4293C135.631 26.678 135.311 27.0067 134.938 27.4154C134.565 27.8062 134.156 28.206 133.712 28.6146C133.285 29.0055 132.824 29.3786 132.326 29.7339C131.846 30.0892 131.349 30.3557 130.834 30.5334C130.318 30.7111 129.794 30.7733 129.261 30.72C128.746 30.6667 128.249 30.4357 127.769 30.0271ZM128.062 29.121C128.222 29.6895 128.577 29.956 129.128 29.9205C129.679 29.8672 130.318 29.5918 131.047 29.0943C131.775 28.5968 132.53 27.9217 133.312 27.0689C134.094 26.1983 134.796 25.2389 135.417 24.1907C136.039 23.1247 136.51 22.0054 136.83 20.8328C137.167 19.6602 137.256 18.5054 137.096 17.3683C136.67 17.0307 136.137 17.0219 135.497 17.3417C134.858 17.6437 134.174 18.15 133.445 18.8607C132.735 19.5536 132.024 20.3886 131.313 21.3658C130.62 22.3252 130.008 23.3024 129.475 24.2973C128.942 25.2745 128.533 26.1983 128.249 27.0689C127.982 27.9395 127.92 28.6235 128.062 29.121Z" fill="#0078A3"/>
</svg>
