<svg width="158" height="71" viewBox="0 0 158 71" fill="none" xmlns="http://www.w3.org/2000/svg">
<path d="M13.6323 29.9599C12.5601 29.538 11.8218 28.9667 11.4175 28.246C11.0132 27.5253 10.8462 26.7255 10.9165 25.8466C11.0044 24.9501 11.2856 24.0009 11.7603 22.9989C12.2524 21.9794 12.8501 20.9599 13.5532 19.9404C14.2739 18.9208 15.0649 17.9277 15.9263 16.9609C16.7876 15.9941 17.6401 15.1064 18.4839 14.2978C19.3276 13.4892 20.1187 12.7861 20.8569 12.1884C21.5952 11.5907 22.1929 11.1513 22.6499 10.87C23.2827 10.4833 23.8101 10.2988 24.2319 10.3163C24.6538 10.3163 24.9878 10.4482 25.2339 10.7118C25.4976 10.9579 25.6733 11.3095 25.7612 11.7665C25.8667 12.206 25.9106 12.6806 25.8931 13.1904C25.8931 13.6825 25.8403 14.1835 25.7349 14.6933C25.647 15.1855 25.5239 15.6161 25.3657 15.9853C25.2251 16.3544 25.0669 16.6269 24.8911 16.8027C24.7329 16.9784 24.5747 16.9872 24.4165 16.829C24.3989 16.6884 24.4165 16.4775 24.4692 16.1962C24.522 15.8974 24.5835 15.5634 24.6538 15.1943C24.7417 14.8251 24.8208 14.4472 24.8911 14.0605C24.9614 13.6738 25.0054 13.3222 25.0229 13.0058C25.0581 12.6718 25.0493 12.3906 24.9966 12.162C24.9614 11.9335 24.8647 11.8017 24.7065 11.7665C24.0913 11.6083 23.353 11.7577 22.4917 12.2148C21.6479 12.6542 20.7603 13.2958 19.8286 14.1396C18.9146 14.9657 18.0005 15.9325 17.0864 17.04C16.1899 18.1298 15.3726 19.2548 14.6343 20.415C13.896 21.5751 13.2896 22.7089 12.8149 23.8163C12.3403 24.9062 12.0679 25.873 11.9976 26.7167C11.9448 27.5429 12.1294 28.1845 12.5513 28.6415C12.9907 29.081 13.7554 29.2216 14.8452 29.0634C15.8472 28.9228 16.77 28.5712 17.6138 28.0087C18.4751 27.4286 19.3013 26.7958 20.0923 26.1103C20.9009 25.4072 21.7007 24.7216 22.4917 24.0536C23.2827 23.3681 24.1089 22.8495 24.9702 22.498C25.2866 22.3749 25.5327 22.4189 25.7085 22.6298C25.9019 22.8407 25.9546 23.0956 25.8667 23.3945C25.7612 23.6933 25.4448 24.0888 24.9175 24.581C24.4077 25.0732 23.7661 25.5917 22.9927 26.1366C22.2368 26.664 21.4019 27.2001 20.4878 27.745C19.5737 28.2724 18.6772 28.7294 17.7983 29.1161C16.937 29.5029 16.1284 29.7841 15.3726 29.9599C14.6343 30.1357 14.0542 30.1357 13.6323 29.9599Z" fill="#0078A3"/>
<path d="M26.5111 29.9599C26.476 29.9423 26.476 29.7402 26.5111 29.3534C26.5638 28.9491 26.6342 28.4482 26.7221 27.8505C26.8099 27.2529 26.9242 26.5937 27.0648 25.873C27.2054 25.1523 27.3549 24.4667 27.5131 23.8163C27.6713 23.1484 27.8383 22.5683 28.014 22.0761C28.2074 21.5663 28.392 21.2148 28.5678 21.0214C28.6908 20.8984 28.8138 20.8984 28.9369 21.0214C29.0599 21.1269 29.183 21.2675 29.306 21.4433C29.4291 21.6015 29.5521 21.7509 29.6752 21.8915C29.7982 22.0146 29.9301 22.0234 30.0707 21.9179C30.5629 21.2323 31.099 20.582 31.6791 19.9667C32.2767 19.3339 32.9359 18.789 33.6566 18.332C33.7269 18.2792 33.9203 18.2001 34.2367 18.0947C34.5531 17.9716 34.9135 17.8573 35.3178 17.7519C35.722 17.6288 36.1351 17.5322 36.557 17.4618C36.9965 17.3739 37.3656 17.3388 37.6644 17.3564C37.9808 17.3564 38.1918 17.4355 38.2972 17.5937C38.4203 17.7343 38.3676 17.9804 38.139 18.332C37.0844 18.3495 36.1 18.6572 35.1859 19.2548C34.2719 19.8525 33.4281 20.5907 32.6547 21.4697C31.8812 22.3486 31.1781 23.3066 30.5453 24.3437C29.9125 25.3632 29.3588 26.3124 28.8842 27.1913C28.4271 28.0702 28.0404 28.7997 27.724 29.3798C27.4252 29.9599 27.2054 30.2499 27.0648 30.2499C27.0472 30.2499 26.9681 30.2148 26.8275 30.1445C26.6869 30.0566 26.5814 29.995 26.5111 29.9599Z" fill="#0078A3"/>
<path d="M37.096 29.9599C37.8167 27.6396 38.4671 25.8027 39.0471 24.4491C39.6448 23.0781 40.137 22.12 40.5237 21.5751C40.928 21.0302 41.2004 20.8544 41.3411 21.0478C41.4817 21.2411 41.4641 21.7333 41.2883 22.5243C41.1301 23.3154 40.7786 24.3788 40.2337 25.7148C39.7063 27.0331 38.9592 28.5448 37.9924 30.2499C37.8518 30.3027 37.6848 30.3114 37.4915 30.2763C37.2981 30.2411 37.1663 30.1357 37.096 29.9599ZM41.7102 17.2773C41.6751 17.1894 41.6575 17.0312 41.6575 16.8027C41.6575 16.5741 41.6751 16.4335 41.7102 16.3808C42.1145 16.2402 42.4221 16.2226 42.6331 16.3281C42.844 16.4335 42.9758 16.5917 43.0286 16.8027C43.0813 16.996 43.0725 17.207 43.0022 17.4355C42.9495 17.664 42.8528 17.8398 42.7122 17.9628C42.5715 18.0683 42.4046 18.0859 42.2112 18.0156C42.0354 17.9277 41.8684 17.6816 41.7102 17.2773Z" fill="#0078A3"/>
<path d="M42.5128 29.9599C42.3019 29.8193 42.2931 29.6347 42.4865 29.4062C42.6974 29.1601 43.0226 28.9052 43.4621 28.6415C43.9191 28.3603 44.4464 28.0702 45.0441 27.7714C45.6417 27.4726 46.213 27.1913 46.7579 26.9277C47.3204 26.664 47.8126 26.4355 48.2345 26.2421C48.6564 26.0312 48.9288 25.873 49.0519 25.7675C49.632 25.2753 49.9308 24.871 49.9484 24.5546C49.9835 24.2206 49.8429 23.957 49.5265 23.7636C49.2101 23.5527 48.7619 23.3945 48.1818 23.289C47.6193 23.1659 47.0304 23.0605 46.4152 22.9726C45.8175 22.8671 45.2374 22.7616 44.6749 22.6562C44.13 22.5507 43.7169 22.4101 43.4357 22.2343C43.1544 22.0585 43.0578 21.83 43.1456 21.5488C43.2511 21.2499 43.6378 20.872 44.3058 20.415C44.5519 20.2392 44.9122 19.9843 45.3869 19.6503C45.8615 19.3163 46.3712 18.9736 46.9162 18.622C47.4787 18.2704 48.0324 17.954 48.5773 17.6728C49.1222 17.3915 49.5792 17.207 49.9484 17.1191C50.1417 17.0839 50.3351 17.1015 50.5285 17.1718C50.7394 17.2421 50.9064 17.3476 51.0294 17.4882C51.1525 17.6113 51.2052 17.7519 51.1876 17.9101C51.1876 18.0683 51.0734 18.2089 50.8449 18.332C49.8429 18.8945 48.8761 19.4218 47.9445 19.914C47.0304 20.4062 46.1076 20.9687 45.1759 21.6015C45.1232 21.7421 45.132 21.8652 45.2023 21.9706C45.2902 22.0761 45.3869 22.1552 45.4923 22.2079C47.3556 22.4013 48.7531 22.6738 49.6847 23.0253C50.6339 23.3769 51.2316 23.7636 51.4777 24.1855C51.7413 24.6073 51.715 25.0556 51.3986 25.5302C51.0822 26.0048 50.6076 26.4706 49.9747 26.9277C49.3595 27.3847 48.6476 27.8154 47.839 28.2197C47.0304 28.6239 46.2482 28.9667 45.4923 29.248C44.754 29.5292 44.1037 29.7402 43.5412 29.8808C42.9787 30.0214 42.6359 30.0478 42.5128 29.9599Z" fill="#0078A3"/>
<path d="M65.4228 29.9599C64.5438 29.5907 63.9638 29.081 63.6825 28.4306C63.4013 27.7626 63.3046 27.0507 63.3925 26.2948C63.4804 25.5214 63.6913 24.748 64.0253 23.9745C64.3769 23.2011 64.7372 22.5156 65.1063 21.9179C65.2294 21.707 65.4579 21.3466 65.7919 20.8368C66.1259 20.3271 66.4774 19.7909 66.8466 19.2284C67.2333 18.6484 67.5937 18.1122 67.9276 17.62C68.2792 17.1103 68.5253 16.7587 68.6659 16.5654C68.8769 15.2118 69.2987 14.1396 69.9315 13.3486C70.5644 12.54 71.2763 11.9863 72.0673 11.6874C72.8759 11.3886 73.702 11.3271 74.5458 11.5029C75.3895 11.6611 76.1278 12.039 76.7606 12.6366C77.3935 13.2167 77.8505 13.9989 78.1317 14.9833C78.413 15.9677 78.3866 17.1191 78.0526 18.4374C77.7362 19.7558 77.0507 21.2323 75.996 22.8671C74.9413 24.5019 73.3944 26.2685 71.3554 28.1669C71.0038 28.5009 70.5819 28.8261 70.0897 29.1425C69.6151 29.4413 69.1054 29.6874 68.5604 29.8808C68.0331 30.0741 67.497 30.1884 66.952 30.2236C66.4071 30.2587 65.8974 30.1708 65.4228 29.9599ZM64.4999 27.8769C64.6757 28.6679 65.0097 29.1601 65.5019 29.3534C65.994 29.5468 66.5741 29.5116 67.2421 29.248C67.9101 28.9843 68.6395 28.5361 69.4306 27.9032C70.2216 27.2704 71.0126 26.5322 71.8036 25.6884C72.5946 24.8271 73.3505 23.8954 74.0712 22.8935C74.7919 21.8915 75.4159 20.8984 75.9433 19.914C76.4882 18.9296 76.9013 17.9892 77.1825 17.0927C77.4638 16.1962 77.5517 15.4228 77.4462 14.7724C77.3583 14.1044 77.0419 13.6034 76.497 13.2695C75.9696 12.9355 75.1522 12.8388 74.0448 12.9794C73.6405 13.331 73.1044 13.8495 72.4364 14.5351C71.7685 15.2031 71.0565 15.9677 70.3007 16.829C69.5448 17.6904 68.789 18.622 68.0331 19.6239C67.2772 20.6083 66.6093 21.5927 66.0292 22.5771C65.4491 23.5614 65.0097 24.5107 64.7108 25.4247C64.412 26.3388 64.3417 27.1562 64.4999 27.8769Z" fill="#0078A3"/>
<path d="M78.2636 29.9599C77.7538 29.5907 77.4198 29.1249 77.2616 28.5624C77.121 27.9999 77.1034 27.3935 77.2089 26.7431C77.3144 26.0751 77.4989 25.3896 77.7626 24.6864C78.0438 23.9833 78.3427 23.3066 78.6591 22.6562C78.9931 22.0058 79.3095 21.4081 79.6083 20.8632C79.9247 20.3183 80.1708 19.87 80.3466 19.5185C80.3993 19.413 80.5224 19.1581 80.7157 18.7538C80.9267 18.3495 81.1464 17.9101 81.3749 17.4355C81.6034 16.9609 81.8144 16.5214 82.0077 16.1171C82.2187 15.6952 82.3505 15.4316 82.4032 15.3261C82.456 15.2382 82.5263 15.0712 82.6142 14.8251C82.7196 14.5614 82.8339 14.2802 82.9569 13.9814C83.08 13.6825 83.2118 13.4013 83.3524 13.1376C83.5106 12.8564 83.6688 12.6542 83.827 12.5312C84.0028 12.4081 84.1698 12.3906 84.328 12.4784C84.5038 12.5663 84.6708 12.83 84.829 13.2695C84.7587 13.4452 84.5829 13.7968 84.3017 14.3241C84.038 14.8515 83.7216 15.4843 83.3524 16.2226C82.9833 16.9609 82.5702 17.7782 82.1132 18.6747C81.6737 19.5712 81.2431 20.4765 80.8212 21.3906C80.3993 22.3046 80.0038 23.2011 79.6347 24.08C79.2655 24.9413 78.9579 25.7323 78.7118 26.4531C78.4833 27.1562 78.3427 27.745 78.2899 28.2197C78.2548 28.6767 78.3427 28.9579 78.5536 29.0634C78.7997 29.1864 79.1161 29.2392 79.5028 29.2216C79.9071 29.1864 80.3202 29.1337 80.7421 29.0634C81.164 28.9931 81.577 28.9228 81.9813 28.8525C82.3856 28.7646 82.7372 28.7294 83.036 28.747C83.1063 28.9052 83.0536 29.0634 82.8778 29.2216C82.702 29.3622 82.456 29.4941 82.1395 29.6171C81.8231 29.7226 81.454 29.8193 81.0321 29.9072C80.6278 29.9775 80.2323 30.0302 79.8456 30.0654C79.4765 30.1005 79.1425 30.1093 78.8437 30.0917C78.5624 30.0741 78.369 30.0302 78.2636 29.9599Z" fill="#0078A3"/>
<path d="M83.9441 29.9599C84.6648 27.6396 85.3152 25.8027 85.8953 24.4491C86.493 23.0781 86.9851 22.12 87.3719 21.5751C87.7762 21.0302 88.0486 20.8544 88.1892 21.0478C88.3299 21.2411 88.3123 21.7333 88.1365 22.5243C87.9783 23.3154 87.6267 24.3788 87.0818 25.7148C86.5545 27.0331 85.8074 28.5448 84.8406 30.2499C84.7 30.3027 84.533 30.3114 84.3396 30.2763C84.1463 30.2411 84.0144 30.1357 83.9441 29.9599ZM88.5584 17.2773C88.5232 17.1894 88.5056 17.0312 88.5056 16.8027C88.5056 16.5741 88.5232 16.4335 88.5584 16.3808C88.9627 16.2402 89.2703 16.2226 89.4812 16.3281C89.6922 16.4335 89.824 16.5917 89.8767 16.8027C89.9295 16.996 89.9207 17.207 89.8504 17.4355C89.7976 17.664 89.701 17.8398 89.5603 17.9628C89.4197 18.0683 89.2527 18.0859 89.0594 18.0156C88.8836 17.9277 88.7166 17.6816 88.5584 17.2773Z" fill="#0078A3"/>
<path d="M90.0993 29.6435C89.7301 29.4325 89.4665 29.0986 89.3083 28.6415C89.1501 28.1845 89.0622 27.6659 89.0446 27.0859C89.027 26.5058 89.0622 25.8993 89.1501 25.2665C89.2379 24.6337 89.3434 24.0185 89.4665 23.4208C89.5895 22.8232 89.7126 22.287 89.8356 21.8124C89.9586 21.3378 90.0465 20.9687 90.0993 20.705C90.1872 20.6523 90.2751 20.6523 90.3629 20.705C90.4684 20.7577 90.5651 20.8368 90.653 20.9423C90.7585 21.0302 90.8376 21.1181 90.8903 21.206C90.9606 21.2763 90.9958 21.3114 90.9958 21.3114C91.0485 21.9267 91.0485 22.5331 90.9958 23.1308C90.9606 23.7109 90.9079 24.2909 90.8376 24.871C90.7848 25.4511 90.7321 26.04 90.6794 26.6376C90.6442 27.2353 90.6442 27.8417 90.6794 28.457C90.82 28.7206 91.11 28.7294 91.5495 28.4833C91.9889 28.2197 92.5251 27.8066 93.1579 27.2441C93.7907 26.664 94.4762 25.9872 95.2145 25.2138C95.9704 24.4228 96.7086 23.6406 97.4294 22.8671C98.1676 22.0937 98.862 21.373 99.5124 20.705C100.163 20.0195 100.708 19.5009 101.147 19.1493C101.604 18.7802 101.921 18.6308 102.096 18.7011C102.272 18.7538 102.246 19.123 102.017 19.8085C101.595 20.1777 101.094 20.7314 100.514 21.4697C99.9342 22.2079 99.3014 23.0077 98.6159 23.8691C97.9303 24.7128 97.2184 25.5566 96.4801 26.4003C95.7419 27.2441 94.9948 27.9736 94.2389 28.5888C93.5006 29.1864 92.7799 29.6083 92.0768 29.8544C91.3737 30.0829 90.7145 30.0126 90.0993 29.6435Z" fill="#0078A3"/>
<path d="M103.084 29.9599C102.556 29.7841 102.152 29.5204 101.871 29.1689C101.607 28.7997 101.431 28.3954 101.343 27.956C101.255 27.5165 101.238 27.0595 101.291 26.5849C101.361 26.0927 101.466 25.6269 101.607 25.1874C102.134 24.6249 102.723 23.9833 103.374 23.2626C104.042 22.5243 104.745 21.8036 105.483 21.1005C106.221 20.3974 106.986 19.747 107.777 19.1493C108.585 18.5341 109.403 18.0683 110.229 17.7519C110.51 17.6288 110.73 17.6376 110.888 17.7782C111.064 17.9013 111.187 18.1034 111.257 18.3847C111.328 18.6659 111.354 18.9911 111.336 19.3603C111.336 19.7294 111.31 20.0898 111.257 20.4413C111.205 20.7929 111.134 21.1093 111.046 21.3906C110.959 21.6718 110.871 21.8652 110.783 21.9706C110.572 22.2167 110.159 22.5068 109.543 22.8407C108.946 23.1747 108.278 23.5439 107.54 23.9482C106.801 24.3349 106.063 24.7392 105.325 25.1611C104.586 25.5829 103.98 26.0048 103.505 26.4267C103.031 26.831 102.75 27.2353 102.662 27.6396C102.574 28.0439 102.82 28.413 103.4 28.747C103.998 28.8173 104.718 28.7909 105.562 28.6679C106.423 28.5273 107.293 28.3515 108.172 28.1406C109.069 27.912 109.93 27.6835 110.756 27.455C111.583 27.2089 112.259 27.0156 112.787 26.8749L113.103 27.165C112.716 27.6747 112.084 28.1406 111.205 28.5624C110.326 28.9843 109.377 29.3359 108.357 29.6171C107.337 29.8808 106.344 30.0566 105.377 30.1445C104.411 30.2148 103.646 30.1532 103.084 29.9599ZM109.385 19.8876C109.368 19.87 109.236 19.9491 108.99 20.1249C108.744 20.2831 108.436 20.5029 108.067 20.7841C107.715 21.0478 107.329 21.3466 106.907 21.6806C106.502 21.997 106.125 22.2958 105.773 22.5771C105.439 22.8583 105.158 23.1044 104.929 23.3154C104.701 23.5087 104.604 23.6054 104.639 23.6054C104.92 23.6581 105.281 23.623 105.72 23.4999C106.177 23.3593 106.643 23.1659 107.118 22.9198C107.61 22.6738 108.076 22.4013 108.515 22.1025C108.955 21.7861 109.297 21.4784 109.543 21.1796C109.807 20.8808 109.939 20.6171 109.939 20.3886C109.957 20.1601 109.772 19.9931 109.385 19.8876Z" fill="#0078A3"/>
<path d="M112.602 29.9599C113.323 27.6396 113.973 25.8027 114.553 24.4491C115.151 23.0781 115.643 22.12 116.03 21.5751C116.434 21.0302 116.707 20.8544 116.847 21.0478C116.988 21.2411 116.97 21.7333 116.794 22.5243C116.636 23.3154 116.285 24.3788 115.74 25.7148C115.212 27.0331 114.465 28.5448 113.499 30.2499C113.358 30.3027 113.191 30.3114 112.998 30.2763C112.804 30.2411 112.672 30.1357 112.602 29.9599ZM117.216 17.2773C117.181 17.1894 117.164 17.0312 117.164 16.8027C117.164 16.5741 117.181 16.4335 117.216 16.3808C117.621 16.2402 117.928 16.2226 118.139 16.3281C118.35 16.4335 118.482 16.5917 118.535 16.8027C118.587 16.996 118.579 17.207 118.508 17.4355C118.456 17.664 118.359 17.8398 118.218 17.9628C118.078 18.0683 117.911 18.0859 117.717 18.0156C117.542 17.9277 117.375 17.6816 117.216 17.2773Z" fill="#0078A3"/>
<path d="M118.019 29.9599C117.984 29.9423 117.984 29.7402 118.019 29.3534C118.072 28.9491 118.142 28.4482 118.23 27.8505C118.318 27.2529 118.432 26.5937 118.573 25.873C118.713 25.1523 118.863 24.4667 119.021 23.8163C119.179 23.1484 119.346 22.5683 119.522 22.0761C119.715 21.5663 119.9 21.2148 120.076 21.0214C120.199 20.8984 120.322 20.8984 120.445 21.0214C120.568 21.1269 120.691 21.2675 120.814 21.4433C120.937 21.6015 121.06 21.7509 121.183 21.8915C121.306 22.0146 121.438 22.0234 121.579 21.9179C122.071 21.2323 122.607 20.582 123.187 19.9667C123.785 19.3339 124.444 18.789 125.164 18.332C125.235 18.2792 125.428 18.2001 125.745 18.0947C126.061 17.9716 126.421 17.8573 126.826 17.7519C127.23 17.6288 127.643 17.5322 128.065 17.4618C128.504 17.3739 128.873 17.3388 129.172 17.3564C129.489 17.3564 129.7 17.4355 129.805 17.5937C129.928 17.7343 129.875 17.9804 129.647 18.332C128.592 18.3495 127.608 18.6572 126.694 19.2548C125.78 19.8525 124.936 20.5907 124.163 21.4697C123.389 22.3486 122.686 23.3066 122.053 24.3437C121.42 25.3632 120.867 26.3124 120.392 27.1913C119.935 28.0702 119.548 28.7997 119.232 29.3798C118.933 29.9599 118.713 30.2499 118.573 30.2499C118.555 30.2499 118.476 30.2148 118.335 30.1445C118.195 30.0566 118.089 29.995 118.019 29.9599Z" fill="#0078A3"/>
<path d="M127.252 29.6435C126.83 29.2919 126.593 28.7734 126.54 28.0878C126.505 27.4023 126.601 26.6288 126.83 25.7675C127.076 24.9062 127.427 24.0097 127.885 23.0781C128.359 22.1288 128.904 21.2323 129.519 20.3886C130.135 19.5273 130.802 18.7626 131.523 18.0947C132.244 17.4091 132.965 16.9081 133.685 16.5917C134.406 16.2577 135.109 16.1435 135.795 16.2489C136.48 16.3368 137.104 16.7323 137.667 17.4355C138.018 17.8749 138.229 18.3232 138.3 18.7802C138.37 19.2197 138.361 19.6767 138.273 20.1513C138.185 20.6083 138.045 21.0829 137.851 21.5751C137.658 22.0497 137.465 22.5331 137.271 23.0253C137.095 23.5175 136.946 24.0185 136.823 24.5282C136.718 25.038 136.7 25.5566 136.77 26.0839C136.858 26.7519 137.157 27.1474 137.667 27.2704C138.177 27.3935 138.783 27.3583 139.486 27.165C140.207 26.9716 140.963 26.664 141.754 26.2421C142.545 25.8202 143.274 25.3984 143.942 24.9765C144.628 24.5546 145.19 24.1855 145.63 23.8691C146.087 23.5527 146.315 23.3945 146.315 23.3945C146.807 23.289 147.08 23.3241 147.133 23.4999C147.203 23.6581 147.106 23.9042 146.843 24.2382C146.596 24.5546 146.219 24.9238 145.709 25.3456C145.199 25.7499 144.619 26.1454 143.969 26.5322C143.318 26.9189 142.624 27.2704 141.885 27.5868C141.147 27.9032 140.427 28.123 139.723 28.246C139.02 28.3515 138.352 28.3427 137.719 28.2197C137.104 28.079 136.594 27.7626 136.19 27.2704C135.997 27.0595 135.847 26.8486 135.742 26.6376C135.654 26.4267 135.505 26.2421 135.294 26.0839C135.03 26.33 134.714 26.6552 134.344 27.0595C133.975 27.4462 133.571 27.8417 133.132 28.246C132.71 28.6327 132.253 29.0019 131.76 29.3534C131.286 29.705 130.794 29.9687 130.284 30.1445C129.774 30.3202 129.256 30.3818 128.728 30.329C128.218 30.2763 127.726 30.0478 127.252 29.6435ZM127.542 28.747C127.7 29.3095 128.052 29.5732 128.596 29.538C129.141 29.4853 129.774 29.2128 130.495 28.7206C131.216 28.2284 131.963 27.5605 132.736 26.7167C133.51 25.8554 134.204 24.9062 134.819 23.8691C135.434 22.8144 135.9 21.707 136.217 20.5468C136.551 19.3866 136.638 18.2441 136.48 17.1191C136.058 16.7851 135.531 16.7763 134.898 17.0927C134.265 17.3915 133.589 17.8925 132.868 18.5956C132.165 19.2812 131.462 20.1073 130.759 21.0741C130.073 22.0234 129.467 22.9902 128.939 23.9745C128.412 24.9413 128.008 25.8554 127.726 26.7167C127.463 27.5781 127.401 28.2548 127.542 28.747Z" fill="#0078A3"/>
<path d="M23.4386 42.0181H21.1531V40.503H27.5942V42.0181H25.3087V46.6844H23.4386V42.0181Z" fill="#0078A3"/>
<path d="M32.7937 44.1218C32.7937 44.5374 32.8976 44.8433 33.1054 45.0395C33.3189 45.2357 33.6537 45.3339 34.1096 45.3339C34.5714 45.3339 34.9061 45.2357 35.1139 45.0395C35.3274 44.8433 35.4342 44.5374 35.4342 44.1218V40.503H37.3042V43.9746C37.3042 44.9904 37.0301 45.7234 36.4818 46.1736C35.9335 46.618 35.1427 46.8403 34.1096 46.8403C33.0823 46.8403 32.2944 46.618 31.7461 46.1736C31.1978 45.7234 30.9237 44.9904 30.9237 43.9746V40.503H32.7937V44.1218Z" fill="#0078A3"/>
<path d="M41.2331 40.503H44.1593C45.406 40.503 46.3467 40.7656 46.9816 41.2908C47.6165 41.8103 47.9339 42.5779 47.9339 43.5937C47.9339 44.5749 47.6021 45.3367 46.9383 45.8793C46.2746 46.416 45.3223 46.6844 44.0814 46.6844H41.2331V40.503ZM44.1247 45.204C45.4002 45.204 46.038 44.6643 46.038 43.5851C46.038 42.5173 45.4233 41.9834 44.1939 41.9834H43.0771V45.204H44.1247Z" fill="#0078A3"/>
<path d="M55.07 46.8403C54.3082 46.8403 53.6531 46.7104 53.1048 46.4507C52.5565 46.1909 52.1323 45.8187 51.8322 45.3339C51.5378 44.849 51.3906 44.269 51.3906 43.5937C51.3906 42.9184 51.5407 42.3384 51.8408 41.8536C52.1409 41.3687 52.568 40.9965 53.1221 40.7368C53.6762 40.477 54.3371 40.3472 55.1047 40.3472C55.8665 40.3472 56.5216 40.477 57.0699 40.7368C57.6182 40.9965 58.0396 41.3687 58.3339 41.8536C58.634 42.3384 58.7841 42.9184 58.7841 43.5937C58.7841 44.269 58.634 44.849 58.3339 45.3339C58.0338 45.8187 57.6067 46.1909 57.0526 46.4507C56.4985 46.7104 55.8377 46.8403 55.07 46.8403ZM56.8448 43.5937C56.8448 43.0396 56.689 42.6125 56.3773 42.3124C56.0714 42.0065 55.6414 41.8536 55.0874 41.8536C54.5333 41.8536 54.1004 42.0065 53.7887 42.3124C53.4828 42.6183 53.3299 43.0454 53.3299 43.5937C53.3299 44.1478 53.4828 44.5778 53.7887 44.8837C54.1004 45.1838 54.5333 45.3339 55.0874 45.3339C55.6414 45.3339 56.0714 45.1809 56.3773 44.875C56.689 44.5691 56.8448 44.142 56.8448 43.5937Z" fill="#0078A3"/>
<path d="M67.4557 40.503H70.3819C71.6286 40.503 72.5693 40.7656 73.2042 41.2908C73.8391 41.8103 74.1565 42.5779 74.1565 43.5937C74.1565 44.5749 73.8247 45.3367 73.1609 45.8793C72.4972 46.416 71.5449 46.6844 70.304 46.6844H67.4557V40.503ZM70.3473 45.204C71.6228 45.204 72.2606 44.6643 72.2606 43.5851C72.2606 42.5173 71.6459 41.9834 70.4165 41.9834H69.2997V45.204H70.3473Z" fill="#0078A3"/>
<path d="M77.8903 40.503H83.3012V41.8622H79.717V42.8665H83.128V44.2257H79.717V45.3252H83.509L83.3358 46.6844H77.8903V40.503Z" fill="#0078A3"/>
<path d="M93.8024 42.0181H91.5168V40.503H97.958V42.0181H95.6724V46.6844H93.8024V42.0181Z" fill="#0078A3"/>
<path d="M101.357 40.503H106.768V41.8622H103.183V42.8665H106.594V44.2257H103.183V45.3252H106.975L106.802 46.6844H101.357V40.503Z" fill="#0078A3"/>
<path d="M117.438 46.6844H115.247L113.672 44.6153L112.096 46.6844H110.018L112.529 43.4725L110.209 40.503H112.399L113.698 42.3038L115.066 40.503H117.143L114.849 43.4119L117.438 46.6844Z" fill="#0078A3"/>
<path d="M122.511 42.0181H120.225V40.503H126.666V42.0181H124.381V46.6844H122.511V42.0181Z" fill="#0078A3"/>
<path d="M133.188 46.8403C132.426 46.8403 131.771 46.7104 131.223 46.4507C130.675 46.1909 130.251 45.8187 129.95 45.3339C129.656 44.849 129.509 44.269 129.509 43.5937C129.509 42.9184 129.659 42.3384 129.959 41.8536C130.259 41.3687 130.686 40.9965 131.24 40.7368C131.794 40.477 132.455 40.3472 133.223 40.3472C133.985 40.3472 134.64 40.477 135.188 40.7368C135.736 40.9965 136.158 41.3687 136.452 41.8536C136.752 42.3384 136.902 42.9184 136.902 43.5937C136.902 44.269 136.752 44.849 136.452 45.3339C136.152 45.8187 135.725 46.1909 135.171 46.4507C134.617 46.7104 133.956 46.8403 133.188 46.8403ZM134.963 43.5937C134.963 43.0396 134.807 42.6125 134.496 42.3124C134.19 42.0065 133.76 41.8536 133.206 41.8536C132.652 41.8536 132.219 42.0065 131.907 42.3124C131.601 42.6183 131.448 43.0454 131.448 43.5937C131.448 44.1478 131.601 44.5778 131.907 44.8837C132.219 45.1838 132.652 45.3339 133.206 45.3339C133.76 45.3339 134.19 45.1809 134.496 44.875C134.807 44.5691 134.963 44.142 134.963 43.5937Z" fill="#0078A3"/>
<path d="M21.1602 54.6723H22.0082C22.0588 54.9337 22.2775 55.0643 22.6642 55.0643C23.0588 55.0643 23.2562 54.9697 23.2562 54.7803C23.2562 54.7137 23.2268 54.6603 23.1682 54.6203C23.1095 54.5777 23.0135 54.547 22.8802 54.5283L22.3682 54.4523C21.9735 54.391 21.6855 54.2883 21.5042 54.1443C21.3255 54.0003 21.2362 53.803 21.2362 53.5523C21.2362 53.275 21.3615 53.059 21.6122 52.9043C21.8655 52.7497 22.2135 52.6723 22.6562 52.6723C23.4748 52.6723 23.9335 52.959 24.0322 53.5323L23.2122 53.6123C23.1695 53.495 23.1028 53.411 23.0122 53.3603C22.9215 53.307 22.7935 53.2803 22.6282 53.2803C22.4522 53.2803 22.3162 53.3017 22.2202 53.3443C22.1268 53.387 22.0802 53.4483 22.0802 53.5283C22.0802 53.595 22.1055 53.6457 22.1562 53.6803C22.2068 53.715 22.3002 53.743 22.4362 53.7643L23.0602 53.8643C23.4308 53.923 23.6988 54.023 23.8642 54.1643C24.0295 54.303 24.1122 54.499 24.1122 54.7523C24.1122 55.0563 23.9895 55.2857 23.7442 55.4403C23.4988 55.595 23.1375 55.6723 22.6602 55.6723C21.7215 55.6723 21.2215 55.339 21.1602 54.6723Z" fill="#0078A3"/>
<path d="M27.3435 55.6723C26.9915 55.6723 26.6888 55.6123 26.4355 55.4923C26.1821 55.3723 25.9861 55.2003 25.8475 54.9763C25.7115 54.7523 25.6435 54.4843 25.6435 54.1723C25.6435 53.8603 25.7128 53.5923 25.8515 53.3683C25.9901 53.1443 26.1875 52.9723 26.4435 52.8523C26.6995 52.7323 27.0048 52.6723 27.3595 52.6723C27.7115 52.6723 28.0141 52.7323 28.2675 52.8523C28.5208 52.9723 28.7155 53.1443 28.8515 53.3683C28.9901 53.5923 29.0595 53.8603 29.0595 54.1723C29.0595 54.4843 28.9901 54.7523 28.8515 54.9763C28.7128 55.2003 28.5155 55.3723 28.2595 55.4923C28.0035 55.6123 27.6981 55.6723 27.3435 55.6723ZM28.1635 54.1723C28.1635 53.9163 28.0915 53.719 27.9475 53.5803C27.8061 53.439 27.6075 53.3683 27.3515 53.3683C27.0955 53.3683 26.8955 53.439 26.7515 53.5803C26.6101 53.7217 26.5395 53.919 26.5395 54.1723C26.5395 54.4283 26.6101 54.627 26.7515 54.7683C26.8955 54.907 27.0955 54.9763 27.3515 54.9763C27.6075 54.9763 27.8061 54.9057 27.9475 54.7643C28.0915 54.623 28.1635 54.4257 28.1635 54.1723Z" fill="#0078A3"/>
<path d="M30.7801 52.7443H31.6441V54.9003H33.2681L33.1801 55.6003H30.7801V52.7443Z" fill="#0078A3"/>
<path d="M35.6636 54.4163C35.6636 54.6083 35.7116 54.7497 35.8076 54.8403C35.9063 54.931 36.061 54.9763 36.2716 54.9763C36.485 54.9763 36.6396 54.931 36.7356 54.8403C36.8343 54.7497 36.8836 54.6083 36.8836 54.4163V52.7443H37.7476V54.3483C37.7476 54.8177 37.621 55.1563 37.3676 55.3643C37.1143 55.5697 36.749 55.6723 36.2716 55.6723C35.797 55.6723 35.433 55.5697 35.1796 55.3643C34.9263 55.1563 34.7996 54.8177 34.7996 54.3483V52.7443H35.6636V54.4163Z" fill="#0078A3"/>
<path d="M42.5789 53.6883L41.7269 53.7803C41.6762 53.6337 41.6002 53.5283 41.4989 53.4643C41.3975 53.4003 41.2602 53.3683 41.0869 53.3683C40.8495 53.3683 40.6642 53.4377 40.5309 53.5763C40.3975 53.7123 40.3309 53.911 40.3309 54.1723C40.3309 54.4337 40.3975 54.6337 40.5309 54.7723C40.6669 54.9083 40.8575 54.9763 41.1029 54.9763C41.4815 54.9763 41.7042 54.8297 41.7709 54.5363H42.6349C42.6002 54.8963 42.4455 55.1763 42.1709 55.3763C41.8989 55.5737 41.5362 55.6723 41.0829 55.6723C40.7202 55.6723 40.4162 55.6083 40.1709 55.4803C39.9282 55.3523 39.7442 55.1763 39.6189 54.9523C39.4962 54.7257 39.4349 54.4657 39.4349 54.1723C39.4349 53.887 39.4962 53.631 39.6189 53.4043C39.7442 53.1777 39.9295 52.999 40.1749 52.8683C40.4202 52.7377 40.7255 52.6723 41.0909 52.6723C41.9149 52.6723 42.4109 53.011 42.5789 53.6883ZM40.8749 55.5123L41.2549 55.6003L41.1789 55.7763C41.3469 55.795 41.4709 55.835 41.5509 55.8963C41.6309 55.9603 41.6709 56.043 41.6709 56.1443C41.6709 56.2617 41.6122 56.3537 41.4949 56.4203C41.3775 56.487 41.2122 56.5203 40.9989 56.5203C40.8042 56.5203 40.6509 56.5017 40.5389 56.4643V56.1403C40.6055 56.151 40.6642 56.159 40.7149 56.1643C40.7682 56.1723 40.8189 56.1763 40.8669 56.1763C40.9522 56.1763 41.0135 56.1683 41.0509 56.1523C41.0909 56.139 41.1109 56.1177 41.1109 56.0883C41.1109 56.051 41.0869 56.0257 41.0389 56.0123C40.9935 55.999 40.9149 55.9923 40.8029 55.9923H40.6629L40.8749 55.5123Z" fill="#0078A3"/>
<path d="M45.8505 55.6723C45.4985 55.6723 45.1958 55.6123 44.9425 55.4923C44.6892 55.3723 44.4932 55.2003 44.3545 54.9763C44.2185 54.7523 44.1505 54.4843 44.1505 54.1723C44.1505 53.8603 44.2198 53.5923 44.3585 53.3683C44.4972 53.1443 44.6945 52.9723 44.9505 52.8523C45.2065 52.7323 45.5118 52.6723 45.8665 52.6723C46.2185 52.6723 46.5212 52.7323 46.7745 52.8523C47.0278 52.9723 47.2225 53.1443 47.3585 53.3683C47.4972 53.5923 47.5665 53.8603 47.5665 54.1723C47.5665 54.4843 47.4972 54.7523 47.3585 54.9763C47.2198 55.2003 47.0225 55.3723 46.7665 55.4923C46.5105 55.6123 46.2052 55.6723 45.8505 55.6723ZM46.6705 54.1723C46.6705 53.9163 46.5985 53.719 46.4545 53.5803C46.3132 53.439 46.1145 53.3683 45.8585 53.3683C45.6025 53.3683 45.4025 53.439 45.2585 53.5803C45.1172 53.7217 45.0465 53.919 45.0465 54.1723C45.0465 54.4283 45.1172 54.627 45.2585 54.7683C45.4025 54.907 45.6025 54.9763 45.8585 54.9763C46.1145 54.9763 46.3132 54.9057 46.4545 54.7643C46.5985 54.623 46.6705 54.4257 46.6705 54.1723ZM44.9545 52.5083C44.9545 52.271 44.9985 52.1003 45.0865 51.9963C45.1745 51.8923 45.3065 51.8403 45.4825 51.8403C45.6105 51.8403 45.7625 51.8843 45.9385 51.9723C46.0078 52.007 46.0612 52.031 46.0985 52.0443C46.1358 52.0577 46.1692 52.0643 46.1985 52.0643C46.2492 52.0643 46.2825 52.0483 46.2985 52.0163C46.3145 51.9817 46.3225 51.927 46.3225 51.8523H46.7985C46.7985 52.0817 46.7545 52.251 46.6665 52.3603C46.5785 52.467 46.4465 52.5203 46.2705 52.5203C46.1452 52.5203 45.9972 52.4777 45.8265 52.3923C45.6958 52.3283 45.6052 52.2963 45.5545 52.2963C45.5065 52.2963 45.4732 52.315 45.4545 52.3523C45.4385 52.387 45.4305 52.439 45.4305 52.5083H44.9545Z" fill="#0078A3"/>
<path d="M49.2871 52.7443H51.7871V53.3723H50.1311V53.8363H51.7071V54.4643H50.1311V54.9723H51.8831L51.8031 55.6003H49.2871V52.7443Z" fill="#0078A3"/>
<path d="M53.357 54.6723H54.205C54.2557 54.9337 54.4744 55.0643 54.861 55.0643C55.2557 55.0643 55.453 54.9697 55.453 54.7803C55.453 54.7137 55.4237 54.6603 55.365 54.6203C55.3064 54.5777 55.2104 54.547 55.077 54.5283L54.565 54.4523C54.1704 54.391 53.8824 54.2883 53.701 54.1443C53.5224 54.0003 53.433 53.803 53.433 53.5523C53.433 53.275 53.5584 53.059 53.809 52.9043C54.0624 52.7497 54.4104 52.6723 54.853 52.6723C55.6717 52.6723 56.1304 52.959 56.229 53.5323L55.409 53.6123C55.3664 53.495 55.2997 53.411 55.209 53.3603C55.1184 53.307 54.9904 53.2803 54.825 53.2803C54.649 53.2803 54.513 53.3017 54.417 53.3443C54.3237 53.387 54.277 53.4483 54.277 53.5283C54.277 53.595 54.3024 53.6457 54.353 53.6803C54.4037 53.715 54.497 53.743 54.633 53.7643L55.257 53.8643C55.6277 53.923 55.8957 54.023 56.061 54.1643C56.2264 54.303 56.309 54.499 56.309 54.7523C56.309 55.0563 56.1864 55.2857 55.941 55.4403C55.6957 55.595 55.3344 55.6723 54.857 55.6723C53.9184 55.6723 53.4184 55.339 53.357 54.6723Z" fill="#0078A3"/>
<path d="M60.2543 52.7443H61.6743C62.5303 52.7443 62.9583 53.0737 62.9583 53.7323C62.9583 54.071 62.8476 54.3217 62.6263 54.4843C62.4076 54.6443 62.0743 54.7243 61.6263 54.7243H61.0903V55.6003H60.2543V52.7443ZM61.6103 54.0843C61.7836 54.0843 61.9116 54.0577 61.9943 54.0043C62.0769 53.951 62.1183 53.859 62.1183 53.7283C62.1183 53.6057 62.0783 53.5177 61.9983 53.4643C61.9183 53.411 61.7916 53.3843 61.6183 53.3843H61.0903V54.0843H61.6103Z" fill="#0078A3"/>
<path d="M65.2111 52.7443H66.2191L67.4591 55.6003H66.5631L66.3511 55.0803H65.0471L64.8471 55.6003H63.9711L65.2111 52.7443ZM66.1111 54.4403L65.7031 53.3963L65.2951 54.4403H66.1111Z" fill="#0078A3"/>
<path d="M69.0215 52.7443H70.4895C71.3455 52.7443 71.7735 53.0603 71.7735 53.6923C71.7735 53.895 71.7308 54.0603 71.6455 54.1883C71.5601 54.3137 71.4348 54.4137 71.2695 54.4883L71.9695 55.6003H71.0455L70.4815 54.6523H69.8295V55.6003H69.0215V52.7443ZM70.4375 54.0363C70.6135 54.0363 70.7415 54.011 70.8215 53.9603C70.9041 53.907 70.9455 53.819 70.9455 53.6963C70.9455 53.5737 70.9068 53.487 70.8295 53.4363C70.7521 53.3857 70.6241 53.3603 70.4455 53.3603H69.8295V54.0363H70.4375Z" fill="#0078A3"/>
<path d="M74.5212 52.7443H75.5292L76.7692 55.6003H75.8732L75.6612 55.0803H74.3572L74.1572 55.6003H73.2812L74.5212 52.7443ZM75.4212 54.4403L75.0132 53.3963L74.6052 54.4403H75.4212Z" fill="#0078A3"/>
<path d="M81.5736 52.7443H82.5816L83.8216 55.6003H82.9256L82.7136 55.0803H81.4096L81.2096 55.6003H80.3336L81.5736 52.7443ZM82.4736 54.4403L82.0656 53.3963L81.6576 54.4403H82.4736Z" fill="#0078A3"/>
<path d="M90.6859 53.6883L89.8339 53.7803C89.7832 53.6337 89.7072 53.5283 89.6059 53.4643C89.5046 53.4003 89.3672 53.3683 89.1939 53.3683C88.9566 53.3683 88.7712 53.4377 88.6379 53.5763C88.5046 53.7123 88.4379 53.911 88.4379 54.1723C88.4379 54.4337 88.5046 54.6337 88.6379 54.7723C88.7739 54.9083 88.9646 54.9763 89.2099 54.9763C89.5886 54.9763 89.8112 54.8297 89.8779 54.5363H90.7419C90.7072 54.8963 90.5526 55.1763 90.2779 55.3763C90.0059 55.5737 89.6432 55.6723 89.1899 55.6723C88.8272 55.6723 88.5232 55.6083 88.2779 55.4803C88.0352 55.3523 87.8512 55.1763 87.7259 54.9523C87.6032 54.7257 87.5419 54.4657 87.5419 54.1723C87.5419 53.887 87.6032 53.631 87.7259 53.4043C87.8512 53.1777 88.0366 52.999 88.2819 52.8683C88.5272 52.7377 88.8326 52.6723 89.1979 52.6723C90.0219 52.6723 90.5179 53.011 90.6859 53.6883Z" fill="#0078A3"/>
<path d="M93.9575 55.6723C93.6055 55.6723 93.3029 55.6123 93.0495 55.4923C92.7962 55.3723 92.6002 55.2003 92.4615 54.9763C92.3255 54.7523 92.2575 54.4843 92.2575 54.1723C92.2575 53.8603 92.3269 53.5923 92.4655 53.3683C92.6042 53.1443 92.8015 52.9723 93.0575 52.8523C93.3135 52.7323 93.6189 52.6723 93.9735 52.6723C94.3255 52.6723 94.6282 52.7323 94.8815 52.8523C95.1349 52.9723 95.3295 53.1443 95.4655 53.3683C95.6042 53.5923 95.6735 53.8603 95.6735 54.1723C95.6735 54.4843 95.6042 54.7523 95.4655 54.9763C95.3269 55.2003 95.1295 55.3723 94.8735 55.4923C94.6175 55.6123 94.3122 55.6723 93.9575 55.6723ZM94.7775 54.1723C94.7775 53.9163 94.7055 53.719 94.5615 53.5803C94.4202 53.439 94.2215 53.3683 93.9655 53.3683C93.7095 53.3683 93.5095 53.439 93.3655 53.5803C93.2242 53.7217 93.1535 53.919 93.1535 54.1723C93.1535 54.4283 93.2242 54.627 93.3655 54.7683C93.5095 54.907 93.7095 54.9763 93.9655 54.9763C94.2215 54.9763 94.4202 54.9057 94.5615 54.7643C94.7055 54.623 94.7775 54.4257 94.7775 54.1723Z" fill="#0078A3"/>
<path d="M97.3941 52.7443H98.3701L99.2301 54.6763L100.086 52.7443H101.042V55.6003H100.25V53.9363L99.5261 55.6003H98.8941L98.1741 53.9443V55.6003H97.3941V52.7443Z" fill="#0078A3"/>
<path d="M103.727 54.4163C103.727 54.6083 103.775 54.7497 103.871 54.8403C103.97 54.931 104.124 54.9763 104.335 54.9763C104.548 54.9763 104.703 54.931 104.799 54.8403C104.898 54.7497 104.947 54.6083 104.947 54.4163V52.7443H105.811V54.3483C105.811 54.8177 105.684 55.1563 105.431 55.3643C105.178 55.5697 104.812 55.6723 104.335 55.6723C103.86 55.6723 103.496 55.5697 103.243 55.3643C102.99 55.1563 102.863 54.8177 102.863 54.3483V52.7443H103.727V54.4163Z" fill="#0078A3"/>
<path d="M107.626 52.7443H108.394L109.822 54.4603V52.7443H110.638V55.6003H109.87L108.442 53.8843V55.6003H107.626V52.7443Z" fill="#0078A3"/>
<path d="M112.486 52.7443H113.35V55.6003H112.486V52.7443Z" fill="#0078A3"/>
<path d="M118.214 53.6883L117.362 53.7803C117.311 53.6337 117.235 53.5283 117.134 53.4643C117.033 53.4003 116.895 53.3683 116.722 53.3683C116.485 53.3683 116.299 53.4377 116.166 53.5763C116.033 53.7123 115.966 53.911 115.966 54.1723C115.966 54.4337 116.033 54.6337 116.166 54.7723C116.302 54.9083 116.493 54.9763 116.738 54.9763C117.117 54.9763 117.339 54.8297 117.406 54.5363H118.27C118.235 54.8963 118.081 55.1763 117.806 55.3763C117.534 55.5737 117.171 55.6723 116.718 55.6723C116.355 55.6723 116.051 55.6083 115.806 55.4803C115.563 55.3523 115.379 55.1763 115.254 54.9523C115.131 54.7257 115.07 54.4657 115.07 54.1723C115.07 53.887 115.131 53.631 115.254 53.4043C115.379 53.1777 115.565 52.999 115.81 52.8683C116.055 52.7377 116.361 52.6723 116.726 52.6723C117.55 52.6723 118.046 53.011 118.214 53.6883Z" fill="#0078A3"/>
<path d="M120.768 52.7443H121.776L123.016 55.6003H122.12L121.908 55.0803H120.604L120.404 55.6003H119.528L120.768 52.7443ZM121.668 54.4403L121.26 53.3963L120.852 54.4403H121.668Z" fill="#0078A3"/>
<path d="M127.419 53.6883L126.567 53.7803C126.516 53.6337 126.44 53.5283 126.339 53.4643C126.237 53.4003 126.1 53.3683 125.927 53.3683C125.689 53.3683 125.504 53.4377 125.371 53.5763C125.237 53.7123 125.171 53.911 125.171 54.1723C125.171 54.4337 125.237 54.6337 125.371 54.7723C125.507 54.9083 125.697 54.9763 125.943 54.9763C126.321 54.9763 126.544 54.8297 126.611 54.5363H127.475C127.44 54.8963 127.285 55.1763 127.011 55.3763C126.739 55.5737 126.376 55.6723 125.923 55.6723C125.56 55.6723 125.256 55.6083 125.011 55.4803C124.768 55.3523 124.584 55.1763 124.459 54.9523C124.336 54.7257 124.275 54.4657 124.275 54.1723C124.275 53.887 124.336 53.631 124.459 53.4043C124.584 53.1777 124.769 52.999 125.015 52.8683C125.26 52.7377 125.565 52.6723 125.931 52.6723C126.755 52.6723 127.251 53.011 127.419 53.6883ZM125.715 55.5123L126.095 55.6003L126.019 55.7763C126.187 55.795 126.311 55.835 126.391 55.8963C126.471 55.9603 126.511 56.043 126.511 56.1443C126.511 56.2617 126.452 56.3537 126.335 56.4203C126.217 56.487 126.052 56.5203 125.839 56.5203C125.644 56.5203 125.491 56.5017 125.379 56.4643V56.1403C125.445 56.151 125.504 56.159 125.555 56.1643C125.608 56.1723 125.659 56.1763 125.707 56.1763C125.792 56.1763 125.853 56.1683 125.891 56.1523C125.931 56.139 125.951 56.1177 125.951 56.0883C125.951 56.051 125.927 56.0257 125.879 56.0123C125.833 55.999 125.755 55.9923 125.643 55.9923H125.503L125.715 55.5123Z" fill="#0078A3"/>
<path d="M129.973 52.7443H130.981L132.221 55.6003H131.325L131.113 55.0803H129.809L129.609 55.6003H128.733L129.973 52.7443ZM130.873 54.4403L130.465 53.3963L130.057 54.4403H130.873ZM129.573 52.5083C129.573 52.271 129.617 52.1003 129.705 51.9963C129.793 51.8923 129.925 51.8403 130.101 51.8403C130.229 51.8403 130.381 51.8843 130.557 51.9723C130.626 52.007 130.679 52.031 130.717 52.0443C130.754 52.0577 130.787 52.0643 130.817 52.0643C130.867 52.0643 130.901 52.0483 130.917 52.0163C130.933 51.9817 130.941 51.927 130.941 51.8523H131.417C131.417 52.0817 131.373 52.251 131.285 52.3603C131.197 52.467 131.065 52.5203 130.889 52.5203C130.763 52.5203 130.615 52.4777 130.445 52.3923C130.314 52.3283 130.223 52.2963 130.173 52.2963C130.125 52.2963 130.091 52.315 130.073 52.3523C130.057 52.387 130.049 52.439 130.049 52.5083H129.573Z" fill="#0078A3"/>
<path d="M135.179 55.6723C134.827 55.6723 134.525 55.6123 134.271 55.4923C134.018 55.3723 133.822 55.2003 133.683 54.9763C133.547 54.7523 133.479 54.4843 133.479 54.1723C133.479 53.8603 133.549 53.5923 133.687 53.3683C133.826 53.1443 134.023 52.9723 134.279 52.8523C134.535 52.7323 134.841 52.6723 135.195 52.6723C135.547 52.6723 135.85 52.7323 136.103 52.8523C136.357 52.9723 136.551 53.1443 136.687 53.3683C136.826 53.5923 136.895 53.8603 136.895 54.1723C136.895 54.4843 136.826 54.7523 136.687 54.9763C136.549 55.2003 136.351 55.3723 136.095 55.4923C135.839 55.6123 135.534 55.6723 135.179 55.6723ZM135.999 54.1723C135.999 53.9163 135.927 53.719 135.783 53.5803C135.642 53.439 135.443 53.3683 135.187 53.3683C134.931 53.3683 134.731 53.439 134.587 53.5803C134.446 53.7217 134.375 53.919 134.375 54.1723C134.375 54.4283 134.446 54.627 134.587 54.7683C134.731 54.907 134.931 54.9763 135.187 54.9763C135.443 54.9763 135.642 54.9057 135.783 54.7643C135.927 54.623 135.999 54.4257 135.999 54.1723Z" fill="#0078A3"/>
<path d="M53.3204 60.6723C52.9684 60.6723 52.6658 60.6123 52.4124 60.4923C52.1591 60.3723 51.9631 60.2003 51.8244 59.9763C51.6884 59.7523 51.6204 59.4843 51.6204 59.1723C51.6204 58.8603 51.6898 58.5923 51.8284 58.3683C51.9671 58.1443 52.1644 57.9723 52.4204 57.8523C52.6764 57.7323 52.9818 57.6723 53.3364 57.6723C53.6884 57.6723 53.9911 57.7323 54.2444 57.8523C54.4978 57.9723 54.6924 58.1443 54.8284 58.3683C54.9671 58.5923 55.0364 58.8603 55.0364 59.1723C55.0364 59.4843 54.9671 59.7523 54.8284 59.9763C54.6898 60.2003 54.4924 60.3723 54.2364 60.4923C53.9804 60.6123 53.6751 60.6723 53.3204 60.6723ZM54.1404 59.1723C54.1404 58.9163 54.0684 58.719 53.9244 58.5803C53.7831 58.439 53.5844 58.3683 53.3284 58.3683C53.0724 58.3683 52.8724 58.439 52.7284 58.5803C52.5871 58.7217 52.5164 58.919 52.5164 59.1723C52.5164 59.4283 52.5871 59.627 52.7284 59.7683C52.8724 59.907 53.0724 59.9763 53.3284 59.9763C53.5844 59.9763 53.7831 59.9057 53.9244 59.7643C54.0684 59.623 54.1404 59.4257 54.1404 59.1723Z" fill="#0078A3"/>
<path d="M56.757 57.7443H58.225C59.081 57.7443 59.509 58.0603 59.509 58.6923C59.509 58.895 59.4664 59.0603 59.381 59.1883C59.2957 59.3137 59.1703 59.4137 59.005 59.4883L59.705 60.6003H58.781L58.217 59.6523H57.565V60.6003H56.757V57.7443ZM58.173 59.0363C58.349 59.0363 58.477 59.011 58.557 58.9603C58.6397 58.907 58.681 58.819 58.681 58.6963C58.681 58.5737 58.6423 58.487 58.565 58.4363C58.4877 58.3857 58.3597 58.3603 58.181 58.3603H57.565V59.0363H58.173Z" fill="#0078A3"/>
<path d="M62.2568 57.7443H63.2648L64.5048 60.6003H63.6088L63.3968 60.0803H62.0928L61.8928 60.6003H61.0168L62.2568 57.7443ZM63.1568 59.4403L62.7488 58.3963L62.3408 59.4403H63.1568Z" fill="#0078A3"/>
<path d="M66.0672 57.7443H66.9312V59.9003H68.5552L68.4672 60.6003H66.0672V57.7443Z" fill="#0078A3"/>
<path d="M72.4594 57.7443H74.9594V58.3723H73.3034V58.8363H74.8794V59.4643H73.3034V59.9723H75.0554L74.9754 60.6003H72.4594V57.7443Z" fill="#0078A3"/>
<path d="M79.0312 57.7443H81.5312V58.3723H79.8752V58.8363H81.4512V59.4643H79.8752V59.9723H81.6272L81.5472 60.6003H79.0312V57.7443Z" fill="#0078A3"/>
<path d="M83.1012 59.6723H83.9492C83.9998 59.9337 84.2185 60.0643 84.6052 60.0643C84.9998 60.0643 85.1972 59.9697 85.1972 59.7803C85.1972 59.7137 85.1678 59.6603 85.1092 59.6203C85.0505 59.5777 84.9545 59.547 84.8212 59.5283L84.3092 59.4523C83.9145 59.391 83.6265 59.2883 83.4452 59.1443C83.2665 59.0003 83.1772 58.803 83.1772 58.5523C83.1772 58.275 83.3025 58.059 83.5532 57.9043C83.8065 57.7497 84.1545 57.6723 84.5972 57.6723C85.4158 57.6723 85.8745 57.959 85.9732 58.5323L85.1532 58.6123C85.1105 58.495 85.0438 58.411 84.9532 58.3603C84.8625 58.307 84.7345 58.2803 84.5692 58.2803C84.3932 58.2803 84.2572 58.3017 84.1612 58.3443C84.0678 58.387 84.0212 58.4483 84.0212 58.5283C84.0212 58.595 84.0465 58.6457 84.0972 58.6803C84.1478 58.715 84.2412 58.743 84.3772 58.7643L85.0012 58.8643C85.3718 58.923 85.6398 59.023 85.8052 59.1643C85.9705 59.303 86.0532 59.499 86.0532 59.7523C86.0532 60.0563 85.9305 60.2857 85.6852 60.4403C85.4398 60.595 85.0785 60.6723 84.6012 60.6723C83.6625 60.6723 83.1625 60.339 83.1012 59.6723Z" fill="#0078A3"/>
<path d="M90.7285 58.6883L89.8765 58.7803C89.8258 58.6337 89.7498 58.5283 89.6485 58.4643C89.5472 58.4003 89.4098 58.3683 89.2365 58.3683C88.9992 58.3683 88.8138 58.4377 88.6805 58.5763C88.5472 58.7123 88.4805 58.911 88.4805 59.1723C88.4805 59.4337 88.5472 59.6337 88.6805 59.7723C88.8165 59.9083 89.0072 59.9763 89.2525 59.9763C89.6312 59.9763 89.8538 59.8297 89.9205 59.5363H90.7845C90.7498 59.8963 90.5952 60.1763 90.3205 60.3763C90.0485 60.5737 89.6858 60.6723 89.2325 60.6723C88.8698 60.6723 88.5658 60.6083 88.3205 60.4803C88.0778 60.3523 87.8938 60.1763 87.7685 59.9523C87.6458 59.7257 87.5845 59.4657 87.5845 59.1723C87.5845 58.887 87.6458 58.631 87.7685 58.4043C87.8938 58.1777 88.0792 57.999 88.3245 57.8683C88.5698 57.7377 88.8752 57.6723 89.2405 57.6723C90.0645 57.6723 90.5605 58.011 90.7285 58.6883Z" fill="#0078A3"/>
<path d="M92.4281 57.7443H93.8961C94.7521 57.7443 95.1801 58.0603 95.1801 58.6923C95.1801 58.895 95.1374 59.0603 95.0521 59.1883C94.9668 59.3137 94.8414 59.4137 94.6761 59.4883L95.3761 60.6003H94.4521L93.8881 59.6523H93.2361V60.6003H92.4281V57.7443ZM93.8441 59.0363C94.0201 59.0363 94.1481 59.011 94.2281 58.9603C94.3108 58.907 94.3521 58.819 94.3521 58.6963C94.3521 58.5737 94.3134 58.487 94.2361 58.4363C94.1588 58.3857 94.0308 58.3603 93.8521 58.3603H93.2361V59.0363H93.8441Z" fill="#0078A3"/>
<path d="M96.9367 57.7443H97.8007V60.6003H96.9367V57.7443Z" fill="#0078A3"/>
<path d="M100.428 58.4443H99.3724V57.7443H102.348V58.4443H101.292V60.6003H100.428V58.4443Z" fill="#0078A3"/>
<path d="M104.433 57.7443H105.441L106.681 60.6003H105.785L105.573 60.0803H104.269L104.069 60.6003H103.193L104.433 57.7443ZM105.333 59.4403L104.925 58.3963L104.517 59.4403H105.333Z" fill="#0078A3"/>
</svg>
