<svg width="158" height="77" viewBox="0 0 158 77" fill="none" xmlns="http://www.w3.org/2000/svg">
<path d="M13.3863 30.2435C12.31 29.8201 11.5689 29.2466 11.1631 28.5232C10.7573 27.7998 10.5896 26.997 10.6602 26.1148C10.7484 25.2149 11.0307 24.2621 11.5071 23.2564C12.0012 22.233 12.6011 21.2097 13.3069 20.1863C14.0303 19.1629 14.8243 18.166 15.6888 17.1956C16.5534 16.2252 17.4091 15.3341 18.2561 14.5225C19.103 13.7108 19.897 13.0051 20.6381 12.4052C21.3791 11.8053 21.979 11.3642 22.4378 11.0818C23.073 10.6937 23.6023 10.5084 24.0258 10.5261C24.4492 10.5261 24.7845 10.6584 25.0315 10.923C25.2961 11.1701 25.4726 11.523 25.5608 11.9817C25.6667 12.4228 25.7108 12.8992 25.6931 13.4109C25.6931 13.9049 25.6402 14.4078 25.5343 14.9195C25.4461 15.4135 25.3226 15.8458 25.1638 16.2163C25.0227 16.5869 24.8639 16.8603 24.6874 17.0368C24.5286 17.2132 24.3698 17.2221 24.211 17.0633C24.1934 16.9221 24.211 16.7104 24.2639 16.4281C24.3169 16.1281 24.3786 15.7929 24.4492 15.4223C24.5374 15.0518 24.6168 14.6725 24.6874 14.2843C24.758 13.8961 24.8021 13.5432 24.8197 13.2256C24.855 12.8904 24.8462 12.6081 24.7933 12.3787C24.758 12.1493 24.6609 12.017 24.5021 11.9817C23.8846 11.8229 23.1435 11.9729 22.279 12.4316C21.432 12.8727 20.541 13.5168 19.6059 14.3637C18.6884 15.193 17.7709 16.1634 16.8534 17.275C15.9535 18.3689 15.133 19.4982 14.392 20.6627C13.6509 21.8272 13.0422 22.9653 12.5658 24.0769C12.0894 25.1708 11.8159 26.1412 11.7453 26.9882C11.6924 27.8174 11.8777 28.4615 12.3011 28.9202C12.7422 29.3613 13.5098 29.5025 14.6037 29.3437C15.6094 29.2025 16.5358 28.8496 17.3827 28.285C18.2473 27.7027 19.0765 27.0676 19.8705 26.3794C20.6822 25.6737 21.485 24.9855 22.279 24.315C23.073 23.6269 23.9022 23.1064 24.7668 22.7535C25.0844 22.63 25.3314 22.6741 25.5079 22.8859C25.702 23.0976 25.7549 23.3534 25.6667 23.6534C25.5608 23.9533 25.2432 24.3503 24.7139 24.8444C24.2022 25.3384 23.5582 25.8589 22.7818 26.4059C22.0231 26.9352 21.185 27.4734 20.2675 28.0203C19.35 28.5497 18.4502 29.0084 17.5679 29.3966C16.7034 29.7848 15.8917 30.0671 15.133 30.2435C14.392 30.42 13.8097 30.42 13.3863 30.2435Z" fill="white"/>
<path d="M26.3135 30.2435C26.2782 30.2259 26.2782 30.023 26.3135 29.6348C26.3664 29.229 26.437 28.7261 26.5252 28.1262C26.6135 27.5263 26.7281 26.8646 26.8693 26.1412C27.0105 25.4178 27.1604 24.7297 27.3192 24.0769C27.478 23.4064 27.6456 22.8241 27.8221 22.3301C28.0162 21.8184 28.2014 21.4655 28.3779 21.2714C28.5014 21.1479 28.6249 21.1479 28.7484 21.2714C28.8719 21.3773 28.9954 21.5184 29.1189 21.6949C29.2425 21.8537 29.366 22.0036 29.4895 22.1448C29.613 22.2683 29.7453 22.2771 29.8865 22.1713C30.3805 21.4831 30.9187 20.8303 31.5009 20.2128C32.1008 19.5776 32.7625 19.0306 33.4859 18.5718C33.5565 18.5189 33.7506 18.4395 34.0682 18.3336C34.3858 18.2101 34.7475 18.0954 35.1533 17.9896C35.5591 17.8661 35.9737 17.769 36.3972 17.6984C36.8383 17.6102 37.2088 17.5749 37.5088 17.5926C37.8264 17.5926 38.0381 17.672 38.144 17.8308C38.2675 17.9719 38.2146 18.219 37.9852 18.5718C36.9265 18.5895 35.9385 18.8983 35.021 19.4982C34.1035 20.0981 33.2565 20.8391 32.4802 21.7213C31.7038 22.6036 30.9981 23.5652 30.3629 24.6062C29.7277 25.6295 29.1719 26.5823 28.6955 27.4646C28.2367 28.3468 27.8486 29.079 27.531 29.6613C27.231 30.2435 27.0105 30.5347 26.8693 30.5347C26.8517 30.5347 26.7723 30.4994 26.6311 30.4288C26.4899 30.3406 26.3841 30.2788 26.3135 30.2435Z" fill="white"/>
<path d="M36.9382 30.2435C37.6616 27.9145 38.3144 26.0707 38.8967 24.712C39.4966 23.3358 39.9906 22.3742 40.3788 21.8272C40.7846 21.2802 41.0581 21.1038 41.1993 21.2979C41.3404 21.492 41.3228 21.986 41.1463 22.78C40.9875 23.574 40.6347 24.6415 40.0877 25.9824C39.5584 27.3058 38.8085 28.8232 37.838 30.5347C37.6969 30.5876 37.5293 30.5964 37.3352 30.5611C37.1411 30.5258 37.0088 30.42 36.9382 30.2435ZM41.5698 17.5132C41.5345 17.425 41.5169 17.2662 41.5169 17.0368C41.5169 16.8074 41.5345 16.6663 41.5698 16.6133C41.9756 16.4722 42.2844 16.4545 42.4961 16.5604C42.7079 16.6663 42.8402 16.8251 42.8931 17.0368C42.9461 17.2309 42.9372 17.4426 42.8667 17.672C42.8137 17.9014 42.7167 18.0778 42.5755 18.2013C42.4344 18.3072 42.2668 18.3248 42.0727 18.2542C41.8962 18.166 41.7286 17.919 41.5698 17.5132Z" fill="white"/>
<path d="M42.3754 30.2435C42.1637 30.1024 42.1549 29.9171 42.349 29.6877C42.5607 29.4407 42.8871 29.1849 43.3282 28.9202C43.787 28.6379 44.3163 28.3468 44.9162 28.0468C45.5161 27.7469 46.0896 27.4646 46.6365 27.1999C47.2011 26.9352 47.6952 26.7058 48.1187 26.5118C48.5421 26.3 48.8156 26.1412 48.9391 26.0354C49.5214 25.5413 49.8213 25.1355 49.839 24.8179C49.8743 24.4827 49.7331 24.218 49.4155 24.0239C49.0979 23.8122 48.648 23.6534 48.0657 23.5475C47.5011 23.424 46.91 23.3181 46.2925 23.2299C45.6926 23.1241 45.1103 23.0182 44.5457 22.9123C43.9987 22.8065 43.5841 22.6653 43.3018 22.4889C43.0195 22.3124 42.9224 22.083 43.0106 21.8007C43.1165 21.5008 43.5047 21.1214 44.1752 20.6627C44.4222 20.4862 44.7839 20.2304 45.2603 19.8952C45.7367 19.5599 46.2484 19.2159 46.7953 18.863C47.3599 18.5101 47.9157 18.1925 48.4627 17.9102C49.0097 17.6279 49.4684 17.4426 49.839 17.3544C50.0331 17.3191 50.2271 17.3367 50.4212 17.4073C50.633 17.4779 50.8006 17.5838 50.9241 17.7249C51.0476 17.8484 51.1005 17.9896 51.0829 18.1484C51.0829 18.3072 50.9682 18.4483 50.7388 18.5718C49.7331 19.1365 48.7627 19.6658 47.8275 20.1598C46.91 20.6539 45.9837 21.2185 45.0485 21.8537C44.9956 21.9948 45.0044 22.1183 45.075 22.2242C45.1632 22.3301 45.2603 22.4095 45.3661 22.4624C47.2364 22.6565 48.6392 22.93 49.5743 23.2829C50.5271 23.6357 51.127 24.0239 51.374 24.4474C51.6387 24.8708 51.6122 25.3208 51.2946 25.7972C50.977 26.2736 50.5006 26.7411 49.8654 27.1999C49.2479 27.6586 48.5333 28.0909 47.7217 28.4967C46.91 28.9026 46.1248 29.2466 45.3661 29.5289C44.6251 29.8112 43.9722 30.023 43.4076 30.1641C42.843 30.3053 42.499 30.3317 42.3754 30.2435Z" fill="white"/>
<path d="M65.3716 30.2435C64.4894 29.873 63.9071 29.3613 63.6248 28.7085C63.3425 28.038 63.2454 27.3234 63.3337 26.5647C63.4219 25.7883 63.6336 25.012 63.9688 24.2357C64.3217 23.4593 64.6834 22.7712 65.054 22.1713C65.1775 21.9595 65.4069 21.5978 65.7421 21.0861C66.0773 20.5745 66.4302 20.0363 66.8008 19.4717C67.1889 18.8894 67.5506 18.3513 67.8859 17.8572C68.2388 17.3456 68.4858 16.9927 68.6269 16.7986C68.8387 15.44 69.2621 14.3637 69.8973 13.5697C70.5325 12.7581 71.2471 12.2023 72.0411 11.9023C72.8527 11.6024 73.682 11.5406 74.5289 11.717C75.3759 11.8758 76.1169 12.2552 76.7521 12.8551C77.3873 13.4374 77.8461 14.2225 78.1284 15.2106C78.4107 16.1987 78.3842 17.3544 78.049 18.6777C77.7314 20.001 77.0433 21.4831 75.9846 23.1241C74.9259 24.765 73.3732 26.5382 71.3265 28.4438C70.9736 28.779 70.5502 29.1055 70.0561 29.4231C69.5797 29.723 69.068 29.97 68.5211 30.1641C67.9917 30.3582 67.4536 30.4729 66.9066 30.5082C66.3596 30.5435 65.848 30.4553 65.3716 30.2435ZM64.4452 28.1527C64.6217 28.9467 64.9569 29.4407 65.451 29.6348C65.945 29.8289 66.5273 29.7936 67.1978 29.5289C67.8682 29.2643 68.6005 28.8143 69.3945 28.1791C70.1885 27.544 70.9824 26.8029 71.7764 25.956C72.5704 25.0914 73.3291 24.1563 74.0525 23.1505C74.776 22.1448 75.4023 21.1479 75.9317 20.1598C76.4786 19.1717 76.8933 18.2278 77.1756 17.3279C77.4579 16.4281 77.5461 15.6517 77.4402 14.9989C77.352 14.3284 77.0344 13.8255 76.4875 13.4903C75.9581 13.155 75.1377 13.058 74.0261 13.1992C73.6203 13.552 73.0821 14.0726 72.4116 14.7607C71.7411 15.4312 71.0266 16.1987 70.2679 17.0633C69.5091 17.9278 68.7504 18.863 67.9917 19.8687C67.233 20.8568 66.5626 21.8449 65.9803 22.8329C65.398 23.821 64.9569 24.7738 64.657 25.6913C64.357 26.6088 64.2864 27.4293 64.4452 28.1527Z" fill="white"/>
<path d="M78.2607 30.2435C77.749 29.873 77.4138 29.4054 77.255 28.8408C77.1138 28.2762 77.0962 27.6675 77.202 27.0146C77.3079 26.3441 77.4932 25.656 77.7578 24.9502C78.0402 24.2445 78.3401 23.5652 78.6577 22.9123C78.9929 22.2595 79.3105 21.6596 79.6105 21.1126C79.9281 20.5656 80.1751 20.1157 80.3516 19.7628C80.4045 19.657 80.528 19.4011 80.7221 18.9953C80.9338 18.5895 81.1544 18.1484 81.3837 17.672C81.6131 17.1956 81.8249 16.7545 82.0189 16.3487C82.2307 15.9252 82.363 15.6605 82.4159 15.5547C82.4689 15.4664 82.5394 15.2988 82.6277 15.0518C82.7335 14.7871 82.8482 14.5048 82.9717 14.2049C83.0952 13.9049 83.2276 13.6226 83.3687 13.358C83.5275 13.0756 83.6863 12.8727 83.8451 12.7492C84.0216 12.6257 84.1892 12.6081 84.348 12.6963C84.5244 12.7845 84.692 13.0492 84.8508 13.4903C84.7803 13.6667 84.6038 14.0196 84.3215 14.5489C84.0568 15.0783 83.7393 15.7135 83.3687 16.4545C82.9982 17.1956 82.5835 18.016 82.1248 18.9159C81.6837 19.8158 81.2514 20.7244 80.8279 21.6419C80.4045 22.5594 80.0075 23.4593 79.637 24.3415C79.2664 25.2061 78.9577 26.0001 78.7106 26.7235C78.4813 27.4293 78.3401 28.0203 78.2872 28.4967C78.2519 28.9555 78.3401 29.2378 78.5518 29.3437C78.7989 29.4672 79.1165 29.5201 79.5046 29.5025C79.9104 29.4672 80.3251 29.4142 80.7486 29.3437C81.172 29.2731 81.5867 29.2025 81.9925 29.1319C82.3983 29.0437 82.7512 29.0084 83.0511 29.0261C83.1217 29.1849 83.0688 29.3437 82.8923 29.5025C82.7159 29.6436 82.4689 29.7759 82.1513 29.8995C81.8337 30.0053 81.4631 30.1024 81.0397 30.1906C80.6339 30.2612 80.2369 30.3141 79.8487 30.3494C79.4782 30.3847 79.1429 30.3935 78.843 30.3759C78.5607 30.3582 78.3666 30.3141 78.2607 30.2435Z" fill="white"/>
<path d="M83.9626 30.2435C84.6861 27.9145 85.3389 26.0707 85.9212 24.712C86.521 23.3358 87.0151 22.3742 87.4033 21.8272C87.8091 21.2802 88.0826 21.1038 88.2237 21.2979C88.3649 21.492 88.3472 21.986 88.1708 22.78C88.012 23.574 87.6591 24.6415 87.1121 25.9824C86.5828 27.3058 85.8329 28.8232 84.8625 30.5347C84.7213 30.5876 84.5537 30.5964 84.3596 30.5611C84.1655 30.5258 84.0332 30.42 83.9626 30.2435ZM88.5943 17.5132C88.559 17.425 88.5413 17.2662 88.5413 17.0368C88.5413 16.8074 88.559 16.6663 88.5943 16.6133C89.0001 16.4722 89.3088 16.4545 89.5206 16.5604C89.7323 16.6663 89.8646 16.8251 89.9176 17.0368C89.9705 17.2309 89.9617 17.4426 89.8911 17.672C89.8382 17.9014 89.7411 18.0778 89.6 18.2013C89.4588 18.3072 89.2912 18.3248 89.0971 18.2542C88.9207 18.166 88.7531 17.919 88.5943 17.5132Z" fill="white"/>
<path d="M90.141 29.9259C89.7704 29.7142 89.5058 29.379 89.347 28.9202C89.1882 28.4615 89.0999 27.9409 89.0823 27.3587C89.0647 26.7764 89.0999 26.1677 89.1882 25.5325C89.2764 24.8973 89.3823 24.2798 89.5058 23.6799C89.6293 23.08 89.7528 22.5418 89.8763 22.0654C89.9998 21.589 90.088 21.2185 90.141 20.9538C90.2292 20.9009 90.3174 20.9009 90.4056 20.9538C90.5115 21.0067 90.6085 21.0861 90.6968 21.192C90.8026 21.2802 90.882 21.3685 90.935 21.4567C91.0055 21.5273 91.0408 21.5625 91.0408 21.5625C91.0938 22.1801 91.0938 22.7888 91.0408 23.3887C91.0055 23.971 90.9526 24.5532 90.882 25.1355C90.8291 25.7178 90.7762 26.3089 90.7232 26.9088C90.6879 27.5087 90.6879 28.1174 90.7232 28.7349C90.8644 28.9996 91.1555 29.0084 91.5966 28.7614C92.0377 28.4967 92.5759 28.0821 93.2111 27.5175C93.8463 26.9352 94.5344 26.2559 95.2754 25.4796C96.0341 24.6856 96.7752 23.9004 97.4986 23.1241C98.2397 22.3477 98.9366 21.6243 99.5895 20.9538C100.242 20.2657 100.789 19.7452 101.23 19.3923C101.689 19.0218 102.007 18.8718 102.183 18.9424C102.36 18.9953 102.333 19.3658 102.104 20.054C101.68 20.4245 101.177 20.9803 100.595 21.7213C100.013 22.4624 99.3777 23.2652 98.6896 24.1298C98.0015 24.9767 97.2869 25.8236 96.5458 26.6706C95.8048 27.5175 95.0549 28.2497 94.2962 28.8673C93.5551 29.4672 92.8317 29.8906 92.1259 30.1377C91.4202 30.367 90.7585 30.2965 90.141 29.9259Z" fill="white"/>
<path d="M103.174 30.2435C102.645 30.0671 102.239 29.8024 101.957 29.4495C101.692 29.079 101.516 28.6732 101.427 28.2321C101.339 27.791 101.321 27.3322 101.374 26.8558C101.445 26.3618 101.551 25.8942 101.692 25.4531C102.221 24.8885 102.812 24.2445 103.465 23.5211C104.136 22.78 104.841 22.0566 105.583 21.3508C106.324 20.645 107.091 19.9922 107.885 19.3923C108.697 18.7747 109.517 18.3072 110.346 17.9896C110.629 17.8661 110.849 17.8749 111.008 18.016C111.185 18.1396 111.308 18.3425 111.379 18.6248C111.449 18.9071 111.476 19.2335 111.458 19.604C111.458 19.9746 111.432 20.3363 111.379 20.6892C111.326 21.042 111.255 21.3596 111.167 21.6419C111.079 21.9243 110.99 22.1183 110.902 22.2242C110.691 22.4712 110.276 22.7624 109.658 23.0976C109.058 23.4328 108.388 23.8034 107.647 24.2092C106.906 24.5974 106.165 25.0032 105.424 25.4266C104.683 25.8501 104.074 26.2736 103.598 26.697C103.121 27.1028 102.839 27.5087 102.751 27.9145C102.662 28.3203 102.909 28.6908 103.492 29.0261C104.092 29.0966 104.815 29.0702 105.662 28.9467C106.526 28.8055 107.4 28.6291 108.282 28.4173C109.182 28.188 110.047 27.9586 110.876 27.7292C111.705 27.4822 112.384 27.2881 112.914 27.147L113.231 27.4381C112.843 27.9498 112.208 28.4173 111.326 28.8408C110.444 29.2643 109.491 29.6172 108.467 29.8995C107.444 30.1641 106.447 30.3406 105.477 30.4288C104.506 30.4994 103.739 30.4376 103.174 30.2435ZM109.5 20.1334C109.482 20.1157 109.35 20.1951 109.103 20.3716C108.856 20.5304 108.547 20.7509 108.176 21.0332C107.823 21.2979 107.435 21.5978 107.012 21.9331C106.606 22.2507 106.227 22.5506 105.874 22.8329C105.538 23.1152 105.256 23.3623 105.027 23.574C104.797 23.7681 104.7 23.8651 104.736 23.8651C105.018 23.9181 105.38 23.8828 105.821 23.7593C106.279 23.6181 106.747 23.424 107.223 23.177C107.717 22.93 108.185 22.6565 108.626 22.3565C109.067 22.0389 109.411 21.7302 109.658 21.4302C109.923 21.1303 110.055 20.8656 110.055 20.6362C110.073 20.4068 109.888 20.2392 109.5 20.1334Z" fill="white"/>
<path d="M112.728 30.2435C113.452 27.9145 114.105 26.0707 114.687 24.712C115.287 23.3358 115.781 22.3742 116.169 21.8272C116.575 21.2802 116.848 21.1038 116.99 21.2979C117.131 21.492 117.113 21.986 116.937 22.78C116.778 23.574 116.425 24.6415 115.878 25.9824C115.349 27.3058 114.599 28.8232 113.628 30.5347C113.487 30.5876 113.32 30.5964 113.125 30.5611C112.931 30.5258 112.799 30.42 112.728 30.2435ZM117.36 17.5132C117.325 17.425 117.307 17.2662 117.307 17.0368C117.307 16.8074 117.325 16.6663 117.36 16.6133C117.766 16.4722 118.075 16.4545 118.286 16.5604C118.498 16.6663 118.63 16.8251 118.683 17.0368C118.736 17.2309 118.727 17.4426 118.657 17.672C118.604 17.9014 118.507 18.0778 118.366 18.2013C118.225 18.3072 118.057 18.3248 117.863 18.2542C117.686 18.166 117.519 17.919 117.36 17.5132Z" fill="white"/>
<path d="M118.166 30.2435C118.13 30.2259 118.13 30.023 118.166 29.6348C118.219 29.229 118.289 28.7261 118.377 28.1262C118.466 27.5263 118.58 26.8646 118.721 26.1412C118.863 25.4178 119.013 24.7297 119.171 24.0769C119.33 23.4064 119.498 22.8241 119.674 22.3301C119.868 21.8184 120.054 21.4655 120.23 21.2714C120.354 21.1479 120.477 21.1479 120.601 21.2714C120.724 21.3773 120.848 21.5184 120.971 21.6949C121.095 21.8537 121.218 22.0036 121.342 22.1448C121.465 22.2683 121.598 22.2771 121.739 22.1713C122.233 21.4831 122.771 20.8303 123.353 20.2128C123.953 19.5776 124.615 19.0306 125.338 18.5718C125.409 18.5189 125.603 18.4395 125.92 18.3336C126.238 18.2101 126.6 18.0954 127.005 17.9896C127.411 17.8661 127.826 17.769 128.249 17.6984C128.691 17.6102 129.061 17.5749 129.361 17.5926C129.679 17.5926 129.89 17.672 129.996 17.8308C130.12 17.9719 130.067 18.219 129.837 18.5718C128.779 18.5895 127.791 18.8983 126.873 19.4982C125.956 20.0981 125.109 20.8391 124.332 21.7213C123.556 22.6036 122.85 23.5652 122.215 24.6062C121.58 25.6295 121.024 26.5823 120.548 27.4646C120.089 28.3468 119.701 29.079 119.383 29.6613C119.083 30.2435 118.863 30.5347 118.721 30.5347C118.704 30.5347 118.624 30.4994 118.483 30.4288C118.342 30.3406 118.236 30.2788 118.166 30.2435Z" fill="white"/>
<path d="M127.433 29.9259C127.01 29.573 126.772 29.0525 126.719 28.3644C126.683 27.6763 126.78 26.8999 127.01 26.0354C127.257 25.1708 127.61 24.2709 128.068 23.3358C128.545 22.383 129.092 21.4831 129.709 20.6362C130.327 19.7716 130.997 19.0041 131.721 18.3336C132.444 17.6455 133.168 17.1427 133.891 16.8251C134.614 16.4898 135.32 16.3751 136.008 16.481C136.696 16.5692 137.323 16.9662 137.887 17.672C138.24 18.1131 138.452 18.563 138.523 19.0218C138.593 19.4629 138.584 19.9216 138.496 20.398C138.408 20.8568 138.267 21.3332 138.073 21.8272C137.879 22.3036 137.685 22.7888 137.49 23.2829C137.314 23.7769 137.164 24.2798 137.04 24.7914C136.935 25.3031 136.917 25.8236 136.988 26.353C137.076 27.0234 137.376 27.4204 137.887 27.544C138.399 27.6675 139.008 27.6322 139.714 27.4381C140.437 27.244 141.196 26.9352 141.99 26.5118C142.784 26.0883 143.516 25.6648 144.186 25.2414C144.875 24.8179 145.439 24.4474 145.88 24.1298C146.339 23.8122 146.568 23.6534 146.568 23.6534C147.062 23.5475 147.336 23.5828 147.389 23.7593C147.459 23.9181 147.362 24.1651 147.098 24.5003C146.851 24.8179 146.471 25.1884 145.96 25.6119C145.448 26.0177 144.866 26.4147 144.213 26.8029C143.56 27.1911 142.863 27.544 142.122 27.8615C141.381 28.1791 140.658 28.3997 139.952 28.5232C139.246 28.6291 138.576 28.6203 137.94 28.4967C137.323 28.3556 136.811 28.038 136.405 27.544C136.211 27.3322 136.061 27.1205 135.955 26.9088C135.867 26.697 135.717 26.5118 135.505 26.353C135.241 26.6 134.923 26.9264 134.553 27.3322C134.182 27.7204 133.776 28.1174 133.335 28.5232C132.912 28.9114 132.453 29.2819 131.959 29.6348C131.483 29.9877 130.989 30.2523 130.477 30.4288C129.965 30.6052 129.445 30.667 128.915 30.6141C128.404 30.5611 127.91 30.3317 127.433 29.9259ZM127.724 29.0261C127.883 29.5907 128.236 29.8553 128.783 29.8201C129.33 29.7671 129.965 29.4936 130.689 28.9996C131.412 28.5056 132.162 27.8351 132.938 26.9882C133.715 26.1236 134.411 25.1708 135.029 24.1298C135.647 23.0711 136.114 21.9595 136.432 20.795C136.767 19.6305 136.855 18.4836 136.696 17.3544C136.273 17.0191 135.744 17.0103 135.108 17.3279C134.473 17.6279 133.794 18.1307 133.071 18.8365C132.365 19.5246 131.659 20.3539 130.953 21.3243C130.265 22.2771 129.656 23.2476 129.127 24.2357C128.598 25.2061 128.192 26.1236 127.91 26.9882C127.645 27.8527 127.583 28.532 127.724 29.0261Z" fill="white"/>
<path d="M25.8559 44.5494H23.6697V43.1002H29.8307V44.5494H27.6446V49.0129H25.8559V44.5494Z" fill="white"/>
<path d="M34.8041 46.5617C34.8041 46.9592 34.9035 47.2518 35.1022 47.4395C35.3065 47.6272 35.6267 47.721 36.0628 47.721C36.5045 47.721 36.8247 47.6272 37.0234 47.4395C37.2277 47.2518 37.3298 46.9592 37.3298 46.5617V43.1002H39.1185V46.4209C39.1185 47.3925 38.8563 48.0937 38.3318 48.5243C37.8074 48.9494 37.051 49.1619 36.0628 49.1619C35.0802 49.1619 34.3266 48.9494 33.8021 48.5243C33.2777 48.0937 33.0154 47.3925 33.0154 46.4209V43.1002H34.8041V46.5617Z" fill="white"/>
<path d="M42.8766 43.1002H45.6755C46.868 43.1002 47.7679 43.3514 48.3751 43.8538C48.9824 44.3507 49.286 45.0849 49.286 46.0565C49.286 46.9951 48.9686 47.7238 48.3337 48.2427C47.6989 48.7562 46.7879 49.0129 45.601 49.0129H42.8766V43.1002ZM45.6424 47.5968C46.8625 47.5968 47.4725 47.0806 47.4725 46.0483C47.4725 45.0269 46.8846 44.5163 45.7087 44.5163H44.6404V47.5968H45.6424Z" fill="white"/>
<path d="M56.1119 49.1619C55.3831 49.1619 54.7565 49.0377 54.2321 48.7893C53.7076 48.5408 53.3018 48.1848 53.0148 47.721C52.7332 47.2573 52.5924 46.7025 52.5924 46.0565C52.5924 45.4106 52.736 44.8558 53.023 44.3921C53.3101 43.9283 53.7186 43.5722 54.2486 43.3238C54.7786 43.0754 55.4107 42.9512 56.145 42.9512C56.8737 42.9512 57.5003 43.0754 58.0248 43.3238C58.5492 43.5722 58.9522 43.9283 59.2338 44.3921C59.5209 44.8558 59.6644 45.4106 59.6644 46.0565C59.6644 46.7025 59.5209 47.2573 59.2338 47.721C58.9467 48.1848 58.5382 48.5408 58.0082 48.7893C57.4782 49.0377 56.8461 49.1619 56.1119 49.1619ZM57.8095 46.0565C57.8095 45.5266 57.6604 45.118 57.3623 44.831C57.0697 44.5384 56.6584 44.3921 56.1284 44.3921C55.5984 44.3921 55.1844 44.5384 54.8863 44.831C54.5937 45.1236 54.4474 45.5321 54.4474 46.0565C54.4474 46.5865 54.5937 46.9978 54.8863 47.2904C55.1844 47.5775 55.5984 47.721 56.1284 47.721C56.6584 47.721 57.0697 47.5747 57.3623 47.2821C57.6604 46.9895 57.8095 46.581 57.8095 46.0565Z" fill="white"/>
<path d="M67.9589 43.1002H70.7579C71.9504 43.1002 72.8502 43.3514 73.4575 43.8538C74.0648 44.3507 74.3684 45.0849 74.3684 46.0565C74.3684 46.9951 74.051 47.7238 73.4161 48.2427C72.7812 48.7562 71.8703 49.0129 70.6834 49.0129H67.9589V43.1002ZM70.7248 47.5968C71.9448 47.5968 72.5549 47.0806 72.5549 46.0483C72.5549 45.0269 71.9669 44.5163 70.791 44.5163H69.7228V47.5968H70.7248Z" fill="white"/>
<path d="M77.9398 43.1002H83.1154V44.4003H79.6871V45.3609H82.9498V46.6611H79.6871V47.7127H83.3142L83.1485 49.0129H77.9398V43.1002Z" fill="white"/>
<path d="M93.16 44.5494H90.9738V43.1002H97.1349V44.5494H94.9487V49.0129H93.16V44.5494Z" fill="white"/>
<path d="M100.386 43.1002H105.561V44.4003H102.133V45.3609H105.396V46.6611H102.133V47.7127H105.76L105.595 49.0129H100.386V43.1002Z" fill="white"/>
<path d="M115.768 49.0129H113.673L112.165 47.0337L110.658 49.0129H108.671L111.072 45.9406L108.853 43.1002H110.948L112.19 44.8227L113.499 43.1002H115.486L113.292 45.8826L115.768 49.0129Z" fill="white"/>
<path d="M120.62 44.5494H118.434V43.1002H124.595V44.5494H122.409V49.0129H120.62V44.5494Z" fill="white"/>
<path d="M130.833 49.1619C130.105 49.1619 129.478 49.0377 128.954 48.7893C128.429 48.5408 128.023 48.1848 127.736 47.721C127.455 47.2573 127.314 46.7025 127.314 46.0565C127.314 45.4106 127.457 44.8558 127.745 44.3921C128.032 43.9283 128.44 43.5722 128.97 43.3238C129.5 43.0754 130.132 42.9512 130.866 42.9512C131.595 42.9512 132.222 43.0754 132.746 43.3238C133.271 43.5722 133.674 43.9283 133.955 44.3921C134.242 44.8558 134.386 45.4106 134.386 46.0565C134.386 46.7025 134.242 47.2573 133.955 47.721C133.668 48.1848 133.26 48.5408 132.73 48.7893C132.2 49.0377 131.568 49.1619 130.833 49.1619ZM132.531 46.0565C132.531 45.5266 132.382 45.118 132.084 44.831C131.791 44.5384 131.38 44.3921 130.85 44.3921C130.32 44.3921 129.906 44.5384 129.608 44.831C129.315 45.1236 129.169 45.5321 129.169 46.0565C129.169 46.5865 129.315 46.9978 129.608 47.2904C129.906 47.5775 130.32 47.721 130.85 47.721C131.38 47.721 131.791 47.5747 132.084 47.2821C132.382 46.9895 132.531 46.581 132.531 46.0565Z" fill="white"/>
<path d="M23.8101 58.8102H24.8547C24.9171 59.1322 25.1865 59.2931 25.6628 59.2931C26.149 59.2931 26.3921 59.1765 26.3921 58.9433C26.3921 58.8612 26.356 58.7955 26.2837 58.7462C26.2114 58.6936 26.0932 58.6559 25.9289 58.6329L25.2982 58.5392C24.812 58.4637 24.4572 58.3372 24.2338 58.1598C24.0137 57.9824 23.9037 57.7393 23.9037 57.4305C23.9037 57.0889 24.0581 56.8228 24.3669 56.6323C24.679 56.4417 25.1077 56.3465 25.653 56.3465C26.6615 56.3465 27.2265 56.6996 27.348 57.4059L26.3379 57.5044C26.2853 57.3599 26.2032 57.2564 26.0915 57.194C25.9798 57.1283 25.8221 57.0955 25.6185 57.0955C25.4017 57.0955 25.2341 57.1217 25.1159 57.1743C25.0009 57.2269 24.9434 57.3024 24.9434 57.401C24.9434 57.4831 24.9746 57.5455 25.037 57.5882C25.0994 57.6309 25.2144 57.6654 25.382 57.6917L26.1507 57.8149C26.6073 57.8872 26.9374 58.0103 27.1411 58.1844C27.3448 58.3553 27.4466 58.5967 27.4466 58.9088C27.4466 59.2833 27.2955 59.5658 26.9933 59.7563C26.691 59.9469 26.2459 60.0421 25.6579 60.0421C24.5016 60.0421 23.8856 59.6315 23.8101 58.8102Z" fill="white"/>
<path d="M31.4272 60.0421C30.9936 60.0421 30.6207 59.9682 30.3087 59.8204C29.9966 59.6726 29.7551 59.4607 29.5843 59.1847C29.4168 58.9088 29.333 58.5787 29.333 58.1943C29.333 57.81 29.4184 57.4798 29.5892 57.2039C29.7601 56.9279 30.0032 56.716 30.3185 56.5682C30.6339 56.4204 31.01 56.3465 31.4469 56.3465C31.8806 56.3465 32.2534 56.4204 32.5655 56.5682C32.8776 56.716 33.1174 56.9279 33.2849 57.2039C33.4557 57.4798 33.5412 57.81 33.5412 58.1943C33.5412 58.5787 33.4557 58.9088 33.2849 59.1847C33.1141 59.4607 32.871 59.6726 32.5556 59.8204C32.2403 59.9682 31.8641 60.0421 31.4272 60.0421ZM32.4374 58.1943C32.4374 57.8789 32.3487 57.6358 32.1713 57.465C31.9972 57.2909 31.7524 57.2039 31.4371 57.2039C31.1217 57.2039 30.8753 57.2909 30.6979 57.465C30.5238 57.6391 30.4368 57.8822 30.4368 58.1943C30.4368 58.5097 30.5238 58.7544 30.6979 58.9285C30.8753 59.0993 31.1217 59.1847 31.4371 59.1847C31.7524 59.1847 31.9972 59.0977 32.1713 58.9236C32.3487 58.7495 32.4374 58.5064 32.4374 58.1943Z" fill="white"/>
<path d="M35.6607 56.4352H36.7251V59.0911H38.7257L38.6173 59.9534H35.6607V56.4352Z" fill="white"/>
<path d="M41.6768 58.4949C41.6768 58.7314 41.7359 58.9055 41.8541 59.0172C41.9757 59.1289 42.1662 59.1847 42.4257 59.1847C42.6885 59.1847 42.8791 59.1289 42.9973 59.0172C43.1189 58.9055 43.1797 58.7314 43.1797 58.4949V56.4352H44.244V58.4111C44.244 58.9893 44.088 59.4065 43.7759 59.6627C43.4638 59.9157 43.0138 60.0421 42.4257 60.0421C41.841 60.0421 41.3926 59.9157 41.0805 59.6627C40.7684 59.4065 40.6124 58.9893 40.6124 58.4111V56.4352H41.6768V58.4949Z" fill="white"/>
<path d="M50.1956 57.5981L49.146 57.7114C49.0836 57.5307 48.99 57.401 48.8651 57.3221C48.7403 57.2433 48.5711 57.2039 48.3576 57.2039C48.0652 57.2039 47.8369 57.2893 47.6727 57.4601C47.5084 57.6276 47.4263 57.8724 47.4263 58.1943C47.4263 58.5162 47.5084 58.7626 47.6727 58.9334C47.8402 59.101 48.0751 59.1847 48.3773 59.1847C48.8438 59.1847 49.1181 59.0041 49.2002 58.6427H50.2646C50.2219 59.0862 50.0313 59.4311 49.693 59.6775C49.3579 59.9206 48.9111 60.0421 48.3527 60.0421C47.9059 60.0421 47.5314 59.9633 47.2292 59.8056C46.9303 59.6479 46.7036 59.4311 46.5492 59.1552C46.3981 58.8759 46.3225 58.5557 46.3225 58.1943C46.3225 57.8428 46.3981 57.5274 46.5492 57.2482C46.7036 56.969 46.9319 56.7489 47.2341 56.5879C47.5363 56.427 47.9125 56.3465 48.3625 56.3465C49.3776 56.3465 49.9886 56.7637 50.1956 57.5981ZM48.0964 59.845L48.5646 59.9534L48.4709 60.1703C48.6779 60.1933 48.8306 60.2425 48.9292 60.3181C49.0278 60.3969 49.077 60.4988 49.077 60.6236C49.077 60.7681 49.0048 60.8815 48.8602 60.9636C48.7157 61.0457 48.512 61.0868 48.2492 61.0868C48.0094 61.0868 47.8205 61.0638 47.6825 61.0178V60.6187C47.7647 60.6318 47.8369 60.6417 47.8993 60.6482C47.965 60.6581 48.0275 60.663 48.0866 60.663C48.1917 60.663 48.2673 60.6532 48.3133 60.6334C48.3625 60.617 48.3872 60.5907 48.3872 60.5546C48.3872 60.5086 48.3576 60.4774 48.2985 60.461C48.2426 60.4446 48.1457 60.4363 48.0077 60.4363H47.8353L48.0964 59.845Z" fill="white"/>
<path d="M54.2259 60.0421C53.7922 60.0421 53.4194 59.9682 53.1073 59.8204C52.7952 59.6726 52.5538 59.4607 52.383 59.1847C52.2154 58.9088 52.1317 58.5787 52.1317 58.1943C52.1317 57.81 52.2171 57.4798 52.3879 57.2039C52.5587 56.9279 52.8018 56.716 53.1172 56.5682C53.4325 56.4204 53.8087 56.3465 54.2456 56.3465C54.6792 56.3465 55.0521 56.4204 55.3641 56.5682C55.6762 56.716 55.916 56.9279 56.0836 57.2039C56.2544 57.4798 56.3398 57.81 56.3398 58.1943C56.3398 58.5787 56.2544 58.9088 56.0836 59.1847C55.9127 59.4607 55.6696 59.6726 55.3543 59.8204C55.0389 59.9682 54.6628 60.0421 54.2259 60.0421ZM55.236 58.1943C55.236 57.8789 55.1473 57.6358 54.9699 57.465C54.7958 57.2909 54.5511 57.2039 54.2357 57.2039C53.9204 57.2039 53.674 57.2909 53.4966 57.465C53.3225 57.6391 53.2354 57.8822 53.2354 58.1943C53.2354 58.5097 53.3225 58.7544 53.4966 58.9285C53.674 59.0993 53.9204 59.1847 54.2357 59.1847C54.5511 59.1847 54.7958 59.0977 54.9699 58.9236C55.1473 58.7495 55.236 58.5064 55.236 58.1943ZM53.1221 56.1444C53.1221 55.8521 53.1763 55.6418 53.2847 55.5137C53.3931 55.3856 53.5557 55.3215 53.7725 55.3215C53.9302 55.3215 54.1175 55.3757 54.3343 55.4841C54.4197 55.5268 54.4854 55.5564 54.5314 55.5728C54.5774 55.5893 54.6184 55.5975 54.6546 55.5975C54.717 55.5975 54.758 55.5778 54.7778 55.5383C54.7975 55.4956 54.8073 55.4283 54.8073 55.3363H55.3937C55.3937 55.6188 55.3395 55.8274 55.2311 55.9621C55.1227 56.0935 54.9601 56.1592 54.7433 56.1592C54.5889 56.1592 54.4065 56.1067 54.1963 56.0015C54.0353 55.9227 53.9236 55.8833 53.8612 55.8833C53.8021 55.8833 53.761 55.9063 53.738 55.9523C53.7183 55.995 53.7085 56.059 53.7085 56.1444H53.1221Z" fill="white"/>
<path d="M58.4594 56.4352H61.5391V57.2088H59.4991V57.7804H61.4406V58.554H59.4991V59.1798H61.6574L61.5588 59.9534H58.4594V56.4352Z" fill="white"/>
<path d="M63.4731 58.8102H64.5177C64.5802 59.1322 64.8495 59.2931 65.3259 59.2931C65.812 59.2931 66.0551 59.1765 66.0551 58.9433C66.0551 58.8612 66.019 58.7955 65.9467 58.7462C65.8745 58.6936 65.7562 58.6559 65.5919 58.6329L64.9612 58.5392C64.475 58.4637 64.1203 58.3372 63.8969 58.1598C63.6768 57.9824 63.5667 57.7393 63.5667 57.4305C63.5667 57.0889 63.7211 56.8228 64.0299 56.6323C64.342 56.4417 64.7707 56.3465 65.316 56.3465C66.3245 56.3465 66.8895 56.6996 67.0111 57.4059L66.0009 57.5044C65.9484 57.3599 65.8662 57.2564 65.7546 57.194C65.6429 57.1283 65.4852 57.0955 65.2815 57.0955C65.0647 57.0955 64.8972 57.1217 64.7789 57.1743C64.6639 57.2269 64.6064 57.3024 64.6064 57.401C64.6064 57.4831 64.6376 57.5455 64.7001 57.5882C64.7625 57.6309 64.8774 57.6654 65.045 57.6917L65.8137 57.8149C66.2703 57.8872 66.6005 58.0103 66.8041 58.1844C67.0078 58.3553 67.1096 58.5967 67.1096 58.9088C67.1096 59.2833 66.9585 59.5658 66.6563 59.7563C66.3541 59.9469 65.909 60.0421 65.3209 60.0421C64.1646 60.0421 63.5487 59.6315 63.4731 58.8102Z" fill="white"/>
<path d="M71.9698 56.4352H75.0495V57.2088H73.0095V57.7804H74.9509V58.554H73.0095V59.1798H75.1677L75.0692 59.9534H71.9698V56.4352Z" fill="white"/>
<path d="M77.2496 56.4352H78.9151C79.6246 56.4352 80.1601 56.5846 80.5215 56.8836C80.8828 57.1792 81.0635 57.6161 81.0635 58.1943C81.0635 58.7528 80.8746 59.1864 80.4968 59.4952C80.119 59.8007 79.577 59.9534 78.8707 59.9534H77.2496V56.4352ZM78.8954 59.1108C79.6214 59.1108 79.9844 58.8037 79.9844 58.1894C79.9844 57.5816 79.6345 57.2778 78.9348 57.2778H78.2991V59.1108H78.8954Z" fill="white"/>
<path d="M84.2136 58.4949C84.2136 58.7314 84.2727 58.9055 84.3909 59.0172C84.5125 59.1289 84.703 59.1847 84.9625 59.1847C85.2253 59.1847 85.4159 59.1289 85.5341 59.0172C85.6557 58.9055 85.7165 58.7314 85.7165 58.4949V56.4352H86.7808V58.4111C86.7808 58.9893 86.6248 59.4065 86.3127 59.6627C86.0006 59.9157 85.5506 60.0421 84.9625 60.0421C84.3778 60.0421 83.9294 59.9157 83.6173 59.6627C83.3052 59.4065 83.1492 58.9893 83.1492 58.4111V56.4352H84.2136V58.4949Z" fill="white"/>
<path d="M92.7324 57.5981L91.6828 57.7114C91.6204 57.5307 91.5268 57.401 91.4019 57.3221C91.2771 57.2433 91.1079 57.2039 90.8944 57.2039C90.602 57.2039 90.3737 57.2893 90.2095 57.4601C90.0452 57.6276 89.9631 57.8724 89.9631 58.1943C89.9631 58.5162 90.0452 58.7626 90.2095 58.9334C90.377 59.101 90.6119 59.1847 90.9141 59.1847C91.3806 59.1847 91.6549 59.0041 91.737 58.6427H92.8014C92.7587 59.0862 92.5681 59.4311 92.2298 59.6775C91.8947 59.9206 91.4479 60.0421 90.8895 60.0421C90.4427 60.0421 90.0682 59.9633 89.766 59.8056C89.4671 59.6479 89.2404 59.4311 89.086 59.1552C88.9349 58.8759 88.8593 58.5557 88.8593 58.1943C88.8593 57.8428 88.9349 57.5274 89.086 57.2482C89.2404 56.969 89.4687 56.7489 89.7709 56.5879C90.0732 56.427 90.4493 56.3465 90.8993 56.3465C91.9144 56.3465 92.5254 56.7637 92.7324 57.5981Z" fill="white"/>
<path d="M95.8787 56.4352H97.1205L98.648 59.9534H97.5442L97.2831 59.3129H95.6767L95.4303 59.9534H94.3512L95.8787 56.4352ZM96.9874 58.5244L96.4848 57.2384L95.9822 58.5244H96.9874Z" fill="white"/>
<path d="M104.072 57.5981L103.022 57.7114C102.96 57.5307 102.866 57.401 102.741 57.3221C102.616 57.2433 102.447 57.2039 102.234 57.2039C101.941 57.2039 101.713 57.2893 101.549 57.4601C101.384 57.6276 101.302 57.8724 101.302 58.1943C101.302 58.5162 101.384 58.7626 101.549 58.9334C101.716 59.101 101.951 59.1847 102.253 59.1847C102.72 59.1847 102.994 59.0041 103.076 58.6427H104.141C104.098 59.0862 103.907 59.4311 103.569 59.6775C103.234 59.9206 102.787 60.0421 102.229 60.0421C101.782 60.0421 101.407 59.9633 101.105 59.8056C100.806 59.6479 100.58 59.4311 100.425 59.1552C100.274 58.8759 100.198 58.5557 100.198 58.1943C100.198 57.8428 100.274 57.5274 100.425 57.2482C100.58 56.969 100.808 56.7489 101.11 56.5879C101.412 56.427 101.788 56.3465 102.239 56.3465C103.254 56.3465 103.865 56.7637 104.072 57.5981Z" fill="white"/>
<path d="M106.165 56.4352H107.23V59.9534H106.165V56.4352Z" fill="white"/>
<path d="M111.442 60.0421C111.009 60.0421 110.636 59.9682 110.324 59.8204C110.012 59.6726 109.77 59.4607 109.599 59.1847C109.432 58.9088 109.348 58.5787 109.348 58.1943C109.348 57.81 109.434 57.4798 109.604 57.2039C109.775 56.9279 110.018 56.716 110.334 56.5682C110.649 56.4204 111.025 56.3465 111.462 56.3465C111.896 56.3465 112.269 56.4204 112.581 56.5682C112.893 56.716 113.133 56.9279 113.3 57.2039C113.471 57.4798 113.556 57.81 113.556 58.1943C113.556 58.5787 113.471 58.9088 113.3 59.1847C113.129 59.4607 112.886 59.6726 112.571 59.8204C112.255 59.9682 111.879 60.0421 111.442 60.0421ZM112.453 58.1943C112.453 57.8789 112.364 57.6358 112.186 57.465C112.012 57.2909 111.768 57.2039 111.452 57.2039C111.137 57.2039 110.89 57.2909 110.713 57.465C110.539 57.6391 110.452 57.8822 110.452 58.1943C110.452 58.5097 110.539 58.7544 110.713 58.9285C110.89 59.0993 111.137 59.1847 111.452 59.1847C111.768 59.1847 112.012 59.0977 112.186 58.9236C112.364 58.7495 112.453 58.5064 112.453 58.1943Z" fill="white"/>
<path d="M115.676 56.4352H116.622L118.381 58.5491V56.4352H119.386V59.9534H118.44L116.681 57.8395V59.9534H115.676V56.4352Z" fill="white"/>
<path d="M122.841 56.4352H124.083L125.61 59.9534H124.506L124.245 59.3129H122.639L122.392 59.9534H121.313L122.841 56.4352ZM123.949 58.5244L123.447 57.2384L122.944 58.5244H123.949Z" fill="white"/>
<path d="M127.535 56.4352H128.599V59.9534H127.535V56.4352Z" fill="white"/>
<path d="M130.609 58.8102H131.654C131.716 59.1322 131.986 59.2931 132.462 59.2931C132.948 59.2931 133.191 59.1765 133.191 58.9433C133.191 58.8612 133.155 58.7955 133.083 58.7462C133.011 58.6936 132.892 58.6559 132.728 58.6329L132.097 58.5392C131.611 58.4637 131.256 58.3372 131.033 58.1598C130.813 57.9824 130.703 57.7393 130.703 57.4305C130.703 57.0889 130.857 56.8228 131.166 56.6323C131.478 56.4417 131.907 56.3465 132.452 56.3465C133.461 56.3465 134.026 56.6996 134.147 57.4059L133.137 57.5044C133.085 57.3599 133.002 57.2564 132.891 57.194C132.779 57.1283 132.621 57.0955 132.418 57.0955C132.201 57.0955 132.033 57.1217 131.915 57.1743C131.8 57.2269 131.743 57.3024 131.743 57.401C131.743 57.4831 131.774 57.5455 131.836 57.5882C131.899 57.6309 132.014 57.6654 132.181 57.6917L132.95 57.8149C133.406 57.8872 133.737 58.0103 133.94 58.1844C134.144 58.3553 134.246 58.5967 134.246 58.9088C134.246 59.2833 134.095 59.5658 133.792 59.7563C133.49 59.9469 133.045 60.0421 132.457 60.0421C131.301 60.0421 130.685 59.6315 130.609 58.8102Z" fill="white"/>
<path d="M41.2553 62.5946H44.335V63.3682H42.295V63.9398H44.2364V64.7135H42.295V65.3393H44.4532L44.3547 66.1129H41.2553V62.5946Z" fill="white"/>
<path d="M49.3511 62.5946H51.1004C52.1549 62.5946 52.6821 63.0003 52.6821 63.8117C52.6821 64.2289 52.5458 64.5377 52.2731 64.7381C52.0038 64.9352 51.5931 65.0338 51.0412 65.0338H50.3809V66.1129H49.3511V62.5946ZM51.0215 64.2454C51.2351 64.2454 51.3927 64.2125 51.4946 64.1468C51.5964 64.0811 51.6473 63.9678 51.6473 63.8068C51.6473 63.6557 51.5981 63.5473 51.4995 63.4816C51.401 63.4159 51.2449 63.383 51.0314 63.383H50.3809V64.2454H51.0215Z" fill="white"/>
<path d="M55.4573 62.5946H56.699L58.2266 66.1129H57.1228L56.8617 65.4723H55.2553L55.0089 66.1129H53.9298L55.4573 62.5946ZM56.566 64.6839L56.0634 63.3978L55.5608 64.6839H56.566Z" fill="white"/>
<path d="M60.1513 62.5946H61.9597C63.0142 62.5946 63.5415 62.9839 63.5415 63.7625C63.5415 64.0121 63.4889 64.2158 63.3838 64.3735C63.2787 64.5279 63.1243 64.6511 62.9206 64.743L63.7829 66.1129H62.6446L61.9499 64.9451H61.1467V66.1129H60.1513V62.5946ZM61.8957 64.1862C62.1125 64.1862 62.2702 64.155 62.3687 64.0926C62.4705 64.0269 62.5215 63.9185 62.5215 63.7674C62.5215 63.6163 62.4738 63.5095 62.3786 63.4471C62.2833 63.3847 62.1256 63.3535 61.9055 63.3535H61.1467V64.1862H61.8957Z" fill="white"/>
<path d="M66.9264 62.5946H68.1681L69.6957 66.1129H68.5919L68.3307 65.4723H66.7244L66.478 66.1129H65.3988L66.9264 62.5946ZM68.0351 64.6839L67.5325 63.3978L67.0299 64.6839H68.0351Z" fill="white"/>
<path d="M75.6141 62.5946H76.8559L78.3834 66.1129H77.2796L77.0185 65.4723H75.4121L75.1657 66.1129H74.0866L75.6141 62.5946ZM76.7228 64.6839L76.2202 63.3978L75.7176 64.6839H76.7228Z" fill="white"/>
<path d="M83.1241 62.5946H86.2039V63.3682H84.1639V63.9398H86.1053V64.7135H84.1639V65.3393H86.3221L86.2236 66.1129H83.1241V62.5946Z" fill="white"/>
<path d="M88.1379 64.9697H89.1825C89.2449 65.2916 89.5143 65.4526 89.9906 65.4526C90.4768 65.4526 90.7199 65.336 90.7199 65.1027C90.7199 65.0206 90.6838 64.9549 90.6115 64.9056C90.5392 64.8531 90.421 64.8153 90.2567 64.7923L89.626 64.6987C89.1398 64.6231 88.785 64.4967 88.5616 64.3193C88.3415 64.1419 88.2315 63.8988 88.2315 63.59C88.2315 63.2483 88.3859 62.9823 88.6947 62.7917C89.0068 62.6012 89.4355 62.5059 89.9808 62.5059C90.9893 62.5059 91.5543 62.8591 91.6758 63.5653L90.6657 63.6639C90.6131 63.5194 90.531 63.4159 90.4193 63.3535C90.3076 63.2878 90.1499 63.2549 89.9463 63.2549C89.7295 63.2549 89.5619 63.2812 89.4437 63.3338C89.3287 63.3863 89.2712 63.4619 89.2712 63.5604C89.2712 63.6425 89.3024 63.705 89.3648 63.7477C89.4272 63.7904 89.5422 63.8249 89.7098 63.8511L90.4785 63.9743C90.9351 64.0466 91.2652 64.1698 91.4689 64.3439C91.6726 64.5147 91.7744 64.7562 91.7744 65.0683C91.7744 65.4427 91.6233 65.7253 91.3211 65.9158C91.0188 66.1063 90.5737 66.2016 89.9857 66.2016C88.8294 66.2016 88.2134 65.791 88.1379 64.9697Z" fill="white"/>
<path d="M97.5339 63.7575L96.4843 63.8709C96.4219 63.6902 96.3283 63.5604 96.2034 63.4816C96.0786 63.4027 95.9094 63.3633 95.6959 63.3633C95.4035 63.3633 95.1752 63.4487 95.011 63.6196C94.8467 63.7871 94.7646 64.0318 94.7646 64.3538C94.7646 64.6757 94.8467 64.9221 95.011 65.0929C95.1785 65.2604 95.4134 65.3442 95.7156 65.3442C96.1821 65.3442 96.4564 65.1635 96.5385 64.8022H97.6029C97.5602 65.2456 97.3696 65.5906 97.0313 65.837C96.6962 66.08 96.2494 66.2016 95.691 66.2016C95.2442 66.2016 94.8697 66.1228 94.5675 65.9651C94.2685 65.8074 94.0419 65.5906 93.8875 65.3146C93.7364 65.0354 93.6608 64.7151 93.6608 64.3538C93.6608 64.0023 93.7364 63.6869 93.8875 63.4077C94.0419 63.1284 94.2702 62.9083 94.5724 62.7474C94.8746 62.5864 95.2508 62.5059 95.7008 62.5059C96.7159 62.5059 97.3269 62.9231 97.5339 63.7575Z" fill="white"/>
<path d="M99.6276 62.5946H101.436C102.491 62.5946 103.018 62.9839 103.018 63.7625C103.018 64.0121 102.965 64.2158 102.86 64.3735C102.755 64.5279 102.601 64.6511 102.397 64.743L103.259 66.1129H102.121L101.426 64.9451H100.623V66.1129H99.6276V62.5946ZM101.372 64.1862C101.589 64.1862 101.746 64.155 101.845 64.0926C101.947 64.0269 101.998 63.9185 101.998 63.7674C101.998 63.6163 101.95 63.5095 101.855 63.4471C101.76 63.3847 101.602 63.3535 101.382 63.3535H100.623V64.1862H101.372Z" fill="white"/>
<path d="M105.182 62.5946H106.246V66.1129H105.182V62.5946Z" fill="white"/>
<path d="M109.483 63.4569H108.182V62.5946H111.848V63.4569H110.548V66.1129H109.483V63.4569Z" fill="white"/>
<path d="M114.417 62.5946H115.659L117.186 66.1129H116.082L115.821 65.4723H114.215L113.968 66.1129H112.889L114.417 62.5946ZM115.525 64.6839L115.023 63.3978L114.52 64.6839H115.525Z" fill="white"/>
</svg>
