<svg width="158" height="62" viewBox="0 0 158 62" fill="none" xmlns="http://www.w3.org/2000/svg">
<path d="M13.3668 30.5765C12.2902 30.1529 11.5489 29.5793 11.143 28.8557C10.737 28.132 10.5694 27.329 10.64 26.4465C10.7282 25.5464 11.0106 24.5933 11.4871 23.5873C11.9813 22.5636 12.5814 21.54 13.2874 20.5163C14.011 19.4926 14.8052 18.4954 15.6701 17.5247C16.5349 16.554 17.3909 15.6627 18.2381 14.8508C19.0852 14.0389 19.8795 13.333 20.6207 12.7329C21.362 12.1328 21.9621 11.6916 22.421 11.4092C23.0564 11.0209 23.5859 10.8356 24.0094 10.8532C24.433 10.8532 24.7684 10.9856 25.0155 11.2503C25.2802 11.4974 25.4567 11.8504 25.5449 12.3093C25.6508 12.7505 25.695 13.2271 25.6773 13.7389C25.6773 14.2331 25.6244 14.7361 25.5185 15.2479C25.4302 15.7421 25.3067 16.1745 25.1478 16.5452C25.0066 16.9158 24.8478 17.1894 24.6713 17.3659C24.5124 17.5424 24.3536 17.5512 24.1948 17.3923C24.1771 17.2511 24.1948 17.0393 24.2477 16.757C24.3007 16.4569 24.3624 16.1216 24.433 15.7509C24.5213 15.3803 24.6007 15.0008 24.6713 14.6125C24.7419 14.2243 24.786 13.8713 24.8037 13.5536C24.839 13.2182 24.8301 12.9358 24.7772 12.7064C24.7419 12.477 24.6448 12.3446 24.486 12.3093C23.8682 12.1504 23.127 12.3005 22.2621 12.7593C21.415 13.2006 20.5237 13.8448 19.5882 14.692C18.6705 15.5215 17.7527 16.4922 16.8349 17.6041C15.9348 18.6984 15.1141 19.828 14.3728 20.9928C13.6315 22.1577 13.0226 23.2961 12.5461 24.408C12.0696 25.5023 11.796 26.473 11.7254 27.3202C11.6725 28.1497 11.8578 28.7939 12.2814 29.2528C12.7226 29.694 13.4903 29.8352 14.5846 29.6764C15.5906 29.5352 16.5172 29.1822 17.3644 28.6174C18.2292 28.035 19.0588 27.3996 19.853 26.7113C20.6649 26.0053 21.4679 25.317 22.2621 24.6463C23.0564 23.9579 23.8859 23.4373 24.7507 23.0843C25.0684 22.9607 25.3155 23.0049 25.492 23.2167C25.6861 23.4285 25.7391 23.6844 25.6508 23.9844C25.5449 24.2845 25.2273 24.6816 24.6978 25.1758C24.1859 25.6699 23.5417 26.1906 22.7652 26.7377C22.0062 27.2672 21.1679 27.8055 20.2501 28.3527C19.3323 28.8821 18.4322 29.341 17.5497 29.7293C16.6849 30.1176 15.873 30.4 15.1141 30.5765C14.3728 30.753 13.7904 30.753 13.3668 30.5765Z" fill="white"/>
<path d="M26.2979 30.5765C26.2626 30.5588 26.2626 30.3559 26.2979 29.9676C26.3508 29.5617 26.4214 29.0586 26.5097 28.4586C26.5979 27.8585 26.7126 27.1966 26.8538 26.473C26.995 25.7494 27.145 25.061 27.3039 24.408C27.4627 23.7373 27.6304 23.1549 27.8069 22.6607C28.001 22.1489 28.1864 21.7959 28.3629 21.6017C28.4864 21.4782 28.61 21.4782 28.7335 21.6017C28.857 21.7076 28.9806 21.8488 29.1041 22.0253C29.2277 22.1842 29.3512 22.3342 29.4748 22.4754C29.5983 22.5989 29.7307 22.6078 29.8719 22.5019C30.3661 21.8135 30.9044 21.1605 31.4868 20.5428C32.0869 19.9074 32.7488 19.3603 33.4724 18.9014C33.543 18.8484 33.7371 18.769 34.0548 18.6631C34.3725 18.5396 34.7343 18.4248 35.1403 18.3189C35.5462 18.1954 35.961 18.0983 36.3846 18.0277C36.8258 17.9395 37.1964 17.9042 37.4965 17.9218C37.8142 17.9218 38.026 18.0012 38.1318 18.1601C38.2554 18.3013 38.2024 18.5484 37.973 18.9014C36.914 18.919 35.9257 19.2279 35.0079 19.828C34.0901 20.428 33.2429 21.1693 32.4664 22.0518C31.6898 22.9343 30.9838 23.8962 30.3484 24.9375C29.713 25.9612 29.1571 26.9142 28.6806 27.7967C28.2217 28.6792 27.8334 29.4116 27.5157 29.9941C27.2156 30.5765 26.995 30.8677 26.8538 30.8677C26.8362 30.8677 26.7568 30.8324 26.6156 30.7618C26.4744 30.6736 26.3685 30.6118 26.2979 30.5765Z" fill="white"/>
<path d="M36.9257 30.5765C37.6493 28.2468 38.3023 26.4024 38.8848 25.0434C39.4849 23.6667 39.979 22.7048 40.3673 22.1577C40.7733 21.6106 41.0468 21.4341 41.188 21.6282C41.3292 21.8224 41.3116 22.3165 41.1351 23.1108C40.9762 23.905 40.6232 24.9728 40.0761 26.3141C39.5466 27.6379 38.7965 29.1557 37.8258 30.8677C37.6846 30.9207 37.5169 30.9295 37.3228 30.8942C37.1287 30.8589 36.9963 30.753 36.9257 30.5765ZM41.5587 17.8424C41.5234 17.7541 41.5057 17.5953 41.5057 17.3659C41.5057 17.1364 41.5234 16.9952 41.5587 16.9423C41.9646 16.8011 42.2735 16.7834 42.4853 16.8893C42.6971 16.9952 42.8294 17.1541 42.8824 17.3659C42.9353 17.56 42.9265 17.7718 42.8559 18.0012C42.803 18.2307 42.7059 18.4072 42.5647 18.5307C42.4235 18.6366 42.2558 18.6543 42.0617 18.5837C41.8852 18.4954 41.7175 18.2483 41.5587 17.8424Z" fill="white"/>
<path d="M42.3645 30.5765C42.1528 30.4353 42.1439 30.25 42.3381 30.0205C42.5499 29.7734 42.8764 29.5175 43.3176 29.2528C43.7765 28.9704 44.306 28.6792 44.9061 28.3791C45.5062 28.0791 46.0798 27.7967 46.6269 27.532C47.1917 27.2672 47.6859 27.0378 48.1095 26.8436C48.533 26.6318 48.8066 26.473 48.9302 26.3671C49.5126 25.8729 49.8126 25.467 49.8303 25.1493C49.8656 24.8139 49.7244 24.5492 49.4067 24.3551C49.089 24.1433 48.6389 23.9844 48.0565 23.8785C47.4917 23.755 46.9005 23.6491 46.2827 23.5608C45.6827 23.4549 45.1002 23.349 44.5354 23.2431C43.9883 23.1372 43.5735 22.996 43.2911 22.8195C43.0088 22.6431 42.9117 22.4136 42.9999 22.1312C43.1058 21.8312 43.4941 21.4517 44.1648 20.9928C44.4119 20.8163 44.7737 20.5604 45.2502 20.2251C45.7268 19.8897 46.2386 19.5456 46.7857 19.1926C47.3505 18.8396 47.9065 18.5219 48.4536 18.2395C49.0008 17.9571 49.4596 17.7718 49.8303 17.6836C50.0244 17.6483 50.2186 17.6659 50.4127 17.7365C50.6245 17.8071 50.7922 17.913 50.9157 18.0542C51.0393 18.1777 51.0922 18.3189 51.0746 18.4778C51.0746 18.6366 50.9598 18.7778 50.7304 18.9014C49.7244 19.4661 48.7537 19.9956 47.8182 20.4898C46.9005 20.984 45.9739 21.5488 45.0384 22.1842C44.9855 22.3254 44.9943 22.4489 45.0649 22.5548C45.1532 22.6607 45.2502 22.7401 45.3561 22.7931C47.227 22.9872 48.6301 23.2608 49.5655 23.6138C50.5186 23.9668 51.1187 24.3551 51.3658 24.7786C51.6305 25.2022 51.6041 25.6523 51.2864 26.1288C50.9687 26.6054 50.4921 27.0731 49.8568 27.532C49.239 27.9908 48.5242 28.4233 47.7123 28.8292C46.9005 29.2351 46.1151 29.5793 45.3561 29.8617C44.6149 30.1441 43.9618 30.3559 43.397 30.4971C42.8323 30.6383 42.4881 30.6647 42.3645 30.5765Z" fill="white"/>
<path d="M65.3675 30.5765C64.485 30.2059 63.9026 29.694 63.6202 29.041C63.3378 28.3703 63.2407 27.6555 63.329 26.8966C63.4172 26.12 63.629 25.3434 63.9643 24.5668C64.3173 23.7903 64.6791 23.1019 65.0498 22.5019C65.1733 22.2901 65.4028 21.9283 65.7381 21.4164C66.0735 20.9046 66.4264 20.3663 66.7971 19.8015C67.1854 19.2191 67.5472 18.6807 67.8825 18.1866C68.2355 17.6747 68.4826 17.3217 68.6238 17.1276C68.8356 15.7686 69.2592 14.692 69.8946 13.8977C70.5299 13.0859 71.2448 12.5299 72.039 12.2299C72.8509 11.9298 73.6804 11.868 74.5276 12.0445C75.3747 12.2034 76.116 12.5829 76.7514 13.1829C77.3868 13.7654 77.8457 14.5508 78.1281 15.5391C78.4104 16.5275 78.384 17.6836 78.0486 19.0073C77.7309 20.331 77.0426 21.8135 75.9836 23.4549C74.9247 25.0963 73.3715 26.8701 71.3242 28.7763C70.9712 29.1116 70.5476 29.4381 70.0534 29.7558C69.5769 30.0558 69.065 30.3029 68.5179 30.4971C67.9884 30.6912 67.4501 30.8059 66.903 30.8412C66.3558 30.8765 65.844 30.7883 65.3675 30.5765ZM64.4409 28.485C64.6174 29.2793 64.9527 29.7734 65.4469 29.9676C65.9411 30.1617 66.5235 30.1264 67.1942 29.8617C67.8649 29.597 68.5973 29.1469 69.3916 28.5115C70.1858 27.8761 70.98 27.1348 71.7742 26.2877C72.5685 25.4228 73.3274 24.4874 74.051 23.4814C74.7747 22.4754 75.4012 21.4782 75.9307 20.4898C76.4778 19.5014 76.8926 18.5572 77.175 17.6571C77.4574 16.757 77.5456 15.9804 77.4397 15.3273C77.3515 14.6567 77.0338 14.1537 76.4866 13.8183C75.9572 13.483 75.1365 13.3859 74.0245 13.5271C73.6186 13.8801 73.0803 14.4007 72.4096 15.0891C71.7389 15.7598 71.0241 16.5275 70.2652 17.3923C69.5063 18.2572 68.7473 19.1926 67.9884 20.1986C67.2295 21.187 66.5588 22.1753 65.9764 23.1637C65.3939 24.1521 64.9527 25.1052 64.6527 26.0229C64.3526 26.9407 64.282 27.7614 64.4409 28.485Z" fill="white"/>
<path d="M78.2604 30.5765C77.7486 30.2059 77.4132 29.7381 77.2544 29.1734C77.1132 28.6086 77.0956 27.9997 77.2015 27.3466C77.3074 26.676 77.4927 25.9876 77.7574 25.2817C78.0398 24.5757 78.3398 23.8962 78.6575 23.2431C78.9929 22.5901 79.3106 21.99 79.6106 21.4429C79.9283 20.8958 80.1754 20.4457 80.3519 20.0927C80.4048 19.9868 80.5284 19.7309 80.7225 19.325C80.9343 18.919 81.1549 18.4778 81.3844 18.0012C81.6138 17.5247 81.8256 17.0835 82.0198 16.6775C82.2316 16.2539 82.3639 15.9892 82.4169 15.8833C82.4698 15.7951 82.5404 15.6274 82.6287 15.3803C82.7346 15.1156 82.8493 14.8332 82.9728 14.5331C83.0964 14.2331 83.2287 13.9507 83.3699 13.6859C83.5288 13.4036 83.6876 13.2006 83.8465 13.077C84.023 12.9535 84.1906 12.9358 84.3495 13.0241C84.526 13.1123 84.6936 13.3771 84.8525 13.8183C84.7819 13.9948 84.6054 14.3478 84.323 14.8773C84.0583 15.4068 83.7406 16.0421 83.3699 16.7834C82.9993 17.5247 82.5845 18.3454 82.1257 19.2455C81.6844 20.1457 81.252 21.0546 80.8284 21.9724C80.4048 22.8901 80.0077 23.7903 79.6371 24.6727C79.2664 25.5376 78.9576 26.3318 78.7105 27.0554C78.481 27.7614 78.3398 28.3527 78.2869 28.8292C78.2516 29.2881 78.3398 29.5705 78.5516 29.6764C78.7987 29.7999 79.1164 29.8529 79.5047 29.8352C79.9106 29.7999 80.3254 29.747 80.749 29.6764C81.1726 29.6058 81.5873 29.5352 81.9933 29.4646C82.3992 29.3763 82.7522 29.341 83.0523 29.3587C83.1228 29.5175 83.0699 29.6764 82.8934 29.8352C82.7169 29.9764 82.4698 30.1088 82.1521 30.2323C81.8344 30.3382 81.4638 30.4353 81.0402 30.5235C80.6343 30.5941 80.2372 30.6471 79.8489 30.6824C79.4782 30.7177 79.1429 30.7265 78.8428 30.7089C78.5605 30.6912 78.3663 30.6471 78.2604 30.5765Z" fill="white"/>
<path d="M83.964 30.5765C84.6877 28.2468 85.3407 26.4024 85.9231 25.0434C86.5232 23.6667 87.0174 22.7048 87.4057 22.1577C87.8116 21.6106 88.0852 21.4341 88.2264 21.6282C88.3676 21.8224 88.3499 22.3165 88.1734 23.1108C88.0146 23.905 87.6616 24.9728 87.1145 26.3141C86.585 27.6379 85.8349 29.1557 84.8641 30.8677C84.723 30.9207 84.5553 30.9295 84.3611 30.8942C84.167 30.8589 84.0346 30.753 83.964 30.5765ZM88.597 17.8424C88.5617 17.7541 88.5441 17.5953 88.5441 17.3659C88.5441 17.1364 88.5617 16.9952 88.597 16.9423C89.003 16.8011 89.3118 16.7834 89.5236 16.8893C89.7354 16.9952 89.8678 17.1541 89.9207 17.3659C89.9737 17.56 89.9648 17.7718 89.8942 18.0012C89.8413 18.2307 89.7442 18.4072 89.603 18.5307C89.4618 18.6366 89.2942 18.6543 89.1 18.5837C88.9235 18.4954 88.7559 18.2483 88.597 17.8424Z" fill="white"/>
<path d="M90.1442 30.2588C89.7735 30.047 89.5088 29.7117 89.3499 29.2528C89.1911 28.7939 89.1028 28.2732 89.0852 27.6908C89.0676 27.1084 89.1028 26.4995 89.1911 25.8641C89.2793 25.2287 89.3852 24.611 89.5088 24.0109C89.6323 23.4108 89.7559 22.8725 89.8794 22.396C90.003 21.9194 90.0912 21.5488 90.1442 21.284C90.2324 21.2311 90.3207 21.2311 90.4089 21.284C90.5148 21.337 90.6119 21.4164 90.7001 21.5223C90.806 21.6106 90.8854 21.6988 90.9384 21.7871C91.009 21.8577 91.0443 21.893 91.0443 21.893C91.0972 22.5107 91.0972 23.1196 91.0443 23.7197C91.009 24.3021 90.956 24.8845 90.8854 25.467C90.8325 26.0494 90.7795 26.6407 90.7266 27.2407C90.6913 27.8408 90.6913 28.4497 90.7266 29.0675C90.8678 29.3322 91.159 29.341 91.6003 29.0939C92.0415 28.8292 92.5798 28.4144 93.2152 27.8497C93.8506 27.2672 94.5389 26.5877 95.2802 25.8111C96.0391 25.0169 96.7804 24.2315 97.504 23.4549C98.2453 22.6784 98.9424 21.9547 99.5955 21.284C100.248 20.5957 100.796 20.0751 101.237 19.7221C101.696 19.3514 102.013 19.2014 102.19 19.272C102.366 19.325 102.34 19.6956 102.111 20.3839C101.687 20.7546 101.184 21.3105 100.601 22.0518C100.019 22.7931 99.3837 23.5961 98.6953 24.461C98.007 25.3081 97.2922 26.1553 96.5509 27.0025C95.8096 27.8497 95.0595 28.5821 94.3006 29.1998C93.5593 29.7999 92.8357 30.2235 92.1297 30.4706C91.4238 30.7 90.7619 30.6294 90.1442 30.2588Z" fill="white"/>
<path d="M103.181 30.5765C102.652 30.4 102.246 30.1353 101.963 29.7823C101.699 29.4116 101.522 29.0057 101.434 28.5645C101.346 28.1232 101.328 27.6643 101.381 27.1878C101.451 26.6936 101.557 26.2259 101.699 25.7847C102.228 25.2199 102.819 24.5757 103.472 23.852C104.143 23.1108 104.849 22.3871 105.59 21.6812C106.332 20.9752 107.099 20.3221 107.894 19.7221C108.705 19.1043 109.526 18.6366 110.356 18.3189C110.638 18.1954 110.859 18.2042 111.018 18.3454C111.194 18.469 111.318 18.6719 111.388 18.9543C111.459 19.2367 111.485 19.5632 111.468 19.9339C111.468 20.3045 111.441 20.6663 111.388 21.0193C111.335 21.3723 111.265 21.69 111.176 21.9724C111.088 22.2548 111 22.4489 110.912 22.5548C110.7 22.8019 110.285 23.0931 109.667 23.4285C109.067 23.7638 108.397 24.1344 107.655 24.5404C106.914 24.9287 106.173 25.3346 105.431 25.7582C104.69 26.1818 104.081 26.6054 103.605 27.029C103.128 27.4349 102.846 27.8408 102.758 28.2468C102.669 28.6527 102.916 29.0233 103.499 29.3587C104.099 29.4293 104.823 29.4028 105.67 29.2793C106.535 29.1381 107.408 28.9616 108.291 28.7498C109.191 28.5203 110.056 28.2909 110.885 28.0614C111.715 27.8144 112.394 27.6202 112.924 27.479L113.241 27.7702C112.853 28.2821 112.218 28.7498 111.335 29.1734C110.453 29.597 109.5 29.9499 108.476 30.2323C107.452 30.4971 106.455 30.6736 105.484 30.7618C104.514 30.8324 103.746 30.7706 103.181 30.5765ZM109.508 20.4633C109.491 20.4457 109.358 20.5251 109.111 20.7016C108.864 20.8605 108.555 21.0811 108.185 21.3635C107.832 21.6282 107.443 21.9283 107.02 22.2636C106.614 22.5813 106.234 22.8813 105.882 23.1637C105.546 23.4461 105.264 23.6932 105.034 23.905C104.805 24.0991 104.708 24.1962 104.743 24.1962C105.026 24.2492 105.387 24.2139 105.829 24.0903C106.287 23.9491 106.755 23.755 107.232 23.5079C107.726 23.2608 108.194 22.9872 108.635 22.6872C109.076 22.3695 109.42 22.0606 109.667 21.7606C109.932 21.4605 110.064 21.1958 110.064 20.9664C110.082 20.7369 109.897 20.5692 109.508 20.4633Z" fill="white"/>
<path d="M112.738 30.5765C113.462 28.2468 114.115 26.4024 114.697 25.0434C115.298 23.6667 115.792 22.7048 116.18 22.1577C116.586 21.6106 116.859 21.4341 117.001 21.6282C117.142 21.8224 117.124 22.3165 116.948 23.1108C116.789 23.905 116.436 24.9728 115.889 26.3141C115.359 27.6379 114.609 29.1557 113.638 30.8677C113.497 30.9207 113.33 30.9295 113.135 30.8942C112.941 30.8589 112.809 30.753 112.738 30.5765ZM117.371 17.8424C117.336 17.7541 117.318 17.5953 117.318 17.3659C117.318 17.1364 117.336 16.9952 117.371 16.9423C117.777 16.8011 118.086 16.7834 118.298 16.8893C118.51 16.9952 118.642 17.1541 118.695 17.3659C118.748 17.56 118.739 17.7718 118.669 18.0012C118.616 18.2307 118.519 18.4072 118.377 18.5307C118.236 18.6366 118.068 18.6543 117.874 18.5837C117.698 18.4954 117.53 18.2483 117.371 17.8424Z" fill="white"/>
<path d="M118.177 30.5765C118.142 30.5588 118.142 30.3559 118.177 29.9676C118.23 29.5617 118.301 29.0586 118.389 28.4586C118.477 27.8585 118.592 27.1966 118.733 26.473C118.874 25.7494 119.024 25.061 119.183 24.408C119.342 23.7373 119.51 23.1549 119.686 22.6607C119.88 22.1489 120.066 21.7959 120.242 21.6017C120.366 21.4782 120.489 21.4782 120.613 21.6017C120.736 21.7076 120.86 21.8488 120.983 22.0253C121.107 22.1842 121.231 22.3342 121.354 22.4754C121.478 22.5989 121.61 22.6078 121.751 22.5019C122.245 21.8135 122.784 21.1605 123.366 20.5428C123.966 19.9074 124.628 19.3603 125.352 18.9014C125.422 18.8484 125.616 18.769 125.934 18.6631C126.252 18.5396 126.614 18.4248 127.02 18.3189C127.426 18.1954 127.84 18.0983 128.264 18.0277C128.705 17.9395 129.076 17.9042 129.376 17.9218C129.693 17.9218 129.905 18.0012 130.011 18.1601C130.135 18.3013 130.082 18.5484 129.852 18.9014C128.793 18.919 127.805 19.2279 126.887 19.828C125.969 20.428 125.122 21.1693 124.346 22.0518C123.569 22.9343 122.863 23.8962 122.228 24.9375C121.592 25.9612 121.036 26.9142 120.56 27.7967C120.101 28.6792 119.713 29.4116 119.395 29.9941C119.095 30.5765 118.874 30.8677 118.733 30.8677C118.715 30.8677 118.636 30.8324 118.495 30.7618C118.354 30.6736 118.248 30.6118 118.177 30.5765Z" fill="white"/>
<path d="M127.447 30.2588C127.024 29.9058 126.786 29.3852 126.733 28.6968C126.697 28.0085 126.794 27.2319 127.024 26.3671C127.271 25.5023 127.624 24.6021 128.083 23.6667C128.559 22.7137 129.106 21.8135 129.724 20.9664C130.342 20.1015 131.013 19.3338 131.736 18.6631C132.46 17.9748 133.183 17.4718 133.907 17.1541C134.631 16.8187 135.337 16.704 136.025 16.8099C136.713 16.8981 137.34 17.2953 137.905 18.0012C138.258 18.4425 138.47 18.8925 138.54 19.3514C138.611 19.7927 138.602 20.2515 138.514 20.7281C138.425 21.187 138.284 21.6635 138.09 22.1577C137.896 22.6342 137.702 23.1196 137.508 23.6138C137.331 24.108 137.181 24.611 137.058 25.1228C136.952 25.6346 136.934 26.1553 137.005 26.6848C137.093 27.3555 137.393 27.7526 137.905 27.8761C138.417 27.9997 139.025 27.9644 139.731 27.7702C140.455 27.5761 141.214 27.2672 142.008 26.8436C142.802 26.42 143.535 25.9965 144.206 25.5729C144.894 25.1493 145.459 24.7786 145.9 24.461C146.359 24.1433 146.588 23.9844 146.588 23.9844C147.082 23.8785 147.356 23.9138 147.409 24.0903C147.48 24.2492 147.382 24.4963 147.118 24.8316C146.871 25.1493 146.491 25.5199 145.979 25.9435C145.468 26.3494 144.885 26.7466 144.232 27.1348C143.579 27.5231 142.882 27.8761 142.141 28.1938C141.399 28.5115 140.676 28.7321 139.97 28.8557C139.264 28.9616 138.593 28.9527 137.958 28.8292C137.34 28.688 136.828 28.3703 136.422 27.8761C136.228 27.6643 136.078 27.4525 135.972 27.2407C135.884 27.029 135.734 26.8436 135.522 26.6848C135.257 26.9319 134.94 27.2584 134.569 27.6643C134.198 28.0526 133.792 28.4497 133.351 28.8557C132.928 29.244 132.469 29.6146 131.974 29.9676C131.498 30.3206 131.004 30.5853 130.492 30.7618C129.98 30.9383 129.459 31.0001 128.93 30.9471C128.418 30.8942 127.924 30.6647 127.447 30.2588ZM127.739 29.3587C127.897 29.9235 128.25 30.1882 128.798 30.1529C129.345 30.1 129.98 29.8264 130.704 29.3322C131.427 28.838 132.177 28.1673 132.954 27.3202C133.731 26.4553 134.428 25.5023 135.046 24.461C135.663 23.402 136.131 22.2901 136.449 21.1252C136.784 19.9603 136.872 18.8131 136.713 17.6836C136.29 17.3482 135.76 17.3394 135.125 17.6571C134.49 17.9571 133.81 18.4601 133.086 19.1661C132.38 19.8544 131.674 20.684 130.968 21.6547C130.28 22.6078 129.671 23.5785 129.142 24.5668C128.612 25.5376 128.206 26.4553 127.924 27.3202C127.659 28.185 127.597 28.8645 127.739 29.3587Z" fill="white"/>
<path d="M16.2771 44.8803H17.1967C17.2516 45.1637 17.4887 45.3054 17.908 45.3054C18.336 45.3054 18.55 45.2027 18.55 44.9974C18.55 44.9251 18.5182 44.8673 18.4545 44.8239C18.3909 44.7776 18.2868 44.7444 18.1422 44.7242L17.587 44.6417C17.1591 44.5752 16.8468 44.4639 16.6501 44.3077C16.4564 44.1516 16.3595 43.9376 16.3595 43.6658C16.3595 43.3651 16.4954 43.1308 16.7672 42.9631C17.042 42.7954 17.4193 42.7115 17.8993 42.7115C18.7871 42.7115 19.2845 43.0224 19.3915 43.6441L18.5023 43.7309C18.456 43.6036 18.3837 43.5125 18.2854 43.4576C18.1871 43.3998 18.0483 43.3708 17.869 43.3708C17.6781 43.3708 17.5306 43.394 17.4265 43.4402C17.3253 43.4865 17.2747 43.553 17.2747 43.6398C17.2747 43.7121 17.3022 43.767 17.3571 43.8046C17.4121 43.8422 17.5133 43.8725 17.6608 43.8957L18.3374 44.0041C18.7394 44.0677 19.03 44.1762 19.2093 44.3294C19.3886 44.4798 19.4782 44.6923 19.4782 44.9671C19.4782 45.2967 19.3452 45.5454 19.0791 45.7131C18.8131 45.8808 18.4213 45.9647 17.9037 45.9647C16.8858 45.9647 16.3436 45.6032 16.2771 44.8803Z" fill="white"/>
<path d="M22.9822 45.9647C22.6005 45.9647 22.2723 45.8996 21.9976 45.7695C21.7229 45.6394 21.5103 45.4529 21.3599 45.21C21.2125 44.9671 21.1387 44.6764 21.1387 44.3381C21.1387 43.9998 21.2139 43.7092 21.3643 43.4663C21.5147 43.2234 21.7286 43.0368 22.0062 42.9067C22.2838 42.7766 22.6149 42.7115 22.9995 42.7115C23.3812 42.7115 23.7094 42.7766 23.9842 42.9067C24.2589 43.0368 24.47 43.2234 24.6174 43.4663C24.7678 43.7092 24.843 43.9998 24.843 44.3381C24.843 44.6764 24.7678 44.9671 24.6174 45.21C24.4671 45.4529 24.2531 45.6394 23.9755 45.7695C23.6979 45.8996 23.3668 45.9647 22.9822 45.9647ZM23.8714 44.3381C23.8714 44.0605 23.7933 43.8465 23.6372 43.6962C23.4839 43.5429 23.2685 43.4663 22.9909 43.4663C22.7133 43.4663 22.4964 43.5429 22.3402 43.6962C22.187 43.8494 22.1103 44.0634 22.1103 44.3381C22.1103 44.6157 22.187 44.8311 22.3402 44.9844C22.4964 45.1348 22.7133 45.21 22.9909 45.21C23.2685 45.21 23.4839 45.1333 23.6372 44.9801C23.7933 44.8268 23.8714 44.6128 23.8714 44.3381Z" fill="white"/>
<path d="M26.7088 42.7896H27.6457V45.1275H29.4067L29.3113 45.8866H26.7088V42.7896Z" fill="white"/>
<path d="M32.0044 44.6027C32.0044 44.8109 32.0565 44.9642 32.1606 45.0625C32.2676 45.1608 32.4353 45.21 32.6637 45.21C32.8951 45.21 33.0628 45.1608 33.1669 45.0625C33.2739 44.9642 33.3274 44.8109 33.3274 44.6027V42.7896H34.2643V44.529C34.2643 45.0379 34.1269 45.4051 33.8522 45.6307C33.5775 45.8534 33.1813 45.9647 32.6637 45.9647C32.149 45.9647 31.7543 45.8534 31.4796 45.6307C31.2049 45.4051 31.0675 45.0379 31.0675 44.529V42.7896H32.0044V44.6027Z" fill="white"/>
<path d="M39.5032 43.8133L38.5793 43.913C38.5244 43.754 38.442 43.6398 38.3321 43.5704C38.2222 43.501 38.0733 43.4663 37.8853 43.4663C37.628 43.4663 37.427 43.5414 37.2824 43.6918C37.1378 43.8393 37.0655 44.0547 37.0655 44.3381C37.0655 44.6215 37.1378 44.8384 37.2824 44.9887C37.4299 45.1362 37.6366 45.21 37.9027 45.21C38.3133 45.21 38.5547 45.0509 38.627 44.7328H39.5639C39.5264 45.1232 39.3586 45.4268 39.0608 45.6437C38.7658 45.8577 38.3726 45.9647 37.881 45.9647C37.4877 45.9647 37.1581 45.8953 36.892 45.7565C36.6289 45.6177 36.4293 45.4268 36.2934 45.1839C36.1604 44.9381 36.0939 44.6562 36.0939 44.3381C36.0939 44.0287 36.1604 43.7511 36.2934 43.5053C36.4293 43.2595 36.6303 43.0658 36.8964 42.9241C37.1624 42.7824 37.4935 42.7115 37.8897 42.7115C38.7832 42.7115 39.321 43.0788 39.5032 43.8133ZM37.6554 45.7912L38.0675 45.8866L37.9851 46.0775C38.1673 46.0977 38.3017 46.1411 38.3885 46.2076C38.4752 46.277 38.5186 46.3666 38.5186 46.4765C38.5186 46.6038 38.455 46.7035 38.3277 46.7758C38.2005 46.8481 38.0212 46.8842 37.7899 46.8842C37.5788 46.8842 37.4125 46.864 37.2911 46.8235V46.4722C37.3634 46.4837 37.427 46.4924 37.4819 46.4982C37.5398 46.5069 37.5947 46.5112 37.6468 46.5112C37.7393 46.5112 37.8058 46.5025 37.8463 46.4852C37.8897 46.4707 37.9113 46.4476 37.9113 46.4158C37.9113 46.3753 37.8853 46.3478 37.8333 46.3334C37.7841 46.3189 37.6988 46.3117 37.5774 46.3117H37.4255L37.6554 45.7912Z" fill="white"/>
<path d="M43.0509 45.9647C42.6692 45.9647 42.341 45.8996 42.0663 45.7695C41.7916 45.6394 41.579 45.4529 41.4287 45.21C41.2812 44.9671 41.2075 44.6764 41.2075 44.3381C41.2075 43.9998 41.2826 43.7092 41.433 43.4663C41.5834 43.2234 41.7974 43.0368 42.075 42.9067C42.3526 42.7766 42.6837 42.7115 43.0683 42.7115C43.45 42.7115 43.7782 42.7766 44.0529 42.9067C44.3276 43.0368 44.5387 43.2234 44.6862 43.4663C44.8365 43.7092 44.9117 43.9998 44.9117 44.3381C44.9117 44.6764 44.8365 44.9671 44.6862 45.21C44.5358 45.4529 44.3218 45.6394 44.0442 45.7695C43.7666 45.8996 43.4355 45.9647 43.0509 45.9647ZM43.9401 44.3381C43.9401 44.0605 43.862 43.8465 43.7059 43.6962C43.5526 43.5429 43.3372 43.4663 43.0596 43.4663C42.782 43.4663 42.5651 43.5429 42.409 43.6962C42.2557 43.8494 42.1791 44.0634 42.1791 44.3381C42.1791 44.6157 42.2557 44.8311 42.409 44.9844C42.5651 45.1348 42.782 45.21 43.0596 45.21C43.3372 45.21 43.5526 45.1333 43.7059 44.9801C43.862 44.8268 43.9401 44.6128 43.9401 44.3381ZM42.0793 42.5337C42.0793 42.2763 42.127 42.0913 42.2224 41.9785C42.3179 41.8657 42.461 41.8093 42.6519 41.8093C42.7907 41.8093 42.9555 41.857 43.1463 41.9525C43.2215 41.9901 43.2794 42.0161 43.3198 42.0305C43.3603 42.045 43.3965 42.0522 43.4283 42.0522C43.4832 42.0522 43.5194 42.0349 43.5367 42.0002C43.5541 41.9626 43.5627 41.9033 43.5627 41.8223H44.0789C44.0789 42.071 44.0312 42.2546 43.9358 42.3732C43.8403 42.4889 43.6972 42.5467 43.5064 42.5467C43.3704 42.5467 43.21 42.5004 43.0249 42.4079C42.8832 42.3385 42.7849 42.3038 42.7299 42.3038C42.6779 42.3038 42.6417 42.324 42.6215 42.3645C42.6041 42.4021 42.5955 42.4585 42.5955 42.5337H42.0793Z" fill="white"/>
<path d="M46.7775 42.7896H49.4885V43.4706H47.6927V43.9738H49.4017V44.6548H47.6927V45.2056H49.5926L49.5058 45.8866H46.7775V42.7896Z" fill="white"/>
<path d="M51.1909 44.8803H52.1104C52.1654 45.1637 52.4025 45.3054 52.8218 45.3054C53.2498 45.3054 53.4637 45.2027 53.4637 44.9974C53.4637 44.9251 53.4319 44.8673 53.3683 44.8239C53.3047 44.7776 53.2006 44.7444 53.056 44.7242L52.5008 44.6417C52.0728 44.5752 51.7605 44.4639 51.5639 44.3077C51.3702 44.1516 51.2733 43.9376 51.2733 43.6658C51.2733 43.3651 51.4092 43.1308 51.681 42.9631C51.9557 42.7954 52.3331 42.7115 52.8131 42.7115C53.7009 42.7115 54.1982 43.0224 54.3052 43.6441L53.416 43.7309C53.3698 43.6036 53.2975 43.5125 53.1992 43.4576C53.1008 43.3998 52.962 43.3708 52.7828 43.3708C52.5919 43.3708 52.4444 43.394 52.3403 43.4402C52.2391 43.4865 52.1885 43.553 52.1885 43.6398C52.1885 43.7121 52.216 43.767 52.2709 43.8046C52.3259 43.8422 52.4271 43.8725 52.5746 43.8957L53.2512 44.0041C53.6532 44.0677 53.9438 44.1762 54.1231 44.3294C54.3023 44.4798 54.392 44.6923 54.392 44.9671C54.392 45.2967 54.259 45.5454 53.9929 45.7131C53.7269 45.8808 53.3351 45.9647 52.8175 45.9647C51.7996 45.9647 51.2574 45.6032 51.1909 44.8803Z" fill="white"/>
<path d="M58.6701 42.7896H60.21C61.1382 42.7896 61.6023 43.1467 61.6023 43.861C61.6023 44.2282 61.4823 44.5 61.2423 44.6764C61.0052 44.8499 60.6437 44.9367 60.1579 44.9367H59.5767V45.8866H58.6701V42.7896ZM60.1406 44.2427C60.3285 44.2427 60.4673 44.2138 60.557 44.1559C60.6466 44.0981 60.6914 43.9983 60.6914 43.8566C60.6914 43.7236 60.6481 43.6282 60.5613 43.5704C60.4746 43.5125 60.3372 43.4836 60.1492 43.4836H59.5767V44.2427H60.1406Z" fill="white"/>
<path d="M64.0452 42.7896H65.1383L66.4829 45.8866H65.5113L65.2814 45.3227H63.8674L63.6505 45.8866H62.7006L64.0452 42.7896ZM65.0211 44.6287L64.5787 43.4966L64.1363 44.6287H65.0211Z" fill="white"/>
<path d="M68.1771 42.7896H69.769C70.6973 42.7896 71.1614 43.1323 71.1614 43.8176C71.1614 44.0374 71.1151 44.2167 71.0226 44.3555C70.93 44.4914 70.7941 44.5998 70.6148 44.6808L71.3739 45.8866H70.3719L69.7603 44.8586H69.0533V45.8866H68.1771V42.7896ZM69.7126 44.1906C69.9035 44.1906 70.0423 44.1632 70.129 44.1082C70.2187 44.0504 70.2635 43.955 70.2635 43.8219C70.2635 43.6889 70.2216 43.5949 70.1377 43.54C70.0539 43.4851 69.9151 43.4576 69.7213 43.4576H69.0533V44.1906H69.7126Z" fill="white"/>
<path d="M74.141 42.7896H75.234L76.5787 45.8866H75.6071L75.3772 45.3227H73.9632L73.7463 45.8866H72.7964L74.141 42.7896ZM75.1169 44.6287L74.6745 43.4966L74.2321 44.6287H75.1169Z" fill="white"/>
<path d="M81.7884 42.7896H82.8815L84.2261 45.8866H83.2545L83.0246 45.3227H81.6106L81.3937 45.8866H80.4438L81.7884 42.7896ZM82.7644 44.6287L82.322 43.4966L81.8795 44.6287H82.7644Z" fill="white"/>
<path d="M91.6697 43.8133L90.7458 43.913C90.6909 43.754 90.6085 43.6398 90.4986 43.5704C90.3887 43.501 90.2398 43.4663 90.0518 43.4663C89.7944 43.4663 89.5935 43.5414 89.4489 43.6918C89.3043 43.8393 89.232 44.0547 89.232 44.3381C89.232 44.6215 89.3043 44.8384 89.4489 44.9887C89.5964 45.1362 89.8031 45.21 90.0692 45.21C90.4798 45.21 90.7212 45.0509 90.7935 44.7328H91.7304C91.6928 45.1232 91.5251 45.4268 91.2273 45.6437C90.9323 45.8577 90.5391 45.9647 90.0475 45.9647C89.6542 45.9647 89.3245 45.8953 89.0585 45.7565C88.7954 45.6177 88.5958 45.4268 88.4599 45.1839C88.3269 44.9381 88.2604 44.6562 88.2604 44.3381C88.2604 44.0287 88.3269 43.7511 88.4599 43.5053C88.5958 43.2595 88.7968 43.0658 89.0629 42.9241C89.3289 42.7824 89.66 42.7115 90.0561 42.7115C90.9497 42.7115 91.4875 43.0788 91.6697 43.8133Z" fill="white"/>
<path d="M95.2174 45.9647C94.8357 45.9647 94.5075 45.8996 94.2328 45.7695C93.9581 45.6394 93.7456 45.4529 93.5952 45.21C93.4477 44.9671 93.374 44.6764 93.374 44.3381C93.374 43.9998 93.4492 43.7092 93.5995 43.4663C93.7499 43.2234 93.9639 43.0368 94.2415 42.9067C94.5191 42.7766 94.8502 42.7115 95.2348 42.7115C95.6165 42.7115 95.9447 42.7766 96.2194 42.9067C96.4941 43.0368 96.7052 43.2234 96.8527 43.4663C97.003 43.7092 97.0782 43.9998 97.0782 44.3381C97.0782 44.6764 97.003 44.9671 96.8527 45.21C96.7023 45.4529 96.4883 45.6394 96.2107 45.7695C95.9331 45.8996 95.602 45.9647 95.2174 45.9647ZM96.1066 44.3381C96.1066 44.0605 96.0285 43.8465 95.8724 43.6962C95.7191 43.5429 95.5037 43.4663 95.2261 43.4663C94.9485 43.4663 94.7316 43.5429 94.5755 43.6962C94.4222 43.8494 94.3456 44.0634 94.3456 44.3381C94.3456 44.6157 94.4222 44.8311 94.5755 44.9844C94.7316 45.1348 94.9485 45.21 95.2261 45.21C95.5037 45.21 95.7191 45.1333 95.8724 44.9801C96.0285 44.8268 96.1066 44.6128 96.1066 44.3381Z" fill="white"/>
<path d="M98.944 42.7896H100.002L100.935 44.8846L101.863 42.7896H102.9V45.8866H102.041V44.0822L101.256 45.8866H100.571L99.7898 44.0909V45.8866H98.944V42.7896Z" fill="white"/>
<path d="M105.811 44.6027C105.811 44.8109 105.863 44.9642 105.967 45.0625C106.074 45.1608 106.242 45.21 106.47 45.21C106.702 45.21 106.87 45.1608 106.974 45.0625C107.081 44.9642 107.134 44.8109 107.134 44.6027V42.7896H108.071V44.529C108.071 45.0379 107.934 45.4051 107.659 45.6307C107.384 45.8534 106.988 45.9647 106.47 45.9647C105.956 45.9647 105.561 45.8534 105.286 45.6307C105.012 45.4051 104.874 45.0379 104.874 44.529V42.7896H105.811V44.6027Z" fill="white"/>
<path d="M110.039 42.7896H110.872L112.421 44.6504V42.7896H113.306V45.8866H112.473L110.924 44.0258V45.8866H110.039V42.7896Z" fill="white"/>
<path d="M115.31 42.7896H116.247V45.8866H115.31V42.7896Z" fill="white"/>
<path d="M121.521 43.8133L120.597 43.913C120.542 43.754 120.46 43.6398 120.35 43.5704C120.24 43.501 120.091 43.4663 119.903 43.4663C119.646 43.4663 119.445 43.5414 119.3 43.6918C119.155 43.8393 119.083 44.0547 119.083 44.3381C119.083 44.6215 119.155 44.8384 119.3 44.9887C119.447 45.1362 119.654 45.21 119.92 45.21C120.331 45.21 120.572 45.0509 120.645 44.7328H121.582C121.544 45.1232 121.376 45.4268 121.078 45.6437C120.783 45.8577 120.39 45.9647 119.899 45.9647C119.505 45.9647 119.176 45.8953 118.91 45.7565C118.646 45.6177 118.447 45.4268 118.311 45.1839C118.178 44.9381 118.111 44.6562 118.111 44.3381C118.111 44.0287 118.178 43.7511 118.311 43.5053C118.447 43.2595 118.648 43.0658 118.914 42.9241C119.18 42.7824 119.511 42.7115 119.907 42.7115C120.801 42.7115 121.339 43.0788 121.521 43.8133Z" fill="white"/>
<path d="M124.29 42.7896H125.383L126.728 45.8866H125.756L125.527 45.3227H124.113L123.896 45.8866H122.946L124.29 42.7896ZM125.266 44.6287L124.824 43.4966L124.381 44.6287H125.266Z" fill="white"/>
<path d="M131.502 43.8133L130.578 43.913C130.523 43.754 130.441 43.6398 130.331 43.5704C130.221 43.501 130.072 43.4663 129.884 43.4663C129.627 43.4663 129.426 43.5414 129.281 43.6918C129.137 43.8393 129.064 44.0547 129.064 44.3381C129.064 44.6215 129.137 44.8384 129.281 44.9887C129.429 45.1362 129.636 45.21 129.902 45.21C130.312 45.21 130.554 45.0509 130.626 44.7328H131.563C131.525 45.1232 131.358 45.4268 131.06 45.6437C130.765 45.8577 130.372 45.9647 129.88 45.9647C129.487 45.9647 129.157 45.8953 128.891 45.7565C128.628 45.6177 128.428 45.4268 128.292 45.1839C128.159 44.9381 128.093 44.6562 128.093 44.3381C128.093 44.0287 128.159 43.7511 128.292 43.5053C128.428 43.2595 128.629 43.0658 128.895 42.9241C129.161 42.7824 129.492 42.7115 129.889 42.7115C130.782 42.7115 131.32 43.0788 131.502 43.8133ZM129.654 45.7912L130.066 45.8866L129.984 46.0775C130.166 46.0977 130.301 46.1411 130.387 46.2076C130.474 46.277 130.518 46.3666 130.518 46.4765C130.518 46.6038 130.454 46.7035 130.327 46.7758C130.199 46.8481 130.02 46.8842 129.789 46.8842C129.578 46.8842 129.412 46.864 129.29 46.8235V46.4722C129.362 46.4837 129.426 46.4924 129.481 46.4982C129.539 46.5069 129.594 46.5112 129.646 46.5112C129.738 46.5112 129.805 46.5025 129.845 46.4852C129.889 46.4707 129.91 46.4476 129.91 46.4158C129.91 46.3753 129.884 46.3478 129.832 46.3334C129.783 46.3189 129.698 46.3117 129.576 46.3117H129.425L129.654 45.7912Z" fill="white"/>
<path d="M134.272 42.7896H135.365L136.709 45.8866H135.738L135.508 45.3227H134.094L133.877 45.8866H132.927L134.272 42.7896ZM135.248 44.6287L134.805 43.4966L134.363 44.6287H135.248ZM133.838 42.5337C133.838 42.2763 133.886 42.0913 133.981 41.9785C134.077 41.8657 134.22 41.8093 134.411 41.8093C134.549 41.8093 134.714 41.857 134.905 41.9525C134.98 41.9901 135.038 42.0161 135.079 42.0305C135.119 42.045 135.155 42.0522 135.187 42.0522C135.242 42.0522 135.278 42.0349 135.295 42.0002C135.313 41.9626 135.321 41.9033 135.321 41.8223H135.838C135.838 42.071 135.79 42.2546 135.694 42.3732C135.599 42.4889 135.456 42.5467 135.265 42.5467C135.129 42.5467 134.969 42.5004 134.784 42.4079C134.642 42.3385 134.544 42.3038 134.489 42.3038C134.437 42.3038 134.4 42.324 134.38 42.3645C134.363 42.4021 134.354 42.4585 134.354 42.5337H133.838Z" fill="white"/>
<path d="M139.918 45.9647C139.536 45.9647 139.208 45.8996 138.933 45.7695C138.658 45.6394 138.446 45.4529 138.296 45.21C138.148 44.9671 138.074 44.6764 138.074 44.3381C138.074 43.9998 138.149 43.7092 138.3 43.4663C138.45 43.2234 138.664 43.0368 138.942 42.9067C139.219 42.7766 139.551 42.7115 139.935 42.7115C140.317 42.7115 140.645 42.7766 140.92 42.9067C141.194 43.0368 141.406 43.2234 141.553 43.4663C141.703 43.7092 141.779 43.9998 141.779 44.3381C141.779 44.6764 141.703 44.9671 141.553 45.21C141.403 45.4529 141.189 45.6394 140.911 45.7695C140.633 45.8996 140.302 45.9647 139.918 45.9647ZM140.807 44.3381C140.807 44.0605 140.729 43.8465 140.573 43.6962C140.419 43.5429 140.204 43.4663 139.926 43.4663C139.649 43.4663 139.432 43.5429 139.276 43.6962C139.123 43.8494 139.046 44.0634 139.046 44.3381C139.046 44.6157 139.123 44.8311 139.276 44.9844C139.432 45.1348 139.649 45.21 139.926 45.21C140.204 45.21 140.419 45.1333 140.573 44.9801C140.729 44.8268 140.807 44.6128 140.807 44.3381Z" fill="white"/>
<path d="M51.1512 51.3866C50.7695 51.3866 50.4413 51.3215 50.1666 51.1914C49.8918 51.0613 49.6793 50.8748 49.5289 50.6319C49.3815 50.389 49.3077 50.0984 49.3077 49.76C49.3077 49.4217 49.3829 49.1311 49.5333 48.8882C49.6836 48.6453 49.8976 48.4588 50.1752 48.3286C50.4528 48.1985 50.7839 48.1335 51.1685 48.1335C51.5502 48.1335 51.8784 48.1985 52.1532 48.3286C52.4279 48.4588 52.639 48.6453 52.7864 48.8882C52.9368 49.1311 53.012 49.4217 53.012 49.76C53.012 50.0984 52.9368 50.389 52.7864 50.6319C52.6361 50.8748 52.4221 51.0613 52.1445 51.1914C51.8669 51.3215 51.5358 51.3866 51.1512 51.3866ZM52.0404 49.76C52.0404 49.4824 51.9623 49.2684 51.8061 49.1181C51.6529 48.9648 51.4375 48.8882 51.1599 48.8882C50.8823 48.8882 50.6654 48.9648 50.5092 49.1181C50.356 49.2713 50.2793 49.4853 50.2793 49.76C50.2793 50.0376 50.356 50.2531 50.5092 50.4063C50.6654 50.5567 50.8823 50.6319 51.1599 50.6319C51.4375 50.6319 51.6529 50.5552 51.8061 50.402C51.9623 50.2487 52.0404 50.0347 52.0404 49.76Z" fill="white"/>
<path d="M54.8778 48.2115H56.4696C57.3979 48.2115 57.862 48.5542 57.862 49.2395C57.862 49.4593 57.8157 49.6386 57.7232 49.7774C57.6307 49.9133 57.4947 50.0217 57.3155 50.1027L58.0745 51.3085H57.0726L56.461 50.2805H55.7539V51.3085H54.8778V48.2115ZM56.4133 49.6126C56.6041 49.6126 56.7429 49.5851 56.8297 49.5301C56.9193 49.4723 56.9641 49.3769 56.9641 49.2439C56.9641 49.1108 56.9222 49.0169 56.8383 48.9619C56.7545 48.907 56.6157 48.8795 56.4219 48.8795H55.7539V49.6126H56.4133Z" fill="white"/>
<path d="M60.8416 48.2115H61.9347L63.2793 51.3085H62.3077L62.0778 50.7447H60.6638L60.4469 51.3085H59.497L60.8416 48.2115ZM61.8176 50.0506L61.3751 48.9185L60.9327 50.0506H61.8176Z" fill="white"/>
<path d="M64.9736 48.2115H65.9105V50.5495H67.6715L67.5761 51.3085H64.9736V48.2115Z" fill="white"/>
<path d="M71.9051 48.2115H74.6161V48.8925H72.8204V49.3957H74.5293V50.0767H72.8204V50.6275H74.7202L74.6334 51.3085H71.9051V48.2115Z" fill="white"/>
<path d="M79.0316 48.2115H81.7425V48.8925H79.9468V49.3957H81.6558V50.0767H79.9468V50.6275H81.8466L81.7599 51.3085H79.0316V48.2115Z" fill="white"/>
<path d="M83.445 50.3022H84.3645C84.4194 50.5856 84.6566 50.7273 85.0759 50.7273C85.5038 50.7273 85.7178 50.6246 85.7178 50.4193C85.7178 50.347 85.686 50.2892 85.6224 50.2458C85.5588 50.1996 85.4547 50.1663 85.3101 50.1461L84.7549 50.0637C84.3269 49.9972 84.0146 49.8858 83.818 49.7297C83.6242 49.5735 83.5274 49.3595 83.5274 49.0877C83.5274 48.787 83.6633 48.5528 83.9351 48.385C84.2098 48.2173 84.5872 48.1335 85.0672 48.1335C85.9549 48.1335 86.4523 48.4443 86.5593 49.066L85.6701 49.1528C85.6238 49.0255 85.5516 48.9345 85.4532 48.8795C85.3549 48.8217 85.2161 48.7928 85.0368 48.7928C84.846 48.7928 84.6985 48.8159 84.5944 48.8622C84.4932 48.9084 84.4426 48.9749 84.4426 49.0617C84.4426 49.134 84.4701 49.1889 84.525 49.2265C84.5799 49.2641 84.6811 49.2945 84.8286 49.3176L85.5053 49.426C85.9072 49.4897 86.1978 49.5981 86.3771 49.7514C86.5564 49.9017 86.6461 50.1143 86.6461 50.389C86.6461 50.7186 86.513 50.9673 86.247 51.135C85.981 51.3027 85.5891 51.3866 85.0715 51.3866C84.0536 51.3866 83.5115 51.0251 83.445 50.3022Z" fill="white"/>
<path d="M91.7159 49.2352L90.792 49.335C90.7371 49.1759 90.6546 49.0617 90.5448 48.9923C90.4349 48.9229 90.2859 48.8882 90.098 48.8882C89.8406 48.8882 89.6397 48.9634 89.4951 49.1137C89.3505 49.2612 89.2782 49.4766 89.2782 49.76C89.2782 50.0434 89.3505 50.2603 89.4951 50.4107C89.6425 50.5581 89.8493 50.6319 90.1153 50.6319C90.526 50.6319 90.7674 50.4728 90.8397 50.1547H91.7766C91.739 50.5451 91.5713 50.8488 91.2735 51.0656C90.9785 51.2796 90.5852 51.3866 90.0937 51.3866C89.7004 51.3866 89.3707 51.3172 89.1047 51.1784C88.8416 51.0396 88.642 50.8488 88.5061 50.6059C88.3731 50.3601 88.3066 50.0781 88.3066 49.76C88.3066 49.4506 88.3731 49.173 88.5061 48.9272C88.642 48.6814 88.843 48.4877 89.109 48.346C89.3751 48.2043 89.7062 48.1335 90.1023 48.1335C90.9959 48.1335 91.5337 48.5007 91.7159 49.2352Z" fill="white"/>
<path d="M93.5589 48.2115H95.1508C96.079 48.2115 96.5432 48.5542 96.5432 49.2395C96.5432 49.4593 96.4969 49.6386 96.4044 49.7774C96.3118 49.9133 96.1759 50.0217 95.9966 50.1027L96.7557 51.3085H95.7537L95.1421 50.2805H94.4351V51.3085H93.5589V48.2115ZM95.0944 49.6126C95.2853 49.6126 95.4241 49.5851 95.5108 49.5301C95.6005 49.4723 95.6453 49.3769 95.6453 49.2439C95.6453 49.1108 95.6034 49.0169 95.5195 48.9619C95.4356 48.907 95.2968 48.8795 95.1031 48.8795H94.4351V49.6126H95.0944Z" fill="white"/>
<path d="M98.448 48.2115H99.3849V51.3085H98.448V48.2115Z" fill="white"/>
<path d="M102.234 48.9706H101.089V48.2115H104.316V48.9706H103.171V51.3085H102.234V48.9706Z" fill="white"/>
<path d="M106.577 48.2115H107.67L109.015 51.3085H108.043L107.813 50.7447H106.399L106.182 51.3085H105.233L106.577 48.2115ZM107.553 50.0506L107.111 48.9185L106.668 50.0506H107.553Z" fill="white"/>
</svg>
