<svg width="158" height="64" viewBox="0 0 158 64" fill="none" xmlns="http://www.w3.org/2000/svg">
<path d="M13.3377 29.8929C12.2606 29.4691 11.519 28.8952 11.1129 28.1713C10.7068 27.4473 10.5391 26.6439 10.6097 25.7611C10.698 24.8605 10.9805 23.907 11.4572 22.9006C11.9516 21.8764 12.552 20.8523 13.2583 19.8282C13.9822 18.8041 14.7768 17.8064 15.642 16.8353C16.5072 15.8641 17.3636 14.9724 18.2112 14.1602C19.0587 13.348 19.8533 12.6417 20.5949 12.0413C21.3365 11.441 21.9369 10.9995 22.3959 10.717C23.0316 10.3286 23.5613 10.1432 23.9851 10.1608C24.4089 10.1608 24.7444 10.2932 24.9916 10.5581C25.2564 10.8053 25.433 11.1585 25.5213 11.6175C25.6272 12.059 25.6714 12.5357 25.6537 13.0478C25.6537 13.5422 25.6007 14.0454 25.4948 14.5575C25.4065 15.0519 25.2829 15.4845 25.124 15.8553C24.9827 16.2261 24.8238 16.4998 24.6473 16.6764C24.4883 16.8529 24.3294 16.8618 24.1705 16.7029C24.1528 16.5616 24.1705 16.3497 24.2235 16.0672C24.2764 15.767 24.3382 15.4315 24.4089 15.0607C24.4972 14.6899 24.5766 14.3103 24.6473 13.9218C24.7179 13.5334 24.762 13.1802 24.7797 12.8624C24.815 12.5269 24.8062 12.2444 24.7532 12.0148C24.7179 11.7853 24.6208 11.6529 24.4619 11.6175C23.8438 11.4586 23.1022 11.6087 22.237 12.0678C21.3895 12.5092 20.4978 13.1537 19.5619 14.0013C18.6438 14.8312 17.7256 15.8023 16.8074 16.9147C15.9069 18.0095 15.0858 19.1396 14.3442 20.3049C13.6026 21.4703 12.9934 22.6092 12.5167 23.7216C12.0399 24.8164 11.7662 25.7875 11.6956 26.6351C11.6426 27.465 11.828 28.1095 12.2518 28.5686C12.6933 29.01 13.4613 29.1513 14.5561 28.9923C15.5626 28.8511 16.4896 28.4979 17.3371 27.9329C18.2023 27.3502 19.0322 26.7146 19.8268 26.0259C20.639 25.3196 21.4424 24.631 22.237 23.96C23.0316 23.2714 23.8615 22.7505 24.7267 22.3973C25.0445 22.2737 25.2917 22.3179 25.4683 22.5298C25.6625 22.7417 25.7155 22.9977 25.6272 23.2979C25.5213 23.598 25.2035 23.9953 24.6737 24.4897C24.1617 24.9841 23.5172 25.505 22.7403 26.0524C21.981 26.5821 21.1423 27.1207 20.2241 27.668C19.3059 28.1978 18.4054 28.6569 17.5225 29.0453C16.6573 29.4338 15.8451 29.7163 15.0858 29.8929C14.3442 30.0694 13.7615 30.0694 13.3377 29.8929Z" fill="white"/>
<path d="M26.2745 29.8929C26.2392 29.8752 26.2392 29.6721 26.2745 29.2837C26.3275 28.8776 26.3982 28.3743 26.4864 27.774C26.5747 27.1736 26.6895 26.5115 26.8308 25.7875C26.972 25.0636 27.1221 24.375 27.281 23.7216C27.4399 23.0507 27.6077 22.468 27.7842 21.9736C27.9785 21.4615 28.1639 21.1084 28.3405 20.9141C28.4641 20.7905 28.5877 20.7905 28.7113 20.9141C28.8349 21.0201 28.9585 21.1613 29.0821 21.3379C29.2057 21.4968 29.3293 21.6469 29.4529 21.7882C29.5765 21.9118 29.7089 21.9206 29.8502 21.8146C30.3446 21.126 30.8831 20.4727 31.4658 19.8547C32.0661 19.219 32.7283 18.6716 33.4522 18.2126C33.5229 18.1596 33.7171 18.0801 34.0349 17.9742C34.3528 17.8506 34.7147 17.7358 35.1209 17.6299C35.527 17.5063 35.9419 17.4091 36.3657 17.3385C36.8071 17.2502 37.1779 17.2149 37.4781 17.2326C37.7959 17.2326 38.0078 17.312 38.1138 17.4709C38.2374 17.6122 38.1844 17.8594 37.9549 18.2126C36.8954 18.2302 35.9066 18.5392 34.9884 19.1396C34.0703 19.7399 33.2227 20.4815 32.4458 21.3644C31.6689 22.2472 30.9626 23.2096 30.3269 24.2514C29.6912 25.2755 29.135 26.229 28.6583 27.1118C28.1992 27.9947 27.8107 28.7275 27.4929 29.3102C27.1927 29.8929 26.972 30.1842 26.8308 30.1842C26.8131 30.1842 26.7336 30.1489 26.5924 30.0783C26.4511 29.99 26.3452 29.9282 26.2745 29.8929Z" fill="white"/>
<path d="M36.9071 29.8929C37.631 27.5621 38.2843 25.7169 38.867 24.3573C39.4674 22.98 39.9618 22.0177 40.3503 21.4703C40.7564 20.923 41.0301 20.7464 41.1713 20.9406C41.3126 21.1348 41.2949 21.6292 41.1183 22.4238C40.9594 23.2184 40.6063 24.2867 40.0589 25.6286C39.5292 26.9529 38.7787 28.4715 37.8076 30.1842C37.6663 30.2372 37.4986 30.246 37.3044 30.2107C37.1101 30.1754 36.9777 30.0694 36.9071 29.8929ZM41.5421 17.1531C41.5068 17.0648 41.4891 16.9059 41.4891 16.6764C41.4891 16.4468 41.5068 16.3056 41.5421 16.2526C41.9482 16.1113 42.2572 16.0937 42.4691 16.1996C42.681 16.3056 42.8134 16.4645 42.8664 16.6764C42.9194 16.8706 42.9106 17.0825 42.8399 17.312C42.787 17.5416 42.6898 17.7181 42.5486 17.8418C42.4073 17.9477 42.2396 17.9654 42.0454 17.8947C41.8688 17.8064 41.701 17.5592 41.5421 17.1531Z" fill="white"/>
<path d="M42.3484 29.8929C42.1365 29.7516 42.1276 29.5662 42.3219 29.3367C42.5338 29.0895 42.8604 28.8334 43.3018 28.5686C43.7609 28.2861 44.2907 27.9947 44.891 27.6945C45.4914 27.3944 46.0652 27.1118 46.6126 26.847C47.1776 26.5821 47.672 26.3526 48.0958 26.1583C48.5196 25.9465 48.7933 25.7875 48.9169 25.6816C49.4996 25.1872 49.7997 24.7811 49.8174 24.4632C49.8527 24.1278 49.7115 23.8629 49.3936 23.6687C49.0758 23.4568 48.6255 23.2979 48.0428 23.1919C47.4778 23.0683 46.8863 22.9624 46.2683 22.8741C45.6679 22.7681 45.0852 22.6622 44.5202 22.5563C43.9728 22.4503 43.5579 22.309 43.2754 22.1325C42.9928 21.9559 42.8957 21.7264 42.984 21.4438C43.09 21.1437 43.4784 20.764 44.1494 20.3049C44.3966 20.1284 44.7586 19.8723 45.2353 19.5369C45.7121 19.2014 46.2241 18.857 46.7715 18.5039C47.3365 18.1508 47.8927 17.8329 48.4401 17.5504C48.9875 17.2679 49.4466 17.0825 49.8174 16.9942C50.0116 16.9589 50.2059 16.9765 50.4001 17.0472C50.612 17.1178 50.7797 17.2237 50.9033 17.365C51.0269 17.4886 51.0799 17.6299 51.0622 17.7888C51.0622 17.9477 50.9475 18.089 50.7179 18.2126C49.7114 18.7776 48.7403 19.3073 47.8045 19.8017C46.8863 20.2961 45.9593 20.8611 45.0234 21.4968C44.9705 21.6381 44.9793 21.7617 45.0499 21.8676C45.1382 21.9736 45.2353 22.053 45.3413 22.106C47.2129 22.3002 48.6167 22.5739 49.5525 22.9271C50.506 23.2802 51.1064 23.6687 51.3536 24.0924C51.6184 24.5162 51.5919 24.9665 51.2741 25.4432C50.9563 25.92 50.4795 26.3879 49.8439 26.847C49.2259 27.3061 48.5108 27.7387 47.6985 28.1448C46.8863 28.5509 46.1005 28.8952 45.3413 29.1777C44.5997 29.4603 43.9463 29.6721 43.3813 29.8134C42.8163 29.9547 42.472 29.9812 42.3484 29.8929Z" fill="white"/>
<path d="M65.3615 29.8929C64.4786 29.5221 63.8959 29.01 63.6134 28.3567C63.3309 27.6857 63.2338 26.9706 63.3221 26.2113C63.4103 25.4344 63.6222 24.6575 63.9577 23.8806C64.3109 23.1036 64.6728 22.415 65.0436 21.8146C65.1672 21.6028 65.3968 21.2408 65.7323 20.7287C66.0678 20.2167 66.4209 19.6781 66.7917 19.1131C67.1802 18.5304 67.5422 17.9918 67.8776 17.4974C68.2308 16.9854 68.478 16.6322 68.6192 16.438C68.8311 15.0784 69.2549 14.0013 69.8906 13.2067C70.5262 12.3945 71.2414 11.8383 72.0359 11.5381C72.8482 11.2379 73.6781 11.1761 74.5256 11.3527C75.3732 11.5116 76.1148 11.8912 76.7504 12.4916C77.3861 13.0743 77.8452 13.86 78.1277 14.8488C78.4102 15.8376 78.3837 16.9942 78.0482 18.3185C77.7304 19.6428 77.0418 21.126 75.9823 22.7681C74.9229 24.4103 73.3691 26.1848 71.3208 28.0918C70.9677 28.4273 70.5439 28.754 70.0495 29.0718C69.5727 29.372 69.0607 29.6192 68.5133 29.8134C67.9836 30.0076 67.445 30.1224 66.8977 30.1577C66.3503 30.193 65.8382 30.1048 65.3615 29.8929ZM64.4345 27.8005C64.611 28.5951 64.9465 29.0895 65.4409 29.2837C65.9353 29.4779 66.518 29.4426 67.189 29.1777C67.86 28.9129 68.5928 28.4626 69.3873 27.827C70.1819 27.1913 70.9765 26.4497 71.7711 25.6021C72.5657 24.7369 73.3249 23.8011 74.0489 22.7946C74.7728 21.7882 75.3997 20.7905 75.9294 19.8017C76.4768 18.8129 76.8917 17.8682 77.1742 16.9677C77.4567 16.0672 77.545 15.2903 77.4391 14.6369C77.3508 13.966 77.033 13.4627 76.4856 13.1272C75.9559 12.7918 75.1348 12.6946 74.0224 12.8359C73.6163 13.189 73.0777 13.7099 72.4067 14.3986C71.7358 15.0696 71.0206 15.8376 70.2614 16.7029C69.5021 17.5681 68.7428 18.5039 67.9836 19.5104C67.2243 20.4992 66.5533 21.488 65.9706 22.4768C65.388 23.4656 64.9465 24.4191 64.6464 25.3373C64.3462 26.2555 64.2756 27.0765 64.4345 27.8005Z" fill="white"/>
<path d="M78.2601 29.8929C77.7481 29.5221 77.4126 29.0541 77.2537 28.4891C77.1124 27.9241 77.0948 27.3149 77.2007 26.6616C77.3066 25.9906 77.492 25.302 77.7569 24.5957C78.0394 23.8894 78.3396 23.2096 78.6574 22.5563C78.9929 21.9029 79.3108 21.3026 79.6109 20.7552C79.9288 20.2078 80.176 19.7576 80.3525 19.4044C80.4055 19.2985 80.5291 19.0424 80.7233 18.6363C80.9352 18.2302 81.1559 17.7888 81.3855 17.312C81.615 16.8353 81.8269 16.3939 82.0211 15.9877C82.233 15.564 82.3655 15.2991 82.4184 15.1932C82.4714 15.1049 82.542 14.9371 82.6303 14.6899C82.7363 14.4251 82.851 14.1425 82.9746 13.8424C83.0982 13.5422 83.2307 13.2597 83.3719 12.9948C83.5308 12.7123 83.6898 12.5092 83.8487 12.3856C84.0253 12.262 84.193 12.2444 84.3519 12.3327C84.5285 12.421 84.6962 12.6858 84.8551 13.1272C84.7845 13.3038 84.6079 13.657 84.3254 14.1867C84.0606 14.7164 83.7427 15.3521 83.3719 16.0937C83.0011 16.8353 82.5862 17.6563 82.1271 18.5569C81.6857 19.4574 81.2531 20.3667 80.8293 21.2849C80.4055 22.2031 80.0082 23.1036 79.6374 23.9865C79.2666 24.8517 78.9576 25.6463 78.7104 26.3702C78.4809 27.0765 78.3396 27.668 78.2866 28.1448C78.2513 28.6039 78.3396 28.8864 78.5515 28.9923C78.7987 29.1159 79.1165 29.1689 79.505 29.1513C79.9111 29.1159 80.326 29.063 80.7498 28.9923C81.1736 28.9217 81.5885 28.8511 81.9947 28.7805C82.4008 28.6922 82.7539 28.6569 83.0541 28.6745C83.1247 28.8334 83.0718 28.9923 82.8952 29.1513C82.7186 29.2925 82.4714 29.4249 82.1536 29.5485C81.8357 29.6545 81.4649 29.7516 81.0412 29.8399C80.635 29.9105 80.2378 29.9635 79.8493 29.9988C79.4785 30.0341 79.143 30.043 78.8428 30.0253C78.5603 30.0076 78.3661 29.9635 78.2601 29.8929Z" fill="white"/>
<path d="M83.9663 29.8929C84.6902 27.5621 85.3436 25.7169 85.9262 24.3573C86.5266 22.98 87.021 22.0177 87.4095 21.4703C87.8156 20.923 88.0893 20.7464 88.2305 20.9406C88.3718 21.1348 88.3541 21.6292 88.1776 22.4238C88.0186 23.2184 87.6655 24.2867 87.1181 25.6286C86.5884 26.9529 85.838 28.4715 84.8668 30.1842C84.7255 30.2372 84.5578 30.246 84.3636 30.2107C84.1693 30.1754 84.0369 30.0694 83.9663 29.8929ZM88.6013 17.1531C88.566 17.0648 88.5484 16.9059 88.5484 16.6764C88.5484 16.4468 88.566 16.3056 88.6013 16.2526C89.0074 16.1113 89.3164 16.0937 89.5283 16.1996C89.7402 16.3056 89.8727 16.4645 89.9256 16.6764C89.9786 16.8706 89.9698 17.0825 89.8991 17.312C89.8462 17.5416 89.749 17.7181 89.6078 17.8418C89.4665 17.9477 89.2988 17.9654 89.1046 17.8947C88.928 17.8064 88.7602 17.5592 88.6013 17.1531Z" fill="white"/>
<path d="M90.1492 29.575C89.7784 29.3631 89.5135 29.0277 89.3546 28.5686C89.1957 28.1095 89.1074 27.5886 89.0897 27.0059C89.0721 26.4232 89.1074 25.814 89.1957 25.1784C89.284 24.5427 89.3899 23.9247 89.5135 23.3243C89.6371 22.724 89.7607 22.1854 89.8843 21.7087C90.0079 21.232 90.0962 20.8611 90.1492 20.5963C90.2375 20.5433 90.3257 20.5433 90.414 20.5963C90.52 20.6493 90.6171 20.7287 90.7054 20.8347C90.8113 20.923 90.8908 21.0112 90.9437 21.0995C91.0144 21.1702 91.0497 21.2055 91.0497 21.2055C91.1027 21.8235 91.1027 22.4327 91.0497 23.033C91.0144 23.6157 90.9614 24.1984 90.8908 24.7811C90.8378 25.3638 90.7848 25.9553 90.7319 26.5556C90.6965 27.156 90.6965 27.7652 90.7319 28.3832C90.8731 28.648 91.1645 28.6569 91.6059 28.4097C92.0473 28.1448 92.5859 27.7298 93.2215 27.1648C93.8572 26.5821 94.5458 25.9023 95.2875 25.1254C96.0467 24.3308 96.7883 23.5451 97.5123 22.7681C98.2539 21.9912 98.9513 21.2673 99.6047 20.5963C100.258 19.9077 100.805 19.3868 101.247 19.0336C101.706 18.6628 102.024 18.5127 102.2 18.5834C102.377 18.6363 102.35 19.0071 102.121 19.6958C101.697 20.0666 101.194 20.6228 100.611 21.3644C100.028 22.106 99.3928 22.9094 98.7041 23.7746C98.0155 24.6222 97.3004 25.4697 96.5588 26.3173C95.8172 27.1648 95.0667 27.8976 94.3075 28.5156C93.5659 29.1159 92.8419 29.5397 92.1356 29.7869C91.4293 30.0165 90.7672 29.9458 90.1492 29.575Z" fill="white"/>
<path d="M103.192 29.8929C102.662 29.7163 102.256 29.4514 101.974 29.0983C101.709 28.7275 101.532 28.3214 101.444 27.8799C101.356 27.4385 101.338 26.9794 101.391 26.5027C101.461 26.0083 101.567 25.5403 101.709 25.0989C102.238 24.5339 102.83 23.8894 103.483 23.1654C104.154 22.4238 104.861 21.6999 105.602 20.9936C106.344 20.2873 107.112 19.634 107.906 19.0336C108.719 18.4156 109.54 17.9477 110.37 17.6299C110.652 17.5063 110.873 17.5151 111.032 17.6563C111.208 17.7799 111.332 17.983 111.403 18.2655C111.473 18.548 111.5 18.8747 111.482 19.2455C111.482 19.6163 111.456 19.9783 111.403 20.3314C111.35 20.6846 111.279 21.0024 111.191 21.2849C111.102 21.5674 111.014 21.7617 110.926 21.8676C110.714 22.1148 110.299 22.4062 109.681 22.7417C109.081 23.0771 108.41 23.4479 107.668 23.8541C106.926 24.2425 106.185 24.6486 105.443 25.0724C104.702 25.4962 104.092 25.92 103.616 26.3437C103.139 26.7499 102.856 27.156 102.768 27.5621C102.68 27.9682 102.927 28.339 103.51 28.6745C104.11 28.7451 104.834 28.7187 105.682 28.5951C106.547 28.4538 107.421 28.2772 108.304 28.0653C109.204 27.8358 110.069 27.6062 110.899 27.3767C111.729 27.1295 112.409 26.9353 112.939 26.794L113.257 27.0854C112.868 27.5974 112.232 28.0653 111.35 28.4891C110.467 28.9129 109.513 29.266 108.489 29.5485C107.465 29.8134 106.467 29.99 105.496 30.0783C104.525 30.1489 103.757 30.0871 103.192 29.8929ZM109.522 19.7752C109.504 19.7576 109.372 19.837 109.125 20.0136C108.878 20.1725 108.569 20.3932 108.198 20.6757C107.845 20.9406 107.456 21.2408 107.032 21.5763C106.626 21.8941 106.247 22.1943 105.893 22.4768C105.558 22.7593 105.275 23.0065 105.046 23.2184C104.816 23.4126 104.719 23.5097 104.755 23.5097C105.037 23.5627 105.399 23.5274 105.841 23.4038C106.3 23.2625 106.768 23.0683 107.244 22.8211C107.739 22.5739 108.207 22.3002 108.648 22C109.089 21.6822 109.434 21.3732 109.681 21.073C109.946 20.7729 110.078 20.508 110.078 20.2785C110.096 20.0489 109.911 19.8812 109.522 19.7752Z" fill="white"/>
<path d="M112.753 29.8929C113.477 27.5621 114.131 25.7169 114.713 24.3573C115.314 22.98 115.808 22.0177 116.197 21.4703C116.603 20.923 116.876 20.7464 117.018 20.9406C117.159 21.1348 117.141 21.6292 116.965 22.4238C116.806 23.2184 116.453 24.2867 115.905 25.6286C115.375 26.9529 114.625 28.4715 113.654 30.1842C113.513 30.2372 113.345 30.246 113.151 30.2107C112.956 30.1754 112.824 30.0694 112.753 29.8929ZM117.388 17.1531C117.353 17.0648 117.335 16.9059 117.335 16.6764C117.335 16.4468 117.353 16.3056 117.388 16.2526C117.795 16.1113 118.104 16.0937 118.315 16.1996C118.527 16.3056 118.66 16.4645 118.713 16.6764C118.766 16.8706 118.757 17.0825 118.686 17.312C118.633 17.5416 118.536 17.7181 118.395 17.8418C118.254 17.9477 118.086 17.9654 117.892 17.8947C117.715 17.8064 117.547 17.5592 117.388 17.1531Z" fill="white"/>
<path d="M118.195 29.8929C118.159 29.8752 118.159 29.6721 118.195 29.2837C118.248 28.8776 118.318 28.3743 118.407 27.774C118.495 27.1736 118.61 26.5115 118.751 25.7875C118.892 25.0636 119.042 24.375 119.201 23.7216C119.36 23.0507 119.528 22.468 119.704 21.9736C119.899 21.4615 120.084 21.1084 120.261 20.9141C120.384 20.7905 120.508 20.7905 120.631 20.9141C120.755 21.0201 120.879 21.1613 121.002 21.3379C121.126 21.4968 121.249 21.6469 121.373 21.7882C121.497 21.9118 121.629 21.9206 121.77 21.8146C122.265 21.126 122.803 20.4727 123.386 19.8547C123.986 19.219 124.648 18.6716 125.372 18.2126C125.443 18.1596 125.637 18.0801 125.955 17.9742C126.273 17.8506 126.635 17.7358 127.041 17.6299C127.447 17.5063 127.862 17.4091 128.286 17.3385C128.727 17.2502 129.098 17.2149 129.398 17.2326C129.716 17.2326 129.928 17.312 130.034 17.4709C130.157 17.6122 130.104 17.8594 129.875 18.2126C128.815 18.2302 127.827 18.5392 126.909 19.1396C125.99 19.7399 125.143 20.4815 124.366 21.3644C123.589 22.2472 122.883 23.2096 122.247 24.2514C121.611 25.2755 121.055 26.229 120.578 27.1118C120.119 27.9947 119.731 28.7275 119.413 29.3102C119.113 29.8929 118.892 30.1842 118.751 30.1842C118.733 30.1842 118.654 30.1489 118.512 30.0783C118.371 29.99 118.265 29.9282 118.195 29.8929Z" fill="white"/>
<path d="M127.469 29.575C127.045 29.2219 126.807 28.701 126.754 28.0124C126.719 27.3237 126.816 26.5468 127.045 25.6816C127.292 24.8164 127.646 23.9159 128.105 22.98C128.581 22.0265 129.129 21.126 129.747 20.2785C130.365 19.4133 131.036 18.6452 131.76 17.9742C132.484 17.2855 133.208 16.7823 133.932 16.4645C134.655 16.129 135.362 16.0142 136.05 16.1202C136.739 16.2084 137.366 16.6057 137.931 17.312C138.284 17.7535 138.496 18.2037 138.567 18.6628C138.637 19.1042 138.628 19.5633 138.54 20.0401C138.452 20.4992 138.311 20.9759 138.116 21.4703C137.922 21.9471 137.728 22.4327 137.534 22.9271C137.357 23.4215 137.207 23.9247 137.083 24.4368C136.977 24.9488 136.96 25.4697 137.03 25.9994C137.119 26.6704 137.419 27.0677 137.931 27.1913C138.443 27.3149 139.052 27.2796 139.758 27.0854C140.482 26.8911 141.242 26.5821 142.036 26.1583C142.831 25.7346 143.564 25.3108 144.235 24.887C144.923 24.4632 145.488 24.0924 145.93 23.7746C146.389 23.4568 146.618 23.2979 146.618 23.2979C147.113 23.1919 147.386 23.2272 147.439 23.4038C147.51 23.5627 147.413 23.8099 147.148 24.1454C146.901 24.4632 146.521 24.834 146.009 25.2578C145.497 25.6639 144.914 26.0612 144.261 26.4497C143.608 26.8382 142.91 27.1913 142.169 27.5091C141.427 27.827 140.703 28.0477 139.997 28.1713C139.291 28.2772 138.62 28.2684 137.984 28.1448C137.366 28.0035 136.854 27.6857 136.448 27.1913C136.253 26.9794 136.103 26.7675 135.997 26.5556C135.909 26.3437 135.759 26.1583 135.547 25.9994C135.282 26.2466 134.964 26.5733 134.594 26.9794C134.223 27.3679 133.817 27.7652 133.375 28.1713C132.952 28.5597 132.492 28.9305 131.998 29.2837C131.521 29.6368 131.027 29.9017 130.515 30.0783C130.003 30.2548 129.482 30.3166 128.952 30.2637C128.44 30.2107 127.946 29.9812 127.469 29.575ZM127.76 28.6745C127.919 29.2395 128.272 29.5044 128.82 29.4691C129.367 29.4161 130.003 29.1424 130.727 28.648C131.451 28.1536 132.201 27.4826 132.978 26.6351C133.755 25.7699 134.452 24.8164 135.07 23.7746C135.688 22.7152 136.156 21.6028 136.474 20.4374C136.81 19.272 136.898 18.1243 136.739 16.9942C136.315 16.6587 135.786 16.6499 135.15 16.9677C134.514 17.2679 133.834 17.7711 133.11 18.4774C132.404 19.166 131.698 19.9959 130.992 20.9671C130.303 21.9206 129.694 22.8917 129.164 23.8806C128.634 24.8517 128.228 25.7699 127.946 26.6351C127.681 27.5003 127.619 28.1801 127.76 28.6745Z" fill="white"/>
<path d="M23.7693 46.1014H24.8147C24.8772 46.4236 25.1467 46.5847 25.6234 46.5847C26.11 46.5847 26.3532 46.468 26.3532 46.2345C26.3532 46.1524 26.3171 46.0866 26.2448 46.0373C26.1724 45.9847 26.0541 45.9469 25.8897 45.9239L25.2585 45.8302C24.772 45.7546 24.4169 45.628 24.1934 45.4505C23.9731 45.273 23.863 45.0297 23.863 44.7207C23.863 44.3788 24.0175 44.1125 24.3265 43.9218C24.6388 43.7311 25.0678 43.6358 25.6136 43.6358C26.6228 43.6358 27.1883 43.9892 27.3099 44.696L26.299 44.7946C26.2464 44.65 26.1642 44.5464 26.0524 44.484C25.9407 44.4182 25.7829 44.3853 25.579 44.3853C25.3621 44.3853 25.1944 44.4116 25.0761 44.4642C24.961 44.5168 24.9035 44.5925 24.9035 44.6911C24.9035 44.7733 24.9347 44.8357 24.9972 44.8785C25.0596 44.9212 25.1747 44.9557 25.3423 44.982L26.1116 45.1053C26.5686 45.1776 26.899 45.3009 27.1028 45.4751C27.3066 45.6461 27.4085 45.8877 27.4085 46.2C27.4085 46.5748 27.2573 46.8575 26.9548 47.0482C26.6524 47.2389 26.2069 47.3342 25.6185 47.3342C24.4613 47.3342 23.8449 46.9233 23.7693 46.1014Z" fill="white"/>
<path d="M31.3921 47.3342C30.9581 47.3342 30.585 47.2602 30.2727 47.1123C29.9604 46.9644 29.7188 46.7523 29.5478 46.4762C29.3802 46.2 29.2963 45.8696 29.2963 45.485C29.2963 45.1004 29.3818 44.77 29.5527 44.4938C29.7237 44.2177 29.967 44.0056 30.2826 43.8577C30.5982 43.7098 30.9746 43.6358 31.4118 43.6358C31.8458 43.6358 32.2189 43.7098 32.5312 43.8577C32.8435 44.0056 33.0835 44.2177 33.2511 44.4938C33.4221 44.77 33.5076 45.1004 33.5076 45.485C33.5076 45.8696 33.4221 46.2 33.2511 46.4762C33.0802 46.7523 32.8369 46.9644 32.5213 47.1123C32.2057 47.2602 31.8293 47.3342 31.3921 47.3342ZM32.403 45.485C32.403 45.1694 32.3142 44.9261 32.1367 44.7552C31.9625 44.5809 31.7175 44.4938 31.4019 44.4938C31.0863 44.4938 30.8398 44.5809 30.6623 44.7552C30.488 44.9294 30.4009 45.1727 30.4009 45.485C30.4009 45.8006 30.488 46.0455 30.6623 46.2197C30.8398 46.3907 31.0863 46.4762 31.4019 46.4762C31.7175 46.4762 31.9625 46.3891 32.1367 46.2148C32.3142 46.0406 32.403 45.7973 32.403 45.485Z" fill="white"/>
<path d="M35.6287 43.7246H36.6939V46.3825H38.6959L38.5874 47.2454H35.6287V43.7246Z" fill="white"/>
<path d="M41.6492 45.7858C41.6492 46.0225 41.7084 46.1967 41.8267 46.3085C41.9483 46.4203 42.139 46.4762 42.3987 46.4762C42.6617 46.4762 42.8524 46.4203 42.9707 46.3085C43.0924 46.1967 43.1532 46.0225 43.1532 45.7858V43.7246H44.2183V45.702C44.2183 46.2806 44.0622 46.6981 43.7499 46.9545C43.4376 47.2076 42.9872 47.3342 42.3987 47.3342C41.8136 47.3342 41.3648 47.2076 41.0525 46.9545C40.7402 46.6981 40.584 46.2806 40.584 45.702V43.7246H41.6492V45.7858Z" fill="white"/>
<path d="M50.1743 44.8883L49.124 45.0017C49.0615 44.8209 48.9678 44.6911 48.8429 44.6122C48.718 44.5333 48.5487 44.4938 48.335 44.4938C48.0424 44.4938 47.8139 44.5793 47.6495 44.7503C47.4852 44.9179 47.403 45.1628 47.403 45.485C47.403 45.8072 47.4852 46.0537 47.6495 46.2247C47.8172 46.3923 48.0522 46.4762 48.3547 46.4762C48.8215 46.4762 49.096 46.2954 49.1782 45.9337H50.2433C50.2006 46.3775 50.0099 46.7227 49.6713 46.9693C49.336 47.2126 48.8889 47.3342 48.33 47.3342C47.8829 47.3342 47.5082 47.2553 47.2057 47.0975C46.9066 46.9397 46.6797 46.7227 46.5252 46.4466C46.374 46.1672 46.2984 45.8466 46.2984 45.485C46.2984 45.1332 46.374 44.8176 46.5252 44.5382C46.6797 44.2588 46.9082 44.0385 47.2107 43.8774C47.5131 43.7163 47.8895 43.6358 48.3399 43.6358C49.3557 43.6358 49.9672 44.0533 50.1743 44.8883ZM48.0736 47.137L48.5421 47.2454L48.4484 47.4624C48.6555 47.4854 48.8084 47.5347 48.907 47.6103C49.0056 47.6892 49.0549 47.7912 49.0549 47.9161C49.0549 48.0607 48.9826 48.1742 48.838 48.2563C48.6933 48.3385 48.4895 48.3796 48.2265 48.3796C47.9865 48.3796 47.7975 48.3566 47.6594 48.3106V47.9112C47.7416 47.9243 47.8139 47.9342 47.8764 47.9407C47.9421 47.9506 48.0046 47.9555 48.0638 47.9555C48.169 47.9555 48.2446 47.9457 48.2906 47.9259C48.3399 47.9095 48.3646 47.8832 48.3646 47.847C48.3646 47.801 48.335 47.7698 48.2758 47.7534C48.2199 47.7369 48.1229 47.7287 47.9849 47.7287H47.8123L48.0736 47.137Z" fill="white"/>
<path d="M54.2076 47.3342C53.7736 47.3342 53.4005 47.2602 53.0882 47.1123C52.7759 46.9644 52.5343 46.7523 52.3633 46.4762C52.1956 46.2 52.1118 45.8696 52.1118 45.485C52.1118 45.1004 52.1973 44.77 52.3682 44.4938C52.5392 44.2177 52.7825 44.0056 53.0981 43.8577C53.4137 43.7098 53.7901 43.6358 54.2273 43.6358C54.6612 43.6358 55.0344 43.7098 55.3467 43.8577C55.659 44.0056 55.899 44.2177 56.0666 44.4938C56.2376 44.77 56.3231 45.1004 56.3231 45.485C56.3231 45.8696 56.2376 46.2 56.0666 46.4762C55.8957 46.7523 55.6524 46.9644 55.3368 47.1123C55.0212 47.2602 54.6448 47.3342 54.2076 47.3342ZM55.2185 45.485C55.2185 45.1694 55.1297 44.9261 54.9522 44.7552C54.778 44.5809 54.533 44.4938 54.2174 44.4938C53.9018 44.4938 53.6553 44.5809 53.4778 44.7552C53.3035 44.9294 53.2164 45.1727 53.2164 45.485C53.2164 45.8006 53.3035 46.0455 53.4778 46.2197C53.6553 46.3907 53.9018 46.4762 54.2174 46.4762C54.533 46.4762 54.778 46.3891 54.9522 46.2148C55.1297 46.0406 55.2185 45.7973 55.2185 45.485ZM53.103 43.4336C53.103 43.141 53.1572 42.9306 53.2657 42.8024C53.3742 42.6742 53.5369 42.6101 53.7539 42.6101C53.9117 42.6101 54.0991 42.6644 54.3161 42.7728C54.4015 42.8156 54.4673 42.8452 54.5133 42.8616C54.5593 42.878 54.6004 42.8863 54.6366 42.8863C54.6991 42.8863 54.7401 42.8665 54.7599 42.8271C54.7796 42.7843 54.7895 42.717 54.7895 42.6249H55.3763C55.3763 42.9076 55.322 43.1164 55.2135 43.2512C55.1051 43.3827 54.9423 43.4484 54.7254 43.4484C54.5708 43.4484 54.3884 43.3958 54.178 43.2906C54.0169 43.2117 53.9051 43.1723 53.8427 43.1723C53.7835 43.1723 53.7424 43.1953 53.7194 43.2413C53.6997 43.284 53.6898 43.3481 53.6898 43.4336H53.103Z" fill="white"/>
<path d="M58.4442 43.7246H61.5262V44.4988H59.4847V45.0708H61.4276V45.845H59.4847V46.4712H61.6446L61.5459 47.2454H58.4442V43.7246Z" fill="white"/>
<path d="M63.4616 46.1014H64.5071C64.5695 46.4236 64.8391 46.5847 65.3158 46.5847C65.8023 46.5847 66.0456 46.468 66.0456 46.2345C66.0456 46.1524 66.0094 46.0866 65.9371 46.0373C65.8648 45.9847 65.7464 45.9469 65.5821 45.9239L64.9509 45.8302C64.4643 45.7546 64.1093 45.628 63.8857 45.4505C63.6655 45.273 63.5553 45.0297 63.5553 44.7207C63.5553 44.3788 63.7098 44.1125 64.0189 43.9218C64.3312 43.7311 64.7602 43.6358 65.3059 43.6358C66.3152 43.6358 66.8806 43.9892 67.0022 44.696L65.9913 44.7946C65.9387 44.65 65.8566 44.5464 65.7448 44.484C65.633 44.4182 65.4752 44.3853 65.2714 44.3853C65.0544 44.3853 64.8868 44.4116 64.7684 44.4642C64.6533 44.5168 64.5958 44.5925 64.5958 44.6911C64.5958 44.7733 64.627 44.8357 64.6895 44.8785C64.752 44.9212 64.867 44.9557 65.0347 44.982L65.804 45.1053C66.2609 45.1776 66.5913 45.3009 66.7951 45.4751C66.999 45.6461 67.1009 45.8877 67.1009 46.2C67.1009 46.5748 66.9496 46.8575 66.6472 47.0482C66.3447 47.2389 65.8993 47.3342 65.3108 47.3342C64.1537 47.3342 63.5373 46.9233 63.4616 46.1014Z" fill="white"/>
<path d="M71.9646 43.7246H75.0466V44.4988H73.0051V45.0708H74.948V45.845H73.0051V46.4712H75.1649L75.0663 47.2454H71.9646V43.7246Z" fill="white"/>
<path d="M77.2483 43.7246H78.915C79.6251 43.7246 80.161 43.8741 80.5226 44.1733C80.8842 44.4692 81.065 44.9064 81.065 45.485C81.065 46.0439 80.876 46.4778 80.4979 46.7868C80.1199 47.0926 79.5775 47.2454 78.8706 47.2454H77.2483V43.7246ZM78.8953 46.4022C79.6218 46.4022 79.9851 46.0948 79.9851 45.4801C79.9851 44.8719 79.635 44.5678 78.9348 44.5678H78.2986V46.4022H78.8953Z" fill="white"/>
<path d="M84.2174 45.7858C84.2174 46.0225 84.2766 46.1967 84.3949 46.3085C84.5166 46.4203 84.7073 46.4762 84.967 46.4762C85.23 46.4762 85.4206 46.4203 85.539 46.3085C85.6606 46.1967 85.7214 46.0225 85.7214 45.7858V43.7246H86.7866V45.702C86.7866 46.2806 86.6304 46.6981 86.3181 46.9545C86.0058 47.2076 85.5554 47.3342 84.967 47.3342C84.3818 47.3342 83.9331 47.2076 83.6208 46.9545C83.3084 46.6981 83.1523 46.2806 83.1523 45.702V43.7246H84.2174V45.7858Z" fill="white"/>
<path d="M92.7426 44.8883L91.6922 45.0017C91.6297 44.8209 91.536 44.6911 91.4111 44.6122C91.2862 44.5333 91.1169 44.4938 90.9032 44.4938C90.6106 44.4938 90.3821 44.5793 90.2178 44.7503C90.0534 44.9179 89.9712 45.1628 89.9712 45.485C89.9712 45.8072 90.0534 46.0537 90.2178 46.2247C90.3854 46.3923 90.6205 46.4762 90.9229 46.4762C91.3898 46.4762 91.6643 46.2954 91.7465 45.9337H92.8116C92.7689 46.3775 92.5782 46.7227 92.2396 46.9693C91.9043 47.2126 91.4572 47.3342 90.8983 47.3342C90.4512 47.3342 90.0764 47.2553 89.774 47.0975C89.4748 46.9397 89.248 46.7227 89.0935 46.4466C88.9422 46.1672 88.8666 45.8466 88.8666 45.485C88.8666 45.1332 88.9422 44.8176 89.0935 44.5382C89.248 44.2588 89.4765 44.0385 89.7789 43.8774C90.0814 43.7163 90.4578 43.6358 90.9081 43.6358C91.924 43.6358 92.5354 44.0533 92.7426 44.8883Z" fill="white"/>
<path d="M95.8912 43.7246H97.1339L98.6625 47.2454H97.558L97.2966 46.6044H95.689L95.4425 47.2454H94.3625L95.8912 43.7246ZM97.0007 45.8154L96.4977 44.5283L95.9948 45.8154H97.0007Z" fill="white"/>
<path d="M104.09 44.8883L103.04 45.0017C102.977 44.8209 102.884 44.6911 102.759 44.6122C102.634 44.5333 102.464 44.4938 102.251 44.4938C101.958 44.4938 101.73 44.5793 101.565 44.7503C101.401 44.9179 101.319 45.1628 101.319 45.485C101.319 45.8072 101.401 46.0537 101.565 46.2247C101.733 46.3923 101.968 46.4762 102.27 46.4762C102.737 46.4762 103.012 46.2954 103.094 45.9337H104.159C104.116 46.3775 103.926 46.7227 103.587 46.9693C103.252 47.2126 102.805 47.3342 102.246 47.3342C101.799 47.3342 101.424 47.2553 101.122 47.0975C100.822 46.9397 100.596 46.7227 100.441 46.4466C100.29 46.1672 100.214 45.8466 100.214 45.485C100.214 45.1332 100.29 44.8176 100.441 44.5382C100.596 44.2588 100.824 44.0385 101.126 43.8774C101.429 43.7163 101.805 43.6358 102.256 43.6358C103.272 43.6358 103.883 44.0533 104.09 44.8883Z" fill="white"/>
<path d="M106.185 43.7246H107.251V47.2454H106.185V43.7246Z" fill="white"/>
<path d="M111.466 47.3342C111.032 47.3342 110.659 47.2602 110.347 47.1123C110.035 46.9644 109.793 46.7523 109.622 46.4762C109.454 46.2 109.371 45.8696 109.371 45.485C109.371 45.1004 109.456 44.77 109.627 44.4938C109.798 44.2177 110.041 44.0056 110.357 43.8577C110.672 43.7098 111.049 43.6358 111.486 43.6358C111.92 43.6358 112.293 43.7098 112.605 43.8577C112.918 44.0056 113.158 44.2177 113.325 44.4938C113.496 44.77 113.582 45.1004 113.582 45.485C113.582 45.8696 113.496 46.2 113.325 46.4762C113.154 46.7523 112.911 46.9644 112.596 47.1123C112.28 47.2602 111.904 47.3342 111.466 47.3342ZM112.477 45.485C112.477 45.1694 112.389 44.9261 112.211 44.7552C112.037 44.5809 111.792 44.4938 111.476 44.4938C111.161 44.4938 110.914 44.5809 110.737 44.7552C110.562 44.9294 110.475 45.1727 110.475 45.485C110.475 45.8006 110.562 46.0455 110.737 46.2197C110.914 46.3907 111.161 46.4762 111.476 46.4762C111.792 46.4762 112.037 46.3891 112.211 46.2148C112.389 46.0406 112.477 45.7973 112.477 45.485Z" fill="white"/>
<path d="M115.703 43.7246H116.65L118.41 45.84V43.7246H119.416V47.2454H118.469L116.709 45.13V47.2454H115.703V43.7246Z" fill="white"/>
<path d="M122.873 43.7246H124.116L125.645 47.2454H124.54L124.279 46.6044H122.671L122.424 47.2454H121.345L122.873 43.7246ZM123.983 45.8154L123.48 44.5283L122.977 45.8154H123.983Z" fill="white"/>
<path d="M127.571 43.7246H128.636V47.2454H127.571V43.7246Z" fill="white"/>
<path d="M130.647 46.1014H131.693C131.755 46.4236 132.025 46.5847 132.502 46.5847C132.988 46.5847 133.231 46.468 133.231 46.2345C133.231 46.1524 133.195 46.0866 133.123 46.0373C133.051 45.9847 132.932 45.9469 132.768 45.9239L132.137 45.8302C131.65 45.7546 131.295 45.628 131.071 45.4505C130.851 45.273 130.741 45.0297 130.741 44.7207C130.741 44.3788 130.896 44.1125 131.205 43.9218C131.517 43.7311 131.946 43.6358 132.492 43.6358C133.501 43.6358 134.066 43.9892 134.188 44.696L133.177 44.7946C133.124 44.65 133.042 44.5464 132.931 44.484C132.819 44.4182 132.661 44.3853 132.457 44.3853C132.24 44.3853 132.072 44.4116 131.954 44.4642C131.839 44.5168 131.782 44.5925 131.782 44.6911C131.782 44.7733 131.813 44.8357 131.875 44.8785C131.938 44.9212 132.053 44.9557 132.22 44.982L132.99 45.1053C133.447 45.1776 133.777 45.3009 133.981 45.4751C134.185 45.6461 134.287 45.8877 134.287 46.2C134.287 46.5748 134.135 46.8575 133.833 47.0482C133.53 47.2389 133.085 47.3342 132.497 47.3342C131.339 47.3342 130.723 46.9233 130.647 46.1014Z" fill="white"/>
<path d="M41.2274 49.8886H44.3094V50.6628H42.2679V51.2348H44.2108V52.009H42.2679V52.6352H44.4277L44.3291 53.4094H41.2274V49.8886Z" fill="white"/>
<path d="M49.3292 49.8886H51.0798C52.135 49.8886 52.6627 50.2946 52.6627 51.1066C52.6627 51.5241 52.5263 51.8331 52.2534 52.0336C51.9838 52.2309 51.5729 52.3295 51.0206 52.3295H50.3598V53.4094H49.3292V49.8886ZM51.0009 51.5405C51.2146 51.5405 51.3724 51.5076 51.4743 51.4419C51.5762 51.3761 51.6271 51.2627 51.6271 51.1016C51.6271 50.9504 51.5778 50.8419 51.4792 50.7762C51.3806 50.7104 51.2244 50.6776 51.0107 50.6776H50.3598V51.5405H51.0009Z" fill="white"/>
<path d="M55.4399 49.8886H56.6826L58.2113 53.4094H57.1067L56.8453 52.7684H55.2377L54.9912 53.4094H53.9112L55.4399 49.8886ZM56.5494 51.9794L56.0465 50.6924L55.5435 51.9794H56.5494Z" fill="white"/>
<path d="M60.1374 49.8886H61.9471C63.0024 49.8886 63.5301 50.2781 63.5301 51.0573C63.5301 51.3071 63.4775 51.5109 63.3723 51.6687C63.2671 51.8232 63.1125 51.9465 62.9087 52.0386L63.7717 53.4094H62.6326L61.9373 52.2408H61.1335V53.4094H60.1374V49.8886ZM61.883 51.4813C62.1 51.4813 62.2578 51.4501 62.3564 51.3877C62.4583 51.3219 62.5093 51.2134 62.5093 51.0622C62.5093 50.911 62.4616 50.8041 62.3663 50.7417C62.271 50.6792 62.1132 50.648 61.8929 50.648H61.1335V51.4813H61.883Z" fill="white"/>
<path d="M66.9175 49.8886H68.1602L69.6888 53.4094H68.5842L68.3229 52.7684H66.7153L66.4687 53.4094H65.3888L66.9175 49.8886ZM68.027 51.9794L67.524 50.6924L67.021 51.9794H68.027Z" fill="white"/>
<path d="M75.6116 49.8886H76.8543L78.383 53.4094H77.2784L77.017 52.7684H75.4094L75.1629 53.4094H74.083L75.6116 49.8886ZM76.7211 51.9794L76.2182 50.6924L75.7152 51.9794H76.7211Z" fill="white"/>
<path d="M83.1272 49.8886H86.2092V50.6628H84.1677V51.2348H86.1106V52.009H84.1677V52.6352H86.3276L86.2289 53.4094H83.1272V49.8886Z" fill="white"/>
<path d="M88.1446 52.2654H89.19C89.2525 52.5876 89.5221 52.7487 89.9988 52.7487C90.4853 52.7487 90.7286 52.632 90.7286 52.3986C90.7286 52.3164 90.6924 52.2506 90.6201 52.2013C90.5478 52.1487 90.4294 52.1109 90.265 52.0879L89.6339 51.9942C89.1473 51.9186 88.7923 51.792 88.5687 51.6145C88.3484 51.437 88.2383 51.1937 88.2383 50.8847C88.2383 50.5428 88.3928 50.2765 88.7019 50.0858C89.0142 49.8951 89.4432 49.7998 89.9889 49.7998C90.9982 49.7998 91.5636 50.1532 91.6852 50.86L90.6743 50.9586C90.6217 50.814 90.5396 50.7104 90.4278 50.648C90.316 50.5822 90.1582 50.5493 89.9544 50.5493C89.7374 50.5493 89.5697 50.5756 89.4514 50.6282C89.3363 50.6808 89.2788 50.7565 89.2788 50.8551C89.2788 50.9373 89.31 50.9997 89.3725 51.0425C89.435 51.0852 89.55 51.1197 89.7177 51.146L90.487 51.2693C90.9439 51.3416 91.2743 51.4649 91.4781 51.6391C91.6819 51.8101 91.7839 52.0517 91.7839 52.364C91.7839 52.7388 91.6326 53.0215 91.3302 53.2122C91.0277 53.4029 90.5823 53.4982 89.9938 53.4982C88.8366 53.4982 88.2202 53.0873 88.1446 52.2654Z" fill="white"/>
<path d="M97.5476 51.0523L96.4972 51.1657C96.4348 50.9849 96.3411 50.8551 96.2162 50.7762C96.0912 50.6973 95.9219 50.6578 95.7083 50.6578C95.4157 50.6578 95.1872 50.7433 95.0228 50.9143C94.8584 51.0819 94.7763 51.3268 94.7763 51.649C94.7763 51.9712 94.8584 52.2177 95.0228 52.3887C95.1905 52.5563 95.4255 52.6402 95.728 52.6402C96.1948 52.6402 96.4693 52.4594 96.5515 52.0977H97.6166C97.5739 52.5416 97.3832 52.8867 97.0446 53.1333C96.7093 53.3766 96.2622 53.4982 95.7033 53.4982C95.2562 53.4982 94.8815 53.4193 94.579 53.2615C94.2798 53.1037 94.053 52.8867 93.8985 52.6106C93.7473 52.3312 93.6717 52.0106 93.6717 51.649C93.6717 51.2972 93.7473 50.9817 93.8985 50.7022C94.053 50.4228 94.2815 50.2025 94.5839 50.0414C94.8864 49.8803 95.2628 49.7998 95.7132 49.7998C96.729 49.7998 97.3405 50.2173 97.5476 51.0523Z" fill="white"/>
<path d="M99.6429 49.8886H101.453C102.508 49.8886 103.036 50.2781 103.036 51.0573C103.036 51.3071 102.983 51.5109 102.878 51.6687C102.773 51.8232 102.618 51.9465 102.414 52.0386L103.277 53.4094H102.138L101.443 52.2408H100.639V53.4094H99.6429V49.8886ZM101.389 51.4813C101.606 51.4813 101.763 51.4501 101.862 51.3877C101.964 51.3219 102.015 51.2134 102.015 51.0622C102.015 50.911 101.967 50.8041 101.872 50.7417C101.776 50.6792 101.619 50.648 101.398 50.648H100.639V51.4813H101.389Z" fill="white"/>
<path d="M105.201 49.8886H106.266V53.4094H105.201V49.8886Z" fill="white"/>
<path d="M109.506 50.7515H108.204V49.8886H111.873V50.7515H110.571V53.4094H109.506V50.7515Z" fill="white"/>
<path d="M114.443 49.8886H115.686L117.214 53.4094H116.11L115.848 52.7684H114.241L113.994 53.4094H112.914L114.443 49.8886ZM115.552 51.9794L115.049 50.6924L114.546 51.9794H115.552Z" fill="white"/>
</svg>
