<svg width="158" height="76" viewBox="0 0 158 76" fill="none" xmlns="http://www.w3.org/2000/svg">
<path d="M13.3863 29.9203C12.31 29.4968 11.5689 28.9234 11.1631 28.2C10.7573 27.4765 10.5896 26.6737 10.6602 25.7915C10.7484 24.8917 11.0307 23.9389 11.5071 22.9332C12.0012 21.9098 12.6011 20.8864 13.3069 19.863C14.0303 18.8397 14.8243 17.8428 15.6888 16.8723C16.5534 15.9019 17.4091 15.0109 18.2561 14.1992C19.103 13.3876 19.897 12.6818 20.6381 12.0819C21.3791 11.482 21.979 11.0409 22.4378 10.7586C23.073 10.3704 23.6023 10.1852 24.0258 10.2028C24.4492 10.2028 24.7845 10.3351 25.0315 10.5998C25.2961 10.8468 25.4726 11.1997 25.5608 11.6585C25.6667 12.0996 25.7108 12.576 25.6931 13.0876C25.6931 13.5817 25.6402 14.0846 25.5343 14.5962C25.4461 15.0903 25.3226 15.5226 25.1638 15.8931C25.0227 16.2636 24.8639 16.5371 24.6874 16.7135C24.5286 16.89 24.3698 16.8988 24.211 16.74C24.1934 16.5989 24.211 16.3871 24.2639 16.1048C24.3169 15.8049 24.3786 15.4696 24.4492 15.0991C24.5374 14.7286 24.6168 14.3492 24.6874 13.961C24.758 13.5729 24.8021 13.22 24.8197 12.9024C24.855 12.5671 24.8462 12.2848 24.7933 12.0555C24.758 11.8261 24.6609 11.6938 24.5021 11.6585C23.8846 11.4997 23.1435 11.6496 22.279 12.1084C21.432 12.5495 20.541 13.1935 19.6059 14.0404C18.6884 14.8697 17.7709 15.8402 16.8534 16.9517C15.9535 18.0457 15.133 19.1749 14.392 20.3394C13.6509 21.504 13.0422 22.642 12.5658 23.7536C12.0894 24.8476 11.8159 25.818 11.7453 26.6649C11.6924 27.4942 11.8777 28.1382 12.3011 28.597C12.7422 29.0381 13.5098 29.1792 14.6037 29.0204C15.6094 28.8793 16.5358 28.5264 17.3827 27.9618C18.2473 27.3795 19.0765 26.7443 19.8705 26.0562C20.6822 25.3504 21.485 24.6623 22.279 23.9918C23.073 23.3037 23.9022 22.7832 24.7668 22.4303C25.0844 22.3068 25.3314 22.3509 25.5079 22.5626C25.702 22.7744 25.7549 23.0302 25.6667 23.3301C25.5608 23.6301 25.2432 24.0271 24.7139 24.5211C24.2022 25.0152 23.5582 25.5357 22.7818 26.0827C22.0231 26.612 21.185 27.1501 20.2675 27.6971C19.35 28.2264 18.4502 28.6852 17.5679 29.0734C16.7034 29.4615 15.8917 29.7438 15.133 29.9203C14.392 30.0967 13.8097 30.0967 13.3863 29.9203Z" fill="#010101"/>
<path d="M26.3135 29.9203C26.2782 29.9026 26.2782 29.6997 26.3135 29.3116C26.3664 28.9057 26.437 28.4029 26.5252 27.803C26.6135 27.2031 26.7281 26.5414 26.8693 25.818C27.0105 25.0946 27.1604 24.4064 27.3192 23.7536C27.478 23.0831 27.6456 22.5009 27.8221 22.0068C28.0162 21.4951 28.2014 21.1423 28.3779 20.9482C28.5014 20.8247 28.6249 20.8247 28.7484 20.9482C28.8719 21.054 28.9954 21.1952 29.1189 21.3716C29.2425 21.5304 29.366 21.6804 29.4895 21.8216C29.613 21.9451 29.7453 21.9539 29.8865 21.848C30.3805 21.1599 30.9187 20.5071 31.5009 19.8895C32.1008 19.2543 32.7625 18.7073 33.4859 18.2486C33.5565 18.1957 33.7506 18.1163 34.0682 18.0104C34.3858 17.8869 34.7475 17.7722 35.1533 17.6663C35.5591 17.5428 35.9737 17.4458 36.3972 17.3752C36.8383 17.287 37.2088 17.2517 37.5088 17.2693C37.8264 17.2693 38.0381 17.3487 38.144 17.5075C38.2675 17.6487 38.2146 17.8957 37.9852 18.2486C36.9265 18.2662 35.9385 18.575 35.021 19.1749C34.1035 19.7748 33.2565 20.5159 32.4802 21.3981C31.7038 22.2803 30.9981 23.2419 30.3629 24.2829C29.7277 25.3063 29.1719 26.2591 28.6955 27.1413C28.2367 28.0235 27.8486 28.7558 27.531 29.338C27.231 29.9203 27.0105 30.2114 26.8693 30.2114C26.8517 30.2114 26.7723 30.1761 26.6311 30.1055C26.4899 30.0173 26.3841 29.9556 26.3135 29.9203Z" fill="#010101"/>
<path d="M36.9382 29.9203C37.6616 27.5912 38.3144 25.7474 38.8967 24.3888C39.4966 23.0125 39.9906 22.0509 40.3788 21.504C40.7846 20.957 41.0581 20.7806 41.1993 20.9746C41.3404 21.1687 41.3228 21.6628 41.1463 22.4568C40.9875 23.2507 40.6347 24.3182 40.0877 25.6592C39.5584 26.9825 38.8085 28.4999 37.838 30.2114C37.6969 30.2643 37.5293 30.2732 37.3352 30.2379C37.1411 30.2026 37.0088 30.0967 36.9382 29.9203ZM41.5698 17.1899C41.5345 17.1017 41.5169 16.9429 41.5169 16.7135C41.5169 16.4842 41.5345 16.343 41.5698 16.2901C41.9756 16.1489 42.2844 16.1313 42.4961 16.2372C42.7079 16.343 42.8402 16.5018 42.8931 16.7135C42.9461 16.9076 42.9372 17.1194 42.8667 17.3487C42.8137 17.5781 42.7167 17.7546 42.5755 17.8781C42.4344 17.9839 42.2668 18.0016 42.0727 17.931C41.8962 17.8428 41.7286 17.5958 41.5698 17.1899Z" fill="#010101"/>
<path d="M42.3754 29.9203C42.1637 29.7791 42.1549 29.5939 42.349 29.3645C42.5607 29.1175 42.8871 28.8616 43.3282 28.597C43.787 28.3147 44.3163 28.0235 44.9162 27.7236C45.5161 27.4236 46.0896 27.1413 46.6365 26.8766C47.2011 26.612 47.6952 26.3826 48.1187 26.1885C48.5421 25.9768 48.8156 25.818 48.9391 25.7121C49.5214 25.2181 49.8213 24.8123 49.839 24.4947C49.8743 24.1594 49.7331 23.8948 49.4155 23.7007C49.0979 23.4889 48.648 23.3301 48.0657 23.2243C47.5011 23.1008 46.91 22.9949 46.2925 22.9067C45.6926 22.8008 45.1103 22.695 44.5457 22.5891C43.9987 22.4832 43.5841 22.3421 43.3018 22.1656C43.0195 21.9892 42.9224 21.7598 43.0106 21.4775C43.1165 21.1775 43.5047 20.7982 44.1752 20.3394C44.4222 20.163 44.7839 19.9072 45.2603 19.5719C45.7367 19.2367 46.2484 18.8926 46.7953 18.5397C47.3599 18.1868 47.9157 17.8692 48.4627 17.5869C49.0097 17.3046 49.4684 17.1194 49.839 17.0311C50.0331 16.9959 50.2271 17.0135 50.4212 17.0841C50.633 17.1547 50.8006 17.2605 50.9241 17.4017C51.0476 17.5252 51.1005 17.6663 51.0829 17.8251C51.0829 17.9839 50.9682 18.1251 50.7388 18.2486C49.7331 18.8132 48.7627 19.3425 47.8275 19.8366C46.91 20.3306 45.9837 20.8952 45.0485 21.5304C44.9956 21.6716 45.0044 21.7951 45.075 21.901C45.1632 22.0068 45.2603 22.0862 45.3661 22.1392C47.2364 22.3332 48.6392 22.6067 49.5743 22.9596C50.5271 23.3125 51.127 23.7007 51.374 24.1241C51.6387 24.5476 51.6122 24.9975 51.2946 25.4739C50.977 25.9503 50.5006 26.4179 49.8654 26.8766C49.2479 27.3354 48.5333 27.7677 47.7217 28.1735C46.91 28.5793 46.1248 28.9234 45.3661 29.2057C44.6251 29.488 43.9722 29.6997 43.4076 29.8409C42.843 29.982 42.499 30.0085 42.3754 29.9203Z" fill="#010101"/>
<path d="M65.3716 29.9203C64.4894 29.5498 63.9071 29.0381 63.6248 28.3852C63.3425 27.7147 63.2454 27.0002 63.3337 26.2415C63.4219 25.4651 63.6336 24.6888 63.9688 23.9124C64.3217 23.1361 64.6834 22.4479 65.054 21.848C65.1775 21.6363 65.4069 21.2746 65.7421 20.7629C66.0773 20.2512 66.4302 19.7131 66.8008 19.1485C67.1889 18.5662 67.5506 18.028 67.8859 17.534C68.2388 17.0223 68.4858 16.6694 68.6269 16.4753C68.8387 15.1167 69.2621 14.0404 69.8973 13.2464C70.5325 12.4348 71.2471 11.879 72.0411 11.5791C72.8527 11.2791 73.682 11.2174 74.5289 11.3938C75.3759 11.5526 76.1169 11.9319 76.7521 12.5319C77.3873 13.1141 77.8461 13.8993 78.1284 14.8874C78.4107 15.8754 78.3842 17.0311 78.049 18.3545C77.7314 19.6778 77.0433 21.1599 75.9846 22.8008C74.9259 24.4417 73.3732 26.215 71.3265 28.1206C70.9736 28.4558 70.5502 28.7822 70.0561 29.0998C69.5797 29.3998 69.068 29.6468 68.5211 29.8409C67.9917 30.035 67.4536 30.1497 66.9066 30.1849C66.3596 30.2202 65.848 30.132 65.3716 29.9203ZM64.4452 27.8294C64.6217 28.6234 64.9569 29.1175 65.451 29.3116C65.945 29.5056 66.5273 29.4704 67.1978 29.2057C67.8682 28.941 68.6005 28.4911 69.3945 27.8559C70.1885 27.2207 70.9824 26.4796 71.7764 25.6327C72.5704 24.7682 73.3291 23.833 74.0525 22.8273C74.776 21.8216 75.4023 20.8247 75.9317 19.8366C76.4786 18.8485 76.8933 17.9045 77.1756 17.0047C77.4579 16.1048 77.5461 15.3285 77.4402 14.6756C77.352 14.0052 77.0344 13.5023 76.4875 13.167C75.9581 12.8318 75.1377 12.7348 74.0261 12.8759C73.6203 13.2288 73.0821 13.7493 72.4116 14.4374C71.7411 15.1079 71.0266 15.8754 70.2679 16.74C69.5091 17.6046 68.7504 18.5397 67.9917 19.5455C67.233 20.5335 66.5626 21.5216 65.9803 22.5097C65.398 23.4978 64.9569 24.4506 64.657 25.3681C64.357 26.2856 64.2864 27.106 64.4452 27.8294Z" fill="#010101"/>
<path d="M78.2607 29.9203C77.749 29.5498 77.4138 29.0822 77.255 28.5176C77.1138 27.9529 77.0962 27.3442 77.202 26.6914C77.3079 26.0209 77.4932 25.3328 77.7578 24.627C78.0402 23.9212 78.3401 23.2419 78.6577 22.5891C78.9929 21.9362 79.3105 21.3363 79.6105 20.7894C79.9281 20.2424 80.1751 19.7925 80.3516 19.4396C80.4045 19.3337 80.528 19.0779 80.7221 18.6721C80.9338 18.2662 81.1544 17.8251 81.3837 17.3487C81.6131 16.8723 81.8249 16.4312 82.0189 16.0254C82.2307 15.602 82.363 15.3373 82.4159 15.2314C82.4689 15.1432 82.5394 14.9756 82.6277 14.7286C82.7335 14.4639 82.8482 14.1816 82.9717 13.8816C83.0952 13.5817 83.2276 13.2994 83.3687 13.0347C83.5275 12.7524 83.6863 12.5495 83.8451 12.426C84.0216 12.3025 84.1892 12.2848 84.348 12.3731C84.5244 12.4613 84.692 12.7259 84.8508 13.167C84.7803 13.3435 84.6038 13.6964 84.3215 14.2257C84.0568 14.755 83.7393 15.3902 83.3687 16.1313C82.9982 16.8723 82.5835 17.6928 82.1248 18.5927C81.6837 19.4925 81.2514 20.4012 80.8279 21.3187C80.4045 22.2362 80.0075 23.1361 79.637 24.0183C79.2664 24.8828 78.9577 25.6768 78.7106 26.4002C78.4813 27.106 78.3401 27.6971 78.2872 28.1735C78.2519 28.6322 78.3401 28.9146 78.5518 29.0204C78.7989 29.1439 79.1165 29.1969 79.5046 29.1792C79.9104 29.1439 80.3251 29.091 80.7486 29.0204C81.172 28.9498 81.5867 28.8793 81.9925 28.8087C82.3983 28.7205 82.7512 28.6852 83.0511 28.7028C83.1217 28.8616 83.0688 29.0204 82.8923 29.1792C82.7159 29.3204 82.4689 29.4527 82.1513 29.5762C81.8337 29.6821 81.4631 29.7791 81.0397 29.8673C80.6339 29.9379 80.2369 29.9909 79.8487 30.0261C79.4782 30.0614 79.1429 30.0703 78.843 30.0526C78.5607 30.035 78.3666 29.9909 78.2607 29.9203Z" fill="#010101"/>
<path d="M83.9626 29.9203C84.6861 27.5912 85.3389 25.7474 85.9212 24.3888C86.521 23.0125 87.0151 22.0509 87.4033 21.504C87.8091 20.957 88.0826 20.7806 88.2237 20.9746C88.3649 21.1687 88.3472 21.6628 88.1708 22.4568C88.012 23.2507 87.6591 24.3182 87.1121 25.6592C86.5828 26.9825 85.8329 28.4999 84.8625 30.2114C84.7213 30.2643 84.5537 30.2732 84.3596 30.2379C84.1655 30.2026 84.0332 30.0967 83.9626 29.9203ZM88.5943 17.1899C88.559 17.1017 88.5413 16.9429 88.5413 16.7135C88.5413 16.4842 88.559 16.343 88.5943 16.2901C89.0001 16.1489 89.3088 16.1313 89.5206 16.2372C89.7323 16.343 89.8646 16.5018 89.9176 16.7135C89.9705 16.9076 89.9617 17.1194 89.8911 17.3487C89.8382 17.5781 89.7411 17.7546 89.6 17.8781C89.4588 17.9839 89.2912 18.0016 89.0971 17.931C88.9207 17.8428 88.7531 17.5958 88.5943 17.1899Z" fill="#010101"/>
<path d="M90.141 29.6027C89.7704 29.391 89.5058 29.0557 89.347 28.597C89.1882 28.1382 89.0999 27.6177 89.0823 27.0354C89.0647 26.4532 89.0999 25.8445 89.1882 25.2093C89.2764 24.5741 89.3823 23.9565 89.5058 23.3566C89.6293 22.7567 89.7528 22.2186 89.8763 21.7422C89.9998 21.2658 90.088 20.8952 90.141 20.6306C90.2292 20.5776 90.3174 20.5776 90.4056 20.6306C90.5115 20.6835 90.6085 20.7629 90.6968 20.8688C90.8026 20.957 90.882 21.0452 90.935 21.1334C91.0055 21.204 91.0408 21.2393 91.0408 21.2393C91.0938 21.8568 91.0938 22.4656 91.0408 23.0655C91.0055 23.6477 90.9526 24.23 90.882 24.8123C90.8291 25.3945 90.7762 25.9856 90.7232 26.5855C90.6879 27.1854 90.6879 27.7941 90.7232 28.4117C90.8644 28.6764 91.1555 28.6852 91.5966 28.4382C92.0377 28.1735 92.5759 27.7589 93.2111 27.1942C93.8463 26.612 94.5344 25.9327 95.2754 25.1563C96.0341 24.3623 96.7752 23.5772 97.4986 22.8008C98.2397 22.0245 98.9366 21.3011 99.5895 20.6306C100.242 19.9424 100.789 19.4219 101.23 19.0691C101.689 18.6985 102.007 18.5486 102.183 18.6191C102.36 18.6721 102.333 19.0426 102.104 19.7307C101.68 20.1012 101.177 20.657 100.595 21.3981C100.013 22.1392 99.3777 22.942 98.6896 23.8065C98.0015 24.6535 97.2869 25.5004 96.5458 26.3473C95.8048 27.1942 95.0549 27.9265 94.2962 28.544C93.5551 29.1439 92.8317 29.5674 92.1259 29.8144C91.4202 30.0438 90.7585 29.9732 90.141 29.6027Z" fill="#010101"/>
<path d="M103.174 29.9203C102.645 29.7438 102.239 29.4792 101.957 29.1263C101.692 28.7558 101.516 28.3499 101.427 27.9088C101.339 27.4677 101.321 27.009 101.374 26.5326C101.445 26.0385 101.551 25.571 101.692 25.1299C102.221 24.5652 102.812 23.9212 103.465 23.1978C104.136 22.4568 104.841 21.7333 105.583 21.0276C106.324 20.3218 107.091 19.669 107.885 19.0691C108.697 18.4515 109.517 17.9839 110.346 17.6663C110.629 17.5428 110.849 17.5516 111.008 17.6928C111.185 17.8163 111.308 18.0192 111.379 18.3015C111.449 18.5838 111.476 18.9103 111.458 19.2808C111.458 19.6513 111.432 20.013 111.379 20.3659C111.326 20.7188 111.255 21.0364 111.167 21.3187C111.079 21.601 110.99 21.7951 110.902 21.901C110.691 22.148 110.276 22.4391 109.658 22.7744C109.058 23.1096 108.388 23.4801 107.647 23.8859C106.906 24.2741 106.165 24.6799 105.424 25.1034C104.683 25.5269 104.074 25.9503 103.598 26.3738C103.121 26.7796 102.839 27.1854 102.751 27.5912C102.662 27.9971 102.909 28.3676 103.492 28.7028C104.092 28.7734 104.815 28.7469 105.662 28.6234C106.526 28.4823 107.4 28.3058 108.282 28.0941C109.182 27.8647 110.047 27.6353 110.876 27.406C111.705 27.159 112.384 26.9649 112.914 26.8237L113.231 27.1148C112.843 27.6265 112.208 28.0941 111.326 28.5176C110.444 28.941 109.491 29.2939 108.467 29.5762C107.444 29.8409 106.447 30.0173 105.477 30.1055C104.506 30.1761 103.739 30.1144 103.174 29.9203ZM109.5 19.8101C109.482 19.7925 109.35 19.8719 109.103 20.0483C108.856 20.2071 108.547 20.4277 108.176 20.71C107.823 20.9746 107.435 21.2746 107.012 21.6098C106.606 21.9274 106.227 22.2274 105.874 22.5097C105.538 22.792 105.256 23.039 105.027 23.2507C104.797 23.4448 104.7 23.5419 104.736 23.5419C105.018 23.5948 105.38 23.5595 105.821 23.436C106.279 23.2949 106.747 23.1008 107.223 22.8538C107.717 22.6067 108.185 22.3332 108.626 22.0333C109.067 21.7157 109.411 21.4069 109.658 21.107C109.923 20.807 110.055 20.5424 110.055 20.313C110.073 20.0836 109.888 19.916 109.5 19.8101Z" fill="#010101"/>
<path d="M112.728 29.9203C113.452 27.5912 114.105 25.7474 114.687 24.3888C115.287 23.0125 115.781 22.0509 116.169 21.504C116.575 20.957 116.848 20.7806 116.99 20.9746C117.131 21.1687 117.113 21.6628 116.937 22.4568C116.778 23.2507 116.425 24.3182 115.878 25.6592C115.349 26.9825 114.599 28.4999 113.628 30.2114C113.487 30.2643 113.32 30.2732 113.125 30.2379C112.931 30.2026 112.799 30.0967 112.728 29.9203ZM117.36 17.1899C117.325 17.1017 117.307 16.9429 117.307 16.7135C117.307 16.4842 117.325 16.343 117.36 16.2901C117.766 16.1489 118.075 16.1313 118.286 16.2372C118.498 16.343 118.63 16.5018 118.683 16.7135C118.736 16.9076 118.727 17.1194 118.657 17.3487C118.604 17.5781 118.507 17.7546 118.366 17.8781C118.225 17.9839 118.057 18.0016 117.863 17.931C117.686 17.8428 117.519 17.5958 117.36 17.1899Z" fill="#010101"/>
<path d="M118.166 29.9203C118.13 29.9026 118.13 29.6997 118.166 29.3116C118.219 28.9057 118.289 28.4029 118.377 27.803C118.466 27.2031 118.58 26.5414 118.721 25.818C118.863 25.0946 119.013 24.4064 119.171 23.7536C119.33 23.0831 119.498 22.5009 119.674 22.0068C119.868 21.4951 120.054 21.1423 120.23 20.9482C120.354 20.8247 120.477 20.8247 120.601 20.9482C120.724 21.054 120.848 21.1952 120.971 21.3716C121.095 21.5304 121.218 21.6804 121.342 21.8216C121.465 21.9451 121.598 21.9539 121.739 21.848C122.233 21.1599 122.771 20.5071 123.353 19.8895C123.953 19.2543 124.615 18.7073 125.338 18.2486C125.409 18.1957 125.603 18.1163 125.92 18.0104C126.238 17.8869 126.6 17.7722 127.005 17.6663C127.411 17.5428 127.826 17.4458 128.249 17.3752C128.691 17.287 129.061 17.2517 129.361 17.2693C129.679 17.2693 129.89 17.3487 129.996 17.5075C130.12 17.6487 130.067 17.8957 129.837 18.2486C128.779 18.2662 127.791 18.575 126.873 19.1749C125.956 19.7748 125.109 20.5159 124.332 21.3981C123.556 22.2803 122.85 23.2419 122.215 24.2829C121.58 25.3063 121.024 26.2591 120.548 27.1413C120.089 28.0235 119.701 28.7558 119.383 29.338C119.083 29.9203 118.863 30.2114 118.721 30.2114C118.704 30.2114 118.624 30.1761 118.483 30.1055C118.342 30.0173 118.236 29.9556 118.166 29.9203Z" fill="#010101"/>
<path d="M127.433 29.6027C127.01 29.2498 126.772 28.7293 126.719 28.0412C126.683 27.353 126.78 26.5767 127.01 25.7121C127.257 24.8476 127.61 23.9477 128.068 23.0125C128.545 22.0598 129.092 21.1599 129.709 20.313C130.327 19.4484 130.997 18.6809 131.721 18.0104C132.444 17.3223 133.168 16.8194 133.891 16.5018C134.614 16.1666 135.32 16.0519 136.008 16.1578C136.696 16.246 137.323 16.643 137.887 17.3487C138.24 17.7898 138.452 18.2398 138.523 18.6985C138.593 19.1396 138.584 19.5984 138.496 20.0748C138.408 20.5335 138.267 21.0099 138.073 21.504C137.879 21.9804 137.685 22.4656 137.49 22.9596C137.314 23.4537 137.164 23.9565 137.04 24.4682C136.935 24.9799 136.917 25.5004 136.988 26.0297C137.076 26.7002 137.376 27.0972 137.887 27.2207C138.399 27.3442 139.008 27.3089 139.714 27.1148C140.437 26.9208 141.196 26.612 141.99 26.1885C142.784 25.7651 143.516 25.3416 144.186 24.9181C144.875 24.4947 145.439 24.1241 145.88 23.8065C146.339 23.4889 146.568 23.3301 146.568 23.3301C147.062 23.2243 147.336 23.2596 147.389 23.436C147.459 23.5948 147.362 23.8418 147.098 24.1771C146.851 24.4947 146.471 24.8652 145.96 25.2887C145.448 25.6945 144.866 26.0915 144.213 26.4796C143.56 26.8678 142.863 27.2207 142.122 27.5383C141.381 27.8559 140.658 28.0765 139.952 28.2C139.246 28.3058 138.576 28.297 137.94 28.1735C137.323 28.0323 136.811 27.7147 136.405 27.2207C136.211 27.009 136.061 26.7972 135.955 26.5855C135.867 26.3738 135.717 26.1885 135.505 26.0297C135.241 26.2767 134.923 26.6032 134.553 27.009C134.182 27.3972 133.776 27.7941 133.335 28.2C132.912 28.5881 132.453 28.9587 131.959 29.3116C131.483 29.6644 130.989 29.9291 130.477 30.1055C129.965 30.282 129.445 30.3437 128.915 30.2908C128.404 30.2379 127.91 30.0085 127.433 29.6027ZM127.724 28.7028C127.883 29.2674 128.236 29.5321 128.783 29.4968C129.33 29.4439 129.965 29.1704 130.689 28.6764C131.412 28.1823 132.162 27.5118 132.938 26.6649C133.715 25.8003 134.411 24.8476 135.029 23.8065C135.647 22.7479 136.114 21.6363 136.432 20.4718C136.767 19.3073 136.855 18.1604 136.696 17.0311C136.273 16.6959 135.744 16.6871 135.108 17.0047C134.473 17.3046 133.794 17.8075 133.071 18.5133C132.365 19.2014 131.659 20.0307 130.953 21.0011C130.265 21.9539 129.656 22.9243 129.127 23.9124C128.598 24.8828 128.192 25.8003 127.91 26.6649C127.645 27.5295 127.583 28.2088 127.724 28.7028Z" fill="#010101"/>
<path d="M25.8559 44.2262H23.6697V42.777H29.8307V44.2262H27.6446V48.6896H25.8559V44.2262Z" fill="#010101"/>
<path d="M34.8041 46.2384C34.8041 46.6359 34.9035 46.9285 35.1022 47.1162C35.3065 47.3039 35.6267 47.3978 36.0628 47.3978C36.5045 47.3978 36.8247 47.3039 37.0234 47.1162C37.2277 46.9285 37.3298 46.6359 37.3298 46.2384V42.777H39.1185V46.0977C39.1185 47.0693 38.8563 47.7704 38.3318 48.201C37.8074 48.6261 37.051 48.8387 36.0628 48.8387C35.0802 48.8387 34.3266 48.6261 33.8021 48.201C33.2777 47.7704 33.0154 47.0693 33.0154 46.0977V42.777H34.8041V46.2384Z" fill="#010101"/>
<path d="M42.8766 42.777H45.6755C46.868 42.777 47.7679 43.0282 48.3751 43.5306C48.9824 44.0274 49.286 44.7617 49.286 45.7333C49.286 46.6718 48.9686 47.4005 48.3337 47.9195C47.6989 48.4329 46.7879 48.6896 45.601 48.6896H42.8766V42.777ZM45.6424 47.2736C46.8625 47.2736 47.4725 46.7574 47.4725 45.725C47.4725 44.7037 46.8846 44.193 45.7087 44.193H44.6404V47.2736H45.6424Z" fill="#010101"/>
<path d="M56.1119 48.8387C55.3831 48.8387 54.7565 48.7145 54.2321 48.466C53.7076 48.2176 53.3018 47.8615 53.0148 47.3978C52.7332 46.934 52.5924 46.3792 52.5924 45.7333C52.5924 45.0874 52.736 44.5326 53.023 44.0688C53.3101 43.6051 53.7186 43.249 54.2486 43.0006C54.7786 42.7521 55.4107 42.6279 56.145 42.6279C56.8737 42.6279 57.5003 42.7521 58.0248 43.0006C58.5492 43.249 58.9522 43.6051 59.2338 44.0688C59.5209 44.5326 59.6644 45.0874 59.6644 45.7333C59.6644 46.3792 59.5209 46.934 59.2338 47.3978C58.9467 47.8615 58.5382 48.2176 58.0082 48.466C57.4782 48.7145 56.8461 48.8387 56.1119 48.8387ZM57.8095 45.7333C57.8095 45.2033 57.6604 44.7948 57.3623 44.5077C57.0697 44.2151 56.6584 44.0688 56.1284 44.0688C55.5984 44.0688 55.1844 44.2151 54.8863 44.5077C54.5937 44.8003 54.4474 45.2088 54.4474 45.7333C54.4474 46.2633 54.5937 46.6746 54.8863 46.9672C55.1844 47.2542 55.5984 47.3978 56.1284 47.3978C56.6584 47.3978 57.0697 47.2515 57.3623 46.9589C57.6604 46.6663 57.8095 46.2578 57.8095 45.7333Z" fill="#010101"/>
<path d="M67.9589 42.777H70.7579C71.9504 42.777 72.8502 43.0282 73.4575 43.5306C74.0648 44.0274 74.3684 44.7617 74.3684 45.7333C74.3684 46.6718 74.051 47.4005 73.4161 47.9195C72.7812 48.4329 71.8703 48.6896 70.6834 48.6896H67.9589V42.777ZM70.7248 47.2736C71.9448 47.2736 72.5549 46.7574 72.5549 45.725C72.5549 44.7037 71.9669 44.193 70.791 44.193H69.7228V47.2736H70.7248Z" fill="#010101"/>
<path d="M77.9398 42.777H83.1154V44.0771H79.6871V45.0377H82.9498V46.3378H79.6871V47.3895H83.3142L83.1485 48.6896H77.9398V42.777Z" fill="#010101"/>
<path d="M93.16 44.2262H90.9738V42.777H97.1349V44.2262H94.9487V48.6896H93.16V44.2262Z" fill="#010101"/>
<path d="M100.386 42.777H105.561V44.0771H102.133V45.0377H105.396V46.3378H102.133V47.3895H105.76L105.595 48.6896H100.386V42.777Z" fill="#010101"/>
<path d="M115.768 48.6896H113.673L112.165 46.7105L110.658 48.6896H108.671L111.072 45.6174L108.853 42.777H110.948L112.19 44.4994L113.499 42.777H115.486L113.292 45.5594L115.768 48.6896Z" fill="#010101"/>
<path d="M120.62 44.2262H118.434V42.777H124.595V44.2262H122.409V48.6896H120.62V44.2262Z" fill="#010101"/>
<path d="M130.833 48.8387C130.105 48.8387 129.478 48.7145 128.954 48.466C128.429 48.2176 128.023 47.8615 127.736 47.3978C127.455 46.934 127.314 46.3792 127.314 45.7333C127.314 45.0874 127.457 44.5326 127.745 44.0688C128.032 43.6051 128.44 43.249 128.97 43.0006C129.5 42.7521 130.132 42.6279 130.866 42.6279C131.595 42.6279 132.222 42.7521 132.746 43.0006C133.271 43.249 133.674 43.6051 133.955 44.0688C134.242 44.5326 134.386 45.0874 134.386 45.7333C134.386 46.3792 134.242 46.934 133.955 47.3978C133.668 47.8615 133.26 48.2176 132.73 48.466C132.2 48.7145 131.568 48.8387 130.833 48.8387ZM132.531 45.7333C132.531 45.2033 132.382 44.7948 132.084 44.5077C131.791 44.2151 131.38 44.0688 130.85 44.0688C130.32 44.0688 129.906 44.2151 129.608 44.5077C129.315 44.8003 129.169 45.2088 129.169 45.7333C129.169 46.2633 129.315 46.6746 129.608 46.9672C129.906 47.2542 130.32 47.3978 130.85 47.3978C131.38 47.3978 131.791 47.2515 132.084 46.9589C132.382 46.6663 132.531 46.2578 132.531 45.7333Z" fill="#010101"/>
<path d="M23.8098 58.4868H24.8545C24.9169 58.8087 25.1862 58.9697 25.6626 58.9697C26.1488 58.9697 26.3919 58.853 26.3919 58.6198C26.3919 58.5377 26.3557 58.472 26.2835 58.4227C26.2112 58.3701 26.0929 58.3324 25.9287 58.3094L25.2979 58.2157C24.8118 58.1402 24.457 58.0137 24.2336 57.8363C24.0135 57.6589 23.9034 57.4158 23.9034 57.107C23.9034 56.7654 24.0578 56.4993 24.3666 56.3088C24.6787 56.1182 25.1074 56.023 25.6527 56.023C26.6612 56.023 27.2263 56.3761 27.3478 57.0824L26.3377 57.181C26.2851 57.0364 26.203 56.9329 26.0913 56.8705C25.9796 56.8048 25.8219 56.772 25.6182 56.772C25.4014 56.772 25.2339 56.7983 25.1156 56.8508C25.0006 56.9034 24.9432 56.9789 24.9432 57.0775C24.9432 57.1596 24.9744 57.222 25.0368 57.2647C25.0992 57.3074 25.2142 57.3419 25.3817 57.3682L26.1504 57.4914C26.607 57.5637 26.9372 57.6869 27.1408 57.861C27.3445 58.0318 27.4464 58.2732 27.4464 58.5853C27.4464 58.9598 27.2952 59.2423 26.993 59.4329C26.6908 59.6234 26.2457 59.7187 25.6577 59.7187C24.5013 59.7187 23.8854 59.308 23.8098 58.4868Z" fill="#010101"/>
<path d="M31.427 59.7187C30.9934 59.7187 30.6205 59.6447 30.3084 59.4969C29.9963 59.3491 29.7549 59.1372 29.5841 58.8613C29.4165 58.5853 29.3328 58.2552 29.3328 57.8708C29.3328 57.4865 29.4182 57.1563 29.589 56.8804C29.7598 56.6044 30.0029 56.3925 30.3183 56.2447C30.6336 56.0969 31.0098 56.023 31.4467 56.023C31.8803 56.023 32.2532 56.0969 32.5652 56.2447C32.8773 56.3925 33.1171 56.6044 33.2847 56.8804C33.4555 57.1563 33.5409 57.4865 33.5409 57.8708C33.5409 58.2552 33.4555 58.5853 33.2847 58.8613C33.1139 59.1372 32.8708 59.3491 32.5554 59.4969C32.24 59.6447 31.8639 59.7187 31.427 59.7187ZM32.4371 57.8708C32.4371 57.5555 32.3484 57.3124 32.171 57.1415C31.9969 56.9674 31.7522 56.8804 31.4368 56.8804C31.1215 56.8804 30.8751 56.9674 30.6977 57.1415C30.5236 57.3156 30.4365 57.5587 30.4365 57.8708C30.4365 58.1862 30.5236 58.4309 30.6977 58.605C30.8751 58.7758 31.1215 58.8613 31.4368 58.8613C31.7522 58.8613 31.9969 58.7742 32.171 58.6001C32.3484 58.426 32.4371 58.1829 32.4371 57.8708Z" fill="#010101"/>
<path d="M35.6605 56.1117H36.7248V58.7676H38.7254L38.617 59.63H35.6605V56.1117Z" fill="#010101"/>
<path d="M41.6765 58.1714C41.6765 58.4079 41.7356 58.582 41.8539 58.6937C41.9754 58.8054 42.166 58.8613 42.4255 58.8613C42.6883 58.8613 42.8788 58.8054 42.9971 58.6937C43.1186 58.582 43.1794 58.4079 43.1794 58.1714V56.1117H44.2438V58.0876C44.2438 58.6658 44.0877 59.083 43.7757 59.3392C43.4636 59.5922 43.0135 59.7187 42.4255 59.7187C41.8408 59.7187 41.3924 59.5922 41.0803 59.3392C40.7682 59.083 40.6122 58.6658 40.6122 58.0876V56.1117H41.6765V58.1714Z" fill="#010101"/>
<path d="M50.1953 57.2746L49.1458 57.3879C49.0834 57.2072 48.9897 57.0775 48.8649 56.9986C48.7401 56.9198 48.5709 56.8804 48.3574 56.8804C48.065 56.8804 47.8367 56.9658 47.6724 57.1366C47.5082 57.3041 47.426 57.5489 47.426 57.8708C47.426 58.1928 47.5082 58.4391 47.6724 58.61C47.84 58.7775 48.0748 58.8613 48.3771 58.8613C48.8435 58.8613 49.1178 58.6806 49.2 58.3192H50.2643C50.2216 58.7627 50.0311 59.1076 49.6927 59.354C49.3577 59.5971 48.9109 59.7187 48.3524 59.7187C47.9057 59.7187 47.5312 59.6398 47.2289 59.4821C46.93 59.3244 46.7033 59.1076 46.5489 58.8317C46.3978 58.5525 46.3223 58.2322 46.3223 57.8708C46.3223 57.5193 46.3978 57.204 46.5489 56.9247C46.7033 56.6455 46.9317 56.4254 47.2339 56.2644C47.5361 56.1035 47.9122 56.023 48.3623 56.023C49.3774 56.023 49.9884 56.4402 50.1953 57.2746ZM48.0962 59.5216L48.5643 59.63L48.4707 59.8468C48.6777 59.8698 48.8304 59.919 48.929 59.9946C49.0275 60.0734 49.0768 60.1753 49.0768 60.3001C49.0768 60.4446 49.0045 60.558 48.86 60.6401C48.7154 60.7222 48.5118 60.7633 48.249 60.7633C48.0091 60.7633 47.8203 60.7403 47.6823 60.6943V60.2952C47.7644 60.3083 47.8367 60.3182 47.8991 60.3247C47.9648 60.3346 48.0272 60.3395 48.0863 60.3395C48.1915 60.3395 48.267 60.3297 48.313 60.31C48.3623 60.2935 48.3869 60.2673 48.3869 60.2311C48.3869 60.1851 48.3574 60.1539 48.2982 60.1375C48.2424 60.1211 48.1455 60.1129 48.0075 60.1129H47.835L48.0962 59.5216Z" fill="#010101"/>
<path d="M54.2256 59.7187C53.792 59.7187 53.4191 59.6447 53.1071 59.4969C52.795 59.3491 52.5535 59.1372 52.3827 58.8613C52.2152 58.5853 52.1314 58.2552 52.1314 57.8708C52.1314 57.4865 52.2168 57.1563 52.3876 56.8804C52.5585 56.6044 52.8016 56.3925 53.1169 56.2447C53.4323 56.0969 53.8084 56.023 54.2453 56.023C54.679 56.023 55.0518 56.0969 55.3639 56.2447C55.676 56.3925 55.9158 56.6044 56.0833 56.8804C56.2541 57.1563 56.3396 57.4865 56.3396 57.8708C56.3396 58.2552 56.2541 58.5853 56.0833 58.8613C55.9125 59.1372 55.6694 59.3491 55.354 59.4969C55.0387 59.6447 54.6625 59.7187 54.2256 59.7187ZM55.2358 57.8708C55.2358 57.5555 55.1471 57.3124 54.9697 57.1415C54.7956 56.9674 54.5508 56.8804 54.2355 56.8804C53.9201 56.8804 53.6737 56.9674 53.4963 57.1415C53.3222 57.3156 53.2352 57.5587 53.2352 57.8708C53.2352 58.1862 53.3222 58.4309 53.4963 58.605C53.6737 58.7758 53.9201 58.8613 54.2355 58.8613C54.5508 58.8613 54.7956 58.7742 54.9697 58.6001C55.1471 58.426 55.2358 58.1829 55.2358 57.8708ZM53.1219 55.8209C53.1219 55.5286 53.1761 55.3183 53.2845 55.1902C53.3929 55.0621 53.5555 54.998 53.7723 54.998C53.93 54.998 54.1172 55.0523 54.334 55.1607C54.4194 55.2034 54.4851 55.2329 54.5311 55.2494C54.5771 55.2658 54.6182 55.274 54.6543 55.274C54.7167 55.274 54.7578 55.2543 54.7775 55.2149C54.7972 55.1722 54.8071 55.1048 54.8071 55.0128H55.3935C55.3935 55.2953 55.3393 55.5039 55.2308 55.6386C55.1224 55.77 54.9598 55.8357 54.743 55.8357C54.5886 55.8357 54.4063 55.7832 54.1961 55.6781C54.0351 55.5992 53.9234 55.5598 53.861 55.5598C53.8019 55.5598 53.7608 55.5828 53.7378 55.6288C53.7181 55.6715 53.7082 55.7355 53.7082 55.8209H53.1219Z" fill="#010101"/>
<path d="M58.4591 56.1117H61.5389V56.8853H59.4988V57.4569H61.4403V58.2305H59.4988V58.8563H61.6571L61.5586 59.63H58.4591V56.1117Z" fill="#010101"/>
<path d="M63.4729 58.4868H64.5175C64.5799 58.8087 64.8493 58.9697 65.3256 58.9697C65.8118 58.9697 66.0549 58.853 66.0549 58.6198C66.0549 58.5377 66.0188 58.472 65.9465 58.4227C65.8742 58.3701 65.756 58.3324 65.5917 58.3094L64.961 58.2157C64.4748 58.1402 64.12 58.0137 63.8966 57.8363C63.6765 57.6589 63.5665 57.4158 63.5665 57.107C63.5665 56.7654 63.7209 56.4993 64.0297 56.3088C64.3417 56.1182 64.7704 56.023 65.3158 56.023C66.3243 56.023 66.8893 56.3761 67.0108 57.0824L66.0007 57.181C65.9481 57.0364 65.866 56.9329 65.7543 56.8705C65.6426 56.8048 65.4849 56.772 65.2813 56.772C65.0645 56.772 64.8969 56.7983 64.7787 56.8508C64.6637 56.9034 64.6062 56.9789 64.6062 57.0775C64.6062 57.1596 64.6374 57.222 64.6998 57.2647C64.7622 57.3074 64.8772 57.3419 65.0447 57.3682L65.8134 57.4914C66.2701 57.5637 66.6002 57.6869 66.8039 57.861C67.0076 58.0318 67.1094 58.2732 67.1094 58.5853C67.1094 58.9598 66.9583 59.2423 66.6561 59.4329C66.3538 59.6234 65.9087 59.7187 65.3207 59.7187C64.1644 59.7187 63.5484 59.308 63.4729 58.4868Z" fill="#010101"/>
<path d="M71.9695 56.1117H75.0492V56.8853H73.0092V57.4569H74.9507V58.2305H73.0092V58.8563H75.1675L75.0689 59.63H71.9695V56.1117Z" fill="#010101"/>
<path d="M77.2493 56.1117H78.9148C79.6244 56.1117 80.1599 56.2611 80.5212 56.5601C80.8826 56.8557 81.0632 57.2926 81.0632 57.8708C81.0632 58.4293 80.8744 58.8629 80.4966 59.1717C80.1188 59.4772 79.5768 59.63 78.8705 59.63H77.2493V56.1117ZM78.8951 58.7873C79.6211 58.7873 79.9841 58.4802 79.9841 57.8659C79.9841 57.2582 79.6343 56.9543 78.9345 56.9543H78.2989V58.7873H78.8951Z" fill="#010101"/>
<path d="M84.2133 58.1714C84.2133 58.4079 84.2724 58.582 84.3907 58.6937C84.5123 58.8054 84.7028 58.8613 84.9623 58.8613C85.2251 58.8613 85.4156 58.8054 85.5339 58.6937C85.6554 58.582 85.7162 58.4079 85.7162 58.1714V56.1117H86.7806V58.0876C86.7806 58.6658 86.6245 59.083 86.3125 59.3392C86.0004 59.5922 85.5503 59.7187 84.9623 59.7187C84.3776 59.7187 83.9292 59.5922 83.6171 59.3392C83.305 59.083 83.149 58.6658 83.149 58.0876V56.1117H84.2133V58.1714Z" fill="#010101"/>
<path d="M92.7321 57.2746L91.6826 57.3879C91.6202 57.2072 91.5265 57.0775 91.4017 56.9986C91.2769 56.9198 91.1077 56.8804 90.8942 56.8804C90.6018 56.8804 90.3735 56.9658 90.2092 57.1366C90.045 57.3041 89.9629 57.5489 89.9629 57.8708C89.9629 58.1928 90.045 58.4391 90.2092 58.61C90.3768 58.7775 90.6116 58.8613 90.9139 58.8613C91.3803 58.8613 91.6547 58.6806 91.7368 58.3192H92.8011C92.7584 58.7627 92.5679 59.1076 92.2295 59.354C91.8945 59.5971 91.4477 59.7187 90.8892 59.7187C90.4425 59.7187 90.068 59.6398 89.7658 59.4821C89.4668 59.3244 89.2402 59.1076 89.0858 58.8317C88.9346 58.5525 88.8591 58.2322 88.8591 57.8708C88.8591 57.5193 88.9346 57.204 89.0858 56.9247C89.2402 56.6455 89.4685 56.4254 89.7707 56.2644C90.0729 56.1035 90.449 56.023 90.8991 56.023C91.9142 56.023 92.5252 56.4402 92.7321 57.2746Z" fill="#010101"/>
<path d="M95.8785 56.1117H97.1202L98.6478 59.63H97.544L97.2828 58.9894H95.6764L95.4301 59.63H94.3509L95.8785 56.1117ZM96.9872 58.201L96.4846 56.9149L95.9819 58.201H96.9872Z" fill="#010101"/>
<path d="M104.071 57.2746L103.022 57.3879C102.959 57.2072 102.866 57.0775 102.741 56.9986C102.616 56.9198 102.447 56.8804 102.233 56.8804C101.941 56.8804 101.713 56.9658 101.548 57.1366C101.384 57.3041 101.302 57.5489 101.302 57.8708C101.302 58.1928 101.384 58.4391 101.548 58.61C101.716 58.7775 101.951 58.8613 102.253 58.8613C102.72 58.8613 102.994 58.6806 103.076 58.3192H104.14C104.098 58.7627 103.907 59.1076 103.569 59.354C103.234 59.5971 102.787 59.7187 102.228 59.7187C101.782 59.7187 101.407 59.6398 101.105 59.4821C100.806 59.3244 100.579 59.1076 100.425 58.8317C100.274 58.5525 100.198 58.2322 100.198 57.8708C100.198 57.5193 100.274 57.204 100.425 56.9247C100.579 56.6455 100.808 56.4254 101.11 56.2644C101.412 56.1035 101.788 56.023 102.238 56.023C103.253 56.023 103.864 56.4402 104.071 57.2746Z" fill="#010101"/>
<path d="M106.165 56.1117H107.229V59.63H106.165V56.1117Z" fill="#010101"/>
<path d="M111.442 59.7187C111.009 59.7187 110.636 59.6447 110.324 59.4969C110.012 59.3491 109.77 59.1372 109.599 58.8613C109.432 58.5853 109.348 58.2552 109.348 57.8708C109.348 57.4865 109.433 57.1563 109.604 56.8804C109.775 56.6044 110.018 56.3925 110.333 56.2447C110.649 56.0969 111.025 56.023 111.462 56.023C111.895 56.023 112.268 56.0969 112.58 56.2447C112.892 56.3925 113.132 56.6044 113.3 56.8804C113.471 57.1563 113.556 57.4865 113.556 57.8708C113.556 58.2552 113.471 58.5853 113.3 58.8613C113.129 59.1372 112.886 59.3491 112.571 59.4969C112.255 59.6447 111.879 59.7187 111.442 59.7187ZM112.452 57.8708C112.452 57.5555 112.364 57.3124 112.186 57.1415C112.012 56.9674 111.767 56.8804 111.452 56.8804C111.137 56.8804 110.89 56.9674 110.713 57.1415C110.539 57.3156 110.452 57.5587 110.452 57.8708C110.452 58.1862 110.539 58.4309 110.713 58.605C110.89 58.7758 111.137 58.8613 111.452 58.8613C111.767 58.8613 112.012 58.7742 112.186 58.6001C112.364 58.426 112.452 58.1829 112.452 57.8708Z" fill="#010101"/>
<path d="M115.676 56.1117H116.622L118.381 58.2256V56.1117H119.386V59.63H118.44L116.681 57.516V59.63H115.676V56.1117Z" fill="#010101"/>
<path d="M122.841 56.1117H124.082L125.61 59.63H124.506L124.245 58.9894H122.638L122.392 59.63H121.313L122.841 56.1117ZM123.949 58.201L123.447 56.9149L122.944 58.201H123.949Z" fill="#010101"/>
<path d="M127.535 56.1117H128.599V59.63H127.535V56.1117Z" fill="#010101"/>
<path d="M130.609 58.4868H131.654C131.716 58.8087 131.985 58.9697 132.462 58.9697C132.948 58.9697 133.191 58.853 133.191 58.6198C133.191 58.5377 133.155 58.472 133.083 58.4227C133.01 58.3701 132.892 58.3324 132.728 58.3094L132.097 58.2157C131.611 58.1402 131.256 58.0137 131.033 57.8363C130.813 57.6589 130.703 57.4158 130.703 57.107C130.703 56.7654 130.857 56.4993 131.166 56.3088C131.478 56.1182 131.907 56.023 132.452 56.023C133.46 56.023 134.025 56.3761 134.147 57.0824L133.137 57.181C133.084 57.0364 133.002 56.9329 132.89 56.8705C132.779 56.8048 132.621 56.772 132.417 56.772C132.201 56.772 132.033 56.7983 131.915 56.8508C131.8 56.9034 131.742 56.9789 131.742 57.0775C131.742 57.1596 131.774 57.222 131.836 57.2647C131.898 57.3074 132.013 57.3419 132.181 57.3682L132.95 57.4914C133.406 57.5637 133.736 57.6869 133.94 57.861C134.144 58.0318 134.246 58.2732 134.246 58.5853C134.246 58.9598 134.094 59.2423 133.792 59.4329C133.49 59.6234 133.045 59.7187 132.457 59.7187C131.3 59.7187 130.685 59.308 130.609 58.4868Z" fill="#010101"/>
<path d="M41.255 62.2711H44.3347V63.0448H42.2947V63.6164H44.2362V64.39H42.2947V65.0158H44.453L44.3544 65.7894H41.255V62.2711Z" fill="#010101"/>
<path d="M49.3508 62.2711H51.1001C52.1546 62.2711 52.6819 62.6768 52.6819 63.4882C52.6819 63.9054 52.5455 64.2142 52.2729 64.4146C52.0035 64.6117 51.5929 64.7103 51.041 64.7103H50.3807V65.7894H49.3508V62.2711ZM51.0213 63.9219C51.2348 63.9219 51.3925 63.889 51.4943 63.8233C51.5962 63.7576 51.6471 63.6443 51.6471 63.4833C51.6471 63.3322 51.5978 63.2238 51.4993 63.1581C51.4007 63.0924 51.2447 63.0595 51.0311 63.0595H50.3807V63.9219H51.0213Z" fill="#010101"/>
<path d="M55.4571 62.2711H56.6988L58.2263 65.7894H57.1226L56.8614 65.1488H55.255L55.0086 65.7894H53.9295L55.4571 62.2711ZM56.5658 64.3604L56.0631 63.0743L55.5605 64.3604H56.5658Z" fill="#010101"/>
<path d="M60.1511 62.2711H61.9595C63.014 62.2711 63.5412 62.6604 63.5412 63.439C63.5412 63.6886 63.4887 63.8923 63.3835 64.05C63.2784 64.2044 63.124 64.3276 62.9203 64.4195L63.7827 65.7894H62.6444L61.9496 64.6216H61.1464V65.7894H60.1511V62.2711ZM61.8954 63.8627C62.1122 63.8627 62.2699 63.8315 62.3685 63.7691C62.4703 63.7034 62.5212 63.595 62.5212 63.4439C62.5212 63.2928 62.4736 63.186 62.3783 63.1236C62.2831 63.0612 62.1254 63.03 61.9053 63.03H61.1464V63.8627H61.8954Z" fill="#010101"/>
<path d="M66.9261 62.2711H68.1679L69.6954 65.7894H68.5917L68.3305 65.1488H66.7241L66.4777 65.7894H65.3986L66.9261 62.2711ZM68.0349 64.3604L67.5322 63.0743L67.0296 64.3604H68.0349Z" fill="#010101"/>
<path d="M75.6139 62.2711H76.8556L78.3832 65.7894H77.2794L77.0182 65.1488H75.4118L75.1655 65.7894H74.0863L75.6139 62.2711ZM76.7226 64.3604L76.22 63.0743L75.7173 64.3604H76.7226Z" fill="#010101"/>
<path d="M83.1239 62.2711H86.2036V63.0448H84.1636V63.6164H86.1051V64.39H84.1636V65.0158H86.3219L86.2233 65.7894H83.1239V62.2711Z" fill="#010101"/>
<path d="M88.1376 64.6462H89.1823C89.2447 64.9682 89.514 65.1291 89.9904 65.1291C90.4766 65.1291 90.7197 65.0125 90.7197 64.7793C90.7197 64.6971 90.6835 64.6314 90.6113 64.5822C90.539 64.5296 90.4207 64.4918 90.2565 64.4688L89.6257 64.3752C89.1396 64.2996 88.7848 64.1732 88.5614 63.9958C88.3413 63.8184 88.2312 63.5753 88.2312 63.2665C88.2312 62.9249 88.3856 62.6588 88.6944 62.4682C89.0065 62.2777 89.4352 62.1824 89.9805 62.1824C90.989 62.1824 91.5541 62.5356 91.6756 63.2419L90.6655 63.3404C90.6129 63.1959 90.5308 63.0924 90.4191 63.03C90.3074 62.9643 90.1497 62.9314 89.946 62.9314C89.7292 62.9314 89.5617 62.9577 89.4434 63.0103C89.3284 63.0628 89.271 63.1384 89.271 63.2369C89.271 63.3191 89.3022 63.3815 89.3646 63.4242C89.427 63.4669 89.542 63.5014 89.7095 63.5277L90.4782 63.6508C90.9348 63.7231 91.265 63.8463 91.4687 64.0204C91.6723 64.1912 91.7742 64.4327 91.7742 64.7448C91.7742 65.1193 91.623 65.4018 91.3208 65.5923C91.0186 65.7828 90.5735 65.8781 89.9855 65.8781C88.8291 65.8781 88.2132 65.4675 88.1376 64.6462Z" fill="#010101"/>
<path d="M97.5336 63.434L96.4841 63.5474C96.4216 63.3667 96.328 63.2369 96.2032 63.1581C96.0784 63.0793 95.9092 63.0398 95.6957 63.0398C95.4033 63.0398 95.175 63.1252 95.0107 63.2961C94.8465 63.4636 94.7643 63.7083 94.7643 64.0303C94.7643 64.3522 94.8465 64.5986 95.0107 64.7694C95.1783 64.9369 95.4131 65.0207 95.7154 65.0207C96.1818 65.0207 96.4561 64.84 96.5383 64.4787H97.6026C97.5599 64.9222 97.3694 65.2671 97.031 65.5135C96.6959 65.7566 96.2492 65.8781 95.6907 65.8781C95.244 65.8781 94.8695 65.7993 94.5672 65.6416C94.2683 65.4839 94.0416 65.2671 93.8872 64.9911C93.7361 64.7119 93.6606 64.3916 93.6606 64.0303C93.6606 63.6788 93.7361 63.3634 93.8872 63.0842C94.0416 62.805 94.2699 62.5849 94.5722 62.4239C94.8744 62.2629 95.2505 62.1824 95.7006 62.1824C96.7157 62.1824 97.3267 62.5996 97.5336 63.434Z" fill="#010101"/>
<path d="M99.6274 62.2711H101.436C102.49 62.2711 103.018 62.6604 103.018 63.439C103.018 63.6886 102.965 63.8923 102.86 64.05C102.755 64.2044 102.6 64.3276 102.397 64.4195L103.259 65.7894H102.121L101.426 64.6216H100.623V65.7894H99.6274V62.2711ZM101.372 63.8627C101.589 63.8627 101.746 63.8315 101.845 63.7691C101.947 63.7034 101.998 63.595 101.998 63.4439C101.998 63.2928 101.95 63.186 101.855 63.1236C101.759 63.0612 101.602 63.03 101.382 63.03H100.623V63.8627H101.372Z" fill="#010101"/>
<path d="M105.181 62.2711H106.246V65.7894H105.181V62.2711Z" fill="#010101"/>
<path d="M109.483 63.1335H108.182V62.2711H111.848V63.1335H110.547V65.7894H109.483V63.1335Z" fill="#010101"/>
<path d="M114.417 62.2711H115.658L117.186 65.7894H116.082L115.821 65.1488H114.214L113.968 65.7894H112.889L114.417 62.2711ZM115.525 64.3604L115.023 63.0743L114.52 64.3604H115.525Z" fill="#010101"/>
</svg>
