<svg width="158" height="77" viewBox="0 0 158 77" fill="none" xmlns="http://www.w3.org/2000/svg">
<path d="M13.3863 30.597C12.31 30.1736 11.5689 29.6001 11.1631 28.8767C10.7573 28.1533 10.5896 27.3505 10.6602 26.4683C10.7484 25.5684 11.0307 24.6156 11.5071 23.6099C12.0012 22.5865 12.6011 21.5632 13.3069 20.5398C14.0303 19.5164 14.8243 18.5195 15.6888 17.5491C16.5534 16.5787 17.4091 15.6876 18.2561 14.876C19.103 14.0644 19.897 13.3586 20.6381 12.7587C21.3791 12.1588 21.979 11.7177 22.4378 11.4354C23.073 11.0472 23.6023 10.8619 24.0258 10.8796C24.4492 10.8796 24.7845 11.0119 25.0315 11.2766C25.2961 11.5236 25.4726 11.8765 25.5608 12.3352C25.6667 12.7763 25.7108 13.2527 25.6931 13.7644C25.6931 14.2584 25.6402 14.7613 25.5343 15.273C25.4461 15.767 25.3226 16.1993 25.1638 16.5698C25.0227 16.9404 24.8639 17.2139 24.6874 17.3903C24.5286 17.5667 24.3698 17.5756 24.211 17.4168C24.1934 17.2756 24.211 17.0639 24.2639 16.7816C24.3169 16.4816 24.3786 16.1464 24.4492 15.7759C24.5374 15.4053 24.6168 15.026 24.6874 14.6378C24.758 14.2496 24.8021 13.8967 24.8197 13.5791C24.855 13.2439 24.8462 12.9616 24.7933 12.7322C24.758 12.5028 24.6609 12.3705 24.5021 12.3352C23.8846 12.1764 23.1435 12.3264 22.279 12.7851C21.432 13.2263 20.541 13.8703 19.6059 14.7172C18.6884 15.5465 17.7709 16.5169 16.8534 17.6285C15.9535 18.7224 15.133 19.8517 14.392 21.0162C13.6509 22.1807 13.0422 23.3188 12.5658 24.4304C12.0894 25.5243 11.8159 26.4947 11.7453 27.3417C11.6924 28.171 11.8777 28.815 12.3011 29.2737C12.7422 29.7148 13.5098 29.856 14.6037 29.6972C15.6094 29.556 16.5358 29.2031 17.3827 28.6385C18.2473 28.0563 19.0765 27.4211 19.8705 26.7329C20.6822 26.0272 21.485 25.339 22.279 24.6686C23.073 23.9804 23.9022 23.4599 24.7668 23.107C25.0844 22.9835 25.3314 23.0276 25.5079 23.2394C25.702 23.4511 25.7549 23.707 25.6667 24.0069C25.5608 24.3069 25.2432 24.7039 24.7139 25.1979C24.2022 25.6919 23.5582 26.2124 22.7818 26.7594C22.0231 27.2887 21.185 27.8269 20.2675 28.3739C19.35 28.9032 18.4502 29.3619 17.5679 29.7501C16.7034 30.1383 15.8917 30.4206 15.133 30.597C14.392 30.7735 13.8097 30.7735 13.3863 30.597Z" fill="#0078A3"/>
<path d="M26.3135 30.597C26.2782 30.5794 26.2782 30.3765 26.3135 29.9883C26.3664 29.5825 26.437 29.0796 26.5252 28.4797C26.6135 27.8798 26.7281 27.2182 26.8693 26.4947C27.0105 25.7713 27.1604 25.0832 27.3192 24.4304C27.478 23.7599 27.6456 23.1776 27.8221 22.6836C28.0162 22.1719 28.2014 21.819 28.3779 21.6249C28.5014 21.5014 28.6249 21.5014 28.7484 21.6249C28.8719 21.7308 28.9954 21.8719 29.1189 22.0484C29.2425 22.2072 29.366 22.3572 29.4895 22.4983C29.613 22.6218 29.7453 22.6307 29.8865 22.5248C30.3805 21.8367 30.9187 21.1838 31.5009 20.5663C32.1008 19.9311 32.7625 19.3841 33.4859 18.9254C33.5565 18.8724 33.7506 18.793 34.0682 18.6872C34.3858 18.5636 34.7475 18.449 35.1533 18.3431C35.5591 18.2196 35.9737 18.1225 36.3972 18.052C36.8383 17.9637 37.2088 17.9285 37.5088 17.9461C37.8264 17.9461 38.0381 18.0255 38.144 18.1843C38.2675 18.3255 38.2146 18.5725 37.9852 18.9254C36.9265 18.943 35.9385 19.2518 35.021 19.8517C34.1035 20.4516 33.2565 21.1926 32.4802 22.0749C31.7038 22.9571 30.9981 23.9187 30.3629 24.9597C29.7277 25.9831 29.1719 26.9359 28.6955 27.8181C28.2367 28.7003 27.8486 29.4325 27.531 30.0148C27.231 30.597 27.0105 30.8882 26.8693 30.8882C26.8517 30.8882 26.7723 30.8529 26.6311 30.7823C26.4899 30.6941 26.3841 30.6323 26.3135 30.597Z" fill="#0078A3"/>
<path d="M36.9382 30.597C37.6616 28.268 38.3144 26.4242 38.8967 25.0656C39.4966 23.6893 39.9906 22.7277 40.3788 22.1807C40.7846 21.6337 41.0581 21.4573 41.1993 21.6514C41.3404 21.8455 41.3228 22.3395 41.1463 23.1335C40.9875 23.9275 40.6347 24.995 40.0877 26.3359C39.5584 27.6593 38.8085 29.1767 37.838 30.8882C37.6969 30.9411 37.5293 30.9499 37.3352 30.9146C37.1411 30.8793 37.0088 30.7735 36.9382 30.597ZM41.5698 17.8667C41.5345 17.7785 41.5169 17.6197 41.5169 17.3903C41.5169 17.1609 41.5345 17.0198 41.5698 16.9668C41.9756 16.8257 42.2844 16.808 42.4961 16.9139C42.7079 17.0198 42.8402 17.1786 42.8931 17.3903C42.9461 17.5844 42.9372 17.7961 42.8667 18.0255C42.8137 18.2549 42.7167 18.4313 42.5755 18.5548C42.4344 18.6607 42.2668 18.6783 42.0727 18.6078C41.8962 18.5195 41.7286 18.2725 41.5698 17.8667Z" fill="#0078A3"/>
<path d="M42.3754 30.597C42.1637 30.4559 42.1549 30.2706 42.349 30.0412C42.5607 29.7942 42.8871 29.5384 43.3282 29.2737C43.787 28.9914 44.3163 28.7003 44.9162 28.4003C45.5161 28.1004 46.0896 27.8181 46.6365 27.5534C47.2011 27.2887 47.6952 27.0594 48.1187 26.8653C48.5421 26.6535 48.8156 26.4947 48.9391 26.3889C49.5214 25.8948 49.8213 25.489 49.839 25.1714C49.8743 24.8362 49.7331 24.5715 49.4155 24.3774C49.0979 24.1657 48.648 24.0069 48.0657 23.901C47.5011 23.7775 46.91 23.6717 46.2925 23.5834C45.6926 23.4776 45.1103 23.3717 44.5457 23.2658C43.9987 23.16 43.5841 23.0188 43.3018 22.8424C43.0195 22.6659 42.9224 22.4366 43.0106 22.1543C43.1165 21.8543 43.5047 21.475 44.1752 21.0162C44.4222 20.8398 44.7839 20.5839 45.2603 20.2487C45.7367 19.9134 46.2484 19.5694 46.7953 19.2165C47.3599 18.8636 47.9157 18.546 48.4627 18.2637C49.0097 17.9814 49.4684 17.7961 49.839 17.7079C50.0331 17.6726 50.2271 17.6903 50.4212 17.7608C50.633 17.8314 50.8006 17.9373 50.9241 18.0784C51.0476 18.2019 51.1005 18.3431 51.0829 18.5019C51.0829 18.6607 50.9682 18.8018 50.7388 18.9254C49.7331 19.49 48.7627 20.0193 47.8275 20.5133C46.91 21.0074 45.9837 21.572 45.0485 22.2072C44.9956 22.3483 45.0044 22.4719 45.075 22.5777C45.1632 22.6836 45.2603 22.763 45.3661 22.8159C47.2364 23.01 48.6392 23.2835 49.5743 23.6364C50.5271 23.9893 51.127 24.3774 51.374 24.8009C51.6387 25.2244 51.6122 25.6743 51.2946 26.1507C50.977 26.6271 50.5006 27.0947 49.8654 27.5534C49.2479 28.0122 48.5333 28.4444 47.7217 28.8503C46.91 29.2561 46.1248 29.6001 45.3661 29.8824C44.6251 30.1648 43.9722 30.3765 43.4076 30.5176C42.843 30.6588 42.499 30.6853 42.3754 30.597Z" fill="#0078A3"/>
<path d="M65.3716 30.597C64.4894 30.2265 63.9071 29.7148 63.6248 29.062C63.3425 28.3915 63.2454 27.6769 63.3337 26.9182C63.4219 26.1419 63.6336 25.3655 63.9688 24.5892C64.3217 23.8128 64.6834 23.1247 65.054 22.5248C65.1775 22.3131 65.4069 21.9513 65.7421 21.4397C66.0773 20.928 66.4302 20.3898 66.8008 19.8252C67.1889 19.243 67.5506 18.7048 67.8859 18.2108C68.2388 17.6991 68.4858 17.3462 68.6269 17.1521C68.8387 15.7935 69.2621 14.7172 69.8973 13.9232C70.5325 13.1116 71.2471 12.5558 72.0411 12.2558C72.8527 11.9559 73.682 11.8941 74.5289 12.0706C75.3759 12.2294 76.1169 12.6087 76.7521 13.2086C77.3873 13.7909 77.8461 14.576 78.1284 15.5641C78.4107 16.5522 78.3842 17.7079 78.049 19.0312C77.7314 20.3545 77.0433 21.8367 75.9846 23.4776C74.9259 25.1185 73.3732 26.8917 71.3265 28.7973C70.9736 29.1326 70.5502 29.459 70.0561 29.7766C69.5797 30.0765 69.068 30.3236 68.5211 30.5176C67.9917 30.7117 67.4536 30.8264 66.9066 30.8617C66.3596 30.897 65.848 30.8088 65.3716 30.597ZM64.4452 28.5062C64.6217 29.3002 64.9569 29.7942 65.451 29.9883C65.945 30.1824 66.5273 30.1471 67.1978 29.8824C67.8682 29.6178 68.6005 29.1679 69.3945 28.5327C70.1885 27.8975 70.9824 27.1564 71.7764 26.3095C72.5704 25.4449 73.3291 24.5098 74.0525 23.504C74.776 22.4983 75.4023 21.5014 75.9317 20.5133C76.4786 19.5253 76.8933 18.5813 77.1756 17.6814C77.4579 16.7816 77.5461 16.0052 77.4402 15.3524C77.352 14.6819 77.0344 14.179 76.4875 13.8438C75.9581 13.5086 75.1377 13.4115 74.0261 13.5527C73.6203 13.9056 73.0821 14.4261 72.4116 15.1142C71.7411 15.7847 71.0266 16.5522 70.2679 17.4168C69.5091 18.2813 68.7504 19.2165 67.9917 20.2222C67.233 21.2103 66.5626 22.1984 65.9803 23.1864C65.398 24.1745 64.9569 25.1273 64.657 26.0448C64.357 26.9623 64.2864 27.7828 64.4452 28.5062Z" fill="#0078A3"/>
<path d="M78.2607 30.597C77.749 30.2265 77.4138 29.7589 77.255 29.1943C77.1138 28.6297 77.0962 28.021 77.202 27.3681C77.3079 26.6977 77.4932 26.0095 77.7578 25.3038C78.0402 24.598 78.3401 23.9187 78.6577 23.2658C78.9929 22.613 79.3105 22.0131 79.6105 21.4661C79.9281 20.9192 80.1751 20.4692 80.3516 20.1163C80.4045 20.0105 80.528 19.7546 80.7221 19.3488C80.9338 18.943 81.1544 18.5019 81.3837 18.0255C81.6131 17.5491 81.8249 17.108 82.0189 16.7022C82.2307 16.2787 82.363 16.0141 82.4159 15.9082C82.4689 15.82 82.5394 15.6523 82.6277 15.4053C82.7335 15.1407 82.8482 14.8584 82.9717 14.5584C83.0952 14.2584 83.2276 13.9761 83.3687 13.7115C83.5275 13.4292 83.6863 13.2263 83.8451 13.1027C84.0216 12.9792 84.1892 12.9616 84.348 13.0498C84.5244 13.138 84.692 13.4027 84.8508 13.8438C84.7803 14.0202 84.6038 14.3731 84.3215 14.9025C84.0568 15.4318 83.7393 16.067 83.3687 16.808C82.9982 17.5491 82.5835 18.3696 82.1248 19.2694C81.6837 20.1693 81.2514 21.078 80.8279 21.9955C80.4045 22.913 80.0075 23.8128 79.637 24.695C79.2664 25.5596 78.9577 26.3536 78.7106 27.077C78.4813 27.7828 78.3401 28.3739 78.2872 28.8503C78.2519 29.309 78.3401 29.5913 78.5518 29.6972C78.7989 29.8207 79.1165 29.8736 79.5046 29.856C79.9104 29.8207 80.3251 29.7678 80.7486 29.6972C81.172 29.6266 81.5867 29.556 81.9925 29.4855C82.3983 29.3972 82.7512 29.3619 83.0511 29.3796C83.1217 29.5384 83.0688 29.6972 82.8923 29.856C82.7159 29.9971 82.4689 30.1295 82.1513 30.253C81.8337 30.3588 81.4631 30.4559 81.0397 30.5441C80.6339 30.6147 80.2369 30.6676 79.8487 30.7029C79.4782 30.7382 79.1429 30.747 78.843 30.7294C78.5607 30.7117 78.3666 30.6676 78.2607 30.597Z" fill="#0078A3"/>
<path d="M83.9626 30.597C84.6861 28.268 85.3389 26.4242 85.9212 25.0656C86.521 23.6893 87.0151 22.7277 87.4033 22.1807C87.8091 21.6337 88.0826 21.4573 88.2237 21.6514C88.3649 21.8455 88.3472 22.3395 88.1708 23.1335C88.012 23.9275 87.6591 24.995 87.1121 26.3359C86.5828 27.6593 85.8329 29.1767 84.8625 30.8882C84.7213 30.9411 84.5537 30.9499 84.3596 30.9146C84.1655 30.8793 84.0332 30.7735 83.9626 30.597ZM88.5943 17.8667C88.559 17.7785 88.5413 17.6197 88.5413 17.3903C88.5413 17.1609 88.559 17.0198 88.5943 16.9668C89.0001 16.8257 89.3088 16.808 89.5206 16.9139C89.7323 17.0198 89.8646 17.1786 89.9176 17.3903C89.9705 17.5844 89.9617 17.7961 89.8911 18.0255C89.8382 18.2549 89.7411 18.4313 89.6 18.5548C89.4588 18.6607 89.2912 18.6783 89.0971 18.6078C88.9207 18.5195 88.7531 18.2725 88.5943 17.8667Z" fill="#0078A3"/>
<path d="M90.141 30.2794C89.7704 30.0677 89.5058 29.7325 89.347 29.2737C89.1882 28.815 89.0999 28.2945 89.0823 27.7122C89.0647 27.1299 89.0999 26.5212 89.1882 25.886C89.2764 25.2508 89.3823 24.6333 89.5058 24.0334C89.6293 23.4335 89.7528 22.8953 89.8763 22.4189C89.9998 21.9425 90.088 21.572 90.141 21.3073C90.2292 21.2544 90.3174 21.2544 90.4056 21.3073C90.5115 21.3603 90.6085 21.4397 90.6968 21.5455C90.8026 21.6337 90.882 21.722 90.935 21.8102C91.0055 21.8808 91.0408 21.9161 91.0408 21.9161C91.0938 22.5336 91.0938 23.1423 91.0408 23.7422C91.0055 24.3245 90.9526 24.9068 90.882 25.489C90.8291 26.0713 90.7762 26.6624 90.7232 27.2623C90.6879 27.8622 90.6879 28.4709 90.7232 29.0885C90.8644 29.3531 91.1555 29.3619 91.5966 29.1149C92.0377 28.8503 92.5759 28.4356 93.2111 27.871C93.8463 27.2887 94.5344 26.6094 95.2754 25.8331C96.0341 25.0391 96.7752 24.2539 97.4986 23.4776C98.2397 22.7012 98.9366 21.9778 99.5895 21.3073C100.242 20.6192 100.789 20.0987 101.23 19.7458C101.689 19.3753 102.007 19.2253 102.183 19.2959C102.36 19.3488 102.333 19.7193 102.104 20.4075C101.68 20.778 101.177 21.3338 100.595 22.0749C100.013 22.8159 99.3777 23.6187 98.6896 24.4833C98.0015 25.3302 97.2869 26.1771 96.5458 27.0241C95.8048 27.871 95.0549 28.6032 94.2962 29.2208C93.5551 29.8207 92.8317 30.2442 92.1259 30.4912C91.4202 30.7205 90.7585 30.65 90.141 30.2794Z" fill="#0078A3"/>
<path d="M103.174 30.597C102.645 30.4206 102.239 30.1559 101.957 29.803C101.692 29.4325 101.516 29.0267 101.427 28.5856C101.339 28.1445 101.321 27.6857 101.374 27.2093C101.445 26.7153 101.551 26.2477 101.692 25.8066C102.221 25.242 102.812 24.598 103.465 23.8746C104.136 23.1335 104.841 22.4101 105.583 21.7043C106.324 20.9986 107.091 20.3457 107.885 19.7458C108.697 19.1283 109.517 18.6607 110.346 18.3431C110.629 18.2196 110.849 18.2284 111.008 18.3696C111.185 18.4931 111.308 18.696 111.379 18.9783C111.449 19.2606 111.476 19.587 111.458 19.9575C111.458 20.3281 111.432 20.6898 111.379 21.0427C111.326 21.3956 111.255 21.7131 111.167 21.9955C111.079 22.2778 110.99 22.4719 110.902 22.5777C110.691 22.8247 110.276 23.1159 109.658 23.4511C109.058 23.7864 108.388 24.1569 107.647 24.5627C106.906 24.9509 106.165 25.3567 105.424 25.7802C104.683 26.2036 104.074 26.6271 103.598 27.0505C103.121 27.4564 102.839 27.8622 102.751 28.268C102.662 28.6738 102.909 29.0443 103.492 29.3796C104.092 29.4502 104.815 29.4237 105.662 29.3002C106.526 29.159 107.4 28.9826 108.282 28.7709C109.182 28.5415 110.047 28.3121 110.876 28.0827C111.705 27.8357 112.384 27.6416 112.914 27.5005L113.231 27.7916C112.843 28.3033 112.208 28.7709 111.326 29.1943C110.444 29.6178 109.491 29.9707 108.467 30.253C107.444 30.5176 106.447 30.6941 105.477 30.7823C104.506 30.8529 103.739 30.7911 103.174 30.597ZM109.5 20.4869C109.482 20.4692 109.35 20.5486 109.103 20.7251C108.856 20.8839 108.547 21.1044 108.176 21.3867C107.823 21.6514 107.435 21.9513 107.012 22.2866C106.606 22.6042 106.227 22.9041 105.874 23.1864C105.538 23.4688 105.256 23.7158 105.027 23.9275C104.797 24.1216 104.7 24.2186 104.736 24.2186C105.018 24.2716 105.38 24.2363 105.821 24.1128C106.279 23.9716 106.747 23.7775 107.223 23.5305C107.717 23.2835 108.185 23.01 108.626 22.7101C109.067 22.3925 109.411 22.0837 109.658 21.7837C109.923 21.4838 110.055 21.2191 110.055 20.9897C110.073 20.7604 109.888 20.5927 109.5 20.4869Z" fill="#0078A3"/>
<path d="M112.728 30.597C113.452 28.268 114.105 26.4242 114.687 25.0656C115.287 23.6893 115.781 22.7277 116.169 22.1807C116.575 21.6337 116.848 21.4573 116.99 21.6514C117.131 21.8455 117.113 22.3395 116.937 23.1335C116.778 23.9275 116.425 24.995 115.878 26.3359C115.349 27.6593 114.599 29.1767 113.628 30.8882C113.487 30.9411 113.32 30.9499 113.125 30.9146C112.931 30.8793 112.799 30.7735 112.728 30.597ZM117.36 17.8667C117.325 17.7785 117.307 17.6197 117.307 17.3903C117.307 17.1609 117.325 17.0198 117.36 16.9668C117.766 16.8257 118.075 16.808 118.286 16.9139C118.498 17.0198 118.63 17.1786 118.683 17.3903C118.736 17.5844 118.727 17.7961 118.657 18.0255C118.604 18.2549 118.507 18.4313 118.366 18.5548C118.225 18.6607 118.057 18.6783 117.863 18.6078C117.686 18.5195 117.519 18.2725 117.36 17.8667Z" fill="#0078A3"/>
<path d="M118.166 30.597C118.13 30.5794 118.13 30.3765 118.166 29.9883C118.219 29.5825 118.289 29.0796 118.377 28.4797C118.466 27.8798 118.58 27.2182 118.721 26.4947C118.863 25.7713 119.013 25.0832 119.171 24.4304C119.33 23.7599 119.498 23.1776 119.674 22.6836C119.868 22.1719 120.054 21.819 120.23 21.6249C120.354 21.5014 120.477 21.5014 120.601 21.6249C120.724 21.7308 120.848 21.8719 120.971 22.0484C121.095 22.2072 121.218 22.3572 121.342 22.4983C121.465 22.6218 121.598 22.6307 121.739 22.5248C122.233 21.8367 122.771 21.1838 123.353 20.5663C123.953 19.9311 124.615 19.3841 125.338 18.9254C125.409 18.8724 125.603 18.793 125.92 18.6872C126.238 18.5636 126.6 18.449 127.005 18.3431C127.411 18.2196 127.826 18.1225 128.249 18.052C128.691 17.9637 129.061 17.9285 129.361 17.9461C129.679 17.9461 129.89 18.0255 129.996 18.1843C130.12 18.3255 130.067 18.5725 129.837 18.9254C128.779 18.943 127.791 19.2518 126.873 19.8517C125.956 20.4516 125.109 21.1926 124.332 22.0749C123.556 22.9571 122.85 23.9187 122.215 24.9597C121.58 25.9831 121.024 26.9359 120.548 27.8181C120.089 28.7003 119.701 29.4325 119.383 30.0148C119.083 30.597 118.863 30.8882 118.721 30.8882C118.704 30.8882 118.624 30.8529 118.483 30.7823C118.342 30.6941 118.236 30.6323 118.166 30.597Z" fill="#0078A3"/>
<path d="M127.433 30.2794C127.01 29.9266 126.772 29.4061 126.719 28.7179C126.683 28.0298 126.78 27.2535 127.01 26.3889C127.257 25.5243 127.61 24.6245 128.068 23.6893C128.545 22.7365 129.092 21.8367 129.709 20.9897C130.327 20.1252 130.997 19.3576 131.721 18.6872C132.444 17.999 133.168 17.4962 133.891 17.1786C134.614 16.8433 135.32 16.7286 136.008 16.8345C136.696 16.9227 137.323 17.3197 137.887 18.0255C138.24 18.4666 138.452 18.9165 138.523 19.3753C138.593 19.8164 138.584 20.2751 138.496 20.7515C138.408 21.2103 138.267 21.6867 138.073 22.1807C137.879 22.6571 137.685 23.1423 137.49 23.6364C137.314 24.1304 137.164 24.6333 137.04 25.145C136.935 25.6566 136.917 26.1771 136.988 26.7065C137.076 27.377 137.376 27.774 137.887 27.8975C138.399 28.021 139.008 27.9857 139.714 27.7916C140.437 27.5975 141.196 27.2887 141.99 26.8653C142.784 26.4418 143.516 26.0184 144.186 25.5949C144.875 25.1714 145.439 24.8009 145.88 24.4833C146.339 24.1657 146.568 24.0069 146.568 24.0069C147.062 23.901 147.336 23.9363 147.389 24.1128C147.459 24.2716 147.362 24.5186 147.098 24.8538C146.851 25.1714 146.471 25.542 145.96 25.9654C145.448 26.3712 144.866 26.7682 144.213 27.1564C143.56 27.5446 142.863 27.8975 142.122 28.2151C141.381 28.5327 140.658 28.7532 139.952 28.8767C139.246 28.9826 138.576 28.9738 137.94 28.8503C137.323 28.7091 136.811 28.3915 136.405 27.8975C136.211 27.6857 136.061 27.474 135.955 27.2623C135.867 27.0505 135.717 26.8653 135.505 26.7065C135.241 26.9535 134.923 27.2799 134.553 27.6857C134.182 28.0739 133.776 28.4709 133.335 28.8767C132.912 29.2649 132.453 29.6354 131.959 29.9883C131.483 30.3412 130.989 30.6059 130.477 30.7823C129.965 30.9587 129.445 31.0205 128.915 30.9676C128.404 30.9146 127.91 30.6853 127.433 30.2794ZM127.724 29.3796C127.883 29.9442 128.236 30.2089 128.783 30.1736C129.33 30.1206 129.965 29.8472 130.689 29.3531C131.412 28.8591 132.162 28.1886 132.938 27.3417C133.715 26.4771 134.411 25.5243 135.029 24.4833C135.647 23.4246 136.114 22.3131 136.432 21.1485C136.767 19.984 136.855 18.8371 136.696 17.7079C136.273 17.3727 135.744 17.3638 135.108 17.6814C134.473 17.9814 133.794 18.4842 133.071 19.19C132.365 19.8781 131.659 20.7074 130.953 21.6779C130.265 22.6307 129.656 23.6011 129.127 24.5892C128.598 25.5596 128.192 26.4771 127.91 27.3417C127.645 28.2062 127.583 28.8855 127.724 29.3796Z" fill="#0078A3"/>
<path d="M25.8559 44.9029H23.6697V43.4537H29.8307V44.9029H27.6446V49.3664H25.8559V44.9029Z" fill="#0078A3"/>
<path d="M34.8041 46.9152C34.8041 47.3127 34.9035 47.6053 35.1022 47.793C35.3065 47.9807 35.6267 48.0745 36.0628 48.0745C36.5045 48.0745 36.8247 47.9807 37.0234 47.793C37.2277 47.6053 37.3298 47.3127 37.3298 46.9152V43.4537H39.1185V46.7744C39.1185 47.7461 38.8563 48.4472 38.3318 48.8778C37.8074 49.3029 37.051 49.5154 36.0628 49.5154C35.0802 49.5154 34.3266 49.3029 33.8021 48.8778C33.2777 48.4472 33.0154 47.7461 33.0154 46.7744V43.4537H34.8041V46.9152Z" fill="#0078A3"/>
<path d="M42.8766 43.4537H45.6755C46.868 43.4537 47.7679 43.7049 48.3751 44.2073C48.9824 44.7042 49.286 45.4384 49.286 46.4101C49.286 47.3486 48.9686 48.0773 48.3337 48.5962C47.6989 49.1097 46.7879 49.3664 45.601 49.3664H42.8766V43.4537ZM45.6424 47.9503C46.8625 47.9503 47.4725 47.4341 47.4725 46.4018C47.4725 45.3805 46.8846 44.8698 45.7087 44.8698H44.6404V47.9503H45.6424Z" fill="#0078A3"/>
<path d="M56.1119 49.5154C55.3831 49.5154 54.7565 49.3912 54.2321 49.1428C53.7076 48.8944 53.3018 48.5383 53.0148 48.0745C52.7332 47.6108 52.5924 47.056 52.5924 46.4101C52.5924 45.7641 52.736 45.2093 53.023 44.7456C53.3101 44.2818 53.7186 43.9258 54.2486 43.6773C54.7786 43.4289 55.4107 43.3047 56.145 43.3047C56.8737 43.3047 57.5003 43.4289 58.0248 43.6773C58.5492 43.9258 58.9522 44.2818 59.2338 44.7456C59.5209 45.2093 59.6644 45.7641 59.6644 46.4101C59.6644 47.056 59.5209 47.6108 59.2338 48.0745C58.9467 48.5383 58.5382 48.8944 58.0082 49.1428C57.4782 49.3912 56.8461 49.5154 56.1119 49.5154ZM57.8095 46.4101C57.8095 45.8801 57.6604 45.4715 57.3623 45.1845C57.0697 44.8919 56.6584 44.7456 56.1284 44.7456C55.5984 44.7456 55.1844 44.8919 54.8863 45.1845C54.5937 45.4771 54.4474 45.8856 54.4474 46.4101C54.4474 46.94 54.5937 47.3513 54.8863 47.6439C55.1844 47.931 55.5984 48.0745 56.1284 48.0745C56.6584 48.0745 57.0697 47.9282 57.3623 47.6357C57.6604 47.3431 57.8095 46.9345 57.8095 46.4101Z" fill="#0078A3"/>
<path d="M67.9589 43.4537H70.7579C71.9504 43.4537 72.8502 43.7049 73.4575 44.2073C74.0648 44.7042 74.3684 45.4384 74.3684 46.4101C74.3684 47.3486 74.051 48.0773 73.4161 48.5962C72.7812 49.1097 71.8703 49.3664 70.6834 49.3664H67.9589V43.4537ZM70.7248 47.9503C71.9448 47.9503 72.5549 47.4341 72.5549 46.4018C72.5549 45.3805 71.9669 44.8698 70.791 44.8698H69.7228V47.9503H70.7248Z" fill="#0078A3"/>
<path d="M77.9398 43.4537H83.1154V44.7539H79.6871V45.7145H82.9498V47.0146H79.6871V48.0663H83.3142L83.1485 49.3664H77.9398V43.4537Z" fill="#0078A3"/>
<path d="M93.16 44.9029H90.9738V43.4537H97.1349V44.9029H94.9487V49.3664H93.16V44.9029Z" fill="#0078A3"/>
<path d="M100.386 43.4537H105.561V44.7539H102.133V45.7145H105.396V47.0146H102.133V48.0663H105.76L105.595 49.3664H100.386V43.4537Z" fill="#0078A3"/>
<path d="M115.768 49.3664H113.673L112.165 47.3872L110.658 49.3664H108.671L111.072 46.2941L108.853 43.4537H110.948L112.19 45.1762L113.499 43.4537H115.486L113.292 46.2362L115.768 49.3664Z" fill="#0078A3"/>
<path d="M120.62 44.9029H118.434V43.4537H124.595V44.9029H122.409V49.3664H120.62V44.9029Z" fill="#0078A3"/>
<path d="M130.833 49.5154C130.105 49.5154 129.478 49.3912 128.954 49.1428C128.429 48.8944 128.023 48.5383 127.736 48.0745C127.455 47.6108 127.314 47.056 127.314 46.4101C127.314 45.7641 127.457 45.2093 127.745 44.7456C128.032 44.2818 128.44 43.9258 128.97 43.6773C129.5 43.4289 130.132 43.3047 130.866 43.3047C131.595 43.3047 132.222 43.4289 132.746 43.6773C133.271 43.9258 133.674 44.2818 133.955 44.7456C134.242 45.2093 134.386 45.7641 134.386 46.4101C134.386 47.056 134.242 47.6108 133.955 48.0745C133.668 48.5383 133.26 48.8944 132.73 49.1428C132.2 49.3912 131.568 49.5154 130.833 49.5154ZM132.531 46.4101C132.531 45.8801 132.382 45.4715 132.084 45.1845C131.791 44.8919 131.38 44.7456 130.85 44.7456C130.32 44.7456 129.906 44.8919 129.608 45.1845C129.315 45.4771 129.169 45.8856 129.169 46.4101C129.169 46.94 129.315 47.3513 129.608 47.6439C129.906 47.931 130.32 48.0745 130.85 48.0745C131.38 48.0745 131.791 47.9282 132.084 47.6357C132.382 47.3431 132.531 46.9345 132.531 46.4101Z" fill="#0078A3"/>
<path d="M23.8101 59.1635H24.8547C24.9171 59.4855 25.1865 59.6464 25.6628 59.6464C26.149 59.6464 26.3921 59.5298 26.3921 59.2966C26.3921 59.2144 26.356 59.1487 26.2837 59.0995C26.2114 59.0469 26.0932 59.0091 25.9289 58.9861L25.2982 58.8925C24.812 58.8169 24.4572 58.6905 24.2338 58.5131C24.0137 58.3357 23.9037 58.0926 23.9037 57.7838C23.9037 57.4422 24.0581 57.1761 24.3669 56.9855C24.679 56.795 25.1077 56.6997 25.653 56.6997C26.6615 56.6997 27.2265 57.0529 27.348 57.7592L26.3379 57.8577C26.2853 57.7132 26.2032 57.6097 26.0915 57.5473C25.9798 57.4816 25.8221 57.4487 25.6185 57.4487C25.4017 57.4487 25.2341 57.475 25.1159 57.5276C25.0009 57.5801 24.9434 57.6557 24.9434 57.7542C24.9434 57.8364 24.9746 57.8988 25.037 57.9415C25.0994 57.9842 25.2144 58.0187 25.382 58.045L26.1507 58.1682C26.6073 58.2404 26.9374 58.3636 27.1411 58.5377C27.3448 58.7085 27.4466 58.95 27.4466 59.2621C27.4466 59.6366 27.2955 59.9191 26.9933 60.1096C26.691 60.3001 26.2459 60.3954 25.6579 60.3954C24.5016 60.3954 23.8856 59.9848 23.8101 59.1635Z" fill="#0078A3"/>
<path d="M31.4272 60.3954C30.9936 60.3954 30.6207 60.3215 30.3087 60.1737C29.9966 60.0258 29.7551 59.814 29.5843 59.538C29.4168 59.2621 29.333 58.9319 29.333 58.5476C29.333 58.1632 29.4184 57.8331 29.5892 57.5571C29.7601 57.2812 30.0032 57.0693 30.3185 56.9215C30.6339 56.7737 31.01 56.6997 31.4469 56.6997C31.8806 56.6997 32.2534 56.7737 32.5655 56.9215C32.8776 57.0693 33.1174 57.2812 33.2849 57.5571C33.4557 57.8331 33.5412 58.1632 33.5412 58.5476C33.5412 58.9319 33.4557 59.2621 33.2849 59.538C33.1141 59.814 32.871 60.0258 32.5556 60.1737C32.2403 60.3215 31.8641 60.3954 31.4272 60.3954ZM32.4374 58.5476C32.4374 58.2322 32.3487 57.9891 32.1713 57.8183C31.9972 57.6442 31.7524 57.5571 31.4371 57.5571C31.1217 57.5571 30.8753 57.6442 30.6979 57.8183C30.5238 57.9924 30.4368 58.2355 30.4368 58.5476C30.4368 58.8629 30.5238 59.1077 30.6979 59.2818C30.8753 59.4526 31.1217 59.538 31.4371 59.538C31.7524 59.538 31.9972 59.451 32.1713 59.2769C32.3487 59.1027 32.4374 58.8597 32.4374 58.5476Z" fill="#0078A3"/>
<path d="M35.6607 56.7884H36.7251V59.4444H38.7257L38.6173 60.3067H35.6607V56.7884Z" fill="#0078A3"/>
<path d="M41.6768 58.8482C41.6768 59.0847 41.7359 59.2588 41.8541 59.3705C41.9757 59.4822 42.1662 59.538 42.4257 59.538C42.6885 59.538 42.8791 59.4822 42.9973 59.3705C43.1189 59.2588 43.1797 59.0847 43.1797 58.8482V56.7884H44.244V58.7644C44.244 59.3426 44.088 59.7598 43.7759 60.016C43.4638 60.2689 43.0138 60.3954 42.4257 60.3954C41.841 60.3954 41.3926 60.2689 41.0805 60.016C40.7684 59.7598 40.6124 59.3426 40.6124 58.7644V56.7884H41.6768V58.8482Z" fill="#0078A3"/>
<path d="M50.1956 57.9513L49.146 58.0647C49.0836 57.884 48.99 57.7542 48.8651 57.6754C48.7403 57.5966 48.5711 57.5571 48.3576 57.5571C48.0652 57.5571 47.8369 57.6425 47.6727 57.8134C47.5084 57.9809 47.4263 58.2256 47.4263 58.5476C47.4263 58.8695 47.5084 59.1159 47.6727 59.2867C47.8402 59.4542 48.0751 59.538 48.3773 59.538C48.8438 59.538 49.1181 59.3573 49.2002 58.996H50.2646C50.2219 59.4395 50.0313 59.7844 49.693 60.0308C49.3579 60.2739 48.9111 60.3954 48.3527 60.3954C47.9059 60.3954 47.5314 60.3166 47.2292 60.1589C46.9303 60.0012 46.7036 59.7844 46.5492 59.5084C46.3981 59.2292 46.3225 58.9089 46.3225 58.5476C46.3225 58.1961 46.3981 57.8807 46.5492 57.6015C46.7036 57.3223 46.9319 57.1022 47.2341 56.9412C47.5363 56.7802 47.9125 56.6997 48.3625 56.6997C49.3776 56.6997 49.9886 57.1169 50.1956 57.9513ZM48.0964 60.1983L48.5646 60.3067L48.4709 60.5235C48.6779 60.5465 48.8306 60.5958 48.9292 60.6714C49.0278 60.7502 49.077 60.852 49.077 60.9769C49.077 61.1214 49.0048 61.2347 48.8602 61.3169C48.7157 61.399 48.512 61.4401 48.2492 61.4401C48.0094 61.4401 47.8205 61.4171 47.6825 61.3711V60.9719C47.7647 60.9851 47.8369 60.9949 47.8993 61.0015C47.965 61.0114 48.0275 61.0163 48.0866 61.0163C48.1917 61.0163 48.2673 61.0064 48.3133 60.9867C48.3625 60.9703 48.3872 60.944 48.3872 60.9079C48.3872 60.8619 48.3576 60.8307 48.2985 60.8143C48.2426 60.7978 48.1457 60.7896 48.0077 60.7896H47.8353L48.0964 60.1983Z" fill="#0078A3"/>
<path d="M54.2259 60.3954C53.7922 60.3954 53.4194 60.3215 53.1073 60.1737C52.7952 60.0258 52.5538 59.814 52.383 59.538C52.2154 59.2621 52.1317 58.9319 52.1317 58.5476C52.1317 58.1632 52.2171 57.8331 52.3879 57.5571C52.5587 57.2812 52.8018 57.0693 53.1172 56.9215C53.4325 56.7737 53.8087 56.6997 54.2456 56.6997C54.6792 56.6997 55.0521 56.7737 55.3641 56.9215C55.6762 57.0693 55.916 57.2812 56.0836 57.5571C56.2544 57.8331 56.3398 58.1632 56.3398 58.5476C56.3398 58.9319 56.2544 59.2621 56.0836 59.538C55.9127 59.814 55.6696 60.0258 55.3543 60.1737C55.0389 60.3215 54.6628 60.3954 54.2259 60.3954ZM55.236 58.5476C55.236 58.2322 55.1473 57.9891 54.9699 57.8183C54.7958 57.6442 54.5511 57.5571 54.2357 57.5571C53.9204 57.5571 53.674 57.6442 53.4966 57.8183C53.3225 57.9924 53.2354 58.2355 53.2354 58.5476C53.2354 58.8629 53.3225 59.1077 53.4966 59.2818C53.674 59.4526 53.9204 59.538 54.2357 59.538C54.5511 59.538 54.7958 59.451 54.9699 59.2769C55.1473 59.1027 55.236 58.8597 55.236 58.5476ZM53.1221 56.4977C53.1221 56.2053 53.1763 55.9951 53.2847 55.867C53.3931 55.7389 53.5557 55.6748 53.7725 55.6748C53.9302 55.6748 54.1175 55.729 54.3343 55.8374C54.4197 55.8801 54.4854 55.9097 54.5314 55.9261C54.5774 55.9425 54.6184 55.9507 54.6546 55.9507C54.717 55.9507 54.758 55.931 54.7778 55.8916C54.7975 55.8489 54.8073 55.7816 54.8073 55.6896H55.3937C55.3937 55.9721 55.3395 56.1807 55.2311 56.3154C55.1227 56.4468 54.9601 56.5125 54.7433 56.5125C54.5889 56.5125 54.4065 56.4599 54.1963 56.3548C54.0353 56.276 53.9236 56.2365 53.8612 56.2365C53.8021 56.2365 53.761 56.2595 53.738 56.3055C53.7183 56.3482 53.7085 56.4123 53.7085 56.4977H53.1221Z" fill="#0078A3"/>
<path d="M58.4594 56.7884H61.5391V57.5621H59.4991V58.1337H61.4406V58.9073H59.4991V59.5331H61.6574L61.5588 60.3067H58.4594V56.7884Z" fill="#0078A3"/>
<path d="M63.4731 59.1635H64.5177C64.5802 59.4855 64.8495 59.6464 65.3259 59.6464C65.812 59.6464 66.0551 59.5298 66.0551 59.2966C66.0551 59.2144 66.019 59.1487 65.9467 59.0995C65.8745 59.0469 65.7562 59.0091 65.5919 58.9861L64.9612 58.8925C64.475 58.8169 64.1203 58.6905 63.8969 58.5131C63.6768 58.3357 63.5667 58.0926 63.5667 57.7838C63.5667 57.4422 63.7211 57.1761 64.0299 56.9855C64.342 56.795 64.7707 56.6997 65.316 56.6997C66.3245 56.6997 66.8895 57.0529 67.0111 57.7592L66.0009 57.8577C65.9484 57.7132 65.8662 57.6097 65.7546 57.5473C65.6429 57.4816 65.4852 57.4487 65.2815 57.4487C65.0647 57.4487 64.8972 57.475 64.7789 57.5276C64.6639 57.5801 64.6064 57.6557 64.6064 57.7542C64.6064 57.8364 64.6376 57.8988 64.7001 57.9415C64.7625 57.9842 64.8774 58.0187 65.045 58.045L65.8137 58.1682C66.2703 58.2404 66.6005 58.3636 66.8041 58.5377C67.0078 58.7085 67.1096 58.95 67.1096 59.2621C67.1096 59.6366 66.9585 59.9191 66.6563 60.1096C66.3541 60.3001 65.909 60.3954 65.3209 60.3954C64.1646 60.3954 63.5487 59.9848 63.4731 59.1635Z" fill="#0078A3"/>
<path d="M71.9698 56.7884H75.0495V57.5621H73.0095V58.1337H74.9509V58.9073H73.0095V59.5331H75.1677L75.0692 60.3067H71.9698V56.7884Z" fill="#0078A3"/>
<path d="M77.2496 56.7884H78.9151C79.6246 56.7884 80.1601 56.9379 80.5215 57.2368C80.8828 57.5325 81.0635 57.9694 81.0635 58.5476C81.0635 59.106 80.8746 59.5397 80.4968 59.8485C80.119 60.154 79.577 60.3067 78.8707 60.3067H77.2496V56.7884ZM78.8954 59.4641C79.6214 59.4641 79.9844 59.1569 79.9844 58.5426C79.9844 57.9349 79.6345 57.631 78.9348 57.631H78.2991V59.4641H78.8954Z" fill="#0078A3"/>
<path d="M84.2136 58.8482C84.2136 59.0847 84.2727 59.2588 84.3909 59.3705C84.5125 59.4822 84.703 59.538 84.9625 59.538C85.2253 59.538 85.4159 59.4822 85.5341 59.3705C85.6557 59.2588 85.7165 59.0847 85.7165 58.8482V56.7884H86.7808V58.7644C86.7808 59.3426 86.6248 59.7598 86.3127 60.016C86.0006 60.2689 85.5506 60.3954 84.9625 60.3954C84.3778 60.3954 83.9294 60.2689 83.6173 60.016C83.3052 59.7598 83.1492 59.3426 83.1492 58.7644V56.7884H84.2136V58.8482Z" fill="#0078A3"/>
<path d="M92.7324 57.9513L91.6828 58.0647C91.6204 57.884 91.5268 57.7542 91.4019 57.6754C91.2771 57.5966 91.1079 57.5571 90.8944 57.5571C90.602 57.5571 90.3737 57.6425 90.2095 57.8134C90.0452 57.9809 89.9631 58.2256 89.9631 58.5476C89.9631 58.8695 90.0452 59.1159 90.2095 59.2867C90.377 59.4542 90.6119 59.538 90.9141 59.538C91.3806 59.538 91.6549 59.3573 91.737 58.996H92.8014C92.7587 59.4395 92.5681 59.7844 92.2298 60.0308C91.8947 60.2739 91.4479 60.3954 90.8895 60.3954C90.4427 60.3954 90.0682 60.3166 89.766 60.1589C89.4671 60.0012 89.2404 59.7844 89.086 59.5084C88.9349 59.2292 88.8593 58.9089 88.8593 58.5476C88.8593 58.1961 88.9349 57.8807 89.086 57.6015C89.2404 57.3223 89.4687 57.1022 89.7709 56.9412C90.0732 56.7802 90.4493 56.6997 90.8993 56.6997C91.9144 56.6997 92.5254 57.1169 92.7324 57.9513Z" fill="#0078A3"/>
<path d="M95.8787 56.7884H97.1205L98.648 60.3067H97.5442L97.2831 59.6661H95.6767L95.4303 60.3067H94.3512L95.8787 56.7884ZM96.9874 58.8777L96.4848 57.5916L95.9822 58.8777H96.9874Z" fill="#0078A3"/>
<path d="M104.072 57.9513L103.022 58.0647C102.96 57.884 102.866 57.7542 102.741 57.6754C102.616 57.5966 102.447 57.5571 102.234 57.5571C101.941 57.5571 101.713 57.6425 101.549 57.8134C101.384 57.9809 101.302 58.2256 101.302 58.5476C101.302 58.8695 101.384 59.1159 101.549 59.2867C101.716 59.4542 101.951 59.538 102.253 59.538C102.72 59.538 102.994 59.3573 103.076 58.996H104.141C104.098 59.4395 103.907 59.7844 103.569 60.0308C103.234 60.2739 102.787 60.3954 102.229 60.3954C101.782 60.3954 101.407 60.3166 101.105 60.1589C100.806 60.0012 100.58 59.7844 100.425 59.5084C100.274 59.2292 100.198 58.9089 100.198 58.5476C100.198 58.1961 100.274 57.8807 100.425 57.6015C100.58 57.3223 100.808 57.1022 101.11 56.9412C101.412 56.7802 101.788 56.6997 102.239 56.6997C103.254 56.6997 103.865 57.1169 104.072 57.9513Z" fill="#0078A3"/>
<path d="M106.165 56.7884H107.23V60.3067H106.165V56.7884Z" fill="#0078A3"/>
<path d="M111.442 60.3954C111.009 60.3954 110.636 60.3215 110.324 60.1737C110.012 60.0258 109.77 59.814 109.599 59.538C109.432 59.2621 109.348 58.9319 109.348 58.5476C109.348 58.1632 109.434 57.8331 109.604 57.5571C109.775 57.2812 110.018 57.0693 110.334 56.9215C110.649 56.7737 111.025 56.6997 111.462 56.6997C111.896 56.6997 112.269 56.7737 112.581 56.9215C112.893 57.0693 113.133 57.2812 113.3 57.5571C113.471 57.8331 113.556 58.1632 113.556 58.5476C113.556 58.9319 113.471 59.2621 113.3 59.538C113.129 59.814 112.886 60.0258 112.571 60.1737C112.255 60.3215 111.879 60.3954 111.442 60.3954ZM112.453 58.5476C112.453 58.2322 112.364 57.9891 112.186 57.8183C112.012 57.6442 111.768 57.5571 111.452 57.5571C111.137 57.5571 110.89 57.6442 110.713 57.8183C110.539 57.9924 110.452 58.2355 110.452 58.5476C110.452 58.8629 110.539 59.1077 110.713 59.2818C110.89 59.4526 111.137 59.538 111.452 59.538C111.768 59.538 112.012 59.451 112.186 59.2769C112.364 59.1027 112.453 58.8597 112.453 58.5476Z" fill="#0078A3"/>
<path d="M115.676 56.7884H116.622L118.381 58.9024V56.7884H119.386V60.3067H118.44L116.681 58.1928V60.3067H115.676V56.7884Z" fill="#0078A3"/>
<path d="M122.841 56.7884H124.083L125.61 60.3067H124.506L124.245 59.6661H122.639L122.392 60.3067H121.313L122.841 56.7884ZM123.949 58.8777L123.447 57.5916L122.944 58.8777H123.949Z" fill="#0078A3"/>
<path d="M127.535 56.7884H128.599V60.3067H127.535V56.7884Z" fill="#0078A3"/>
<path d="M130.609 59.1635H131.654C131.716 59.4855 131.986 59.6464 132.462 59.6464C132.948 59.6464 133.191 59.5298 133.191 59.2966C133.191 59.2144 133.155 59.1487 133.083 59.0995C133.011 59.0469 132.892 59.0091 132.728 58.9861L132.097 58.8925C131.611 58.8169 131.256 58.6905 131.033 58.5131C130.813 58.3357 130.703 58.0926 130.703 57.7838C130.703 57.4422 130.857 57.1761 131.166 56.9855C131.478 56.795 131.907 56.6997 132.452 56.6997C133.461 56.6997 134.026 57.0529 134.147 57.7592L133.137 57.8577C133.085 57.7132 133.002 57.6097 132.891 57.5473C132.779 57.4816 132.621 57.4487 132.418 57.4487C132.201 57.4487 132.033 57.475 131.915 57.5276C131.8 57.5801 131.743 57.6557 131.743 57.7542C131.743 57.8364 131.774 57.8988 131.836 57.9415C131.899 57.9842 132.014 58.0187 132.181 58.045L132.95 58.1682C133.406 58.2404 133.737 58.3636 133.94 58.5377C134.144 58.7085 134.246 58.95 134.246 59.2621C134.246 59.6366 134.095 59.9191 133.792 60.1096C133.49 60.3001 133.045 60.3954 132.457 60.3954C131.301 60.3954 130.685 59.9848 130.609 59.1635Z" fill="#0078A3"/>
<path d="M41.2553 62.9479H44.335V63.7215H42.295V64.2931H44.2364V65.0667H42.295V65.6925H44.4532L44.3547 66.4662H41.2553V62.9479Z" fill="#0078A3"/>
<path d="M49.3511 62.9479H51.1004C52.1549 62.9479 52.6821 63.3536 52.6821 64.165C52.6821 64.5822 52.5458 64.891 52.2731 65.0914C52.0038 65.2885 51.5931 65.387 51.0412 65.387H50.3809V66.4662H49.3511V62.9479ZM51.0215 64.5986C51.2351 64.5986 51.3927 64.5658 51.4946 64.5001C51.5964 64.4344 51.6473 64.321 51.6473 64.1601C51.6473 64.009 51.5981 63.9006 51.4995 63.8349C51.401 63.7691 51.2449 63.7363 51.0314 63.7363H50.3809V64.5986H51.0215Z" fill="#0078A3"/>
<path d="M55.4573 62.9479H56.699L58.2266 66.4662H57.1228L56.8617 65.8256H55.2553L55.0089 66.4662H53.9298L55.4573 62.9479ZM56.566 65.0372L56.0634 63.7511L55.5608 65.0372H56.566Z" fill="#0078A3"/>
<path d="M60.1513 62.9479H61.9597C63.0142 62.9479 63.5415 63.3372 63.5415 64.1157C63.5415 64.3654 63.4889 64.5691 63.3838 64.7267C63.2787 64.8811 63.1243 65.0043 62.9206 65.0963L63.7829 66.4662H62.6446L61.9499 65.2983H61.1467V66.4662H60.1513V62.9479ZM61.8957 64.5395C62.1125 64.5395 62.2702 64.5083 62.3687 64.4459C62.4705 64.3802 62.5215 64.2718 62.5215 64.1206C62.5215 63.9695 62.4738 63.8628 62.3786 63.8004C62.2833 63.7379 62.1256 63.7067 61.9055 63.7067H61.1467V64.5395H61.8957Z" fill="#0078A3"/>
<path d="M66.9264 62.9479H68.1681L69.6957 66.4662H68.5919L68.3307 65.8256H66.7244L66.478 66.4662H65.3988L66.9264 62.9479ZM68.0351 65.0372L67.5325 63.7511L67.0299 65.0372H68.0351Z" fill="#0078A3"/>
<path d="M75.6141 62.9479H76.8559L78.3834 66.4662H77.2796L77.0185 65.8256H75.4121L75.1657 66.4662H74.0866L75.6141 62.9479ZM76.7228 65.0372L76.2202 63.7511L75.7176 65.0372H76.7228Z" fill="#0078A3"/>
<path d="M83.1241 62.9479H86.2039V63.7215H84.1639V64.2931H86.1053V65.0667H84.1639V65.6925H86.3221L86.2236 66.4662H83.1241V62.9479Z" fill="#0078A3"/>
<path d="M88.1379 65.323H89.1825C89.2449 65.6449 89.5143 65.8059 89.9906 65.8059C90.4768 65.8059 90.7199 65.6893 90.7199 65.456C90.7199 65.3739 90.6838 65.3082 90.6115 65.2589C90.5392 65.2064 90.421 65.1686 90.2567 65.1456L89.626 65.052C89.1398 64.9764 88.785 64.8499 88.5616 64.6725C88.3415 64.4951 88.2315 64.2521 88.2315 63.9433C88.2315 63.6016 88.3859 63.3355 88.6947 63.145C89.0068 62.9545 89.4355 62.8592 89.9808 62.8592C90.9893 62.8592 91.5543 63.2123 91.6758 63.9186L90.6657 64.0172C90.6131 63.8726 90.531 63.7691 90.4193 63.7067C90.3076 63.641 90.1499 63.6082 89.9463 63.6082C89.7295 63.6082 89.5619 63.6345 89.4437 63.687C89.3287 63.7396 89.2712 63.8151 89.2712 63.9137C89.2712 63.9958 89.3024 64.0582 89.3648 64.1009C89.4272 64.1436 89.5422 64.1781 89.7098 64.2044L90.4785 64.3276C90.9351 64.3999 91.2652 64.5231 91.4689 64.6972C91.6726 64.868 91.7744 65.1094 91.7744 65.4215C91.7744 65.796 91.6233 66.0785 91.3211 66.2691C91.0188 66.4596 90.5737 66.5549 89.9857 66.5549C88.8294 66.5549 88.2134 66.1442 88.1379 65.323Z" fill="#0078A3"/>
<path d="M97.5339 64.1108L96.4843 64.2241C96.4219 64.0435 96.3283 63.9137 96.2034 63.8349C96.0786 63.756 95.9094 63.7166 95.6959 63.7166C95.4035 63.7166 95.1752 63.802 95.011 63.9728C94.8467 64.1404 94.7646 64.3851 94.7646 64.707C94.7646 65.029 94.8467 65.2753 95.011 65.4462C95.1785 65.6137 95.4134 65.6975 95.7156 65.6975C96.1821 65.6975 96.4564 65.5168 96.5385 65.1554H97.6029C97.5602 65.5989 97.3696 65.9438 97.0313 66.1902C96.6962 66.4333 96.2494 66.5549 95.691 66.5549C95.2442 66.5549 94.8697 66.476 94.5675 66.3183C94.2685 66.1607 94.0419 65.9438 93.8875 65.6679C93.7364 65.3887 93.6608 65.0684 93.6608 64.707C93.6608 64.3555 93.7364 64.0402 93.8875 63.7609C94.0419 63.4817 94.2702 63.2616 94.5724 63.1006C94.8746 62.9397 95.2508 62.8592 95.7008 62.8592C96.7159 62.8592 97.3269 63.2764 97.5339 64.1108Z" fill="#0078A3"/>
<path d="M99.6276 62.9479H101.436C102.491 62.9479 103.018 63.3372 103.018 64.1157C103.018 64.3654 102.965 64.5691 102.86 64.7267C102.755 64.8811 102.601 65.0043 102.397 65.0963L103.259 66.4662H102.121L101.426 65.2983H100.623V66.4662H99.6276V62.9479ZM101.372 64.5395C101.589 64.5395 101.746 64.5083 101.845 64.4459C101.947 64.3802 101.998 64.2718 101.998 64.1206C101.998 63.9695 101.95 63.8628 101.855 63.8004C101.76 63.7379 101.602 63.7067 101.382 63.7067H100.623V64.5395H101.372Z" fill="#0078A3"/>
<path d="M105.182 62.9479H106.246V66.4662H105.182V62.9479Z" fill="#0078A3"/>
<path d="M109.483 63.8102H108.182V62.9479H111.848V63.8102H110.548V66.4662H109.483V63.8102Z" fill="#0078A3"/>
<path d="M114.417 62.9479H115.659L117.186 66.4662H116.082L115.821 65.8256H114.215L113.968 66.4662H112.889L114.417 62.9479ZM115.525 65.0372L115.023 63.7511L114.52 65.0372H115.525Z" fill="#0078A3"/>
</svg>
