<svg width="158" height="59" viewBox="0 0 158 59" fill="none" xmlns="http://www.w3.org/2000/svg">
<path d="M13.3377 30.6346C12.2606 30.2108 11.519 29.6369 11.1129 28.913C10.7068 28.189 10.5391 27.3856 10.6097 26.5028C10.698 25.6022 10.9805 24.6487 11.4572 23.6423C11.9516 22.6181 12.552 21.594 13.2583 20.5699C13.9822 19.5458 14.7768 18.5481 15.642 17.577C16.5072 16.6058 17.3636 15.7141 18.2112 14.9019C19.0587 14.0897 19.8533 13.3834 20.5949 12.783C21.3365 12.1827 21.9369 11.7412 22.3959 11.4587C23.0316 11.0703 23.5613 10.8849 23.9851 10.9025C24.4089 10.9025 24.7444 11.0349 24.9916 11.2998C25.2564 11.547 25.433 11.9002 25.5213 12.3592C25.6272 12.8007 25.6714 13.2774 25.6537 13.7895C25.6537 14.2839 25.6007 14.7871 25.4948 15.2992C25.4065 15.7936 25.2829 16.2262 25.124 16.597C24.9827 16.9678 24.8238 17.2415 24.6473 17.4181C24.4883 17.5946 24.3294 17.6035 24.1705 17.4446C24.1528 17.3033 24.1705 17.0914 24.2235 16.8089C24.2764 16.5087 24.3382 16.1732 24.4089 15.8024C24.4972 15.4316 24.5766 15.052 24.6473 14.6635C24.7179 14.2751 24.762 13.9219 24.7797 13.6041C24.815 13.2686 24.8062 12.9861 24.7532 12.7565C24.7179 12.527 24.6208 12.3946 24.4619 12.3592C23.8438 12.2003 23.1022 12.3504 22.237 12.8095C21.3895 13.2509 20.4978 13.8954 19.5619 14.743C18.6438 15.5729 17.7256 16.544 16.8074 17.6564C15.9069 18.7512 15.0858 19.8813 14.3442 21.0466C13.6026 22.212 12.9934 23.3509 12.5167 24.4633C12.0399 25.5581 11.7662 26.5292 11.6956 27.3768C11.6426 28.2067 11.828 28.8512 12.2518 29.3103C12.6933 29.7517 13.4613 29.893 14.5561 29.734C15.5626 29.5928 16.4896 29.2396 17.3371 28.6746C18.2023 28.0919 19.0322 27.4562 19.8268 26.7676C20.639 26.0613 21.4424 25.3727 22.237 24.7017C23.0316 24.0131 23.8615 23.4922 24.7267 23.139C25.0445 23.0154 25.2917 23.0596 25.4683 23.2715C25.6625 23.4834 25.7155 23.7394 25.6272 24.0396C25.5213 24.3397 25.2035 24.737 24.6737 25.2314C24.1617 25.7258 23.5172 26.2467 22.7403 26.7941C21.981 27.3238 21.1423 27.8624 20.2241 28.4097C19.3059 28.9395 18.4054 29.3986 17.5225 29.787C16.6573 30.1755 15.8451 30.458 15.0858 30.6346C14.3442 30.8111 13.7615 30.8111 13.3377 30.6346Z" fill="#FF9A2E"/>
<path d="M26.2745 30.6346C26.2392 30.6169 26.2392 30.4138 26.2745 30.0254C26.3275 29.6193 26.3982 29.116 26.4864 28.5157C26.5747 27.9153 26.6895 27.2532 26.8308 26.5292C26.972 25.8053 27.1221 25.1167 27.281 24.4633C27.4399 23.7924 27.6077 23.2097 27.7842 22.7153C27.9785 22.2032 28.1639 21.8501 28.3405 21.6558C28.4641 21.5322 28.5877 21.5322 28.7113 21.6558C28.8349 21.7618 28.9585 21.903 29.0821 22.0796C29.2057 22.2385 29.3293 22.3886 29.4529 22.5299C29.5765 22.6535 29.7089 22.6623 29.8502 22.5563C30.3446 21.8677 30.8831 21.2144 31.4658 20.5964C32.0661 19.9607 32.7283 19.4133 33.4522 18.9543C33.5229 18.9013 33.7171 18.8218 34.0349 18.7159C34.3528 18.5923 34.7147 18.4775 35.1209 18.3716C35.527 18.248 35.9419 18.1508 36.3657 18.0802C36.8071 17.9919 37.1779 17.9566 37.4781 17.9743C37.7959 17.9743 38.0078 18.0537 38.1138 18.2126C38.2374 18.3539 38.1844 18.6011 37.9549 18.9543C36.8954 18.9719 35.9066 19.2809 34.9884 19.8813C34.0703 20.4816 33.2227 21.2232 32.4458 22.1061C31.6689 22.9889 30.9626 23.9513 30.3269 24.9931C29.6912 26.0172 29.135 26.9707 28.6583 27.8535C28.1992 28.7364 27.8107 29.4692 27.4929 30.0519C27.1927 30.6346 26.972 30.9259 26.8308 30.9259C26.8131 30.9259 26.7336 30.8906 26.5924 30.82C26.4511 30.7317 26.3452 30.6699 26.2745 30.6346Z" fill="#FF9A2E"/>
<path d="M36.9071 30.6346C37.631 28.3038 38.2843 26.4586 38.867 25.099C39.4674 23.7217 39.9618 22.7594 40.3503 22.212C40.7564 21.6646 41.0301 21.4881 41.1713 21.6823C41.3126 21.8765 41.2949 22.3709 41.1183 23.1655C40.9594 23.9601 40.6063 25.0284 40.0589 26.3703C39.5292 27.6946 38.7787 29.2132 37.8076 30.9259C37.6663 30.9789 37.4986 30.9877 37.3044 30.9524C37.1101 30.9171 36.9777 30.8111 36.9071 30.6346ZM41.5421 17.8948C41.5068 17.8065 41.4891 17.6476 41.4891 17.4181C41.4891 17.1885 41.5068 17.0473 41.5421 16.9943C41.9482 16.853 42.2572 16.8354 42.4691 16.9413C42.681 17.0473 42.8134 17.2062 42.8664 17.4181C42.9194 17.6123 42.9106 17.8242 42.8399 18.0537C42.787 18.2833 42.6898 18.4598 42.5486 18.5834C42.4073 18.6894 42.2396 18.7071 42.0454 18.6364C41.8688 18.5481 41.701 18.3009 41.5421 17.8948Z" fill="#FF9A2E"/>
<path d="M42.3484 30.6346C42.1365 30.4933 42.1276 30.3079 42.3219 30.0784C42.5338 29.8312 42.8604 29.5751 43.3018 29.3103C43.7609 29.0278 44.2907 28.7364 44.891 28.4362C45.4914 28.1361 46.0652 27.8535 46.6126 27.5887C47.1776 27.3238 47.672 27.0943 48.0958 26.9C48.5196 26.6882 48.7933 26.5292 48.9169 26.4233C49.4996 25.9289 49.7997 25.5228 49.8174 25.2049C49.8527 24.8695 49.7115 24.6046 49.3936 24.4104C49.0758 24.1985 48.6255 24.0396 48.0428 23.9336C47.4778 23.81 46.8863 23.7041 46.2683 23.6158C45.6679 23.5098 45.0852 23.4039 44.5202 23.298C43.9728 23.192 43.5579 23.0507 43.2754 22.8742C42.9928 22.6976 42.8957 22.4681 42.984 22.1855C43.09 21.8854 43.4784 21.5057 44.1494 21.0466C44.3966 20.8701 44.7586 20.614 45.2353 20.2786C45.7121 19.9431 46.2241 19.5987 46.7715 19.2456C47.3365 18.8925 47.8927 18.5746 48.4401 18.2921C48.9875 18.0096 49.4466 17.8242 49.8174 17.7359C50.0116 17.7006 50.2059 17.7182 50.4001 17.7889C50.612 17.8595 50.7797 17.9654 50.9033 18.1067C51.0269 18.2303 51.0799 18.3716 51.0622 18.5305C51.0622 18.6894 50.9475 18.8307 50.7179 18.9543C49.7114 19.5193 48.7403 20.049 47.8045 20.5434C46.8863 21.0378 45.9593 21.6028 45.0234 22.2385C44.9705 22.3798 44.9793 22.5034 45.0499 22.6093C45.1382 22.7153 45.2353 22.7947 45.3413 22.8477C47.2129 23.0419 48.6167 23.3156 49.5525 23.6688C50.506 24.0219 51.1064 24.4104 51.3536 24.8341C51.6184 25.2579 51.5919 25.7082 51.2741 26.1849C50.9563 26.6617 50.4795 27.1296 49.8439 27.5887C49.2259 28.0478 48.5108 28.4804 47.6985 28.8865C46.8863 29.2926 46.1005 29.6369 45.3413 29.9194C44.5997 30.202 43.9463 30.4138 43.3813 30.5551C42.8163 30.6964 42.472 30.7229 42.3484 30.6346Z" fill="#FF9A2E"/>
<path d="M65.3615 30.6346C64.4786 30.2638 63.8959 29.7517 63.6134 29.0984C63.3309 28.4274 63.2338 27.7123 63.3221 26.953C63.4103 26.1761 63.6222 25.3992 63.9577 24.6222C64.3109 23.8453 64.6728 23.1567 65.0436 22.5563C65.1672 22.3445 65.3968 21.9825 65.7323 21.4704C66.0678 20.9584 66.4209 20.4198 66.7917 19.8548C67.1802 19.2721 67.5422 18.7335 67.8776 18.2391C68.2308 17.7271 68.478 17.3739 68.6192 17.1797C68.8311 15.8201 69.2549 14.743 69.8906 13.9484C70.5262 13.1362 71.2414 12.58 72.0359 12.2798C72.8482 11.9796 73.6781 11.9178 74.5256 12.0944C75.3732 12.2533 76.1148 12.6329 76.7504 13.2333C77.3861 13.816 77.8452 14.6017 78.1277 15.5905C78.4102 16.5793 78.3837 17.7359 78.0482 19.0602C77.7304 20.3845 77.0418 21.8677 75.9823 23.5098C74.9229 25.152 73.3691 26.9265 71.3208 28.8335C70.9677 29.169 70.5439 29.4957 70.0495 29.8135C69.5727 30.1137 69.0607 30.3609 68.5133 30.5551C67.9836 30.7493 67.445 30.8641 66.8977 30.8994C66.3503 30.9347 65.8382 30.8465 65.3615 30.6346ZM64.4345 28.5422C64.611 29.3368 64.9465 29.8312 65.4409 30.0254C65.9353 30.2196 66.518 30.1843 67.189 29.9194C67.86 29.6546 68.5928 29.2043 69.3873 28.5687C70.1819 27.933 70.9765 27.1914 71.7711 26.3438C72.5657 25.4786 73.3249 24.5428 74.0489 23.5363C74.7728 22.5299 75.3997 21.5322 75.9294 20.5434C76.4768 19.5546 76.8917 18.6099 77.1742 17.7094C77.4567 16.8089 77.545 16.032 77.4391 15.3786C77.3508 14.7077 77.033 14.2044 76.4856 13.8689C75.9559 13.5335 75.1348 13.4363 74.0224 13.5776C73.6163 13.9307 73.0777 14.4516 72.4067 15.1403C71.7358 15.8113 71.0206 16.5793 70.2614 17.4446C69.5021 18.3098 68.7428 19.2456 67.9836 20.2521C67.2243 21.2409 66.5533 22.2297 65.9706 23.2185C65.388 24.2073 64.9465 25.1608 64.6464 26.079C64.3462 26.9972 64.2756 27.8182 64.4345 28.5422Z" fill="#FF9A2E"/>
<path d="M78.2601 30.6346C77.7481 30.2638 77.4126 29.7958 77.2537 29.2308C77.1124 28.6658 77.0948 28.0566 77.2007 27.4033C77.3066 26.7323 77.492 26.0437 77.7569 25.3374C78.0394 24.6311 78.3396 23.9513 78.6574 23.298C78.9929 22.6446 79.3108 22.0443 79.6109 21.4969C79.9288 20.9495 80.176 20.4993 80.3525 20.1461C80.4055 20.0402 80.5291 19.7841 80.7233 19.378C80.9352 18.9719 81.1559 18.5305 81.3855 18.0537C81.615 17.577 81.8269 17.1356 82.0211 16.7294C82.233 16.3057 82.3655 16.0408 82.4184 15.9349C82.4714 15.8466 82.542 15.6788 82.6303 15.4316C82.7363 15.1668 82.851 14.8842 82.9746 14.5841C83.0982 14.2839 83.2307 14.0014 83.3719 13.7365C83.5308 13.454 83.6898 13.2509 83.8487 13.1273C84.0253 13.0037 84.193 12.9861 84.3519 13.0744C84.5285 13.1627 84.6962 13.4275 84.8551 13.8689C84.7845 14.0455 84.6079 14.3987 84.3254 14.9284C84.0606 15.4581 83.7427 16.0938 83.3719 16.8354C83.0011 17.577 82.5862 18.398 82.1271 19.2986C81.6857 20.1991 81.2531 21.1084 80.8293 22.0266C80.4055 22.9448 80.0082 23.8453 79.6374 24.7282C79.2666 25.5934 78.9576 26.388 78.7104 27.1119C78.4809 27.8182 78.3396 28.4097 78.2866 28.8865C78.2513 29.3456 78.3396 29.6281 78.5515 29.734C78.7987 29.8576 79.1165 29.9106 79.505 29.893C79.9111 29.8576 80.326 29.8047 80.7498 29.734C81.1736 29.6634 81.5885 29.5928 81.9947 29.5222C82.4008 29.4339 82.7539 29.3986 83.0541 29.4162C83.1247 29.5751 83.0718 29.734 82.8952 29.893C82.7186 30.0342 82.4714 30.1666 82.1536 30.2902C81.8357 30.3962 81.4649 30.4933 81.0412 30.5816C80.635 30.6522 80.2378 30.7052 79.8493 30.7405C79.4785 30.7758 79.143 30.7847 78.8428 30.767C78.5603 30.7493 78.3661 30.7052 78.2601 30.6346Z" fill="#FF9A2E"/>
<path d="M83.9663 30.6346C84.6902 28.3038 85.3436 26.4586 85.9262 25.099C86.5266 23.7217 87.021 22.7594 87.4095 22.212C87.8156 21.6646 88.0893 21.4881 88.2305 21.6823C88.3718 21.8765 88.3541 22.3709 88.1776 23.1655C88.0186 23.9601 87.6655 25.0284 87.1181 26.3703C86.5884 27.6946 85.838 29.2132 84.8668 30.9259C84.7255 30.9789 84.5578 30.9877 84.3636 30.9524C84.1693 30.9171 84.0369 30.8111 83.9663 30.6346ZM88.6013 17.8948C88.566 17.8065 88.5484 17.6476 88.5484 17.4181C88.5484 17.1885 88.566 17.0473 88.6013 16.9943C89.0074 16.853 89.3164 16.8354 89.5283 16.9413C89.7402 17.0473 89.8727 17.2062 89.9256 17.4181C89.9786 17.6123 89.9698 17.8242 89.8991 18.0537C89.8462 18.2833 89.749 18.4598 89.6078 18.5834C89.4665 18.6894 89.2988 18.7071 89.1046 18.6364C88.928 18.5481 88.7602 18.3009 88.6013 17.8948Z" fill="#FF9A2E"/>
<path d="M90.1492 30.3167C89.7784 30.1048 89.5135 29.7694 89.3546 29.3103C89.1957 28.8512 89.1074 28.3303 89.0897 27.7476C89.0721 27.1649 89.1074 26.5557 89.1957 25.9201C89.284 25.2844 89.3899 24.6664 89.5135 24.066C89.6371 23.4657 89.7607 22.9271 89.8843 22.4504C90.0079 21.9737 90.0962 21.6028 90.1492 21.338C90.2375 21.285 90.3257 21.285 90.414 21.338C90.52 21.391 90.6171 21.4704 90.7054 21.5764C90.8113 21.6646 90.8908 21.7529 90.9437 21.8412C91.0144 21.9119 91.0497 21.9472 91.0497 21.9472C91.1027 22.5652 91.1027 23.1743 91.0497 23.7747C91.0144 24.3574 90.9614 24.9401 90.8908 25.5228C90.8378 26.1055 90.7848 26.697 90.7319 27.2973C90.6965 27.8977 90.6965 28.5069 90.7319 29.1249C90.8731 29.3897 91.1645 29.3986 91.6059 29.1514C92.0473 28.8865 92.5859 28.4715 93.2215 27.9065C93.8572 27.3238 94.5458 26.644 95.2875 25.8671C96.0467 25.0725 96.7883 24.2868 97.5123 23.5098C98.2539 22.7329 98.9513 22.009 99.6047 21.338C100.258 20.6494 100.805 20.1285 101.247 19.7753C101.706 19.4045 102.024 19.2544 102.2 19.3251C102.377 19.378 102.35 19.7488 102.121 20.4375C101.697 20.8083 101.194 21.3645 100.611 22.1061C100.028 22.8477 99.3928 23.6511 98.7041 24.5163C98.0155 25.3639 97.3004 26.2114 96.5588 27.059C95.8172 27.9065 95.0667 28.6393 94.3075 29.2573C93.5659 29.8576 92.8419 30.2814 92.1356 30.5286C91.4293 30.7582 90.7672 30.6875 90.1492 30.3167Z" fill="#FF9A2E"/>
<path d="M103.192 30.6346C102.662 30.458 102.256 30.1931 101.974 29.84C101.709 29.4692 101.532 29.0631 101.444 28.6216C101.356 28.1802 101.338 27.7211 101.391 27.2444C101.461 26.75 101.567 26.282 101.709 25.8406C102.238 25.2756 102.83 24.6311 103.483 23.9071C104.154 23.1655 104.861 22.4416 105.602 21.7353C106.344 21.029 107.112 20.3757 107.906 19.7753C108.719 19.1573 109.54 18.6894 110.37 18.3716C110.652 18.248 110.873 18.2568 111.032 18.398C111.208 18.5216 111.332 18.7247 111.403 19.0072C111.473 19.2897 111.5 19.6164 111.482 19.9872C111.482 20.358 111.456 20.72 111.403 21.0731C111.35 21.4263 111.279 21.7441 111.191 22.0266C111.102 22.3091 111.014 22.5034 110.926 22.6093C110.714 22.8565 110.299 23.1479 109.681 23.4834C109.081 23.8188 108.41 24.1896 107.668 24.5958C106.926 24.9842 106.185 25.3903 105.443 25.8141C104.702 26.2379 104.092 26.6617 103.616 27.0854C103.139 27.4916 102.856 27.8977 102.768 28.3038C102.68 28.7099 102.927 29.0807 103.51 29.4162C104.11 29.4868 104.834 29.4604 105.682 29.3368C106.547 29.1955 107.421 29.0189 108.304 28.807C109.204 28.5775 110.069 28.3479 110.899 28.1184C111.729 27.8712 112.409 27.677 112.939 27.5357L113.257 27.8271C112.868 28.3391 112.232 28.807 111.35 29.2308C110.467 29.6546 109.513 30.0077 108.489 30.2902C107.465 30.5551 106.467 30.7317 105.496 30.82C104.525 30.8906 103.757 30.8288 103.192 30.6346ZM109.522 20.5169C109.504 20.4993 109.372 20.5787 109.125 20.7553C108.878 20.9142 108.569 21.1349 108.198 21.4174C107.845 21.6823 107.456 21.9825 107.032 22.318C106.626 22.6358 106.247 22.936 105.893 23.2185C105.558 23.501 105.275 23.7482 105.046 23.9601C104.816 24.1543 104.719 24.2514 104.755 24.2514C105.037 24.3044 105.399 24.2691 105.841 24.1455C106.3 24.0042 106.768 23.81 107.244 23.5628C107.739 23.3156 108.207 23.0419 108.648 22.7417C109.089 22.4239 109.434 22.1149 109.681 21.8147C109.946 21.5146 110.078 21.2497 110.078 21.0202C110.096 20.7906 109.911 20.6229 109.522 20.5169Z" fill="#FF9A2E"/>
<path d="M112.753 30.6346C113.477 28.3038 114.131 26.4586 114.713 25.099C115.314 23.7217 115.808 22.7594 116.197 22.212C116.603 21.6646 116.876 21.4881 117.018 21.6823C117.159 21.8765 117.141 22.3709 116.965 23.1655C116.806 23.9601 116.453 25.0284 115.905 26.3703C115.375 27.6946 114.625 29.2132 113.654 30.9259C113.513 30.9789 113.345 30.9877 113.151 30.9524C112.956 30.9171 112.824 30.8111 112.753 30.6346ZM117.388 17.8948C117.353 17.8065 117.335 17.6476 117.335 17.4181C117.335 17.1885 117.353 17.0473 117.388 16.9943C117.795 16.853 118.104 16.8354 118.315 16.9413C118.527 17.0473 118.66 17.2062 118.713 17.4181C118.766 17.6123 118.757 17.8242 118.686 18.0537C118.633 18.2833 118.536 18.4598 118.395 18.5834C118.254 18.6894 118.086 18.7071 117.892 18.6364C117.715 18.5481 117.547 18.3009 117.388 17.8948Z" fill="#FF9A2E"/>
<path d="M118.195 30.6346C118.159 30.6169 118.159 30.4138 118.195 30.0254C118.248 29.6193 118.318 29.116 118.407 28.5157C118.495 27.9153 118.61 27.2532 118.751 26.5292C118.892 25.8053 119.042 25.1167 119.201 24.4633C119.36 23.7924 119.528 23.2097 119.704 22.7153C119.899 22.2032 120.084 21.8501 120.261 21.6558C120.384 21.5322 120.508 21.5322 120.631 21.6558C120.755 21.7618 120.879 21.903 121.002 22.0796C121.126 22.2385 121.249 22.3886 121.373 22.5299C121.497 22.6535 121.629 22.6623 121.77 22.5563C122.265 21.8677 122.803 21.2144 123.386 20.5964C123.986 19.9607 124.648 19.4133 125.372 18.9543C125.443 18.9013 125.637 18.8218 125.955 18.7159C126.273 18.5923 126.635 18.4775 127.041 18.3716C127.447 18.248 127.862 18.1508 128.286 18.0802C128.727 17.9919 129.098 17.9566 129.398 17.9743C129.716 17.9743 129.928 18.0537 130.034 18.2126C130.157 18.3539 130.104 18.6011 129.875 18.9543C128.815 18.9719 127.827 19.2809 126.909 19.8813C125.99 20.4816 125.143 21.2232 124.366 22.1061C123.589 22.9889 122.883 23.9513 122.247 24.9931C121.611 26.0172 121.055 26.9707 120.578 27.8535C120.119 28.7364 119.731 29.4692 119.413 30.0519C119.113 30.6346 118.892 30.9259 118.751 30.9259C118.733 30.9259 118.654 30.8906 118.512 30.82C118.371 30.7317 118.265 30.6699 118.195 30.6346Z" fill="#FF9A2E"/>
<path d="M127.469 30.3167C127.045 29.9636 126.807 29.4427 126.754 28.7541C126.719 28.0654 126.816 27.2885 127.045 26.4233C127.292 25.5581 127.646 24.6576 128.105 23.7217C128.581 22.7682 129.129 21.8677 129.747 21.0202C130.365 20.155 131.036 19.3869 131.76 18.7159C132.484 18.0272 133.208 17.524 133.932 17.2062C134.655 16.8707 135.362 16.7559 136.05 16.8619C136.739 16.9501 137.366 17.3474 137.931 18.0537C138.284 18.4952 138.496 18.9454 138.567 19.4045C138.637 19.8459 138.628 20.305 138.54 20.7818C138.452 21.2409 138.311 21.7176 138.116 22.212C137.922 22.6888 137.728 23.1743 137.534 23.6688C137.357 24.1632 137.207 24.6664 137.083 25.1785C136.977 25.6905 136.96 26.2114 137.03 26.7411C137.119 27.4121 137.419 27.8094 137.931 27.933C138.443 28.0566 139.052 28.0213 139.758 27.8271C140.482 27.6328 141.242 27.3238 142.036 26.9C142.831 26.4763 143.564 26.0525 144.235 25.6287C144.923 25.2049 145.488 24.8341 145.93 24.5163C146.389 24.1985 146.618 24.0396 146.618 24.0396C147.113 23.9336 147.386 23.9689 147.439 24.1455C147.51 24.3044 147.413 24.5516 147.148 24.8871C146.901 25.2049 146.521 25.5757 146.009 25.9995C145.497 26.4056 144.914 26.8029 144.261 27.1914C143.608 27.5798 142.91 27.933 142.169 28.2508C141.427 28.5687 140.703 28.7894 139.997 28.913C139.291 29.0189 138.62 29.0101 137.984 28.8865C137.366 28.7452 136.854 28.4274 136.448 27.933C136.253 27.7211 136.103 27.5092 135.997 27.2973C135.909 27.0854 135.759 26.9 135.547 26.7411C135.282 26.9883 134.964 27.315 134.594 27.7211C134.223 28.1096 133.817 28.5069 133.375 28.913C132.952 29.3014 132.492 29.6722 131.998 30.0254C131.521 30.3785 131.027 30.6434 130.515 30.82C130.003 30.9965 129.482 31.0583 128.952 31.0054C128.44 30.9524 127.946 30.7229 127.469 30.3167ZM127.76 29.4162C127.919 29.9812 128.272 30.2461 128.82 30.2108C129.367 30.1578 130.003 29.8841 130.727 29.3897C131.451 28.8953 132.201 28.2243 132.978 27.3768C133.755 26.5116 134.452 25.5581 135.07 24.5163C135.688 23.4569 136.156 22.3445 136.474 21.1791C136.81 20.0137 136.898 18.866 136.739 17.7359C136.315 17.4004 135.786 17.3916 135.15 17.7094C134.514 18.0096 133.834 18.5128 133.11 19.2191C132.404 19.9077 131.698 20.7376 130.992 21.7088C130.303 22.6623 129.694 23.6334 129.164 24.6222C128.634 25.5934 128.228 26.5116 127.946 27.3768C127.681 28.242 127.619 28.9218 127.76 29.4162Z" fill="#FF9A2E"/>
<path d="M26.6118 44.4909H29.9082V45.319H27.7247V45.9308H29.8027V46.7589H27.7247V47.4287H30.0348L29.9293 48.2567H26.6118V44.4909Z" fill="#FF9A2E"/>
<path d="M32.2631 44.4909H35.4066V45.3454H33.4023V46.0732H35.2958V46.9276H33.4023V48.2567H32.2631V44.4909Z" fill="#FF9A2E"/>
<path d="M37.5693 44.4909H38.7085V48.2567H37.5693V44.4909Z" fill="#FF9A2E"/>
<path d="M45.1217 45.7357L43.9983 45.857C43.9314 45.6636 43.8312 45.5247 43.6976 45.4403C43.564 45.3559 43.3829 45.3137 43.1544 45.3137C42.8414 45.3137 42.5971 45.4051 42.4212 45.588C42.2454 45.7673 42.1575 46.0293 42.1575 46.3738C42.1575 46.7184 42.2454 46.9821 42.4212 47.165C42.6006 47.3443 42.852 47.434 43.1755 47.434C43.6748 47.434 43.9684 47.2406 44.0563 46.8538H45.1955C45.1498 47.3285 44.9459 47.6977 44.5837 47.9614C44.225 48.2216 43.7468 48.3517 43.1491 48.3517C42.6709 48.3517 42.2701 48.2673 41.9466 48.0985C41.6266 47.9297 41.384 47.6977 41.2187 47.4023C41.057 47.1034 40.9761 46.7606 40.9761 46.3738C40.9761 45.9976 41.057 45.6601 41.2187 45.3612C41.384 45.0623 41.6284 44.8267 41.9518 44.6544C42.2753 44.4821 42.6779 44.396 43.1596 44.396C44.2461 44.396 44.9002 44.8425 45.1217 45.7357Z" fill="#FF9A2E"/>
<path d="M48.4894 44.4909H49.8185L51.4535 48.2567H50.2721L49.9925 47.5711H48.2731L48.0094 48.2567H46.8543L48.4894 44.4909ZM49.6761 46.7272L49.1381 45.3506L48.6001 46.7272H49.6761ZM49.2858 43.3517H50.5411L49.5126 44.185H48.4788L49.2858 43.3517Z" fill="#FF9A2E"/>
<path d="M57.2587 45.7357L56.1352 45.857C56.0684 45.6636 55.9682 45.5247 55.8346 45.4403C55.701 45.3559 55.5199 45.3137 55.2914 45.3137C54.9784 45.3137 54.734 45.4051 54.5582 45.588C54.3824 45.7673 54.2945 46.0293 54.2945 46.3738C54.2945 46.7184 54.3824 46.9821 54.5582 47.165C54.7376 47.3443 54.989 47.434 55.3125 47.434C55.8117 47.434 56.1053 47.2406 56.1933 46.8538H57.3325C57.2868 47.3285 57.0828 47.6977 56.7207 47.9614C56.362 48.2216 55.8838 48.3517 55.2861 48.3517C54.8079 48.3517 54.407 48.2673 54.0835 48.0985C53.7636 47.9297 53.521 47.6977 53.3557 47.4023C53.194 47.1034 53.1131 46.7606 53.1131 46.3738C53.1131 45.9976 53.194 45.6601 53.3557 45.3612C53.521 45.0623 53.7653 44.8267 54.0888 44.6544C54.4123 44.4821 54.8149 44.396 55.2966 44.396C56.3831 44.396 57.0371 44.8425 57.2587 45.7357Z" fill="#FF9A2E"/>
<path d="M59.4997 44.4909H60.639V48.2567H59.4997V44.4909Z" fill="#FF9A2E"/>
<path d="M64.3358 44.4909H65.665L67.3 48.2567H66.1185L65.839 47.5711H64.1196L63.8559 48.2567H62.7008L64.3358 44.4909ZM65.5226 46.7272L64.9846 45.3506L64.4466 46.7272H65.5226Z" fill="#FF9A2E"/>
<path d="M72.3743 44.4909H75.6707V45.319H73.4871V45.9308H75.5652V46.7589H73.4871V47.4287H75.7973L75.6918 48.2567H72.3743V44.4909Z" fill="#FF9A2E"/>
<path d="M81.0397 44.4909H84.3361V45.319H82.1526V45.9308H84.2306V46.7589H82.1526V47.4287H84.4627L84.3572 48.2567H81.0397V44.4909Z" fill="#FF9A2E"/>
<path d="M86.691 44.4909H89.8345V45.3454H87.8302V46.0732H89.7237V46.9276H87.8302V48.2567H86.691V44.4909Z" fill="#FF9A2E"/>
<path d="M91.9972 44.4909H93.1364V48.2567H91.9972V44.4909Z" fill="#FF9A2E"/>
<path d="M99.5496 45.7357L98.4261 45.857C98.3593 45.6636 98.2591 45.5247 98.1255 45.4403C97.9919 45.3559 97.8108 45.3137 97.5823 45.3137C97.2693 45.3137 97.025 45.4051 96.8491 45.588C96.6733 45.7673 96.5854 46.0293 96.5854 46.3738C96.5854 46.7184 96.6733 46.9821 96.8491 47.165C97.0285 47.3443 97.2799 47.434 97.6034 47.434C98.1027 47.434 98.3963 47.2406 98.4842 46.8538H99.6234C99.5777 47.3285 99.3738 47.6977 99.0116 47.9614C98.6529 48.2216 98.1747 48.3517 97.577 48.3517C97.0988 48.3517 96.698 48.2673 96.3745 48.0985C96.0545 47.9297 95.8119 47.6977 95.6466 47.4023C95.4849 47.1034 95.404 46.7606 95.404 46.3738C95.404 45.9976 95.4849 45.6601 95.6466 45.3612C95.8119 45.0623 96.0563 44.8267 96.3797 44.6544C96.7032 44.4821 97.1058 44.396 97.5875 44.396C98.674 44.396 99.328 44.8425 99.5496 45.7357Z" fill="#FF9A2E"/>
<path d="M101.791 44.4909H102.93V48.2567H101.791V44.4909Z" fill="#FF9A2E"/>
<path d="M105.366 44.4909H108.663V45.319H106.479V45.9308H108.557V46.7589H106.479V47.4287H108.789L108.684 48.2567H105.366V44.4909ZM106.505 43.3517H107.529L108.304 44.185H107.413L107.017 43.7842L106.616 44.185H105.73L106.505 43.3517Z" fill="#FF9A2E"/>
<path d="M111.018 44.4909H112.03L113.913 46.7536V44.4909H114.989V48.2567H113.976L112.093 45.9941V48.2567H111.018V44.4909Z" fill="#FF9A2E"/>
<path d="M121.403 45.7357L120.279 45.857C120.213 45.6636 120.112 45.5247 119.979 45.4403C119.845 45.3559 119.664 45.3137 119.435 45.3137C119.122 45.3137 118.878 45.4051 118.702 45.588C118.527 45.7673 118.439 46.0293 118.439 46.3738C118.439 46.7184 118.527 46.9821 118.702 47.165C118.882 47.3443 119.133 47.434 119.457 47.434C119.956 47.434 120.249 47.2406 120.337 46.8538H121.477C121.431 47.3285 121.227 47.6977 120.865 47.9614C120.506 48.2216 120.028 48.3517 119.43 48.3517C118.952 48.3517 118.551 48.2673 118.228 48.0985C117.908 47.9297 117.665 47.6977 117.5 47.4023C117.338 47.1034 117.257 46.7606 117.257 46.3738C117.257 45.9976 117.338 45.6601 117.5 45.3612C117.665 45.0623 117.909 44.8267 118.233 44.6544C118.556 44.4821 118.959 44.396 119.441 44.396C120.527 44.396 121.181 44.8425 121.403 45.7357Z" fill="#FF9A2E"/>
<path d="M123.644 44.4909H124.783V48.2567H123.644V44.4909Z" fill="#FF9A2E"/>
<path d="M128.48 44.4909H129.809L131.444 48.2567H130.263L129.983 47.5711H128.264L128 48.2567H126.845L128.48 44.4909ZM129.667 46.7272L129.129 45.3506L128.591 46.7272H129.667Z" fill="#FF9A2E"/>
</svg>
