<svg width="158" height="72" viewBox="0 0 158 72" fill="none" xmlns="http://www.w3.org/2000/svg">
<path d="M13.6323 30.3171C12.5601 29.8952 11.8218 29.3239 11.4175 28.6032C11.0132 27.8825 10.8462 27.0827 10.9165 26.2038C11.0044 25.3073 11.2856 24.3581 11.7603 23.3561C12.2524 22.3366 12.8501 21.3171 13.5532 20.2975C14.2739 19.278 15.0649 18.2848 15.9263 17.318C16.7876 16.3512 17.6401 15.4635 18.4839 14.655C19.3276 13.8464 20.1187 13.1432 20.8569 12.5456C21.5952 11.9479 22.1929 11.5085 22.6499 11.2272C23.2827 10.8405 23.8101 10.6559 24.2319 10.6735C24.6538 10.6735 24.9878 10.8053 25.2339 11.069C25.4976 11.3151 25.6733 11.6667 25.7612 12.1237C25.8667 12.5632 25.9106 13.0378 25.8931 13.5475C25.8931 14.0397 25.8403 14.5407 25.7349 15.0505C25.647 15.5427 25.5239 15.9733 25.3657 16.3425C25.2251 16.7116 25.0669 16.9841 24.8911 17.1598C24.7329 17.3356 24.5747 17.3444 24.4165 17.1862C24.3989 17.0456 24.4165 16.8346 24.4692 16.5534C24.522 16.2546 24.5835 15.9206 24.6538 15.5514C24.7417 15.1823 24.8208 14.8044 24.8911 14.4177C24.9614 14.0309 25.0054 13.6794 25.0229 13.363C25.0581 13.029 25.0493 12.7477 24.9966 12.5192C24.9614 12.2907 24.8647 12.1589 24.7065 12.1237C24.0913 11.9655 23.353 12.1149 22.4917 12.5719C21.6479 13.0114 20.7603 13.653 19.8286 14.4968C18.9146 15.3229 18.0005 16.2897 17.0864 17.3971C16.1899 18.487 15.3726 19.612 14.6343 20.7721C13.896 21.9323 13.2896 23.0661 12.8149 24.1735C12.3403 25.2634 12.0679 26.2302 11.9976 27.0739C11.9448 27.9001 12.1294 28.5417 12.5513 28.9987C12.9907 29.4382 13.7554 29.5788 14.8452 29.4206C15.8472 29.28 16.77 28.9284 17.6138 28.3659C18.4751 27.7858 19.3013 27.153 20.0923 26.4675C20.9009 25.7643 21.7007 25.0788 22.4917 24.4108C23.2827 23.7253 24.1089 23.2067 24.9702 22.8552C25.2866 22.7321 25.5327 22.776 25.7085 22.987C25.9019 23.1979 25.9546 23.4528 25.8667 23.7516C25.7612 24.0505 25.4448 24.446 24.9175 24.9382C24.4077 25.4303 23.7661 25.9489 22.9927 26.4938C22.2368 27.0212 21.4019 27.5573 20.4878 28.1022C19.5737 28.6296 18.6772 29.0866 17.7983 29.4733C16.937 29.86 16.1284 30.1413 15.3726 30.3171C14.6343 30.4928 14.0542 30.4928 13.6323 30.3171Z" fill="#FF9A2E"/>
<path d="M26.5111 30.3171C26.476 30.2995 26.476 30.0973 26.5111 29.7106C26.5638 29.3063 26.6342 28.8053 26.7221 28.2077C26.8099 27.61 26.9242 26.9509 27.0648 26.2302C27.2054 25.5094 27.3549 24.8239 27.5131 24.1735C27.6713 23.5055 27.8383 22.9255 28.014 22.4333C28.2074 21.9235 28.392 21.5719 28.5678 21.3786C28.6908 21.2555 28.8138 21.2555 28.9369 21.3786C29.0599 21.4841 29.183 21.6247 29.306 21.8005C29.4291 21.9587 29.5521 22.1081 29.6752 22.2487C29.7982 22.3718 29.9301 22.3805 30.0707 22.2751C30.5629 21.5895 31.099 20.9391 31.6791 20.3239C32.2767 19.6911 32.9359 19.1462 33.6566 18.6891C33.7269 18.6364 33.9203 18.5573 34.2367 18.4518C34.5531 18.3288 34.9135 18.2145 35.3178 18.1091C35.722 17.986 36.1351 17.8893 36.557 17.819C36.9965 17.7311 37.3656 17.696 37.6644 17.7135C37.9808 17.7135 38.1918 17.7927 38.2972 17.9509C38.4203 18.0915 38.3676 18.3376 38.139 18.6891C37.0844 18.7067 36.1 19.0143 35.1859 19.612C34.2719 20.2096 33.4281 20.9479 32.6547 21.8268C31.8812 22.7057 31.1781 23.6637 30.5453 24.7009C29.9125 25.7204 29.3588 26.6696 28.8842 27.5485C28.4271 28.4274 28.0404 29.1569 27.724 29.737C27.4252 30.3171 27.2054 30.6071 27.0648 30.6071C27.0472 30.6071 26.9681 30.5719 26.8275 30.5016C26.6869 30.4137 26.5814 30.3522 26.5111 30.3171Z" fill="#FF9A2E"/>
<path d="M37.096 30.3171C37.8167 27.9968 38.4671 26.1598 39.0471 24.8063C39.6448 23.4352 40.137 22.4772 40.5237 21.9323C40.928 21.3874 41.2004 21.2116 41.3411 21.405C41.4817 21.5983 41.4641 22.0905 41.2883 22.8815C41.1301 23.6725 40.7786 24.736 40.2337 26.0719C39.7063 27.3903 38.9592 28.902 37.9924 30.6071C37.8518 30.6598 37.6848 30.6686 37.4915 30.6335C37.2981 30.5983 37.1663 30.4928 37.096 30.3171ZM41.7102 17.6344C41.6751 17.5466 41.6575 17.3884 41.6575 17.1598C41.6575 16.9313 41.6751 16.7907 41.7102 16.738C42.1145 16.5973 42.4221 16.5798 42.6331 16.6852C42.844 16.7907 42.9758 16.9489 43.0286 17.1598C43.0813 17.3532 43.0725 17.5641 43.0022 17.7927C42.9495 18.0212 42.8528 18.1969 42.7122 18.32C42.5715 18.4255 42.4046 18.443 42.2112 18.3727C42.0354 18.2848 41.8684 18.0387 41.7102 17.6344Z" fill="#FF9A2E"/>
<path d="M42.5128 30.3171C42.3019 30.1764 42.2931 29.9919 42.4865 29.7634C42.6974 29.5173 43.0226 29.2624 43.4621 28.9987C43.9191 28.7175 44.4464 28.4274 45.0441 28.1286C45.6417 27.8298 46.213 27.5485 46.7579 27.2848C47.3204 27.0212 47.8126 26.7927 48.2345 26.5993C48.6564 26.3884 48.9288 26.2302 49.0519 26.1247C49.632 25.6325 49.9308 25.2282 49.9484 24.9118C49.9835 24.5778 49.8429 24.3141 49.5265 24.1208C49.2101 23.9098 48.7619 23.7516 48.1818 23.6462C47.6193 23.5231 47.0304 23.4177 46.4152 23.3298C45.8175 23.2243 45.2374 23.1188 44.6749 23.0134C44.13 22.9079 43.7169 22.7673 43.4357 22.5915C43.1544 22.4157 43.0578 22.1872 43.1456 21.9059C43.2511 21.6071 43.6378 21.2292 44.3058 20.7721C44.5519 20.5964 44.9122 20.3415 45.3869 20.0075C45.8615 19.6735 46.3712 19.3307 46.9162 18.9792C47.4787 18.6276 48.0324 18.3112 48.5773 18.03C49.1222 17.7487 49.5792 17.5641 49.9484 17.4762C50.1417 17.4411 50.3351 17.4587 50.5285 17.529C50.7394 17.5993 50.9064 17.7048 51.0294 17.8454C51.1525 17.9684 51.2052 18.1091 51.1876 18.2673C51.1876 18.4255 51.0734 18.5661 50.8449 18.6891C49.8429 19.2516 48.8761 19.779 47.9445 20.2712C47.0304 20.7634 46.1076 21.3259 45.1759 21.9587C45.1232 22.0993 45.132 22.2223 45.2023 22.3278C45.2902 22.4333 45.3869 22.5124 45.4923 22.5651C47.3556 22.7585 48.7531 23.0309 49.6847 23.3825C50.6339 23.7341 51.2316 24.1208 51.4777 24.5427C51.7413 24.9645 51.715 25.4128 51.3986 25.8874C51.0822 26.362 50.6076 26.8278 49.9747 27.2848C49.3595 27.7419 48.6476 28.1725 47.839 28.5768C47.0304 28.9811 46.2482 29.3239 45.4923 29.6052C44.754 29.8864 44.1037 30.0973 43.5412 30.238C42.9787 30.3786 42.6359 30.405 42.5128 30.3171Z" fill="#FF9A2E"/>
<path d="M65.4228 30.3171C64.5438 29.9479 63.9638 29.4382 63.6825 28.7878C63.4013 28.1198 63.3046 27.4079 63.3925 26.652C63.4804 25.8786 63.6913 25.1052 64.0253 24.3317C64.3769 23.5583 64.7372 22.8727 65.1063 22.2751C65.2294 22.0641 65.4579 21.7038 65.7919 21.194C66.1259 20.6843 66.4774 20.1481 66.8466 19.5856C67.2333 19.0055 67.5937 18.4694 67.9276 17.9772C68.2792 17.4675 68.5253 17.1159 68.6659 16.9225C68.8769 15.569 69.2987 14.4968 69.9315 13.7057C70.5644 12.8971 71.2763 12.3434 72.0673 12.0446C72.8759 11.7458 73.702 11.6843 74.5458 11.86C75.3895 12.0182 76.1278 12.3962 76.7606 12.9938C77.3935 13.5739 77.8505 14.3561 78.1317 15.3405C78.413 16.3249 78.3866 17.4762 78.0526 18.7946C77.7362 20.113 77.0507 21.5895 75.996 23.2243C74.9413 24.8591 73.3944 26.6257 71.3554 28.5241C71.0038 28.8581 70.5819 29.1833 70.0897 29.4997C69.6151 29.7985 69.1054 30.0446 68.5604 30.238C68.0331 30.4313 67.497 30.5456 66.952 30.5807C66.4071 30.6159 65.8974 30.528 65.4228 30.3171ZM64.4999 28.2341C64.6757 29.0251 65.0097 29.5173 65.5019 29.7106C65.994 29.904 66.5741 29.8688 67.2421 29.6052C67.9101 29.3415 68.6395 28.8932 69.4306 28.2604C70.2216 27.6276 71.0126 26.8893 71.8036 26.0456C72.5946 25.1843 73.3505 24.2526 74.0712 23.2507C74.7919 22.2487 75.4159 21.2555 75.9433 20.2712C76.4882 19.2868 76.9013 18.3464 77.1825 17.4499C77.4638 16.5534 77.5517 15.78 77.4462 15.1296C77.3583 14.4616 77.0419 13.9606 76.497 13.6266C75.9696 13.2927 75.1522 13.196 74.0448 13.3366C73.6405 13.6882 73.1044 14.2067 72.4364 14.8923C71.7685 15.5602 71.0565 16.3249 70.3007 17.1862C69.5448 18.0475 68.789 18.9792 68.0331 19.9811C67.2772 20.9655 66.6093 21.9499 66.0292 22.9343C65.4491 23.9186 65.0097 24.8678 64.7108 25.7819C64.412 26.696 64.3417 27.5134 64.4999 28.2341Z" fill="#FF9A2E"/>
<path d="M78.2636 30.3171C77.7538 29.9479 77.4198 29.4821 77.2616 28.9196C77.121 28.3571 77.1034 27.7507 77.2089 27.1003C77.3144 26.4323 77.4989 25.7468 77.7626 25.0436C78.0438 24.3405 78.3427 23.6637 78.6591 23.0134C78.9931 22.363 79.3095 21.7653 79.6083 21.2204C79.9247 20.6755 80.1708 20.2272 80.3466 19.8757C80.3993 19.7702 80.5224 19.5153 80.7157 19.111C80.9267 18.7067 81.1464 18.2673 81.3749 17.7927C81.6034 17.318 81.8144 16.8786 82.0077 16.4743C82.2187 16.0524 82.3505 15.7887 82.4032 15.6833C82.456 15.5954 82.5263 15.4284 82.6142 15.1823C82.7196 14.9186 82.8339 14.6374 82.9569 14.3385C83.08 14.0397 83.2118 13.7585 83.3524 13.4948C83.5106 13.2135 83.6688 13.0114 83.827 12.8884C84.0028 12.7653 84.1698 12.7477 84.328 12.8356C84.5038 12.9235 84.6708 13.1872 84.829 13.6266C84.7587 13.8024 84.5829 14.154 84.3017 14.6813C84.038 15.2087 83.7216 15.8415 83.3524 16.5798C82.9833 17.318 82.5702 18.1354 82.1132 19.0319C81.6737 19.9284 81.2431 20.8337 80.8212 21.7477C80.3993 22.6618 80.0038 23.5583 79.6347 24.4372C79.2655 25.2985 78.9579 26.0895 78.7118 26.8102C78.4833 27.5134 78.3427 28.1022 78.2899 28.5768C78.2548 29.0339 78.3427 29.3151 78.5536 29.4206C78.7997 29.5436 79.1161 29.5964 79.5028 29.5788C79.9071 29.5436 80.3202 29.4909 80.7421 29.4206C81.164 29.3503 81.577 29.28 81.9813 29.2096C82.3856 29.1218 82.7372 29.0866 83.036 29.1042C83.1063 29.2624 83.0536 29.4206 82.8778 29.5788C82.702 29.7194 82.456 29.8512 82.1395 29.9743C81.8231 30.0798 81.454 30.1764 81.0321 30.2643C80.6278 30.3346 80.2323 30.3874 79.8456 30.4225C79.4765 30.4577 79.1425 30.4665 78.8437 30.4489C78.5624 30.4313 78.369 30.3874 78.2636 30.3171Z" fill="#FF9A2E"/>
<path d="M83.9441 30.3171C84.6648 27.9968 85.3152 26.1598 85.8953 24.8063C86.493 23.4352 86.9851 22.4772 87.3719 21.9323C87.7762 21.3874 88.0486 21.2116 88.1892 21.405C88.3299 21.5983 88.3123 22.0905 88.1365 22.8815C87.9783 23.6725 87.6267 24.736 87.0818 26.0719C86.5545 27.3903 85.8074 28.902 84.8406 30.6071C84.7 30.6598 84.533 30.6686 84.3396 30.6335C84.1463 30.5983 84.0144 30.4928 83.9441 30.3171ZM88.5584 17.6344C88.5232 17.5466 88.5056 17.3884 88.5056 17.1598C88.5056 16.9313 88.5232 16.7907 88.5584 16.738C88.9627 16.5973 89.2703 16.5798 89.4812 16.6852C89.6922 16.7907 89.824 16.9489 89.8767 17.1598C89.9295 17.3532 89.9207 17.5641 89.8504 17.7927C89.7976 18.0212 89.701 18.1969 89.5603 18.32C89.4197 18.4255 89.2527 18.443 89.0594 18.3727C88.8836 18.2848 88.7166 18.0387 88.5584 17.6344Z" fill="#FF9A2E"/>
<path d="M90.0993 30.0007C89.7301 29.7897 89.4665 29.4557 89.3083 28.9987C89.1501 28.5417 89.0622 28.0231 89.0446 27.443C89.027 26.863 89.0622 26.2565 89.1501 25.6237C89.2379 24.9909 89.3434 24.3757 89.4665 23.778C89.5895 23.1803 89.7126 22.6442 89.8356 22.1696C89.9586 21.695 90.0465 21.3259 90.0993 21.0622C90.1872 21.0094 90.2751 21.0094 90.3629 21.0622C90.4684 21.1149 90.5651 21.194 90.653 21.2995C90.7585 21.3874 90.8376 21.4753 90.8903 21.5632C90.9606 21.6335 90.9958 21.6686 90.9958 21.6686C91.0485 22.2839 91.0485 22.8903 90.9958 23.488C90.9606 24.068 90.9079 24.6481 90.8376 25.2282C90.7848 25.8083 90.7321 26.3971 90.6794 26.9948C90.6442 27.5925 90.6442 28.1989 90.6794 28.8141C90.82 29.0778 91.11 29.0866 91.5495 28.8405C91.9889 28.5768 92.5251 28.1637 93.1579 27.6012C93.7907 27.0212 94.4762 26.3444 95.2145 25.571C95.9704 24.78 96.7086 23.9977 97.4294 23.2243C98.1676 22.4509 98.862 21.7302 99.5124 21.0622C100.163 20.3766 100.708 19.8581 101.147 19.5065C101.604 19.1374 101.921 18.988 102.096 19.0583C102.272 19.111 102.246 19.4802 102.017 20.1657C101.595 20.5348 101.094 21.0885 100.514 21.8268C99.9342 22.5651 99.3014 23.3649 98.6159 24.2262C97.9303 25.07 97.2184 25.9137 96.4801 26.7575C95.7419 27.6012 94.9948 28.3307 94.2389 28.946C93.5006 29.5436 92.7799 29.9655 92.0768 30.2116C91.3737 30.4401 90.7145 30.3698 90.0993 30.0007Z" fill="#FF9A2E"/>
<path d="M103.084 30.3171C102.556 30.1413 102.152 29.8776 101.871 29.526C101.607 29.1569 101.431 28.7526 101.343 28.3132C101.255 27.8737 101.238 27.4167 101.291 26.9421C101.361 26.4499 101.466 25.9841 101.607 25.5446C102.134 24.9821 102.723 24.3405 103.374 23.6198C104.042 22.8815 104.745 22.1608 105.483 21.4577C106.221 20.7546 106.986 20.1042 107.777 19.5065C108.585 18.8913 109.403 18.4255 110.229 18.1091C110.51 17.986 110.73 17.9948 110.888 18.1354C111.064 18.2585 111.187 18.4606 111.257 18.7419C111.328 19.0231 111.354 19.3483 111.336 19.7175C111.336 20.0866 111.31 20.4469 111.257 20.7985C111.205 21.1501 111.134 21.4665 111.046 21.7477C110.959 22.029 110.871 22.2223 110.783 22.3278C110.572 22.5739 110.159 22.8639 109.543 23.1979C108.946 23.5319 108.278 23.901 107.54 24.3053C106.801 24.6921 106.063 25.0964 105.325 25.5182C104.586 25.9401 103.98 26.362 103.505 26.7839C103.031 27.1882 102.75 27.5925 102.662 27.9968C102.574 28.401 102.82 28.7702 103.4 29.1042C103.998 29.1745 104.718 29.1481 105.562 29.0251C106.423 28.8844 107.293 28.7087 108.172 28.4977C109.069 28.2692 109.93 28.0407 110.756 27.8122C111.583 27.5661 112.259 27.3727 112.787 27.2321L113.103 27.5221C112.716 28.0319 112.084 28.4977 111.205 28.9196C110.326 29.3415 109.377 29.693 108.357 29.9743C107.337 30.238 106.344 30.4137 105.377 30.5016C104.411 30.5719 103.646 30.5104 103.084 30.3171ZM109.385 20.2448C109.368 20.2272 109.236 20.3063 108.99 20.4821C108.744 20.6403 108.436 20.86 108.067 21.1413C107.715 21.405 107.329 21.7038 106.907 22.0378C106.502 22.3542 106.125 22.653 105.773 22.9343C105.439 23.2155 105.158 23.4616 104.929 23.6725C104.701 23.8659 104.604 23.9626 104.639 23.9626C104.92 24.0153 105.281 23.9802 105.72 23.8571C106.177 23.7165 106.643 23.5231 107.118 23.277C107.61 23.0309 108.076 22.7585 108.515 22.4596C108.955 22.1432 109.297 21.8356 109.543 21.5368C109.807 21.238 109.939 20.9743 109.939 20.7458C109.957 20.5173 109.772 20.3503 109.385 20.2448Z" fill="#FF9A2E"/>
<path d="M112.602 30.3171C113.323 27.9968 113.973 26.1598 114.553 24.8063C115.151 23.4352 115.643 22.4772 116.03 21.9323C116.434 21.3874 116.707 21.2116 116.847 21.405C116.988 21.5983 116.97 22.0905 116.794 22.8815C116.636 23.6725 116.285 24.736 115.74 26.0719C115.212 27.3903 114.465 28.902 113.499 30.6071C113.358 30.6598 113.191 30.6686 112.998 30.6335C112.804 30.5983 112.672 30.4928 112.602 30.3171ZM117.216 17.6344C117.181 17.5466 117.164 17.3884 117.164 17.1598C117.164 16.9313 117.181 16.7907 117.216 16.738C117.621 16.5973 117.928 16.5798 118.139 16.6852C118.35 16.7907 118.482 16.9489 118.535 17.1598C118.587 17.3532 118.579 17.5641 118.508 17.7927C118.456 18.0212 118.359 18.1969 118.218 18.32C118.078 18.4255 117.911 18.443 117.717 18.3727C117.542 18.2848 117.375 18.0387 117.216 17.6344Z" fill="#FF9A2E"/>
<path d="M118.019 30.3171C117.984 30.2995 117.984 30.0973 118.019 29.7106C118.072 29.3063 118.142 28.8053 118.23 28.2077C118.318 27.61 118.432 26.9509 118.573 26.2302C118.713 25.5094 118.863 24.8239 119.021 24.1735C119.179 23.5055 119.346 22.9255 119.522 22.4333C119.715 21.9235 119.9 21.5719 120.076 21.3786C120.199 21.2555 120.322 21.2555 120.445 21.3786C120.568 21.4841 120.691 21.6247 120.814 21.8005C120.937 21.9587 121.06 22.1081 121.183 22.2487C121.306 22.3718 121.438 22.3805 121.579 22.2751C122.071 21.5895 122.607 20.9391 123.187 20.3239C123.785 19.6911 124.444 19.1462 125.164 18.6891C125.235 18.6364 125.428 18.5573 125.745 18.4518C126.061 18.3288 126.421 18.2145 126.826 18.1091C127.23 17.986 127.643 17.8893 128.065 17.819C128.504 17.7311 128.873 17.696 129.172 17.7135C129.489 17.7135 129.7 17.7927 129.805 17.9509C129.928 18.0915 129.875 18.3376 129.647 18.6891C128.592 18.7067 127.608 19.0143 126.694 19.612C125.78 20.2096 124.936 20.9479 124.163 21.8268C123.389 22.7057 122.686 23.6637 122.053 24.7009C121.42 25.7204 120.867 26.6696 120.392 27.5485C119.935 28.4274 119.548 29.1569 119.232 29.737C118.933 30.3171 118.713 30.6071 118.573 30.6071C118.555 30.6071 118.476 30.5719 118.335 30.5016C118.195 30.4137 118.089 30.3522 118.019 30.3171Z" fill="#FF9A2E"/>
<path d="M127.252 30.0007C126.83 29.6491 126.593 29.1305 126.54 28.445C126.505 27.7594 126.601 26.986 126.83 26.1247C127.076 25.2634 127.427 24.3669 127.885 23.4352C128.359 22.486 128.904 21.5895 129.519 20.7458C130.135 19.8844 130.802 19.1198 131.523 18.4518C132.244 17.7663 132.965 17.2653 133.685 16.9489C134.406 16.6149 135.109 16.5007 135.795 16.6061C136.48 16.694 137.104 17.0895 137.667 17.7927C138.018 18.2321 138.229 18.6803 138.3 19.1374C138.37 19.5768 138.361 20.0339 138.273 20.5085C138.185 20.9655 138.045 21.4401 137.851 21.9323C137.658 22.4069 137.465 22.8903 137.271 23.3825C137.095 23.8747 136.946 24.3757 136.823 24.8854C136.718 25.3952 136.7 25.9137 136.77 26.4411C136.858 27.1091 137.157 27.5046 137.667 27.6276C138.177 27.7507 138.783 27.7155 139.486 27.5221C140.207 27.3288 140.963 27.0212 141.754 26.5993C142.545 26.1774 143.274 25.7555 143.942 25.3337C144.628 24.9118 145.19 24.5427 145.63 24.2262C146.087 23.9098 146.315 23.7516 146.315 23.7516C146.807 23.6462 147.08 23.6813 147.133 23.8571C147.203 24.0153 147.106 24.2614 146.843 24.5954C146.596 24.9118 146.219 25.2809 145.709 25.7028C145.199 26.1071 144.619 26.5026 143.969 26.8893C143.318 27.276 142.624 27.6276 141.885 27.944C141.147 28.2604 140.427 28.4802 139.723 28.6032C139.02 28.7087 138.352 28.6999 137.719 28.5768C137.104 28.4362 136.594 28.1198 136.19 27.6276C135.997 27.4167 135.847 27.2057 135.742 26.9948C135.654 26.7839 135.505 26.5993 135.294 26.4411C135.03 26.6872 134.714 27.0124 134.344 27.4167C133.975 27.8034 133.571 28.1989 133.132 28.6032C132.71 28.9899 132.253 29.3591 131.76 29.7106C131.286 30.0622 130.794 30.3259 130.284 30.5016C129.774 30.6774 129.256 30.7389 128.728 30.6862C128.218 30.6335 127.726 30.405 127.252 30.0007ZM127.542 29.1042C127.7 29.6667 128.052 29.9303 128.596 29.8952C129.141 29.8425 129.774 29.57 130.495 29.0778C131.216 28.5856 131.963 27.9177 132.736 27.0739C133.51 26.2126 134.204 25.2634 134.819 24.2262C135.434 23.1716 135.9 22.0641 136.217 20.904C136.551 19.7438 136.638 18.6012 136.48 17.4762C136.058 17.1423 135.531 17.1335 134.898 17.4499C134.265 17.7487 133.589 18.2497 132.868 18.9528C132.165 19.6384 131.462 20.4645 130.759 21.4313C130.073 22.3805 129.467 23.3473 128.939 24.3317C128.412 25.2985 128.008 26.2126 127.726 27.0739C127.463 27.9352 127.401 28.612 127.542 29.1042Z" fill="#FF9A2E"/>
<path d="M23.4386 42.3752H21.1531V40.8602H27.5942V42.3752H25.3087V47.0416H23.4386V42.3752Z" fill="#FF9A2E"/>
<path d="M32.7937 44.479C32.7937 44.8946 32.8976 45.2004 33.1054 45.3967C33.3189 45.5929 33.6537 45.691 34.1096 45.691C34.5714 45.691 34.9061 45.5929 35.1139 45.3967C35.3274 45.2004 35.4342 44.8946 35.4342 44.479V40.8602H37.3042V44.3318C37.3042 45.3476 37.0301 46.0806 36.4818 46.5308C35.9335 46.9752 35.1427 47.1974 34.1096 47.1974C33.0823 47.1974 32.2944 46.9752 31.7461 46.5308C31.1978 46.0806 30.9237 45.3476 30.9237 44.3318V40.8602H32.7937V44.479Z" fill="#FF9A2E"/>
<path d="M41.2331 40.8602H44.1593C45.406 40.8602 46.3467 41.1228 46.9816 41.648C47.6165 42.1675 47.9339 42.9351 47.9339 43.9509C47.9339 44.9321 47.6021 45.6939 46.9383 46.2365C46.2746 46.7732 45.3223 47.0416 44.0814 47.0416H41.2331V40.8602ZM44.1247 45.5612C45.4002 45.5612 46.038 45.0215 46.038 43.9422C46.038 42.8745 45.4233 42.3406 44.1939 42.3406H43.0771V45.5612H44.1247Z" fill="#FF9A2E"/>
<path d="M55.07 47.1974C54.3082 47.1974 53.6531 47.0676 53.1048 46.8078C52.5565 46.5481 52.1323 46.1759 51.8322 45.691C51.5378 45.2062 51.3906 44.6262 51.3906 43.9509C51.3906 43.2756 51.5407 42.6956 51.8408 42.2107C52.1409 41.7259 52.568 41.3537 53.1221 41.0939C53.6762 40.8342 54.3371 40.7043 55.1047 40.7043C55.8665 40.7043 56.5216 40.8342 57.0699 41.0939C57.6182 41.3537 58.0396 41.7259 58.3339 42.2107C58.634 42.6956 58.7841 43.2756 58.7841 43.9509C58.7841 44.6262 58.634 45.2062 58.3339 45.691C58.0338 46.1759 57.6067 46.5481 57.0526 46.8078C56.4985 47.0676 55.8377 47.1974 55.07 47.1974ZM56.8448 43.9509C56.8448 43.3968 56.689 42.9697 56.3773 42.6696C56.0714 42.3637 55.6414 42.2107 55.0874 42.2107C54.5333 42.2107 54.1004 42.3637 53.7887 42.6696C53.4828 42.9755 53.3299 43.4026 53.3299 43.9509C53.3299 44.505 53.4828 44.935 53.7887 45.2408C54.1004 45.541 54.5333 45.691 55.0874 45.691C55.6414 45.691 56.0714 45.5381 56.3773 45.2322C56.689 44.9263 56.8448 44.4992 56.8448 43.9509Z" fill="#FF9A2E"/>
<path d="M67.4557 40.8602H70.3819C71.6286 40.8602 72.5693 41.1228 73.2042 41.648C73.8391 42.1675 74.1565 42.9351 74.1565 43.9509C74.1565 44.9321 73.8247 45.6939 73.1609 46.2365C72.4972 46.7732 71.5449 47.0416 70.304 47.0416H67.4557V40.8602ZM70.3473 45.5612C71.6228 45.5612 72.2606 45.0215 72.2606 43.9422C72.2606 42.8745 71.6459 42.3406 70.4165 42.3406H69.2997V45.5612H70.3473Z" fill="#FF9A2E"/>
<path d="M77.8903 40.8602H83.3012V42.2194H79.717V43.2237H83.128V44.5829H79.717V45.6824H83.509L83.3358 47.0416H77.8903V40.8602Z" fill="#FF9A2E"/>
<path d="M93.8024 42.3752H91.5168V40.8602H97.958V42.3752H95.6724V47.0416H93.8024V42.3752Z" fill="#FF9A2E"/>
<path d="M101.357 40.8602H106.768V42.2194H103.183V43.2237H106.594V44.5829H103.183V45.6824H106.975L106.802 47.0416H101.357V40.8602Z" fill="#FF9A2E"/>
<path d="M117.438 47.0416H115.247L113.672 44.9725L112.096 47.0416H110.018L112.529 43.8297L110.209 40.8602H112.399L113.698 42.6609L115.066 40.8602H117.143L114.849 43.7691L117.438 47.0416Z" fill="#FF9A2E"/>
<path d="M122.511 42.3752H120.225V40.8602H126.666V42.3752H124.381V47.0416H122.511V42.3752Z" fill="#FF9A2E"/>
<path d="M133.188 47.1974C132.426 47.1974 131.771 47.0676 131.223 46.8078C130.675 46.5481 130.251 46.1759 129.95 45.691C129.656 45.2062 129.509 44.6262 129.509 43.9509C129.509 43.2756 129.659 42.6956 129.959 42.2107C130.259 41.7259 130.686 41.3537 131.24 41.0939C131.794 40.8342 132.455 40.7043 133.223 40.7043C133.985 40.7043 134.64 40.8342 135.188 41.0939C135.736 41.3537 136.158 41.7259 136.452 42.2107C136.752 42.6956 136.902 43.2756 136.902 43.9509C136.902 44.6262 136.752 45.2062 136.452 45.691C136.152 46.1759 135.725 46.5481 135.171 46.8078C134.617 47.0676 133.956 47.1974 133.188 47.1974ZM134.963 43.9509C134.963 43.3968 134.807 42.9697 134.496 42.6696C134.19 42.3637 133.76 42.2107 133.206 42.2107C132.652 42.2107 132.219 42.3637 131.907 42.6696C131.601 42.9755 131.448 43.4026 131.448 43.9509C131.448 44.505 131.601 44.935 131.907 45.2408C132.219 45.541 132.652 45.691 133.206 45.691C133.76 45.691 134.19 45.5381 134.496 45.2322C134.807 44.9263 134.963 44.4992 134.963 43.9509Z" fill="#FF9A2E"/>
<path d="M21.1602 55.0295H22.0082C22.0588 55.2908 22.2775 55.4215 22.6642 55.4215C23.0588 55.4215 23.2562 55.3268 23.2562 55.1375C23.2562 55.0708 23.2268 55.0175 23.1682 54.9775C23.1095 54.9348 23.0135 54.9042 22.8802 54.8855L22.3682 54.8095C21.9735 54.7482 21.6855 54.6455 21.5042 54.5015C21.3255 54.3575 21.2362 54.1602 21.2362 53.9095C21.2362 53.6322 21.3615 53.4162 21.6122 53.2615C21.8655 53.1068 22.2135 53.0295 22.6562 53.0295C23.4748 53.0295 23.9335 53.3162 24.0322 53.8895L23.2122 53.9695C23.1695 53.8522 23.1028 53.7682 23.0122 53.7175C22.9215 53.6642 22.7935 53.6375 22.6282 53.6375C22.4522 53.6375 22.3162 53.6588 22.2202 53.7015C22.1268 53.7442 22.0802 53.8055 22.0802 53.8855C22.0802 53.9522 22.1055 54.0028 22.1562 54.0375C22.2068 54.0722 22.3002 54.1002 22.4362 54.1215L23.0602 54.2215C23.4308 54.2802 23.6988 54.3802 23.8642 54.5215C24.0295 54.6602 24.1122 54.8562 24.1122 55.1095C24.1122 55.4135 23.9895 55.6428 23.7442 55.7975C23.4988 55.9522 23.1375 56.0295 22.6602 56.0295C21.7215 56.0295 21.2215 55.6962 21.1602 55.0295Z" fill="#FF9A2E"/>
<path d="M27.3435 56.0295C26.9915 56.0295 26.6888 55.9695 26.4355 55.8495C26.1821 55.7295 25.9861 55.5575 25.8475 55.3335C25.7115 55.1095 25.6435 54.8415 25.6435 54.5295C25.6435 54.2175 25.7128 53.9495 25.8515 53.7255C25.9901 53.5015 26.1875 53.3295 26.4435 53.2095C26.6995 53.0895 27.0048 53.0295 27.3595 53.0295C27.7115 53.0295 28.0141 53.0895 28.2675 53.2095C28.5208 53.3295 28.7155 53.5015 28.8515 53.7255C28.9901 53.9495 29.0595 54.2175 29.0595 54.5295C29.0595 54.8415 28.9901 55.1095 28.8515 55.3335C28.7128 55.5575 28.5155 55.7295 28.2595 55.8495C28.0035 55.9695 27.6981 56.0295 27.3435 56.0295ZM28.1635 54.5295C28.1635 54.2735 28.0915 54.0762 27.9475 53.9375C27.8061 53.7962 27.6075 53.7255 27.3515 53.7255C27.0955 53.7255 26.8955 53.7962 26.7515 53.9375C26.6101 54.0788 26.5395 54.2762 26.5395 54.5295C26.5395 54.7855 26.6101 54.9842 26.7515 55.1255C26.8955 55.2642 27.0955 55.3335 27.3515 55.3335C27.6075 55.3335 27.8061 55.2628 27.9475 55.1215C28.0915 54.9802 28.1635 54.7828 28.1635 54.5295Z" fill="#FF9A2E"/>
<path d="M30.7801 53.1015H31.6441V55.2575H33.2681L33.1801 55.9575H30.7801V53.1015Z" fill="#FF9A2E"/>
<path d="M35.6636 54.7735C35.6636 54.9655 35.7116 55.1068 35.8076 55.1975C35.9063 55.2882 36.061 55.3335 36.2716 55.3335C36.485 55.3335 36.6396 55.2882 36.7356 55.1975C36.8343 55.1068 36.8836 54.9655 36.8836 54.7735V53.1015H37.7476V54.7055C37.7476 55.1748 37.621 55.5135 37.3676 55.7215C37.1143 55.9268 36.749 56.0295 36.2716 56.0295C35.797 56.0295 35.433 55.9268 35.1796 55.7215C34.9263 55.5135 34.7996 55.1748 34.7996 54.7055V53.1015H35.6636V54.7735Z" fill="#FF9A2E"/>
<path d="M42.5789 54.0455L41.7269 54.1375C41.6762 53.9908 41.6002 53.8855 41.4989 53.8215C41.3975 53.7575 41.2602 53.7255 41.0869 53.7255C40.8495 53.7255 40.6642 53.7948 40.5309 53.9335C40.3975 54.0695 40.3309 54.2682 40.3309 54.5295C40.3309 54.7908 40.3975 54.9908 40.5309 55.1295C40.6669 55.2655 40.8575 55.3335 41.1029 55.3335C41.4815 55.3335 41.7042 55.1868 41.7709 54.8935H42.6349C42.6002 55.2535 42.4455 55.5335 42.1709 55.7335C41.8989 55.9308 41.5362 56.0295 41.0829 56.0295C40.7202 56.0295 40.4162 55.9655 40.1709 55.8375C39.9282 55.7095 39.7442 55.5335 39.6189 55.3095C39.4962 55.0828 39.4349 54.8228 39.4349 54.5295C39.4349 54.2442 39.4962 53.9882 39.6189 53.7615C39.7442 53.5348 39.9295 53.3562 40.1749 53.2255C40.4202 53.0948 40.7255 53.0295 41.0909 53.0295C41.9149 53.0295 42.4109 53.3682 42.5789 54.0455ZM40.8749 55.8695L41.2549 55.9575L41.1789 56.1335C41.3469 56.1522 41.4709 56.1922 41.5509 56.2535C41.6309 56.3175 41.6709 56.4002 41.6709 56.5015C41.6709 56.6188 41.6122 56.7108 41.4949 56.7775C41.3775 56.8442 41.2122 56.8775 40.9989 56.8775C40.8042 56.8775 40.6509 56.8588 40.5389 56.8215V56.4975C40.6055 56.5082 40.6642 56.5162 40.7149 56.5215C40.7682 56.5295 40.8189 56.5335 40.8669 56.5335C40.9522 56.5335 41.0135 56.5255 41.0509 56.5095C41.0909 56.4962 41.1109 56.4748 41.1109 56.4455C41.1109 56.4082 41.0869 56.3828 41.0389 56.3695C40.9935 56.3562 40.9149 56.3495 40.8029 56.3495H40.6629L40.8749 55.8695Z" fill="#FF9A2E"/>
<path d="M45.8505 56.0295C45.4985 56.0295 45.1958 55.9695 44.9425 55.8495C44.6892 55.7295 44.4932 55.5575 44.3545 55.3335C44.2185 55.1095 44.1505 54.8415 44.1505 54.5295C44.1505 54.2175 44.2198 53.9495 44.3585 53.7255C44.4972 53.5015 44.6945 53.3295 44.9505 53.2095C45.2065 53.0895 45.5118 53.0295 45.8665 53.0295C46.2185 53.0295 46.5212 53.0895 46.7745 53.2095C47.0278 53.3295 47.2225 53.5015 47.3585 53.7255C47.4972 53.9495 47.5665 54.2175 47.5665 54.5295C47.5665 54.8415 47.4972 55.1095 47.3585 55.3335C47.2198 55.5575 47.0225 55.7295 46.7665 55.8495C46.5105 55.9695 46.2052 56.0295 45.8505 56.0295ZM46.6705 54.5295C46.6705 54.2735 46.5985 54.0762 46.4545 53.9375C46.3132 53.7962 46.1145 53.7255 45.8585 53.7255C45.6025 53.7255 45.4025 53.7962 45.2585 53.9375C45.1172 54.0788 45.0465 54.2762 45.0465 54.5295C45.0465 54.7855 45.1172 54.9842 45.2585 55.1255C45.4025 55.2642 45.6025 55.3335 45.8585 55.3335C46.1145 55.3335 46.3132 55.2628 46.4545 55.1215C46.5985 54.9802 46.6705 54.7828 46.6705 54.5295ZM44.9545 52.8655C44.9545 52.6282 44.9985 52.4575 45.0865 52.3535C45.1745 52.2495 45.3065 52.1975 45.4825 52.1975C45.6105 52.1975 45.7625 52.2415 45.9385 52.3295C46.0078 52.3642 46.0612 52.3882 46.0985 52.4015C46.1358 52.4148 46.1692 52.4215 46.1985 52.4215C46.2492 52.4215 46.2825 52.4055 46.2985 52.3735C46.3145 52.3388 46.3225 52.2842 46.3225 52.2095H46.7985C46.7985 52.4388 46.7545 52.6082 46.6665 52.7175C46.5785 52.8242 46.4465 52.8775 46.2705 52.8775C46.1452 52.8775 45.9972 52.8348 45.8265 52.7495C45.6958 52.6855 45.6052 52.6535 45.5545 52.6535C45.5065 52.6535 45.4732 52.6722 45.4545 52.7095C45.4385 52.7442 45.4305 52.7962 45.4305 52.8655H44.9545Z" fill="#FF9A2E"/>
<path d="M49.2871 53.1015H51.7871V53.7295H50.1311V54.1935H51.7071V54.8215H50.1311V55.3295H51.8831L51.8031 55.9575H49.2871V53.1015Z" fill="#FF9A2E"/>
<path d="M53.357 55.0295H54.205C54.2557 55.2908 54.4744 55.4215 54.861 55.4215C55.2557 55.4215 55.453 55.3268 55.453 55.1375C55.453 55.0708 55.4237 55.0175 55.365 54.9775C55.3064 54.9348 55.2104 54.9042 55.077 54.8855L54.565 54.8095C54.1704 54.7482 53.8824 54.6455 53.701 54.5015C53.5224 54.3575 53.433 54.1602 53.433 53.9095C53.433 53.6322 53.5584 53.4162 53.809 53.2615C54.0624 53.1068 54.4104 53.0295 54.853 53.0295C55.6717 53.0295 56.1304 53.3162 56.229 53.8895L55.409 53.9695C55.3664 53.8522 55.2997 53.7682 55.209 53.7175C55.1184 53.6642 54.9904 53.6375 54.825 53.6375C54.649 53.6375 54.513 53.6588 54.417 53.7015C54.3237 53.7442 54.277 53.8055 54.277 53.8855C54.277 53.9522 54.3024 54.0028 54.353 54.0375C54.4037 54.0722 54.497 54.1002 54.633 54.1215L55.257 54.2215C55.6277 54.2802 55.8957 54.3802 56.061 54.5215C56.2264 54.6602 56.309 54.8562 56.309 55.1095C56.309 55.4135 56.1864 55.6428 55.941 55.7975C55.6957 55.9522 55.3344 56.0295 54.857 56.0295C53.9184 56.0295 53.4184 55.6962 53.357 55.0295Z" fill="#FF9A2E"/>
<path d="M60.2543 53.1015H61.6743C62.5303 53.1015 62.9583 53.4308 62.9583 54.0895C62.9583 54.4282 62.8476 54.6788 62.6263 54.8415C62.4076 55.0015 62.0743 55.0815 61.6263 55.0815H61.0903V55.9575H60.2543V53.1015ZM61.6103 54.4415C61.7836 54.4415 61.9116 54.4148 61.9943 54.3615C62.0769 54.3082 62.1183 54.2162 62.1183 54.0855C62.1183 53.9628 62.0783 53.8748 61.9983 53.8215C61.9183 53.7682 61.7916 53.7415 61.6183 53.7415H61.0903V54.4415H61.6103Z" fill="#FF9A2E"/>
<path d="M65.2111 53.1015H66.2191L67.4591 55.9575H66.5631L66.3511 55.4375H65.0471L64.8471 55.9575H63.9711L65.2111 53.1015ZM66.1111 54.7975L65.7031 53.7535L65.2951 54.7975H66.1111Z" fill="#FF9A2E"/>
<path d="M69.0215 53.1015H70.4895C71.3455 53.1015 71.7735 53.4175 71.7735 54.0495C71.7735 54.2522 71.7308 54.4175 71.6455 54.5455C71.5601 54.6708 71.4348 54.7708 71.2695 54.8455L71.9695 55.9575H71.0455L70.4815 55.0095H69.8295V55.9575H69.0215V53.1015ZM70.4375 54.3935C70.6135 54.3935 70.7415 54.3682 70.8215 54.3175C70.9041 54.2642 70.9455 54.1762 70.9455 54.0535C70.9455 53.9308 70.9068 53.8442 70.8295 53.7935C70.7521 53.7428 70.6241 53.7175 70.4455 53.7175H69.8295V54.3935H70.4375Z" fill="#FF9A2E"/>
<path d="M74.5212 53.1015H75.5292L76.7692 55.9575H75.8732L75.6612 55.4375H74.3572L74.1572 55.9575H73.2812L74.5212 53.1015ZM75.4212 54.7975L75.0132 53.7535L74.6052 54.7975H75.4212Z" fill="#FF9A2E"/>
<path d="M81.5736 53.1015H82.5816L83.8216 55.9575H82.9256L82.7136 55.4375H81.4096L81.2096 55.9575H80.3336L81.5736 53.1015ZM82.4736 54.7975L82.0656 53.7535L81.6576 54.7975H82.4736Z" fill="#FF9A2E"/>
<path d="M90.6859 54.0455L89.8339 54.1375C89.7832 53.9908 89.7072 53.8855 89.6059 53.8215C89.5046 53.7575 89.3672 53.7255 89.1939 53.7255C88.9566 53.7255 88.7712 53.7948 88.6379 53.9335C88.5046 54.0695 88.4379 54.2682 88.4379 54.5295C88.4379 54.7908 88.5046 54.9908 88.6379 55.1295C88.7739 55.2655 88.9646 55.3335 89.2099 55.3335C89.5886 55.3335 89.8112 55.1868 89.8779 54.8935H90.7419C90.7072 55.2535 90.5526 55.5335 90.2779 55.7335C90.0059 55.9308 89.6432 56.0295 89.1899 56.0295C88.8272 56.0295 88.5232 55.9655 88.2779 55.8375C88.0352 55.7095 87.8512 55.5335 87.7259 55.3095C87.6032 55.0828 87.5419 54.8228 87.5419 54.5295C87.5419 54.2442 87.6032 53.9882 87.7259 53.7615C87.8512 53.5348 88.0366 53.3562 88.2819 53.2255C88.5272 53.0948 88.8326 53.0295 89.1979 53.0295C90.0219 53.0295 90.5179 53.3682 90.6859 54.0455Z" fill="#FF9A2E"/>
<path d="M93.9575 56.0295C93.6055 56.0295 93.3029 55.9695 93.0495 55.8495C92.7962 55.7295 92.6002 55.5575 92.4615 55.3335C92.3255 55.1095 92.2575 54.8415 92.2575 54.5295C92.2575 54.2175 92.3269 53.9495 92.4655 53.7255C92.6042 53.5015 92.8015 53.3295 93.0575 53.2095C93.3135 53.0895 93.6189 53.0295 93.9735 53.0295C94.3255 53.0295 94.6282 53.0895 94.8815 53.2095C95.1349 53.3295 95.3295 53.5015 95.4655 53.7255C95.6042 53.9495 95.6735 54.2175 95.6735 54.5295C95.6735 54.8415 95.6042 55.1095 95.4655 55.3335C95.3269 55.5575 95.1295 55.7295 94.8735 55.8495C94.6175 55.9695 94.3122 56.0295 93.9575 56.0295ZM94.7775 54.5295C94.7775 54.2735 94.7055 54.0762 94.5615 53.9375C94.4202 53.7962 94.2215 53.7255 93.9655 53.7255C93.7095 53.7255 93.5095 53.7962 93.3655 53.9375C93.2242 54.0788 93.1535 54.2762 93.1535 54.5295C93.1535 54.7855 93.2242 54.9842 93.3655 55.1255C93.5095 55.2642 93.7095 55.3335 93.9655 55.3335C94.2215 55.3335 94.4202 55.2628 94.5615 55.1215C94.7055 54.9802 94.7775 54.7828 94.7775 54.5295Z" fill="#FF9A2E"/>
<path d="M97.3941 53.1015H98.3701L99.2301 55.0335L100.086 53.1015H101.042V55.9575H100.25V54.2935L99.5261 55.9575H98.8941L98.1741 54.3015V55.9575H97.3941V53.1015Z" fill="#FF9A2E"/>
<path d="M103.727 54.7735C103.727 54.9655 103.775 55.1068 103.871 55.1975C103.97 55.2882 104.124 55.3335 104.335 55.3335C104.548 55.3335 104.703 55.2882 104.799 55.1975C104.898 55.1068 104.947 54.9655 104.947 54.7735V53.1015H105.811V54.7055C105.811 55.1748 105.684 55.5135 105.431 55.7215C105.178 55.9268 104.812 56.0295 104.335 56.0295C103.86 56.0295 103.496 55.9268 103.243 55.7215C102.99 55.5135 102.863 55.1748 102.863 54.7055V53.1015H103.727V54.7735Z" fill="#FF9A2E"/>
<path d="M107.626 53.1015H108.394L109.822 54.8175V53.1015H110.638V55.9575H109.87L108.442 54.2415V55.9575H107.626V53.1015Z" fill="#FF9A2E"/>
<path d="M112.486 53.1015H113.35V55.9575H112.486V53.1015Z" fill="#FF9A2E"/>
<path d="M118.214 54.0455L117.362 54.1375C117.311 53.9908 117.235 53.8855 117.134 53.8215C117.033 53.7575 116.895 53.7255 116.722 53.7255C116.485 53.7255 116.299 53.7948 116.166 53.9335C116.033 54.0695 115.966 54.2682 115.966 54.5295C115.966 54.7908 116.033 54.9908 116.166 55.1295C116.302 55.2655 116.493 55.3335 116.738 55.3335C117.117 55.3335 117.339 55.1868 117.406 54.8935H118.27C118.235 55.2535 118.081 55.5335 117.806 55.7335C117.534 55.9308 117.171 56.0295 116.718 56.0295C116.355 56.0295 116.051 55.9655 115.806 55.8375C115.563 55.7095 115.379 55.5335 115.254 55.3095C115.131 55.0828 115.07 54.8228 115.07 54.5295C115.07 54.2442 115.131 53.9882 115.254 53.7615C115.379 53.5348 115.565 53.3562 115.81 53.2255C116.055 53.0948 116.361 53.0295 116.726 53.0295C117.55 53.0295 118.046 53.3682 118.214 54.0455Z" fill="#FF9A2E"/>
<path d="M120.768 53.1015H121.776L123.016 55.9575H122.12L121.908 55.4375H120.604L120.404 55.9575H119.528L120.768 53.1015ZM121.668 54.7975L121.26 53.7535L120.852 54.7975H121.668Z" fill="#FF9A2E"/>
<path d="M127.419 54.0455L126.567 54.1375C126.516 53.9908 126.44 53.8855 126.339 53.8215C126.237 53.7575 126.1 53.7255 125.927 53.7255C125.689 53.7255 125.504 53.7948 125.371 53.9335C125.237 54.0695 125.171 54.2682 125.171 54.5295C125.171 54.7908 125.237 54.9908 125.371 55.1295C125.507 55.2655 125.697 55.3335 125.943 55.3335C126.321 55.3335 126.544 55.1868 126.611 54.8935H127.475C127.44 55.2535 127.285 55.5335 127.011 55.7335C126.739 55.9308 126.376 56.0295 125.923 56.0295C125.56 56.0295 125.256 55.9655 125.011 55.8375C124.768 55.7095 124.584 55.5335 124.459 55.3095C124.336 55.0828 124.275 54.8228 124.275 54.5295C124.275 54.2442 124.336 53.9882 124.459 53.7615C124.584 53.5348 124.769 53.3562 125.015 53.2255C125.26 53.0948 125.565 53.0295 125.931 53.0295C126.755 53.0295 127.251 53.3682 127.419 54.0455ZM125.715 55.8695L126.095 55.9575L126.019 56.1335C126.187 56.1522 126.311 56.1922 126.391 56.2535C126.471 56.3175 126.511 56.4002 126.511 56.5015C126.511 56.6188 126.452 56.7108 126.335 56.7775C126.217 56.8442 126.052 56.8775 125.839 56.8775C125.644 56.8775 125.491 56.8588 125.379 56.8215V56.4975C125.445 56.5082 125.504 56.5162 125.555 56.5215C125.608 56.5295 125.659 56.5335 125.707 56.5335C125.792 56.5335 125.853 56.5255 125.891 56.5095C125.931 56.4962 125.951 56.4748 125.951 56.4455C125.951 56.4082 125.927 56.3828 125.879 56.3695C125.833 56.3562 125.755 56.3495 125.643 56.3495H125.503L125.715 55.8695Z" fill="#FF9A2E"/>
<path d="M129.973 53.1015H130.981L132.221 55.9575H131.325L131.113 55.4375H129.809L129.609 55.9575H128.733L129.973 53.1015ZM130.873 54.7975L130.465 53.7535L130.057 54.7975H130.873ZM129.573 52.8655C129.573 52.6282 129.617 52.4575 129.705 52.3535C129.793 52.2495 129.925 52.1975 130.101 52.1975C130.229 52.1975 130.381 52.2415 130.557 52.3295C130.626 52.3642 130.679 52.3882 130.717 52.4015C130.754 52.4148 130.787 52.4215 130.817 52.4215C130.867 52.4215 130.901 52.4055 130.917 52.3735C130.933 52.3388 130.941 52.2842 130.941 52.2095H131.417C131.417 52.4388 131.373 52.6082 131.285 52.7175C131.197 52.8242 131.065 52.8775 130.889 52.8775C130.763 52.8775 130.615 52.8348 130.445 52.7495C130.314 52.6855 130.223 52.6535 130.173 52.6535C130.125 52.6535 130.091 52.6722 130.073 52.7095C130.057 52.7442 130.049 52.7962 130.049 52.8655H129.573Z" fill="#FF9A2E"/>
<path d="M135.179 56.0295C134.827 56.0295 134.525 55.9695 134.271 55.8495C134.018 55.7295 133.822 55.5575 133.683 55.3335C133.547 55.1095 133.479 54.8415 133.479 54.5295C133.479 54.2175 133.549 53.9495 133.687 53.7255C133.826 53.5015 134.023 53.3295 134.279 53.2095C134.535 53.0895 134.841 53.0295 135.195 53.0295C135.547 53.0295 135.85 53.0895 136.103 53.2095C136.357 53.3295 136.551 53.5015 136.687 53.7255C136.826 53.9495 136.895 54.2175 136.895 54.5295C136.895 54.8415 136.826 55.1095 136.687 55.3335C136.549 55.5575 136.351 55.7295 136.095 55.8495C135.839 55.9695 135.534 56.0295 135.179 56.0295ZM135.999 54.5295C135.999 54.2735 135.927 54.0762 135.783 53.9375C135.642 53.7962 135.443 53.7255 135.187 53.7255C134.931 53.7255 134.731 53.7962 134.587 53.9375C134.446 54.0788 134.375 54.2762 134.375 54.5295C134.375 54.7855 134.446 54.9842 134.587 55.1255C134.731 55.2642 134.931 55.3335 135.187 55.3335C135.443 55.3335 135.642 55.2628 135.783 55.1215C135.927 54.9802 135.999 54.7828 135.999 54.5295Z" fill="#FF9A2E"/>
<path d="M53.3204 61.0295C52.9684 61.0295 52.6658 60.9695 52.4124 60.8495C52.1591 60.7295 51.9631 60.5575 51.8244 60.3335C51.6884 60.1095 51.6204 59.8415 51.6204 59.5295C51.6204 59.2175 51.6898 58.9495 51.8284 58.7255C51.9671 58.5015 52.1644 58.3295 52.4204 58.2095C52.6764 58.0895 52.9818 58.0295 53.3364 58.0295C53.6884 58.0295 53.9911 58.0895 54.2444 58.2095C54.4978 58.3295 54.6924 58.5015 54.8284 58.7255C54.9671 58.9495 55.0364 59.2175 55.0364 59.5295C55.0364 59.8415 54.9671 60.1095 54.8284 60.3335C54.6898 60.5575 54.4924 60.7295 54.2364 60.8495C53.9804 60.9695 53.6751 61.0295 53.3204 61.0295ZM54.1404 59.5295C54.1404 59.2735 54.0684 59.0762 53.9244 58.9375C53.7831 58.7962 53.5844 58.7255 53.3284 58.7255C53.0724 58.7255 52.8724 58.7962 52.7284 58.9375C52.5871 59.0788 52.5164 59.2762 52.5164 59.5295C52.5164 59.7855 52.5871 59.9842 52.7284 60.1255C52.8724 60.2642 53.0724 60.3335 53.3284 60.3335C53.5844 60.3335 53.7831 60.2628 53.9244 60.1215C54.0684 59.9802 54.1404 59.7828 54.1404 59.5295Z" fill="#FF9A2E"/>
<path d="M56.757 58.1015H58.225C59.081 58.1015 59.509 58.4175 59.509 59.0495C59.509 59.2522 59.4664 59.4175 59.381 59.5455C59.2957 59.6708 59.1703 59.7708 59.005 59.8455L59.705 60.9575H58.781L58.217 60.0095H57.565V60.9575H56.757V58.1015ZM58.173 59.3935C58.349 59.3935 58.477 59.3682 58.557 59.3175C58.6397 59.2642 58.681 59.1762 58.681 59.0535C58.681 58.9308 58.6423 58.8442 58.565 58.7935C58.4877 58.7428 58.3597 58.7175 58.181 58.7175H57.565V59.3935H58.173Z" fill="#FF9A2E"/>
<path d="M62.2568 58.1015H63.2648L64.5048 60.9575H63.6088L63.3968 60.4375H62.0928L61.8928 60.9575H61.0168L62.2568 58.1015ZM63.1568 59.7975L62.7488 58.7535L62.3408 59.7975H63.1568Z" fill="#FF9A2E"/>
<path d="M66.0672 58.1015H66.9312V60.2575H68.5552L68.4672 60.9575H66.0672V58.1015Z" fill="#FF9A2E"/>
<path d="M72.4594 58.1015H74.9594V58.7295H73.3034V59.1935H74.8794V59.8215H73.3034V60.3295H75.0554L74.9754 60.9575H72.4594V58.1015Z" fill="#FF9A2E"/>
<path d="M79.0312 58.1015H81.5312V58.7295H79.8752V59.1935H81.4512V59.8215H79.8752V60.3295H81.6272L81.5472 60.9575H79.0312V58.1015Z" fill="#FF9A2E"/>
<path d="M83.1012 60.0295H83.9492C83.9998 60.2908 84.2185 60.4215 84.6052 60.4215C84.9998 60.4215 85.1972 60.3268 85.1972 60.1375C85.1972 60.0708 85.1678 60.0175 85.1092 59.9775C85.0505 59.9348 84.9545 59.9042 84.8212 59.8855L84.3092 59.8095C83.9145 59.7482 83.6265 59.6455 83.4452 59.5015C83.2665 59.3575 83.1772 59.1602 83.1772 58.9095C83.1772 58.6322 83.3025 58.4162 83.5532 58.2615C83.8065 58.1068 84.1545 58.0295 84.5972 58.0295C85.4158 58.0295 85.8745 58.3162 85.9732 58.8895L85.1532 58.9695C85.1105 58.8522 85.0438 58.7682 84.9532 58.7175C84.8625 58.6642 84.7345 58.6375 84.5692 58.6375C84.3932 58.6375 84.2572 58.6588 84.1612 58.7015C84.0678 58.7442 84.0212 58.8055 84.0212 58.8855C84.0212 58.9522 84.0465 59.0028 84.0972 59.0375C84.1478 59.0722 84.2412 59.1002 84.3772 59.1215L85.0012 59.2215C85.3718 59.2802 85.6398 59.3802 85.8052 59.5215C85.9705 59.6602 86.0532 59.8562 86.0532 60.1095C86.0532 60.4135 85.9305 60.6428 85.6852 60.7975C85.4398 60.9522 85.0785 61.0295 84.6012 61.0295C83.6625 61.0295 83.1625 60.6962 83.1012 60.0295Z" fill="#FF9A2E"/>
<path d="M90.7285 59.0455L89.8765 59.1375C89.8258 58.9908 89.7498 58.8855 89.6485 58.8215C89.5472 58.7575 89.4098 58.7255 89.2365 58.7255C88.9992 58.7255 88.8138 58.7948 88.6805 58.9335C88.5472 59.0695 88.4805 59.2682 88.4805 59.5295C88.4805 59.7908 88.5472 59.9908 88.6805 60.1295C88.8165 60.2655 89.0072 60.3335 89.2525 60.3335C89.6312 60.3335 89.8538 60.1868 89.9205 59.8935H90.7845C90.7498 60.2535 90.5952 60.5335 90.3205 60.7335C90.0485 60.9308 89.6858 61.0295 89.2325 61.0295C88.8698 61.0295 88.5658 60.9655 88.3205 60.8375C88.0778 60.7095 87.8938 60.5335 87.7685 60.3095C87.6458 60.0828 87.5845 59.8228 87.5845 59.5295C87.5845 59.2442 87.6458 58.9882 87.7685 58.7615C87.8938 58.5348 88.0792 58.3562 88.3245 58.2255C88.5698 58.0948 88.8752 58.0295 89.2405 58.0295C90.0645 58.0295 90.5605 58.3682 90.7285 59.0455Z" fill="#FF9A2E"/>
<path d="M92.4281 58.1015H93.8961C94.7521 58.1015 95.1801 58.4175 95.1801 59.0495C95.1801 59.2522 95.1374 59.4175 95.0521 59.5455C94.9668 59.6708 94.8414 59.7708 94.6761 59.8455L95.3761 60.9575H94.4521L93.8881 60.0095H93.2361V60.9575H92.4281V58.1015ZM93.8441 59.3935C94.0201 59.3935 94.1481 59.3682 94.2281 59.3175C94.3108 59.2642 94.3521 59.1762 94.3521 59.0535C94.3521 58.9308 94.3134 58.8442 94.2361 58.7935C94.1588 58.7428 94.0308 58.7175 93.8521 58.7175H93.2361V59.3935H93.8441Z" fill="#FF9A2E"/>
<path d="M96.9367 58.1015H97.8007V60.9575H96.9367V58.1015Z" fill="#FF9A2E"/>
<path d="M100.428 58.8015H99.3724V58.1015H102.348V58.8015H101.292V60.9575H100.428V58.8015Z" fill="#FF9A2E"/>
<path d="M104.433 58.1015H105.441L106.681 60.9575H105.785L105.573 60.4375H104.269L104.069 60.9575H103.193L104.433 58.1015ZM105.333 59.7975L104.925 58.7535L104.517 59.7975H105.333Z" fill="#FF9A2E"/>
</svg>
