<svg width="158" height="72" viewBox="0 0 158 72" fill="none" xmlns="http://www.w3.org/2000/svg">
<path d="M13.6323 30.6027C12.5601 30.1808 11.8218 29.6095 11.4175 28.8888C11.0132 28.1681 10.8462 27.3683 10.9165 26.4894C11.0044 25.5929 11.2856 24.6437 11.7603 23.6418C12.2524 22.6222 12.8501 21.6027 13.5532 20.5832C14.2739 19.5636 15.0649 18.5705 15.9263 17.6037C16.7876 16.6369 17.6401 15.7492 18.4839 14.9406C19.3276 14.132 20.1187 13.4289 20.8569 12.8312C21.5952 12.2336 22.1929 11.7941 22.6499 11.5129C23.2827 11.1261 23.8101 10.9416 24.2319 10.9592C24.6538 10.9592 24.9878 11.091 25.2339 11.3547C25.4976 11.6008 25.6733 11.9523 25.7612 12.4093C25.8667 12.8488 25.9106 13.3234 25.8931 13.8332C25.8931 14.3254 25.8403 14.8263 25.7349 15.3361C25.647 15.8283 25.5239 16.259 25.3657 16.6281C25.2251 16.9972 25.0669 17.2697 24.8911 17.4455C24.7329 17.6213 24.5747 17.6301 24.4165 17.4718C24.3989 17.3312 24.4165 17.1203 24.4692 16.839C24.522 16.5402 24.5835 16.2062 24.6538 15.8371C24.7417 15.4679 24.8208 15.09 24.8911 14.7033C24.9614 14.3166 25.0054 13.965 25.0229 13.6486C25.0581 13.3146 25.0493 13.0334 24.9966 12.8049C24.9614 12.5763 24.8647 12.4445 24.7065 12.4093C24.0913 12.2511 23.353 12.4006 22.4917 12.8576C21.6479 13.297 20.7603 13.9386 19.8286 14.7824C18.9146 15.6086 18.0005 16.5754 17.0864 17.6828C16.1899 18.7726 15.3726 19.8976 14.6343 21.0578C13.896 22.2179 13.2896 23.3517 12.8149 24.4592C12.3403 25.549 12.0679 26.5158 11.9976 27.3595C11.9448 28.1857 12.1294 28.8273 12.5513 29.2843C12.9907 29.7238 13.7554 29.8644 14.8452 29.7062C15.8472 29.5656 16.77 29.214 17.6138 28.6515C18.4751 28.0715 19.3013 27.4386 20.0923 26.7531C20.9009 26.05 21.7007 25.3644 22.4917 24.6965C23.2827 24.0109 24.1089 23.4924 24.9702 23.1408C25.2866 23.0177 25.5327 23.0617 25.7085 23.2726C25.9019 23.4836 25.9546 23.7385 25.8667 24.0373C25.7612 24.3361 25.4448 24.7316 24.9175 25.2238C24.4077 25.716 23.7661 26.2345 22.9927 26.7795C22.2368 27.3068 21.4019 27.8429 20.4878 28.3879C19.5737 28.9152 18.6772 29.3722 17.7983 29.759C16.937 30.1457 16.1284 30.4269 15.3726 30.6027C14.6343 30.7785 14.0542 30.7785 13.6323 30.6027Z" fill="#010101"/>
<path d="M26.5111 30.6027C26.476 30.5851 26.476 30.383 26.5111 29.9963C26.5638 29.592 26.6342 29.091 26.7221 28.4933C26.8099 27.8957 26.9242 27.2365 27.0648 26.5158C27.2054 25.7951 27.3549 25.1095 27.5131 24.4592C27.6713 23.7912 27.8383 23.2111 28.014 22.7189C28.2074 22.2092 28.392 21.8576 28.5678 21.6642C28.6908 21.5412 28.8138 21.5412 28.9369 21.6642C29.0599 21.7697 29.183 21.9103 29.306 22.0861C29.4291 22.2443 29.5521 22.3937 29.6752 22.5343C29.7982 22.6574 29.9301 22.6662 30.0707 22.5607C30.5629 21.8752 31.099 21.2248 31.6791 20.6095C32.2767 19.9767 32.9359 19.4318 33.6566 18.9748C33.7269 18.922 33.9203 18.8429 34.2367 18.7375C34.5531 18.6144 34.9135 18.5002 35.3178 18.3947C35.722 18.2717 36.1351 18.175 36.557 18.1047C36.9965 18.0168 37.3656 17.9816 37.6644 17.9992C37.9808 17.9992 38.1918 18.0783 38.2972 18.2365C38.4203 18.3771 38.3676 18.6232 38.139 18.9748C37.0844 18.9924 36.1 19.3 35.1859 19.8976C34.2719 20.4953 33.4281 21.2336 32.6547 22.1125C31.8812 22.9914 31.1781 23.9494 30.5453 24.9865C29.9125 26.006 29.3588 26.9552 28.8842 27.8342C28.4271 28.7131 28.0404 29.4426 27.724 30.0226C27.4252 30.6027 27.2054 30.8927 27.0648 30.8927C27.0472 30.8927 26.9681 30.8576 26.8275 30.7873C26.6869 30.6994 26.5814 30.6379 26.5111 30.6027Z" fill="#010101"/>
<path d="M37.096 30.6027C37.8167 28.2824 38.4671 26.4455 39.0471 25.092C39.6448 23.7209 40.137 22.7629 40.5237 22.2179C40.928 21.673 41.2004 21.4972 41.3411 21.6906C41.4817 21.884 41.4641 22.3761 41.2883 23.1672C41.1301 23.9582 40.7786 25.0217 40.2337 26.3576C39.7063 27.676 38.9592 29.1877 37.9924 30.8927C37.8518 30.9455 37.6848 30.9543 37.4915 30.9191C37.2981 30.884 37.1663 30.7785 37.096 30.6027ZM41.7102 17.9201C41.6751 17.8322 41.6575 17.674 41.6575 17.4455C41.6575 17.217 41.6751 17.0763 41.7102 17.0236C42.1145 16.883 42.4221 16.8654 42.6331 16.9709C42.844 17.0763 42.9758 17.2345 43.0286 17.4455C43.0813 17.6388 43.0725 17.8498 43.0022 18.0783C42.9495 18.3068 42.8528 18.4826 42.7122 18.6056C42.5715 18.7111 42.4046 18.7287 42.2112 18.6584C42.0354 18.5705 41.8684 18.3244 41.7102 17.9201Z" fill="#010101"/>
<path d="M42.5128 30.6027C42.3019 30.4621 42.2931 30.2775 42.4865 30.049C42.6974 29.8029 43.0226 29.548 43.4621 29.2843C43.9191 29.0031 44.4464 28.7131 45.0441 28.4142C45.6417 28.1154 46.213 27.8342 46.7579 27.5705C47.3204 27.3068 47.8126 27.0783 48.2345 26.8849C48.6564 26.674 48.9288 26.5158 49.0519 26.4103C49.632 25.9181 49.9308 25.5138 49.9484 25.1974C49.9835 24.8635 49.8429 24.5998 49.5265 24.4064C49.2101 24.1955 48.7619 24.0373 48.1818 23.9318C47.6193 23.8088 47.0304 23.7033 46.4152 23.6154C45.8175 23.5099 45.2374 23.4045 44.6749 23.299C44.13 23.1935 43.7169 23.0529 43.4357 22.8771C43.1544 22.7013 43.0578 22.4728 43.1456 22.1916C43.2511 21.8927 43.6378 21.5148 44.3058 21.0578C44.5519 20.882 44.9122 20.6271 45.3869 20.2931C45.8615 19.9592 46.3712 19.6164 46.9162 19.2648C47.4787 18.9133 48.0324 18.5968 48.5773 18.3156C49.1222 18.0343 49.5792 17.8498 49.9484 17.7619C50.1417 17.7267 50.3351 17.7443 50.5285 17.8146C50.7394 17.8849 50.9064 17.9904 51.0294 18.131C51.1525 18.2541 51.2052 18.3947 51.1876 18.5529C51.1876 18.7111 51.0734 18.8517 50.8449 18.9748C49.8429 19.5373 48.8761 20.0646 47.9445 20.5568C47.0304 21.049 46.1076 21.6115 45.1759 22.2443C45.1232 22.3849 45.132 22.508 45.2023 22.6135C45.2902 22.7189 45.3869 22.798 45.4923 22.8508C47.3556 23.0441 48.7531 23.3166 49.6847 23.6681C50.6339 24.0197 51.2316 24.4064 51.4777 24.8283C51.7413 25.2502 51.715 25.6984 51.3986 26.173C51.0822 26.6476 50.6076 27.1135 49.9747 27.5705C49.3595 28.0275 48.6476 28.4582 47.839 28.8625C47.0304 29.2668 46.2482 29.6095 45.4923 29.8908C44.754 30.172 44.1037 30.383 43.5412 30.5236C42.9787 30.6642 42.6359 30.6906 42.5128 30.6027Z" fill="#010101"/>
<path d="M65.4228 30.6027C64.5438 30.2336 63.9638 29.7238 63.6825 29.0734C63.4013 28.4054 63.3046 27.6935 63.3925 26.9377C63.4804 26.1642 63.6913 25.3908 64.0253 24.6174C64.3769 23.8439 64.7372 23.1584 65.1063 22.5607C65.2294 22.3498 65.4579 21.9894 65.7919 21.4797C66.1259 20.9699 66.4774 20.4338 66.8466 19.8713C67.2333 19.2912 67.5937 18.7551 67.9276 18.2629C68.2792 17.7531 68.5253 17.4015 68.6659 17.2082C68.8769 15.8547 69.2987 14.7824 69.9315 13.9914C70.5644 13.1828 71.2763 12.6291 72.0673 12.3302C72.8759 12.0314 73.702 11.9699 74.5458 12.1457C75.3895 12.3039 76.1278 12.6818 76.7606 13.2795C77.3935 13.8595 77.8505 14.6418 78.1317 15.6261C78.413 16.6105 78.3866 17.7619 78.0526 19.0802C77.7362 20.3986 77.0507 21.8752 75.996 23.5099C74.9413 25.1447 73.3944 26.9113 71.3554 28.8097C71.0038 29.1437 70.5819 29.4689 70.0897 29.7853C69.6151 30.0842 69.1054 30.3302 68.5604 30.5236C68.0331 30.717 67.497 30.8312 66.952 30.8664C66.4071 30.9015 65.8974 30.8136 65.4228 30.6027ZM64.4999 28.5197C64.6757 29.3107 65.0097 29.8029 65.5019 29.9963C65.994 30.1896 66.5741 30.1545 67.2421 29.8908C67.9101 29.6271 68.6395 29.1789 69.4306 28.5461C70.2216 27.9133 71.0126 27.175 71.8036 26.3312C72.5946 25.4699 73.3505 24.5383 74.0712 23.5363C74.7919 22.5343 75.4159 21.5412 75.9433 20.5568C76.4882 19.5724 76.9013 18.632 77.1825 17.7355C77.4638 16.839 77.5517 16.0656 77.4462 15.4152C77.3583 14.7472 77.0419 14.2463 76.497 13.9123C75.9696 13.5783 75.1522 13.4816 74.0448 13.6222C73.6405 13.9738 73.1044 14.4924 72.4364 15.1779C71.7685 15.8459 71.0565 16.6105 70.3007 17.4718C69.5448 18.3332 68.789 19.2648 68.0331 20.2668C67.2772 21.2511 66.6093 22.2355 66.0292 23.2199C65.4491 24.2043 65.0097 25.1535 64.7108 26.0676C64.412 26.9816 64.3417 27.799 64.4999 28.5197Z" fill="#010101"/>
<path d="M78.2636 30.6027C77.7538 30.2336 77.4198 29.7677 77.2616 29.2052C77.121 28.6427 77.1034 28.0363 77.2089 27.3859C77.3144 26.7179 77.4989 26.0324 77.7626 25.3293C78.0438 24.6261 78.3427 23.9494 78.6591 23.299C78.9931 22.6486 79.3095 22.051 79.6083 21.506C79.9247 20.9611 80.1708 20.5129 80.3466 20.1613C80.3993 20.0558 80.5224 19.801 80.7157 19.3967C80.9267 18.9924 81.1464 18.5529 81.3749 18.0783C81.6034 17.6037 81.8144 17.1642 82.0077 16.7599C82.2187 16.3381 82.3505 16.0744 82.4032 15.9689C82.456 15.881 82.5263 15.714 82.6142 15.4679C82.7196 15.2043 82.8339 14.923 82.9569 14.6242C83.08 14.3254 83.2118 14.0441 83.3524 13.7804C83.5106 13.4992 83.6688 13.297 83.827 13.174C84.0028 13.051 84.1698 13.0334 84.328 13.1213C84.5038 13.2092 84.6708 13.4728 84.829 13.9123C84.7587 14.0881 84.5829 14.4396 84.3017 14.967C84.038 15.4943 83.7216 16.1271 83.3524 16.8654C82.9833 17.6037 82.5702 18.4211 82.1132 19.3176C81.6737 20.214 81.2431 21.1193 80.8212 22.0334C80.3993 22.9474 80.0038 23.8439 79.6347 24.7228C79.2655 25.5842 78.9579 26.3752 78.7118 27.0959C78.4833 27.799 78.3427 28.3879 78.2899 28.8625C78.2548 29.3195 78.3427 29.6008 78.5536 29.7062C78.7997 29.8293 79.1161 29.882 79.5028 29.8644C79.9071 29.8293 80.3202 29.7765 80.7421 29.7062C81.164 29.6359 81.577 29.5656 81.9813 29.4953C82.3856 29.4074 82.7372 29.3722 83.036 29.3898C83.1063 29.548 83.0536 29.7062 82.8778 29.8644C82.702 30.0051 82.456 30.1369 82.1395 30.2599C81.8231 30.3654 81.454 30.4621 81.0321 30.55C80.6278 30.6203 80.2323 30.673 79.8456 30.7082C79.4765 30.7433 79.1425 30.7521 78.8437 30.7345C78.5624 30.717 78.369 30.673 78.2636 30.6027Z" fill="#010101"/>
<path d="M83.9441 30.6027C84.6648 28.2824 85.3152 26.4455 85.8953 25.092C86.493 23.7209 86.9851 22.7629 87.3719 22.2179C87.7762 21.673 88.0486 21.4972 88.1892 21.6906C88.3299 21.884 88.3123 22.3761 88.1365 23.1672C87.9783 23.9582 87.6267 25.0217 87.0818 26.3576C86.5545 27.676 85.8074 29.1877 84.8406 30.8927C84.7 30.9455 84.533 30.9543 84.3396 30.9191C84.1463 30.884 84.0144 30.7785 83.9441 30.6027ZM88.5584 17.9201C88.5232 17.8322 88.5056 17.674 88.5056 17.4455C88.5056 17.217 88.5232 17.0763 88.5584 17.0236C88.9627 16.883 89.2703 16.8654 89.4812 16.9709C89.6922 17.0763 89.824 17.2345 89.8767 17.4455C89.9295 17.6388 89.9207 17.8498 89.8504 18.0783C89.7976 18.3068 89.701 18.4826 89.5603 18.6056C89.4197 18.7111 89.2527 18.7287 89.0594 18.6584C88.8836 18.5705 88.7166 18.3244 88.5584 17.9201Z" fill="#010101"/>
<path d="M90.0993 30.2863C89.7301 30.0754 89.4665 29.7414 89.3083 29.2843C89.1501 28.8273 89.0622 28.3088 89.0446 27.7287C89.027 27.1486 89.0622 26.5422 89.1501 25.9093C89.2379 25.2765 89.3434 24.6613 89.4665 24.0636C89.5895 23.466 89.7126 22.9299 89.8356 22.4552C89.9586 21.9806 90.0465 21.6115 90.0993 21.3478C90.1872 21.2951 90.2751 21.2951 90.3629 21.3478C90.4684 21.4006 90.5651 21.4797 90.653 21.5851C90.7585 21.673 90.8376 21.7609 90.8903 21.8488C90.9606 21.9191 90.9958 21.9543 90.9958 21.9543C91.0485 22.5695 91.0485 23.176 90.9958 23.7736C90.9606 24.3537 90.9079 24.9338 90.8376 25.5138C90.7848 26.0939 90.7321 26.6828 90.6794 27.2804C90.6442 27.8781 90.6442 28.4845 90.6794 29.0998C90.82 29.3635 91.11 29.3722 91.5495 29.1261C91.9889 28.8625 92.5251 28.4494 93.1579 27.8869C93.7907 27.3068 94.4762 26.6301 95.2145 25.8566C95.9704 25.0656 96.7086 24.2834 97.4294 23.5099C98.1676 22.7365 98.862 22.0158 99.5124 21.3478C100.163 20.6623 100.708 20.1437 101.147 19.7922C101.604 19.423 101.921 19.2736 102.096 19.3439C102.272 19.3967 102.246 19.7658 102.017 20.4513C101.595 20.8205 101.094 21.3742 100.514 22.1125C99.9342 22.8508 99.3014 23.6506 98.6159 24.5119C97.9303 25.3556 97.2184 26.1994 96.4801 27.0431C95.7419 27.8869 94.9948 28.6164 94.2389 29.2316C93.5006 29.8293 92.7799 30.2511 92.0768 30.4972C91.3737 30.7258 90.7145 30.6554 90.0993 30.2863Z" fill="#010101"/>
<path d="M103.084 30.6027C102.556 30.4269 102.152 30.1633 101.871 29.8117C101.607 29.4426 101.431 29.0383 101.343 28.5988C101.255 28.1593 101.238 27.7023 101.291 27.2277C101.361 26.7355 101.466 26.2697 101.607 25.8302C102.134 25.2677 102.723 24.6261 103.374 23.9054C104.042 23.1672 104.745 22.4465 105.483 21.7433C106.221 21.0402 106.986 20.3898 107.777 19.7922C108.585 19.1769 109.403 18.7111 110.229 18.3947C110.51 18.2717 110.73 18.2804 110.888 18.4211C111.064 18.5441 111.187 18.7463 111.257 19.0275C111.328 19.3088 111.354 19.634 111.336 20.0031C111.336 20.3722 111.31 20.7326 111.257 21.0842C111.205 21.4357 111.134 21.7521 111.046 22.0334C110.959 22.3146 110.871 22.508 110.783 22.6135C110.572 22.8595 110.159 23.1496 109.543 23.4836C108.946 23.8176 108.278 24.1867 107.54 24.591C106.801 24.9777 106.063 25.382 105.325 25.8039C104.586 26.2258 103.98 26.6476 103.505 27.0695C103.031 27.4738 102.75 27.8781 102.662 28.2824C102.574 28.6867 102.82 29.0558 103.4 29.3898C103.998 29.4601 104.718 29.4338 105.562 29.3107C106.423 29.1701 107.293 28.9943 108.172 28.7834C109.069 28.5549 109.93 28.3263 110.756 28.0978C111.583 27.8517 112.259 27.6584 112.787 27.5177L113.103 27.8078C112.716 28.3176 112.084 28.7834 111.205 29.2052C110.326 29.6271 109.377 29.9787 108.357 30.2599C107.337 30.5236 106.344 30.6994 105.377 30.7873C104.411 30.8576 103.646 30.7961 103.084 30.6027ZM109.385 20.5304C109.368 20.5129 109.236 20.592 108.99 20.7677C108.744 20.926 108.436 21.1457 108.067 21.4269C107.715 21.6906 107.329 21.9894 106.907 22.3234C106.502 22.6398 106.125 22.9386 105.773 23.2199C105.439 23.5011 105.158 23.7472 104.929 23.9582C104.701 24.1515 104.604 24.2482 104.639 24.2482C104.92 24.301 105.281 24.2658 105.72 24.1427C106.177 24.0021 106.643 23.8088 107.118 23.5627C107.61 23.3166 108.076 23.0441 108.515 22.7453C108.955 22.4289 109.297 22.1213 109.543 21.8224C109.807 21.5236 109.939 21.2599 109.939 21.0314C109.957 20.8029 109.772 20.6359 109.385 20.5304Z" fill="#010101"/>
<path d="M112.602 30.6027C113.323 28.2824 113.973 26.4455 114.553 25.092C115.151 23.7209 115.643 22.7629 116.03 22.2179C116.434 21.673 116.707 21.4972 116.847 21.6906C116.988 21.884 116.97 22.3761 116.794 23.1672C116.636 23.9582 116.285 25.0217 115.74 26.3576C115.212 27.676 114.465 29.1877 113.499 30.8927C113.358 30.9455 113.191 30.9543 112.998 30.9191C112.804 30.884 112.672 30.7785 112.602 30.6027ZM117.216 17.9201C117.181 17.8322 117.164 17.674 117.164 17.4455C117.164 17.217 117.181 17.0763 117.216 17.0236C117.621 16.883 117.928 16.8654 118.139 16.9709C118.35 17.0763 118.482 17.2345 118.535 17.4455C118.587 17.6388 118.579 17.8498 118.508 18.0783C118.456 18.3068 118.359 18.4826 118.218 18.6056C118.078 18.7111 117.911 18.7287 117.717 18.6584C117.542 18.5705 117.375 18.3244 117.216 17.9201Z" fill="#010101"/>
<path d="M118.019 30.6027C117.984 30.5851 117.984 30.383 118.019 29.9963C118.072 29.592 118.142 29.091 118.23 28.4933C118.318 27.8957 118.432 27.2365 118.573 26.5158C118.713 25.7951 118.863 25.1095 119.021 24.4592C119.179 23.7912 119.346 23.2111 119.522 22.7189C119.715 22.2092 119.9 21.8576 120.076 21.6642C120.199 21.5412 120.322 21.5412 120.445 21.6642C120.568 21.7697 120.691 21.9103 120.814 22.0861C120.937 22.2443 121.06 22.3937 121.183 22.5343C121.306 22.6574 121.438 22.6662 121.579 22.5607C122.071 21.8752 122.607 21.2248 123.187 20.6095C123.785 19.9767 124.444 19.4318 125.164 18.9748C125.235 18.922 125.428 18.8429 125.745 18.7375C126.061 18.6144 126.421 18.5002 126.826 18.3947C127.23 18.2717 127.643 18.175 128.065 18.1047C128.504 18.0168 128.873 17.9816 129.172 17.9992C129.489 17.9992 129.7 18.0783 129.805 18.2365C129.928 18.3771 129.875 18.6232 129.647 18.9748C128.592 18.9924 127.608 19.3 126.694 19.8976C125.78 20.4953 124.936 21.2336 124.163 22.1125C123.389 22.9914 122.686 23.9494 122.053 24.9865C121.42 26.006 120.867 26.9552 120.392 27.8342C119.935 28.7131 119.548 29.4426 119.232 30.0226C118.933 30.6027 118.713 30.8927 118.573 30.8927C118.555 30.8927 118.476 30.8576 118.335 30.7873C118.195 30.6994 118.089 30.6379 118.019 30.6027Z" fill="#010101"/>
<path d="M127.252 30.2863C126.83 29.9347 126.593 29.4162 126.54 28.7306C126.505 28.0451 126.601 27.2717 126.83 26.4103C127.076 25.549 127.427 24.6525 127.885 23.7209C128.359 22.7717 128.904 21.8752 129.519 21.0314C130.135 20.1701 130.802 19.4054 131.523 18.7375C132.244 18.0519 132.965 17.551 133.685 17.2345C134.406 16.9006 135.109 16.7863 135.795 16.8918C136.48 16.9797 137.104 17.3752 137.667 18.0783C138.018 18.5177 138.229 18.966 138.3 19.423C138.37 19.8625 138.361 20.3195 138.273 20.7941C138.185 21.2511 138.045 21.7258 137.851 22.2179C137.658 22.6926 137.465 23.176 137.271 23.6681C137.095 24.1603 136.946 24.6613 136.823 25.1711C136.718 25.6808 136.7 26.1994 136.77 26.7267C136.858 27.3947 137.157 27.7902 137.667 27.9133C138.177 28.0363 138.783 28.0011 139.486 27.8078C140.207 27.6144 140.963 27.3068 141.754 26.8849C142.545 26.4631 143.274 26.0412 143.942 25.6193C144.628 25.1974 145.19 24.8283 145.63 24.5119C146.087 24.1955 146.315 24.0373 146.315 24.0373C146.807 23.9318 147.08 23.967 147.133 24.1427C147.203 24.301 147.106 24.547 146.843 24.881C146.596 25.1974 146.219 25.5666 145.709 25.9885C145.199 26.3927 144.619 26.7883 143.969 27.175C143.318 27.5617 142.624 27.9133 141.885 28.2297C141.147 28.5461 140.427 28.7658 139.723 28.8888C139.02 28.9943 138.352 28.9855 137.719 28.8625C137.104 28.7218 136.594 28.4054 136.19 27.9133C135.997 27.7023 135.847 27.4914 135.742 27.2804C135.654 27.0695 135.505 26.8849 135.294 26.7267C135.03 26.9728 134.714 27.298 134.344 27.7023C133.975 28.089 133.571 28.4845 133.132 28.8888C132.71 29.2756 132.253 29.6447 131.76 29.9963C131.286 30.3478 130.794 30.6115 130.284 30.7873C129.774 30.9631 129.256 31.0246 128.728 30.9718C128.218 30.9191 127.726 30.6906 127.252 30.2863ZM127.542 29.3898C127.7 29.9523 128.052 30.216 128.596 30.1808C129.141 30.1281 129.774 29.8556 130.495 29.3635C131.216 28.8713 131.963 28.2033 132.736 27.3595C133.51 26.4982 134.204 25.549 134.819 24.5119C135.434 23.4572 135.9 22.3498 136.217 21.1896C136.551 20.0295 136.638 18.8869 136.48 17.7619C136.058 17.4279 135.531 17.4191 134.898 17.7355C134.265 18.0343 133.589 18.5353 132.868 19.2385C132.165 19.924 131.462 20.7502 130.759 21.717C130.073 22.6662 129.467 23.633 128.939 24.6174C128.412 25.5842 128.008 26.4982 127.726 27.3595C127.463 28.2209 127.401 28.8976 127.542 29.3898Z" fill="#010101"/>
<path d="M23.4386 42.6609H21.1531V41.1458H27.5942V42.6609H25.3087V47.3272H23.4386V42.6609Z" fill="#010101"/>
<path d="M32.7937 44.7646C32.7937 45.1802 32.8976 45.4861 33.1054 45.6823C33.3189 45.8786 33.6537 45.9767 34.1096 45.9767C34.5714 45.9767 34.9061 45.8786 35.1139 45.6823C35.3274 45.4861 35.4342 45.1802 35.4342 44.7646V41.1458H37.3042V44.6175C37.3042 45.6333 37.0301 46.3663 36.4818 46.8165C35.9335 47.2609 35.1427 47.4831 34.1096 47.4831C33.0823 47.4831 32.2944 47.2609 31.7461 46.8165C31.1978 46.3663 30.9237 45.6333 30.9237 44.6175V41.1458H32.7937V44.7646Z" fill="#010101"/>
<path d="M41.2331 41.1458H44.1593C45.406 41.1458 46.3467 41.4084 46.9816 41.9337C47.6165 42.4531 47.9339 43.2207 47.9339 44.2365C47.9339 45.2177 47.6021 45.9796 46.9383 46.5221C46.2746 47.0589 45.3223 47.3272 44.0814 47.3272H41.2331V41.1458ZM44.1247 45.8468C45.4002 45.8468 46.038 45.3072 46.038 44.2279C46.038 43.1601 45.4233 42.6262 44.1939 42.6262H43.0771V45.8468H44.1247Z" fill="#010101"/>
<path d="M55.07 47.4831C54.3082 47.4831 53.6531 47.3532 53.1048 47.0935C52.5565 46.8338 52.1323 46.4615 51.8322 45.9767C51.5378 45.4919 51.3906 44.9118 51.3906 44.2365C51.3906 43.5613 51.5407 42.9812 51.8408 42.4964C52.1409 42.0116 52.568 41.6393 53.1221 41.3796C53.6762 41.1199 54.3371 40.99 55.1047 40.99C55.8665 40.99 56.5216 41.1199 57.0699 41.3796C57.6182 41.6393 58.0396 42.0116 58.3339 42.4964C58.634 42.9812 58.7841 43.5613 58.7841 44.2365C58.7841 44.9118 58.634 45.4919 58.3339 45.9767C58.0338 46.4615 57.6067 46.8338 57.0526 47.0935C56.4985 47.3532 55.8377 47.4831 55.07 47.4831ZM56.8448 44.2365C56.8448 43.6825 56.689 43.2554 56.3773 42.9552C56.0714 42.6493 55.6414 42.4964 55.0874 42.4964C54.5333 42.4964 54.1004 42.6493 53.7887 42.9552C53.4828 43.2611 53.3299 43.6882 53.3299 44.2365C53.3299 44.7906 53.4828 45.2206 53.7887 45.5265C54.1004 45.8266 54.5333 45.9767 55.0874 45.9767C55.6414 45.9767 56.0714 45.8237 56.3773 45.5178C56.689 45.2119 56.8448 44.7848 56.8448 44.2365Z" fill="#010101"/>
<path d="M67.4557 41.1458H70.3819C71.6286 41.1458 72.5693 41.4084 73.2042 41.9337C73.8391 42.4531 74.1565 43.2207 74.1565 44.2365C74.1565 45.2177 73.8247 45.9796 73.1609 46.5221C72.4972 47.0589 71.5449 47.3272 70.304 47.3272H67.4557V41.1458ZM70.3473 45.8468C71.6228 45.8468 72.2606 45.3072 72.2606 44.2279C72.2606 43.1601 71.6459 42.6262 70.4165 42.6262H69.2997V45.8468H70.3473Z" fill="#010101"/>
<path d="M77.8903 41.1458H83.3012V42.505H79.717V43.5093H83.128V44.8685H79.717V45.968H83.509L83.3358 47.3272H77.8903V41.1458Z" fill="#010101"/>
<path d="M93.8024 42.6609H91.5168V41.1458H97.958V42.6609H95.6724V47.3272H93.8024V42.6609Z" fill="#010101"/>
<path d="M101.357 41.1458H106.768V42.505H103.183V43.5093H106.594V44.8685H103.183V45.968H106.975L106.802 47.3272H101.357V41.1458Z" fill="#010101"/>
<path d="M117.438 47.3272H115.247L113.672 45.2581L112.096 47.3272H110.018L112.529 44.1153L110.209 41.1458H112.399L113.698 42.9466L115.066 41.1458H117.143L114.849 44.0547L117.438 47.3272Z" fill="#010101"/>
<path d="M122.511 42.6609H120.225V41.1458H126.666V42.6609H124.381V47.3272H122.511V42.6609Z" fill="#010101"/>
<path d="M133.188 47.4831C132.426 47.4831 131.771 47.3532 131.223 47.0935C130.675 46.8338 130.251 46.4615 129.95 45.9767C129.656 45.4919 129.509 44.9118 129.509 44.2365C129.509 43.5613 129.659 42.9812 129.959 42.4964C130.259 42.0116 130.686 41.6393 131.24 41.3796C131.794 41.1199 132.455 40.99 133.223 40.99C133.985 40.99 134.64 41.1199 135.188 41.3796C135.736 41.6393 136.158 42.0116 136.452 42.4964C136.752 42.9812 136.902 43.5613 136.902 44.2365C136.902 44.9118 136.752 45.4919 136.452 45.9767C136.152 46.4615 135.725 46.8338 135.171 47.0935C134.617 47.3532 133.956 47.4831 133.188 47.4831ZM134.963 44.2365C134.963 43.6825 134.807 43.2554 134.496 42.9552C134.19 42.6493 133.76 42.4964 133.206 42.4964C132.652 42.4964 132.219 42.6493 131.907 42.9552C131.601 43.2611 131.448 43.6882 131.448 44.2365C131.448 44.7906 131.601 45.2206 131.907 45.5265C132.219 45.8266 132.652 45.9767 133.206 45.9767C133.76 45.9767 134.19 45.8237 134.496 45.5178C134.807 45.2119 134.963 44.7848 134.963 44.2365Z" fill="#010101"/>
<path d="M21.1602 55.3152H22.0082C22.0588 55.5765 22.2775 55.7072 22.6642 55.7072C23.0588 55.7072 23.2562 55.6125 23.2562 55.4232C23.2562 55.3565 23.2268 55.3032 23.1682 55.2632C23.1095 55.2205 23.0135 55.1898 22.8802 55.1712L22.3682 55.0952C21.9735 55.0338 21.6855 54.9312 21.5042 54.7872C21.3255 54.6432 21.2362 54.4458 21.2362 54.1952C21.2362 53.9178 21.3615 53.7018 21.6122 53.5472C21.8655 53.3925 22.2135 53.3152 22.6562 53.3152C23.4748 53.3152 23.9335 53.6018 24.0322 54.1752L23.2122 54.2552C23.1695 54.1378 23.1028 54.0538 23.0122 54.0032C22.9215 53.9498 22.7935 53.9232 22.6282 53.9232C22.4522 53.9232 22.3162 53.9445 22.2202 53.9872C22.1268 54.0298 22.0802 54.0912 22.0802 54.1712C22.0802 54.2378 22.1055 54.2885 22.1562 54.3232C22.2068 54.3578 22.3002 54.3858 22.4362 54.4072L23.0602 54.5072C23.4308 54.5658 23.6988 54.6658 23.8642 54.8072C24.0295 54.9458 24.1122 55.1418 24.1122 55.3952C24.1122 55.6992 23.9895 55.9285 23.7442 56.0832C23.4988 56.2378 23.1375 56.3152 22.6602 56.3152C21.7215 56.3152 21.2215 55.9818 21.1602 55.3152Z" fill="#010101"/>
<path d="M27.3435 56.3152C26.9915 56.3152 26.6888 56.2552 26.4355 56.1352C26.1821 56.0152 25.9861 55.8432 25.8475 55.6192C25.7115 55.3952 25.6435 55.1272 25.6435 54.8152C25.6435 54.5032 25.7128 54.2352 25.8515 54.0112C25.9901 53.7872 26.1875 53.6152 26.4435 53.4952C26.6995 53.3752 27.0048 53.3152 27.3595 53.3152C27.7115 53.3152 28.0141 53.3752 28.2675 53.4952C28.5208 53.6152 28.7155 53.7872 28.8515 54.0112C28.9901 54.2352 29.0595 54.5032 29.0595 54.8152C29.0595 55.1272 28.9901 55.3952 28.8515 55.6192C28.7128 55.8432 28.5155 56.0152 28.2595 56.1352C28.0035 56.2552 27.6981 56.3152 27.3435 56.3152ZM28.1635 54.8152C28.1635 54.5592 28.0915 54.3618 27.9475 54.2232C27.8061 54.0818 27.6075 54.0112 27.3515 54.0112C27.0955 54.0112 26.8955 54.0818 26.7515 54.2232C26.6101 54.3645 26.5395 54.5618 26.5395 54.8152C26.5395 55.0712 26.6101 55.2698 26.7515 55.4112C26.8955 55.5498 27.0955 55.6192 27.3515 55.6192C27.6075 55.6192 27.8061 55.5485 27.9475 55.4072C28.0915 55.2658 28.1635 55.0685 28.1635 54.8152Z" fill="#010101"/>
<path d="M30.7801 53.3872H31.6441V55.5432H33.2681L33.1801 56.2432H30.7801V53.3872Z" fill="#010101"/>
<path d="M35.6636 55.0592C35.6636 55.2512 35.7116 55.3925 35.8076 55.4832C35.9063 55.5738 36.061 55.6192 36.2716 55.6192C36.485 55.6192 36.6396 55.5738 36.7356 55.4832C36.8343 55.3925 36.8836 55.2512 36.8836 55.0592V53.3872H37.7476V54.9912C37.7476 55.4605 37.621 55.7992 37.3676 56.0072C37.1143 56.2125 36.749 56.3152 36.2716 56.3152C35.797 56.3152 35.433 56.2125 35.1796 56.0072C34.9263 55.7992 34.7996 55.4605 34.7996 54.9912V53.3872H35.6636V55.0592Z" fill="#010101"/>
<path d="M42.5789 54.3312L41.7269 54.4232C41.6762 54.2765 41.6002 54.1712 41.4989 54.1072C41.3975 54.0432 41.2602 54.0112 41.0869 54.0112C40.8495 54.0112 40.6642 54.0805 40.5309 54.2192C40.3975 54.3552 40.3309 54.5538 40.3309 54.8152C40.3309 55.0765 40.3975 55.2765 40.5309 55.4152C40.6669 55.5512 40.8575 55.6192 41.1029 55.6192C41.4815 55.6192 41.7042 55.4725 41.7709 55.1792H42.6349C42.6002 55.5392 42.4455 55.8192 42.1709 56.0192C41.8989 56.2165 41.5362 56.3152 41.0829 56.3152C40.7202 56.3152 40.4162 56.2512 40.1709 56.1232C39.9282 55.9952 39.7442 55.8192 39.6189 55.5952C39.4962 55.3685 39.4349 55.1085 39.4349 54.8152C39.4349 54.5298 39.4962 54.2738 39.6189 54.0472C39.7442 53.8205 39.9295 53.6418 40.1749 53.5112C40.4202 53.3805 40.7255 53.3152 41.0909 53.3152C41.9149 53.3152 42.4109 53.6538 42.5789 54.3312ZM40.8749 56.1552L41.2549 56.2432L41.1789 56.4192C41.3469 56.4378 41.4709 56.4778 41.5509 56.5392C41.6309 56.6032 41.6709 56.6858 41.6709 56.7872C41.6709 56.9045 41.6122 56.9965 41.4949 57.0632C41.3775 57.1298 41.2122 57.1632 40.9989 57.1632C40.8042 57.1632 40.6509 57.1445 40.5389 57.1072V56.7832C40.6055 56.7938 40.6642 56.8018 40.7149 56.8072C40.7682 56.8152 40.8189 56.8192 40.8669 56.8192C40.9522 56.8192 41.0135 56.8112 41.0509 56.7952C41.0909 56.7818 41.1109 56.7605 41.1109 56.7312C41.1109 56.6938 41.0869 56.6685 41.0389 56.6552C40.9935 56.6418 40.9149 56.6352 40.8029 56.6352H40.6629L40.8749 56.1552Z" fill="#010101"/>
<path d="M45.8505 56.3152C45.4985 56.3152 45.1958 56.2552 44.9425 56.1352C44.6892 56.0152 44.4932 55.8432 44.3545 55.6192C44.2185 55.3952 44.1505 55.1272 44.1505 54.8152C44.1505 54.5032 44.2198 54.2352 44.3585 54.0112C44.4972 53.7872 44.6945 53.6152 44.9505 53.4952C45.2065 53.3752 45.5118 53.3152 45.8665 53.3152C46.2185 53.3152 46.5212 53.3752 46.7745 53.4952C47.0278 53.6152 47.2225 53.7872 47.3585 54.0112C47.4972 54.2352 47.5665 54.5032 47.5665 54.8152C47.5665 55.1272 47.4972 55.3952 47.3585 55.6192C47.2198 55.8432 47.0225 56.0152 46.7665 56.1352C46.5105 56.2552 46.2052 56.3152 45.8505 56.3152ZM46.6705 54.8152C46.6705 54.5592 46.5985 54.3618 46.4545 54.2232C46.3132 54.0818 46.1145 54.0112 45.8585 54.0112C45.6025 54.0112 45.4025 54.0818 45.2585 54.2232C45.1172 54.3645 45.0465 54.5618 45.0465 54.8152C45.0465 55.0712 45.1172 55.2698 45.2585 55.4112C45.4025 55.5498 45.6025 55.6192 45.8585 55.6192C46.1145 55.6192 46.3132 55.5485 46.4545 55.4072C46.5985 55.2658 46.6705 55.0685 46.6705 54.8152ZM44.9545 53.1512C44.9545 52.9138 44.9985 52.7432 45.0865 52.6392C45.1745 52.5352 45.3065 52.4832 45.4825 52.4832C45.6105 52.4832 45.7625 52.5272 45.9385 52.6152C46.0078 52.6498 46.0612 52.6738 46.0985 52.6872C46.1358 52.7005 46.1692 52.7072 46.1985 52.7072C46.2492 52.7072 46.2825 52.6912 46.2985 52.6592C46.3145 52.6245 46.3225 52.5698 46.3225 52.4952H46.7985C46.7985 52.7245 46.7545 52.8938 46.6665 53.0032C46.5785 53.1098 46.4465 53.1632 46.2705 53.1632C46.1452 53.1632 45.9972 53.1205 45.8265 53.0352C45.6958 52.9712 45.6052 52.9392 45.5545 52.9392C45.5065 52.9392 45.4732 52.9578 45.4545 52.9952C45.4385 53.0298 45.4305 53.0818 45.4305 53.1512H44.9545Z" fill="#010101"/>
<path d="M49.2871 53.3872H51.7871V54.0152H50.1311V54.4792H51.7071V55.1072H50.1311V55.6152H51.8831L51.8031 56.2432H49.2871V53.3872Z" fill="#010101"/>
<path d="M53.357 55.3152H54.205C54.2557 55.5765 54.4744 55.7072 54.861 55.7072C55.2557 55.7072 55.453 55.6125 55.453 55.4232C55.453 55.3565 55.4237 55.3032 55.365 55.2632C55.3064 55.2205 55.2104 55.1898 55.077 55.1712L54.565 55.0952C54.1704 55.0338 53.8824 54.9312 53.701 54.7872C53.5224 54.6432 53.433 54.4458 53.433 54.1952C53.433 53.9178 53.5584 53.7018 53.809 53.5472C54.0624 53.3925 54.4104 53.3152 54.853 53.3152C55.6717 53.3152 56.1304 53.6018 56.229 54.1752L55.409 54.2552C55.3664 54.1378 55.2997 54.0538 55.209 54.0032C55.1184 53.9498 54.9904 53.9232 54.825 53.9232C54.649 53.9232 54.513 53.9445 54.417 53.9872C54.3237 54.0298 54.277 54.0912 54.277 54.1712C54.277 54.2378 54.3024 54.2885 54.353 54.3232C54.4037 54.3578 54.497 54.3858 54.633 54.4072L55.257 54.5072C55.6277 54.5658 55.8957 54.6658 56.061 54.8072C56.2264 54.9458 56.309 55.1418 56.309 55.3952C56.309 55.6992 56.1864 55.9285 55.941 56.0832C55.6957 56.2378 55.3344 56.3152 54.857 56.3152C53.9184 56.3152 53.4184 55.9818 53.357 55.3152Z" fill="#010101"/>
<path d="M60.2543 53.3872H61.6743C62.5303 53.3872 62.9583 53.7165 62.9583 54.3752C62.9583 54.7138 62.8476 54.9645 62.6263 55.1272C62.4076 55.2872 62.0743 55.3672 61.6263 55.3672H61.0903V56.2432H60.2543V53.3872ZM61.6103 54.7272C61.7836 54.7272 61.9116 54.7005 61.9943 54.6472C62.0769 54.5938 62.1183 54.5018 62.1183 54.3712C62.1183 54.2485 62.0783 54.1605 61.9983 54.1072C61.9183 54.0538 61.7916 54.0272 61.6183 54.0272H61.0903V54.7272H61.6103Z" fill="#010101"/>
<path d="M65.2111 53.3872H66.2191L67.4591 56.2432H66.5631L66.3511 55.7232H65.0471L64.8471 56.2432H63.9711L65.2111 53.3872ZM66.1111 55.0832L65.7031 54.0392L65.2951 55.0832H66.1111Z" fill="#010101"/>
<path d="M69.0215 53.3872H70.4895C71.3455 53.3872 71.7735 53.7032 71.7735 54.3352C71.7735 54.5378 71.7308 54.7032 71.6455 54.8312C71.5601 54.9565 71.4348 55.0565 71.2695 55.1312L71.9695 56.2432H71.0455L70.4815 55.2952H69.8295V56.2432H69.0215V53.3872ZM70.4375 54.6792C70.6135 54.6792 70.7415 54.6538 70.8215 54.6032C70.9041 54.5498 70.9455 54.4618 70.9455 54.3392C70.9455 54.2165 70.9068 54.1298 70.8295 54.0792C70.7521 54.0285 70.6241 54.0032 70.4455 54.0032H69.8295V54.6792H70.4375Z" fill="#010101"/>
<path d="M74.5212 53.3872H75.5292L76.7692 56.2432H75.8732L75.6612 55.7232H74.3572L74.1572 56.2432H73.2812L74.5212 53.3872ZM75.4212 55.0832L75.0132 54.0392L74.6052 55.0832H75.4212Z" fill="#010101"/>
<path d="M81.5736 53.3872H82.5816L83.8216 56.2432H82.9256L82.7136 55.7232H81.4096L81.2096 56.2432H80.3336L81.5736 53.3872ZM82.4736 55.0832L82.0656 54.0392L81.6576 55.0832H82.4736Z" fill="#010101"/>
<path d="M90.6859 54.3312L89.8339 54.4232C89.7832 54.2765 89.7072 54.1712 89.6059 54.1072C89.5046 54.0432 89.3672 54.0112 89.1939 54.0112C88.9566 54.0112 88.7712 54.0805 88.6379 54.2192C88.5046 54.3552 88.4379 54.5538 88.4379 54.8152C88.4379 55.0765 88.5046 55.2765 88.6379 55.4152C88.7739 55.5512 88.9646 55.6192 89.2099 55.6192C89.5886 55.6192 89.8112 55.4725 89.8779 55.1792H90.7419C90.7072 55.5392 90.5526 55.8192 90.2779 56.0192C90.0059 56.2165 89.6432 56.3152 89.1899 56.3152C88.8272 56.3152 88.5232 56.2512 88.2779 56.1232C88.0352 55.9952 87.8512 55.8192 87.7259 55.5952C87.6032 55.3685 87.5419 55.1085 87.5419 54.8152C87.5419 54.5298 87.6032 54.2738 87.7259 54.0472C87.8512 53.8205 88.0366 53.6418 88.2819 53.5112C88.5272 53.3805 88.8326 53.3152 89.1979 53.3152C90.0219 53.3152 90.5179 53.6538 90.6859 54.3312Z" fill="#010101"/>
<path d="M93.9575 56.3152C93.6055 56.3152 93.3029 56.2552 93.0495 56.1352C92.7962 56.0152 92.6002 55.8432 92.4615 55.6192C92.3255 55.3952 92.2575 55.1272 92.2575 54.8152C92.2575 54.5032 92.3269 54.2352 92.4655 54.0112C92.6042 53.7872 92.8015 53.6152 93.0575 53.4952C93.3135 53.3752 93.6189 53.3152 93.9735 53.3152C94.3255 53.3152 94.6282 53.3752 94.8815 53.4952C95.1349 53.6152 95.3295 53.7872 95.4655 54.0112C95.6042 54.2352 95.6735 54.5032 95.6735 54.8152C95.6735 55.1272 95.6042 55.3952 95.4655 55.6192C95.3269 55.8432 95.1295 56.0152 94.8735 56.1352C94.6175 56.2552 94.3122 56.3152 93.9575 56.3152ZM94.7775 54.8152C94.7775 54.5592 94.7055 54.3618 94.5615 54.2232C94.4202 54.0818 94.2215 54.0112 93.9655 54.0112C93.7095 54.0112 93.5095 54.0818 93.3655 54.2232C93.2242 54.3645 93.1535 54.5618 93.1535 54.8152C93.1535 55.0712 93.2242 55.2698 93.3655 55.4112C93.5095 55.5498 93.7095 55.6192 93.9655 55.6192C94.2215 55.6192 94.4202 55.5485 94.5615 55.4072C94.7055 55.2658 94.7775 55.0685 94.7775 54.8152Z" fill="#010101"/>
<path d="M97.3941 53.3872H98.3701L99.2301 55.3192L100.086 53.3872H101.042V56.2432H100.25V54.5792L99.5261 56.2432H98.8941L98.1741 54.5872V56.2432H97.3941V53.3872Z" fill="#010101"/>
<path d="M103.727 55.0592C103.727 55.2512 103.775 55.3925 103.871 55.4832C103.97 55.5738 104.124 55.6192 104.335 55.6192C104.548 55.6192 104.703 55.5738 104.799 55.4832C104.898 55.3925 104.947 55.2512 104.947 55.0592V53.3872H105.811V54.9912C105.811 55.4605 105.684 55.7992 105.431 56.0072C105.178 56.2125 104.812 56.3152 104.335 56.3152C103.86 56.3152 103.496 56.2125 103.243 56.0072C102.99 55.7992 102.863 55.4605 102.863 54.9912V53.3872H103.727V55.0592Z" fill="#010101"/>
<path d="M107.626 53.3872H108.394L109.822 55.1032V53.3872H110.638V56.2432H109.87L108.442 54.5272V56.2432H107.626V53.3872Z" fill="#010101"/>
<path d="M112.486 53.3872H113.35V56.2432H112.486V53.3872Z" fill="#010101"/>
<path d="M118.214 54.3312L117.362 54.4232C117.311 54.2765 117.235 54.1712 117.134 54.1072C117.033 54.0432 116.895 54.0112 116.722 54.0112C116.485 54.0112 116.299 54.0805 116.166 54.2192C116.033 54.3552 115.966 54.5538 115.966 54.8152C115.966 55.0765 116.033 55.2765 116.166 55.4152C116.302 55.5512 116.493 55.6192 116.738 55.6192C117.117 55.6192 117.339 55.4725 117.406 55.1792H118.27C118.235 55.5392 118.081 55.8192 117.806 56.0192C117.534 56.2165 117.171 56.3152 116.718 56.3152C116.355 56.3152 116.051 56.2512 115.806 56.1232C115.563 55.9952 115.379 55.8192 115.254 55.5952C115.131 55.3685 115.07 55.1085 115.07 54.8152C115.07 54.5298 115.131 54.2738 115.254 54.0472C115.379 53.8205 115.565 53.6418 115.81 53.5112C116.055 53.3805 116.361 53.3152 116.726 53.3152C117.55 53.3152 118.046 53.6538 118.214 54.3312Z" fill="#010101"/>
<path d="M120.768 53.3872H121.776L123.016 56.2432H122.12L121.908 55.7232H120.604L120.404 56.2432H119.528L120.768 53.3872ZM121.668 55.0832L121.26 54.0392L120.852 55.0832H121.668Z" fill="#010101"/>
<path d="M127.419 54.3312L126.567 54.4232C126.516 54.2765 126.44 54.1712 126.339 54.1072C126.237 54.0432 126.1 54.0112 125.927 54.0112C125.689 54.0112 125.504 54.0805 125.371 54.2192C125.237 54.3552 125.171 54.5538 125.171 54.8152C125.171 55.0765 125.237 55.2765 125.371 55.4152C125.507 55.5512 125.697 55.6192 125.943 55.6192C126.321 55.6192 126.544 55.4725 126.611 55.1792H127.475C127.44 55.5392 127.285 55.8192 127.011 56.0192C126.739 56.2165 126.376 56.3152 125.923 56.3152C125.56 56.3152 125.256 56.2512 125.011 56.1232C124.768 55.9952 124.584 55.8192 124.459 55.5952C124.336 55.3685 124.275 55.1085 124.275 54.8152C124.275 54.5298 124.336 54.2738 124.459 54.0472C124.584 53.8205 124.769 53.6418 125.015 53.5112C125.26 53.3805 125.565 53.3152 125.931 53.3152C126.755 53.3152 127.251 53.6538 127.419 54.3312ZM125.715 56.1552L126.095 56.2432L126.019 56.4192C126.187 56.4378 126.311 56.4778 126.391 56.5392C126.471 56.6032 126.511 56.6858 126.511 56.7872C126.511 56.9045 126.452 56.9965 126.335 57.0632C126.217 57.1298 126.052 57.1632 125.839 57.1632C125.644 57.1632 125.491 57.1445 125.379 57.1072V56.7832C125.445 56.7938 125.504 56.8018 125.555 56.8072C125.608 56.8152 125.659 56.8192 125.707 56.8192C125.792 56.8192 125.853 56.8112 125.891 56.7952C125.931 56.7818 125.951 56.7605 125.951 56.7312C125.951 56.6938 125.927 56.6685 125.879 56.6552C125.833 56.6418 125.755 56.6352 125.643 56.6352H125.503L125.715 56.1552Z" fill="#010101"/>
<path d="M129.973 53.3872H130.981L132.221 56.2432H131.325L131.113 55.7232H129.809L129.609 56.2432H128.733L129.973 53.3872ZM130.873 55.0832L130.465 54.0392L130.057 55.0832H130.873ZM129.573 53.1512C129.573 52.9138 129.617 52.7432 129.705 52.6392C129.793 52.5352 129.925 52.4832 130.101 52.4832C130.229 52.4832 130.381 52.5272 130.557 52.6152C130.626 52.6498 130.679 52.6738 130.717 52.6872C130.754 52.7005 130.787 52.7072 130.817 52.7072C130.867 52.7072 130.901 52.6912 130.917 52.6592C130.933 52.6245 130.941 52.5698 130.941 52.4952H131.417C131.417 52.7245 131.373 52.8938 131.285 53.0032C131.197 53.1098 131.065 53.1632 130.889 53.1632C130.763 53.1632 130.615 53.1205 130.445 53.0352C130.314 52.9712 130.223 52.9392 130.173 52.9392C130.125 52.9392 130.091 52.9578 130.073 52.9952C130.057 53.0298 130.049 53.0818 130.049 53.1512H129.573Z" fill="#010101"/>
<path d="M135.179 56.3152C134.827 56.3152 134.525 56.2552 134.271 56.1352C134.018 56.0152 133.822 55.8432 133.683 55.6192C133.547 55.3952 133.479 55.1272 133.479 54.8152C133.479 54.5032 133.549 54.2352 133.687 54.0112C133.826 53.7872 134.023 53.6152 134.279 53.4952C134.535 53.3752 134.841 53.3152 135.195 53.3152C135.547 53.3152 135.85 53.3752 136.103 53.4952C136.357 53.6152 136.551 53.7872 136.687 54.0112C136.826 54.2352 136.895 54.5032 136.895 54.8152C136.895 55.1272 136.826 55.3952 136.687 55.6192C136.549 55.8432 136.351 56.0152 136.095 56.1352C135.839 56.2552 135.534 56.3152 135.179 56.3152ZM135.999 54.8152C135.999 54.5592 135.927 54.3618 135.783 54.2232C135.642 54.0818 135.443 54.0112 135.187 54.0112C134.931 54.0112 134.731 54.0818 134.587 54.2232C134.446 54.3645 134.375 54.5618 134.375 54.8152C134.375 55.0712 134.446 55.2698 134.587 55.4112C134.731 55.5498 134.931 55.6192 135.187 55.6192C135.443 55.6192 135.642 55.5485 135.783 55.4072C135.927 55.2658 135.999 55.0685 135.999 54.8152Z" fill="#010101"/>
<path d="M53.3204 61.3152C52.9684 61.3152 52.6658 61.2552 52.4124 61.1352C52.1591 61.0152 51.9631 60.8432 51.8244 60.6192C51.6884 60.3952 51.6204 60.1272 51.6204 59.8152C51.6204 59.5032 51.6898 59.2352 51.8284 59.0112C51.9671 58.7872 52.1644 58.6152 52.4204 58.4952C52.6764 58.3752 52.9818 58.3152 53.3364 58.3152C53.6884 58.3152 53.9911 58.3752 54.2444 58.4952C54.4978 58.6152 54.6924 58.7872 54.8284 59.0112C54.9671 59.2352 55.0364 59.5032 55.0364 59.8152C55.0364 60.1272 54.9671 60.3952 54.8284 60.6192C54.6898 60.8432 54.4924 61.0152 54.2364 61.1352C53.9804 61.2552 53.6751 61.3152 53.3204 61.3152ZM54.1404 59.8152C54.1404 59.5592 54.0684 59.3618 53.9244 59.2232C53.7831 59.0818 53.5844 59.0112 53.3284 59.0112C53.0724 59.0112 52.8724 59.0818 52.7284 59.2232C52.5871 59.3645 52.5164 59.5618 52.5164 59.8152C52.5164 60.0712 52.5871 60.2698 52.7284 60.4112C52.8724 60.5498 53.0724 60.6192 53.3284 60.6192C53.5844 60.6192 53.7831 60.5485 53.9244 60.4072C54.0684 60.2658 54.1404 60.0685 54.1404 59.8152Z" fill="#010101"/>
<path d="M56.757 58.3872H58.225C59.081 58.3872 59.509 58.7032 59.509 59.3352C59.509 59.5378 59.4664 59.7032 59.381 59.8312C59.2957 59.9565 59.1703 60.0565 59.005 60.1312L59.705 61.2432H58.781L58.217 60.2952H57.565V61.2432H56.757V58.3872ZM58.173 59.6792C58.349 59.6792 58.477 59.6538 58.557 59.6032C58.6397 59.5498 58.681 59.4618 58.681 59.3392C58.681 59.2165 58.6423 59.1298 58.565 59.0792C58.4877 59.0285 58.3597 59.0032 58.181 59.0032H57.565V59.6792H58.173Z" fill="#010101"/>
<path d="M62.2568 58.3872H63.2648L64.5048 61.2432H63.6088L63.3968 60.7232H62.0928L61.8928 61.2432H61.0168L62.2568 58.3872ZM63.1568 60.0832L62.7488 59.0392L62.3408 60.0832H63.1568Z" fill="#010101"/>
<path d="M66.0672 58.3872H66.9312V60.5432H68.5552L68.4672 61.2432H66.0672V58.3872Z" fill="#010101"/>
<path d="M72.4594 58.3872H74.9594V59.0152H73.3034V59.4792H74.8794V60.1072H73.3034V60.6152H75.0554L74.9754 61.2432H72.4594V58.3872Z" fill="#010101"/>
<path d="M79.0312 58.3872H81.5312V59.0152H79.8752V59.4792H81.4512V60.1072H79.8752V60.6152H81.6272L81.5472 61.2432H79.0312V58.3872Z" fill="#010101"/>
<path d="M83.1012 60.3152H83.9492C83.9998 60.5765 84.2185 60.7072 84.6052 60.7072C84.9998 60.7072 85.1972 60.6125 85.1972 60.4232C85.1972 60.3565 85.1678 60.3032 85.1092 60.2632C85.0505 60.2205 84.9545 60.1898 84.8212 60.1712L84.3092 60.0952C83.9145 60.0338 83.6265 59.9312 83.4452 59.7872C83.2665 59.6432 83.1772 59.4458 83.1772 59.1952C83.1772 58.9178 83.3025 58.7018 83.5532 58.5472C83.8065 58.3925 84.1545 58.3152 84.5972 58.3152C85.4158 58.3152 85.8745 58.6018 85.9732 59.1752L85.1532 59.2552C85.1105 59.1378 85.0438 59.0538 84.9532 59.0032C84.8625 58.9498 84.7345 58.9232 84.5692 58.9232C84.3932 58.9232 84.2572 58.9445 84.1612 58.9872C84.0678 59.0298 84.0212 59.0912 84.0212 59.1712C84.0212 59.2378 84.0465 59.2885 84.0972 59.3232C84.1478 59.3578 84.2412 59.3858 84.3772 59.4072L85.0012 59.5072C85.3718 59.5658 85.6398 59.6658 85.8052 59.8072C85.9705 59.9458 86.0532 60.1418 86.0532 60.3952C86.0532 60.6992 85.9305 60.9285 85.6852 61.0832C85.4398 61.2378 85.0785 61.3152 84.6012 61.3152C83.6625 61.3152 83.1625 60.9818 83.1012 60.3152Z" fill="#010101"/>
<path d="M90.7285 59.3312L89.8765 59.4232C89.8258 59.2765 89.7498 59.1712 89.6485 59.1072C89.5472 59.0432 89.4098 59.0112 89.2365 59.0112C88.9992 59.0112 88.8138 59.0805 88.6805 59.2192C88.5472 59.3552 88.4805 59.5538 88.4805 59.8152C88.4805 60.0765 88.5472 60.2765 88.6805 60.4152C88.8165 60.5512 89.0072 60.6192 89.2525 60.6192C89.6312 60.6192 89.8538 60.4725 89.9205 60.1792H90.7845C90.7498 60.5392 90.5952 60.8192 90.3205 61.0192C90.0485 61.2165 89.6858 61.3152 89.2325 61.3152C88.8698 61.3152 88.5658 61.2512 88.3205 61.1232C88.0778 60.9952 87.8938 60.8192 87.7685 60.5952C87.6458 60.3685 87.5845 60.1085 87.5845 59.8152C87.5845 59.5298 87.6458 59.2738 87.7685 59.0472C87.8938 58.8205 88.0792 58.6418 88.3245 58.5112C88.5698 58.3805 88.8752 58.3152 89.2405 58.3152C90.0645 58.3152 90.5605 58.6538 90.7285 59.3312Z" fill="#010101"/>
<path d="M92.4281 58.3872H93.8961C94.7521 58.3872 95.1801 58.7032 95.1801 59.3352C95.1801 59.5378 95.1374 59.7032 95.0521 59.8312C94.9668 59.9565 94.8414 60.0565 94.6761 60.1312L95.3761 61.2432H94.4521L93.8881 60.2952H93.2361V61.2432H92.4281V58.3872ZM93.8441 59.6792C94.0201 59.6792 94.1481 59.6538 94.2281 59.6032C94.3108 59.5498 94.3521 59.4618 94.3521 59.3392C94.3521 59.2165 94.3134 59.1298 94.2361 59.0792C94.1588 59.0285 94.0308 59.0032 93.8521 59.0032H93.2361V59.6792H93.8441Z" fill="#010101"/>
<path d="M96.9367 58.3872H97.8007V61.2432H96.9367V58.3872Z" fill="#010101"/>
<path d="M100.428 59.0872H99.3724V58.3872H102.348V59.0872H101.292V61.2432H100.428V59.0872Z" fill="#010101"/>
<path d="M104.433 58.3872H105.441L106.681 61.2432H105.785L105.573 60.7232H104.269L104.069 61.2432H103.193L104.433 58.3872ZM105.333 60.0832L104.925 59.0392L104.517 60.0832H105.333Z" fill="#010101"/>
</svg>
