<svg width="159" height="59" viewBox="0 0 159 59" fill="none" xmlns="http://www.w3.org/2000/svg">
<path d="M12.7676 30.6235C11.6811 30.196 10.9331 29.6172 10.5234 28.8869C10.1138 28.1567 9.94459 27.3463 10.0158 26.4558C10.1049 25.5475 10.3899 24.5857 10.8707 23.5705C11.3694 22.5375 11.975 21.5045 12.6874 20.4714C13.4177 19.4384 14.2191 18.4321 15.0918 17.4526C15.9646 16.473 16.8284 15.5735 17.6833 14.7543C18.5382 13.935 19.3397 13.2225 20.0877 12.617C20.8358 12.0114 21.4413 11.5662 21.9044 11.2812C22.5456 10.8894 23.0799 10.7023 23.5073 10.7202C23.9348 10.7202 24.2732 10.8537 24.5225 11.1209C24.7897 11.3702 24.9678 11.7265 25.0569 12.1895C25.1637 12.6348 25.2083 13.1157 25.1904 13.6322C25.1904 14.1309 25.137 14.6385 25.0301 15.155C24.9411 15.6537 24.8164 16.09 24.6561 16.4641C24.5136 16.8381 24.3533 17.1142 24.1752 17.2923C24.0149 17.4704 23.8546 17.4793 23.6944 17.319C23.6765 17.1765 23.6944 16.9628 23.7478 16.6778C23.8012 16.375 23.8636 16.0366 23.9348 15.6626C24.0238 15.2886 24.104 14.9056 24.1752 14.5138C24.2465 14.122 24.291 13.7658 24.3088 13.4452C24.3444 13.1068 24.3355 12.8218 24.2821 12.5903C24.2465 12.3587 24.1485 12.2251 23.9882 12.1895C23.3649 12.0292 22.6168 12.1806 21.7441 12.6437C20.8892 13.089 19.9898 13.739 19.0458 14.594C18.1196 15.4311 17.1935 16.4106 16.2673 17.5327C15.359 18.637 14.5308 19.7768 13.7828 20.9523C13.0347 22.1278 12.4203 23.2766 11.9394 24.3987C11.4585 25.5029 11.1824 26.4825 11.1112 27.3374C11.0578 28.1745 11.2448 28.8246 11.6722 29.2877C12.1175 29.7329 12.8922 29.8754 13.9965 29.7151C15.0117 29.5726 15.9468 29.2164 16.8017 28.6465C17.6744 28.0587 18.5115 27.4176 19.313 26.723C20.1322 26.0105 20.9426 25.3159 21.7441 24.6391C22.5456 23.9445 23.3827 23.4191 24.2554 23.0629C24.576 22.9382 24.8253 22.9827 25.0034 23.1965C25.1993 23.4102 25.2528 23.6684 25.1637 23.9712C25.0569 24.274 24.7363 24.6747 24.202 25.1734C23.6854 25.6721 23.0354 26.1975 22.2517 26.7497C21.4858 27.284 20.6398 27.8272 19.7137 28.3793C18.7875 28.9137 17.8792 29.3767 16.9887 29.7686C16.116 30.1604 15.2967 30.4454 14.5308 30.6235C13.7828 30.8016 13.195 30.8016 12.7676 30.6235Z" fill="#010101"/>
<path d="M25.8167 30.6235C25.781 30.6057 25.781 30.4008 25.8167 30.009C25.8701 29.5994 25.9413 29.0918 26.0304 28.4862C26.1194 27.8806 26.2352 27.2127 26.3777 26.4825C26.5202 25.7523 26.6716 25.0577 26.8319 24.3987C26.9922 23.7219 27.1614 23.1341 27.3395 22.6354C27.5354 22.1189 27.7224 21.7627 27.9005 21.5668C28.0252 21.4421 28.1498 21.4421 28.2745 21.5668C28.3992 21.6737 28.5239 21.8161 28.6485 21.9942C28.7732 22.1545 28.8979 22.3059 29.0226 22.4484C29.1472 22.5731 29.2808 22.582 29.4233 22.4751C29.922 21.7805 30.4652 21.1215 31.053 20.4982C31.6585 19.857 32.3264 19.3049 33.0567 18.8418C33.1279 18.7883 33.3238 18.7082 33.6444 18.6013C33.965 18.4767 34.3301 18.3609 34.7398 18.254C35.1494 18.1294 35.5679 18.0314 35.9954 17.9602C36.4407 17.8711 36.8147 17.8355 37.1175 17.8533C37.4381 17.8533 37.6518 17.9334 37.7586 18.0937C37.8833 18.2362 37.8299 18.4856 37.5984 18.8418C36.5297 18.8596 35.5323 19.1713 34.6062 19.7768C33.68 20.3824 32.8251 21.1304 32.0415 22.021C31.2578 22.9115 30.5454 23.8822 29.9042 24.933C29.263 25.966 28.702 26.9278 28.2211 27.8183C27.758 28.7088 27.3662 29.448 27.0456 30.0357C26.7428 30.6235 26.5202 30.9173 26.3777 30.9173C26.3599 30.9173 26.2797 30.8817 26.1372 30.8105C25.9948 30.7214 25.8879 30.6591 25.8167 30.6235Z" fill="#010101"/>
<path d="M36.5415 30.6235C37.2717 28.2725 37.9307 26.4113 38.5184 25.0399C39.124 23.6506 39.6227 22.68 40.0145 22.1278C40.4242 21.5757 40.7002 21.3976 40.8427 21.5935C40.9852 21.7894 40.9674 22.2881 40.7893 23.0896C40.629 23.8911 40.2728 24.9686 39.7207 26.3222C39.1863 27.658 38.4294 29.1897 37.4498 30.9173C37.3073 30.9708 37.1381 30.9797 36.9422 30.9441C36.7463 30.9084 36.6127 30.8016 36.5415 30.6235ZM41.2167 17.7731C41.1811 17.6841 41.1633 17.5238 41.1633 17.2923C41.1633 17.0607 41.1811 16.9182 41.2167 16.8648C41.6264 16.7223 41.9381 16.7045 42.1518 16.8114C42.3655 16.9182 42.4991 17.0785 42.5525 17.2923C42.606 17.4882 42.5971 17.7019 42.5258 17.9334C42.4724 18.165 42.3744 18.3431 42.2319 18.4678C42.0895 18.5746 41.9203 18.5924 41.7243 18.5212C41.5462 18.4321 41.377 18.1828 41.2167 17.7731Z" fill="#010101"/>
<path d="M42.03 30.6235C41.8163 30.481 41.8073 30.294 42.0033 30.0624C42.217 29.8131 42.5465 29.5548 42.9918 29.2877C43.4548 29.0027 43.9891 28.7088 44.5947 28.4061C45.2003 28.1033 45.7791 27.8183 46.3312 27.5511C46.9012 27.284 47.3999 27.0525 47.8273 26.8565C48.2548 26.6428 48.5308 26.4825 48.6555 26.3756C49.2433 25.877 49.546 25.4673 49.5639 25.1467C49.5995 24.8083 49.457 24.5412 49.1364 24.3452C48.8158 24.1315 48.3616 23.9712 47.7739 23.8644C47.204 23.7397 46.6073 23.6328 45.9839 23.5438C45.3784 23.4369 44.7906 23.33 44.2207 23.2232C43.6686 23.1163 43.25 22.9738 42.965 22.7957C42.6801 22.6176 42.5821 22.3861 42.6712 22.1011C42.778 21.7983 43.1699 21.4154 43.8467 20.9523C44.096 20.7742 44.4611 20.516 44.942 20.1776C45.4229 19.8392 45.9394 19.4919 46.4915 19.1357C47.0615 18.7794 47.6225 18.4589 48.1746 18.1739C48.7268 17.8889 49.1898 17.7019 49.5639 17.6128C49.7598 17.5772 49.9557 17.595 50.1516 17.6663C50.3653 17.7375 50.5345 17.8444 50.6592 17.9869C50.7839 18.1115 50.8373 18.254 50.8195 18.4143C50.8195 18.5746 50.7037 18.7171 50.4722 18.8418C49.457 19.4117 48.4774 19.946 47.5334 20.4447C46.6073 20.9434 45.6722 21.5134 44.7283 22.1545C44.6749 22.297 44.6838 22.4217 44.755 22.5286C44.8441 22.6354 44.942 22.7156 45.0489 22.769C46.9368 22.9649 48.3527 23.241 49.2967 23.5972C50.2585 23.9534 50.864 24.3452 51.1134 24.7727C51.3805 25.2002 51.3538 25.6543 51.0332 26.1352C50.7126 26.6161 50.2318 27.0881 49.5906 27.5511C48.9672 28.0142 48.2459 28.4506 47.4266 28.8602C46.6073 29.2699 45.8147 29.6172 45.0489 29.9021C44.3008 30.1871 43.6418 30.4008 43.0719 30.5433C42.502 30.6858 42.1547 30.7125 42.03 30.6235Z" fill="#010101"/>
<path d="M65.2429 30.6235C64.3523 30.2495 63.7646 29.7329 63.4796 29.074C63.1946 28.3972 63.0967 27.6758 63.1857 26.91C63.2748 26.1263 63.4885 25.3426 63.8269 24.559C64.1831 23.7753 64.5482 23.0807 64.9223 22.4751C65.0469 22.2614 65.2785 21.8963 65.6169 21.3798C65.9553 20.8633 66.3115 20.3201 66.6855 19.7501C67.0773 19.1624 67.4425 18.6191 67.7809 18.1204C68.1371 17.6039 68.3864 17.2477 68.5289 17.0518C68.7426 15.6804 69.1701 14.594 69.8113 13.7925C70.4524 12.9732 71.1738 12.4122 71.9752 12.1094C72.7945 11.8066 73.6316 11.7443 74.4865 11.9224C75.3414 12.0827 76.0895 12.4656 76.7307 13.0712C77.3718 13.6589 77.8349 14.4515 78.1199 15.4489C78.4049 16.4463 78.3782 17.6128 78.0397 18.9486C77.7192 20.2844 77.0245 21.7805 75.9559 23.4369C74.8873 25.0933 73.3199 26.8833 71.2539 28.8068C70.8977 29.1452 70.4703 29.4747 69.9716 29.7953C69.4907 30.0981 68.9742 30.3474 68.422 30.5433C67.8877 30.7392 67.3445 30.855 66.7924 30.8906C66.2402 30.9263 65.7237 30.8372 65.2429 30.6235ZM64.3078 28.5129C64.4859 29.3144 64.8243 29.8131 65.323 30.009C65.8217 30.2049 66.4094 30.1693 67.0862 29.9021C67.763 29.635 68.5022 29.1808 69.3037 28.5396C70.1051 27.8985 70.9066 27.1504 71.7081 26.2955C72.5096 25.4228 73.2754 24.4788 74.0057 23.4636C74.7359 22.4484 75.3682 21.4421 75.9025 20.4447C76.4546 19.4473 76.8732 18.4945 77.1581 17.5861C77.4431 16.6778 77.5321 15.8941 77.4253 15.2351C77.3362 14.5583 77.0156 14.0507 76.4635 13.7123C75.9292 13.3739 75.101 13.276 73.9789 13.4185C73.5693 13.7747 73.0261 14.3001 72.3493 14.9947C71.6725 15.6715 70.9511 16.4463 70.1853 17.319C69.4194 18.1917 68.6536 19.1357 67.8877 20.1509C67.1219 21.1482 66.4451 22.1456 65.8573 23.143C65.2696 24.1404 64.8243 25.1022 64.5215 26.0283C64.2187 26.9545 64.1475 27.7827 64.3078 28.5129Z" fill="#010101"/>
<path d="M78.2535 30.6235C77.737 30.2495 77.3986 29.7775 77.2383 29.2075C77.0958 28.6376 77.078 28.0231 77.1848 27.3641C77.2917 26.6873 77.4787 25.9927 77.7459 25.2803C78.0308 24.5679 78.3336 23.8822 78.6542 23.2232C78.9926 22.5642 79.3132 21.9586 79.616 21.4065C79.9366 20.8544 80.1859 20.4002 80.364 20.044C80.4175 19.9371 80.5421 19.6789 80.738 19.2692C80.9518 18.8596 81.1744 18.4143 81.4059 17.9334C81.6375 17.4526 81.8512 17.0073 82.0471 16.5976C82.2608 16.1702 82.3944 15.903 82.4479 15.7962C82.5013 15.7071 82.5725 15.5379 82.6616 15.2886C82.7685 15.0214 82.8842 14.7364 83.0089 14.4337C83.1336 14.1309 83.2672 13.8459 83.4096 13.5788C83.5699 13.2938 83.7302 13.089 83.8905 12.9643C84.0686 12.8396 84.2378 12.8218 84.3981 12.9109C84.5762 12.9999 84.7454 13.2671 84.9057 13.7123C84.8345 13.8904 84.6564 14.2466 84.3714 14.781C84.1042 15.3153 83.7837 15.9565 83.4096 16.7045C83.0356 17.4526 82.6171 18.2807 82.154 19.1891C81.7087 20.0974 81.2724 21.0147 80.8449 21.9408C80.4175 22.867 80.0167 23.7753 79.6427 24.6658C79.2687 25.5386 78.957 26.34 78.7076 27.0703C78.4761 27.7827 78.3336 28.3793 78.2802 28.8602C78.2446 29.3233 78.3336 29.6083 78.5473 29.7151C78.7967 29.8398 79.1173 29.8932 79.5091 29.8754C79.9188 29.8398 80.3373 29.7864 80.7648 29.7151C81.1922 29.6439 81.6108 29.5726 82.0204 29.5014C82.4301 29.4124 82.7863 29.3767 83.089 29.3945C83.1603 29.5548 83.1069 29.7151 82.9287 29.8754C82.7506 30.0179 82.5013 30.1515 82.1807 30.2762C81.8601 30.383 81.4861 30.481 81.0586 30.57C80.649 30.6413 80.2483 30.6947 79.8564 30.7303C79.4824 30.766 79.144 30.7749 78.8412 30.7571C78.5563 30.7392 78.3603 30.6947 78.2535 30.6235Z" fill="#010101"/>
<path d="M84.0091 30.6235C84.7394 28.2725 85.3984 26.4113 85.9861 25.0399C86.5917 23.6506 87.0904 22.68 87.4822 22.1278C87.8918 21.5757 88.1679 21.3976 88.3104 21.5935C88.4529 21.7894 88.4351 22.2881 88.257 23.0896C88.0967 23.8911 87.7405 24.9686 87.1883 26.3222C86.654 27.658 85.8971 29.1897 84.9175 30.9173C84.775 30.9708 84.6058 30.9797 84.4099 30.9441C84.214 30.9084 84.0804 30.8016 84.0091 30.6235ZM88.6844 17.7731C88.6488 17.6841 88.631 17.5238 88.631 17.2923C88.631 17.0607 88.6488 16.9182 88.6844 16.8648C89.0941 16.7223 89.4057 16.7045 89.6195 16.8114C89.8332 16.9182 89.9668 17.0785 90.0202 17.2923C90.0736 17.4882 90.0647 17.7019 89.9935 17.9334C89.9401 18.165 89.8421 18.3431 89.6996 18.4678C89.5571 18.5746 89.3879 18.5924 89.192 18.5212C89.0139 18.4321 88.8447 18.1828 88.6844 17.7731Z" fill="#010101"/>
<path d="M90.2457 30.3029C89.8717 30.0892 89.6045 29.7508 89.4442 29.2877C89.2839 28.8246 89.1949 28.2992 89.1771 27.7114C89.1592 27.1237 89.1949 26.5092 89.2839 25.868C89.373 25.2269 89.4799 24.6035 89.6045 23.9979C89.7292 23.3924 89.8539 22.8492 89.9785 22.3683C90.1032 21.8874 90.1923 21.5134 90.2457 21.2462C90.3348 21.1928 90.4238 21.1928 90.5129 21.2462C90.6197 21.2996 90.7177 21.3798 90.8067 21.4866C90.9136 21.5757 90.9937 21.6648 91.0472 21.7538C91.1184 21.825 91.154 21.8607 91.154 21.8607C91.2075 22.484 91.2075 23.0985 91.154 23.7041C91.1184 24.2918 91.065 24.8796 90.9937 25.4673C90.9403 26.0551 90.8869 26.6517 90.8335 27.2573C90.7978 27.8628 90.7978 28.4773 90.8335 29.1007C90.9759 29.3678 91.2698 29.3767 91.7151 29.1274C92.1603 28.8602 92.7036 28.4417 93.3447 27.8717C93.9859 27.284 94.6805 26.5983 95.4286 25.8146C96.1944 25.0131 96.9425 24.2206 97.6727 23.4369C98.4208 22.6532 99.1243 21.923 99.7833 21.2462C100.442 20.5516 100.994 20.0262 101.44 19.67C101.903 19.2959 102.223 19.1446 102.401 19.2158C102.58 19.2692 102.553 19.6433 102.321 20.3379C101.894 20.7119 101.386 21.2729 100.798 22.021C100.211 22.769 99.5695 23.5794 98.8749 24.4521C98.1803 25.307 97.459 26.1619 96.7109 27.0168C95.9629 27.8717 95.2059 28.6109 94.4401 29.2342C93.692 29.8398 92.9618 30.2673 92.2494 30.5166C91.537 30.7481 90.8691 30.6769 90.2457 30.3029Z" fill="#010101"/>
<path d="M103.402 30.6235C102.867 30.4454 102.458 30.1782 102.173 29.822C101.906 29.448 101.727 29.0383 101.638 28.5931C101.549 28.1478 101.532 27.6847 101.585 27.2038C101.656 26.7051 101.763 26.2332 101.906 25.7879C102.44 25.218 103.037 24.5679 103.696 23.8376C104.372 23.0896 105.085 22.3594 105.833 21.6469C106.581 20.9345 107.356 20.2755 108.157 19.67C108.976 19.0466 109.805 18.5746 110.642 18.254C110.927 18.1294 111.149 18.1383 111.31 18.2807C111.488 18.4054 111.612 18.6102 111.684 18.8952C111.755 19.1802 111.782 19.5097 111.764 19.8837C111.764 20.2577 111.737 20.6228 111.684 20.979C111.63 21.3353 111.559 21.6558 111.47 21.9408C111.381 22.2258 111.292 22.4217 111.203 22.5286C110.989 22.7779 110.57 23.0718 109.947 23.4102C109.341 23.7486 108.665 24.1226 107.917 24.5323C107.169 24.9241 106.421 25.3337 105.673 25.7612C104.924 26.1886 104.31 26.6161 103.829 27.0435C103.348 27.4532 103.063 27.8628 102.974 28.2725C102.885 28.6821 103.134 29.0561 103.722 29.3945C104.328 29.4658 105.058 29.4391 105.913 29.3144C106.786 29.1719 107.667 28.9938 108.558 28.7801C109.466 28.5485 110.339 28.317 111.176 28.0855C112.013 27.8361 112.699 27.6402 113.233 27.4977L113.554 27.7916C113.162 28.3081 112.521 28.7801 111.63 29.2075C110.74 29.635 109.778 29.9912 108.745 30.2762C107.712 30.5433 106.706 30.7214 105.726 30.8105C104.746 30.8817 103.972 30.8194 103.402 30.6235ZM109.787 20.418C109.769 20.4002 109.635 20.4804 109.386 20.6585C109.137 20.8188 108.825 21.0414 108.451 21.3264C108.095 21.5935 107.703 21.8963 107.275 22.2347C106.866 22.5553 106.483 22.8581 106.127 23.143C105.788 23.428 105.503 23.6773 105.272 23.8911C105.04 24.087 104.942 24.1849 104.978 24.1849C105.263 24.2384 105.628 24.2028 106.073 24.0781C106.536 23.9356 107.008 23.7397 107.489 23.4903C107.988 23.241 108.46 22.9649 108.905 22.6621C109.35 22.3416 109.698 22.0299 109.947 21.7271C110.214 21.4243 110.348 21.1572 110.348 20.9256C110.366 20.6941 110.179 20.5249 109.787 20.418Z" fill="#010101"/>
<path d="M113.046 30.6235C113.776 28.2725 114.435 26.4113 115.023 25.0399C115.629 23.6506 116.127 22.68 116.519 22.1278C116.929 21.5757 117.205 21.3976 117.347 21.5935C117.49 21.7894 117.472 22.2881 117.294 23.0896C117.134 23.8911 116.777 24.9686 116.225 26.3222C115.691 27.658 114.934 29.1897 113.954 30.9173C113.812 30.9708 113.643 30.9797 113.447 30.9441C113.251 30.9084 113.117 30.8016 113.046 30.6235ZM117.721 17.7731C117.686 17.6841 117.668 17.5238 117.668 17.2923C117.668 17.0607 117.686 16.9182 117.721 16.8648C118.131 16.7223 118.443 16.7045 118.656 16.8114C118.87 16.9182 119.004 17.0785 119.057 17.2923C119.111 17.4882 119.102 17.7019 119.03 17.9334C118.977 18.165 118.879 18.3431 118.737 18.4678C118.594 18.5746 118.425 18.5924 118.229 18.5212C118.051 18.4321 117.882 18.1828 117.721 17.7731Z" fill="#010101"/>
<path d="M118.535 30.6235C118.499 30.6057 118.499 30.4008 118.535 30.009C118.588 29.5994 118.659 29.0918 118.748 28.4862C118.837 27.8806 118.953 27.2127 119.096 26.4825C119.238 25.7523 119.389 25.0577 119.55 24.3987C119.71 23.7219 119.879 23.1341 120.057 22.6354C120.253 22.1189 120.44 21.7627 120.618 21.5668C120.743 21.4421 120.868 21.4421 120.992 21.5668C121.117 21.6737 121.242 21.8161 121.366 21.9942C121.491 22.1545 121.616 22.3059 121.74 22.4484C121.865 22.5731 121.999 22.582 122.141 22.4751C122.64 21.7805 123.183 21.1215 123.771 20.4982C124.376 19.857 125.044 19.3049 125.775 18.8418C125.846 18.7883 126.042 18.7082 126.362 18.6013C126.683 18.4767 127.048 18.3609 127.458 18.254C127.867 18.1294 128.286 18.0314 128.713 17.9602C129.159 17.8711 129.533 17.8355 129.835 17.8533C130.156 17.8533 130.37 17.9334 130.477 18.0937C130.601 18.2362 130.548 18.4856 130.316 18.8418C129.248 18.8596 128.25 19.1713 127.324 19.7768C126.398 20.3824 125.543 21.1304 124.759 22.021C123.976 22.9115 123.263 23.8822 122.622 24.933C121.981 25.966 121.42 26.9278 120.939 27.8183C120.476 28.7088 120.084 29.448 119.764 30.0357C119.461 30.6235 119.238 30.9173 119.096 30.9173C119.078 30.9173 118.998 30.8817 118.855 30.8105C118.713 30.7214 118.606 30.6591 118.535 30.6235Z" fill="#010101"/>
<path d="M127.889 30.3029C127.462 29.9467 127.222 29.4213 127.168 28.7266C127.132 28.032 127.23 27.2484 127.462 26.3756C127.711 25.5029 128.068 24.5946 128.531 23.6506C129.011 22.6889 129.564 21.7805 130.187 20.9256C130.81 20.0529 131.487 19.2781 132.217 18.6013C132.948 17.9067 133.678 17.3991 134.408 17.0785C135.138 16.7401 135.851 16.6244 136.545 16.7312C137.24 16.8203 137.872 17.221 138.442 17.9334C138.798 18.3787 139.012 18.8329 139.083 19.2959C139.155 19.7412 139.146 20.2043 139.057 20.6852C138.968 21.1482 138.825 21.6291 138.629 22.1278C138.433 22.6087 138.237 23.0985 138.041 23.5972C137.863 24.0959 137.712 24.6035 137.587 25.12C137.48 25.6365 137.463 26.1619 137.534 26.6962C137.623 27.373 137.926 27.7738 138.442 27.8985C138.959 28.0231 139.573 27.9875 140.286 27.7916C141.016 27.5957 141.782 27.284 142.583 26.8565C143.385 26.4291 144.124 26.0016 144.801 25.5742C145.495 25.1467 146.065 24.7727 146.51 24.4521C146.973 24.1315 147.205 23.9712 147.205 23.9712C147.704 23.8644 147.98 23.9 148.033 24.0781C148.104 24.2384 148.006 24.4877 147.739 24.8261C147.49 25.1467 147.107 25.5207 146.591 25.9482C146.074 26.3578 145.486 26.7586 144.827 27.1504C144.168 27.5422 143.465 27.8985 142.717 28.219C141.969 28.5396 141.238 28.7623 140.526 28.8869C139.814 28.9938 139.137 28.9849 138.496 28.8602C137.872 28.7177 137.356 28.3972 136.946 27.8985C136.75 27.6847 136.599 27.471 136.492 27.2573C136.403 27.0435 136.251 26.8565 136.038 26.6962C135.771 26.9456 135.45 27.2751 135.076 27.6847C134.702 28.0766 134.292 28.4773 133.847 28.8869C133.42 29.2788 132.957 29.6528 132.458 30.009C131.977 30.3652 131.478 30.6324 130.962 30.8105C130.445 30.9886 129.92 31.0509 129.385 30.9975C128.869 30.9441 128.37 30.7125 127.889 30.3029ZM128.183 29.3945C128.344 29.9645 128.7 30.2316 129.252 30.196C129.804 30.1426 130.445 29.8665 131.175 29.3678C131.906 28.8691 132.663 28.1923 133.446 27.3374C134.23 26.4647 134.933 25.5029 135.557 24.4521C136.18 23.3835 136.652 22.2614 136.973 21.0859C137.311 19.9104 137.4 18.7527 137.24 17.6128C136.813 17.2744 136.278 17.2655 135.637 17.5861C134.996 17.8889 134.31 18.3965 133.58 19.1089C132.867 19.8035 132.155 20.6406 131.443 21.6202C130.748 22.582 130.134 23.5616 129.599 24.559C129.065 25.5386 128.655 26.4647 128.37 27.3374C128.103 28.2101 128.041 28.8958 128.183 29.3945Z" fill="#010101"/>
<path d="M26.6118 44.5903H29.9082V45.4183H27.7247V46.0302H29.8027V46.8582H27.7247V47.5281H30.0348L29.9293 48.3561H26.6118V44.5903Z" fill="#010101"/>
<path d="M32.2631 44.5903H35.4066V45.4447H33.4023V46.1726H35.2958V47.027H33.4023V48.3561H32.2631V44.5903Z" fill="#010101"/>
<path d="M37.5693 44.5903H38.7085V48.3561H37.5693V44.5903Z" fill="#010101"/>
<path d="M45.1217 45.835L43.9983 45.9563C43.9314 45.7629 43.8312 45.624 43.6976 45.5397C43.564 45.4553 43.3829 45.4131 43.1544 45.4131C42.8414 45.4131 42.5971 45.5045 42.4212 45.6873C42.2454 45.8667 42.1575 46.1286 42.1575 46.4732C42.1575 46.8178 42.2454 47.0815 42.4212 47.2643C42.6006 47.4437 42.852 47.5333 43.1755 47.5333C43.6748 47.5333 43.9684 47.3399 44.0563 46.9532H45.1955C45.1498 47.4278 44.9459 47.797 44.5837 48.0608C44.225 48.321 43.7468 48.451 43.1491 48.451C42.6709 48.451 42.2701 48.3667 41.9466 48.1979C41.6266 48.0291 41.384 47.797 41.2187 47.5017C41.057 47.2028 40.9761 46.86 40.9761 46.4732C40.9761 46.097 41.057 45.7594 41.2187 45.4605C41.384 45.1617 41.6284 44.9261 41.9518 44.7538C42.2753 44.5815 42.6779 44.4954 43.1596 44.4954C44.2461 44.4954 44.9002 44.9419 45.1217 45.835Z" fill="#010101"/>
<path d="M48.4894 44.5903H49.8185L51.4535 48.3561H50.2721L49.9925 47.6705H48.2731L48.0094 48.3561H46.8543L48.4894 44.5903ZM49.6761 46.8266L49.1381 45.45L48.6001 46.8266H49.6761ZM49.2858 43.451H50.5411L49.5126 44.2844H48.4788L49.2858 43.451Z" fill="#010101"/>
<path d="M57.2587 45.835L56.1352 45.9563C56.0684 45.7629 55.9682 45.624 55.8346 45.5397C55.701 45.4553 55.5199 45.4131 55.2914 45.4131C54.9784 45.4131 54.734 45.5045 54.5582 45.6873C54.3824 45.8667 54.2945 46.1286 54.2945 46.4732C54.2945 46.8178 54.3824 47.0815 54.5582 47.2643C54.7376 47.4437 54.989 47.5333 55.3125 47.5333C55.8117 47.5333 56.1053 47.3399 56.1933 46.9532H57.3325C57.2868 47.4278 57.0828 47.797 56.7207 48.0608C56.362 48.321 55.8838 48.451 55.2861 48.451C54.8079 48.451 54.407 48.3667 54.0835 48.1979C53.7636 48.0291 53.521 47.797 53.3557 47.5017C53.194 47.2028 53.1131 46.86 53.1131 46.4732C53.1131 46.097 53.194 45.7594 53.3557 45.4605C53.521 45.1617 53.7653 44.9261 54.0888 44.7538C54.4123 44.5815 54.8149 44.4954 55.2966 44.4954C56.3831 44.4954 57.0371 44.9419 57.2587 45.835Z" fill="#010101"/>
<path d="M59.4997 44.5903H60.639V48.3561H59.4997V44.5903Z" fill="#010101"/>
<path d="M64.3358 44.5903H65.665L67.3 48.3561H66.1185L65.839 47.6705H64.1196L63.8559 48.3561H62.7008L64.3358 44.5903ZM65.5226 46.8266L64.9846 45.45L64.4466 46.8266H65.5226Z" fill="#010101"/>
<path d="M72.3743 44.5903H75.6707V45.4183H73.4871V46.0302H75.5652V46.8582H73.4871V47.5281H75.7973L75.6918 48.3561H72.3743V44.5903Z" fill="#010101"/>
<path d="M81.0397 44.5903H84.3361V45.4183H82.1526V46.0302H84.2306V46.8582H82.1526V47.5281H84.4627L84.3572 48.3561H81.0397V44.5903Z" fill="#010101"/>
<path d="M86.691 44.5903H89.8345V45.4447H87.8302V46.1726H89.7237V47.027H87.8302V48.3561H86.691V44.5903Z" fill="#010101"/>
<path d="M91.9972 44.5903H93.1364V48.3561H91.9972V44.5903Z" fill="#010101"/>
<path d="M99.5496 45.835L98.4261 45.9563C98.3593 45.7629 98.2591 45.624 98.1255 45.5397C97.9919 45.4553 97.8108 45.4131 97.5823 45.4131C97.2693 45.4131 97.025 45.5045 96.8491 45.6873C96.6733 45.8667 96.5854 46.1286 96.5854 46.4732C96.5854 46.8178 96.6733 47.0815 96.8491 47.2643C97.0285 47.4437 97.2799 47.5333 97.6034 47.5333C98.1027 47.5333 98.3963 47.3399 98.4842 46.9532H99.6234C99.5777 47.4278 99.3738 47.797 99.0116 48.0608C98.6529 48.321 98.1747 48.451 97.577 48.451C97.0988 48.451 96.698 48.3667 96.3745 48.1979C96.0545 48.0291 95.8119 47.797 95.6466 47.5017C95.4849 47.2028 95.404 46.86 95.404 46.4732C95.404 46.097 95.4849 45.7594 95.6466 45.4605C95.8119 45.1617 96.0563 44.9261 96.3797 44.7538C96.7032 44.5815 97.1058 44.4954 97.5875 44.4954C98.674 44.4954 99.328 44.9419 99.5496 45.835Z" fill="#010101"/>
<path d="M101.791 44.5903H102.93V48.3561H101.791V44.5903Z" fill="#010101"/>
<path d="M105.366 44.5903H108.663V45.4183H106.479V46.0302H108.557V46.8582H106.479V47.5281H108.789L108.684 48.3561H105.366V44.5903ZM106.505 43.451H107.529L108.304 44.2844H107.413L107.017 43.8835L106.616 44.2844H105.73L106.505 43.451Z" fill="#010101"/>
<path d="M111.018 44.5903H112.03L113.913 46.8529V44.5903H114.989V48.3561H113.976L112.093 46.0935V48.3561H111.018V44.5903Z" fill="#010101"/>
<path d="M121.403 45.835L120.279 45.9563C120.213 45.7629 120.112 45.624 119.979 45.5397C119.845 45.4553 119.664 45.4131 119.435 45.4131C119.122 45.4131 118.878 45.5045 118.702 45.6873C118.527 45.8667 118.439 46.1286 118.439 46.4732C118.439 46.8178 118.527 47.0815 118.702 47.2643C118.882 47.4437 119.133 47.5333 119.457 47.5333C119.956 47.5333 120.249 47.3399 120.337 46.9532H121.477C121.431 47.4278 121.227 47.797 120.865 48.0608C120.506 48.321 120.028 48.451 119.43 48.451C118.952 48.451 118.551 48.3667 118.228 48.1979C117.908 48.0291 117.665 47.797 117.5 47.5017C117.338 47.2028 117.257 46.86 117.257 46.4732C117.257 46.097 117.338 45.7594 117.5 45.4605C117.665 45.1617 117.909 44.9261 118.233 44.7538C118.556 44.5815 118.959 44.4954 119.441 44.4954C120.527 44.4954 121.181 44.9419 121.403 45.835Z" fill="#010101"/>
<path d="M123.644 44.5903H124.783V48.3561H123.644V44.5903Z" fill="#010101"/>
<path d="M128.48 44.5903H129.809L131.444 48.3561H130.263L129.983 47.6705H128.264L128 48.3561H126.845L128.48 44.5903ZM129.667 46.8266L129.129 45.45L128.591 46.8266H129.667Z" fill="#010101"/>
</svg>
