<svg width="158" height="59" viewBox="0 0 158 59" fill="none" xmlns="http://www.w3.org/2000/svg">
<path d="M13.3377 30.5352C12.2606 30.1114 11.519 29.5376 11.1129 28.8136C10.7068 28.0897 10.5391 27.2863 10.6097 26.4034C10.698 25.5029 10.9805 24.5494 11.4572 23.5429C11.9516 22.5188 12.552 21.4947 13.2583 20.4705C13.9822 19.4464 14.7768 18.4488 15.642 17.4776C16.5072 16.5065 17.3636 15.6148 18.2112 14.8025C19.0587 13.9903 19.8533 13.284 20.5949 12.6837C21.3365 12.0833 21.9369 11.6419 22.3959 11.3594C23.0316 10.9709 23.5613 10.7855 23.9851 10.8032C24.4089 10.8032 24.7444 10.9356 24.9916 11.2004C25.2564 11.4476 25.433 11.8008 25.5213 12.2599C25.6272 12.7013 25.6714 13.1781 25.6537 13.6901C25.6537 14.1845 25.6007 14.6878 25.4948 15.1998C25.4065 15.6942 25.2829 16.1268 25.124 16.4976C24.9827 16.8684 24.8238 17.1421 24.6473 17.3187C24.4883 17.4953 24.3294 17.5041 24.1705 17.3452C24.1528 17.2039 24.1705 16.992 24.2235 16.7095C24.2764 16.4094 24.3382 16.0739 24.4089 15.7031C24.4972 15.3323 24.5766 14.9526 24.6473 14.5642C24.7179 14.1757 24.762 13.8226 24.7797 13.5047C24.815 13.1692 24.8062 12.8867 24.7532 12.6572C24.7179 12.4276 24.6208 12.2952 24.4619 12.2599C23.8438 12.101 23.1022 12.2511 22.237 12.7101C21.3895 13.1516 20.4978 13.7961 19.5619 14.6436C18.6438 15.4735 17.7256 16.4447 16.8074 17.5571C15.9069 18.6518 15.0858 19.7819 14.3442 20.9473C13.6026 22.1127 12.9934 23.2516 12.5167 24.364C12.0399 25.4587 11.7662 26.4299 11.6956 27.2774C11.6426 28.1073 11.828 28.7518 12.2518 29.2109C12.6933 29.6523 13.4613 29.7936 14.5561 29.6347C15.5626 29.4934 16.4896 29.1403 17.3371 28.5752C18.2023 27.9925 19.0322 27.3569 19.8268 26.6682C20.639 25.962 21.4424 25.2733 22.237 24.6023C23.0316 23.9137 23.8615 23.3928 24.7267 23.0397C25.0445 22.9161 25.2917 22.9602 25.4683 23.1721C25.6625 23.384 25.7155 23.64 25.6272 23.9402C25.5213 24.2404 25.2035 24.6377 24.6737 25.1321C24.1617 25.6265 23.5172 26.1474 22.7403 26.6947C21.981 27.2245 21.1423 27.763 20.2241 28.3104C19.3059 28.8401 18.4054 29.2992 17.5225 29.6876C16.6573 30.0761 15.8451 30.3586 15.0858 30.5352C14.3442 30.7118 13.7615 30.7118 13.3377 30.5352Z" fill="white"/>
<path d="M26.2745 30.5352C26.2392 30.5175 26.2392 30.3145 26.2745 29.926C26.3275 29.5199 26.3982 29.0167 26.4864 28.4163C26.5747 27.816 26.6895 27.1538 26.8308 26.4299C26.972 25.7059 27.1221 25.0173 27.281 24.364C27.4399 23.693 27.6077 23.1103 27.7842 22.6159C27.9785 22.1038 28.1639 21.7507 28.3405 21.5565C28.4641 21.4329 28.5877 21.4329 28.7113 21.5565C28.8349 21.6624 28.9585 21.8037 29.0821 21.9802C29.2057 22.1391 29.3293 22.2892 29.4529 22.4305C29.5765 22.5541 29.7089 22.5629 29.8502 22.457C30.3446 21.7683 30.8831 21.115 31.4658 20.497C32.0661 19.8614 32.7283 19.314 33.4522 18.8549C33.5229 18.8019 33.7171 18.7225 34.0349 18.6165C34.3528 18.4929 34.7147 18.3781 35.1209 18.2722C35.527 18.1486 35.9419 18.0515 36.3657 17.9809C36.8071 17.8926 37.1779 17.8572 37.4781 17.8749C37.7959 17.8749 38.0078 17.9544 38.1138 18.1133C38.2374 18.2545 38.1844 18.5017 37.9549 18.8549C36.8954 18.8725 35.9066 19.1815 34.9884 19.7819C34.0703 20.3822 33.2227 21.1239 32.4458 22.0067C31.6689 22.8896 30.9626 23.8519 30.3269 24.8937C29.6912 25.9178 29.135 26.8713 28.6583 27.7542C28.1992 28.637 27.8107 29.3698 27.4929 29.9525C27.1927 30.5352 26.972 30.8265 26.8308 30.8265C26.8131 30.8265 26.7336 30.7912 26.5924 30.7206C26.4511 30.6323 26.3452 30.5705 26.2745 30.5352Z" fill="white"/>
<path d="M36.9071 30.5352C37.631 28.2044 38.2843 26.3592 38.867 24.9996C39.4674 23.6224 39.9618 22.66 40.3503 22.1127C40.7564 21.5653 41.0301 21.3887 41.1713 21.5829C41.3126 21.7772 41.2949 22.2716 41.1183 23.0662C40.9594 23.8607 40.6063 24.929 40.0589 26.271C39.5292 27.5953 38.7787 29.1138 37.8076 30.8265C37.6663 30.8795 37.4986 30.8883 37.3044 30.853C37.1101 30.8177 36.9777 30.7118 36.9071 30.5352ZM41.5421 17.7954C41.5068 17.7072 41.4891 17.5482 41.4891 17.3187C41.4891 17.0892 41.5068 16.9479 41.5421 16.8949C41.9482 16.7537 42.2572 16.736 42.4691 16.842C42.681 16.9479 42.8134 17.1068 42.8664 17.3187C42.9194 17.5129 42.9106 17.7248 42.8399 17.9544C42.787 18.1839 42.6898 18.3605 42.5486 18.4841C42.4073 18.59 42.2396 18.6077 42.0454 18.5371C41.8688 18.4488 41.701 18.2016 41.5421 17.7954Z" fill="white"/>
<path d="M42.3484 30.5352C42.1365 30.3939 42.1276 30.2085 42.3219 29.979C42.5338 29.7318 42.8604 29.4758 43.3018 29.2109C43.7609 28.9284 44.2907 28.637 44.891 28.3369C45.4914 28.0367 46.0652 27.7542 46.6126 27.4893C47.1776 27.2245 47.672 26.9949 48.0958 26.8007C48.5196 26.5888 48.7933 26.4299 48.9169 26.3239C49.4996 25.8295 49.7997 25.4234 49.8174 25.1056C49.8527 24.7701 49.7115 24.5052 49.3936 24.311C49.0758 24.0991 48.6255 23.9402 48.0428 23.8342C47.4778 23.7106 46.8863 23.6047 46.2683 23.5164C45.6679 23.4105 45.0852 23.3045 44.5202 23.1986C43.9728 23.0926 43.5579 22.9514 43.2754 22.7748C42.9928 22.5982 42.8957 22.3687 42.984 22.0862C43.09 21.786 43.4784 21.4064 44.1494 20.9473C44.3966 20.7707 44.7586 20.5147 45.2353 20.1792C45.7121 19.8437 46.2241 19.4994 46.7715 19.1462C47.3365 18.7931 47.8927 18.4753 48.4401 18.1927C48.9875 17.9102 49.4466 17.7248 49.8174 17.6365C50.0116 17.6012 50.2059 17.6189 50.4001 17.6895C50.612 17.7601 50.7797 17.8661 50.9033 18.0073C51.0269 18.1309 51.0799 18.2722 51.0622 18.4311C51.0622 18.59 50.9475 18.7313 50.7179 18.8549C49.7114 19.4199 48.7403 19.9496 47.8045 20.444C46.8863 20.9385 45.9593 21.5035 45.0234 22.1391C44.9705 22.2804 44.9793 22.404 45.0499 22.51C45.1382 22.6159 45.2353 22.6954 45.3413 22.7483C47.2129 22.9426 48.6167 23.2162 49.5525 23.5694C50.506 23.9225 51.1064 24.311 51.3536 24.7348C51.6184 25.1585 51.5919 25.6088 51.2741 26.0856C50.9563 26.5623 50.4795 27.0302 49.8439 27.4893C49.2259 27.9484 48.5108 28.381 47.6985 28.7871C46.8863 29.1932 46.1005 29.5376 45.3413 29.8201C44.5997 30.1026 43.9463 30.3145 43.3813 30.4557C42.8163 30.597 42.472 30.6235 42.3484 30.5352Z" fill="white"/>
<path d="M65.3615 30.5352C64.4786 30.1644 63.8959 29.6523 63.6134 28.999C63.3309 28.328 63.2338 27.6129 63.3221 26.8536C63.4103 26.0767 63.6222 25.2998 63.9577 24.5229C64.3109 23.746 64.6728 23.0573 65.0436 22.457C65.1672 22.2451 65.3968 21.8831 65.7323 21.3711C66.0678 20.859 66.4209 20.3204 66.7917 19.7554C67.1802 19.1727 67.5422 18.6342 67.8776 18.1398C68.2308 17.6277 68.478 17.2746 68.6192 17.0803C68.8311 15.7207 69.2549 14.6436 69.8906 13.849C70.5262 13.0368 71.2414 12.4806 72.0359 12.1804C72.8482 11.8802 73.6781 11.8184 74.5256 11.995C75.3732 12.1539 76.1148 12.5336 76.7504 13.1339C77.3861 13.7166 77.8452 14.5024 78.1277 15.4912C78.4102 16.48 78.3837 17.6365 78.0482 18.9608C77.7304 20.2851 77.0418 21.7683 75.9823 23.4105C74.9229 25.0526 73.3691 26.8272 71.3208 28.7342C70.9677 29.0696 70.5439 29.3963 70.0495 29.7141C69.5727 30.0143 69.0607 30.2615 68.5133 30.4557C67.9836 30.65 67.445 30.7647 66.8977 30.8001C66.3503 30.8354 65.8382 30.7471 65.3615 30.5352ZM64.4345 28.4428C64.611 29.2374 64.9465 29.7318 65.4409 29.926C65.9353 30.1203 66.518 30.0849 67.189 29.8201C67.86 29.5552 68.5928 29.105 69.3873 28.4693C70.1819 27.8336 70.9765 27.092 71.7711 26.2445C72.5657 25.3793 73.3249 24.4434 74.0489 23.437C74.7728 22.4305 75.3997 21.4329 75.9294 20.444C76.4768 19.4552 76.8917 18.5106 77.1742 17.61C77.4567 16.7095 77.545 15.9326 77.4391 15.2793C77.3508 14.6083 77.033 14.1051 76.4856 13.7696C75.9559 13.4341 75.1348 13.337 74.0224 13.4782C73.6163 13.8314 73.0777 14.3523 72.4067 15.0409C71.7358 15.7119 71.0206 16.48 70.2614 17.3452C69.5021 18.2104 68.7428 19.1462 67.9836 20.1527C67.2243 21.1415 66.5533 22.1303 65.9706 23.1191C65.388 24.1079 64.9465 25.0614 64.6464 25.9796C64.3462 26.8978 64.2756 27.7189 64.4345 28.4428Z" fill="white"/>
<path d="M78.2601 30.5352C77.7481 30.1644 77.4126 29.6965 77.2537 29.1314C77.1124 28.5664 77.0948 27.9572 77.2007 27.3039C77.3066 26.6329 77.492 25.9443 77.7569 25.238C78.0394 24.5317 78.3396 23.8519 78.6574 23.1986C78.9929 22.5453 79.3108 21.9449 79.6109 21.3975C79.9288 20.8502 80.176 20.3999 80.3525 20.0468C80.4055 19.9408 80.5291 19.6848 80.7233 19.2787C80.9352 18.8725 81.1559 18.4311 81.3855 17.9544C81.615 17.4776 81.8269 17.0362 82.0211 16.6301C82.233 16.2063 82.3655 15.9414 82.4184 15.8355C82.4714 15.7472 82.542 15.5795 82.6303 15.3323C82.7363 15.0674 82.851 14.7849 82.9746 14.4847C83.0982 14.1845 83.2307 13.902 83.3719 13.6372C83.5308 13.3546 83.6898 13.1516 83.8487 13.028C84.0253 12.9044 84.193 12.8867 84.3519 12.975C84.5285 13.0633 84.6962 13.3281 84.8551 13.7696C84.7845 13.9462 84.6079 14.2993 84.3254 14.829C84.0606 15.3587 83.7427 15.9944 83.3719 16.736C83.0011 17.4776 82.5862 18.2987 82.1271 19.1992C81.6857 20.0997 81.2531 21.0091 80.8293 21.9273C80.4055 22.8454 80.0082 23.746 79.6374 24.6288C79.2666 25.494 78.9576 26.2886 78.7104 27.0126C78.4809 27.7189 78.3396 28.3104 78.2866 28.7871C78.2513 29.2462 78.3396 29.5287 78.5515 29.6347C78.7987 29.7583 79.1165 29.8112 79.505 29.7936C79.9111 29.7583 80.326 29.7053 80.7498 29.6347C81.1736 29.564 81.5885 29.4934 81.9947 29.4228C82.4008 29.3345 82.7539 29.2992 83.0541 29.3168C83.1247 29.4758 83.0718 29.6347 82.8952 29.7936C82.7186 29.9349 82.4714 30.0673 82.1536 30.1909C81.8357 30.2968 81.4649 30.3939 81.0412 30.4822C80.635 30.5529 80.2378 30.6058 79.8493 30.6411C79.4785 30.6765 79.143 30.6853 78.8428 30.6676C78.5603 30.65 78.3661 30.6058 78.2601 30.5352Z" fill="white"/>
<path d="M83.9663 30.5352C84.6902 28.2044 85.3436 26.3592 85.9262 24.9996C86.5266 23.6224 87.021 22.66 87.4095 22.1127C87.8156 21.5653 88.0893 21.3887 88.2305 21.5829C88.3718 21.7772 88.3541 22.2716 88.1776 23.0662C88.0186 23.8607 87.6655 24.929 87.1181 26.271C86.5884 27.5953 85.838 29.1138 84.8668 30.8265C84.7255 30.8795 84.5578 30.8883 84.3636 30.853C84.1693 30.8177 84.0369 30.7118 83.9663 30.5352ZM88.6013 17.7954C88.566 17.7072 88.5484 17.5482 88.5484 17.3187C88.5484 17.0892 88.566 16.9479 88.6013 16.8949C89.0074 16.7537 89.3164 16.736 89.5283 16.842C89.7402 16.9479 89.8727 17.1068 89.9256 17.3187C89.9786 17.5129 89.9698 17.7248 89.8991 17.9544C89.8462 18.1839 89.749 18.3605 89.6078 18.4841C89.4665 18.59 89.2988 18.6077 89.1046 18.5371C88.928 18.4488 88.7602 18.2016 88.6013 17.7954Z" fill="white"/>
<path d="M90.1492 30.2174C89.7784 30.0055 89.5135 29.67 89.3546 29.2109C89.1957 28.7518 89.1074 28.2309 89.0897 27.6482C89.0721 27.0655 89.1074 26.4564 89.1957 25.8207C89.284 25.185 89.3899 24.567 89.5135 23.9667C89.6371 23.3663 89.7607 22.8278 89.8843 22.351C90.0079 21.8743 90.0962 21.5035 90.1492 21.2386C90.2375 21.1857 90.3257 21.1857 90.414 21.2386C90.52 21.2916 90.6171 21.3711 90.7054 21.477C90.8113 21.5653 90.8908 21.6536 90.9437 21.7419C91.0144 21.8125 91.0497 21.8478 91.0497 21.8478C91.1027 22.4658 91.1027 23.075 91.0497 23.6753C91.0144 24.258 90.9614 24.8407 90.8908 25.4234C90.8378 26.0061 90.7848 26.5976 90.7319 27.198C90.6965 27.7983 90.6965 28.4075 90.7319 29.0255C90.8731 29.2904 91.1645 29.2992 91.6059 29.052C92.0473 28.7871 92.5859 28.3722 93.2215 27.8071C93.8572 27.2245 94.5458 26.5446 95.2875 25.7677C96.0467 24.9731 96.7883 24.1874 97.5123 23.4105C98.2539 22.6336 98.9513 21.9096 99.6047 21.2386C100.258 20.55 100.805 20.0291 101.247 19.676C101.706 19.3051 102.024 19.1551 102.2 19.2257C102.377 19.2787 102.35 19.6495 102.121 20.3381C101.697 20.7089 101.194 21.2651 100.611 22.0067C100.028 22.7483 99.3928 23.5517 98.7041 24.4169C98.0155 25.2645 97.3004 26.112 96.5588 26.9596C95.8172 27.8071 95.0667 28.5399 94.3075 29.1579C93.5659 29.7583 92.8419 30.1821 92.1356 30.4293C91.4293 30.6588 90.7672 30.5882 90.1492 30.2174Z" fill="white"/>
<path d="M103.192 30.5352C102.662 30.3586 102.256 30.0938 101.974 29.7406C101.709 29.3698 101.532 28.9637 101.444 28.5223C101.356 28.0808 101.338 27.6217 101.391 27.145C101.461 26.6506 101.567 26.1827 101.709 25.7412C102.238 25.1762 102.83 24.5317 103.483 23.8078C104.154 23.0662 104.861 22.3422 105.602 21.6359C106.344 20.9296 107.112 20.2763 107.906 19.676C108.719 19.0579 109.54 18.59 110.37 18.2722C110.652 18.1486 110.873 18.1574 111.032 18.2987C111.208 18.4223 111.332 18.6253 111.403 18.9079C111.473 19.1904 111.5 19.517 111.482 19.8878C111.482 20.2586 111.456 20.6206 111.403 20.9738C111.35 21.3269 111.279 21.6447 111.191 21.9273C111.102 22.2098 111.014 22.404 110.926 22.51C110.714 22.7572 110.299 23.0485 109.681 23.384C109.081 23.7195 108.41 24.0903 107.668 24.4964C106.926 24.8849 106.185 25.291 105.443 25.7148C104.702 26.1385 104.092 26.5623 103.616 26.9861C103.139 27.3922 102.856 27.7983 102.768 28.2044C102.68 28.6106 102.927 28.9814 103.51 29.3168C104.11 29.3875 104.834 29.361 105.682 29.2374C106.547 29.0961 107.421 28.9196 108.304 28.7077C109.204 28.4781 110.069 28.2486 110.899 28.019C111.729 27.7718 112.409 27.5776 112.939 27.4363L113.257 27.7277C112.868 28.2397 112.232 28.7077 111.35 29.1314C110.467 29.5552 109.513 29.9084 108.489 30.1909C107.465 30.4557 106.467 30.6323 105.496 30.7206C104.525 30.7912 103.757 30.7294 103.192 30.5352ZM109.522 20.4176C109.504 20.3999 109.372 20.4794 109.125 20.6559C108.878 20.8148 108.569 21.0356 108.198 21.3181C107.845 21.5829 107.456 21.8831 107.032 22.2186C106.626 22.5364 106.247 22.8366 105.893 23.1191C105.558 23.4016 105.275 23.6488 105.046 23.8607C104.816 24.055 104.719 24.1521 104.755 24.1521C105.037 24.2051 105.399 24.1697 105.841 24.0461C106.3 23.9049 106.768 23.7106 107.244 23.4634C107.739 23.2162 108.207 22.9426 108.648 22.6424C109.089 22.3245 109.434 22.0155 109.681 21.7154C109.946 21.4152 110.078 21.1503 110.078 20.9208C110.096 20.6912 109.911 20.5235 109.522 20.4176Z" fill="white"/>
<path d="M112.753 30.5352C113.477 28.2044 114.131 26.3592 114.713 24.9996C115.314 23.6224 115.808 22.66 116.197 22.1127C116.603 21.5653 116.876 21.3887 117.018 21.5829C117.159 21.7772 117.141 22.2716 116.965 23.0662C116.806 23.8607 116.453 24.929 115.905 26.271C115.375 27.5953 114.625 29.1138 113.654 30.8265C113.513 30.8795 113.345 30.8883 113.151 30.853C112.956 30.8177 112.824 30.7118 112.753 30.5352ZM117.388 17.7954C117.353 17.7072 117.335 17.5482 117.335 17.3187C117.335 17.0892 117.353 16.9479 117.388 16.8949C117.795 16.7537 118.104 16.736 118.315 16.842C118.527 16.9479 118.66 17.1068 118.713 17.3187C118.766 17.5129 118.757 17.7248 118.686 17.9544C118.633 18.1839 118.536 18.3605 118.395 18.4841C118.254 18.59 118.086 18.6077 117.892 18.5371C117.715 18.4488 117.547 18.2016 117.388 17.7954Z" fill="white"/>
<path d="M118.195 30.5352C118.159 30.5175 118.159 30.3145 118.195 29.926C118.248 29.5199 118.318 29.0167 118.407 28.4163C118.495 27.816 118.61 27.1538 118.751 26.4299C118.892 25.7059 119.042 25.0173 119.201 24.364C119.36 23.693 119.528 23.1103 119.704 22.6159C119.899 22.1038 120.084 21.7507 120.261 21.5565C120.384 21.4329 120.508 21.4329 120.631 21.5565C120.755 21.6624 120.879 21.8037 121.002 21.9802C121.126 22.1391 121.249 22.2892 121.373 22.4305C121.497 22.5541 121.629 22.5629 121.77 22.457C122.265 21.7683 122.803 21.115 123.386 20.497C123.986 19.8614 124.648 19.314 125.372 18.8549C125.443 18.8019 125.637 18.7225 125.955 18.6165C126.273 18.4929 126.635 18.3781 127.041 18.2722C127.447 18.1486 127.862 18.0515 128.286 17.9809C128.727 17.8926 129.098 17.8572 129.398 17.8749C129.716 17.8749 129.928 17.9544 130.034 18.1133C130.157 18.2545 130.104 18.5017 129.875 18.8549C128.815 18.8725 127.827 19.1815 126.909 19.7819C125.99 20.3822 125.143 21.1239 124.366 22.0067C123.589 22.8896 122.883 23.8519 122.247 24.8937C121.611 25.9178 121.055 26.8713 120.578 27.7542C120.119 28.637 119.731 29.3698 119.413 29.9525C119.113 30.5352 118.892 30.8265 118.751 30.8265C118.733 30.8265 118.654 30.7912 118.512 30.7206C118.371 30.6323 118.265 30.5705 118.195 30.5352Z" fill="white"/>
<path d="M127.469 30.2174C127.045 29.8642 126.807 29.3433 126.754 28.6547C126.719 27.9661 126.816 27.1891 127.045 26.3239C127.292 25.4587 127.646 24.5582 128.105 23.6224C128.581 22.6689 129.129 21.7683 129.747 20.9208C130.365 20.0556 131.036 19.2875 131.76 18.6165C132.484 17.9279 133.208 17.4246 133.932 17.1068C134.655 16.7713 135.362 16.6566 136.05 16.7625C136.739 16.8508 137.366 17.2481 137.931 17.9544C138.284 18.3958 138.496 18.8461 138.567 19.3051C138.637 19.7466 138.628 20.2057 138.54 20.6824C138.452 21.1415 138.311 21.6183 138.116 22.1127C137.922 22.5894 137.728 23.075 137.534 23.5694C137.357 24.0638 137.207 24.567 137.083 25.0791C136.977 25.5912 136.96 26.112 137.03 26.6418C137.119 27.3127 137.419 27.71 137.931 27.8336C138.443 27.9572 139.052 27.9219 139.758 27.7277C140.482 27.5335 141.242 27.2245 142.036 26.8007C142.831 26.3769 143.564 25.9531 144.235 25.5294C144.923 25.1056 145.488 24.7348 145.93 24.4169C146.389 24.0991 146.618 23.9402 146.618 23.9402C147.113 23.8342 147.386 23.8696 147.439 24.0461C147.51 24.2051 147.413 24.4523 147.148 24.7877C146.901 25.1056 146.521 25.4764 146.009 25.9002C145.497 26.3063 144.914 26.7036 144.261 27.092C143.608 27.4805 142.91 27.8336 142.169 28.1515C141.427 28.4693 140.703 28.69 139.997 28.8136C139.291 28.9196 138.62 28.9107 137.984 28.7871C137.366 28.6459 136.854 28.328 136.448 27.8336C136.253 27.6217 136.103 27.4099 135.997 27.198C135.909 26.9861 135.759 26.8007 135.547 26.6418C135.282 26.889 134.964 27.2156 134.594 27.6217C134.223 28.0102 133.817 28.4075 133.375 28.8136C132.952 29.2021 132.492 29.5729 131.998 29.926C131.521 30.2792 131.027 30.544 130.515 30.7206C130.003 30.8972 129.482 30.959 128.952 30.906C128.44 30.853 127.946 30.6235 127.469 30.2174ZM127.76 29.3168C127.919 29.8819 128.272 30.1467 128.82 30.1114C129.367 30.0585 130.003 29.7848 130.727 29.2904C131.451 28.796 132.201 28.125 132.978 27.2774C133.755 26.4122 134.452 25.4587 135.07 24.4169C135.688 23.3575 136.156 22.2451 136.474 21.0797C136.81 19.9143 136.898 18.7666 136.739 17.6365C136.315 17.301 135.786 17.2922 135.15 17.61C134.514 17.9102 133.834 18.4135 133.11 19.1197C132.404 19.8084 131.698 20.6383 130.992 21.6094C130.303 22.5629 129.694 23.5341 129.164 24.5229C128.634 25.494 128.228 26.4122 127.946 27.2774C127.681 28.1426 127.619 28.8224 127.76 29.3168Z" fill="white"/>
<path d="M36.2214 44.539H34.4614V43.3723H39.4214V44.539H37.6614V48.1323H36.2214V44.539Z" fill="white"/>
<path d="M43.4253 46.159C43.4253 46.479 43.5053 46.7145 43.6653 46.8657C43.8297 47.0168 44.0875 47.0923 44.4386 47.0923C44.7942 47.0923 45.0519 47.0168 45.2119 46.8657C45.3764 46.7145 45.4586 46.479 45.4586 46.159V43.3723H46.8986V46.0457C46.8986 46.8279 46.6875 47.3923 46.2653 47.739C45.8431 48.0812 45.2342 48.2523 44.4386 48.2523C43.6475 48.2523 43.0408 48.0812 42.6186 47.739C42.1964 47.3923 41.9853 46.8279 41.9853 46.0457V43.3723H43.4253V46.159Z" fill="white"/>
<path d="M49.924 43.3723H52.1774C53.1374 43.3723 53.8618 43.5745 54.3507 43.979C54.8396 44.379 55.084 44.9701 55.084 45.7523C55.084 46.5079 54.8285 47.0945 54.3174 47.5123C53.8062 47.9257 53.0729 48.1323 52.1174 48.1323H49.924V43.3723ZM52.1507 46.9923C53.1329 46.9923 53.624 46.5768 53.624 45.7457C53.624 44.9234 53.1507 44.5123 52.204 44.5123H51.344V46.9923H52.1507Z" fill="white"/>
<path d="M60.5792 48.2523C59.9925 48.2523 59.4881 48.1523 59.0659 47.9523C58.6436 47.7523 58.317 47.4657 58.0859 47.0923C57.8592 46.719 57.7459 46.2723 57.7459 45.7523C57.7459 45.2323 57.8614 44.7857 58.0925 44.4123C58.3236 44.039 58.6525 43.7523 59.0792 43.5523C59.5059 43.3523 60.0147 43.2523 60.6059 43.2523C61.1925 43.2523 61.697 43.3523 62.1192 43.5523C62.5414 43.7523 62.8659 44.039 63.0925 44.4123C63.3236 44.7857 63.4392 45.2323 63.4392 45.7523C63.4392 46.2723 63.3236 46.719 63.0925 47.0923C62.8614 47.4657 62.5325 47.7523 62.1059 47.9523C61.6792 48.1523 61.1703 48.2523 60.5792 48.2523ZM61.9459 45.7523C61.9459 45.3257 61.8259 44.9968 61.5859 44.7657C61.3503 44.5301 61.0192 44.4123 60.5925 44.4123C60.1659 44.4123 59.8325 44.5301 59.5925 44.7657C59.357 45.0012 59.2392 45.3301 59.2392 45.7523C59.2392 46.179 59.357 46.5101 59.5925 46.7457C59.8325 46.9768 60.1659 47.0923 60.5925 47.0923C61.0192 47.0923 61.3503 46.9745 61.5859 46.739C61.8259 46.5034 61.9459 46.1745 61.9459 45.7523Z" fill="white"/>
<path d="M70.1167 43.3723H72.3701C73.3301 43.3723 74.0545 43.5745 74.5434 43.979C75.0323 44.379 75.2767 44.9701 75.2767 45.7523C75.2767 46.5079 75.0212 47.0945 74.5101 47.5123C73.999 47.9257 73.2656 48.1323 72.3101 48.1323H70.1167V43.3723ZM72.3434 46.9923C73.3256 46.9923 73.8167 46.5768 73.8167 45.7457C73.8167 44.9234 73.3434 44.5123 72.3967 44.5123H71.5367V46.9923H72.3434Z" fill="white"/>
<path d="M78.1519 43.3723H82.3186V44.419H79.5586V45.1923H82.1852V46.239H79.5586V47.0857H82.4786L82.3452 48.1323H78.1519V43.3723Z" fill="white"/>
<path d="M90.405 44.539H88.645V43.3723H93.605V44.539H91.845V48.1323H90.405V44.539Z" fill="white"/>
<path d="M96.2222 43.3723H100.389V44.419H97.6289V45.1923H100.256V46.239H97.6289V47.0857H100.549L100.416 48.1323H96.2222V43.3723Z" fill="white"/>
<path d="M108.605 48.1323H106.919L105.705 46.539L104.492 48.1323H102.892L104.825 45.659L103.039 43.3723H104.725L105.725 44.759L106.779 43.3723H108.379L106.612 45.6123L108.605 48.1323Z" fill="white"/>
<path d="M112.512 44.539H110.752V43.3723H115.712V44.539H113.952V48.1323H112.512V44.539Z" fill="white"/>
<path d="M120.734 48.2523C120.147 48.2523 119.643 48.1523 119.221 47.9523C118.799 47.7523 118.472 47.4657 118.241 47.0923C118.014 46.719 117.901 46.2723 117.901 45.7523C117.901 45.2323 118.016 44.7857 118.247 44.4123C118.479 44.039 118.807 43.7523 119.234 43.5523C119.661 43.3523 120.17 43.2523 120.761 43.2523C121.347 43.2523 121.852 43.3523 122.274 43.5523C122.696 43.7523 123.021 44.039 123.247 44.4123C123.479 44.7857 123.594 45.2323 123.594 45.7523C123.594 46.2723 123.479 46.719 123.247 47.0923C123.016 47.4657 122.687 47.7523 122.261 47.9523C121.834 48.1523 121.325 48.2523 120.734 48.2523ZM122.101 45.7523C122.101 45.3257 121.981 44.9968 121.741 44.7657C121.505 44.5301 121.174 44.4123 120.747 44.4123C120.321 44.4123 119.987 44.5301 119.747 44.7657C119.512 45.0012 119.394 45.3301 119.394 45.7523C119.394 46.179 119.512 46.5101 119.747 46.7457C119.987 46.9768 120.321 47.0923 120.747 47.0923C121.174 47.0923 121.505 46.9745 121.741 46.739C121.981 46.5034 122.101 46.1745 122.101 45.7523Z" fill="white"/>
</svg>
