<svg width="158" height="41" viewBox="0 0 158 41" fill="none" xmlns="http://www.w3.org/2000/svg">
<path d="M12.9351 30.0999C11.8514 29.6735 11.1053 29.0961 10.6967 28.3678C10.2881 27.6394 10.1193 26.831 10.1904 25.9428C10.2792 25.0367 10.5634 24.0774 11.0431 23.0647C11.5405 22.0343 12.1446 21.0039 12.8552 19.9735C13.5836 18.9431 14.383 17.9394 15.2535 16.9623C16.124 15.9852 16.9857 15.088 17.8384 14.2708C18.6912 13.4536 19.4906 12.7429 20.2368 12.1389C20.9829 11.5349 21.587 11.0908 22.0489 10.8065C22.6884 10.4157 23.2214 10.2291 23.6478 10.2469C24.0741 10.2469 24.4117 10.3801 24.6604 10.6466C24.9269 10.8953 25.1045 11.2506 25.1934 11.7125C25.3 12.1567 25.3444 12.6364 25.3266 13.1516C25.3266 13.649 25.2733 14.1553 25.1667 14.6705C25.0779 15.1679 24.9535 15.6032 24.7936 15.9763C24.6515 16.3494 24.4916 16.6247 24.314 16.8024C24.1541 16.98 23.9942 16.9889 23.8343 16.829C23.8165 16.6869 23.8343 16.4737 23.8876 16.1895C23.9409 15.8875 24.0031 15.5499 24.0741 15.1768C24.163 14.8038 24.2429 14.4218 24.314 14.031C24.385 13.6401 24.4294 13.2848 24.4472 12.965C24.4827 12.6275 24.4739 12.3432 24.4206 12.1123C24.385 11.8813 24.2873 11.7481 24.1274 11.7125C23.5056 11.5527 22.7595 11.7037 21.889 12.1656C21.0362 12.6097 20.1391 13.2581 19.1975 14.1109C18.2737 14.9459 17.3499 15.923 16.4261 17.0422C15.52 18.1437 14.6939 19.2807 13.9478 20.4532C13.2016 21.6257 12.5887 22.7716 12.109 23.8908C11.6294 24.9923 11.354 25.9694 11.2829 26.8222C11.2296 27.6571 11.4162 28.3056 11.8425 28.7675C12.2867 29.2116 13.0595 29.3537 14.161 29.1939C15.1736 29.0517 16.1063 28.6964 16.959 28.1279C17.8295 27.5417 18.6645 26.9021 19.464 26.2092C20.2812 25.4986 21.0895 24.8058 21.889 24.1307C22.6884 23.4378 23.5234 22.9137 24.3939 22.5584C24.7137 22.4341 24.9624 22.4785 25.1401 22.6917C25.3355 22.9048 25.3888 23.1624 25.3 23.4645C25.1934 23.7665 24.8736 24.1662 24.3406 24.6636C23.8254 25.1611 23.177 25.6852 22.3953 26.2359C21.6314 26.7689 20.7875 27.3107 19.8637 27.8614C18.9399 28.3944 18.0338 28.8563 17.1456 29.2472C16.2751 29.638 15.4578 29.9222 14.6939 30.0999C13.9478 30.2776 13.3615 30.2776 12.9351 30.0999Z" fill="#010101"/>
<path d="M25.9512 30.0999C25.9157 30.0821 25.9157 29.8778 25.9512 29.487C26.0045 29.0784 26.0756 28.5721 26.1644 27.968C26.2533 27.364 26.3687 26.6978 26.5109 25.9694C26.653 25.241 26.804 24.5482 26.9639 23.8908C27.1238 23.2157 27.2925 22.6295 27.4702 22.132C27.6656 21.6168 27.8522 21.2615 28.0298 21.0661C28.1542 20.9418 28.2785 20.9418 28.4029 21.0661C28.5272 21.1727 28.6516 21.3148 28.776 21.4925C28.9003 21.6524 29.0247 21.8034 29.149 21.9455C29.2734 22.0699 29.4066 22.0787 29.5488 21.9722C30.0462 21.2793 30.5881 20.622 31.1743 20.0002C31.7783 19.3606 32.4446 18.8099 33.1729 18.348C33.244 18.2947 33.4394 18.2147 33.7592 18.1081C34.079 17.9838 34.4432 17.8683 34.8518 17.7617C35.2604 17.6374 35.6779 17.5396 36.1043 17.4686C36.5484 17.3798 36.9215 17.3442 37.2235 17.362C37.5433 17.362 37.7565 17.4419 37.863 17.6018C37.9874 17.744 37.9341 17.9927 37.7032 18.348C36.6372 18.3657 35.6424 18.6766 34.7185 19.2807C33.7947 19.8847 32.942 20.6309 32.1603 21.5191C31.3786 22.4074 30.668 23.3756 30.0284 24.4238C29.3889 25.4542 28.8293 26.4135 28.3496 27.3018C27.8877 28.1901 27.4968 28.9274 27.1771 29.5136C26.8751 30.0999 26.653 30.393 26.5109 30.393C26.4931 30.393 26.4131 30.3575 26.271 30.2864C26.1289 30.1976 26.0223 30.1354 25.9512 30.0999Z" fill="#010101"/>
<path d="M36.6489 30.0999C37.3773 27.7548 38.0347 25.8983 38.6209 24.5304C39.225 23.1447 39.7224 22.1765 40.1132 21.6257C40.5218 21.075 40.7972 20.8973 40.9393 21.0928C41.0815 21.2882 41.0637 21.7856 40.886 22.5851C40.7261 23.3845 40.3708 24.4593 39.8201 25.8095C39.2871 27.1419 38.5321 28.6698 37.555 30.393C37.4129 30.4463 37.2441 30.4552 37.0487 30.4197C36.8533 30.3841 36.72 30.2776 36.6489 30.0999ZM41.3124 17.282C41.2769 17.1932 41.2591 17.0333 41.2591 16.8024C41.2591 16.5714 41.2769 16.4293 41.3124 16.376C41.721 16.2339 42.0319 16.2161 42.2451 16.3227C42.4583 16.4293 42.5915 16.5892 42.6448 16.8024C42.6981 16.9978 42.6892 17.211 42.6182 17.4419C42.5649 17.6729 42.4672 17.8505 42.325 17.9749C42.1829 18.0815 42.0141 18.0993 41.8187 18.0282C41.6411 17.9394 41.4723 17.6907 41.3124 17.282Z" fill="#010101"/>
<path d="M42.1236 30.0999C41.9104 29.9578 41.9015 29.7712 42.0969 29.5403C42.3101 29.2916 42.6388 29.034 43.0829 28.7675C43.5448 28.4832 44.0778 28.1901 44.6818 27.8881C45.2859 27.5861 45.8632 27.3018 46.414 27.0353C46.9825 26.7689 47.4799 26.5379 47.9063 26.3425C48.3326 26.1293 48.608 25.9694 48.7324 25.8628C49.3186 25.3654 49.6207 24.9568 49.6384 24.637C49.6739 24.2994 49.5318 24.033 49.212 23.8375C48.8923 23.6244 48.4392 23.4645 47.853 23.3579C47.2845 23.2335 46.6893 23.1269 46.0675 23.0381C45.4635 22.9315 44.8772 22.8249 44.3088 22.7183C43.758 22.6117 43.3405 22.4696 43.0563 22.2919C42.772 22.1143 42.6743 21.8833 42.7631 21.5991C42.8697 21.2971 43.2606 20.9151 43.9357 20.4532C44.1844 20.2755 44.5486 20.0179 45.0283 19.6804C45.5079 19.3429 46.0231 18.9964 46.5739 18.6411C47.1424 18.2858 47.702 17.966 48.2527 17.6818C48.8034 17.3975 49.2653 17.211 49.6384 17.1222C49.8338 17.0866 50.0293 17.1044 50.2247 17.1755C50.4379 17.2465 50.6066 17.3531 50.731 17.4952C50.8554 17.6196 50.9086 17.7617 50.8909 17.9216C50.8909 18.0815 50.7754 18.2236 50.5445 18.348C49.5318 18.9165 48.5547 19.4494 47.6131 19.9469C46.6893 20.4443 45.7566 21.0128 44.8151 21.6524C44.7618 21.7945 44.7707 21.9189 44.8417 22.0255C44.9305 22.132 45.0283 22.212 45.1348 22.2653C47.018 22.4607 48.4304 22.7361 49.3719 23.0914C50.3313 23.4467 50.9353 23.8375 51.184 24.2639C51.4505 24.6903 51.4239 25.1433 51.1041 25.623C50.7843 26.1026 50.3046 26.5734 49.6651 27.0353C49.0433 27.4972 48.3238 27.9325 47.5065 28.3411C46.6893 28.7497 45.8988 29.0961 45.1348 29.3804C44.3887 29.6646 43.7314 29.8778 43.1629 30.02C42.5944 30.1621 42.2479 30.1887 42.1236 30.0999Z" fill="#010101"/>
<path d="M65.2778 30.0999C64.3895 29.7268 63.8032 29.2116 63.519 28.5543C63.2347 27.8792 63.137 27.1597 63.2259 26.3958C63.3147 25.6141 63.5279 24.8324 63.8654 24.0507C64.2207 23.269 64.5849 22.5762 64.958 21.9722C65.0824 21.759 65.3133 21.3948 65.6509 20.8796C65.9884 20.3644 66.3437 19.8225 66.7168 19.254C67.1076 18.6678 67.4718 18.1259 67.8094 17.6285C68.1647 17.1133 68.4134 16.758 68.5555 16.5625C68.7687 15.1946 69.1951 14.1109 69.8346 13.3114C70.4742 12.4942 71.1937 11.9346 71.9932 11.6326C72.8104 11.3306 73.6454 11.2684 74.4981 11.4461C75.3509 11.606 76.097 11.9879 76.7366 12.5919C77.3761 13.1782 77.838 13.9688 78.1223 14.9636C78.4065 15.9585 78.3799 17.1222 78.0423 18.4546C77.7226 19.787 77.0297 21.2793 75.9638 22.9315C74.8978 24.5837 73.3345 26.3691 71.2737 28.2878C70.9184 28.6254 70.492 28.954 69.9945 29.2738C69.5149 29.5758 68.9997 29.8245 68.4489 30.02C67.916 30.2154 67.3741 30.3309 66.8234 30.3664C66.2727 30.4019 65.7575 30.3131 65.2778 30.0999ZM64.3451 27.9947C64.5227 28.7941 64.8603 29.2916 65.3577 29.487C65.8552 29.6824 66.4414 29.6469 67.1165 29.3804C67.7916 29.1139 68.5289 28.6609 69.3283 28.0213C70.1278 27.3818 70.9272 26.6356 71.7267 25.7829C72.5261 24.9124 73.2901 23.9708 74.0184 22.9581C74.7468 21.9455 75.3775 20.9418 75.9105 19.9469C76.4612 18.952 76.8787 18.0016 77.1629 17.0955C77.4472 16.1895 77.536 15.4078 77.4294 14.7505C77.3406 14.0754 77.0208 13.569 76.4701 13.2315C75.9371 12.894 75.111 12.7962 73.9918 12.9384C73.5832 13.2937 73.0413 13.8178 72.3662 14.5106C71.6912 15.1857 70.9716 15.9585 70.2077 16.829C69.4438 17.6995 68.6799 18.6411 67.916 19.6537C67.1521 20.6486 66.477 21.6435 65.8907 22.6384C65.3044 23.6332 64.8603 24.5926 64.5583 25.5164C64.2563 26.4402 64.1852 27.2663 64.3451 27.9947Z" fill="#010101"/>
<path d="M78.2555 30.0999C77.7403 29.7268 77.4028 29.256 77.2429 28.6875C77.1008 28.119 77.083 27.5061 77.1896 26.8488C77.2962 26.1737 77.4827 25.4809 77.7492 24.7702C78.0335 24.0596 78.3355 23.3756 78.6553 22.7183C78.9928 22.061 79.3126 21.457 79.6146 20.9062C79.9344 20.3555 80.1831 19.9025 80.3607 19.5472C80.414 19.4406 80.5384 19.183 80.7338 18.7744C80.947 18.3657 81.1691 17.9216 81.4 17.4419C81.631 16.9623 81.8442 16.5181 82.0396 16.1095C82.2528 15.6831 82.386 15.4167 82.4393 15.3101C82.4926 15.2212 82.5637 15.0525 82.6525 14.8038C82.7591 14.5373 82.8746 14.253 82.9989 13.951C83.1233 13.649 83.2565 13.3647 83.3987 13.0983C83.5585 12.814 83.7184 12.6097 83.8783 12.4853C84.056 12.361 84.2247 12.3432 84.3846 12.432C84.5623 12.5209 84.7311 12.7874 84.891 13.2315C84.8199 13.4092 84.6422 13.7645 84.358 14.2974C84.0915 14.8304 83.7717 15.47 83.3987 16.2161C83.0256 16.9623 82.6081 17.7884 82.1462 18.6944C81.702 19.6005 81.2668 20.5154 80.8404 21.4392C80.414 22.363 80.0143 23.269 79.6412 24.1573C79.2682 25.0278 78.9573 25.8273 78.7085 26.5557C78.4776 27.2663 78.3355 27.8614 78.2822 28.3411C78.2466 28.803 78.3355 29.0873 78.5487 29.1939C78.7974 29.3182 79.1171 29.3715 79.508 29.3537C79.9166 29.3182 80.3341 29.2649 80.7605 29.1939C81.1868 29.1228 81.6043 29.0517 82.0129 28.9807C82.4215 28.8918 82.7769 28.8563 83.0789 28.8741C83.1499 29.034 83.0966 29.1939 82.919 29.3537C82.7413 29.4959 82.4926 29.6291 82.1728 29.7535C81.8531 29.8601 81.48 29.9578 81.0536 30.0466C80.645 30.1177 80.2453 30.171 79.8544 30.2065C79.4813 30.242 79.1438 30.2509 78.8418 30.2331C78.5575 30.2154 78.3621 30.171 78.2555 30.0999Z" fill="#010101"/>
<path d="M83.9966 30.0999C84.725 27.7548 85.3824 25.8983 85.9686 24.5304C86.5726 23.1447 87.0701 22.1765 87.4609 21.6257C87.8695 21.075 88.1449 20.8973 88.287 21.0928C88.4292 21.2882 88.4114 21.7856 88.2337 22.5851C88.0738 23.3845 87.7185 24.4593 87.1678 25.8095C86.6348 27.1419 85.8798 28.6698 84.9027 30.393C84.7606 30.4463 84.5918 30.4552 84.3964 30.4197C84.201 30.3841 84.0677 30.2776 83.9966 30.0999ZM88.6601 17.282C88.6246 17.1932 88.6068 17.0333 88.6068 16.8024C88.6068 16.5714 88.6246 16.4293 88.6601 16.376C89.0687 16.2339 89.3796 16.2161 89.5928 16.3227C89.806 16.4293 89.9392 16.5892 89.9925 16.8024C90.0458 16.9978 90.0369 17.211 89.9659 17.4419C89.9126 17.6729 89.8149 17.8505 89.6727 17.9749C89.5306 18.0815 89.3618 18.0993 89.1664 18.0282C88.9888 17.9394 88.82 17.6907 88.6601 17.282Z" fill="#010101"/>
<path d="M90.2174 29.7801C89.8444 29.5669 89.5779 29.2294 89.418 28.7675C89.2581 28.3056 89.1693 27.7815 89.1515 27.1952C89.1337 26.609 89.1693 25.9961 89.2581 25.3565C89.3469 24.7169 89.4535 24.0951 89.5779 23.4911C89.7022 22.8871 89.8266 22.3452 89.951 21.8656C90.0753 21.3859 90.1641 21.0128 90.2174 20.7463C90.3063 20.693 90.3951 20.693 90.4839 20.7463C90.5905 20.7996 90.6882 20.8796 90.7771 20.9862C90.8837 21.075 90.9636 21.1638 91.0169 21.2526C91.088 21.3237 91.1235 21.3592 91.1235 21.3592C91.1768 21.981 91.1768 22.5939 91.1235 23.198C91.088 23.7842 91.0347 24.3705 90.9636 24.9568C90.9103 25.543 90.857 26.1382 90.8037 26.7422C90.7682 27.3462 90.7682 27.9591 90.8037 28.5809C90.9458 28.8474 91.239 28.8563 91.6831 28.6076C92.1272 28.3411 92.6691 27.9236 93.3086 27.3551C93.9482 26.7689 94.6411 26.0849 95.3872 25.3032C96.1511 24.5037 96.8973 23.7132 97.6257 22.9315C98.3718 22.1498 99.0736 21.4214 99.7309 20.7463C100.388 20.0535 100.939 19.5294 101.383 19.1741C101.845 18.801 102.165 18.65 102.342 18.7211C102.52 18.7744 102.493 19.1474 102.262 19.8403C101.836 20.2134 101.33 20.773 100.744 21.5191C100.157 22.2653 99.5177 23.0736 98.8249 23.9441C98.132 24.7969 97.4125 25.6496 96.6663 26.5024C95.9202 27.3551 95.1651 28.0924 94.4012 28.7142C93.6551 29.3182 92.9267 29.7446 92.2161 29.9933C91.5054 30.2243 90.8392 30.1532 90.2174 29.7801Z" fill="#010101"/>
<path d="M103.34 30.0999C102.807 29.9222 102.399 29.6558 102.114 29.3004C101.848 28.9274 101.67 28.5188 101.581 28.0746C101.493 27.6305 101.475 27.1686 101.528 26.6889C101.599 26.1915 101.706 25.7207 101.848 25.2765C102.381 24.708 102.976 24.0596 103.633 23.3312C104.308 22.5851 105.019 21.8567 105.765 21.1461C106.511 20.4354 107.284 19.7781 108.084 19.1741C108.901 18.5523 109.727 18.0815 110.562 17.7617C110.846 17.6374 111.068 17.6462 111.228 17.7884C111.406 17.9127 111.53 18.117 111.601 18.4013C111.672 18.6855 111.699 19.0142 111.681 19.3873C111.681 19.7603 111.654 20.1245 111.601 20.4798C111.548 20.8352 111.477 21.1549 111.388 21.4392C111.299 21.7234 111.21 21.9189 111.121 22.0255C110.908 22.2742 110.491 22.5673 109.869 22.9048C109.265 23.2424 108.59 23.6155 107.844 24.0241C107.098 24.4149 106.351 24.8235 105.605 25.2499C104.859 25.6763 104.246 26.1026 103.767 26.529C103.287 26.9376 103.003 27.3462 102.914 27.7548C102.825 28.1635 103.074 28.5365 103.66 28.8741C104.264 28.9451 104.992 28.9185 105.845 28.7941C106.716 28.652 107.595 28.4743 108.483 28.2612C109.389 28.0302 110.26 27.7993 111.095 27.5683C111.93 27.3196 112.614 27.1242 113.147 26.982L113.467 27.2752C113.076 27.7904 112.436 28.2612 111.548 28.6875C110.66 29.1139 109.7 29.4692 108.67 29.7535C107.639 30.02 106.636 30.1976 105.659 30.2864C104.681 30.3575 103.909 30.2953 103.34 30.0999ZM109.709 19.9202C109.691 19.9025 109.558 19.9824 109.309 20.1601C109.061 20.32 108.75 20.542 108.377 20.8263C108.021 21.0928 107.631 21.3948 107.204 21.7323C106.796 22.0521 106.414 22.3541 106.058 22.6384C105.721 22.9226 105.436 23.1713 105.206 23.3845C104.975 23.5799 104.877 23.6776 104.912 23.6776C105.197 23.7309 105.561 23.6954 106.005 23.5711C106.467 23.4289 106.938 23.2335 107.417 22.9848C107.915 22.7361 108.386 22.4607 108.83 22.1587C109.274 21.8389 109.62 21.528 109.869 21.226C110.135 20.924 110.269 20.6575 110.269 20.4265C110.286 20.1956 110.1 20.0268 109.709 19.9202Z" fill="#010101"/>
<path d="M112.96 30.0999C113.689 27.7548 114.346 25.8983 114.932 24.5304C115.536 23.1447 116.034 22.1765 116.424 21.6257C116.833 21.075 117.108 20.8973 117.251 21.0928C117.393 21.2882 117.375 21.7856 117.197 22.5851C117.037 23.3845 116.682 24.4593 116.131 25.8095C115.598 27.1419 114.843 28.6698 113.866 30.393C113.724 30.4463 113.555 30.4552 113.36 30.4197C113.164 30.3841 113.031 30.2776 112.96 30.0999ZM117.624 17.282C117.588 17.1932 117.57 17.0333 117.57 16.8024C117.57 16.5714 117.588 16.4293 117.624 16.376C118.032 16.2339 118.343 16.2161 118.556 16.3227C118.77 16.4293 118.903 16.5892 118.956 16.8024C119.009 16.9978 119 17.211 118.929 17.4419C118.876 17.6729 118.778 17.8505 118.636 17.9749C118.494 18.0815 118.325 18.0993 118.13 18.0282C117.952 17.9394 117.784 17.6907 117.624 17.282Z" fill="#010101"/>
<path d="M118.435 30.0999C118.399 30.0821 118.399 29.8778 118.435 29.487C118.488 29.0784 118.559 28.5721 118.648 27.968C118.737 27.364 118.852 26.6978 118.994 25.9694C119.137 25.241 119.288 24.5482 119.447 23.8908C119.607 23.2157 119.776 22.6295 119.954 22.132C120.149 21.6168 120.336 21.2615 120.513 21.0661C120.638 20.9418 120.762 20.9418 120.886 21.0661C121.011 21.1727 121.135 21.3148 121.26 21.4925C121.384 21.6524 121.508 21.8034 121.633 21.9455C121.757 22.0699 121.89 22.0787 122.032 21.9722C122.53 21.2793 123.072 20.622 123.658 20.0002C124.262 19.3606 124.928 18.8099 125.657 18.348C125.728 18.2947 125.923 18.2147 126.243 18.1081C126.563 17.9838 126.927 17.8683 127.335 17.7617C127.744 17.6374 128.161 17.5396 128.588 17.4686C129.032 17.3798 129.405 17.3442 129.707 17.362C130.027 17.362 130.24 17.4419 130.347 17.6018C130.471 17.744 130.418 17.9927 130.187 18.348C129.121 18.3657 128.126 18.6766 127.202 19.2807C126.278 19.8847 125.426 20.6309 124.644 21.5191C123.862 22.4074 123.152 23.3756 122.512 24.4238C121.872 25.4542 121.313 26.4135 120.833 27.3018C120.371 28.1901 119.98 28.9274 119.661 29.5136C119.359 30.0999 119.137 30.393 118.994 30.393C118.977 30.393 118.897 30.3575 118.755 30.2864C118.612 30.1976 118.506 30.1354 118.435 30.0999Z" fill="#010101"/>
<path d="M127.766 29.7801C127.34 29.4248 127.1 28.9007 127.047 28.2079C127.011 27.515 127.109 26.7333 127.34 25.8628C127.588 24.9923 127.944 24.0863 128.406 23.1447C128.885 22.1853 129.436 21.2793 130.058 20.4265C130.68 19.556 131.355 18.7832 132.083 18.1081C132.811 17.4153 133.54 16.909 134.268 16.5892C134.997 16.2516 135.707 16.1362 136.4 16.2428C137.093 16.3316 137.724 16.7313 138.292 17.4419C138.647 17.8861 138.861 18.3391 138.932 18.801C139.003 19.2451 138.994 19.707 138.905 20.1867C138.816 20.6486 138.674 21.1283 138.479 21.6257C138.283 22.1054 138.088 22.5939 137.892 23.0914C137.715 23.5888 137.564 24.0951 137.439 24.6103C137.333 25.1255 137.315 25.6496 137.386 26.1826C137.475 26.8577 137.777 27.2574 138.292 27.3818C138.807 27.5061 139.42 27.4706 140.131 27.2752C140.859 27.0798 141.623 26.7689 142.423 26.3425C143.222 25.9161 143.959 25.4897 144.634 25.0634C145.327 24.637 145.896 24.2639 146.34 23.9441C146.802 23.6244 147.033 23.4645 147.033 23.4645C147.53 23.3579 147.806 23.3934 147.859 23.5711C147.93 23.7309 147.832 23.9797 147.566 24.3172C147.317 24.637 146.935 25.0101 146.42 25.4364C145.905 25.845 145.318 26.2448 144.661 26.6356C144.004 27.0265 143.302 27.3818 142.556 27.7015C141.81 28.0213 141.081 28.2434 140.371 28.3678C139.66 28.4743 138.985 28.4655 138.345 28.3411C137.724 28.199 137.208 27.8792 136.8 27.3818C136.604 27.1686 136.453 26.9554 136.347 26.7422C136.258 26.529 136.107 26.3425 135.894 26.1826C135.627 26.4313 135.307 26.76 134.934 27.1686C134.561 27.5594 134.153 27.9591 133.709 28.3678C133.282 28.7586 132.82 29.1317 132.323 29.487C131.843 29.8423 131.346 30.1088 130.831 30.2864C130.315 30.4641 129.791 30.5263 129.258 30.473C128.743 30.4197 128.246 30.1887 127.766 29.7801ZM128.059 28.8741C128.219 29.4426 128.574 29.7091 129.125 29.6735C129.676 29.6202 130.315 29.3449 131.044 28.8474C131.772 28.35 132.527 27.6749 133.309 26.8222C134.091 25.9516 134.792 24.9923 135.414 23.9441C136.036 22.8782 136.507 21.759 136.826 20.5864C137.164 19.4139 137.253 18.2592 137.093 17.1222C136.667 16.7846 136.134 16.7757 135.494 17.0955C134.854 17.3975 134.17 17.9038 133.442 18.6145C132.731 19.3073 132.021 20.1423 131.31 21.1194C130.617 22.0787 130.004 23.0559 129.471 24.0507C128.939 25.0278 128.53 25.9516 128.246 26.8222C127.979 27.6927 127.917 28.3766 128.059 28.8741Z" fill="#010101"/>
</svg>
