<svg width="158" height="41" viewBox="0 0 158 41" fill="none" xmlns="http://www.w3.org/2000/svg">
<path d="M12.9351 29.8542C11.8514 29.4278 11.1053 28.8504 10.6967 28.122C10.2881 27.3936 10.1193 26.5853 10.1904 25.697C10.2792 24.791 10.5634 23.8316 11.0431 22.819C11.5405 21.7886 12.1446 20.7582 12.8552 19.7278C13.5836 18.6974 14.383 17.6936 15.2535 16.7165C16.124 15.7394 16.9857 14.8423 17.8384 14.0251C18.6912 13.2078 19.4906 12.4972 20.2368 11.8932C20.9829 11.2892 21.587 10.845 22.0489 10.5608C22.6884 10.1699 23.2214 9.98339 23.6478 10.0012C24.0741 10.0012 24.4117 10.1344 24.6604 10.4009C24.9269 10.6496 25.1045 11.0049 25.1934 11.4668C25.3 11.911 25.3444 12.3906 25.3266 12.9058C25.3266 13.4033 25.2733 13.9096 25.1667 14.4248C25.0779 14.9222 24.9535 15.3575 24.7936 15.7306C24.6515 16.1036 24.4916 16.379 24.314 16.5566C24.1541 16.7343 23.9942 16.7432 23.8343 16.5833C23.8165 16.4412 23.8343 16.228 23.8876 15.9437C23.9409 15.6417 24.0031 15.3042 24.0741 14.9311C24.163 14.558 24.2429 14.1761 24.314 13.7852C24.385 13.3944 24.4294 13.0391 24.4472 12.7193C24.4827 12.3817 24.4739 12.0975 24.4206 11.8665C24.385 11.6356 24.2873 11.5023 24.1274 11.4668C23.5056 11.3069 22.7595 11.4579 21.889 11.9198C21.0362 12.364 20.1391 13.0124 19.1975 13.8652C18.2737 14.7001 17.3499 15.6773 16.4261 16.7965C15.52 17.8979 14.6939 19.0349 13.9478 20.2075C13.2016 21.38 12.5887 22.5259 12.109 23.6451C11.6294 24.7466 11.354 25.7237 11.2829 26.5764C11.2296 27.4114 11.4162 28.0598 11.8425 28.5218C12.2867 28.9659 13.0595 29.108 14.161 28.9481C15.1736 28.806 16.1063 28.4507 16.959 27.8822C17.8295 27.2959 18.6645 26.6564 19.464 25.9635C20.2812 25.2529 21.0895 24.56 21.889 23.8849C22.6884 23.1921 23.5234 22.668 24.3939 22.3127C24.7137 22.1883 24.9624 22.2327 25.1401 22.4459C25.3355 22.6591 25.3888 22.9167 25.3 23.2187C25.1934 23.5207 24.8736 23.9205 24.3406 24.4179C23.8254 24.9153 23.177 25.4394 22.3953 25.9902C21.6314 26.5231 20.7875 27.065 19.8637 27.6157C18.9399 28.1487 18.0338 28.6106 17.1456 29.0014C16.2751 29.3923 15.4578 29.6765 14.6939 29.8542C13.9478 30.0318 13.3615 30.0318 12.9351 29.8542Z" fill="white"/>
<path d="M25.9512 29.8542C25.9157 29.8364 25.9157 29.6321 25.9512 29.2413C26.0045 28.8326 26.0756 28.3263 26.1644 27.7223C26.2533 27.1183 26.3687 26.4521 26.5109 25.7237C26.653 24.9953 26.804 24.3024 26.9639 23.6451C27.1238 22.97 27.2925 22.3838 27.4702 21.8863C27.6656 21.3711 27.8522 21.0158 28.0298 20.8204C28.1542 20.696 28.2785 20.696 28.4029 20.8204C28.5272 20.927 28.6516 21.0691 28.776 21.2468C28.9003 21.4066 29.0247 21.5577 29.149 21.6998C29.2734 21.8241 29.4066 21.833 29.5488 21.7264C30.0462 21.0336 30.5881 20.3762 31.1743 19.7544C31.7783 19.1149 32.4446 18.5642 33.1729 18.1023C33.244 18.049 33.4394 17.969 33.7592 17.8624C34.079 17.7381 34.4432 17.6226 34.8518 17.516C35.2604 17.3916 35.6779 17.2939 36.1043 17.2229C36.5484 17.134 36.9215 17.0985 37.2235 17.1163C37.5433 17.1163 37.7565 17.1962 37.863 17.3561C37.9874 17.4982 37.9341 17.7469 37.7032 18.1023C36.6372 18.12 35.6424 18.4309 34.7185 19.0349C33.7947 19.639 32.942 20.3851 32.1603 21.2734C31.3786 22.1617 30.668 23.1299 30.0284 24.1781C29.3889 25.2085 28.8293 26.1678 28.3496 27.0561C27.8877 27.9444 27.4968 28.6816 27.1771 29.2679C26.8751 29.8542 26.653 30.1473 26.5109 30.1473C26.4931 30.1473 26.4131 30.1118 26.271 30.0407C26.1289 29.9519 26.0223 29.8897 25.9512 29.8542Z" fill="white"/>
<path d="M36.6489 29.8542C37.3773 27.5091 38.0347 25.6526 38.6209 24.2847C39.225 22.899 39.7224 21.9307 40.1132 21.38C40.5218 20.8293 40.7972 20.6516 40.9393 20.847C41.0815 21.0425 41.0637 21.5399 40.886 22.3393C40.7261 23.1388 40.3708 24.2136 39.8201 25.5638C39.2871 26.8962 38.5321 28.424 37.555 30.1473C37.4129 30.2006 37.2441 30.2095 37.0487 30.174C36.8533 30.1384 36.72 30.0318 36.6489 29.8542ZM41.3124 17.0363C41.2769 16.9475 41.2591 16.7876 41.2591 16.5566C41.2591 16.3257 41.2769 16.1836 41.3124 16.1303C41.721 15.9882 42.0319 15.9704 42.2451 16.077C42.4583 16.1836 42.5915 16.3435 42.6448 16.5566C42.6981 16.7521 42.6892 16.9653 42.6182 17.1962C42.5649 17.4272 42.4672 17.6048 42.325 17.7292C42.1829 17.8358 42.0141 17.8535 41.8187 17.7825C41.6411 17.6936 41.4723 17.4449 41.3124 17.0363Z" fill="white"/>
<path d="M42.1236 29.8542C41.9104 29.712 41.9015 29.5255 42.0969 29.2946C42.3101 29.0458 42.6388 28.7882 43.0829 28.5218C43.5448 28.2375 44.0778 27.9444 44.6818 27.6424C45.2859 27.3403 45.8632 27.0561 46.414 26.7896C46.9825 26.5231 47.4799 26.2922 47.9063 26.0968C48.3326 25.8836 48.608 25.7237 48.7324 25.6171C49.3186 25.1196 49.6207 24.711 49.6384 24.3913C49.6739 24.0537 49.5318 23.7872 49.212 23.5918C48.8923 23.3786 48.4392 23.2187 47.853 23.1121C47.2845 22.9878 46.6893 22.8812 46.0675 22.7924C45.4635 22.6858 44.8772 22.5792 44.3088 22.4726C43.758 22.366 43.3405 22.2239 43.0563 22.0462C42.772 21.8686 42.6743 21.6376 42.7631 21.3533C42.8697 21.0513 43.2606 20.6694 43.9357 20.2075C44.1844 20.0298 44.5486 19.7722 45.0283 19.4347C45.5079 19.0971 46.0231 18.7507 46.5739 18.3954C47.1424 18.0401 47.702 17.7203 48.2527 17.436C48.8034 17.1518 49.2653 16.9653 49.6384 16.8764C49.8338 16.8409 50.0293 16.8587 50.2247 16.9297C50.4379 17.0008 50.6066 17.1074 50.731 17.2495C50.8554 17.3739 50.9086 17.516 50.8909 17.6759C50.8909 17.8358 50.7754 17.9779 50.5445 18.1023C49.5318 18.6708 48.5547 19.2037 47.6131 19.7012C46.6893 20.1986 45.7566 20.7671 44.8151 21.4066C44.7618 21.5488 44.7707 21.6731 44.8417 21.7797C44.9305 21.8863 45.0283 21.9663 45.1348 22.0196C47.018 22.215 48.4304 22.4903 49.3719 22.8457C50.3313 23.201 50.9353 23.5918 51.184 24.0182C51.4505 24.4446 51.4239 24.8976 51.1041 25.3772C50.7843 25.8569 50.3046 26.3277 49.6651 26.7896C49.0433 27.2515 48.3238 27.6868 47.5065 28.0954C46.6893 28.504 45.8988 28.8504 45.1348 29.1347C44.3887 29.4189 43.7314 29.6321 43.1629 29.7742C42.5944 29.9163 42.2479 29.943 42.1236 29.8542Z" fill="white"/>
<path d="M65.2778 29.8542C64.3895 29.4811 63.8032 28.9659 63.519 28.3086C63.2347 27.6335 63.137 26.914 63.2259 26.15C63.3147 25.3684 63.5279 24.5867 63.8654 23.805C64.2207 23.0233 64.5849 22.3305 64.958 21.7264C65.0824 21.5132 65.3133 21.149 65.6509 20.6338C65.9884 20.1186 66.3437 19.5768 66.7168 19.0083C67.1076 18.422 67.4718 17.8802 67.8094 17.3827C68.1647 16.8675 68.4134 16.5122 68.5555 16.3168C68.7687 14.9489 69.1951 13.8652 69.8346 13.0657C70.4742 12.2485 71.1937 11.6889 71.9932 11.3869C72.8104 11.0849 73.6454 11.0227 74.4981 11.2003C75.3509 11.3602 76.097 11.7422 76.7366 12.3462C77.3761 12.9325 77.838 13.723 78.1223 14.7179C78.4065 15.7128 78.3799 16.8764 78.0423 18.2088C77.7226 19.5413 77.0297 21.0336 75.9638 22.6858C74.8978 24.338 73.3345 26.1234 71.2737 28.0421C70.9184 28.3796 70.492 28.7083 69.9945 29.0281C69.5149 29.3301 68.9997 29.5788 68.4489 29.7742C67.916 29.9696 67.3741 30.0851 66.8234 30.1207C66.2727 30.1562 65.7575 30.0674 65.2778 29.8542ZM64.3451 27.749C64.5227 28.5484 64.8603 29.0458 65.3577 29.2413C65.8552 29.4367 66.4414 29.4011 67.1165 29.1347C67.7916 28.8682 68.5289 28.4152 69.3283 27.7756C70.1278 27.136 70.9272 26.3899 71.7267 25.5371C72.5261 24.6666 73.2901 23.7251 74.0184 22.7124C74.7468 21.6998 75.3775 20.696 75.9105 19.7012C76.4612 18.7063 76.8787 17.7558 77.1629 16.8498C77.4472 15.9437 77.536 15.1621 77.4294 14.5047C77.3406 13.8296 77.0208 13.3233 76.4701 12.9858C75.9371 12.6482 75.111 12.5505 73.9918 12.6926C73.5832 13.048 73.0413 13.572 72.3662 14.2649C71.6912 14.94 70.9716 15.7128 70.2077 16.5833C69.4438 17.4538 68.6799 18.3954 67.916 19.408C67.1521 20.4029 66.477 21.3978 65.8907 22.3926C65.3044 23.3875 64.8603 24.3468 64.5583 25.2707C64.2563 26.1945 64.1852 27.0206 64.3451 27.749Z" fill="white"/>
<path d="M78.2555 29.8542C77.7403 29.4811 77.4028 29.0103 77.2429 28.4418C77.1008 27.8733 77.083 27.2604 77.1896 26.6031C77.2962 25.928 77.4827 25.2351 77.7492 24.5245C78.0335 23.8139 78.3355 23.1299 78.6553 22.4726C78.9928 21.8153 79.3126 21.2112 79.6146 20.6605C79.9344 20.1098 80.1831 19.6567 80.3607 19.3014C80.414 19.1948 80.5384 18.9372 80.7338 18.5286C80.947 18.12 81.1691 17.6759 81.4 17.1962C81.631 16.7165 81.8442 16.2724 82.0396 15.8638C82.2528 15.4374 82.386 15.1709 82.4393 15.0643C82.4926 14.9755 82.5637 14.8067 82.6525 14.558C82.7591 14.2915 82.8746 14.0073 82.9989 13.7053C83.1233 13.4033 83.2565 13.119 83.3987 12.8525C83.5585 12.5683 83.7184 12.364 83.8783 12.2396C84.056 12.1153 84.2247 12.0975 84.3846 12.1863C84.5623 12.2752 84.7311 12.5416 84.891 12.9858C84.8199 13.1634 84.6422 13.5187 84.358 14.0517C84.0915 14.5847 83.7717 15.2242 83.3987 15.9704C83.0256 16.7165 82.6081 17.5426 82.1462 18.4487C81.702 19.3547 81.2668 20.2697 80.8404 21.1935C80.414 22.1173 80.0143 23.0233 79.6412 23.9116C79.2682 24.7821 78.9573 25.5816 78.7085 26.3099C78.4776 27.0206 78.3355 27.6157 78.2822 28.0954C78.2466 28.5573 78.3355 28.8415 78.5487 28.9481C78.7974 29.0725 79.1171 29.1258 79.508 29.108C79.9166 29.0725 80.3341 29.0192 80.7605 28.9481C81.1868 28.8771 81.6043 28.806 82.0129 28.7349C82.4215 28.6461 82.7769 28.6106 83.0789 28.6283C83.1499 28.7882 83.0966 28.9481 82.919 29.108C82.7413 29.2501 82.4926 29.3834 82.1728 29.5077C81.8531 29.6143 81.48 29.712 81.0536 29.8009C80.645 29.8719 80.2453 29.9252 79.8544 29.9608C79.4813 29.9963 79.1438 30.0052 78.8418 29.9874C78.5575 29.9696 78.3621 29.9252 78.2555 29.8542Z" fill="white"/>
<path d="M83.9966 29.8542C84.725 27.5091 85.3824 25.6526 85.9686 24.2847C86.5726 22.899 87.0701 21.9307 87.4609 21.38C87.8695 20.8293 88.1449 20.6516 88.287 20.847C88.4292 21.0425 88.4114 21.5399 88.2337 22.3393C88.0738 23.1388 87.7185 24.2136 87.1678 25.5638C86.6348 26.8962 85.8798 28.424 84.9027 30.1473C84.7606 30.2006 84.5918 30.2095 84.3964 30.174C84.201 30.1384 84.0677 30.0318 83.9966 29.8542ZM88.6601 17.0363C88.6246 16.9475 88.6068 16.7876 88.6068 16.5566C88.6068 16.3257 88.6246 16.1836 88.6601 16.1303C89.0687 15.9882 89.3796 15.9704 89.5928 16.077C89.806 16.1836 89.9392 16.3435 89.9925 16.5566C90.0458 16.7521 90.0369 16.9653 89.9659 17.1962C89.9126 17.4272 89.8149 17.6048 89.6727 17.7292C89.5306 17.8358 89.3618 17.8535 89.1664 17.7825C88.9888 17.6936 88.82 17.4449 88.6601 17.0363Z" fill="white"/>
<path d="M90.2174 29.5344C89.8444 29.3212 89.5779 28.9837 89.418 28.5218C89.2581 28.0598 89.1693 27.5358 89.1515 26.9495C89.1337 26.3632 89.1693 25.7503 89.2581 25.1108C89.3469 24.4712 89.4535 23.8494 89.5779 23.2454C89.7022 22.6414 89.8266 22.0995 89.951 21.6198C90.0753 21.1402 90.1641 20.7671 90.2174 20.5006C90.3063 20.4473 90.3951 20.4473 90.4839 20.5006C90.5905 20.5539 90.6882 20.6338 90.7771 20.7404C90.8837 20.8293 90.9636 20.9181 91.0169 21.0069C91.088 21.078 91.1235 21.1135 91.1235 21.1135C91.1768 21.7353 91.1768 22.3482 91.1235 22.9522C91.088 23.5385 91.0347 24.1248 90.9636 24.711C90.9103 25.2973 90.857 25.8924 90.8037 26.4965C90.7682 27.1005 90.7682 27.7134 90.8037 28.3352C90.9458 28.6017 91.239 28.6106 91.6831 28.3619C92.1272 28.0954 92.6691 27.6779 93.3086 27.1094C93.9482 26.5231 94.6411 25.8392 95.3872 25.0575C96.1511 24.258 96.8973 23.4675 97.6257 22.6858C98.3718 21.9041 99.0736 21.1757 99.7309 20.5006C100.388 19.8077 100.939 19.2837 101.383 18.9284C101.845 18.5553 102.165 18.4043 102.342 18.4753C102.52 18.5286 102.493 18.9017 102.262 19.5946C101.836 19.9676 101.33 20.5273 100.744 21.2734C100.157 22.0196 99.5177 22.8279 98.8249 23.6984C98.132 24.5512 97.4125 25.4039 96.6663 26.2566C95.9202 27.1094 95.1651 27.8467 94.4012 28.4685C93.6551 29.0725 92.9267 29.4989 92.2161 29.7476C91.5054 29.9785 90.8392 29.9075 90.2174 29.5344Z" fill="white"/>
<path d="M103.34 29.8542C102.807 29.6765 102.399 29.41 102.114 29.0547C101.848 28.6816 101.67 28.273 101.581 27.8289C101.493 27.3848 101.475 26.9229 101.528 26.4432C101.599 25.9457 101.706 25.475 101.848 25.0308C102.381 24.4623 102.976 23.8139 103.633 23.0855C104.308 22.3393 105.019 21.611 105.765 20.9003C106.511 20.1897 107.284 19.5324 108.084 18.9284C108.901 18.3066 109.727 17.8358 110.562 17.516C110.846 17.3916 111.068 17.4005 111.228 17.5426C111.406 17.667 111.53 17.8713 111.601 18.1556C111.672 18.4398 111.699 18.7685 111.681 19.1415C111.681 19.5146 111.654 19.8788 111.601 20.2341C111.548 20.5894 111.477 20.9092 111.388 21.1935C111.299 21.4777 111.21 21.6731 111.121 21.7797C110.908 22.0284 110.491 22.3216 109.869 22.6591C109.265 22.9967 108.59 23.3697 107.844 23.7783C107.098 24.1692 106.351 24.5778 105.605 25.0042C104.859 25.4305 104.246 25.8569 103.767 26.2833C103.287 26.6919 103.003 27.1005 102.914 27.5091C102.825 27.9177 103.074 28.2908 103.66 28.6283C104.264 28.6994 104.992 28.6728 105.845 28.5484C106.716 28.4063 107.595 28.2286 108.483 28.0154C109.389 27.7845 110.26 27.5535 111.095 27.3226C111.93 27.0739 112.614 26.8784 113.147 26.7363L113.467 27.0294C113.076 27.5446 112.436 28.0154 111.548 28.4418C110.66 28.8682 109.7 29.2235 108.67 29.5077C107.639 29.7742 106.636 29.9519 105.659 30.0407C104.681 30.1118 103.909 30.0496 103.34 29.8542ZM109.709 19.6745C109.691 19.6567 109.558 19.7367 109.309 19.9143C109.061 20.0742 108.75 20.2963 108.377 20.5805C108.021 20.847 107.631 21.149 107.204 21.4866C106.796 21.8064 106.414 22.1084 106.058 22.3926C105.721 22.6769 105.436 22.9256 105.206 23.1388C104.975 23.3342 104.877 23.4319 104.912 23.4319C105.197 23.4852 105.561 23.4497 106.005 23.3253C106.467 23.1832 106.938 22.9878 107.417 22.7391C107.915 22.4903 108.386 22.215 108.83 21.913C109.274 21.5932 109.62 21.2823 109.869 20.9803C110.135 20.6783 110.269 20.4118 110.269 20.1808C110.286 19.9499 110.1 19.7811 109.709 19.6745Z" fill="white"/>
<path d="M112.96 29.8542C113.689 27.5091 114.346 25.6526 114.932 24.2847C115.536 22.899 116.034 21.9307 116.424 21.38C116.833 20.8293 117.108 20.6516 117.251 20.847C117.393 21.0425 117.375 21.5399 117.197 22.3393C117.037 23.1388 116.682 24.2136 116.131 25.5638C115.598 26.8962 114.843 28.424 113.866 30.1473C113.724 30.2006 113.555 30.2095 113.36 30.174C113.164 30.1384 113.031 30.0318 112.96 29.8542ZM117.624 17.0363C117.588 16.9475 117.57 16.7876 117.57 16.5566C117.57 16.3257 117.588 16.1836 117.624 16.1303C118.032 15.9882 118.343 15.9704 118.556 16.077C118.77 16.1836 118.903 16.3435 118.956 16.5566C119.009 16.7521 119 16.9653 118.929 17.1962C118.876 17.4272 118.778 17.6048 118.636 17.7292C118.494 17.8358 118.325 17.8535 118.13 17.7825C117.952 17.6936 117.784 17.4449 117.624 17.0363Z" fill="white"/>
<path d="M118.435 29.8542C118.399 29.8364 118.399 29.6321 118.435 29.2413C118.488 28.8326 118.559 28.3263 118.648 27.7223C118.737 27.1183 118.852 26.4521 118.994 25.7237C119.137 24.9953 119.288 24.3024 119.447 23.6451C119.607 22.97 119.776 22.3838 119.954 21.8863C120.149 21.3711 120.336 21.0158 120.513 20.8204C120.638 20.696 120.762 20.696 120.886 20.8204C121.011 20.927 121.135 21.0691 121.26 21.2468C121.384 21.4066 121.508 21.5577 121.633 21.6998C121.757 21.8241 121.89 21.833 122.032 21.7264C122.53 21.0336 123.072 20.3762 123.658 19.7544C124.262 19.1149 124.928 18.5642 125.657 18.1023C125.728 18.049 125.923 17.969 126.243 17.8624C126.563 17.7381 126.927 17.6226 127.335 17.516C127.744 17.3916 128.161 17.2939 128.588 17.2229C129.032 17.134 129.405 17.0985 129.707 17.1163C130.027 17.1163 130.24 17.1962 130.347 17.3561C130.471 17.4982 130.418 17.7469 130.187 18.1023C129.121 18.12 128.126 18.4309 127.202 19.0349C126.278 19.639 125.426 20.3851 124.644 21.2734C123.862 22.1617 123.152 23.1299 122.512 24.1781C121.872 25.2085 121.313 26.1678 120.833 27.0561C120.371 27.9444 119.98 28.6816 119.661 29.2679C119.359 29.8542 119.137 30.1473 118.994 30.1473C118.977 30.1473 118.897 30.1118 118.755 30.0407C118.612 29.9519 118.506 29.8897 118.435 29.8542Z" fill="white"/>
<path d="M127.766 29.5344C127.34 29.1791 127.1 28.655 127.047 27.9621C127.011 27.2693 127.109 26.4876 127.34 25.6171C127.588 24.7466 127.944 23.8405 128.406 22.899C128.885 21.9396 129.436 21.0336 130.058 20.1808C130.68 19.3103 131.355 18.5375 132.083 17.8624C132.811 17.1696 133.54 16.6632 134.268 16.3435C134.997 16.0059 135.707 15.8904 136.4 15.997C137.093 16.0859 137.724 16.4856 138.292 17.1962C138.647 17.6403 138.861 18.0934 138.932 18.5553C139.003 18.9994 138.994 19.4613 138.905 19.941C138.816 20.4029 138.674 20.8826 138.479 21.38C138.283 21.8597 138.088 22.3482 137.892 22.8457C137.715 23.3431 137.564 23.8494 137.439 24.3646C137.333 24.8798 137.315 25.4039 137.386 25.9369C137.475 26.612 137.777 27.0117 138.292 27.136C138.807 27.2604 139.42 27.2249 140.131 27.0294C140.859 26.834 141.623 26.5231 142.423 26.0968C143.222 25.6704 143.959 25.244 144.634 24.8176C145.327 24.3913 145.896 24.0182 146.34 23.6984C146.802 23.3786 147.033 23.2187 147.033 23.2187C147.53 23.1121 147.806 23.1477 147.859 23.3253C147.93 23.4852 147.832 23.7339 147.566 24.0715C147.317 24.3913 146.935 24.7643 146.42 25.1907C145.905 25.5993 145.318 25.999 144.661 26.3899C144.004 26.7807 143.302 27.136 142.556 27.4558C141.81 27.7756 141.081 27.9977 140.371 28.122C139.66 28.2286 138.985 28.2197 138.345 28.0954C137.724 27.9533 137.208 27.6335 136.8 27.136C136.604 26.9229 136.453 26.7097 136.347 26.4965C136.258 26.2833 136.107 26.0968 135.894 25.9369C135.627 26.1856 135.307 26.5142 134.934 26.9229C134.561 27.3137 134.153 27.7134 133.709 28.122C133.282 28.5129 132.82 28.8859 132.323 29.2413C131.843 29.5966 131.346 29.8631 130.831 30.0407C130.315 30.2184 129.791 30.2805 129.258 30.2272C128.743 30.174 128.246 29.943 127.766 29.5344ZM128.059 28.6283C128.219 29.1968 128.574 29.4633 129.125 29.4278C129.676 29.3745 130.315 29.0991 131.044 28.6017C131.772 28.1043 132.527 27.4292 133.309 26.5764C134.091 25.7059 134.792 24.7466 135.414 23.6984C136.036 22.6325 136.507 21.5132 136.826 20.3407C137.164 19.1682 137.253 18.0134 137.093 16.8764C136.667 16.5389 136.134 16.53 135.494 16.8498C134.854 17.1518 134.17 17.6581 133.442 18.3687C132.731 19.0616 132.021 19.8966 131.31 20.8737C130.617 21.833 130.004 22.8101 129.471 23.805C128.939 24.7821 128.53 25.7059 128.246 26.5764C127.979 27.4469 127.917 28.1309 128.059 28.6283Z" fill="white"/>
</svg>
