<svg width="158" height="59" viewBox="0 0 158 59" fill="none" xmlns="http://www.w3.org/2000/svg">
<path d="M13.3377 30.4424C12.2606 30.0187 11.519 29.4448 11.1129 28.7208C10.7068 27.9969 10.5391 27.1935 10.6097 26.3106C10.698 25.4101 10.9805 24.4566 11.4572 23.4501C11.9516 22.426 12.552 21.4019 13.2583 20.3778C13.9822 19.3536 14.7768 18.356 15.642 17.3848C16.5072 16.4137 17.3636 15.522 18.2112 14.7098C19.0587 13.8975 19.8533 13.1912 20.5949 12.5909C21.3365 11.9905 21.9369 11.5491 22.3959 11.2666C23.0316 10.8781 23.5613 10.6927 23.9851 10.7104C24.4089 10.7104 24.7444 10.8428 24.9916 11.1077C25.2564 11.3549 25.433 11.708 25.5213 12.1671C25.6272 12.6085 25.6714 13.0853 25.6537 13.5974C25.6537 14.0918 25.6007 14.595 25.4948 15.1071C25.4065 15.6015 25.2829 16.0341 25.124 16.4049C24.9827 16.7757 24.8238 17.0494 24.6473 17.2259C24.4883 17.4025 24.3294 17.4113 24.1705 17.2524C24.1528 17.1112 24.1705 16.8993 24.2235 16.6168C24.2764 16.3166 24.3382 15.9811 24.4089 15.6103C24.4972 15.2395 24.5766 14.8598 24.6473 14.4714C24.7179 14.0829 24.762 13.7298 24.7797 13.4119C24.815 13.0765 24.8062 12.7939 24.7532 12.5644C24.7179 12.3349 24.6208 12.2024 24.4619 12.1671C23.8438 12.0082 23.1022 12.1583 22.237 12.6174C21.3895 13.0588 20.4978 13.7033 19.5619 14.5508C18.6438 15.3807 17.7256 16.3519 16.8074 17.4643C15.9069 18.5591 15.0858 19.6891 14.3442 20.8545C13.6026 22.0199 12.9934 23.1588 12.5167 24.2712C12.0399 25.3659 11.7662 26.3371 11.6956 27.1847C11.6426 28.0145 11.828 28.659 12.2518 29.1181C12.6933 29.5596 13.4613 29.7008 14.5561 29.5419C15.5626 29.4006 16.4896 29.0475 17.3371 28.4825C18.2023 27.8998 19.0322 27.2641 19.8268 26.5755C20.639 25.8692 21.4424 25.1805 22.237 24.5096C23.0316 23.8209 23.8615 23.3 24.7267 22.9469C25.0445 22.8233 25.2917 22.8674 25.4683 23.0793C25.6625 23.2912 25.7155 23.5472 25.6272 23.8474C25.5213 24.1476 25.2035 24.5449 24.6737 25.0393C24.1617 25.5337 23.5172 26.0546 22.7403 26.602C21.981 27.1317 21.1423 27.6702 20.2241 28.2176C19.3059 28.7473 18.4054 29.2064 17.5225 29.5949C16.6573 29.9833 15.8451 30.2659 15.0858 30.4424C14.3442 30.619 13.7615 30.619 13.3377 30.4424Z" fill="#0078A3"/>
<path d="M26.2745 30.4424C26.2392 30.4248 26.2392 30.2217 26.2745 29.8332C26.3275 29.4271 26.3982 28.9239 26.4864 28.3235C26.5747 27.7232 26.6895 27.0611 26.8308 26.3371C26.972 25.6132 27.1221 24.9245 27.281 24.2712C27.4399 23.6002 27.6077 23.0175 27.7842 22.5231C27.9785 22.0111 28.1639 21.6579 28.3405 21.4637C28.4641 21.3401 28.5877 21.3401 28.7113 21.4637C28.8349 21.5696 28.9585 21.7109 29.0821 21.8875C29.2057 22.0464 29.3293 22.1965 29.4529 22.3377C29.5765 22.4613 29.7089 22.4701 29.8502 22.3642C30.3446 21.6756 30.8831 21.0223 31.4658 20.4042C32.0661 19.7686 32.7283 19.2212 33.4522 18.7621C33.5229 18.7091 33.7171 18.6297 34.0349 18.5237C34.3528 18.4001 34.7147 18.2854 35.1209 18.1794C35.527 18.0558 35.9419 17.9587 36.3657 17.8881C36.8071 17.7998 37.1779 17.7645 37.4781 17.7821C37.7959 17.7821 38.0078 17.8616 38.1138 18.0205C38.2374 18.1618 38.1844 18.409 37.9549 18.7621C36.8954 18.7798 35.9066 19.0888 34.9884 19.6891C34.0703 20.2895 33.2227 21.0311 32.4458 21.9139C31.6689 22.7968 30.9626 23.7591 30.3269 24.8009C29.6912 25.825 29.135 26.7785 28.6583 27.6614C28.1992 28.5443 27.8107 29.277 27.4929 29.8597C27.1927 30.4424 26.972 30.7338 26.8308 30.7338C26.8131 30.7338 26.7336 30.6985 26.5924 30.6278C26.4511 30.5395 26.3452 30.4777 26.2745 30.4424Z" fill="#0078A3"/>
<path d="M36.9071 30.4424C37.631 28.1117 38.2843 26.2665 38.867 24.9069C39.4674 23.5296 39.9618 22.5673 40.3503 22.0199C40.7564 21.4725 41.0301 21.2959 41.1713 21.4902C41.3126 21.6844 41.2949 22.1788 41.1183 22.9734C40.9594 23.768 40.6063 24.8362 40.0589 26.1782C39.5292 27.5025 38.7787 29.021 37.8076 30.7338C37.6663 30.7867 37.4986 30.7956 37.3044 30.7603C37.1101 30.7249 36.9777 30.619 36.9071 30.4424ZM41.5421 17.7027C41.5068 17.6144 41.4891 17.4555 41.4891 17.2259C41.4891 16.9964 41.5068 16.8551 41.5421 16.8022C41.9482 16.6609 42.2572 16.6432 42.4691 16.7492C42.681 16.8551 42.8134 17.014 42.8664 17.2259C42.9194 17.4202 42.9106 17.632 42.8399 17.8616C42.787 18.0911 42.6898 18.2677 42.5486 18.3913C42.4073 18.4973 42.2396 18.5149 42.0454 18.4443C41.8688 18.356 41.701 18.1088 41.5421 17.7027Z" fill="#0078A3"/>
<path d="M42.3484 30.4424C42.1365 30.3012 42.1276 30.1158 42.3219 29.8862C42.5338 29.639 42.8604 29.383 43.3018 29.1181C43.7609 28.8356 44.2907 28.5443 44.891 28.2441C45.4914 27.9439 46.0652 27.6614 46.6126 27.3965C47.1776 27.1317 47.672 26.9021 48.0958 26.7079C48.5196 26.496 48.7933 26.3371 48.9169 26.2312C49.4996 25.7368 49.7997 25.3306 49.8174 25.0128C49.8527 24.6773 49.7115 24.4125 49.3936 24.2182C49.0758 24.0063 48.6255 23.8474 48.0428 23.7415C47.4778 23.6179 46.8863 23.5119 46.2683 23.4236C45.6679 23.3177 45.0852 23.2118 44.5202 23.1058C43.9728 22.9999 43.5579 22.8586 43.2754 22.682C42.9928 22.5055 42.8957 22.2759 42.984 21.9934C43.09 21.6932 43.4784 21.3136 44.1494 20.8545C44.3966 20.6779 44.7586 20.4219 45.2353 20.0864C45.7121 19.7509 46.2241 19.4066 46.7715 19.0535C47.3365 18.7003 47.8927 18.3825 48.4401 18.1C48.9875 17.8174 49.4466 17.632 49.8174 17.5438C50.0116 17.5084 50.2059 17.5261 50.4001 17.5967C50.612 17.6674 50.7797 17.7733 50.9033 17.9146C51.0269 18.0382 51.0799 18.1794 51.0622 18.3383C51.0622 18.4973 50.9475 18.6385 50.7179 18.7621C49.7114 19.3271 48.7403 19.8569 47.8045 20.3513C46.8863 20.8457 45.9593 21.4107 45.0234 22.0464C44.9705 22.1876 44.9793 22.3112 45.0499 22.4172C45.1382 22.5231 45.2353 22.6026 45.3413 22.6556C47.2129 22.8498 48.6167 23.1235 49.5525 23.4766C50.506 23.8298 51.1064 24.2182 51.3536 24.642C51.6184 25.0658 51.5919 25.516 51.2741 25.9928C50.9563 26.4695 50.4795 26.9375 49.8439 27.3965C49.2259 27.8556 48.5108 28.2882 47.6985 28.6944C46.8863 29.1005 46.1005 29.4448 45.3413 29.7273C44.5997 30.0098 43.9463 30.2217 43.3813 30.363C42.8163 30.5042 42.472 30.5307 42.3484 30.4424Z" fill="#0078A3"/>
<path d="M65.3615 30.4424C64.4786 30.0716 63.8959 29.5596 63.6134 28.9062C63.3309 28.2353 63.2338 27.5201 63.3221 26.7609C63.4103 25.984 63.6222 25.207 63.9577 24.4301C64.3109 23.6532 64.6728 22.9646 65.0436 22.3642C65.1672 22.1523 65.3968 21.7903 65.7323 21.2783C66.0678 20.7662 66.4209 20.2277 66.7917 19.6626C67.1802 19.0799 67.5422 18.5414 67.8776 18.047C68.2308 17.5349 68.478 17.1818 68.6192 16.9876C68.8311 15.6279 69.2549 14.5508 69.8906 13.7563C70.5262 12.944 71.2414 12.3878 72.0359 12.0877C72.8482 11.7875 73.6781 11.7257 74.5256 11.9022C75.3732 12.0612 76.1148 12.4408 76.7504 13.0411C77.3861 13.6238 77.8452 14.4096 78.1277 15.3984C78.4102 16.3872 78.3837 17.5438 78.0482 18.8681C77.7304 20.1924 77.0418 21.6756 75.9823 23.3177C74.9229 24.9598 73.3691 26.7344 71.3208 28.6414C70.9677 28.9769 70.5439 29.3035 70.0495 29.6214C69.5727 29.9215 69.0607 30.1687 68.5133 30.363C67.9836 30.5572 67.445 30.672 66.8977 30.7073C66.3503 30.7426 65.8382 30.6543 65.3615 30.4424ZM64.4345 28.35C64.611 29.1446 64.9465 29.639 65.4409 29.8332C65.9353 30.0275 66.518 29.9922 67.189 29.7273C67.86 29.4624 68.5928 29.0122 69.3873 28.3765C70.1819 27.7409 70.9765 26.9993 71.7711 26.1517C72.5657 25.2865 73.3249 24.3507 74.0489 23.3442C74.7728 22.3377 75.3997 21.3401 75.9294 20.3513C76.4768 19.3625 76.8917 18.4178 77.1742 17.5173C77.4567 16.6168 77.545 15.8398 77.4391 15.1865C77.3508 14.5155 77.033 14.0123 76.4856 13.6768C75.9559 13.3413 75.1348 13.2442 74.0224 13.3855C73.6163 13.7386 73.0777 14.2595 72.4067 14.9481C71.7358 15.6191 71.0206 16.3872 70.2614 17.2524C69.5021 18.1176 68.7428 19.0535 67.9836 20.0599C67.2243 21.0487 66.5533 22.0375 65.9706 23.0264C65.388 24.0152 64.9465 24.9687 64.6464 25.8868C64.3462 26.805 64.2756 27.6261 64.4345 28.35Z" fill="#0078A3"/>
<path d="M78.2601 30.4424C77.7481 30.0716 77.4126 29.6037 77.2537 29.0387C77.1124 28.4736 77.0948 27.8645 77.2007 27.2111C77.3066 26.5402 77.492 25.8515 77.7569 25.1452C78.0394 24.4389 78.3396 23.7591 78.6574 23.1058C78.9929 22.4525 79.3108 21.8521 79.6109 21.3048C79.9288 20.7574 80.176 20.3071 80.3525 19.954C80.4055 19.848 80.5291 19.592 80.7233 19.1859C80.9352 18.7798 81.1559 18.3383 81.3855 17.8616C81.615 17.3848 81.8269 16.9434 82.0211 16.5373C82.233 16.1135 82.3655 15.8487 82.4184 15.7427C82.4714 15.6544 82.542 15.4867 82.6303 15.2395C82.7363 14.9746 82.851 14.6921 82.9746 14.3919C83.0982 14.0918 83.2307 13.8092 83.3719 13.5444C83.5308 13.2619 83.6898 13.0588 83.8487 12.9352C84.0253 12.8116 84.193 12.7939 84.3519 12.8822C84.5285 12.9705 84.6962 13.2354 84.8551 13.6768C84.7845 13.8534 84.6079 14.2065 84.3254 14.7362C84.0606 15.266 83.7427 15.9016 83.3719 16.6432C83.0011 17.3848 82.5862 18.2059 82.1271 19.1064C81.6857 20.007 81.2531 20.9163 80.8293 21.8345C80.4055 22.7527 80.0082 23.6532 79.6374 24.5361C79.2666 25.4013 78.9576 26.1958 78.7104 26.9198C78.4809 27.6261 78.3396 28.2176 78.2866 28.6944C78.2513 29.1534 78.3396 29.436 78.5515 29.5419C78.7987 29.6655 79.1165 29.7185 79.505 29.7008C79.9111 29.6655 80.326 29.6125 80.7498 29.5419C81.1736 29.4713 81.5885 29.4006 81.9947 29.33C82.4008 29.2417 82.7539 29.2064 83.0541 29.2241C83.1247 29.383 83.0718 29.5419 82.8952 29.7008C82.7186 29.8421 82.4714 29.9745 82.1536 30.0981C81.8357 30.2041 81.4649 30.3012 81.0412 30.3895C80.635 30.4601 80.2378 30.5131 79.8493 30.5484C79.4785 30.5837 79.143 30.5925 78.8428 30.5749C78.5603 30.5572 78.3661 30.5131 78.2601 30.4424Z" fill="#0078A3"/>
<path d="M83.9663 30.4424C84.6902 28.1117 85.3436 26.2665 85.9262 24.9069C86.5266 23.5296 87.021 22.5673 87.4095 22.0199C87.8156 21.4725 88.0893 21.2959 88.2305 21.4902C88.3718 21.6844 88.3541 22.1788 88.1776 22.9734C88.0186 23.768 87.6655 24.8362 87.1181 26.1782C86.5884 27.5025 85.838 29.021 84.8668 30.7338C84.7255 30.7867 84.5578 30.7956 84.3636 30.7603C84.1693 30.7249 84.0369 30.619 83.9663 30.4424ZM88.6013 17.7027C88.566 17.6144 88.5484 17.4555 88.5484 17.2259C88.5484 16.9964 88.566 16.8551 88.6013 16.8022C89.0074 16.6609 89.3164 16.6432 89.5283 16.7492C89.7402 16.8551 89.8727 17.014 89.9256 17.2259C89.9786 17.4202 89.9698 17.632 89.8991 17.8616C89.8462 18.0911 89.749 18.2677 89.6078 18.3913C89.4665 18.4973 89.2988 18.5149 89.1046 18.4443C88.928 18.356 88.7602 18.1088 88.6013 17.7027Z" fill="#0078A3"/>
<path d="M90.1492 30.1246C89.7784 29.9127 89.5135 29.5772 89.3546 29.1181C89.1957 28.659 89.1074 28.1381 89.0897 27.5555C89.0721 26.9728 89.1074 26.3636 89.1957 25.7279C89.284 25.0923 89.3899 24.4743 89.5135 23.8739C89.6371 23.2736 89.7607 22.735 89.8843 22.2583C90.0079 21.7815 90.0962 21.4107 90.1492 21.1459C90.2375 21.0929 90.3257 21.0929 90.414 21.1459C90.52 21.1988 90.6171 21.2783 90.7054 21.3842C90.8113 21.4725 90.8908 21.5608 90.9437 21.6491C91.0144 21.7197 91.0497 21.755 91.0497 21.755C91.1027 22.373 91.1027 22.9822 91.0497 23.5826C91.0144 24.1653 90.9614 24.7479 90.8908 25.3306C90.8378 25.9133 90.7848 26.5048 90.7319 27.1052C90.6965 27.7055 90.6965 28.3147 90.7319 28.9327C90.8731 29.1976 91.1645 29.2064 91.6059 28.9592C92.0473 28.6944 92.5859 28.2794 93.2215 27.7144C93.8572 27.1317 94.5458 26.4519 95.2875 25.675C96.0467 24.8804 96.7883 24.0946 97.5123 23.3177C98.2539 22.5408 98.9513 21.8168 99.6047 21.1459C100.258 20.4572 100.805 19.9363 101.247 19.5832C101.706 19.2124 102.024 19.0623 102.2 19.1329C102.377 19.1859 102.35 19.5567 102.121 20.2453C101.697 20.6161 101.194 21.1723 100.611 21.9139C100.028 22.6556 99.3928 23.459 98.7041 24.3242C98.0155 25.1717 97.3004 26.0193 96.5588 26.8668C95.8172 27.7144 95.0667 28.4471 94.3075 29.0652C93.5659 29.6655 92.8419 30.0893 92.1356 30.3365C91.4293 30.566 90.7672 30.4954 90.1492 30.1246Z" fill="#0078A3"/>
<path d="M103.192 30.4424C102.662 30.2659 102.256 30.001 101.974 29.6478C101.709 29.277 101.532 28.8709 101.444 28.4295C101.356 27.9881 101.338 27.529 101.391 27.0522C101.461 26.5578 101.567 26.0899 101.709 25.6485C102.238 25.0834 102.83 24.4389 103.483 23.715C104.154 22.9734 104.861 22.2494 105.602 21.5431C106.344 20.8368 107.112 20.1835 107.906 19.5832C108.719 18.9652 109.54 18.4973 110.37 18.1794C110.652 18.0558 110.873 18.0647 111.032 18.2059C111.208 18.3295 111.332 18.5326 111.403 18.8151C111.473 19.0976 111.5 19.4243 111.482 19.7951C111.482 20.1659 111.456 20.5278 111.403 20.881C111.35 21.2341 111.279 21.552 111.191 21.8345C111.102 22.117 111.014 22.3112 110.926 22.4172C110.714 22.6644 110.299 22.9557 109.681 23.2912C109.081 23.6267 108.41 23.9975 107.668 24.4036C106.926 24.7921 106.185 25.1982 105.443 25.622C104.702 26.0458 104.092 26.4695 103.616 26.8933C103.139 27.2994 102.856 27.7055 102.768 28.1117C102.68 28.5178 102.927 28.8886 103.51 29.2241C104.11 29.2947 104.834 29.2682 105.682 29.1446C106.547 29.0034 107.421 28.8268 108.304 28.6149C109.204 28.3853 110.069 28.1558 110.899 27.9263C111.729 27.6791 112.409 27.4848 112.939 27.3436L113.257 27.6349C112.868 28.147 112.232 28.6149 111.35 29.0387C110.467 29.4624 109.513 29.8156 108.489 30.0981C107.465 30.363 106.467 30.5395 105.496 30.6278C104.525 30.6985 103.757 30.6367 103.192 30.4424ZM109.522 20.3248C109.504 20.3071 109.372 20.3866 109.125 20.5632C108.878 20.7221 108.569 20.9428 108.198 21.2253C107.845 21.4902 107.456 21.7903 107.032 22.1258C106.626 22.4437 106.247 22.7438 105.893 23.0264C105.558 23.3089 105.275 23.5561 105.046 23.768C104.816 23.9622 104.719 24.0593 104.755 24.0593C105.037 24.1123 105.399 24.077 105.841 23.9534C106.3 23.8121 106.768 23.6179 107.244 23.3707C107.739 23.1235 108.207 22.8498 108.648 22.5496C109.089 22.2318 109.434 21.9228 109.681 21.6226C109.946 21.3224 110.078 21.0576 110.078 20.828C110.096 20.5985 109.911 20.4307 109.522 20.3248Z" fill="#0078A3"/>
<path d="M112.753 30.4424C113.477 28.1117 114.131 26.2665 114.713 24.9069C115.314 23.5296 115.808 22.5673 116.197 22.0199C116.603 21.4725 116.876 21.2959 117.018 21.4902C117.159 21.6844 117.141 22.1788 116.965 22.9734C116.806 23.768 116.453 24.8362 115.905 26.1782C115.375 27.5025 114.625 29.021 113.654 30.7338C113.513 30.7867 113.345 30.7956 113.151 30.7603C112.956 30.7249 112.824 30.619 112.753 30.4424ZM117.388 17.7027C117.353 17.6144 117.335 17.4555 117.335 17.2259C117.335 16.9964 117.353 16.8551 117.388 16.8022C117.795 16.6609 118.104 16.6432 118.315 16.7492C118.527 16.8551 118.66 17.014 118.713 17.2259C118.766 17.4202 118.757 17.632 118.686 17.8616C118.633 18.0911 118.536 18.2677 118.395 18.3913C118.254 18.4973 118.086 18.5149 117.892 18.4443C117.715 18.356 117.547 18.1088 117.388 17.7027Z" fill="#0078A3"/>
<path d="M118.195 30.4424C118.159 30.4248 118.159 30.2217 118.195 29.8332C118.248 29.4271 118.318 28.9239 118.407 28.3235C118.495 27.7232 118.61 27.0611 118.751 26.3371C118.892 25.6132 119.042 24.9245 119.201 24.2712C119.36 23.6002 119.528 23.0175 119.704 22.5231C119.899 22.0111 120.084 21.6579 120.261 21.4637C120.384 21.3401 120.508 21.3401 120.631 21.4637C120.755 21.5696 120.879 21.7109 121.002 21.8875C121.126 22.0464 121.249 22.1965 121.373 22.3377C121.497 22.4613 121.629 22.4701 121.77 22.3642C122.265 21.6756 122.803 21.0223 123.386 20.4042C123.986 19.7686 124.648 19.2212 125.372 18.7621C125.443 18.7091 125.637 18.6297 125.955 18.5237C126.273 18.4001 126.635 18.2854 127.041 18.1794C127.447 18.0558 127.862 17.9587 128.286 17.8881C128.727 17.7998 129.098 17.7645 129.398 17.7821C129.716 17.7821 129.928 17.8616 130.034 18.0205C130.157 18.1618 130.104 18.409 129.875 18.7621C128.815 18.7798 127.827 19.0888 126.909 19.6891C125.99 20.2895 125.143 21.0311 124.366 21.9139C123.589 22.7968 122.883 23.7591 122.247 24.8009C121.611 25.825 121.055 26.7785 120.578 27.6614C120.119 28.5443 119.731 29.277 119.413 29.8597C119.113 30.4424 118.892 30.7338 118.751 30.7338C118.733 30.7338 118.654 30.6985 118.512 30.6278C118.371 30.5395 118.265 30.4777 118.195 30.4424Z" fill="#0078A3"/>
<path d="M127.469 30.1246C127.045 29.7714 126.807 29.2506 126.754 28.5619C126.719 27.8733 126.816 27.0964 127.045 26.2312C127.292 25.3659 127.646 24.4654 128.105 23.5296C128.581 22.5761 129.129 21.6756 129.747 20.828C130.365 19.9628 131.036 19.1947 131.76 18.5237C132.484 17.8351 133.208 17.3319 133.932 17.014C134.655 16.6786 135.362 16.5638 136.05 16.6697C136.739 16.758 137.366 17.1553 137.931 17.8616C138.284 18.303 138.496 18.7533 138.567 19.2124C138.637 19.6538 138.628 20.1129 138.54 20.5896C138.452 21.0487 138.311 21.5255 138.116 22.0199C137.922 22.4966 137.728 22.9822 137.534 23.4766C137.357 23.971 137.207 24.4743 137.083 24.9863C136.977 25.4984 136.96 26.0193 137.03 26.549C137.119 27.22 137.419 27.6173 137.931 27.7409C138.443 27.8645 139.052 27.8291 139.758 27.6349C140.482 27.4407 141.242 27.1317 142.036 26.7079C142.831 26.2841 143.564 25.8604 144.235 25.4366C144.923 25.0128 145.488 24.642 145.93 24.3242C146.389 24.0063 146.618 23.8474 146.618 23.8474C147.113 23.7415 147.386 23.7768 147.439 23.9534C147.51 24.1123 147.413 24.3595 147.148 24.695C146.901 25.0128 146.521 25.3836 146.009 25.8074C145.497 26.2135 144.914 26.6108 144.261 26.9993C143.608 27.3877 142.91 27.7409 142.169 28.0587C141.427 28.3765 140.703 28.5972 139.997 28.7208C139.291 28.8268 138.62 28.818 137.984 28.6944C137.366 28.5531 136.854 28.2353 136.448 27.7409C136.253 27.529 136.103 27.3171 135.997 27.1052C135.909 26.8933 135.759 26.7079 135.547 26.549C135.282 26.7962 134.964 27.1229 134.594 27.529C134.223 27.9174 133.817 28.3147 133.375 28.7208C132.952 29.1093 132.492 29.4801 131.998 29.8332C131.521 30.1864 131.027 30.4513 130.515 30.6278C130.003 30.8044 129.482 30.8662 128.952 30.8132C128.44 30.7603 127.946 30.5307 127.469 30.1246ZM127.76 29.2241C127.919 29.7891 128.272 30.054 128.82 30.0187C129.367 29.9657 130.003 29.692 130.727 29.1976C131.451 28.7032 132.201 28.0322 132.978 27.1847C133.755 26.3194 134.452 25.3659 135.07 24.3242C135.688 23.2647 136.156 22.1523 136.474 20.9869C136.81 19.8216 136.898 18.6738 136.739 17.5438C136.315 17.2083 135.786 17.1994 135.15 17.5173C134.514 17.8174 133.834 18.3207 133.11 19.027C132.404 19.7156 131.698 20.5455 130.992 21.5167C130.303 22.4701 129.694 23.4413 129.164 24.4301C128.634 25.4013 128.228 26.3194 127.946 27.1847C127.681 28.0499 127.619 28.7297 127.76 29.2241Z" fill="#0078A3"/>
<path d="M36.2214 44.4462H34.4614V43.2795H39.4214V44.4462H37.6614V48.0395H36.2214V44.4462Z" fill="#FF9A2E"/>
<path d="M43.4253 46.0662C43.4253 46.3862 43.5053 46.6218 43.6653 46.7729C43.8297 46.924 44.0875 46.9995 44.4386 46.9995C44.7942 46.9995 45.0519 46.924 45.2119 46.7729C45.3764 46.6218 45.4586 46.3862 45.4586 46.0662V43.2795H46.8986V45.9529C46.8986 46.7351 46.6875 47.2995 46.2653 47.6462C45.8431 47.9884 45.2342 48.1595 44.4386 48.1595C43.6475 48.1595 43.0408 47.9884 42.6186 47.6462C42.1964 47.2995 41.9853 46.7351 41.9853 45.9529V43.2795H43.4253V46.0662Z" fill="#FF9A2E"/>
<path d="M49.924 43.2795H52.1774C53.1374 43.2795 53.8618 43.4818 54.3507 43.8862C54.8396 44.2862 55.084 44.8773 55.084 45.6595C55.084 46.4151 54.8285 47.0018 54.3174 47.4195C53.8062 47.8329 53.0729 48.0395 52.1174 48.0395H49.924V43.2795ZM52.1507 46.8995C53.1329 46.8995 53.624 46.484 53.624 45.6529C53.624 44.8307 53.1507 44.4195 52.204 44.4195H51.344V46.8995H52.1507Z" fill="#FF9A2E"/>
<path d="M60.5792 48.1595C59.9925 48.1595 59.4881 48.0595 59.0659 47.8595C58.6436 47.6595 58.317 47.3729 58.0859 46.9995C57.8592 46.6262 57.7459 46.1795 57.7459 45.6595C57.7459 45.1395 57.8614 44.6929 58.0925 44.3195C58.3236 43.9462 58.6525 43.6595 59.0792 43.4595C59.5059 43.2595 60.0147 43.1595 60.6059 43.1595C61.1925 43.1595 61.697 43.2595 62.1192 43.4595C62.5414 43.6595 62.8659 43.9462 63.0925 44.3195C63.3236 44.6929 63.4392 45.1395 63.4392 45.6595C63.4392 46.1795 63.3236 46.6262 63.0925 46.9995C62.8614 47.3729 62.5325 47.6595 62.1059 47.8595C61.6792 48.0595 61.1703 48.1595 60.5792 48.1595ZM61.9459 45.6595C61.9459 45.2329 61.8259 44.904 61.5859 44.6729C61.3503 44.4373 61.0192 44.3195 60.5925 44.3195C60.1659 44.3195 59.8325 44.4373 59.5925 44.6729C59.357 44.9084 59.2392 45.2373 59.2392 45.6595C59.2392 46.0862 59.357 46.4173 59.5925 46.6529C59.8325 46.884 60.1659 46.9995 60.5925 46.9995C61.0192 46.9995 61.3503 46.8818 61.5859 46.6462C61.8259 46.4107 61.9459 46.0818 61.9459 45.6595Z" fill="#FF9A2E"/>
<path d="M70.1167 43.2795H72.3701C73.3301 43.2795 74.0545 43.4818 74.5434 43.8862C75.0323 44.2862 75.2767 44.8773 75.2767 45.6595C75.2767 46.4151 75.0212 47.0018 74.5101 47.4195C73.999 47.8329 73.2656 48.0395 72.3101 48.0395H70.1167V43.2795ZM72.3434 46.8995C73.3256 46.8995 73.8167 46.484 73.8167 45.6529C73.8167 44.8307 73.3434 44.4195 72.3967 44.4195H71.5367V46.8995H72.3434Z" fill="#FF9A2E"/>
<path d="M78.1519 43.2795H82.3186V44.3262H79.5586V45.0995H82.1852V46.1462H79.5586V46.9929H82.4786L82.3452 48.0395H78.1519V43.2795Z" fill="#FF9A2E"/>
<path d="M90.405 44.4462H88.645V43.2795H93.605V44.4462H91.845V48.0395H90.405V44.4462Z" fill="#FF9A2E"/>
<path d="M96.2222 43.2795H100.389V44.3262H97.6289V45.0995H100.256V46.1462H97.6289V46.9929H100.549L100.416 48.0395H96.2222V43.2795Z" fill="#FF9A2E"/>
<path d="M108.605 48.0395H106.919L105.705 46.4462L104.492 48.0395H102.892L104.825 45.5662L103.039 43.2795H104.725L105.725 44.6662L106.779 43.2795H108.379L106.612 45.5195L108.605 48.0395Z" fill="#FF9A2E"/>
<path d="M112.512 44.4462H110.752V43.2795H115.712V44.4462H113.952V48.0395H112.512V44.4462Z" fill="#FF9A2E"/>
<path d="M120.734 48.1595C120.147 48.1595 119.643 48.0595 119.221 47.8595C118.799 47.6595 118.472 47.3729 118.241 46.9995C118.014 46.6262 117.901 46.1795 117.901 45.6595C117.901 45.1395 118.016 44.6929 118.247 44.3195C118.479 43.9462 118.807 43.6595 119.234 43.4595C119.661 43.2595 120.17 43.1595 120.761 43.1595C121.347 43.1595 121.852 43.2595 122.274 43.4595C122.696 43.6595 123.021 43.9462 123.247 44.3195C123.479 44.6929 123.594 45.1395 123.594 45.6595C123.594 46.1795 123.479 46.6262 123.247 46.9995C123.016 47.3729 122.687 47.6595 122.261 47.8595C121.834 48.0595 121.325 48.1595 120.734 48.1595ZM122.101 45.6595C122.101 45.2329 121.981 44.904 121.741 44.6729C121.505 44.4373 121.174 44.3195 120.747 44.3195C120.321 44.3195 119.987 44.4373 119.747 44.6729C119.512 44.9084 119.394 45.2373 119.394 45.6595C119.394 46.0862 119.512 46.4173 119.747 46.6529C119.987 46.884 120.321 46.9995 120.747 46.9995C121.174 46.9995 121.505 46.8818 121.741 46.6462C121.981 46.4107 122.101 46.0818 122.101 45.6595Z" fill="#FF9A2E"/>
</svg>
