<svg width="158" height="42" viewBox="0 0 158 42" fill="none" xmlns="http://www.w3.org/2000/svg">
<path d="M12.8702 30.6119C11.7854 30.1851 11.0386 29.6072 10.6296 28.8781C10.2205 28.149 10.0516 27.3398 10.1227 26.4507C10.2117 25.5438 10.4962 24.5835 10.9763 23.5699C11.4742 22.5384 12.0789 21.507 12.7902 20.4756C13.5193 19.4442 14.3195 18.4395 15.1909 17.4614C16.0623 16.4833 16.9247 15.5853 17.7783 14.7673C18.6319 13.9493 19.4321 13.2379 20.179 12.6333C20.9259 12.0287 21.5305 11.5841 21.9929 11.2996C22.6331 10.9084 23.1666 10.7217 23.5933 10.7394C24.0201 10.7394 24.358 10.8728 24.607 11.1396C24.8737 11.3885 25.0515 11.7442 25.1405 12.2065C25.2472 12.6511 25.2916 13.1313 25.2738 13.647C25.2738 14.1449 25.2205 14.6517 25.1138 15.1674C25.0249 15.6653 24.9004 16.101 24.7403 16.4745C24.5981 16.8479 24.438 17.1235 24.2602 17.3014C24.1002 17.4792 23.9401 17.4881 23.7801 17.328C23.7623 17.1858 23.7801 16.9724 23.8334 16.6878C23.8868 16.3855 23.949 16.0477 24.0201 15.6742C24.109 15.3008 24.1891 14.9184 24.2602 14.5272C24.3313 14.136 24.3758 13.7803 24.3936 13.4602C24.4291 13.1224 24.4203 12.8378 24.3669 12.6067C24.3313 12.3755 24.2335 12.2421 24.0735 12.2065C23.4511 12.0465 22.7042 12.1976 21.8328 12.66C20.9792 13.1046 20.0812 13.7537 19.1387 14.6072C18.214 15.443 17.2893 16.4211 16.3646 17.5414C15.4576 18.644 14.6307 19.7821 13.8838 20.9558C13.137 22.1294 12.5234 23.2764 12.0433 24.3968C11.5632 25.4993 11.2875 26.4774 11.2164 27.331C11.163 28.1668 11.3498 28.8158 11.7766 29.2782C12.2211 29.7228 12.9947 29.865 14.0972 29.705C15.1109 29.5627 16.0445 29.2071 16.8981 28.638C17.7694 28.0512 18.6052 27.411 19.4055 26.7174C20.2235 26.0061 21.0326 25.3126 21.8328 24.6368C22.6331 23.9433 23.4689 23.4187 24.3402 23.063C24.6603 22.9386 24.9093 22.983 25.0871 23.1964C25.2827 23.4098 25.3361 23.6677 25.2472 23.97C25.1405 24.2723 24.8204 24.6724 24.2869 25.1703C23.7712 25.6682 23.1221 26.1928 22.3396 26.7441C21.575 27.2776 20.7303 27.82 19.8056 28.3713C18.8809 28.9047 17.9739 29.3671 17.0848 29.7583C16.2134 30.1496 15.3954 30.4341 14.6307 30.6119C13.8838 30.7897 13.297 30.7897 12.8702 30.6119Z" fill="#FF9A2E"/>
<path d="M25.8991 30.6119C25.8635 30.5941 25.8635 30.3896 25.8991 29.9984C25.9524 29.5894 26.0236 29.0826 26.1125 28.478C26.2014 27.8733 26.317 27.2065 26.4592 26.4774C26.6015 25.7483 26.7527 25.0547 26.9127 24.3968C27.0728 23.721 27.2417 23.1342 27.4195 22.6363C27.6151 22.1205 27.8019 21.7649 27.9797 21.5693C28.1042 21.4448 28.2287 21.4448 28.3531 21.5693C28.4776 21.676 28.6021 21.8182 28.7266 21.9961C28.8511 22.1561 28.9755 22.3073 29.1 22.4495C29.2245 22.574 29.3579 22.5829 29.5001 22.4762C29.9981 21.7827 30.5404 21.1247 31.1273 20.5023C31.7319 19.8621 32.3988 19.3108 33.1279 18.8485C33.199 18.7951 33.3946 18.7151 33.7147 18.6084C34.0348 18.4839 34.3993 18.3683 34.8084 18.2616C35.2174 18.1372 35.6353 18.0394 36.0621 17.9682C36.5066 17.8793 36.8801 17.8437 37.1824 17.8615C37.5025 17.8615 37.7159 17.9415 37.8226 18.1016C37.947 18.2439 37.8937 18.4928 37.6625 18.8485C36.5955 18.8663 35.5997 19.1775 34.675 19.7821C33.7503 20.3867 32.8967 21.1336 32.1142 22.0227C31.3318 22.9119 30.6205 23.8811 29.9803 24.9303C29.3401 25.9617 28.7799 26.9219 28.2998 27.8111C27.8374 28.7002 27.4462 29.4382 27.1261 30.0251C26.8238 30.6119 26.6015 30.9053 26.4592 30.9053C26.4415 30.9053 26.3614 30.8698 26.2192 30.7986C26.0769 30.7097 25.9702 30.6475 25.8991 30.6119Z" fill="#FF9A2E"/>
<path d="M36.6073 30.6119C37.3364 28.2646 37.9944 26.4062 38.5812 25.037C39.1858 23.6499 39.6837 22.6807 40.075 22.1294C40.484 21.5782 40.7596 21.4003 40.9019 21.5959C41.0441 21.7916 41.0263 22.2895 40.8485 23.0897C40.6885 23.89 40.3328 24.9658 39.7815 26.3173C39.2481 27.6511 38.4923 29.1804 37.5142 30.9053C37.3719 30.9587 37.203 30.9676 37.0074 30.932C36.8118 30.8964 36.6784 30.7897 36.6073 30.6119ZM41.2753 17.7815C41.2397 17.6926 41.222 17.5325 41.222 17.3014C41.222 17.0702 41.2397 16.9279 41.2753 16.8746C41.6843 16.7323 41.9955 16.7145 42.2089 16.8212C42.4223 16.9279 42.5557 17.088 42.609 17.3014C42.6624 17.497 42.6535 17.7104 42.5824 17.9415C42.529 18.1727 42.4312 18.3506 42.2889 18.475C42.1467 18.5817 41.9777 18.5995 41.7821 18.5284C41.6043 18.4395 41.4354 18.1905 41.2753 17.7815Z" fill="#FF9A2E"/>
<path d="M42.0873 30.6119C41.8739 30.4697 41.865 30.2829 42.0606 30.0518C42.274 29.8028 42.603 29.5449 43.0476 29.2782C43.5099 28.9937 44.0434 28.7002 44.648 28.3979C45.2527 28.0956 45.8306 27.8111 46.3819 27.5444C46.9509 27.2776 47.4488 27.0464 47.8756 26.8508C48.3024 26.6374 48.5781 26.4774 48.7025 26.3707C49.2894 25.8728 49.5917 25.4637 49.6095 25.1437C49.645 24.8058 49.5028 24.539 49.1827 24.3434C48.8626 24.13 48.4091 23.97 47.8223 23.8633C47.2532 23.7388 46.6575 23.6321 46.0351 23.5432C45.4305 23.4365 44.8436 23.3298 44.2746 23.2231C43.7233 23.1164 43.3054 22.9741 43.0209 22.7963C42.7364 22.6185 42.6386 22.3873 42.7275 22.1028C42.8342 21.8005 43.2254 21.4181 43.9011 20.9558C44.1501 20.7779 44.5147 20.5201 44.9948 20.1822C45.4749 19.8443 45.9906 19.4976 46.5419 19.1419C47.111 18.7862 47.6711 18.4661 48.2224 18.1816C48.7737 17.8971 49.236 17.7104 49.6095 17.6215C49.8051 17.5859 50.0007 17.6037 50.1963 17.6748C50.4097 17.7459 50.5786 17.8526 50.7031 17.9949C50.8276 18.1194 50.881 18.2616 50.8632 18.4217C50.8632 18.5817 50.7476 18.724 50.5164 18.8485C49.5028 19.4175 48.5247 19.951 47.5822 20.4489C46.6575 20.9469 45.7239 21.5159 44.7814 22.1561C44.7281 22.2984 44.7369 22.4229 44.8081 22.5296C44.897 22.6363 44.9948 22.7163 45.1015 22.7696C46.9865 22.9652 48.4002 23.2409 49.3427 23.5965C50.303 23.9522 50.9076 24.3434 51.1566 24.7702C51.4233 25.197 51.3967 25.6505 51.0766 26.1306C50.7565 26.6107 50.2763 27.082 49.6362 27.5444C49.0137 28.0067 48.2935 28.4424 47.4755 28.8514C46.6575 29.2604 45.8662 29.6072 45.1015 29.8917C44.3546 30.1762 43.6966 30.3896 43.1276 30.5319C42.5585 30.6742 42.2118 30.7008 42.0873 30.6119Z" fill="#FF9A2E"/>
<path d="M65.2642 30.6119C64.375 30.2385 63.7882 29.7228 63.5037 29.0648C63.2191 28.389 63.1213 27.6688 63.2102 26.9042C63.2992 26.1217 63.5126 25.3393 63.8504 24.5568C64.2061 23.7744 64.5706 23.0808 64.9441 22.4762C65.0686 22.2628 65.2997 21.8983 65.6376 21.3826C65.9755 20.8668 66.3312 20.3245 66.7046 19.7554C67.0958 19.1686 67.4604 18.6262 67.7983 18.1283C68.1539 17.6126 68.4029 17.2569 68.5451 17.0613C68.7585 15.692 69.1853 14.6072 69.8255 13.807C70.4657 12.989 71.1859 12.4288 71.9861 12.1265C72.8042 11.8242 73.64 11.762 74.4935 11.9398C75.3471 12.0998 76.094 12.4822 76.7342 13.0868C77.3744 13.6736 77.8367 14.465 78.1213 15.4608C78.4058 16.4567 78.3791 17.6215 78.0412 18.9552C77.7212 20.2889 77.0276 21.7827 75.9606 23.4365C74.8937 25.0903 73.3288 26.8775 71.2659 28.7981C70.9103 29.1359 70.4835 29.4649 69.9856 29.785C69.5054 30.0873 68.9897 30.3363 68.4384 30.5319C67.905 30.7275 67.3626 30.8431 66.8113 30.8787C66.26 30.9142 65.7443 30.8253 65.2642 30.6119ZM64.3306 28.5046C64.5084 29.3049 64.8463 29.8028 65.3442 29.9984C65.8421 30.194 66.429 30.1584 67.1047 29.8917C67.7805 29.625 68.5185 29.1715 69.3187 28.5313C70.1189 27.8911 70.9192 27.1442 71.7194 26.2907C72.5196 25.4193 73.2843 24.4768 74.0134 23.4632C74.7425 22.4495 75.3738 21.4448 75.9073 20.4489C76.4586 19.4531 76.8765 18.5017 77.161 17.5948C77.4455 16.6878 77.5344 15.9054 77.4277 15.2474C77.3388 14.5717 77.0187 14.0649 76.4675 13.727C75.934 13.3891 75.1071 13.2913 73.9867 13.4336C73.5777 13.7892 73.0353 14.3138 72.3596 15.0074C71.6838 15.6831 70.9636 16.4567 70.199 17.328C69.4343 18.1994 68.6696 19.1419 67.905 20.1555C67.1403 21.1514 66.4645 22.1472 65.8777 23.1431C65.2909 24.1389 64.8463 25.0992 64.544 26.0239C64.2417 26.9486 64.1705 27.7755 64.3306 28.5046Z" fill="#FF9A2E"/>
<path d="M78.2546 30.6119C77.7389 30.2385 77.4011 29.7672 77.241 29.1982C77.0987 28.6291 77.081 28.0156 77.1877 27.3576C77.2944 26.6819 77.4811 25.9883 77.7478 25.277C78.0324 24.5657 78.3347 23.8811 78.6548 23.2231C78.9926 22.5651 79.3127 21.9605 79.615 21.4092C79.9351 20.858 80.1841 20.4045 80.3619 20.0488C80.4153 19.9421 80.5398 19.6843 80.7354 19.2753C80.9488 18.8663 81.1711 18.4217 81.4022 17.9415C81.6334 17.4614 81.8468 17.0168 82.0424 16.6078C82.2558 16.181 82.3892 15.9143 82.4425 15.8076C82.4959 15.7187 82.567 15.5497 82.6559 15.3008C82.7626 15.034 82.8782 14.7495 83.0027 14.4472C83.1272 14.1449 83.2606 13.8604 83.4028 13.5936C83.5629 13.3091 83.7229 13.1046 83.883 12.9801C84.0608 12.8556 84.2297 12.8378 84.3898 12.9267C84.5676 13.0157 84.7365 13.2824 84.8966 13.727C84.8255 13.9048 84.6476 14.2605 84.3631 14.794C84.0964 15.3274 83.7763 15.9676 83.4028 16.7145C83.0294 17.4614 82.6115 18.2883 82.1491 19.1952C81.7045 20.1022 81.2689 21.018 80.8421 21.9427C80.4153 22.8674 80.0152 23.7744 79.6417 24.6635C79.2683 25.5349 78.9571 26.3351 78.7081 27.0642C78.4769 27.7755 78.3347 28.3713 78.2813 28.8514C78.2458 29.3138 78.3347 29.5983 78.5481 29.705C78.797 29.8295 79.1171 29.8828 79.5083 29.865C79.9174 29.8295 80.3353 29.7761 80.762 29.705C81.1888 29.6339 81.6067 29.5627 82.0157 29.4916C82.4248 29.4027 82.7804 29.3671 83.0827 29.3849C83.1539 29.5449 83.1005 29.705 82.9227 29.865C82.7448 30.0073 82.4959 30.1407 82.1758 30.2651C81.8557 30.3718 81.4823 30.4697 81.0555 30.5586C80.6465 30.6297 80.2463 30.683 79.8551 30.7186C79.4817 30.7542 79.1438 30.7631 78.8415 30.7453C78.557 30.7275 78.3613 30.683 78.2546 30.6119Z" fill="#FF9A2E"/>
<path d="M84.0014 30.6119C84.7305 28.2646 85.3885 26.4062 85.9753 25.037C86.5799 23.6499 87.0779 22.6807 87.4691 22.1294C87.8781 21.5782 88.1537 21.4003 88.296 21.5959C88.4382 21.7916 88.4205 22.2895 88.2426 23.0897C88.0826 23.89 87.7269 24.9658 87.1757 26.3173C86.6422 27.6511 85.8864 29.1804 84.9083 30.9053C84.7661 30.9587 84.5971 30.9676 84.4015 30.932C84.2059 30.8964 84.0725 30.7897 84.0014 30.6119ZM88.6694 17.7815C88.6339 17.6926 88.6161 17.5325 88.6161 17.3014C88.6161 17.0702 88.6339 16.9279 88.6694 16.8746C89.0784 16.7323 89.3896 16.7145 89.603 16.8212C89.8164 16.9279 89.9498 17.088 90.0031 17.3014C90.0565 17.497 90.0476 17.7104 89.9765 17.9415C89.9231 18.1727 89.8253 18.3506 89.6831 18.475C89.5408 18.5817 89.3718 18.5995 89.1762 18.5284C88.9984 18.4395 88.8295 18.1905 88.6694 17.7815Z" fill="#FF9A2E"/>
<path d="M90.2283 30.2918C89.8548 30.0784 89.5881 29.7405 89.428 29.2782C89.268 28.8158 89.1791 28.2912 89.1613 27.7044C89.1435 27.1176 89.1791 26.504 89.268 25.8639C89.3569 25.2237 89.4636 24.6013 89.5881 23.9966C89.7126 23.392 89.8371 22.8496 89.9615 22.3695C90.086 21.8894 90.1749 21.5159 90.2283 21.2492C90.3172 21.1958 90.4061 21.1958 90.495 21.2492C90.6017 21.3025 90.6995 21.3826 90.7885 21.4892C90.8951 21.5782 90.9752 21.6671 91.0285 21.756C91.0997 21.8271 91.1352 21.8627 91.1352 21.8627C91.1886 22.4851 91.1886 23.0986 91.1352 23.7032C91.0997 24.2901 91.0463 24.8769 90.9752 25.4637C90.9218 26.0506 90.8685 26.6463 90.8151 27.2509C90.7796 27.8556 90.7796 28.4691 90.8151 29.0915C90.9574 29.3582 91.2508 29.3671 91.6954 29.1181C92.14 28.8514 92.6823 28.4335 93.3225 27.8644C93.9627 27.2776 94.6562 26.593 95.4031 25.8105C96.1678 25.0103 96.9147 24.2189 97.6438 23.4365C98.3907 22.654 99.0931 21.9249 99.7511 21.2492C100.409 20.5556 100.96 20.031 101.405 19.6754C101.867 19.3019 102.187 19.1508 102.365 19.2219C102.543 19.2753 102.516 19.6487 102.285 20.3422C101.858 20.7157 101.352 21.2759 100.765 22.0227C100.178 22.7696 99.5377 23.5787 98.8441 24.4501C98.1506 25.3037 97.4304 26.1573 96.6835 27.0109C95.9366 27.8644 95.1808 28.6024 94.4162 29.2248C93.6693 29.8295 92.9402 30.2563 92.2289 30.5052C91.5176 30.7364 90.8507 30.6653 90.2283 30.2918Z" fill="#FF9A2E"/>
<path d="M103.364 30.6119C102.83 30.4341 102.421 30.1673 102.137 29.8117C101.87 29.4382 101.692 29.0292 101.603 28.5847C101.514 28.1401 101.497 27.6777 101.55 27.1976C101.621 26.6997 101.728 26.2284 101.87 25.7838C102.404 25.2148 102.999 24.5657 103.657 23.8366C104.333 23.0897 105.044 22.3606 105.791 21.6493C106.538 20.938 107.312 20.28 108.112 19.6754C108.93 19.053 109.757 18.5817 110.593 18.2616C110.877 18.1372 111.099 18.1461 111.259 18.2883C111.437 18.4128 111.562 18.6173 111.633 18.9018C111.704 19.1864 111.731 19.5153 111.713 19.8888C111.713 20.2622 111.686 20.6268 111.633 20.9824C111.58 21.3381 111.508 21.6582 111.42 21.9427C111.331 22.2272 111.242 22.4229 111.153 22.5296C110.939 22.7785 110.521 23.0719 109.899 23.4098C109.294 23.7477 108.619 24.1211 107.872 24.5301C107.125 24.9214 106.378 25.3304 105.631 25.7572C104.884 26.184 104.271 26.6107 103.791 27.0375C103.311 27.4465 103.026 27.8556 102.937 28.2646C102.848 28.6736 103.097 29.047 103.684 29.3849C104.289 29.456 105.018 29.4293 105.871 29.3049C106.743 29.1626 107.623 28.9848 108.512 28.7714C109.419 28.5402 110.29 28.309 111.126 28.0778C111.962 27.8289 112.647 27.6333 113.18 27.491L113.5 27.7844C113.109 28.3001 112.469 28.7714 111.58 29.1982C110.69 29.625 109.73 29.9806 108.699 30.2651C107.667 30.5319 106.663 30.7097 105.685 30.7986C104.706 30.8698 103.933 30.8075 103.364 30.6119ZM109.739 20.4223C109.721 20.4045 109.588 20.4845 109.339 20.6623C109.09 20.8224 108.779 21.0447 108.405 21.3292C108.05 21.5959 107.658 21.8983 107.232 22.2361C106.823 22.5562 106.44 22.8585 106.085 23.1431C105.747 23.4276 105.462 23.6766 105.231 23.89C105 24.0856 104.902 24.1834 104.938 24.1834C105.222 24.2367 105.587 24.2012 106.031 24.0767C106.494 23.9344 106.965 23.7388 107.445 23.4898C107.943 23.2409 108.414 22.9652 108.859 22.6629C109.303 22.3428 109.65 22.0316 109.899 21.7293C110.166 21.427 110.299 21.1603 110.299 20.9291C110.317 20.6979 110.13 20.529 109.739 20.4223Z" fill="#FF9A2E"/>
<path d="M112.993 30.6119C113.722 28.2646 114.38 26.4062 114.967 25.037C115.572 23.6499 116.07 22.6807 116.461 22.1294C116.87 21.5782 117.146 21.4003 117.288 21.5959C117.43 21.7916 117.412 22.2895 117.235 23.0897C117.075 23.89 116.719 24.9658 116.168 26.3173C115.634 27.6511 114.878 29.1804 113.9 30.9053C113.758 30.9587 113.589 30.9676 113.393 30.932C113.198 30.8964 113.064 30.7897 112.993 30.6119ZM117.661 17.7815C117.626 17.6926 117.608 17.5325 117.608 17.3014C117.608 17.0702 117.626 16.9279 117.661 16.8746C118.07 16.7323 118.382 16.7145 118.595 16.8212C118.808 16.9279 118.942 17.088 118.995 17.3014C119.048 17.497 119.04 17.7104 118.968 17.9415C118.915 18.1727 118.817 18.3506 118.675 18.475C118.533 18.5817 118.364 18.5995 118.168 18.5284C117.99 18.4395 117.821 18.1905 117.661 17.7815Z" fill="#FF9A2E"/>
<path d="M118.473 30.6119C118.438 30.5941 118.438 30.3896 118.473 29.9984C118.527 29.5894 118.598 29.0826 118.687 28.478C118.776 27.8733 118.891 27.2065 119.033 26.4774C119.176 25.7483 119.327 25.0547 119.487 24.3968C119.647 23.721 119.816 23.1342 119.994 22.6363C120.189 22.1205 120.376 21.7649 120.554 21.5693C120.678 21.4448 120.803 21.4448 120.927 21.5693C121.052 21.676 121.176 21.8182 121.301 21.9961C121.425 22.1561 121.55 22.3073 121.674 22.4495C121.799 22.574 121.932 22.5829 122.074 22.4762C122.572 21.7827 123.115 21.1247 123.702 20.5023C124.306 19.8621 124.973 19.3108 125.702 18.8485C125.773 18.7951 125.969 18.7151 126.289 18.6084C126.609 18.4839 126.974 18.3683 127.383 18.2616C127.792 18.1372 128.21 18.0394 128.636 17.9682C129.081 17.8793 129.454 17.8437 129.757 17.8615C130.077 17.8615 130.29 17.9415 130.397 18.1016C130.521 18.2439 130.468 18.4928 130.237 18.8485C129.17 18.8663 128.174 19.1775 127.249 19.7821C126.325 20.3867 125.471 21.1336 124.688 22.0227C123.906 22.9119 123.195 23.8811 122.555 24.9303C121.914 25.9617 121.354 26.9219 120.874 27.8111C120.412 28.7002 120.02 29.4382 119.7 30.0251C119.398 30.6119 119.176 30.9053 119.033 30.9053C119.016 30.9053 118.936 30.8698 118.793 30.7986C118.651 30.7097 118.544 30.6475 118.473 30.6119Z" fill="#FF9A2E"/>
<path d="M127.814 30.2918C127.387 29.9362 127.147 29.4116 127.093 28.718C127.058 28.0245 127.156 27.242 127.387 26.3707C127.636 25.4993 127.991 24.5924 128.454 23.6499C128.934 22.6896 129.485 21.7827 130.108 20.9291C130.73 20.0577 131.406 19.2842 132.135 18.6084C132.864 17.9149 133.593 17.4081 134.322 17.088C135.051 16.7501 135.763 16.6345 136.456 16.7412C137.15 16.8301 137.781 17.2302 138.35 17.9415C138.706 18.3861 138.919 18.8396 138.99 19.3019C139.061 19.7465 139.053 20.2089 138.964 20.689C138.875 21.1514 138.732 21.6315 138.537 22.1294C138.341 22.6096 138.146 23.0986 137.95 23.5965C137.772 24.0945 137.621 24.6013 137.496 25.117C137.39 25.6327 137.372 26.1573 137.443 26.6908C137.532 27.3665 137.834 27.7666 138.35 27.8911C138.866 28.0156 139.479 27.98 140.191 27.7844C140.92 27.5888 141.684 27.2776 142.485 26.8508C143.285 26.424 144.023 25.9972 144.699 25.5704C145.392 25.1437 145.961 24.7702 146.406 24.4501C146.868 24.13 147.099 23.97 147.099 23.97C147.597 23.8633 147.873 23.8988 147.926 24.0767C147.997 24.2367 147.9 24.4857 147.633 24.8236C147.384 25.1437 147.001 25.5171 146.486 25.9439C145.97 26.3529 145.383 26.753 144.725 27.1442C144.067 27.5355 143.365 27.8911 142.618 28.2112C141.871 28.5313 141.142 28.7536 140.431 28.8781C139.719 28.9848 139.044 28.9759 138.403 28.8514C137.781 28.7091 137.265 28.389 136.856 27.8911C136.661 27.6777 136.51 27.4643 136.403 27.2509C136.314 27.0375 136.163 26.8508 135.949 26.6908C135.683 26.9397 135.363 27.2687 134.989 27.6777C134.616 28.069 134.207 28.4691 133.762 28.8781C133.335 29.2693 132.873 29.6427 132.375 29.9984C131.895 30.3541 131.397 30.6208 130.881 30.7986C130.366 30.9765 129.841 31.0387 129.307 30.9854C128.792 30.932 128.294 30.7008 127.814 30.2918ZM128.107 29.3849C128.267 29.9539 128.623 30.2207 129.174 30.1851C129.725 30.1318 130.366 29.8561 131.095 29.3582C131.824 28.8603 132.579 28.1845 133.362 27.331C134.144 26.4596 134.847 25.4993 135.469 24.4501C136.092 23.3831 136.563 22.2628 136.883 21.0891C137.221 19.9155 137.31 18.7596 137.15 17.6215C136.723 17.2836 136.189 17.2747 135.549 17.5948C134.909 17.8971 134.224 18.4039 133.495 19.1152C132.784 19.8088 132.073 20.6446 131.361 21.6226C130.668 22.5829 130.054 23.561 129.521 24.5568C128.987 25.5349 128.578 26.4596 128.294 27.331C128.027 28.2023 127.965 28.887 128.107 29.3849Z" fill="#FF9A2E"/>
</svg>
