<svg width="158" height="64" viewBox="0 0 158 64" fill="none" xmlns="http://www.w3.org/2000/svg">
<path d="M13.3377 30.2469C12.2606 29.8231 11.519 29.2492 11.1129 28.5253C10.7068 27.8013 10.5391 26.9979 10.6097 26.1151C10.698 25.2145 10.9805 24.261 11.4572 23.2546C11.9516 22.2304 12.552 21.2063 13.2583 20.1822C13.9822 19.1581 14.7768 18.1604 15.642 17.1893C16.5072 16.2181 17.3636 15.3264 18.2112 14.5142C19.0587 13.702 19.8533 12.9957 20.5949 12.3953C21.3365 11.795 21.9369 11.3535 22.3959 11.071C23.0316 10.6826 23.5613 10.4972 23.9851 10.5148C24.4089 10.5148 24.7444 10.6473 24.9916 10.9121C25.2564 11.1593 25.433 11.5125 25.5213 11.9716C25.6272 12.413 25.6714 12.8897 25.6537 13.4018C25.6537 13.8962 25.6007 14.3994 25.4948 14.9115C25.4065 15.4059 25.2829 15.8385 25.124 16.2093C24.9827 16.5801 24.8238 16.8538 24.6473 17.0304C24.4883 17.2069 24.3294 17.2158 24.1705 17.0569C24.1528 16.9156 24.1705 16.7037 24.2235 16.4212C24.2764 16.121 24.3382 15.7855 24.4089 15.4147C24.4972 15.0439 24.5766 14.6643 24.6473 14.2758C24.7179 13.8874 24.762 13.5342 24.7797 13.2164C24.815 12.8809 24.8062 12.5984 24.7532 12.3688C24.7179 12.1393 24.6208 12.0069 24.4619 11.9716C23.8438 11.8126 23.1022 11.9627 22.237 12.4218C21.3895 12.8632 20.4978 13.5077 19.5619 14.3553C18.6438 15.1852 17.7256 16.1563 16.8074 17.2687C15.9069 18.3635 15.0858 19.4936 14.3442 20.6589C13.6026 21.8243 12.9934 22.9632 12.5167 24.0756C12.0399 25.1704 11.7662 26.1415 11.6956 26.9891C11.6426 27.819 11.828 28.4635 12.2518 28.9226C12.6933 29.364 13.4613 29.5053 14.5561 29.3463C15.5626 29.2051 16.4896 28.8519 17.3371 28.2869C18.2023 27.7042 19.0322 27.0686 19.8268 26.3799C20.639 25.6736 21.4424 24.985 22.237 24.314C23.0316 23.6254 23.8615 23.1045 24.7267 22.7513C25.0445 22.6277 25.2917 22.6719 25.4683 22.8838C25.6625 23.0957 25.7155 23.3517 25.6272 23.6519C25.5213 23.952 25.2035 24.3493 24.6737 24.8437C24.1617 25.3381 23.5172 25.859 22.7403 26.4064C21.981 26.9361 21.1423 27.4747 20.2241 28.022C19.3059 28.5518 18.4054 29.0109 17.5225 29.3993C16.6573 29.7878 15.8451 30.0703 15.0858 30.2469C14.3442 30.4234 13.7615 30.4234 13.3377 30.2469Z" fill="#0078A3"/>
<path d="M26.2745 30.2469C26.2392 30.2292 26.2392 30.0262 26.2745 29.6377C26.3275 29.2316 26.3982 28.7283 26.4864 28.128C26.5747 27.5276 26.6895 26.8655 26.8308 26.1415C26.972 25.4176 27.1221 24.729 27.281 24.0756C27.4399 23.4047 27.6077 22.822 27.7842 22.3276C27.9785 21.8155 28.1639 21.4624 28.3405 21.2681C28.4641 21.1445 28.5877 21.1445 28.7113 21.2681C28.8349 21.3741 28.9585 21.5153 29.0821 21.6919C29.2057 21.8508 29.3293 22.0009 29.4529 22.1422C29.5765 22.2658 29.7089 22.2746 29.8502 22.1686C30.3446 21.48 30.8831 20.8267 31.4658 20.2087C32.0661 19.573 32.7283 19.0256 33.4522 18.5666C33.5229 18.5136 33.7171 18.4341 34.0349 18.3282C34.3528 18.2046 34.7147 18.0898 35.1209 17.9839C35.527 17.8603 35.9419 17.7632 36.3657 17.6925C36.8071 17.6042 37.1779 17.5689 37.4781 17.5866C37.7959 17.5866 38.0078 17.666 38.1138 17.825C38.2374 17.9662 38.1844 18.2134 37.9549 18.5666C36.8954 18.5842 35.9066 18.8932 34.9884 19.4936C34.0703 20.0939 33.2227 20.8355 32.4458 21.7184C31.6689 22.6013 30.9626 23.5636 30.3269 24.6054C29.6912 25.6295 29.135 26.583 28.6583 27.4658C28.1992 28.3487 27.8107 29.0815 27.4929 29.6642C27.1927 30.2469 26.972 30.5382 26.8308 30.5382C26.8131 30.5382 26.7336 30.5029 26.5924 30.4323C26.4511 30.344 26.3452 30.2822 26.2745 30.2469Z" fill="#0078A3"/>
<path d="M36.9071 30.2469C37.631 27.9161 38.2843 26.0709 38.867 24.7113C39.4674 23.334 39.9618 22.3717 40.3503 21.8243C40.7564 21.277 41.0301 21.1004 41.1713 21.2946C41.3126 21.4888 41.2949 21.9832 41.1183 22.7778C40.9594 23.5724 40.6063 24.6407 40.0589 25.9826C39.5292 27.3069 38.7787 28.8255 37.8076 30.5382C37.6663 30.5912 37.4986 30.6 37.3044 30.5647C37.1101 30.5294 36.9777 30.4234 36.9071 30.2469ZM41.5421 17.5071C41.5068 17.4188 41.4891 17.2599 41.4891 17.0304C41.4891 16.8008 41.5068 16.6596 41.5421 16.6066C41.9482 16.4653 42.2572 16.4477 42.4691 16.5536C42.681 16.6596 42.8134 16.8185 42.8664 17.0304C42.9194 17.2246 42.9106 17.4365 42.8399 17.666C42.787 17.8956 42.6898 18.0722 42.5486 18.1958C42.4073 18.3017 42.2396 18.3194 42.0454 18.2487C41.8688 18.1604 41.701 17.9132 41.5421 17.5071Z" fill="#0078A3"/>
<path d="M42.3484 30.2469C42.1365 30.1056 42.1276 29.9202 42.3219 29.6907C42.5338 29.4435 42.8604 29.1874 43.3018 28.9226C43.7609 28.6401 44.2907 28.3487 44.891 28.0485C45.4914 27.7484 46.0652 27.4658 46.6126 27.201C47.1776 26.9361 47.672 26.7066 48.0958 26.5123C48.5196 26.3005 48.7933 26.1415 48.9169 26.0356C49.4996 25.5412 49.7997 25.1351 49.8174 24.8172C49.8527 24.4818 49.7115 24.2169 49.3936 24.0227C49.0758 23.8108 48.6255 23.6519 48.0428 23.5459C47.4778 23.4223 46.8863 23.3164 46.2683 23.2281C45.6679 23.1221 45.0852 23.0162 44.5202 22.9103C43.9728 22.8043 43.5579 22.6631 43.2754 22.4865C42.9928 22.3099 42.8957 22.0804 42.984 21.7978C43.09 21.4977 43.4784 21.118 44.1494 20.6589C44.3966 20.4824 44.7586 20.2263 45.2353 19.8909C45.7121 19.5554 46.2241 19.2111 46.7715 18.8579C47.3365 18.5048 47.8927 18.1869 48.4401 17.9044C48.9875 17.6219 49.4466 17.4365 49.8174 17.3482C50.0116 17.3129 50.2059 17.3305 50.4001 17.4012C50.612 17.4718 50.7797 17.5777 50.9033 17.719C51.0269 17.8426 51.0799 17.9839 51.0622 18.1428C51.0622 18.3017 50.9475 18.443 50.7179 18.5666C49.7114 19.1316 48.7403 19.6613 47.8045 20.1557C46.8863 20.6501 45.9593 21.2152 45.0234 21.8508C44.9705 21.9921 44.9793 22.1157 45.0499 22.2216C45.1382 22.3276 45.2353 22.407 45.3413 22.46C47.2129 22.6542 48.6167 22.9279 49.5525 23.2811C50.506 23.6342 51.1064 24.0227 51.3536 24.4464C51.6184 24.8702 51.5919 25.3205 51.2741 25.7972C50.9563 26.274 50.4795 26.7419 49.8439 27.201C49.2259 27.6601 48.5108 28.0927 47.6985 28.4988C46.8863 28.9049 46.1005 29.2492 45.3413 29.5317C44.5997 29.8143 43.9463 30.0262 43.3813 30.1674C42.8163 30.3087 42.472 30.3352 42.3484 30.2469Z" fill="#0078A3"/>
<path d="M65.3615 30.2469C64.4786 29.8761 63.8959 29.364 63.6134 28.7107C63.3309 28.0397 63.2338 27.3246 63.3221 26.5653C63.4103 25.7884 63.6222 25.0115 63.9577 24.2346C64.3109 23.4576 64.6728 22.769 65.0436 22.1686C65.1672 21.9568 65.3968 21.5948 65.7323 21.0827C66.0678 20.5707 66.4209 20.0321 66.7917 19.4671C67.1802 18.8844 67.5422 18.3458 67.8776 17.8514C68.2308 17.3394 68.478 16.9862 68.6192 16.792C68.8311 15.4324 69.2549 14.3553 69.8906 13.5607C70.5262 12.7485 71.2414 12.1923 72.0359 11.8921C72.8482 11.5919 73.6781 11.5301 74.5256 11.7067C75.3732 11.8656 76.1148 12.2452 76.7504 12.8456C77.3861 13.4283 77.8452 14.214 78.1277 15.2028C78.4102 16.1916 78.3837 17.3482 78.0482 18.6725C77.7304 19.9968 77.0418 21.48 75.9823 23.1221C74.9229 24.7643 73.3691 26.5388 71.3208 28.4458C70.9677 28.7813 70.5439 29.108 70.0495 29.4258C69.5727 29.726 69.0607 29.9732 68.5133 30.1674C67.9836 30.3616 67.445 30.4764 66.8977 30.5117C66.3503 30.547 65.8382 30.4588 65.3615 30.2469ZM64.4345 28.1545C64.611 28.9491 64.9465 29.4435 65.4409 29.6377C65.9353 29.8319 66.518 29.7966 67.189 29.5317C67.86 29.2669 68.5928 28.8166 69.3873 28.181C70.1819 27.5453 70.9765 26.8037 71.7711 25.9561C72.5657 25.0909 73.3249 24.1551 74.0489 23.1486C74.7728 22.1422 75.3997 21.1445 75.9294 20.1557C76.4768 19.1669 76.8917 18.2222 77.1742 17.3217C77.4567 16.4212 77.545 15.6443 77.4391 14.991C77.3508 14.32 77.033 13.8167 76.4856 13.4813C75.9559 13.1458 75.1348 13.0486 74.0224 13.1899C73.6163 13.5431 73.0777 14.0639 72.4067 14.7526C71.7358 15.4236 71.0206 16.1916 70.2614 17.0569C69.5021 17.9221 68.7428 18.8579 67.9836 19.8644C67.2243 20.8532 66.5533 21.842 65.9706 22.8308C65.388 23.8196 64.9465 24.7731 64.6464 25.6913C64.3462 26.6095 64.2756 27.4305 64.4345 28.1545Z" fill="#0078A3"/>
<path d="M78.2601 30.2469C77.7481 29.8761 77.4126 29.4081 77.2537 28.8431C77.1124 28.2781 77.0948 27.6689 77.2007 27.0156C77.3066 26.3446 77.492 25.656 77.7569 24.9497C78.0394 24.2434 78.3396 23.5636 78.6574 22.9103C78.9929 22.2569 79.3108 21.6566 79.6109 21.1092C79.9288 20.5618 80.176 20.1116 80.3525 19.7584C80.4055 19.6525 80.5291 19.3965 80.7233 18.9903C80.9352 18.5842 81.1559 18.1428 81.3855 17.666C81.615 17.1893 81.8269 16.7479 82.0211 16.3417C82.233 15.918 82.3655 15.6531 82.4184 15.5472C82.4714 15.4589 82.542 15.2911 82.6303 15.0439C82.7363 14.7791 82.851 14.4965 82.9746 14.1964C83.0982 13.8962 83.2307 13.6137 83.3719 13.3488C83.5308 13.0663 83.6898 12.8632 83.8487 12.7396C84.0253 12.616 84.193 12.5984 84.3519 12.6867C84.5285 12.775 84.6962 13.0398 84.8551 13.4813C84.7845 13.6578 84.6079 14.011 84.3254 14.5407C84.0606 15.0704 83.7427 15.7061 83.3719 16.4477C83.0011 17.1893 82.5862 18.0104 82.1271 18.9109C81.6857 19.8114 81.2531 20.7207 80.8293 21.6389C80.4055 22.5571 80.0082 23.4576 79.6374 24.3405C79.2666 25.2057 78.9576 26.0003 78.7104 26.7242C78.4809 27.4305 78.3396 28.022 78.2866 28.4988C78.2513 28.9579 78.3396 29.2404 78.5515 29.3463C78.7987 29.4699 79.1165 29.5229 79.505 29.5053C79.9111 29.4699 80.326 29.417 80.7498 29.3463C81.1736 29.2757 81.5885 29.2051 81.9947 29.1345C82.4008 29.0462 82.7539 29.0109 83.0541 29.0285C83.1247 29.1874 83.0718 29.3463 82.8952 29.5053C82.7186 29.6465 82.4714 29.7789 82.1536 29.9026C81.8357 30.0085 81.4649 30.1056 81.0412 30.1939C80.635 30.2645 80.2378 30.3175 79.8493 30.3528C79.4785 30.3881 79.143 30.397 78.8428 30.3793C78.5603 30.3616 78.3661 30.3175 78.2601 30.2469Z" fill="#0078A3"/>
<path d="M83.9663 30.2469C84.6902 27.9161 85.3436 26.0709 85.9262 24.7113C86.5266 23.334 87.021 22.3717 87.4095 21.8243C87.8156 21.277 88.0893 21.1004 88.2305 21.2946C88.3718 21.4888 88.3541 21.9832 88.1776 22.7778C88.0186 23.5724 87.6655 24.6407 87.1181 25.9826C86.5884 27.3069 85.838 28.8255 84.8668 30.5382C84.7255 30.5912 84.5578 30.6 84.3636 30.5647C84.1693 30.5294 84.0369 30.4234 83.9663 30.2469ZM88.6013 17.5071C88.566 17.4188 88.5484 17.2599 88.5484 17.0304C88.5484 16.8008 88.566 16.6596 88.6013 16.6066C89.0074 16.4653 89.3164 16.4477 89.5283 16.5536C89.7402 16.6596 89.8727 16.8185 89.9256 17.0304C89.9786 17.2246 89.9698 17.4365 89.8991 17.666C89.8462 17.8956 89.749 18.0722 89.6078 18.1958C89.4665 18.3017 89.2988 18.3194 89.1046 18.2487C88.928 18.1604 88.7602 17.9132 88.6013 17.5071Z" fill="#0078A3"/>
<path d="M90.1492 29.929C89.7784 29.7171 89.5135 29.3817 89.3546 28.9226C89.1957 28.4635 89.1074 27.9426 89.0897 27.3599C89.0721 26.7772 89.1074 26.168 89.1957 25.5324C89.284 24.8967 89.3899 24.2787 89.5135 23.6783C89.6371 23.078 89.7607 22.5395 89.8843 22.0627C90.0079 21.586 90.0962 21.2152 90.1492 20.9503C90.2375 20.8973 90.3257 20.8973 90.414 20.9503C90.52 21.0033 90.6171 21.0827 90.7054 21.1887C90.8113 21.277 90.8908 21.3652 90.9437 21.4535C91.0144 21.5242 91.0497 21.5595 91.0497 21.5595C91.1027 22.1775 91.1027 22.7867 91.0497 23.387C91.0144 23.9697 90.9614 24.5524 90.8908 25.1351C90.8378 25.7178 90.7848 26.3093 90.7319 26.9096C90.6965 27.51 90.6965 28.1192 90.7319 28.7372C90.8731 29.002 91.1645 29.0109 91.6059 28.7637C92.0473 28.4988 92.5859 28.0838 93.2215 27.5188C93.8572 26.9361 94.5458 26.2563 95.2875 25.4794C96.0467 24.6848 96.7883 23.8991 97.5123 23.1221C98.2539 22.3452 98.9513 21.6213 99.6047 20.9503C100.258 20.2617 100.805 19.7408 101.247 19.3876C101.706 19.0168 102.024 18.8667 102.2 18.9374C102.377 18.9903 102.35 19.3611 102.121 20.0498C101.697 20.4206 101.194 20.9768 100.611 21.7184C100.028 22.46 99.3928 23.2634 98.7041 24.1286C98.0155 24.9762 97.3004 25.8237 96.5588 26.6713C95.8172 27.5188 95.0667 28.2516 94.3075 28.8696C93.5659 29.4699 92.8419 29.8937 92.1356 30.1409C91.4293 30.3705 90.7672 30.2998 90.1492 29.929Z" fill="#0078A3"/>
<path d="M103.192 30.2469C102.662 30.0703 102.256 29.8054 101.974 29.4523C101.709 29.0815 101.532 28.6754 101.444 28.2339C101.356 27.7925 101.338 27.3334 101.391 26.8567C101.461 26.3623 101.567 25.8943 101.709 25.4529C102.238 24.8879 102.83 24.2434 103.483 23.5194C104.154 22.7778 104.861 22.0539 105.602 21.3476C106.344 20.6413 107.112 19.988 107.906 19.3876C108.719 18.7696 109.54 18.3017 110.37 17.9839C110.652 17.8603 110.873 17.8691 111.032 18.0104C111.208 18.134 111.332 18.337 111.403 18.6195C111.473 18.902 111.5 19.2287 111.482 19.5995C111.482 19.9703 111.456 20.3323 111.403 20.6854C111.35 21.0386 111.279 21.3564 111.191 21.6389C111.102 21.9214 111.014 22.1157 110.926 22.2216C110.714 22.4688 110.299 22.7602 109.681 23.0957C109.081 23.4311 108.41 23.802 107.668 24.2081C106.926 24.5965 106.185 25.0026 105.443 25.4264C104.702 25.8502 104.092 26.274 103.616 26.6978C103.139 27.1039 102.856 27.51 102.768 27.9161C102.68 28.3222 102.927 28.693 103.51 29.0285C104.11 29.0991 104.834 29.0727 105.682 28.9491C106.547 28.8078 107.421 28.6312 108.304 28.4193C109.204 28.1898 110.069 27.9602 110.899 27.7307C111.729 27.4835 112.409 27.2893 112.939 27.148L113.257 27.4394C112.868 27.9514 112.232 28.4193 111.35 28.8431C110.467 29.2669 109.513 29.62 108.489 29.9026C107.465 30.1674 106.467 30.344 105.496 30.4323C104.525 30.5029 103.757 30.4411 103.192 30.2469ZM109.522 20.1292C109.504 20.1116 109.372 20.191 109.125 20.3676C108.878 20.5265 108.569 20.7472 108.198 21.0298C107.845 21.2946 107.456 21.5948 107.032 21.9303C106.626 22.2481 106.247 22.5483 105.893 22.8308C105.558 23.1133 105.275 23.3605 105.046 23.5724C104.816 23.7666 104.719 23.8638 104.755 23.8638C105.037 23.9167 105.399 23.8814 105.841 23.7578C106.3 23.6165 106.768 23.4223 107.244 23.1751C107.739 22.9279 108.207 22.6542 108.648 22.3541C109.089 22.0362 109.434 21.7272 109.681 21.427C109.946 21.1269 110.078 20.862 110.078 20.6325C110.096 20.4029 109.911 20.2352 109.522 20.1292Z" fill="#0078A3"/>
<path d="M112.753 30.2469C113.477 27.9161 114.131 26.0709 114.713 24.7113C115.314 23.334 115.808 22.3717 116.197 21.8243C116.603 21.277 116.876 21.1004 117.018 21.2946C117.159 21.4888 117.141 21.9832 116.965 22.7778C116.806 23.5724 116.453 24.6407 115.905 25.9826C115.375 27.3069 114.625 28.8255 113.654 30.5382C113.513 30.5912 113.345 30.6 113.151 30.5647C112.956 30.5294 112.824 30.4234 112.753 30.2469ZM117.388 17.5071C117.353 17.4188 117.335 17.2599 117.335 17.0304C117.335 16.8008 117.353 16.6596 117.388 16.6066C117.795 16.4653 118.104 16.4477 118.315 16.5536C118.527 16.6596 118.66 16.8185 118.713 17.0304C118.766 17.2246 118.757 17.4365 118.686 17.666C118.633 17.8956 118.536 18.0722 118.395 18.1958C118.254 18.3017 118.086 18.3194 117.892 18.2487C117.715 18.1604 117.547 17.9132 117.388 17.5071Z" fill="#0078A3"/>
<path d="M118.195 30.2469C118.159 30.2292 118.159 30.0262 118.195 29.6377C118.248 29.2316 118.318 28.7283 118.407 28.128C118.495 27.5276 118.61 26.8655 118.751 26.1415C118.892 25.4176 119.042 24.729 119.201 24.0756C119.36 23.4047 119.528 22.822 119.704 22.3276C119.899 21.8155 120.084 21.4624 120.261 21.2681C120.384 21.1445 120.508 21.1445 120.631 21.2681C120.755 21.3741 120.879 21.5153 121.002 21.6919C121.126 21.8508 121.249 22.0009 121.373 22.1422C121.497 22.2658 121.629 22.2746 121.77 22.1686C122.265 21.48 122.803 20.8267 123.386 20.2087C123.986 19.573 124.648 19.0256 125.372 18.5666C125.443 18.5136 125.637 18.4341 125.955 18.3282C126.273 18.2046 126.635 18.0898 127.041 17.9839C127.447 17.8603 127.862 17.7632 128.286 17.6925C128.727 17.6042 129.098 17.5689 129.398 17.5866C129.716 17.5866 129.928 17.666 130.034 17.825C130.157 17.9662 130.104 18.2134 129.875 18.5666C128.815 18.5842 127.827 18.8932 126.909 19.4936C125.99 20.0939 125.143 20.8355 124.366 21.7184C123.589 22.6013 122.883 23.5636 122.247 24.6054C121.611 25.6295 121.055 26.583 120.578 27.4658C120.119 28.3487 119.731 29.0815 119.413 29.6642C119.113 30.2469 118.892 30.5382 118.751 30.5382C118.733 30.5382 118.654 30.5029 118.512 30.4323C118.371 30.344 118.265 30.2822 118.195 30.2469Z" fill="#0078A3"/>
<path d="M127.469 29.929C127.045 29.5759 126.807 29.055 126.754 28.3664C126.719 27.6777 126.816 26.9008 127.045 26.0356C127.292 25.1704 127.646 24.2699 128.105 23.334C128.581 22.3805 129.129 21.48 129.747 20.6325C130.365 19.7673 131.036 18.9992 131.76 18.3282C132.484 17.6395 133.208 17.1363 133.932 16.8185C134.655 16.483 135.362 16.3682 136.05 16.4742C136.739 16.5625 137.366 16.9597 137.931 17.666C138.284 18.1075 138.496 18.5577 138.567 19.0168C138.637 19.4583 138.628 19.9173 138.54 20.3941C138.452 20.8532 138.311 21.3299 138.116 21.8243C137.922 22.3011 137.728 22.7867 137.534 23.2811C137.357 23.7755 137.207 24.2787 137.083 24.7908C136.977 25.3028 136.96 25.8237 137.03 26.3534C137.119 27.0244 137.419 27.4217 137.931 27.5453C138.443 27.6689 139.052 27.6336 139.758 27.4394C140.482 27.2451 141.242 26.9361 142.036 26.5123C142.831 26.0886 143.564 25.6648 144.235 25.241C144.923 24.8172 145.488 24.4464 145.93 24.1286C146.389 23.8108 146.618 23.6519 146.618 23.6519C147.113 23.5459 147.386 23.5812 147.439 23.7578C147.51 23.9167 147.413 24.1639 147.148 24.4994C146.901 24.8172 146.521 25.188 146.009 25.6118C145.497 26.0179 144.914 26.4152 144.261 26.8037C143.608 27.1922 142.91 27.5453 142.169 27.8631C141.427 28.181 140.703 28.4017 139.997 28.5253C139.291 28.6312 138.62 28.6224 137.984 28.4988C137.366 28.3575 136.854 28.0397 136.448 27.5453C136.253 27.3334 136.103 27.1215 135.997 26.9096C135.909 26.6978 135.759 26.5123 135.547 26.3534C135.282 26.6006 134.964 26.9273 134.594 27.3334C134.223 27.7219 133.817 28.1192 133.375 28.5253C132.952 28.9137 132.492 29.2845 131.998 29.6377C131.521 29.9908 131.027 30.2557 130.515 30.4323C130.003 30.6088 129.482 30.6706 128.952 30.6177C128.44 30.5647 127.946 30.3352 127.469 29.929ZM127.76 29.0285C127.919 29.5935 128.272 29.8584 128.82 29.8231C129.367 29.7701 130.003 29.4964 130.727 29.002C131.451 28.5076 132.201 27.8366 132.978 26.9891C133.755 26.1239 134.452 25.1704 135.07 24.1286C135.688 23.0692 136.156 21.9568 136.474 20.7914C136.81 19.626 136.898 18.4783 136.739 17.3482C136.315 17.0127 135.786 17.0039 135.15 17.3217C134.514 17.6219 133.834 18.1251 133.11 18.8314C132.404 19.5201 131.698 20.3499 130.992 21.3211C130.303 22.2746 129.694 23.2457 129.164 24.2346C128.634 25.2057 128.228 26.1239 127.946 26.9891C127.681 27.8543 127.619 28.5341 127.76 29.0285Z" fill="#0078A3"/>
<path d="M23.7693 46.4554H24.8147C24.8772 46.7776 25.1467 46.9387 25.6234 46.9387C26.11 46.9387 26.3532 46.822 26.3532 46.5885C26.3532 46.5064 26.3171 46.4406 26.2448 46.3913C26.1724 46.3387 26.0541 46.3009 25.8897 46.2779L25.2585 46.1842C24.772 46.1086 24.4169 45.982 24.1934 45.8045C23.9731 45.627 23.863 45.3837 23.863 45.0747C23.863 44.7328 24.0175 44.4665 24.3265 44.2758C24.6388 44.0851 25.0678 43.9898 25.6136 43.9898C26.6228 43.9898 27.1883 44.3432 27.3099 45.05L26.299 45.1486C26.2464 45.004 26.1642 44.9004 26.0524 44.838C25.9407 44.7722 25.7829 44.7393 25.579 44.7393C25.3621 44.7393 25.1944 44.7656 25.0761 44.8182C24.961 44.8708 24.9035 44.9465 24.9035 45.0451C24.9035 45.1273 24.9347 45.1897 24.9972 45.2325C25.0596 45.2752 25.1747 45.3097 25.3423 45.336L26.1116 45.4593C26.5686 45.5316 26.899 45.6549 27.1028 45.8291C27.3066 46.0001 27.4085 46.2417 27.4085 46.554C27.4085 46.9288 27.2573 47.2115 26.9548 47.4022C26.6524 47.5929 26.2069 47.6882 25.6185 47.6882C24.4613 47.6882 23.8449 47.2773 23.7693 46.4554Z" fill="#FF9A2E"/>
<path d="M31.3921 47.6882C30.9581 47.6882 30.585 47.6142 30.2727 47.4663C29.9604 47.3184 29.7188 47.1063 29.5478 46.8302C29.3802 46.554 29.2963 46.2236 29.2963 45.839C29.2963 45.4544 29.3818 45.124 29.5527 44.8478C29.7237 44.5717 29.967 44.3596 30.2826 44.2117C30.5982 44.0638 30.9746 43.9898 31.4118 43.9898C31.8458 43.9898 32.2189 44.0638 32.5312 44.2117C32.8435 44.3596 33.0835 44.5717 33.2511 44.8478C33.4221 45.124 33.5076 45.4544 33.5076 45.839C33.5076 46.2236 33.4221 46.554 33.2511 46.8302C33.0802 47.1063 32.8369 47.3184 32.5213 47.4663C32.2057 47.6142 31.8293 47.6882 31.3921 47.6882ZM32.403 45.839C32.403 45.5234 32.3142 45.2801 32.1367 45.1092C31.9625 44.9349 31.7175 44.8478 31.4019 44.8478C31.0863 44.8478 30.8398 44.9349 30.6623 45.1092C30.488 45.2834 30.4009 45.5267 30.4009 45.839C30.4009 46.1546 30.488 46.3995 30.6623 46.5738C30.8398 46.7447 31.0863 46.8302 31.4019 46.8302C31.7175 46.8302 31.9625 46.7431 32.1367 46.5688C32.3142 46.3946 32.403 46.1513 32.403 45.839Z" fill="#FF9A2E"/>
<path d="M35.6287 44.0786H36.6939V46.7365H38.6959L38.5874 47.5994H35.6287V44.0786Z" fill="#FF9A2E"/>
<path d="M41.6492 46.1398C41.6492 46.3765 41.7084 46.5507 41.8267 46.6625C41.9483 46.7743 42.139 46.8302 42.3987 46.8302C42.6617 46.8302 42.8524 46.7743 42.9707 46.6625C43.0924 46.5507 43.1532 46.3765 43.1532 46.1398V44.0786H44.2183V46.056C44.2183 46.6346 44.0622 47.0521 43.7499 47.3085C43.4376 47.5616 42.9872 47.6882 42.3987 47.6882C41.8136 47.6882 41.3648 47.5616 41.0525 47.3085C40.7402 47.0521 40.584 46.6346 40.584 46.056V44.0786H41.6492V46.1398Z" fill="#FF9A2E"/>
<path d="M50.1743 45.2423L49.124 45.3557C49.0615 45.1749 48.9678 45.0451 48.8429 44.9662C48.718 44.8873 48.5487 44.8478 48.335 44.8478C48.0424 44.8478 47.8139 44.9333 47.6495 45.1043C47.4852 45.2719 47.403 45.5168 47.403 45.839C47.403 46.1612 47.4852 46.4077 47.6495 46.5787C47.8172 46.7463 48.0522 46.8302 48.3547 46.8302C48.8215 46.8302 49.096 46.6494 49.1782 46.2877H50.2433C50.2006 46.7316 50.0099 47.0767 49.6713 47.3233C49.336 47.5666 48.8889 47.6882 48.33 47.6882C47.8829 47.6882 47.5082 47.6093 47.2057 47.4515C46.9066 47.2937 46.6797 47.0767 46.5252 46.8006C46.374 46.5212 46.2984 46.2006 46.2984 45.839C46.2984 45.4872 46.374 45.1716 46.5252 44.8922C46.6797 44.6128 46.9082 44.3925 47.2107 44.2314C47.5131 44.0703 47.8895 43.9898 48.3399 43.9898C49.3557 43.9898 49.9672 44.4073 50.1743 45.2423ZM48.0736 47.491L48.5421 47.5994L48.4484 47.8164C48.6555 47.8394 48.8084 47.8887 48.907 47.9644C49.0056 48.0433 49.0549 48.1452 49.0549 48.2701C49.0549 48.4147 48.9826 48.5282 48.838 48.6103C48.6933 48.6925 48.4895 48.7336 48.2265 48.7336C47.9865 48.7336 47.7975 48.7106 47.6594 48.6646V48.2652C47.7416 48.2783 47.8139 48.2882 47.8764 48.2947C47.9421 48.3046 48.0046 48.3095 48.0638 48.3095C48.169 48.3095 48.2446 48.2997 48.2906 48.28C48.3399 48.2635 48.3646 48.2372 48.3646 48.2011C48.3646 48.155 48.335 48.1238 48.2758 48.1074C48.2199 48.0909 48.1229 48.0827 47.9849 48.0827H47.8123L48.0736 47.491Z" fill="#FF9A2E"/>
<path d="M54.2076 47.6882C53.7736 47.6882 53.4005 47.6142 53.0882 47.4663C52.7759 47.3184 52.5343 47.1063 52.3633 46.8302C52.1956 46.554 52.1118 46.2236 52.1118 45.839C52.1118 45.4544 52.1973 45.124 52.3682 44.8478C52.5392 44.5717 52.7825 44.3596 53.0981 44.2117C53.4137 44.0638 53.7901 43.9898 54.2273 43.9898C54.6612 43.9898 55.0344 44.0638 55.3467 44.2117C55.659 44.3596 55.899 44.5717 56.0666 44.8478C56.2376 45.124 56.3231 45.4544 56.3231 45.839C56.3231 46.2236 56.2376 46.554 56.0666 46.8302C55.8957 47.1063 55.6524 47.3184 55.3368 47.4663C55.0212 47.6142 54.6448 47.6882 54.2076 47.6882ZM55.2185 45.839C55.2185 45.5234 55.1297 45.2801 54.9522 45.1092C54.778 44.9349 54.533 44.8478 54.2174 44.8478C53.9018 44.8478 53.6553 44.9349 53.4778 45.1092C53.3035 45.2834 53.2164 45.5267 53.2164 45.839C53.2164 46.1546 53.3035 46.3995 53.4778 46.5738C53.6553 46.7447 53.9018 46.8302 54.2174 46.8302C54.533 46.8302 54.778 46.7431 54.9522 46.5688C55.1297 46.3946 55.2185 46.1513 55.2185 45.839ZM53.103 43.7876C53.103 43.495 53.1572 43.2846 53.2657 43.1564C53.3742 43.0282 53.5369 42.9641 53.7539 42.9641C53.9117 42.9641 54.0991 43.0184 54.3161 43.1268C54.4015 43.1696 54.4673 43.1992 54.5133 43.2156C54.5593 43.232 54.6004 43.2403 54.6366 43.2403C54.6991 43.2403 54.7401 43.2205 54.7599 43.1811C54.7796 43.1383 54.7895 43.071 54.7895 42.9789H55.3763C55.3763 43.2616 55.322 43.4704 55.2135 43.6052C55.1051 43.7367 54.9423 43.8024 54.7254 43.8024C54.5708 43.8024 54.3884 43.7498 54.178 43.6446C54.0169 43.5657 53.9051 43.5263 53.8427 43.5263C53.7835 43.5263 53.7424 43.5493 53.7194 43.5953C53.6997 43.638 53.6898 43.7021 53.6898 43.7876H53.103Z" fill="#FF9A2E"/>
<path d="M58.4442 44.0786H61.5262V44.8528H59.4847V45.4248H61.4276V46.199H59.4847V46.8252H61.6446L61.5459 47.5994H58.4442V44.0786Z" fill="#FF9A2E"/>
<path d="M63.4616 46.4554H64.5071C64.5695 46.7776 64.8391 46.9387 65.3158 46.9387C65.8023 46.9387 66.0456 46.822 66.0456 46.5885C66.0456 46.5064 66.0094 46.4406 65.9371 46.3913C65.8648 46.3387 65.7464 46.3009 65.5821 46.2779L64.9509 46.1842C64.4643 46.1086 64.1093 45.982 63.8857 45.8045C63.6655 45.627 63.5553 45.3837 63.5553 45.0747C63.5553 44.7328 63.7098 44.4665 64.0189 44.2758C64.3312 44.0851 64.7602 43.9898 65.3059 43.9898C66.3152 43.9898 66.8806 44.3432 67.0022 45.05L65.9913 45.1486C65.9387 45.004 65.8566 44.9004 65.7448 44.838C65.633 44.7722 65.4752 44.7393 65.2714 44.7393C65.0544 44.7393 64.8868 44.7656 64.7684 44.8182C64.6533 44.8708 64.5958 44.9465 64.5958 45.0451C64.5958 45.1273 64.627 45.1897 64.6895 45.2325C64.752 45.2752 64.867 45.3097 65.0347 45.336L65.804 45.4593C66.2609 45.5316 66.5913 45.6549 66.7951 45.8291C66.999 46.0001 67.1009 46.2417 67.1009 46.554C67.1009 46.9288 66.9496 47.2115 66.6472 47.4022C66.3447 47.5929 65.8993 47.6882 65.3108 47.6882C64.1537 47.6882 63.5373 47.2773 63.4616 46.4554Z" fill="#FF9A2E"/>
<path d="M71.9646 44.0786H75.0466V44.8528H73.0051V45.4248H74.948V46.199H73.0051V46.8252H75.1649L75.0663 47.5994H71.9646V44.0786Z" fill="#FF9A2E"/>
<path d="M77.2483 44.0786H78.915C79.6251 44.0786 80.161 44.2281 80.5226 44.5273C80.8842 44.8232 81.065 45.2604 81.065 45.839C81.065 46.3979 80.876 46.8318 80.4979 47.1408C80.1199 47.4466 79.5775 47.5994 78.8706 47.5994H77.2483V44.0786ZM78.8953 46.7562C79.6218 46.7562 79.9851 46.4488 79.9851 45.8341C79.9851 45.2259 79.635 44.9218 78.9348 44.9218H78.2986V46.7562H78.8953Z" fill="#FF9A2E"/>
<path d="M84.2174 46.1398C84.2174 46.3765 84.2766 46.5507 84.3949 46.6625C84.5166 46.7743 84.7073 46.8302 84.967 46.8302C85.23 46.8302 85.4206 46.7743 85.539 46.6625C85.6606 46.5507 85.7214 46.3765 85.7214 46.1398V44.0786H86.7866V46.056C86.7866 46.6346 86.6304 47.0521 86.3181 47.3085C86.0058 47.5616 85.5554 47.6882 84.967 47.6882C84.3818 47.6882 83.9331 47.5616 83.6208 47.3085C83.3084 47.0521 83.1523 46.6346 83.1523 46.056V44.0786H84.2174V46.1398Z" fill="#FF9A2E"/>
<path d="M92.7426 45.2423L91.6922 45.3557C91.6297 45.1749 91.536 45.0451 91.4111 44.9662C91.2862 44.8873 91.1169 44.8478 90.9032 44.8478C90.6106 44.8478 90.3821 44.9333 90.2178 45.1043C90.0534 45.2719 89.9712 45.5168 89.9712 45.839C89.9712 46.1612 90.0534 46.4077 90.2178 46.5787C90.3854 46.7463 90.6205 46.8302 90.9229 46.8302C91.3898 46.8302 91.6643 46.6494 91.7465 46.2877H92.8116C92.7689 46.7316 92.5782 47.0767 92.2396 47.3233C91.9043 47.5666 91.4572 47.6882 90.8983 47.6882C90.4512 47.6882 90.0764 47.6093 89.774 47.4515C89.4748 47.2937 89.248 47.0767 89.0935 46.8006C88.9422 46.5212 88.8666 46.2006 88.8666 45.839C88.8666 45.4872 88.9422 45.1716 89.0935 44.8922C89.248 44.6128 89.4765 44.3925 89.7789 44.2314C90.0814 44.0703 90.4578 43.9898 90.9081 43.9898C91.924 43.9898 92.5354 44.4073 92.7426 45.2423Z" fill="#FF9A2E"/>
<path d="M95.8912 44.0786H97.1339L98.6625 47.5994H97.558L97.2966 46.9584H95.689L95.4425 47.5994H94.3625L95.8912 44.0786ZM97.0007 46.1694L96.4977 44.8824L95.9948 46.1694H97.0007Z" fill="#FF9A2E"/>
<path d="M104.09 45.2423L103.04 45.3557C102.977 45.1749 102.884 45.0451 102.759 44.9662C102.634 44.8873 102.464 44.8478 102.251 44.8478C101.958 44.8478 101.73 44.9333 101.565 45.1043C101.401 45.2719 101.319 45.5168 101.319 45.839C101.319 46.1612 101.401 46.4077 101.565 46.5787C101.733 46.7463 101.968 46.8302 102.27 46.8302C102.737 46.8302 103.012 46.6494 103.094 46.2877H104.159C104.116 46.7316 103.926 47.0767 103.587 47.3233C103.252 47.5666 102.805 47.6882 102.246 47.6882C101.799 47.6882 101.424 47.6093 101.122 47.4515C100.822 47.2937 100.596 47.0767 100.441 46.8006C100.29 46.5212 100.214 46.2006 100.214 45.839C100.214 45.4872 100.29 45.1716 100.441 44.8922C100.596 44.6128 100.824 44.3925 101.126 44.2314C101.429 44.0703 101.805 43.9898 102.256 43.9898C103.272 43.9898 103.883 44.4073 104.09 45.2423Z" fill="#FF9A2E"/>
<path d="M106.185 44.0786H107.251V47.5994H106.185V44.0786Z" fill="#FF9A2E"/>
<path d="M111.466 47.6882C111.032 47.6882 110.659 47.6142 110.347 47.4663C110.035 47.3184 109.793 47.1063 109.622 46.8302C109.454 46.554 109.371 46.2236 109.371 45.839C109.371 45.4544 109.456 45.124 109.627 44.8478C109.798 44.5717 110.041 44.3596 110.357 44.2117C110.672 44.0638 111.049 43.9898 111.486 43.9898C111.92 43.9898 112.293 44.0638 112.605 44.2117C112.918 44.3596 113.158 44.5717 113.325 44.8478C113.496 45.124 113.582 45.4544 113.582 45.839C113.582 46.2236 113.496 46.554 113.325 46.8302C113.154 47.1063 112.911 47.3184 112.596 47.4663C112.28 47.6142 111.904 47.6882 111.466 47.6882ZM112.477 45.839C112.477 45.5234 112.389 45.2801 112.211 45.1092C112.037 44.9349 111.792 44.8478 111.476 44.8478C111.161 44.8478 110.914 44.9349 110.737 45.1092C110.562 45.2834 110.475 45.5267 110.475 45.839C110.475 46.1546 110.562 46.3995 110.737 46.5738C110.914 46.7447 111.161 46.8302 111.476 46.8302C111.792 46.8302 112.037 46.7431 112.211 46.5688C112.389 46.3946 112.477 46.1513 112.477 45.839Z" fill="#FF9A2E"/>
<path d="M115.703 44.0786H116.65L118.41 46.1941V44.0786H119.416V47.5994H118.469L116.709 45.484V47.5994H115.703V44.0786Z" fill="#FF9A2E"/>
<path d="M122.873 44.0786H124.116L125.645 47.5994H124.54L124.279 46.9584H122.671L122.424 47.5994H121.345L122.873 44.0786ZM123.983 46.1694L123.48 44.8824L122.977 46.1694H123.983Z" fill="#FF9A2E"/>
<path d="M127.571 44.0786H128.636V47.5994H127.571V44.0786Z" fill="#FF9A2E"/>
<path d="M130.647 46.4554H131.693C131.755 46.7776 132.025 46.9387 132.502 46.9387C132.988 46.9387 133.231 46.822 133.231 46.5885C133.231 46.5064 133.195 46.4406 133.123 46.3913C133.051 46.3387 132.932 46.3009 132.768 46.2779L132.137 46.1842C131.65 46.1086 131.295 45.982 131.071 45.8045C130.851 45.627 130.741 45.3837 130.741 45.0747C130.741 44.7328 130.896 44.4665 131.205 44.2758C131.517 44.0851 131.946 43.9898 132.492 43.9898C133.501 43.9898 134.066 44.3432 134.188 45.05L133.177 45.1486C133.124 45.004 133.042 44.9004 132.931 44.838C132.819 44.7722 132.661 44.7393 132.457 44.7393C132.24 44.7393 132.072 44.7656 131.954 44.8182C131.839 44.8708 131.782 44.9465 131.782 45.0451C131.782 45.1273 131.813 45.1897 131.875 45.2325C131.938 45.2752 132.053 45.3097 132.22 45.336L132.99 45.4593C133.447 45.5316 133.777 45.6549 133.981 45.8291C134.185 46.0001 134.287 46.2417 134.287 46.554C134.287 46.9288 134.135 47.2115 133.833 47.4022C133.53 47.5929 133.085 47.6882 132.497 47.6882C131.339 47.6882 130.723 47.2773 130.647 46.4554Z" fill="#FF9A2E"/>
<path d="M41.2274 50.2426H44.3094V51.0168H42.2679V51.5888H44.2108V52.363H42.2679V52.9893H44.4277L44.3291 53.7635H41.2274V50.2426Z" fill="#FF9A2E"/>
<path d="M49.3292 50.2426H51.0798C52.135 50.2426 52.6627 50.6486 52.6627 51.4606C52.6627 51.8781 52.5263 52.1871 52.2534 52.3876C51.9838 52.5849 51.5729 52.6835 51.0206 52.6835H50.3598V53.7635H49.3292V50.2426ZM51.0009 51.8945C51.2146 51.8945 51.3724 51.8616 51.4743 51.7959C51.5762 51.7302 51.6271 51.6167 51.6271 51.4556C51.6271 51.3044 51.5778 51.1959 51.4792 51.1302C51.3806 51.0644 51.2244 51.0316 51.0107 51.0316H50.3598V51.8945H51.0009Z" fill="#FF9A2E"/>
<path d="M55.4399 50.2426H56.6826L58.2113 53.7635H57.1067L56.8453 53.1224H55.2377L54.9912 53.7635H53.9112L55.4399 50.2426ZM56.5494 52.3334L56.0465 51.0464L55.5435 52.3334H56.5494Z" fill="#FF9A2E"/>
<path d="M60.1374 50.2426H61.9471C63.0024 50.2426 63.5301 50.6321 63.5301 51.4113C63.5301 51.6611 63.4775 51.8649 63.3723 52.0227C63.2671 52.1772 63.1125 52.3005 62.9087 52.3926L63.7717 53.7635H62.6326L61.9373 52.5948H61.1335V53.7635H60.1374V50.2426ZM61.883 51.8354C62.1 51.8354 62.2578 51.8041 62.3564 51.7417C62.4583 51.6759 62.5093 51.5674 62.5093 51.4162C62.5093 51.265 62.4616 51.1581 62.3663 51.0957C62.271 51.0332 62.1132 51.002 61.8929 51.002H61.1335V51.8354H61.883Z" fill="#FF9A2E"/>
<path d="M66.9175 50.2426H68.1602L69.6888 53.7635H68.5842L68.3229 53.1224H66.7153L66.4687 53.7635H65.3888L66.9175 50.2426ZM68.027 52.3334L67.524 51.0464L67.021 52.3334H68.027Z" fill="#FF9A2E"/>
<path d="M75.6116 50.2426H76.8543L78.383 53.7635H77.2784L77.017 53.1224H75.4094L75.1629 53.7635H74.083L75.6116 50.2426ZM76.7211 52.3334L76.2182 51.0464L75.7152 52.3334H76.7211Z" fill="#FF9A2E"/>
<path d="M83.1272 50.2426H86.2092V51.0168H84.1677V51.5888H86.1106V52.363H84.1677V52.9893H86.3276L86.2289 53.7635H83.1272V50.2426Z" fill="#FF9A2E"/>
<path d="M88.1446 52.6194H89.19C89.2525 52.9416 89.5221 53.1027 89.9988 53.1027C90.4853 53.1027 90.7286 52.986 90.7286 52.7526C90.7286 52.6704 90.6924 52.6046 90.6201 52.5553C90.5478 52.5027 90.4294 52.4649 90.265 52.4419L89.6339 52.3482C89.1473 52.2726 88.7923 52.146 88.5687 51.9685C88.3484 51.791 88.2383 51.5477 88.2383 51.2387C88.2383 50.8968 88.3928 50.6305 88.7019 50.4398C89.0142 50.2491 89.4432 50.1538 89.9889 50.1538C90.9982 50.1538 91.5636 50.5072 91.6852 51.214L90.6743 51.3126C90.6217 51.168 90.5396 51.0644 90.4278 51.002C90.316 50.9362 90.1582 50.9034 89.9544 50.9034C89.7374 50.9034 89.5697 50.9297 89.4514 50.9823C89.3363 51.0349 89.2788 51.1105 89.2788 51.2091C89.2788 51.2913 89.31 51.3537 89.3725 51.3965C89.435 51.4392 89.55 51.4737 89.7177 51.5L90.487 51.6233C90.9439 51.6956 91.2743 51.8189 91.4781 51.9931C91.6819 52.1641 91.7839 52.4057 91.7839 52.718C91.7839 53.0928 91.6326 53.3755 91.3302 53.5662C91.0277 53.7569 90.5823 53.8522 89.9938 53.8522C88.8366 53.8522 88.2202 53.4413 88.1446 52.6194Z" fill="#FF9A2E"/>
<path d="M97.5476 51.4063L96.4972 51.5198C96.4348 51.3389 96.3411 51.2091 96.2162 51.1302C96.0912 51.0513 95.9219 51.0118 95.7083 51.0118C95.4157 51.0118 95.1872 51.0973 95.0228 51.2683C94.8584 51.4359 94.7763 51.6808 94.7763 52.003C94.7763 52.3252 94.8584 52.5717 95.0228 52.7427C95.1905 52.9104 95.4255 52.9942 95.728 52.9942C96.1948 52.9942 96.4693 52.8134 96.5515 52.4518H97.6166C97.5739 52.8956 97.3832 53.2407 97.0446 53.4873C96.7093 53.7306 96.2622 53.8522 95.7033 53.8522C95.2562 53.8522 94.8815 53.7733 94.579 53.6155C94.2798 53.4577 94.053 53.2407 93.8985 52.9646C93.7473 52.6852 93.6717 52.3646 93.6717 52.003C93.6717 51.6513 93.7473 51.3357 93.8985 51.0562C94.053 50.7768 94.2815 50.5565 94.5839 50.3954C94.8864 50.2344 95.2628 50.1538 95.7132 50.1538C96.729 50.1538 97.3405 50.5713 97.5476 51.4063Z" fill="#FF9A2E"/>
<path d="M99.6429 50.2426H101.453C102.508 50.2426 103.036 50.6321 103.036 51.4113C103.036 51.6611 102.983 51.8649 102.878 52.0227C102.773 52.1772 102.618 52.3005 102.414 52.3926L103.277 53.7635H102.138L101.443 52.5948H100.639V53.7635H99.6429V50.2426ZM101.389 51.8354C101.606 51.8354 101.763 51.8041 101.862 51.7417C101.964 51.6759 102.015 51.5674 102.015 51.4162C102.015 51.265 101.967 51.1581 101.872 51.0957C101.776 51.0332 101.619 51.002 101.398 51.002H100.639V51.8354H101.389Z" fill="#FF9A2E"/>
<path d="M105.201 50.2426H106.266V53.7635H105.201V50.2426Z" fill="#FF9A2E"/>
<path d="M109.506 51.1055H108.204V50.2426H111.873V51.1055H110.571V53.7635H109.506V51.1055Z" fill="#FF9A2E"/>
<path d="M114.443 50.2426H115.686L117.214 53.7635H116.11L115.848 53.1224H114.241L113.994 53.7635H112.914L114.443 50.2426ZM115.552 52.3334L115.049 51.0464L114.546 52.3334H115.552Z" fill="#FF9A2E"/>
</svg>
