<svg width="158" height="77" viewBox="0 0 158 77" fill="none" xmlns="http://www.w3.org/2000/svg">
<path d="M13.5051 30.2381C12.4307 29.8154 11.691 29.243 11.2859 28.5209C10.8808 27.7988 10.7135 26.9974 10.784 26.1168C10.872 25.2186 11.1538 24.2675 11.6294 23.2636C12.1225 22.2421 12.7213 21.2206 13.4258 20.1991C14.1479 19.1776 14.9405 18.1825 15.8035 17.2138C16.6665 16.2451 17.5207 15.3557 18.3661 14.5455C19.2115 13.7353 20.004 13.0309 20.7437 12.432C21.4835 11.8332 22.0823 11.3929 22.5402 11.1111C23.1742 10.7236 23.7026 10.5387 24.1253 10.5563C24.548 10.5563 24.8826 10.6884 25.1292 10.9526C25.3934 11.1992 25.5695 11.5514 25.6576 12.0093C25.7633 12.4496 25.8073 12.9252 25.7897 13.4359C25.7897 13.9291 25.7368 14.431 25.6312 14.9418C25.5431 15.4349 25.4198 15.8664 25.2613 16.2363C25.1204 16.6062 24.9619 16.8791 24.7858 17.0553C24.6273 17.2314 24.4687 17.2402 24.3102 17.0817C24.2926 16.9408 24.3102 16.7294 24.3631 16.4476C24.4159 16.1482 24.4776 15.8136 24.548 15.4437C24.6361 15.0739 24.7153 14.6952 24.7858 14.3077C24.8562 13.9203 24.9002 13.568 24.9179 13.251C24.9531 12.9164 24.9443 12.6346 24.8914 12.4056C24.8562 12.1767 24.7593 12.0446 24.6008 12.0093C23.9844 11.8508 23.2447 12.0005 22.3817 12.4585C21.5363 12.8988 20.6469 13.5416 19.7134 14.387C18.7976 15.2148 17.8817 16.1835 16.9659 17.293C16.0677 18.385 15.2487 19.5122 14.509 20.6746C13.7693 21.837 13.1616 22.973 12.6861 24.0826C12.2106 25.1746 11.9376 26.1432 11.8671 26.9886C11.8143 27.8164 11.9992 28.4593 12.4219 28.9172C12.8622 29.3575 13.6284 29.4984 14.7203 29.3399C15.7242 29.199 16.6489 28.8467 17.4943 28.2831C18.3573 27.7019 19.185 27.0679 19.9776 26.381C20.7878 25.6765 21.5891 24.9896 22.3817 24.3204C23.1742 23.6335 24.002 23.1139 24.865 22.7617C25.182 22.6384 25.4286 22.6824 25.6047 22.8938C25.7985 23.1051 25.8513 23.3605 25.7633 23.6599C25.6576 23.9593 25.3406 24.3556 24.8122 24.8487C24.3014 25.3419 23.6586 25.8614 22.8836 26.4074C22.1263 26.9358 21.2897 27.473 20.3739 28.0189C19.458 28.5473 18.5598 29.0052 17.6792 29.3927C16.8162 29.7802 16.006 30.062 15.2487 30.2381C14.509 30.4142 13.9278 30.4142 13.5051 30.2381Z" fill="#FF9A2E"/>
<path d="M26.4089 30.2381C26.3737 30.2205 26.3737 30.0179 26.4089 29.6305C26.4618 29.2254 26.5322 28.7234 26.6203 28.1246C26.7083 27.5258 26.8228 26.8653 26.9637 26.1432C27.1046 25.4211 27.2543 24.7342 27.4128 24.0826C27.5713 23.4133 27.7386 22.8321 27.9148 22.339C28.1085 21.8282 28.2934 21.476 28.4696 21.2822C28.5928 21.1589 28.7161 21.1589 28.8394 21.2822C28.9627 21.3879 29.086 21.5288 29.2093 21.7049C29.3326 21.8634 29.4559 22.0131 29.5791 22.154C29.7024 22.2773 29.8345 22.2861 29.9754 22.1805C30.4686 21.4936 31.0057 20.8419 31.5869 20.2255C32.1858 19.5914 32.8462 19.0455 33.5683 18.5875C33.6388 18.5347 33.8325 18.4555 34.1495 18.3498C34.4666 18.2265 34.8276 18.112 35.2327 18.0063C35.6378 17.8831 36.0517 17.7862 36.4744 17.7157C36.9147 17.6277 37.2845 17.5924 37.5839 17.6101C37.901 17.6101 38.1123 17.6893 38.218 17.8478C38.3413 17.9887 38.2884 18.2353 38.0595 18.5875C37.0027 18.6052 36.0164 18.9134 35.1006 19.5122C34.1848 20.111 33.3394 20.8507 32.5644 21.7313C31.7895 22.612 31.085 23.5718 30.4509 24.611C29.8169 25.6325 29.2621 26.5835 28.7866 27.4642C28.3287 28.3448 27.9412 29.0757 27.6242 29.6569C27.3248 30.2381 27.1046 30.5287 26.9637 30.5287C26.9461 30.5287 26.8668 30.4935 26.7259 30.423C26.585 30.335 26.4794 30.2733 26.4089 30.2381Z" fill="#FF9A2E"/>
<path d="M37.0144 30.2381C37.7365 27.9133 38.3881 26.0728 38.9693 24.7166C39.5681 23.3429 40.0613 22.383 40.4488 21.837C40.8538 21.291 41.1268 21.1149 41.2677 21.3086C41.4086 21.5024 41.391 21.9955 41.2149 22.7881C41.0564 23.5806 40.7041 24.6462 40.1582 25.9847C39.6298 27.3056 38.8813 28.8203 37.9126 30.5287C37.7717 30.5815 37.6044 30.5903 37.4106 30.5551C37.2169 30.5199 37.0848 30.4142 37.0144 30.2381ZM41.6376 17.5308C41.6024 17.4427 41.5848 17.2842 41.5848 17.0553C41.5848 16.8263 41.6024 16.6854 41.6376 16.6326C42.0427 16.4917 42.3509 16.4741 42.5622 16.5797C42.7736 16.6854 42.9057 16.8439 42.9585 17.0553C43.0114 17.249 43.0025 17.4604 42.9321 17.6893C42.8793 17.9183 42.7824 18.0944 42.6415 18.2177C42.5006 18.3234 42.3333 18.341 42.1395 18.2705C41.9634 18.1825 41.7961 17.9359 41.6376 17.5308Z" fill="#FF9A2E"/>
<path d="M42.4418 30.2381C42.2304 30.0972 42.2216 29.9123 42.4154 29.6833C42.6267 29.4367 42.9525 29.1814 43.3928 28.9172C43.8508 28.6354 44.3791 28.3448 44.9779 28.0454C45.5768 27.746 46.1492 27.4642 46.6951 27.2C47.2587 26.9358 47.7519 26.7068 48.1746 26.5131C48.5973 26.3017 48.8703 26.1432 48.9936 26.0376C49.5748 25.5444 49.8742 25.1393 49.8918 24.8223C49.927 24.4877 49.7861 24.2235 49.4691 24.0298C49.1521 23.8184 48.703 23.6599 48.1217 23.5542C47.5582 23.4309 46.9681 23.3253 46.3517 23.2372C45.7529 23.1315 45.1717 23.0259 44.6081 22.9202C44.0621 22.8145 43.6482 22.6736 43.3664 22.4975C43.0846 22.3214 42.9878 22.0924 43.0758 21.8106C43.1815 21.5112 43.569 21.1325 44.2382 20.6746C44.4848 20.4985 44.8459 20.2431 45.3214 19.9085C45.7969 19.5738 46.3077 19.2304 46.8537 18.8781C47.4173 18.5259 47.972 18.2089 48.518 17.9271C49.064 17.6453 49.5219 17.4604 49.8918 17.3723C50.0855 17.3371 50.2793 17.3547 50.473 17.4251C50.6843 17.4956 50.8517 17.6013 50.9749 17.7422C51.0982 17.8654 51.1511 18.0063 51.1334 18.1648C51.1334 18.3234 51.019 18.4643 50.79 18.5875C49.7861 19.1511 48.8174 19.6795 47.884 20.1727C46.9681 20.6658 46.0435 21.2294 45.11 21.8634C45.0572 22.0043 45.066 22.1276 45.1365 22.2333C45.2245 22.339 45.3214 22.4182 45.4271 22.4711C47.294 22.6648 48.6941 22.9378 49.6276 23.29C50.5787 23.6423 51.1775 24.0298 51.4241 24.4524C51.6882 24.8751 51.6618 25.3243 51.3448 25.7998C51.0278 26.2753 50.5522 26.7421 49.9182 27.2C49.3018 27.6579 48.5885 28.0894 47.7783 28.4945C46.9681 28.8996 46.1844 29.243 45.4271 29.5248C44.6873 29.8066 44.0357 30.0179 43.4721 30.1588C42.9085 30.2997 42.5651 30.3262 42.4418 30.2381Z" fill="#FF9A2E"/>
<path d="M65.3963 30.2381C64.5156 29.8682 63.9344 29.3575 63.6526 28.7058C63.3708 28.0366 63.274 27.3233 63.362 26.5659C63.4501 25.791 63.6614 25.016 63.9961 24.2411C64.3483 23.4662 64.7094 22.7793 65.0792 22.1805C65.2025 21.9691 65.4315 21.6081 65.7661 21.0973C66.1008 20.5865 66.453 20.0494 66.8229 19.4858C67.2103 18.9046 67.5714 18.3674 67.906 17.8742C68.2583 17.3635 68.5048 17.0112 68.6457 16.8175C68.8571 15.4614 69.2798 14.387 69.9138 13.5945C70.5479 12.7843 71.2612 12.2295 72.0537 11.9301C72.8639 11.6307 73.6917 11.569 74.5371 11.7452C75.3825 11.9037 76.1222 12.2823 76.7562 12.8812C77.3903 13.4624 77.8482 14.2461 78.13 15.2324C78.4118 16.2187 78.3854 17.3723 78.0507 18.6932C77.7337 20.0141 77.0468 21.4936 75.9901 23.1315C74.9333 24.7695 73.3835 26.5395 71.3404 28.4416C70.9882 28.7763 70.5655 29.1021 70.0723 29.4191C69.5968 29.7185 69.086 29.9651 68.5401 30.1588C68.0117 30.3526 67.4745 30.4671 66.9285 30.5023C66.3826 30.5375 65.8718 30.4494 65.3963 30.2381ZM64.4716 28.151C64.6477 28.9436 64.9824 29.4367 65.4755 29.6305C65.9687 29.8242 66.5499 29.789 67.2191 29.5248C67.8884 29.2606 68.6193 28.8115 69.4119 28.1775C70.2044 27.5434 70.997 26.8037 71.7895 25.9583C72.5821 25.0953 73.3394 24.1618 74.0615 23.1579C74.7836 22.154 75.4089 21.1589 75.9372 20.1727C76.4832 19.1864 76.8971 18.2441 77.1789 17.3459C77.4607 16.4476 77.5488 15.6727 77.4431 15.021C77.355 14.3518 77.038 13.8498 76.492 13.5152C75.9637 13.1806 75.1447 13.0837 74.0351 13.2246C73.63 13.5768 73.0928 14.0964 72.4236 14.7833C71.7543 15.4526 71.041 16.2187 70.2837 17.0817C69.5264 17.9447 68.769 18.8781 68.0117 19.8821C67.2544 20.8683 66.5851 21.8546 66.0039 22.8409C65.4227 23.8272 64.9824 24.7783 64.683 25.6941C64.3836 26.61 64.3131 27.4289 64.4716 28.151Z" fill="#FF9A2E"/>
<path d="M78.2621 30.2381C77.7513 29.8682 77.4167 29.4015 77.2582 28.8379C77.1173 28.2743 77.0997 27.6667 77.2053 27.015C77.311 26.3458 77.4959 25.6589 77.7601 24.9544C78.0419 24.2499 78.3413 23.5718 78.6583 22.9202C78.993 22.2685 79.31 21.6697 79.6094 21.1237C79.9264 20.5777 80.173 20.1286 80.3491 19.7764C80.402 19.6707 80.5253 19.4153 80.719 19.0102C80.9303 18.6052 81.1505 18.1648 81.3794 17.6893C81.6084 17.2138 81.8198 16.7735 82.0135 16.3684C82.2248 15.9457 82.3569 15.6815 82.4098 15.5758C82.4626 15.4878 82.5331 15.3205 82.6211 15.0739C82.7268 14.8097 82.8413 14.5279 82.9646 14.2285C83.0878 13.9291 83.2199 13.6473 83.3608 13.3831C83.5193 13.1013 83.6779 12.8988 83.8364 12.7755C84.0125 12.6522 84.1798 12.6346 84.3383 12.7226C84.5144 12.8107 84.6818 13.0749 84.8403 13.5152C84.7698 13.6913 84.5937 14.0436 84.3119 14.5719C84.0477 15.1003 83.7307 15.7343 83.3608 16.4741C82.991 17.2138 82.5771 18.0328 82.1192 18.931C81.6789 19.8292 81.2474 20.7362 80.8247 21.6521C80.402 22.5679 80.0057 23.4662 79.6358 24.3468C79.266 25.2098 78.9578 26.0023 78.7112 26.7244C78.4822 27.4289 78.3413 28.0189 78.2885 28.4945C78.2533 28.9524 78.3413 29.2342 78.5527 29.3399C78.7992 29.4632 79.1163 29.516 79.5037 29.4984C79.9088 29.4632 80.3227 29.4103 80.7454 29.3399C81.1681 29.2694 81.582 29.199 81.9871 29.1285C82.3922 29.0405 82.7444 29.0052 83.0438 29.0228C83.1143 29.1814 83.0614 29.3399 82.8853 29.4984C82.7092 29.6393 82.4626 29.7714 82.1456 29.8947C81.8286 30.0003 81.4587 30.0972 81.036 30.1853C80.6309 30.2557 80.2346 30.3085 79.8472 30.3438C79.4773 30.379 79.1427 30.3878 78.8433 30.3702C78.5615 30.3526 78.3677 30.3085 78.2621 30.2381Z" fill="#FF9A2E"/>
<path d="M83.9537 30.2381C84.6758 27.9133 85.3274 26.0728 85.9086 24.7166C86.5075 23.3429 87.0006 22.383 87.3881 21.837C87.7932 21.291 88.0662 21.1149 88.207 21.3086C88.3479 21.5024 88.3303 21.9955 88.1542 22.7881C87.9957 23.5806 87.6435 24.6462 87.0975 25.9847C86.5691 27.3056 85.8206 28.8203 84.8519 30.5287C84.711 30.5815 84.5437 30.5903 84.35 30.5551C84.1562 30.5199 84.0241 30.4142 83.9537 30.2381ZM88.5769 17.5308C88.5417 17.4427 88.5241 17.2842 88.5241 17.0553C88.5241 16.8263 88.5417 16.6854 88.5769 16.6326C88.982 16.4917 89.2902 16.4741 89.5016 16.5797C89.7129 16.6854 89.845 16.8439 89.8978 17.0553C89.9507 17.249 89.9419 17.4604 89.8714 17.6893C89.8186 17.9183 89.7217 18.0944 89.5808 18.2177C89.4399 18.3234 89.2726 18.341 89.0789 18.2705C88.9027 18.1825 88.7354 17.9359 88.5769 17.5308Z" fill="#FF9A2E"/>
<path d="M90.1208 29.9211C89.751 29.7097 89.4868 29.3751 89.3282 28.9172C89.1697 28.4593 89.0817 27.9397 89.0641 27.3585C89.0465 26.7773 89.0817 26.1697 89.1697 25.5356C89.2578 24.9016 89.3635 24.2851 89.4868 23.6863C89.6101 23.0875 89.7333 22.5503 89.8566 22.0748C89.9799 21.5993 90.068 21.2294 90.1208 20.9652C90.2089 20.9124 90.2969 20.9124 90.385 20.9652C90.4907 21.018 90.5875 21.0973 90.6756 21.203C90.7813 21.291 90.8605 21.3791 90.9134 21.4672C90.9838 21.5376 91.019 21.5728 91.019 21.5728C91.0719 22.1893 91.0719 22.7969 91.019 23.3957C90.9838 23.9769 90.931 24.5581 90.8605 25.1393C90.8077 25.7205 90.7549 26.3105 90.702 26.9094C90.6668 27.5082 90.6668 28.1158 90.702 28.7322C90.8429 28.9964 91.1335 29.0052 91.5738 28.7587C92.0141 28.4945 92.5513 28.0806 93.1854 27.517C93.8194 26.9358 94.5063 26.2577 95.246 25.4828C96.0033 24.6902 96.743 23.9065 97.4652 23.1315C98.2049 22.3566 98.9006 21.6345 99.5522 20.9652C100.204 20.2783 100.75 19.7588 101.19 19.4065C101.648 19.0367 101.965 18.887 102.141 18.9574C102.317 19.0102 102.291 19.3801 102.062 20.067C101.639 20.4368 101.137 20.9916 100.556 21.7313C99.9749 22.4711 99.3409 23.2724 98.654 24.1354C97.9671 24.9808 97.2538 25.8262 96.5141 26.6716C95.7744 27.517 95.0258 28.2479 94.2685 28.8643C93.5288 29.4632 92.8067 29.8859 92.1022 30.1324C91.3977 30.3614 90.7372 30.2909 90.1208 29.9211Z" fill="#FF9A2E"/>
<path d="M103.13 30.2381C102.602 30.062 102.197 29.7978 101.915 29.4455C101.651 29.0757 101.475 28.6706 101.387 28.2303C101.299 27.79 101.281 27.3321 101.334 26.8565C101.404 26.3634 101.51 25.8967 101.651 25.4564C102.179 24.8928 102.769 24.2499 103.421 23.5278C104.09 22.7881 104.795 22.066 105.534 21.3615C106.274 20.657 107.04 20.0053 107.833 19.4065C108.643 18.7901 109.462 18.3234 110.29 18.0063C110.572 17.8831 110.792 17.8919 110.95 18.0328C111.126 18.156 111.25 18.3586 111.32 18.6404C111.391 18.9222 111.417 19.248 111.399 19.6179C111.399 19.9877 111.373 20.3488 111.32 20.701C111.267 21.0533 111.197 21.3703 111.109 21.6521C111.021 21.9339 110.933 22.1276 110.845 22.2333C110.633 22.4799 110.219 22.7705 109.603 23.1051C109.004 23.4397 108.335 23.8096 107.595 24.2147C106.855 24.6022 106.116 25.0072 105.376 25.4299C104.636 25.8526 104.029 26.2753 103.553 26.698C103.077 27.1031 102.796 27.5082 102.708 27.9133C102.62 28.3184 102.866 28.6882 103.447 29.0228C104.046 29.0933 104.768 29.0669 105.614 28.9436C106.477 28.8027 107.348 28.6266 108.229 28.4152C109.127 28.1863 109.99 27.9573 110.818 27.7283C111.646 27.4818 112.324 27.288 112.852 27.1471L113.169 27.4377C112.782 27.9485 112.148 28.4152 111.267 28.8379C110.387 29.2606 109.436 29.6129 108.414 29.8947C107.393 30.1588 106.397 30.335 105.429 30.423C104.46 30.4935 103.694 30.4318 103.13 30.2381ZM109.444 20.1462C109.427 20.1286 109.295 20.2079 109.048 20.384C108.801 20.5425 108.493 20.7627 108.123 21.0445C107.771 21.3086 107.384 21.6081 106.961 21.9427C106.556 22.2597 106.177 22.5591 105.825 22.8409C105.49 23.1227 105.209 23.3693 104.98 23.5806C104.751 23.7744 104.654 23.8712 104.689 23.8712C104.971 23.9241 105.332 23.8889 105.772 23.7656C106.23 23.6247 106.697 23.4309 107.172 23.1844C107.665 22.9378 108.132 22.6648 108.573 22.3654C109.013 22.0484 109.356 21.7402 109.603 21.4407C109.867 21.1413 109.999 20.8771 109.999 20.6482C110.017 20.4192 109.832 20.2519 109.444 20.1462Z" fill="#FF9A2E"/>
<path d="M112.667 30.2381C113.39 27.9133 114.041 26.0728 114.622 24.7166C115.221 23.3429 115.714 22.383 116.102 21.837C116.507 21.291 116.78 21.1149 116.921 21.3086C117.062 21.5024 117.044 21.9955 116.868 22.7881C116.709 23.5806 116.357 24.6462 115.811 25.9847C115.283 27.3056 114.534 28.8203 113.566 30.5287C113.425 30.5815 113.257 30.5903 113.064 30.5551C112.87 30.5199 112.738 30.4142 112.667 30.2381ZM117.291 17.5308C117.255 17.4427 117.238 17.2842 117.238 17.0553C117.238 16.8263 117.255 16.6854 117.291 16.6326C117.696 16.4917 118.004 16.4741 118.215 16.5797C118.427 16.6854 118.559 16.8439 118.612 17.0553C118.664 17.249 118.656 17.4604 118.585 17.6893C118.532 17.9183 118.435 18.0944 118.295 18.2177C118.154 18.3234 117.986 18.341 117.793 18.2705C117.616 18.1825 117.449 17.9359 117.291 17.5308Z" fill="#FF9A2E"/>
<path d="M118.095 30.2381C118.06 30.2205 118.06 30.0179 118.095 29.6305C118.148 29.2254 118.218 28.7234 118.306 28.1246C118.394 27.5258 118.509 26.8653 118.65 26.1432C118.791 25.4211 118.94 24.7342 119.099 24.0826C119.257 23.4133 119.425 22.8321 119.601 22.339C119.794 21.8282 119.979 21.476 120.155 21.2822C120.279 21.1589 120.402 21.1589 120.525 21.2822C120.649 21.3879 120.772 21.5288 120.895 21.7049C121.018 21.8634 121.142 22.0131 121.265 22.154C121.388 22.2773 121.52 22.2861 121.661 22.1805C122.154 21.4936 122.692 20.8419 123.273 20.2255C123.872 19.5914 124.532 19.0455 125.254 18.5875C125.325 18.5347 125.518 18.4555 125.835 18.3498C126.152 18.2265 126.514 18.112 126.919 18.0063C127.324 17.8831 127.738 17.7862 128.16 17.7157C128.601 17.6277 128.97 17.5924 129.27 17.6101C129.587 17.6101 129.798 17.6893 129.904 17.8478C130.027 17.9887 129.974 18.2353 129.745 18.5875C128.689 18.6052 127.702 18.9134 126.786 19.5122C125.871 20.111 125.025 20.8507 124.25 21.7313C123.475 22.612 122.771 23.5718 122.137 24.611C121.503 25.6325 120.948 26.5835 120.472 27.4642C120.015 28.3448 119.627 29.0757 119.31 29.6569C119.011 30.2381 118.791 30.5287 118.65 30.5287C118.632 30.5287 118.553 30.4935 118.412 30.423C118.271 30.335 118.165 30.2733 118.095 30.2381Z" fill="#FF9A2E"/>
<path d="M127.346 29.9211C126.923 29.5688 126.685 29.0493 126.632 28.3624C126.597 27.6755 126.694 26.9006 126.923 26.0376C127.169 25.1746 127.522 24.2763 127.98 23.3429C128.455 22.3918 129.001 21.4936 129.618 20.6482C130.234 19.7852 130.903 19.019 131.625 18.3498C132.347 17.6629 133.07 17.1609 133.792 16.8439C134.514 16.5093 135.218 16.3948 135.905 16.5005C136.592 16.5885 137.217 16.9848 137.781 17.6893C138.133 18.1296 138.344 18.5787 138.415 19.0367C138.485 19.477 138.477 19.9349 138.388 20.4104C138.3 20.8683 138.159 21.3439 137.966 21.837C137.772 22.3126 137.578 22.7969 137.385 23.29C137.208 23.7832 137.059 24.2851 136.935 24.7959C136.83 25.3066 136.812 25.8262 136.883 26.3546C136.971 27.0238 137.27 27.4201 137.781 27.5434C138.292 27.6667 138.899 27.6315 139.604 27.4377C140.326 27.244 141.083 26.9358 141.876 26.5131C142.668 26.0904 143.399 25.6677 144.068 25.245C144.755 24.8223 145.319 24.4524 145.759 24.1354C146.217 23.8184 146.446 23.6599 146.446 23.6599C146.939 23.5542 147.212 23.5894 147.265 23.7656C147.336 23.9241 147.239 24.1707 146.974 24.5053C146.728 24.8223 146.349 25.1922 145.838 25.6149C145.328 26.0199 144.746 26.4162 144.095 26.8037C143.443 27.1912 142.747 27.5434 142.008 27.8604C141.268 28.1775 140.546 28.3976 139.841 28.5209C139.137 28.6266 138.468 28.6178 137.834 28.4945C137.217 28.3536 136.706 28.0366 136.301 27.5434C136.108 27.3321 135.958 27.1207 135.852 26.9094C135.764 26.698 135.615 26.5131 135.403 26.3546C135.139 26.6012 134.822 26.927 134.452 27.3321C134.082 27.7195 133.677 28.1158 133.237 28.5209C132.814 28.9084 132.356 29.2782 131.863 29.6305C131.388 29.9827 130.894 30.2469 130.384 30.423C129.873 30.5992 129.353 30.6608 128.825 30.608C128.314 30.5551 127.821 30.3262 127.346 29.9211ZM127.636 29.0228C127.795 29.5864 128.147 29.8506 128.693 29.8154C129.239 29.7626 129.873 29.4896 130.595 28.9964C131.317 28.5033 132.066 27.834 132.841 26.9886C133.616 26.1256 134.311 25.1746 134.928 24.1354C135.544 23.0787 136.011 21.9691 136.328 20.8067C136.662 19.6443 136.751 18.4995 136.592 17.3723C136.169 17.0377 135.641 17.0289 135.007 17.3459C134.373 17.6453 133.695 18.1472 132.973 18.8517C132.268 19.5386 131.564 20.3664 130.859 21.3351C130.172 22.2861 129.565 23.2548 129.036 24.2411C128.508 25.2098 128.103 26.1256 127.821 26.9886C127.557 27.8516 127.495 28.5297 127.636 29.0228Z" fill="#FF9A2E"/>
<path d="M25.9522 44.5182H23.77V43.0716H29.9199V44.5182H27.7377V48.9736H25.9522V44.5182Z" fill="#FF9A2E"/>
<path d="M34.8843 46.5268C34.8843 46.9236 34.9835 47.2157 35.1819 47.403C35.3858 47.5904 35.7054 47.6841 36.1407 47.6841C36.5816 47.6841 36.9012 47.5904 37.0996 47.403C37.3035 47.2157 37.4054 46.9236 37.4054 46.5268V43.0716H39.1909V46.3863C39.1909 47.3562 38.9291 48.056 38.4056 48.4859C37.8821 48.9102 37.1272 49.1224 36.1407 49.1224C35.1598 49.1224 34.4076 48.9102 33.8841 48.4859C33.3606 48.056 33.0989 47.3562 33.0989 46.3863V43.0716H34.8843V46.5268Z" fill="#FF9A2E"/>
<path d="M42.9421 43.0716H45.736C46.9263 43.0716 47.8246 43.3224 48.4307 43.8238C49.0369 44.3198 49.34 45.0527 49.34 46.0226C49.34 46.9594 49.0231 47.6868 48.3894 48.2048C47.7557 48.7173 46.8464 48.9736 45.6616 48.9736H42.9421V43.0716ZM45.703 47.5601C46.9208 47.5601 47.5298 47.0448 47.5298 46.0143C47.5298 44.9949 46.9429 44.4851 45.7691 44.4851H44.7028V47.5601H45.703Z" fill="#FF9A2E"/>
<path d="M56.1535 49.1224C55.4261 49.1224 54.8006 48.9984 54.2771 48.7504C53.7536 48.5024 53.3485 48.147 53.062 47.6841C52.7809 47.2212 52.6404 46.6674 52.6404 46.0226C52.6404 45.3779 52.7837 44.824 53.0702 44.3611C53.3568 43.8982 53.7646 43.5428 54.2936 43.2948C54.8226 43.0468 55.4536 42.9229 56.1865 42.9229C56.9139 42.9229 57.5394 43.0468 58.0629 43.2948C58.5864 43.5428 58.9887 43.8982 59.2697 44.3611C59.5563 44.824 59.6996 45.3779 59.6996 46.0226C59.6996 46.6674 59.5563 47.2212 59.2697 47.6841C58.9832 48.147 58.5754 48.5024 58.0464 48.7504C57.5174 48.9984 56.8864 49.1224 56.1535 49.1224ZM57.848 46.0226C57.848 45.4936 57.6992 45.0858 57.4016 44.7992C57.1096 44.5072 56.699 44.3611 56.17 44.3611C55.641 44.3611 55.2277 44.5072 54.9301 44.7992C54.638 45.0913 54.492 45.4991 54.492 46.0226C54.492 46.5516 54.638 46.9622 54.9301 47.2542C55.2277 47.5408 55.641 47.6841 56.17 47.6841C56.699 47.6841 57.1096 47.538 57.4016 47.246C57.6992 46.9539 57.848 46.5461 57.848 46.0226Z" fill="#FF9A2E"/>
<path d="M67.9791 43.0716H70.773C71.9633 43.0716 72.8615 43.3224 73.4677 43.8238C74.0739 44.3198 74.377 45.0527 74.377 46.0226C74.377 46.9594 74.0601 47.6868 73.4264 48.2048C72.7926 48.7173 71.8834 48.9736 70.6986 48.9736H67.9791V43.0716ZM70.7399 47.5601C71.9578 47.5601 72.5667 47.0448 72.5667 46.0143C72.5667 44.9949 71.9798 44.4851 70.8061 44.4851H69.7397V47.5601H70.7399Z" fill="#FF9A2E"/>
<path d="M77.9419 43.0716H83.1081V44.3694H79.686V45.3283H82.9428V46.626H79.686V47.6758H83.3065L83.1412 48.9736H77.9419V43.0716Z" fill="#FF9A2E"/>
<path d="M93.1345 44.5182H90.9523V43.0716H97.1022V44.5182H94.92V48.9736H93.1345V44.5182Z" fill="#FF9A2E"/>
<path d="M100.347 43.0716H105.514V44.3694H102.091V45.3283H105.348V46.626H102.091V47.6758H105.712L105.547 48.9736H100.347V43.0716Z" fill="#FF9A2E"/>
<path d="M115.701 48.9736H113.61L112.106 46.998L110.601 48.9736H108.617L111.014 45.9069L108.799 43.0716H110.89L112.13 44.791L113.436 43.0716H115.42L113.23 45.849L115.701 48.9736Z" fill="#FF9A2E"/>
<path d="M120.545 44.5182H118.363V43.0716H124.512V44.5182H122.33V48.9736H120.545V44.5182Z" fill="#FF9A2E"/>
<path d="M130.74 49.1224C130.012 49.1224 129.387 48.9984 128.863 48.7504C128.34 48.5024 127.935 48.147 127.648 47.6841C127.367 47.2212 127.227 46.6674 127.227 46.0226C127.227 45.3779 127.37 44.824 127.656 44.3611C127.943 43.8982 128.351 43.5428 128.88 43.2948C129.409 43.0468 130.04 42.9229 130.773 42.9229C131.5 42.9229 132.126 43.0468 132.649 43.2948C133.173 43.5428 133.575 43.8982 133.856 44.3611C134.142 44.824 134.286 45.3779 134.286 46.0226C134.286 46.6674 134.142 47.2212 133.856 47.6841C133.569 48.147 133.162 48.5024 132.633 48.7504C132.104 48.9984 131.473 49.1224 130.74 49.1224ZM132.434 46.0226C132.434 45.4936 132.285 45.0858 131.988 44.7992C131.696 44.5072 131.285 44.3611 130.756 44.3611C130.227 44.3611 129.814 44.5072 129.516 44.7992C129.224 45.0913 129.078 45.4991 129.078 46.0226C129.078 46.5516 129.224 46.9622 129.516 47.2542C129.814 47.5408 130.227 47.6841 130.756 47.6841C131.285 47.6841 131.696 47.538 131.988 47.246C132.285 46.9539 132.434 46.5461 132.434 46.0226Z" fill="#FF9A2E"/>
<path d="M23.9099 58.7532H24.9527C25.015 59.0745 25.2839 59.2352 25.7593 59.2352C26.2446 59.2352 26.4873 59.1188 26.4873 58.886C26.4873 58.804 26.4512 58.7384 26.3791 58.6892C26.3069 58.6367 26.1889 58.599 26.0249 58.5761L25.3953 58.4826C24.91 58.4072 24.5559 58.281 24.3329 58.1039C24.1132 57.9268 24.0034 57.6842 24.0034 57.3759C24.0034 57.0349 24.1575 56.7693 24.4657 56.5791C24.7772 56.3889 25.2052 56.2938 25.7495 56.2938C26.7562 56.2938 27.3202 56.6463 27.4415 57.3513L26.4332 57.4497C26.3807 57.3054 26.2987 57.2021 26.1872 57.1398C26.0758 57.0743 25.9184 57.0415 25.7151 57.0415C25.4986 57.0415 25.3314 57.0677 25.2134 57.1202C25.0986 57.1726 25.0412 57.248 25.0412 57.3464C25.0412 57.4284 25.0724 57.4907 25.1347 57.5333C25.197 57.576 25.3117 57.6104 25.479 57.6366L26.2463 57.7596C26.7021 57.8317 27.0316 57.9547 27.2349 58.1285C27.4382 58.299 27.5399 58.54 27.5399 58.8515C27.5399 59.2253 27.389 59.5073 27.0874 59.6975C26.7857 59.8877 26.3414 59.9828 25.7544 59.9828C24.6002 59.9828 23.9853 59.5729 23.9099 58.7532Z" fill="#FF9A2E"/>
<path d="M31.5133 59.9828C31.0804 59.9828 30.7083 59.909 30.3968 59.7615C30.0852 59.6139 29.8442 59.4024 29.6737 59.127C29.5065 58.8515 29.4229 58.522 29.4229 58.1383C29.4229 57.7547 29.5081 57.4251 29.6786 57.1497C29.8491 56.8742 30.0918 56.6627 30.4066 56.5152C30.7214 56.3676 31.0968 56.2938 31.533 56.2938C31.9658 56.2938 32.338 56.3676 32.6495 56.5152C32.961 56.6627 33.2004 56.8742 33.3676 57.1497C33.5381 57.4251 33.6234 57.7547 33.6234 58.1383C33.6234 58.522 33.5381 58.8515 33.3676 59.127C33.1971 59.4024 32.9545 59.6139 32.6397 59.7615C32.3249 59.909 31.9494 59.9828 31.5133 59.9828ZM32.5216 58.1383C32.5216 57.8235 32.4331 57.5809 32.256 57.4104C32.0822 57.2366 31.8379 57.1497 31.5231 57.1497C31.2083 57.1497 30.9624 57.2366 30.7853 57.4104C30.6115 57.5842 30.5246 57.8268 30.5246 58.1383C30.5246 58.4531 30.6115 58.6974 30.7853 58.8712C30.9624 59.0417 31.2083 59.127 31.5231 59.127C31.8379 59.127 32.0822 59.0401 32.256 58.8663C32.4331 58.6925 32.5216 58.4498 32.5216 58.1383Z" fill="#FF9A2E"/>
<path d="M35.7391 56.3824H36.8016V59.0335H38.7985L38.6903 59.8943H35.7391V56.3824Z" fill="#FF9A2E"/>
<path d="M41.7443 58.4384C41.7443 58.6745 41.8033 58.8482 41.9213 58.9597C42.0427 59.0712 42.2328 59.127 42.4919 59.127C42.7542 59.127 42.9444 59.0712 43.0625 58.9597C43.1838 58.8482 43.2444 58.6745 43.2444 58.4384V56.3824H44.3069V58.3547C44.3069 58.9319 44.1511 59.3483 43.8396 59.6041C43.5281 59.8566 43.0788 59.9828 42.4919 59.9828C41.9082 59.9828 41.4606 59.8566 41.1491 59.6041C40.8376 59.3483 40.6818 58.9319 40.6818 58.3547V56.3824H41.7443V58.4384Z" fill="#FF9A2E"/>
<path d="M50.2477 57.5432L49.2 57.6563C49.1377 57.4759 49.0442 57.3464 48.9196 57.2677C48.795 57.189 48.6262 57.1497 48.413 57.1497C48.1212 57.1497 47.8933 57.2349 47.7293 57.4054C47.5654 57.5727 47.4834 57.817 47.4834 58.1383C47.4834 58.4597 47.5654 58.7056 47.7293 58.8761C47.8966 59.0434 48.131 59.127 48.4327 59.127C48.8983 59.127 49.1721 58.9466 49.2541 58.5859H50.3165C50.2739 59.0286 50.0837 59.3729 49.746 59.6188C49.4115 59.8615 48.9655 59.9828 48.4081 59.9828C47.9621 59.9828 47.5883 59.9041 47.2866 59.7467C46.9882 59.5893 46.762 59.3729 46.6079 59.0975C46.457 58.8187 46.3816 58.499 46.3816 58.1383C46.3816 57.7875 46.457 57.4727 46.6079 57.1939C46.762 56.9152 46.9899 56.6955 47.2916 56.5348C47.5932 56.3742 47.9687 56.2938 48.4179 56.2938C49.4312 56.2938 50.0411 56.7103 50.2477 57.5432ZM48.1523 59.7861L48.6196 59.8943L48.5261 60.1107C48.7327 60.1337 48.8852 60.1828 48.9836 60.2583C49.0819 60.337 49.1311 60.4386 49.1311 60.5632C49.1311 60.7075 49.059 60.8206 48.9147 60.9026C48.7704 60.9846 48.5671 61.0256 48.3048 61.0256C48.0654 61.0256 47.8769 61.0026 47.7392 60.9567V60.5583C47.8211 60.5714 47.8933 60.5812 47.9556 60.5878C48.0212 60.5976 48.0835 60.6026 48.1425 60.6026C48.2474 60.6026 48.3228 60.5927 48.3687 60.573C48.4179 60.5567 48.4425 60.5304 48.4425 60.4944C48.4425 60.4484 48.413 60.4173 48.354 60.4009C48.2982 60.3845 48.2015 60.3763 48.0638 60.3763H47.8916L48.1523 59.7861Z" fill="#FF9A2E"/>
<path d="M54.2707 59.9828C53.8378 59.9828 53.4656 59.909 53.1541 59.7615C52.8426 59.6139 52.6016 59.4024 52.4311 59.127C52.2638 58.8515 52.1802 58.522 52.1802 58.1383C52.1802 57.7547 52.2655 57.4251 52.436 57.1497C52.6065 56.8742 52.8492 56.6627 53.164 56.5152C53.4788 56.3676 53.8542 56.2938 54.2903 56.2938C54.7232 56.2938 55.0953 56.3676 55.4069 56.5152C55.7184 56.6627 55.9577 56.8742 56.125 57.1497C56.2955 57.4251 56.3808 57.7547 56.3808 58.1383C56.3808 58.522 56.2955 58.8515 56.125 59.127C55.9545 59.4024 55.7118 59.6139 55.397 59.7615C55.0822 59.909 54.7068 59.9828 54.2707 59.9828ZM55.279 58.1383C55.279 57.8235 55.1904 57.5809 55.0134 57.4104C54.8396 57.2366 54.5953 57.1497 54.2805 57.1497C53.9657 57.1497 53.7198 57.2366 53.5427 57.4104C53.3689 57.5842 53.282 57.8268 53.282 58.1383C53.282 58.4531 53.3689 58.6974 53.5427 58.8712C53.7198 59.0417 53.9657 59.127 54.2805 59.127C54.5953 59.127 54.8396 59.0401 55.0134 58.8663C55.1904 58.6925 55.279 58.4498 55.279 58.1383ZM53.1689 56.0922C53.1689 55.8003 53.223 55.5905 53.3312 55.4626C53.4394 55.3347 53.6017 55.2708 53.8181 55.2708C53.9755 55.2708 54.1624 55.3249 54.3789 55.4331C54.4641 55.4757 54.5297 55.5052 54.5756 55.5216C54.6215 55.538 54.6625 55.5462 54.6986 55.5462C54.7609 55.5462 54.8019 55.5265 54.8215 55.4872C54.8412 55.4445 54.8511 55.3773 54.8511 55.2855H55.4364C55.4364 55.5675 55.3823 55.7757 55.2741 55.9102C55.1658 56.0413 55.0035 56.1069 54.7871 56.1069C54.633 56.1069 54.451 56.0545 54.2411 55.9495C54.0805 55.8708 53.969 55.8315 53.9067 55.8315C53.8477 55.8315 53.8067 55.8544 53.7837 55.9003C53.764 55.943 53.7542 56.0069 53.7542 56.0922H53.1689Z" fill="#FF9A2E"/>
<path d="M58.4965 56.3824H61.5707V57.1546H59.5343V57.7252H61.4723V58.4974H59.5343V59.122H61.6887L61.5903 59.8943H58.4965V56.3824Z" fill="#FF9A2E"/>
<path d="M63.5011 58.7532H64.5439C64.6062 59.0745 64.8751 59.2352 65.3506 59.2352C65.8359 59.2352 66.0785 59.1188 66.0785 58.886C66.0785 58.804 66.0424 58.7384 65.9703 58.6892C65.8982 58.6367 65.7801 58.599 65.6162 58.5761L64.9866 58.4826C64.5013 58.4072 64.1471 58.281 63.9241 58.1039C63.7044 57.9268 63.5946 57.6842 63.5946 57.3759C63.5946 57.0349 63.7487 56.7693 64.0569 56.5791C64.3685 56.3889 64.7964 56.2938 65.3407 56.2938C66.3474 56.2938 66.9114 56.6463 67.0327 57.3513L66.0244 57.4497C65.9719 57.3054 65.89 57.2021 65.7785 57.1398C65.667 57.0743 65.5096 57.0415 65.3063 57.0415C65.0899 57.0415 64.9226 57.0677 64.8046 57.1202C64.6898 57.1726 64.6324 57.248 64.6324 57.3464C64.6324 57.4284 64.6636 57.4907 64.7259 57.5333C64.7882 57.576 64.903 57.6104 65.0702 57.6366L65.8375 57.7596C66.2933 57.8317 66.6228 57.9547 66.8261 58.1285C67.0294 58.299 67.1311 58.54 67.1311 58.8515C67.1311 59.2253 66.9803 59.5073 66.6786 59.6975C66.3769 59.8877 65.9326 59.9828 65.3456 59.9828C64.1914 59.9828 63.5766 59.5729 63.5011 58.7532Z" fill="#FF9A2E"/>
<path d="M71.9824 56.3824H75.0566V57.1546H73.0202V57.7252H74.9582V58.4974H73.0202V59.122H75.1746L75.0762 59.8943H71.9824V56.3824Z" fill="#FF9A2E"/>
<path d="M77.2527 56.3824H78.9152C79.6234 56.3824 80.1579 56.5316 80.5186 56.83C80.8793 57.1251 81.0597 57.5612 81.0597 58.1383C81.0597 58.6958 80.8711 59.1286 80.494 59.4368C80.117 59.7418 79.5759 59.8943 78.8709 59.8943H77.2527V56.3824ZM78.8955 59.0532C79.6202 59.0532 79.9825 58.7466 79.9825 58.1334C79.9825 57.5268 79.6333 57.2235 78.9348 57.2235H78.3003V59.0532H78.8955Z" fill="#FF9A2E"/>
<path d="M84.2041 58.4384C84.2041 58.6745 84.2631 58.8482 84.3811 58.9597C84.5024 59.0712 84.6926 59.127 84.9517 59.127C85.214 59.127 85.4042 59.0712 85.5223 58.9597C85.6436 58.8482 85.7042 58.6745 85.7042 58.4384V56.3824H86.7667V58.3547C86.7667 58.9319 86.6109 59.3483 86.2994 59.6041C85.9879 59.8566 85.5386 59.9828 84.9517 59.9828C84.368 59.9828 83.9204 59.8566 83.6089 59.6041C83.2974 59.3483 83.1416 58.9319 83.1416 58.3547V56.3824H84.2041V58.4384Z" fill="#FF9A2E"/>
<path d="M92.7075 57.5432L91.6598 57.6563C91.5975 57.4759 91.504 57.3464 91.3794 57.2677C91.2548 57.189 91.086 57.1497 90.8728 57.1497C90.581 57.1497 90.3531 57.2349 90.1891 57.4054C90.0252 57.5727 89.9432 57.817 89.9432 58.1383C89.9432 58.4597 90.0252 58.7056 90.1891 58.8761C90.3564 59.0434 90.5908 59.127 90.8925 59.127C91.3581 59.127 91.6319 58.9466 91.7139 58.5859H92.7763C92.7337 59.0286 92.5435 59.3729 92.2058 59.6188C91.8713 59.8615 91.4253 59.9828 90.8679 59.9828C90.4219 59.9828 90.0481 59.9041 89.7464 59.7467C89.448 59.5893 89.2218 59.3729 89.0677 59.0975C88.9168 58.8187 88.8414 58.499 88.8414 58.1383C88.8414 57.7875 88.9168 57.4727 89.0677 57.1939C89.2218 56.9152 89.4497 56.6955 89.7514 56.5348C90.053 56.3742 90.4285 56.2938 90.8777 56.2938C91.891 56.2938 92.5009 56.7103 92.7075 57.5432Z" fill="#FF9A2E"/>
<path d="M95.8481 56.3824H97.0876L98.6124 59.8943H97.5106L97.2499 59.2549H95.6464L95.4005 59.8943H94.3233L95.8481 56.3824ZM96.9548 58.4679L96.4531 57.1841L95.9514 58.4679H96.9548Z" fill="#FF9A2E"/>
<path d="M104.026 57.5432L102.978 57.6563C102.916 57.4759 102.823 57.3464 102.698 57.2677C102.573 57.189 102.405 57.1497 102.191 57.1497C101.9 57.1497 101.672 57.2349 101.508 57.4054C101.344 57.5727 101.262 57.817 101.262 58.1383C101.262 58.4597 101.344 58.7056 101.508 58.8761C101.675 59.0434 101.909 59.127 102.211 59.127C102.677 59.127 102.951 58.9466 103.033 58.5859H104.095C104.052 59.0286 103.862 59.3729 103.524 59.6188C103.19 59.8615 102.744 59.9828 102.187 59.9828C101.741 59.9828 101.367 59.9041 101.065 59.7467C100.767 59.5893 100.54 59.3729 100.386 59.0975C100.235 58.8187 100.16 58.499 100.16 58.1383C100.16 57.7875 100.235 57.4727 100.386 57.1939C100.54 56.9152 100.768 56.6955 101.07 56.5348C101.372 56.3742 101.747 56.2938 102.196 56.2938C103.21 56.2938 103.82 56.7103 104.026 57.5432Z" fill="#FF9A2E"/>
<path d="M106.116 56.3824H107.178V59.8943H106.116V56.3824Z" fill="#FF9A2E"/>
<path d="M111.384 59.9828C110.951 59.9828 110.579 59.909 110.267 59.7615C109.956 59.6139 109.715 59.4024 109.544 59.127C109.377 58.8515 109.293 58.522 109.293 58.1383C109.293 57.7547 109.378 57.4251 109.549 57.1497C109.719 56.8742 109.962 56.6627 110.277 56.5152C110.592 56.3676 110.967 56.2938 111.403 56.2938C111.836 56.2938 112.208 56.3676 112.52 56.5152C112.831 56.6627 113.071 56.8742 113.238 57.1497C113.408 57.4251 113.494 57.7547 113.494 58.1383C113.494 58.522 113.408 58.8515 113.238 59.127C113.067 59.4024 112.825 59.6139 112.51 59.7615C112.195 59.909 111.82 59.9828 111.384 59.9828ZM112.392 58.1383C112.392 57.8235 112.303 57.5809 112.126 57.4104C111.953 57.2366 111.708 57.1497 111.393 57.1497C111.079 57.1497 110.833 57.2366 110.656 57.4104C110.482 57.5842 110.395 57.8268 110.395 58.1383C110.395 58.4531 110.482 58.6974 110.656 58.8712C110.833 59.0417 111.079 59.127 111.393 59.127C111.708 59.127 111.953 59.0401 112.126 58.8663C112.303 58.6925 112.392 58.4498 112.392 58.1383Z" fill="#FF9A2E"/>
<path d="M115.609 56.3824H116.554L118.31 58.4925V56.3824H119.313V59.8943H118.369L116.613 57.7842V59.8943H115.609V56.3824Z" fill="#FF9A2E"/>
<path d="M122.761 56.3824H124.001L125.526 59.8943H124.424L124.163 59.2549H122.56L122.314 59.8943H121.237L122.761 56.3824ZM123.868 58.4679L123.366 57.1841L122.865 58.4679H123.868Z" fill="#FF9A2E"/>
<path d="M127.447 56.3824H128.509V59.8943H127.447V56.3824Z" fill="#FF9A2E"/>
<path d="M130.516 58.7532H131.558C131.621 59.0745 131.89 59.2352 132.365 59.2352C132.85 59.2352 133.093 59.1188 133.093 58.886C133.093 58.804 133.057 58.7384 132.985 58.6892C132.913 58.6367 132.795 58.599 132.631 58.5761L132.001 58.4826C131.516 58.4072 131.162 58.281 130.939 58.1039C130.719 57.9268 130.609 57.6842 130.609 57.3759C130.609 57.0349 130.763 56.7693 131.072 56.5791C131.383 56.3889 131.811 56.2938 132.355 56.2938C133.362 56.2938 133.926 56.6463 134.047 57.3513L133.039 57.4497C132.987 57.3054 132.905 57.2021 132.793 57.1398C132.682 57.0743 132.524 57.0415 132.321 57.0415C132.104 57.0415 131.937 57.0677 131.819 57.1202C131.704 57.1726 131.647 57.248 131.647 57.3464C131.647 57.4284 131.678 57.4907 131.74 57.5333C131.803 57.576 131.918 57.6104 132.085 57.6366L132.852 57.7596C133.308 57.8317 133.637 57.9547 133.841 58.1285C134.044 58.299 134.146 58.54 134.146 58.8515C134.146 59.2253 133.995 59.5073 133.693 59.6975C133.391 59.8877 132.947 59.9828 132.36 59.9828C131.206 59.9828 130.591 59.5729 130.516 58.7532Z" fill="#FF9A2E"/>
<path d="M41.3235 62.5307H44.3977V63.3029H42.3614V63.8735H44.2993V64.6457H42.3614V65.2704H44.5157L44.4173 66.0426H41.3235V62.5307Z" fill="#FF9A2E"/>
<path d="M49.4047 62.5307H51.1508C52.2034 62.5307 52.7297 62.9356 52.7297 63.7456C52.7297 64.162 52.5936 64.4703 52.3215 64.6703C52.0526 64.867 51.6427 64.9654 51.0918 64.9654H50.4327V66.0426H49.4047V62.5307ZM51.0721 64.1784C51.2853 64.1784 51.4427 64.1456 51.5443 64.08C51.646 64.0145 51.6968 63.9013 51.6968 63.7407C51.6968 63.5898 51.6476 63.4816 51.5492 63.416C51.4509 63.3504 51.2951 63.3177 51.082 63.3177H50.4327V64.1784H51.0721Z" fill="#FF9A2E"/>
<path d="M55.4999 62.5307H56.7394L58.2641 66.0426H57.1624L56.9017 65.4032H55.2982L55.0523 66.0426H53.9751L55.4999 62.5307ZM56.6066 64.6162L56.1048 63.3324L55.6031 64.6162H56.6066Z" fill="#FF9A2E"/>
<path d="M60.1854 62.5307H61.9905C63.0431 62.5307 63.5694 62.9192 63.5694 63.6964C63.5694 63.9456 63.5169 64.1489 63.412 64.3063C63.3071 64.4604 63.1529 64.5834 62.9496 64.6752L63.8104 66.0426H62.6742L61.9807 64.8769H61.1789V66.0426H60.1854V62.5307ZM61.9266 64.1194C62.143 64.1194 62.3004 64.0882 62.3988 64.0259C62.5004 63.9604 62.5512 63.8521 62.5512 63.7013C62.5512 63.5505 62.5037 63.4439 62.4086 63.3816C62.3135 63.3193 62.1561 63.2881 61.9364 63.2881H61.1789V64.1194H61.9266Z" fill="#FF9A2E"/>
<path d="M66.9482 62.5307H68.1877L69.7125 66.0426H68.6107L68.35 65.4032H66.7465L66.5006 66.0426H65.4234L66.9482 62.5307ZM68.0549 64.6162L67.5532 63.3324L67.0515 64.6162H68.0549Z" fill="#FF9A2E"/>
<path d="M75.6202 62.5307H76.8597L78.3845 66.0426H77.2827L77.022 65.4032H75.4185L75.1726 66.0426H74.0954L75.6202 62.5307ZM76.7269 64.6162L76.2252 63.3324L75.7235 64.6162H76.7269Z" fill="#FF9A2E"/>
<path d="M83.1166 62.5307H86.1908V63.3029H84.1544V63.8735H86.0924V64.6457H84.1544V65.2704H86.3088L86.2104 66.0426H83.1166V62.5307Z" fill="#FF9A2E"/>
<path d="M88.1213 64.9015H89.164C89.2263 65.2228 89.4952 65.3835 89.9707 65.3835C90.456 65.3835 90.6986 65.2671 90.6986 65.0343C90.6986 64.9523 90.6626 64.8867 90.5904 64.8375C90.5183 64.785 90.4002 64.7473 90.2363 64.7244L89.6067 64.6309C89.1214 64.5555 88.7672 64.4293 88.5443 64.2522C88.3246 64.0751 88.2147 63.8325 88.2147 63.5242C88.2147 63.1832 88.3688 62.9176 88.6771 62.7274C88.9886 62.5372 89.4165 62.4421 89.9608 62.4421C90.9675 62.4421 91.5315 62.7946 91.6528 63.4996L90.6445 63.598C90.592 63.4537 90.5101 63.3504 90.3986 63.2881C90.2871 63.2226 90.1297 63.1898 89.9264 63.1898C89.71 63.1898 89.5427 63.216 89.4247 63.2685C89.3099 63.3209 89.2525 63.3963 89.2525 63.4947C89.2525 63.5767 89.2837 63.639 89.346 63.6816C89.4083 63.7243 89.5231 63.7587 89.6903 63.7849L90.4576 63.9079C90.9134 63.98 91.243 64.103 91.4463 64.2768C91.6496 64.4473 91.7512 64.6883 91.7512 64.9998C91.7512 65.3736 91.6004 65.6556 91.2987 65.8458C90.997 66.036 90.5527 66.1311 89.9657 66.1311C88.8115 66.1311 88.1967 65.7212 88.1213 64.9015Z" fill="#FF9A2E"/>
<path d="M97.5003 63.6915L96.4526 63.8046C96.3903 63.6242 96.2968 63.4947 96.1722 63.416C96.0476 63.3373 95.8787 63.298 95.6656 63.298C95.3738 63.298 95.1459 63.3832 94.9819 63.5537C94.818 63.721 94.736 63.9653 94.736 64.2866C94.736 64.608 94.818 64.8539 94.9819 65.0244C95.1491 65.1917 95.3836 65.2753 95.6853 65.2753C96.1509 65.2753 96.4247 65.0949 96.5067 64.7342H97.5691C97.5265 65.1769 97.3363 65.5212 96.9986 65.7671C96.6641 66.0098 96.2181 66.1311 95.6607 66.1311C95.2147 66.1311 94.8409 66.0524 94.5392 65.895C94.2408 65.7376 94.0146 65.5212 93.8605 65.2458C93.7096 64.967 93.6342 64.6473 93.6342 64.2866C93.6342 63.9358 93.7096 63.621 93.8605 63.3422C94.0146 63.0635 94.2425 62.8438 94.5442 62.6831C94.8458 62.5225 95.2213 62.4421 95.6705 62.4421C96.6838 62.4421 97.2937 62.8586 97.5003 63.6915Z" fill="#FF9A2E"/>
<path d="M99.5902 62.5307H101.395C102.448 62.5307 102.974 62.9192 102.974 63.6964C102.974 63.9456 102.922 64.1489 102.817 64.3063C102.712 64.4604 102.558 64.5834 102.354 64.6752L103.215 66.0426H102.079L101.386 64.8769H100.584V66.0426H99.5902V62.5307ZM101.331 64.1194C101.548 64.1194 101.705 64.0882 101.804 64.0259C101.905 63.9604 101.956 63.8521 101.956 63.7013C101.956 63.5505 101.909 63.4439 101.813 63.3816C101.718 63.3193 101.561 63.2881 101.341 63.2881H100.584V64.1194H101.331Z" fill="#FF9A2E"/>
<path d="M105.134 62.5307H106.197V66.0426H105.134V62.5307Z" fill="#FF9A2E"/>
<path d="M109.428 63.3914H108.129V62.5307H111.789V63.3914H110.49V66.0426H109.428V63.3914Z" fill="#FF9A2E"/>
<path d="M114.353 62.5307H115.592L117.117 66.0426H116.015L115.754 65.4032H114.151L113.905 66.0426H112.828L114.353 62.5307ZM115.459 64.6162L114.958 63.3324L114.456 64.6162H115.459Z" fill="#FF9A2E"/>
</svg>
