<svg width="158" height="62" viewBox="0 0 158 62" fill="none" xmlns="http://www.w3.org/2000/svg">
<path d="M13.3668 30.7147C12.2902 30.2911 11.5489 29.7175 11.143 28.9939C10.737 28.2702 10.5694 27.4672 10.64 26.5847C10.7282 25.6846 11.0106 24.7315 11.4871 23.7255C11.9813 22.7018 12.5814 21.6781 13.2874 20.6545C14.011 19.6308 14.8052 18.6336 15.6701 17.6629C16.5349 16.6922 17.3909 15.8009 18.2381 14.989C19.0852 14.1771 19.8795 13.4711 20.6207 12.8711C21.362 12.271 21.9621 11.8297 22.421 11.5473C23.0564 11.1591 23.5859 10.9737 24.0094 10.9914C24.433 10.9914 24.7684 11.1238 25.0155 11.3885C25.2802 11.6356 25.4567 11.9886 25.5449 12.4475C25.6508 12.8887 25.695 13.3652 25.6773 13.8771C25.6773 14.3713 25.6244 14.8743 25.5185 15.3861C25.4302 15.8803 25.3067 16.3127 25.1478 16.6833C25.0066 17.054 24.8478 17.3275 24.6713 17.504C24.5124 17.6805 24.3536 17.6894 24.1948 17.5305C24.1771 17.3893 24.1948 17.1775 24.2477 16.8951C24.3007 16.5951 24.3624 16.2598 24.433 15.8891C24.5213 15.5185 24.6007 15.139 24.6713 14.7507C24.7419 14.3624 24.786 14.0094 24.8037 13.6918C24.839 13.3564 24.8301 13.074 24.7772 12.8446C24.7419 12.6151 24.6448 12.4828 24.486 12.4475C23.8682 12.2886 23.127 12.4386 22.2621 12.8975C21.415 13.3388 20.5237 13.983 19.5882 14.8301C18.6705 15.6597 17.7527 16.6304 16.8349 17.7423C15.9348 18.8366 15.1141 19.9661 14.3728 21.131C13.6315 22.2959 13.0226 23.4343 12.5461 24.5462C12.0696 25.6405 11.796 26.6112 11.7254 27.4584C11.6725 28.2879 11.8578 28.9321 12.2814 29.391C12.7226 29.8322 13.4903 29.9734 14.5846 29.8146C15.5906 29.6734 16.5172 29.3204 17.3644 28.7556C18.2292 28.1732 19.0588 27.5378 19.853 26.8494C20.6649 26.1435 21.4679 25.4551 22.2621 24.7845C23.0564 24.0961 23.8859 23.5755 24.7507 23.2225C25.0684 23.0989 25.3155 23.1431 25.492 23.3548C25.6861 23.5666 25.7391 23.8226 25.6508 24.1226C25.5449 24.4226 25.2273 24.8198 24.6978 25.3139C24.1859 25.8081 23.5417 26.3288 22.7652 26.8759C22.0062 27.4054 21.1679 27.9437 20.2501 28.4908C19.3323 29.0203 18.4322 29.4792 17.5497 29.8675C16.6849 30.2558 15.873 30.5382 15.1141 30.7147C14.3728 30.8912 13.7904 30.8912 13.3668 30.7147Z" fill="#0078A3"/>
<path d="M26.2979 30.7147C26.2626 30.697 26.2626 30.4941 26.2979 30.1058C26.3508 29.6998 26.4214 29.1968 26.5097 28.5967C26.5979 27.9967 26.7126 27.3348 26.8538 26.6112C26.995 25.8875 27.145 25.1992 27.3039 24.5462C27.4627 23.8755 27.6304 23.2931 27.8069 22.7989C28.001 22.2871 28.1864 21.9341 28.3629 21.7399C28.4864 21.6164 28.61 21.6164 28.7335 21.7399C28.857 21.8458 28.9806 21.987 29.1041 22.1635C29.2277 22.3224 29.3512 22.4724 29.4748 22.6136C29.5983 22.7371 29.7307 22.7459 29.8719 22.64C30.3661 21.9517 30.9044 21.2987 31.4868 20.681C32.0869 20.0456 32.7488 19.4984 33.4724 19.0395C33.543 18.9866 33.7371 18.9072 34.0548 18.8013C34.3725 18.6777 34.7343 18.563 35.1403 18.4571C35.5462 18.3336 35.961 18.2365 36.3846 18.1659C36.8258 18.0777 37.1964 18.0424 37.4965 18.06C37.8142 18.06 38.026 18.1394 38.1318 18.2983C38.2554 18.4395 38.2024 18.6866 37.973 19.0395C36.914 19.0572 35.9257 19.3661 35.0079 19.9661C34.0901 20.5662 33.2429 21.3075 32.4664 22.19C31.6898 23.0725 30.9838 24.0344 30.3484 25.0757C29.713 26.0993 29.1571 27.0524 28.6806 27.9349C28.2217 28.8174 27.8334 29.5498 27.5157 30.1322C27.2156 30.7147 26.995 31.0059 26.8538 31.0059C26.8362 31.0059 26.7568 30.9706 26.6156 30.9C26.4744 30.8118 26.3685 30.75 26.2979 30.7147Z" fill="#0078A3"/>
<path d="M36.9257 30.7147C37.6493 28.3849 38.3023 26.5406 38.8848 25.1816C39.4849 23.8049 39.979 22.843 40.3673 22.2959C40.7733 21.7487 41.0468 21.5722 41.188 21.7664C41.3292 21.9605 41.3116 22.4547 41.1351 23.249C40.9762 24.0432 40.6232 25.111 40.0761 26.4523C39.5466 27.776 38.7965 29.2939 37.8258 31.0059C37.6846 31.0588 37.5169 31.0677 37.3228 31.0324C37.1287 30.9971 36.9963 30.8912 36.9257 30.7147ZM41.5587 17.9806C41.5234 17.8923 41.5057 17.7335 41.5057 17.504C41.5057 17.2746 41.5234 17.1334 41.5587 17.0805C41.9646 16.9393 42.2735 16.9216 42.4853 17.0275C42.6971 17.1334 42.8294 17.2923 42.8824 17.504C42.9353 17.6982 42.9265 17.91 42.8559 18.1394C42.803 18.3689 42.7059 18.5454 42.5647 18.6689C42.4235 18.7748 42.2558 18.7925 42.0617 18.7219C41.8852 18.6336 41.7175 18.3865 41.5587 17.9806Z" fill="#0078A3"/>
<path d="M42.3645 30.7147C42.1528 30.5735 42.1439 30.3882 42.3381 30.1587C42.5499 29.9116 42.8764 29.6557 43.3176 29.391C43.7765 29.1086 44.306 28.8174 44.9061 28.5173C45.5062 28.2173 46.0798 27.9349 46.6269 27.6701C47.1917 27.4054 47.6859 27.176 48.1095 26.9818C48.533 26.77 48.8066 26.6112 48.9302 26.5053C49.5126 26.0111 49.8126 25.6052 49.8303 25.2875C49.8656 24.9521 49.7244 24.6874 49.4067 24.4932C49.089 24.2814 48.6389 24.1226 48.0565 24.0167C47.4917 23.8932 46.9005 23.7873 46.2827 23.699C45.6827 23.5931 45.1002 23.4872 44.5354 23.3813C43.9883 23.2754 43.5735 23.1342 43.2911 22.9577C43.0088 22.7812 42.9117 22.5518 42.9999 22.2694C43.1058 21.9694 43.4941 21.5899 44.1648 21.131C44.4119 20.9545 44.7737 20.6986 45.2502 20.3633C45.7268 20.0279 46.2386 19.6838 46.7857 19.3308C47.3505 18.9778 47.9065 18.6601 48.4536 18.3777C49.0008 18.0953 49.4596 17.91 49.8303 17.8217C50.0244 17.7864 50.2186 17.8041 50.4127 17.8747C50.6245 17.9453 50.7922 18.0512 50.9157 18.1924C51.0393 18.3159 51.0922 18.4571 51.0746 18.616C51.0746 18.7748 50.9598 18.916 50.7304 19.0395C49.7244 19.6043 48.7537 20.1338 47.8182 20.628C46.9005 21.1222 45.9739 21.687 45.0384 22.3224C44.9855 22.4635 44.9943 22.5871 45.0649 22.693C45.1532 22.7989 45.2502 22.8783 45.3561 22.9313C47.227 23.1254 48.6301 23.399 49.5655 23.752C50.5186 24.1049 51.1187 24.4932 51.3658 24.9168C51.6305 25.3404 51.6041 25.7905 51.2864 26.267C50.9687 26.7435 50.4921 27.2113 49.8568 27.6701C49.239 28.129 48.5242 28.5614 47.7123 28.9674C46.9005 29.3733 46.1151 29.7175 45.3561 29.9999C44.6149 30.2823 43.9618 30.4941 43.397 30.6353C42.8323 30.7765 42.4881 30.8029 42.3645 30.7147Z" fill="#0078A3"/>
<path d="M65.3675 30.7147C64.485 30.344 63.9026 29.8322 63.6202 29.1792C63.3378 28.5085 63.2407 27.7937 63.329 27.0348C63.4172 26.2582 63.629 25.4816 63.9643 24.705C64.3173 23.9285 64.6791 23.2401 65.0498 22.64C65.1733 22.4282 65.4028 22.0664 65.7381 21.5546C66.0735 21.0428 66.4264 20.5045 66.7971 19.9397C67.1854 19.3572 67.5472 18.8189 67.8825 18.3247C68.2355 17.8129 68.4826 17.4599 68.6238 17.2658C68.8356 15.9068 69.2592 14.8301 69.8946 14.0359C70.5299 13.224 71.2448 12.6681 72.039 12.368C72.8509 12.068 73.6804 12.0062 74.5276 12.1827C75.3747 12.3416 76.116 12.721 76.7514 13.3211C77.3868 13.9035 77.8457 14.689 78.1281 15.6773C78.4104 16.6657 78.384 17.8217 78.0486 19.1454C77.7309 20.4692 77.0426 21.9517 75.9836 23.5931C74.9247 25.2345 73.3715 27.0083 71.3242 28.9144C70.9712 29.2498 70.5476 29.5763 70.0534 29.894C69.5769 30.194 69.065 30.4411 68.5179 30.6353C67.9884 30.8294 67.4501 30.9441 66.903 30.9794C66.3558 31.0147 65.844 30.9265 65.3675 30.7147ZM64.4409 28.6232C64.6174 29.4174 64.9527 29.9116 65.4469 30.1058C65.9411 30.2999 66.5235 30.2646 67.1942 29.9999C67.8649 29.7351 68.5973 29.2851 69.3916 28.6497C70.1858 28.0143 70.98 27.273 71.7742 26.4259C72.5685 25.561 73.3274 24.6256 74.051 23.6196C74.7747 22.6136 75.4012 21.6164 75.9307 20.628C76.4778 19.6396 76.8926 18.6954 77.175 17.7953C77.4574 16.8951 77.5456 16.1186 77.4397 15.4655C77.3515 14.7948 77.0338 14.2918 76.4866 13.9565C75.9572 13.6212 75.1365 13.5241 74.0245 13.6653C73.6186 14.0183 73.0803 14.5389 72.4096 15.2273C71.7389 15.8979 71.0241 16.6657 70.2652 17.5305C69.5063 18.3953 68.7473 19.3308 67.9884 20.3368C67.2295 21.3252 66.5588 22.3135 65.9764 23.3019C65.3939 24.2903 64.9527 25.2433 64.6527 26.1611C64.3526 27.0789 64.282 27.8996 64.4409 28.6232Z" fill="#0078A3"/>
<path d="M78.2604 30.7147C77.7486 30.344 77.4132 29.8763 77.2544 29.3115C77.1132 28.7468 77.0956 28.1379 77.2015 27.4848C77.3074 26.8141 77.4927 26.1258 77.7574 25.4198C78.0398 24.7139 78.3398 24.0344 78.6575 23.3813C78.9929 22.7283 79.3106 22.1282 79.6106 21.5811C79.9283 21.0339 80.1754 20.5839 80.3519 20.2309C80.4048 20.125 80.5284 19.8691 80.7225 19.4631C80.9343 19.0572 81.1549 18.616 81.3844 18.1394C81.6138 17.6629 81.8256 17.2217 82.0198 16.8157C82.2316 16.3921 82.3639 16.1274 82.4169 16.0215C82.4698 15.9332 82.5404 15.7656 82.6287 15.5185C82.7346 15.2537 82.8493 14.9713 82.9728 14.6713C83.0964 14.3713 83.2287 14.0889 83.3699 13.8241C83.5288 13.5417 83.6876 13.3388 83.8465 13.2152C84.023 13.0917 84.1906 13.074 84.3495 13.1623C84.526 13.2505 84.6936 13.5153 84.8525 13.9565C84.7819 14.133 84.6054 14.486 84.323 15.0155C84.0583 15.545 83.7406 16.1803 83.3699 16.9216C82.9993 17.6629 82.5845 18.4836 82.1257 19.3837C81.6844 20.2838 81.252 21.1928 80.8284 22.1106C80.4048 23.0283 80.0077 23.9285 79.6371 24.8109C79.2664 25.6758 78.9576 26.47 78.7105 27.1936C78.481 27.8996 78.3398 28.4908 78.2869 28.9674C78.2516 29.4263 78.3398 29.7087 78.5516 29.8146C78.7987 29.9381 79.1164 29.9911 79.5047 29.9734C79.9106 29.9381 80.3254 29.8852 80.749 29.8146C81.1726 29.744 81.5873 29.6734 81.9933 29.6028C82.3992 29.5145 82.7522 29.4792 83.0523 29.4969C83.1228 29.6557 83.0699 29.8146 82.8934 29.9734C82.7169 30.1146 82.4698 30.247 82.1521 30.3705C81.8344 30.4764 81.4638 30.5735 81.0402 30.6617C80.6343 30.7323 80.2372 30.7853 79.8489 30.8206C79.4782 30.8559 79.1429 30.8647 78.8428 30.8471C78.5605 30.8294 78.3663 30.7853 78.2604 30.7147Z" fill="#0078A3"/>
<path d="M83.964 30.7147C84.6877 28.3849 85.3407 26.5406 85.9231 25.1816C86.5232 23.8049 87.0174 22.843 87.4057 22.2959C87.8116 21.7487 88.0852 21.5722 88.2264 21.7664C88.3676 21.9605 88.3499 22.4547 88.1734 23.249C88.0146 24.0432 87.6616 25.111 87.1145 26.4523C86.585 27.776 85.8349 29.2939 84.8641 31.0059C84.723 31.0588 84.5553 31.0677 84.3611 31.0324C84.167 30.9971 84.0346 30.8912 83.964 30.7147ZM88.597 17.9806C88.5617 17.8923 88.5441 17.7335 88.5441 17.504C88.5441 17.2746 88.5617 17.1334 88.597 17.0805C89.003 16.9393 89.3118 16.9216 89.5236 17.0275C89.7354 17.1334 89.8678 17.2923 89.9207 17.504C89.9737 17.6982 89.9648 17.91 89.8942 18.1394C89.8413 18.3689 89.7442 18.5454 89.603 18.6689C89.4618 18.7748 89.2942 18.7925 89.1 18.7219C88.9235 18.6336 88.7559 18.3865 88.597 17.9806Z" fill="#0078A3"/>
<path d="M90.1442 30.397C89.7735 30.1852 89.5088 29.8499 89.3499 29.391C89.1911 28.9321 89.1028 28.4114 89.0852 27.829C89.0676 27.2466 89.1028 26.6376 89.1911 26.0023C89.2793 25.3669 89.3852 24.7492 89.5088 24.1491C89.6323 23.549 89.7559 23.0107 89.8794 22.5341C90.003 22.0576 90.0912 21.687 90.1442 21.4222C90.2324 21.3693 90.3207 21.3693 90.4089 21.4222C90.5148 21.4752 90.6119 21.5546 90.7001 21.6605C90.806 21.7487 90.8854 21.837 90.9384 21.9252C91.009 21.9958 91.0443 22.0311 91.0443 22.0311C91.0972 22.6489 91.0972 23.2578 91.0443 23.8579C91.009 24.4403 90.956 25.0227 90.8854 25.6052C90.8325 26.1876 90.7795 26.7788 90.7266 27.3789C90.6913 27.979 90.6913 28.5879 90.7266 29.2057C90.8678 29.4704 91.159 29.4792 91.6003 29.2321C92.0415 28.9674 92.5798 28.5526 93.2152 27.9878C93.8506 27.4054 94.5389 26.7259 95.2802 25.9493C96.0391 25.1551 96.7804 24.3697 97.504 23.5931C98.2453 22.8165 98.9424 22.0929 99.5955 21.4222C100.248 20.7339 100.796 20.2132 101.237 19.8602C101.696 19.4896 102.013 19.3396 102.19 19.4102C102.366 19.4631 102.34 19.8338 102.111 20.5221C101.687 20.8927 101.184 21.4487 100.601 22.19C100.019 22.9313 99.3837 23.7343 98.6953 24.5991C98.007 25.4463 97.2922 26.2935 96.5509 27.1407C95.8096 27.9878 95.0595 28.7203 94.3006 29.338C93.5593 29.9381 92.8357 30.3617 92.1297 30.6088C91.4238 30.8382 90.7619 30.7676 90.1442 30.397Z" fill="#0078A3"/>
<path d="M103.181 30.7147C102.652 30.5382 102.246 30.2734 101.963 29.9205C101.699 29.5498 101.522 29.1439 101.434 28.7026C101.346 28.2614 101.328 27.8025 101.381 27.326C101.451 26.8318 101.557 26.3641 101.699 25.9228C102.228 25.3581 102.819 24.7139 103.472 23.9902C104.143 23.249 104.849 22.5253 105.59 21.8193C106.332 21.1134 107.099 20.4603 107.894 19.8602C108.705 19.2425 109.526 18.7748 110.356 18.4571C110.638 18.3336 110.859 18.3424 111.018 18.4836C111.194 18.6071 111.318 18.8101 111.388 19.0925C111.459 19.3749 111.485 19.7014 111.468 20.072C111.468 20.4427 111.441 20.8045 111.388 21.1575C111.335 21.5105 111.265 21.8282 111.176 22.1106C111.088 22.393 111 22.5871 110.912 22.693C110.7 22.9401 110.285 23.2313 109.667 23.5666C109.067 23.902 108.397 24.2726 107.655 24.6786C106.914 25.0668 106.173 25.4728 105.431 25.8964C104.69 26.32 104.081 26.7435 103.605 27.1671C103.128 27.5731 102.846 27.979 102.758 28.3849C102.669 28.7909 102.916 29.1615 103.499 29.4969C104.099 29.5675 104.823 29.541 105.67 29.4174C106.535 29.2762 107.408 29.0998 108.291 28.888C109.191 28.6585 110.056 28.4291 110.885 28.1996C111.715 27.9525 112.394 27.7584 112.924 27.6172L113.241 27.9084C112.853 28.4202 112.218 28.888 111.335 29.3115C110.453 29.7351 109.5 30.0881 108.476 30.3705C107.452 30.6353 106.455 30.8118 105.484 30.9C104.514 30.9706 103.746 30.9088 103.181 30.7147ZM109.508 20.6015C109.491 20.5839 109.358 20.6633 109.111 20.8398C108.864 20.9986 108.555 21.2193 108.185 21.5017C107.832 21.7664 107.443 22.0664 107.02 22.4018C106.614 22.7195 106.234 23.0195 105.882 23.3019C105.546 23.5843 105.264 23.8314 105.034 24.0432C104.805 24.2373 104.708 24.3344 104.743 24.3344C105.026 24.3873 105.387 24.352 105.829 24.2285C106.287 24.0873 106.755 23.8932 107.232 23.6461C107.726 23.399 108.194 23.1254 108.635 22.8254C109.076 22.5077 109.42 22.1988 109.667 21.8988C109.932 21.5987 110.064 21.334 110.064 21.1045C110.082 20.8751 109.897 20.7074 109.508 20.6015Z" fill="#0078A3"/>
<path d="M112.738 30.7147C113.462 28.3849 114.115 26.5406 114.697 25.1816C115.298 23.8049 115.792 22.843 116.18 22.2959C116.586 21.7487 116.859 21.5722 117.001 21.7664C117.142 21.9605 117.124 22.4547 116.948 23.249C116.789 24.0432 116.436 25.111 115.889 26.4523C115.359 27.776 114.609 29.2939 113.638 31.0059C113.497 31.0588 113.33 31.0677 113.135 31.0324C112.941 30.9971 112.809 30.8912 112.738 30.7147ZM117.371 17.9806C117.336 17.8923 117.318 17.7335 117.318 17.504C117.318 17.2746 117.336 17.1334 117.371 17.0805C117.777 16.9393 118.086 16.9216 118.298 17.0275C118.51 17.1334 118.642 17.2923 118.695 17.504C118.748 17.6982 118.739 17.91 118.669 18.1394C118.616 18.3689 118.519 18.5454 118.377 18.6689C118.236 18.7748 118.068 18.7925 117.874 18.7219C117.698 18.6336 117.53 18.3865 117.371 17.9806Z" fill="#0078A3"/>
<path d="M118.177 30.7147C118.142 30.697 118.142 30.4941 118.177 30.1058C118.23 29.6998 118.301 29.1968 118.389 28.5967C118.477 27.9967 118.592 27.3348 118.733 26.6112C118.874 25.8875 119.024 25.1992 119.183 24.5462C119.342 23.8755 119.51 23.2931 119.686 22.7989C119.88 22.2871 120.066 21.9341 120.242 21.7399C120.366 21.6164 120.489 21.6164 120.613 21.7399C120.736 21.8458 120.86 21.987 120.983 22.1635C121.107 22.3224 121.231 22.4724 121.354 22.6136C121.478 22.7371 121.61 22.7459 121.751 22.64C122.245 21.9517 122.784 21.2987 123.366 20.681C123.966 20.0456 124.628 19.4984 125.352 19.0395C125.422 18.9866 125.616 18.9072 125.934 18.8013C126.252 18.6777 126.614 18.563 127.02 18.4571C127.426 18.3336 127.84 18.2365 128.264 18.1659C128.705 18.0777 129.076 18.0424 129.376 18.06C129.693 18.06 129.905 18.1394 130.011 18.2983C130.135 18.4395 130.082 18.6866 129.852 19.0395C128.793 19.0572 127.805 19.3661 126.887 19.9661C125.969 20.5662 125.122 21.3075 124.346 22.19C123.569 23.0725 122.863 24.0344 122.228 25.0757C121.592 26.0993 121.036 27.0524 120.56 27.9349C120.101 28.8174 119.713 29.5498 119.395 30.1322C119.095 30.7147 118.874 31.0059 118.733 31.0059C118.715 31.0059 118.636 30.9706 118.495 30.9C118.354 30.8118 118.248 30.75 118.177 30.7147Z" fill="#0078A3"/>
<path d="M127.447 30.397C127.024 30.044 126.786 29.5233 126.733 28.835C126.697 28.1467 126.794 27.3701 127.024 26.5053C127.271 25.6405 127.624 24.7403 128.083 23.8049C128.559 22.8518 129.106 21.9517 129.724 21.1045C130.342 20.2397 131.013 19.472 131.736 18.8013C132.46 18.113 133.183 17.6099 133.907 17.2923C134.631 16.9569 135.337 16.8422 136.025 16.9481C136.713 17.0363 137.34 17.4334 137.905 18.1394C138.258 18.5807 138.47 19.0307 138.54 19.4896C138.611 19.9308 138.602 20.3897 138.514 20.8663C138.425 21.3252 138.284 21.8017 138.09 22.2959C137.896 22.7724 137.702 23.2578 137.508 23.752C137.331 24.2461 137.181 24.7492 137.058 25.261C136.952 25.7728 136.934 26.2935 137.005 26.823C137.093 27.4937 137.393 27.8908 137.905 28.0143C138.417 28.1379 139.025 28.1026 139.731 27.9084C140.455 27.7143 141.214 27.4054 142.008 26.9818C142.802 26.5582 143.535 26.1346 144.206 25.7111C144.894 25.2875 145.459 24.9168 145.9 24.5991C146.359 24.2814 146.588 24.1226 146.588 24.1226C147.082 24.0167 147.356 24.052 147.409 24.2285C147.48 24.3873 147.382 24.6344 147.118 24.9698C146.871 25.2875 146.491 25.6581 145.979 26.0817C145.468 26.4876 144.885 26.8847 144.232 27.273C143.579 27.6613 142.882 28.0143 142.141 28.332C141.399 28.6497 140.676 28.8703 139.97 28.9939C139.264 29.0998 138.593 29.0909 137.958 28.9674C137.34 28.8262 136.828 28.5085 136.422 28.0143C136.228 27.8025 136.078 27.5907 135.972 27.3789C135.884 27.1671 135.734 26.9818 135.522 26.823C135.257 27.0701 134.94 27.3966 134.569 27.8025C134.198 28.1908 133.792 28.5879 133.351 28.9939C132.928 29.3821 132.469 29.7528 131.974 30.1058C131.498 30.4588 131.004 30.7235 130.492 30.9C129.98 31.0765 129.459 31.1383 128.93 31.0853C128.418 31.0324 127.924 30.8029 127.447 30.397ZM127.739 29.4969C127.897 30.0616 128.25 30.3264 128.798 30.2911C129.345 30.2381 129.98 29.9646 130.704 29.4704C131.427 28.9762 132.177 28.3055 132.954 27.4584C133.731 26.5935 134.428 25.6405 135.046 24.5991C135.663 23.5402 136.131 22.4282 136.449 21.2634C136.784 20.0985 136.872 18.9513 136.713 17.8217C136.29 17.4864 135.76 17.4776 135.125 17.7953C134.49 18.0953 133.81 18.5983 133.086 19.3043C132.38 19.9926 131.674 20.8221 130.968 21.7929C130.28 22.7459 129.671 23.7167 129.142 24.705C128.612 25.6758 128.206 26.5935 127.924 27.4584C127.659 28.3232 127.597 29.0027 127.739 29.4969Z" fill="#0078A3"/>
<path d="M16.2771 45.0185H17.1967C17.2516 45.3019 17.4887 45.4436 17.908 45.4436C18.336 45.4436 18.55 45.3409 18.55 45.1356C18.55 45.0633 18.5182 45.0055 18.4545 44.9621C18.3909 44.9158 18.2868 44.8826 18.1422 44.8623L17.587 44.7799C17.1591 44.7134 16.8468 44.6021 16.6501 44.4459C16.4564 44.2898 16.3595 44.0758 16.3595 43.804C16.3595 43.5032 16.4954 43.269 16.7672 43.1013C17.042 42.9336 17.4193 42.8497 17.8993 42.8497C18.7871 42.8497 19.2845 43.1606 19.3915 43.7823L18.5023 43.869C18.456 43.7418 18.3837 43.6507 18.2854 43.5958C18.1871 43.5379 18.0483 43.509 17.869 43.509C17.6781 43.509 17.5306 43.5322 17.4265 43.5784C17.3253 43.6247 17.2747 43.6912 17.2747 43.778C17.2747 43.8502 17.3022 43.9052 17.3571 43.9428C17.4121 43.9804 17.5133 44.0107 17.6608 44.0339L18.3374 44.1423C18.7394 44.2059 19.03 44.3144 19.2093 44.4676C19.3886 44.618 19.4782 44.8305 19.4782 45.1052C19.4782 45.4349 19.3452 45.6836 19.0791 45.8513C18.8131 46.019 18.4213 46.1029 17.9037 46.1029C16.8858 46.1029 16.3436 45.7414 16.2771 45.0185Z" fill="#FF9A2E"/>
<path d="M22.9822 46.1029C22.6005 46.1029 22.2723 46.0378 21.9976 45.9077C21.7229 45.7776 21.5103 45.591 21.3599 45.3481C21.2125 45.1052 21.1387 44.8146 21.1387 44.4763C21.1387 44.138 21.2139 43.8474 21.3643 43.6044C21.5147 43.3615 21.7286 43.175 22.0062 43.0449C22.2838 42.9148 22.6149 42.8497 22.9995 42.8497C23.3812 42.8497 23.7094 42.9148 23.9842 43.0449C24.2589 43.175 24.47 43.3615 24.6174 43.6044C24.7678 43.8474 24.843 44.138 24.843 44.4763C24.843 44.8146 24.7678 45.1052 24.6174 45.3481C24.4671 45.591 24.2531 45.7776 23.9755 45.9077C23.6979 46.0378 23.3668 46.1029 22.9822 46.1029ZM23.8714 44.4763C23.8714 44.1987 23.7933 43.9847 23.6372 43.8343C23.4839 43.6811 23.2685 43.6044 22.9909 43.6044C22.7133 43.6044 22.4964 43.6811 22.3402 43.8343C22.187 43.9876 22.1103 44.2016 22.1103 44.4763C22.1103 44.7539 22.187 44.9693 22.3402 45.1226C22.4964 45.273 22.7133 45.3481 22.9909 45.3481C23.2685 45.3481 23.4839 45.2715 23.6372 45.1182C23.7933 44.965 23.8714 44.751 23.8714 44.4763Z" fill="#FF9A2E"/>
<path d="M26.7088 42.9278H27.6457V45.2657H29.4067L29.3113 46.0248H26.7088V42.9278Z" fill="#FF9A2E"/>
<path d="M32.0044 44.7409C32.0044 44.9491 32.0565 45.1023 32.1606 45.2007C32.2676 45.299 32.4353 45.3481 32.6637 45.3481C32.8951 45.3481 33.0628 45.299 33.1669 45.2007C33.2739 45.1023 33.3274 44.9491 33.3274 44.7409V42.9278H34.2643V44.6671C34.2643 45.1761 34.1269 45.5433 33.8522 45.7689C33.5775 45.9915 33.1813 46.1029 32.6637 46.1029C32.149 46.1029 31.7543 45.9915 31.4796 45.7689C31.2049 45.5433 31.0675 45.1761 31.0675 44.6671V42.9278H32.0044V44.7409Z" fill="#FF9A2E"/>
<path d="M39.5032 43.9515L38.5793 44.0512C38.5244 43.8922 38.442 43.778 38.3321 43.7085C38.2222 43.6391 38.0733 43.6044 37.8853 43.6044C37.628 43.6044 37.427 43.6796 37.2824 43.83C37.1378 43.9775 37.0655 44.1929 37.0655 44.4763C37.0655 44.7597 37.1378 44.9766 37.2824 45.1269C37.4299 45.2744 37.6366 45.3481 37.9027 45.3481C38.3133 45.3481 38.5547 45.1891 38.627 44.871H39.5639C39.5264 45.2614 39.3586 45.565 39.0608 45.7819C38.7658 45.9959 38.3726 46.1029 37.881 46.1029C37.4877 46.1029 37.1581 46.0335 36.892 45.8947C36.6289 45.7559 36.4293 45.565 36.2934 45.3221C36.1604 45.0763 36.0939 44.7944 36.0939 44.4763C36.0939 44.1669 36.1604 43.8893 36.2934 43.6435C36.4293 43.3977 36.6303 43.2039 36.8964 43.0623C37.1624 42.9206 37.4935 42.8497 37.8897 42.8497C38.7832 42.8497 39.321 43.217 39.5032 43.9515ZM37.6554 45.9294L38.0675 46.0248L37.9851 46.2156C38.1673 46.2359 38.3017 46.2793 38.3885 46.3458C38.4752 46.4152 38.5186 46.5048 38.5186 46.6147C38.5186 46.7419 38.455 46.8417 38.3277 46.914C38.2005 46.9863 38.0212 47.0224 37.7899 47.0224C37.5788 47.0224 37.4125 47.0022 37.2911 46.9617V46.6104C37.3634 46.6219 37.427 46.6306 37.4819 46.6364C37.5398 46.6451 37.5947 46.6494 37.6468 46.6494C37.7393 46.6494 37.8058 46.6407 37.8463 46.6234C37.8897 46.6089 37.9113 46.5858 37.9113 46.554C37.9113 46.5135 37.8853 46.486 37.8333 46.4716C37.7841 46.4571 37.6988 46.4499 37.5774 46.4499H37.4255L37.6554 45.9294Z" fill="#FF9A2E"/>
<path d="M43.0509 46.1029C42.6692 46.1029 42.341 46.0378 42.0663 45.9077C41.7916 45.7776 41.579 45.591 41.4287 45.3481C41.2812 45.1052 41.2075 44.8146 41.2075 44.4763C41.2075 44.138 41.2826 43.8474 41.433 43.6044C41.5834 43.3615 41.7974 43.175 42.075 43.0449C42.3526 42.9148 42.6837 42.8497 43.0683 42.8497C43.45 42.8497 43.7782 42.9148 44.0529 43.0449C44.3276 43.175 44.5387 43.3615 44.6862 43.6044C44.8365 43.8474 44.9117 44.138 44.9117 44.4763C44.9117 44.8146 44.8365 45.1052 44.6862 45.3481C44.5358 45.591 44.3218 45.7776 44.0442 45.9077C43.7666 46.0378 43.4355 46.1029 43.0509 46.1029ZM43.9401 44.4763C43.9401 44.1987 43.862 43.9847 43.7059 43.8343C43.5526 43.6811 43.3372 43.6044 43.0596 43.6044C42.782 43.6044 42.5651 43.6811 42.409 43.8343C42.2557 43.9876 42.1791 44.2016 42.1791 44.4763C42.1791 44.7539 42.2557 44.9693 42.409 45.1226C42.5651 45.273 42.782 45.3481 43.0596 45.3481C43.3372 45.3481 43.5526 45.2715 43.7059 45.1182C43.862 44.965 43.9401 44.751 43.9401 44.4763ZM42.0793 42.6719C42.0793 42.4145 42.127 42.2294 42.2224 42.1167C42.3179 42.0039 42.461 41.9475 42.6519 41.9475C42.7907 41.9475 42.9555 41.9952 43.1463 42.0906C43.2215 42.1282 43.2794 42.1543 43.3198 42.1687C43.3603 42.1832 43.3965 42.1904 43.4283 42.1904C43.4832 42.1904 43.5194 42.1731 43.5367 42.1384C43.5541 42.1008 43.5627 42.0415 43.5627 41.9605H44.0789C44.0789 42.2092 44.0312 42.3928 43.9358 42.5114C43.8403 42.6271 43.6972 42.6849 43.5064 42.6849C43.3704 42.6849 43.21 42.6386 43.0249 42.5461C42.8832 42.4767 42.7849 42.442 42.7299 42.442C42.6779 42.442 42.6417 42.4622 42.6215 42.5027C42.6041 42.5403 42.5955 42.5967 42.5955 42.6719H42.0793Z" fill="#FF9A2E"/>
<path d="M46.7775 42.9278H49.4885V43.6088H47.6927V44.1119H49.4017V44.7929H47.6927V45.3438H49.5926L49.5058 46.0248H46.7775V42.9278Z" fill="#FF9A2E"/>
<path d="M51.1909 45.0185H52.1104C52.1654 45.3019 52.4025 45.4436 52.8218 45.4436C53.2498 45.4436 53.4637 45.3409 53.4637 45.1356C53.4637 45.0633 53.4319 45.0055 53.3683 44.9621C53.3047 44.9158 53.2006 44.8826 53.056 44.8623L52.5008 44.7799C52.0728 44.7134 51.7605 44.6021 51.5639 44.4459C51.3702 44.2898 51.2733 44.0758 51.2733 43.804C51.2733 43.5032 51.4092 43.269 51.681 43.1013C51.9557 42.9336 52.3331 42.8497 52.8131 42.8497C53.7009 42.8497 54.1982 43.1606 54.3052 43.7823L53.416 43.869C53.3698 43.7418 53.2975 43.6507 53.1992 43.5958C53.1008 43.5379 52.962 43.509 52.7828 43.509C52.5919 43.509 52.4444 43.5322 52.3403 43.5784C52.2391 43.6247 52.1885 43.6912 52.1885 43.778C52.1885 43.8502 52.216 43.9052 52.2709 43.9428C52.3259 43.9804 52.4271 44.0107 52.5746 44.0339L53.2512 44.1423C53.6532 44.2059 53.9438 44.3144 54.1231 44.4676C54.3023 44.618 54.392 44.8305 54.392 45.1052C54.392 45.4349 54.259 45.6836 53.9929 45.8513C53.7269 46.019 53.3351 46.1029 52.8175 46.1029C51.7996 46.1029 51.2574 45.7414 51.1909 45.0185Z" fill="#FF9A2E"/>
<path d="M58.6701 42.9278H60.21C61.1382 42.9278 61.6023 43.2849 61.6023 43.9992C61.6023 44.3664 61.4823 44.6382 61.2423 44.8146C61.0052 44.9881 60.6437 45.0749 60.1579 45.0749H59.5767V46.0248H58.6701V42.9278ZM60.1406 44.3809C60.3285 44.3809 60.4673 44.352 60.557 44.2941C60.6466 44.2363 60.6914 44.1365 60.6914 43.9948C60.6914 43.8618 60.6481 43.7664 60.5613 43.7085C60.4746 43.6507 60.3372 43.6218 60.1492 43.6218H59.5767V44.3809H60.1406Z" fill="#FF9A2E"/>
<path d="M64.0452 42.9278H65.1383L66.4829 46.0248H65.5113L65.2814 45.4609H63.8674L63.6505 46.0248H62.7006L64.0452 42.9278ZM65.0211 44.7669L64.5787 43.6348L64.1363 44.7669H65.0211Z" fill="#FF9A2E"/>
<path d="M68.1771 42.9278H69.769C70.6973 42.9278 71.1614 43.2705 71.1614 43.9558C71.1614 44.1756 71.1151 44.3548 71.0226 44.4936C70.93 44.6296 70.7941 44.738 70.6148 44.819L71.3739 46.0248H70.3719L69.7603 44.9968H69.0533V46.0248H68.1771V42.9278ZM69.7126 44.3288C69.9035 44.3288 70.0423 44.3013 70.129 44.2464C70.2187 44.1886 70.2635 44.0931 70.2635 43.9601C70.2635 43.8271 70.2216 43.7331 70.1377 43.6782C70.0539 43.6232 69.9151 43.5958 69.7213 43.5958H69.0533V44.3288H69.7126Z" fill="#FF9A2E"/>
<path d="M74.141 42.9278H75.234L76.5787 46.0248H75.6071L75.3772 45.4609H73.9632L73.7463 46.0248H72.7964L74.141 42.9278ZM75.1169 44.7669L74.6745 43.6348L74.2321 44.7669H75.1169Z" fill="#FF9A2E"/>
<path d="M81.7884 42.9278H82.8815L84.2261 46.0248H83.2545L83.0246 45.4609H81.6106L81.3937 46.0248H80.4438L81.7884 42.9278ZM82.7644 44.7669L82.322 43.6348L81.8795 44.7669H82.7644Z" fill="#FF9A2E"/>
<path d="M91.6697 43.9515L90.7458 44.0512C90.6909 43.8922 90.6085 43.778 90.4986 43.7085C90.3887 43.6391 90.2398 43.6044 90.0518 43.6044C89.7944 43.6044 89.5935 43.6796 89.4489 43.83C89.3043 43.9775 89.232 44.1929 89.232 44.4763C89.232 44.7597 89.3043 44.9766 89.4489 45.1269C89.5964 45.2744 89.8031 45.3481 90.0692 45.3481C90.4798 45.3481 90.7212 45.1891 90.7935 44.871H91.7304C91.6928 45.2614 91.5251 45.565 91.2273 45.7819C90.9323 45.9959 90.5391 46.1029 90.0475 46.1029C89.6542 46.1029 89.3245 46.0335 89.0585 45.8947C88.7954 45.7559 88.5958 45.565 88.4599 45.3221C88.3269 45.0763 88.2604 44.7944 88.2604 44.4763C88.2604 44.1669 88.3269 43.8893 88.4599 43.6435C88.5958 43.3977 88.7968 43.2039 89.0629 43.0623C89.3289 42.9206 89.66 42.8497 90.0561 42.8497C90.9497 42.8497 91.4875 43.217 91.6697 43.9515Z" fill="#FF9A2E"/>
<path d="M95.2174 46.1029C94.8357 46.1029 94.5075 46.0378 94.2328 45.9077C93.9581 45.7776 93.7456 45.591 93.5952 45.3481C93.4477 45.1052 93.374 44.8146 93.374 44.4763C93.374 44.138 93.4492 43.8474 93.5995 43.6044C93.7499 43.3615 93.9639 43.175 94.2415 43.0449C94.5191 42.9148 94.8502 42.8497 95.2348 42.8497C95.6165 42.8497 95.9447 42.9148 96.2194 43.0449C96.4941 43.175 96.7052 43.3615 96.8527 43.6044C97.003 43.8474 97.0782 44.138 97.0782 44.4763C97.0782 44.8146 97.003 45.1052 96.8527 45.3481C96.7023 45.591 96.4883 45.7776 96.2107 45.9077C95.9331 46.0378 95.602 46.1029 95.2174 46.1029ZM96.1066 44.4763C96.1066 44.1987 96.0285 43.9847 95.8724 43.8343C95.7191 43.6811 95.5037 43.6044 95.2261 43.6044C94.9485 43.6044 94.7316 43.6811 94.5755 43.8343C94.4222 43.9876 94.3456 44.2016 94.3456 44.4763C94.3456 44.7539 94.4222 44.9693 94.5755 45.1226C94.7316 45.273 94.9485 45.3481 95.2261 45.3481C95.5037 45.3481 95.7191 45.2715 95.8724 45.1182C96.0285 44.965 96.1066 44.751 96.1066 44.4763Z" fill="#FF9A2E"/>
<path d="M98.944 42.9278H100.002L100.935 45.0228L101.863 42.9278H102.9V46.0248H102.041V44.2204L101.256 46.0248H100.571L99.7898 44.2291V46.0248H98.944V42.9278Z" fill="#FF9A2E"/>
<path d="M105.811 44.7409C105.811 44.9491 105.863 45.1023 105.967 45.2007C106.074 45.299 106.242 45.3481 106.47 45.3481C106.702 45.3481 106.87 45.299 106.974 45.2007C107.081 45.1023 107.134 44.9491 107.134 44.7409V42.9278H108.071V44.6671C108.071 45.1761 107.934 45.5433 107.659 45.7689C107.384 45.9915 106.988 46.1029 106.47 46.1029C105.956 46.1029 105.561 45.9915 105.286 45.7689C105.012 45.5433 104.874 45.1761 104.874 44.6671V42.9278H105.811V44.7409Z" fill="#FF9A2E"/>
<path d="M110.039 42.9278H110.872L112.421 44.7886V42.9278H113.306V46.0248H112.473L110.924 44.164V46.0248H110.039V42.9278Z" fill="#FF9A2E"/>
<path d="M115.31 42.9278H116.247V46.0248H115.31V42.9278Z" fill="#FF9A2E"/>
<path d="M121.521 43.9515L120.597 44.0512C120.542 43.8922 120.46 43.778 120.35 43.7085C120.24 43.6391 120.091 43.6044 119.903 43.6044C119.646 43.6044 119.445 43.6796 119.3 43.83C119.155 43.9775 119.083 44.1929 119.083 44.4763C119.083 44.7597 119.155 44.9766 119.3 45.1269C119.447 45.2744 119.654 45.3481 119.92 45.3481C120.331 45.3481 120.572 45.1891 120.645 44.871H121.582C121.544 45.2614 121.376 45.565 121.078 45.7819C120.783 45.9959 120.39 46.1029 119.899 46.1029C119.505 46.1029 119.176 46.0335 118.91 45.8947C118.646 45.7559 118.447 45.565 118.311 45.3221C118.178 45.0763 118.111 44.7944 118.111 44.4763C118.111 44.1669 118.178 43.8893 118.311 43.6435C118.447 43.3977 118.648 43.2039 118.914 43.0623C119.18 42.9206 119.511 42.8497 119.907 42.8497C120.801 42.8497 121.339 43.217 121.521 43.9515Z" fill="#FF9A2E"/>
<path d="M124.29 42.9278H125.383L126.728 46.0248H125.756L125.527 45.4609H124.113L123.896 46.0248H122.946L124.29 42.9278ZM125.266 44.7669L124.824 43.6348L124.381 44.7669H125.266Z" fill="#FF9A2E"/>
<path d="M131.502 43.9515L130.578 44.0512C130.523 43.8922 130.441 43.778 130.331 43.7085C130.221 43.6391 130.072 43.6044 129.884 43.6044C129.627 43.6044 129.426 43.6796 129.281 43.83C129.137 43.9775 129.064 44.1929 129.064 44.4763C129.064 44.7597 129.137 44.9766 129.281 45.1269C129.429 45.2744 129.636 45.3481 129.902 45.3481C130.312 45.3481 130.554 45.1891 130.626 44.871H131.563C131.525 45.2614 131.358 45.565 131.06 45.7819C130.765 45.9959 130.372 46.1029 129.88 46.1029C129.487 46.1029 129.157 46.0335 128.891 45.8947C128.628 45.7559 128.428 45.565 128.292 45.3221C128.159 45.0763 128.093 44.7944 128.093 44.4763C128.093 44.1669 128.159 43.8893 128.292 43.6435C128.428 43.3977 128.629 43.2039 128.895 43.0623C129.161 42.9206 129.492 42.8497 129.889 42.8497C130.782 42.8497 131.32 43.217 131.502 43.9515ZM129.654 45.9294L130.066 46.0248L129.984 46.2156C130.166 46.2359 130.301 46.2793 130.387 46.3458C130.474 46.4152 130.518 46.5048 130.518 46.6147C130.518 46.7419 130.454 46.8417 130.327 46.914C130.199 46.9863 130.02 47.0224 129.789 47.0224C129.578 47.0224 129.412 47.0022 129.29 46.9617V46.6104C129.362 46.6219 129.426 46.6306 129.481 46.6364C129.539 46.6451 129.594 46.6494 129.646 46.6494C129.738 46.6494 129.805 46.6407 129.845 46.6234C129.889 46.6089 129.91 46.5858 129.91 46.554C129.91 46.5135 129.884 46.486 129.832 46.4716C129.783 46.4571 129.698 46.4499 129.576 46.4499H129.425L129.654 45.9294Z" fill="#FF9A2E"/>
<path d="M134.272 42.9278H135.365L136.709 46.0248H135.738L135.508 45.4609H134.094L133.877 46.0248H132.927L134.272 42.9278ZM135.248 44.7669L134.805 43.6348L134.363 44.7669H135.248ZM133.838 42.6719C133.838 42.4145 133.886 42.2294 133.981 42.1167C134.077 42.0039 134.22 41.9475 134.411 41.9475C134.549 41.9475 134.714 41.9952 134.905 42.0906C134.98 42.1282 135.038 42.1543 135.079 42.1687C135.119 42.1832 135.155 42.1904 135.187 42.1904C135.242 42.1904 135.278 42.1731 135.295 42.1384C135.313 42.1008 135.321 42.0415 135.321 41.9605H135.838C135.838 42.2092 135.79 42.3928 135.694 42.5114C135.599 42.6271 135.456 42.6849 135.265 42.6849C135.129 42.6849 134.969 42.6386 134.784 42.5461C134.642 42.4767 134.544 42.442 134.489 42.442C134.437 42.442 134.4 42.4622 134.38 42.5027C134.363 42.5403 134.354 42.5967 134.354 42.6719H133.838Z" fill="#FF9A2E"/>
<path d="M139.918 46.1029C139.536 46.1029 139.208 46.0378 138.933 45.9077C138.658 45.7776 138.446 45.591 138.296 45.3481C138.148 45.1052 138.074 44.8146 138.074 44.4763C138.074 44.138 138.149 43.8474 138.3 43.6044C138.45 43.3615 138.664 43.175 138.942 43.0449C139.219 42.9148 139.551 42.8497 139.935 42.8497C140.317 42.8497 140.645 42.9148 140.92 43.0449C141.194 43.175 141.406 43.3615 141.553 43.6044C141.703 43.8474 141.779 44.138 141.779 44.4763C141.779 44.8146 141.703 45.1052 141.553 45.3481C141.403 45.591 141.189 45.7776 140.911 45.9077C140.633 46.0378 140.302 46.1029 139.918 46.1029ZM140.807 44.4763C140.807 44.1987 140.729 43.9847 140.573 43.8343C140.419 43.6811 140.204 43.6044 139.926 43.6044C139.649 43.6044 139.432 43.6811 139.276 43.8343C139.123 43.9876 139.046 44.2016 139.046 44.4763C139.046 44.7539 139.123 44.9693 139.276 45.1226C139.432 45.273 139.649 45.3481 139.926 45.3481C140.204 45.3481 140.419 45.2715 140.573 45.1182C140.729 44.965 140.807 44.751 140.807 44.4763Z" fill="#FF9A2E"/>
<path d="M51.1512 51.5248C50.7695 51.5248 50.4413 51.4597 50.1666 51.3296C49.8918 51.1995 49.6793 51.013 49.5289 50.7701C49.3815 50.5272 49.3077 50.2365 49.3077 49.8982C49.3077 49.5599 49.3829 49.2693 49.5333 49.0264C49.6836 48.7835 49.8976 48.597 50.1752 48.4668C50.4528 48.3367 50.7839 48.2716 51.1685 48.2716C51.5502 48.2716 51.8784 48.3367 52.1532 48.4668C52.4279 48.597 52.639 48.7835 52.7864 49.0264C52.9368 49.2693 53.012 49.5599 53.012 49.8982C53.012 50.2365 52.9368 50.5272 52.7864 50.7701C52.6361 51.013 52.4221 51.1995 52.1445 51.3296C51.8669 51.4597 51.5358 51.5248 51.1512 51.5248ZM52.0404 49.8982C52.0404 49.6206 51.9623 49.4066 51.8061 49.2563C51.6529 49.103 51.4375 49.0264 51.1599 49.0264C50.8823 49.0264 50.6654 49.103 50.5092 49.2563C50.356 49.4095 50.2793 49.6235 50.2793 49.8982C50.2793 50.1758 50.356 50.3912 50.5092 50.5445C50.6654 50.6949 50.8823 50.7701 51.1599 50.7701C51.4375 50.7701 51.6529 50.6934 51.8061 50.5402C51.9623 50.3869 52.0404 50.1729 52.0404 49.8982Z" fill="#FF9A2E"/>
<path d="M54.8778 48.3497H56.4696C57.3979 48.3497 57.862 48.6924 57.862 49.3777C57.862 49.5975 57.8157 49.7768 57.7232 49.9156C57.6307 50.0515 57.4947 50.1599 57.3155 50.2409L58.0745 51.4467H57.0726L56.461 50.4187H55.7539V51.4467H54.8778V48.3497ZM56.4133 49.7507C56.6041 49.7507 56.7429 49.7233 56.8297 49.6683C56.9193 49.6105 56.9641 49.5151 56.9641 49.382C56.9641 49.249 56.9222 49.1551 56.8383 49.1001C56.7545 49.0452 56.6157 49.0177 56.4219 49.0177H55.7539V49.7507H56.4133Z" fill="#FF9A2E"/>
<path d="M60.8416 48.3497H61.9347L63.2793 51.4467H62.3077L62.0778 50.8828H60.6638L60.4469 51.4467H59.497L60.8416 48.3497ZM61.8176 50.1888L61.3751 49.0567L60.9327 50.1888H61.8176Z" fill="#FF9A2E"/>
<path d="M64.9736 48.3497H65.9105V50.6876H67.6715L67.5761 51.4467H64.9736V48.3497Z" fill="#FF9A2E"/>
<path d="M71.9051 48.3497H74.6161V49.0307H72.8204V49.5339H74.5293V50.2149H72.8204V50.7657H74.7202L74.6334 51.4467H71.9051V48.3497Z" fill="#FF9A2E"/>
<path d="M79.0316 48.3497H81.7425V49.0307H79.9468V49.5339H81.6558V50.2149H79.9468V50.7657H81.8466L81.7599 51.4467H79.0316V48.3497Z" fill="#FF9A2E"/>
<path d="M83.445 50.4404H84.3645C84.4194 50.7238 84.6566 50.8655 85.0759 50.8655C85.5038 50.8655 85.7178 50.7628 85.7178 50.5575C85.7178 50.4852 85.686 50.4274 85.6224 50.384C85.5588 50.3378 85.4547 50.3045 85.3101 50.2843L84.7549 50.2018C84.3269 50.1353 84.0146 50.024 83.818 49.8679C83.6242 49.7117 83.5274 49.4977 83.5274 49.2259C83.5274 48.9252 83.6633 48.6909 83.9351 48.5232C84.2098 48.3555 84.5872 48.2716 85.0672 48.2716C85.9549 48.2716 86.4523 48.5825 86.5593 49.2042L85.6701 49.291C85.6238 49.1637 85.5516 49.0726 85.4532 49.0177C85.3549 48.9599 85.2161 48.9309 85.0368 48.9309C84.846 48.9309 84.6985 48.9541 84.5944 49.0003C84.4932 49.0466 84.4426 49.1131 84.4426 49.1999C84.4426 49.2722 84.4701 49.3271 84.525 49.3647C84.5799 49.4023 84.6811 49.4327 84.8286 49.4558L85.5053 49.5642C85.9072 49.6278 86.1978 49.7363 86.3771 49.8895C86.5564 50.0399 86.6461 50.2524 86.6461 50.5272C86.6461 50.8568 86.513 51.1055 86.247 51.2732C85.981 51.4409 85.5891 51.5248 85.0715 51.5248C84.0536 51.5248 83.5115 51.1633 83.445 50.4404Z" fill="#FF9A2E"/>
<path d="M91.7159 49.3734L90.792 49.4731C90.7371 49.3141 90.6546 49.1999 90.5448 49.1305C90.4349 49.0611 90.2859 49.0264 90.098 49.0264C89.8406 49.0264 89.6397 49.1016 89.4951 49.2519C89.3505 49.3994 89.2782 49.6148 89.2782 49.8982C89.2782 50.1816 89.3505 50.3985 89.4951 50.5488C89.6425 50.6963 89.8493 50.7701 90.1153 50.7701C90.526 50.7701 90.7674 50.611 90.8397 50.2929H91.7766C91.739 50.6833 91.5713 50.9869 91.2735 51.2038C90.9785 51.4178 90.5852 51.5248 90.0937 51.5248C89.7004 51.5248 89.3707 51.4554 89.1047 51.3166C88.8416 51.1778 88.642 50.9869 88.5061 50.744C88.3731 50.4982 88.3066 50.2163 88.3066 49.8982C88.3066 49.5888 88.3731 49.3112 88.5061 49.0654C88.642 48.8196 88.843 48.6259 89.109 48.4842C89.3751 48.3425 89.7062 48.2716 90.1023 48.2716C90.9959 48.2716 91.5337 48.6389 91.7159 49.3734Z" fill="#FF9A2E"/>
<path d="M93.5589 48.3497H95.1508C96.079 48.3497 96.5432 48.6924 96.5432 49.3777C96.5432 49.5975 96.4969 49.7768 96.4044 49.9156C96.3118 50.0515 96.1759 50.1599 95.9966 50.2409L96.7557 51.4467H95.7537L95.1421 50.4187H94.4351V51.4467H93.5589V48.3497ZM95.0944 49.7507C95.2853 49.7507 95.4241 49.7233 95.5108 49.6683C95.6005 49.6105 95.6453 49.5151 95.6453 49.382C95.6453 49.249 95.6034 49.1551 95.5195 49.1001C95.4356 49.0452 95.2968 49.0177 95.1031 49.0177H94.4351V49.7507H95.0944Z" fill="#FF9A2E"/>
<path d="M98.448 48.3497H99.3849V51.4467H98.448V48.3497Z" fill="#FF9A2E"/>
<path d="M102.234 49.1088H101.089V48.3497H104.316V49.1088H103.171V51.4467H102.234V49.1088Z" fill="#FF9A2E"/>
<path d="M106.577 48.3497H107.67L109.015 51.4467H108.043L107.813 50.8828H106.399L106.182 51.4467H105.233L106.577 48.3497ZM107.553 50.1888L107.111 49.0567L106.668 50.1888H107.553Z" fill="#FF9A2E"/>
</svg>
