<svg width="158" height="61" viewBox="0 0 158 61" fill="none" xmlns="http://www.w3.org/2000/svg">
<path d="M13.3668 30.1112C12.2902 29.6876 11.5489 29.114 11.143 28.3903C10.737 27.6667 10.5694 26.8637 10.64 25.9812C10.7282 25.0811 11.0106 24.128 11.4871 23.122C11.9813 22.0983 12.5814 21.0746 13.2874 20.051C14.011 19.0273 14.8052 18.0301 15.6701 17.0594C16.5349 16.0887 17.3909 15.1974 18.2381 14.3855C19.0852 13.5736 19.8795 12.8676 20.6207 12.2675C21.362 11.6675 21.9621 11.2262 22.421 10.9438C23.0564 10.5555 23.5859 10.3702 24.0094 10.3879C24.433 10.3879 24.7684 10.5202 25.0155 10.785C25.2802 11.0321 25.4567 11.3851 25.5449 11.844C25.6508 12.2852 25.695 12.7617 25.6773 13.2736C25.6773 13.7677 25.6244 14.2708 25.5185 14.7826C25.4302 15.2768 25.3067 15.7092 25.1478 16.0798C25.0066 16.4505 24.8478 16.724 24.6713 16.9005C24.5124 17.077 24.3536 17.0858 24.1948 16.927C24.1771 16.7858 24.1948 16.574 24.2477 16.2916C24.3007 15.9916 24.3624 15.6562 24.433 15.2856C24.5213 14.915 24.6007 14.5355 24.6713 14.1472C24.7419 13.7589 24.786 13.4059 24.8037 13.0882C24.839 12.7529 24.8301 12.4705 24.7772 12.2411C24.7419 12.0116 24.6448 11.8793 24.486 11.844C23.8682 11.6851 23.127 11.8351 22.2621 12.294C21.415 12.7353 20.5237 13.3795 19.5882 14.2266C18.6705 15.0562 17.7527 16.0269 16.8349 17.1388C15.9348 18.2331 15.1141 19.3626 14.3728 20.5275C13.6315 21.6924 13.0226 22.8308 12.5461 23.9427C12.0696 25.0369 11.796 26.0077 11.7254 26.8548C11.6725 27.6844 11.8578 28.3286 12.2814 28.7875C12.7226 29.2287 13.4903 29.3699 14.5846 29.211C15.5906 29.0698 16.5172 28.7169 17.3644 28.1521C18.2292 27.5696 19.0588 26.9343 19.853 26.2459C20.6649 25.5399 21.4679 24.8516 22.2621 24.1809C23.0564 23.4926 23.8859 22.9719 24.7507 22.619C25.0684 22.4954 25.3155 22.5395 25.492 22.7513C25.6861 22.9631 25.7391 23.219 25.6508 23.5191C25.5449 23.8191 25.2273 24.2162 24.6978 24.7104C24.1859 25.2046 23.5417 25.7253 22.7652 26.2724C22.0062 26.8019 21.1679 27.3402 20.2501 27.8873C19.3323 28.4168 18.4322 28.8757 17.5497 29.264C16.6849 29.6523 15.873 29.9347 15.1141 30.1112C14.3728 30.2877 13.7904 30.2877 13.3668 30.1112Z" fill="#010101"/>
<path d="M26.2979 30.1112C26.2626 30.0935 26.2626 29.8905 26.2979 29.5023C26.3508 29.0963 26.4214 28.5933 26.5097 27.9932C26.5979 27.3931 26.7126 26.7313 26.8538 26.0077C26.995 25.284 27.145 24.5957 27.3039 23.9427C27.4627 23.272 27.6304 22.6896 27.8069 22.1954C28.001 21.6835 28.1864 21.3305 28.3629 21.1364C28.4864 21.0129 28.61 21.0129 28.7335 21.1364C28.857 21.2423 28.9806 21.3835 29.1041 21.56C29.2277 21.7188 29.3512 21.8689 29.4748 22.0101C29.5983 22.1336 29.7307 22.1424 29.8719 22.0365C30.3661 21.3482 30.9044 20.6952 31.4868 20.0774C32.0869 19.4421 32.7488 18.8949 33.4724 18.436C33.543 18.3831 33.7371 18.3037 34.0548 18.1978C34.3725 18.0742 34.7343 17.9595 35.1403 17.8536C35.5462 17.7301 35.961 17.633 36.3846 17.5624C36.8258 17.4741 37.1964 17.4388 37.4965 17.4565C37.8142 17.4565 38.026 17.5359 38.1318 17.6948C38.2554 17.836 38.2024 18.083 37.973 18.436C36.914 18.4537 35.9257 18.7625 35.0079 19.3626C34.0901 19.9627 33.2429 20.704 32.4664 21.5865C31.6898 22.4689 30.9838 23.4308 30.3484 24.4722C29.713 25.4958 29.1571 26.4489 28.6806 27.3314C28.2217 28.2138 27.8334 28.9463 27.5157 29.5287C27.2156 30.1112 26.995 30.4024 26.8538 30.4024C26.8362 30.4024 26.7568 30.3671 26.6156 30.2965C26.4744 30.2082 26.3685 30.1465 26.2979 30.1112Z" fill="#010101"/>
<path d="M36.9257 30.1112C37.6493 27.7814 38.3023 25.9371 38.8848 24.5781C39.4849 23.2014 39.979 22.2395 40.3673 21.6924C40.7733 21.1452 41.0468 20.9687 41.188 21.1629C41.3292 21.357 41.3116 21.8512 41.1351 22.6454C40.9762 23.4397 40.6232 24.5075 40.0761 25.8488C39.5466 27.1725 38.7965 28.6904 37.8258 30.4024C37.6846 30.4553 37.5169 30.4642 37.3228 30.4289C37.1287 30.3936 36.9963 30.2877 36.9257 30.1112ZM41.5587 17.3771C41.5234 17.2888 41.5057 17.13 41.5057 16.9005C41.5057 16.6711 41.5234 16.5299 41.5587 16.4769C41.9646 16.3357 42.2735 16.3181 42.4853 16.424C42.6971 16.5299 42.8294 16.6887 42.8824 16.9005C42.9353 17.0947 42.9265 17.3065 42.8559 17.5359C42.803 17.7654 42.7059 17.9418 42.5647 18.0654C42.4235 18.1713 42.2558 18.1889 42.0617 18.1183C41.8852 18.0301 41.7175 17.783 41.5587 17.3771Z" fill="#010101"/>
<path d="M42.3645 30.1112C42.1528 29.97 42.1439 29.7847 42.3381 29.5552C42.5499 29.3081 42.8764 29.0522 43.3176 28.7875C43.7765 28.5051 44.306 28.2138 44.9061 27.9138C45.5062 27.6138 46.0798 27.3314 46.6269 27.0666C47.1917 26.8019 47.6859 26.5724 48.1095 26.3783C48.533 26.1665 48.8066 26.0077 48.9302 25.9018C49.5126 25.4076 49.8126 25.0016 49.8303 24.6839C49.8656 24.3486 49.7244 24.0839 49.4067 23.8897C49.089 23.6779 48.6389 23.5191 48.0565 23.4132C47.4917 23.2896 46.9005 23.1837 46.2827 23.0955C45.6827 22.9896 45.1002 22.8837 44.5354 22.7778C43.9883 22.6719 43.5735 22.5307 43.2911 22.3542C43.0088 22.1777 42.9117 21.9483 42.9999 21.6659C43.1058 21.3658 43.4941 20.9864 44.1648 20.5275C44.4119 20.351 44.7737 20.0951 45.2502 19.7597C45.7268 19.4244 46.2386 19.0802 46.7857 18.7272C47.3505 18.3743 47.9065 18.0566 48.4536 17.7742C49.0008 17.4918 49.4596 17.3065 49.8303 17.2182C50.0244 17.1829 50.2186 17.2006 50.4127 17.2712C50.6245 17.3418 50.7922 17.4477 50.9157 17.5889C51.0393 17.7124 51.0922 17.8536 51.0746 18.0124C51.0746 18.1713 50.9598 18.3125 50.7304 18.436C49.7244 19.0008 48.7537 19.5303 47.8182 20.0245C46.9005 20.5187 45.9739 21.0835 45.0384 21.7188C44.9855 21.86 44.9943 21.9836 45.0649 22.0895C45.1532 22.1954 45.2502 22.2748 45.3561 22.3277C47.227 22.5219 48.6301 22.7955 49.5655 23.1484C50.5186 23.5014 51.1187 23.8897 51.3658 24.3133C51.6305 24.7369 51.6041 25.187 51.2864 25.6635C50.9687 26.14 50.4921 26.6077 49.8568 27.0666C49.239 27.5255 48.5242 27.9579 47.7123 28.3639C46.9005 28.7698 46.1151 29.114 45.3561 29.3964C44.6149 29.6788 43.9618 29.8905 43.397 30.0317C42.8323 30.1729 42.4881 30.1994 42.3645 30.1112Z" fill="#010101"/>
<path d="M65.3675 30.1112C64.485 29.7405 63.9026 29.2287 63.6202 28.5757C63.3378 27.905 63.2407 27.1902 63.329 26.4312C63.4172 25.6547 63.629 24.8781 63.9643 24.1015C64.3173 23.3249 64.6791 22.6366 65.0498 22.0365C65.1733 21.8247 65.4028 21.4629 65.7381 20.9511C66.0735 20.4392 66.4264 19.9009 66.7971 19.3362C67.1854 18.7537 67.5472 18.2154 67.8825 17.7212C68.2355 17.2094 68.4826 16.8564 68.6238 16.6623C68.8356 15.3032 69.2592 14.2266 69.8946 13.4324C70.5299 12.6205 71.2448 12.0646 72.039 11.7645C72.8509 11.4645 73.6804 11.4027 74.5276 11.5792C75.3747 11.7381 76.116 12.1175 76.7514 12.7176C77.3868 13.3 77.8457 14.0854 78.1281 15.0738C78.4104 16.0622 78.384 17.2182 78.0486 18.5419C77.7309 19.8656 77.0426 21.3482 75.9836 22.9896C74.9247 24.631 73.3715 26.4048 71.3242 28.3109C70.9712 28.6463 70.5476 28.9728 70.0534 29.2905C69.5769 29.5905 69.065 29.8376 68.5179 30.0317C67.9884 30.2259 67.4501 30.3406 66.903 30.3759C66.3558 30.4112 65.844 30.323 65.3675 30.1112ZM64.4409 28.0197C64.6174 28.8139 64.9527 29.3081 65.4469 29.5023C65.9411 29.6964 66.5235 29.6611 67.1942 29.3964C67.8649 29.1316 68.5973 28.6816 69.3916 28.0462C70.1858 27.4108 70.98 26.6695 71.7742 25.8223C72.5685 24.9575 73.3274 24.0221 74.051 23.0161C74.7747 22.0101 75.4012 21.0129 75.9307 20.0245C76.4778 19.0361 76.8926 18.0919 77.175 17.1917C77.4574 16.2916 77.5456 15.515 77.4397 14.862C77.3515 14.1913 77.0338 13.6883 76.4866 13.353C75.9572 13.0176 75.1365 12.9206 74.0245 13.0618C73.6186 13.4148 73.0803 13.9354 72.4096 14.6237C71.7389 15.2944 71.0241 16.0622 70.2652 16.927C69.5063 17.7918 68.7473 18.7272 67.9884 19.7333C67.2295 20.7216 66.5588 21.71 65.9764 22.6984C65.3939 23.6868 64.9527 24.6398 64.6527 25.5576C64.3526 26.4754 64.282 27.2961 64.4409 28.0197Z" fill="#010101"/>
<path d="M78.2604 30.1112C77.7486 29.7405 77.4132 29.2728 77.2544 28.708C77.1132 28.1432 77.0956 27.5343 77.2015 26.8813C77.3074 26.2106 77.4927 25.5223 77.7574 24.8163C78.0398 24.1103 78.3398 23.4308 78.6575 22.7778C78.9929 22.1248 79.3106 21.5247 79.6106 20.9776C79.9283 20.4304 80.1754 19.9804 80.3519 19.6274C80.4048 19.5215 80.5284 19.2656 80.7225 18.8596C80.9343 18.4537 81.1549 18.0124 81.3844 17.5359C81.6138 17.0594 81.8256 16.6181 82.0198 16.2122C82.2316 15.7886 82.3639 15.5239 82.4169 15.418C82.4698 15.3297 82.5404 15.1621 82.6287 14.915C82.7346 14.6502 82.8493 14.3678 82.9728 14.0678C83.0964 13.7677 83.2287 13.4854 83.3699 13.2206C83.5288 12.9382 83.6876 12.7353 83.8465 12.6117C84.023 12.4882 84.1906 12.4705 84.3495 12.5588C84.526 12.647 84.6936 12.9117 84.8525 13.353C84.7819 13.5295 84.6054 13.8825 84.323 14.412C84.0583 14.9414 83.7406 15.5768 83.3699 16.3181C82.9993 17.0594 82.5845 17.8801 82.1257 18.7802C81.6844 19.6803 81.252 20.5893 80.8284 21.507C80.4048 22.4248 80.0077 23.3249 79.6371 24.2074C79.2664 25.0722 78.9576 25.8665 78.7105 26.5901C78.481 27.2961 78.3398 27.8873 78.2869 28.3639C78.2516 28.8228 78.3398 29.1051 78.5516 29.211C78.7987 29.3346 79.1164 29.3875 79.5047 29.3699C79.9106 29.3346 80.3254 29.2816 80.749 29.211C81.1726 29.1404 81.5873 29.0698 81.9933 28.9992C82.3992 28.911 82.7522 28.8757 83.0523 28.8934C83.1228 29.0522 83.0699 29.211 82.8934 29.3699C82.7169 29.5111 82.4698 29.6435 82.1521 29.767C81.8344 29.8729 81.4638 29.97 81.0402 30.0582C80.6343 30.1288 80.2372 30.1818 79.8489 30.2171C79.4782 30.2524 79.1429 30.2612 78.8428 30.2435C78.5605 30.2259 78.3663 30.1818 78.2604 30.1112Z" fill="#010101"/>
<path d="M83.964 30.1112C84.6877 27.7814 85.3407 25.9371 85.9231 24.5781C86.5232 23.2014 87.0174 22.2395 87.4057 21.6924C87.8116 21.1452 88.0852 20.9687 88.2264 21.1629C88.3676 21.357 88.3499 21.8512 88.1734 22.6454C88.0146 23.4397 87.6616 24.5075 87.1145 25.8488C86.585 27.1725 85.8349 28.6904 84.8641 30.4024C84.723 30.4553 84.5553 30.4642 84.3611 30.4289C84.167 30.3936 84.0346 30.2877 83.964 30.1112ZM88.597 17.3771C88.5617 17.2888 88.5441 17.13 88.5441 16.9005C88.5441 16.6711 88.5617 16.5299 88.597 16.4769C89.003 16.3357 89.3118 16.3181 89.5236 16.424C89.7354 16.5299 89.8678 16.6887 89.9207 16.9005C89.9737 17.0947 89.9648 17.3065 89.8942 17.5359C89.8413 17.7654 89.7442 17.9418 89.603 18.0654C89.4618 18.1713 89.2942 18.1889 89.1 18.1183C88.9235 18.0301 88.7559 17.783 88.597 17.3771Z" fill="#010101"/>
<path d="M90.1442 29.7935C89.7735 29.5817 89.5088 29.2463 89.3499 28.7875C89.1911 28.3286 89.1028 27.8079 89.0852 27.2255C89.0676 26.643 89.1028 26.0341 89.1911 25.3988C89.2793 24.7634 89.3852 24.1456 89.5088 23.5456C89.6323 22.9455 89.7559 22.4072 89.8794 21.9306C90.003 21.4541 90.0912 21.0835 90.1442 20.8187C90.2324 20.7658 90.3207 20.7658 90.4089 20.8187C90.5148 20.8717 90.6119 20.9511 90.7001 21.057C90.806 21.1452 90.8854 21.2335 90.9384 21.3217C91.009 21.3923 91.0443 21.4276 91.0443 21.4276C91.0972 22.0454 91.0972 22.6543 91.0443 23.2543C91.009 23.8368 90.956 24.4192 90.8854 25.0016C90.8325 25.5841 90.7795 26.1753 90.7266 26.7754C90.6913 27.3755 90.6913 27.9844 90.7266 28.6021C90.8678 28.8669 91.159 28.8757 91.6003 28.6286C92.0415 28.3639 92.5798 27.9491 93.2152 27.3843C93.8506 26.8019 94.5389 26.1224 95.2802 25.3458C96.0391 24.5516 96.7804 23.7662 97.504 22.9896C98.2453 22.213 98.9424 21.4894 99.5955 20.8187C100.248 20.1304 100.796 19.6097 101.237 19.2567C101.696 18.8861 102.013 18.7361 102.19 18.8067C102.366 18.8596 102.34 19.2303 102.111 19.9186C101.687 20.2892 101.184 20.8452 100.601 21.5865C100.019 22.3277 99.3837 23.1308 98.6953 23.9956C98.007 24.8428 97.2922 25.69 96.5509 26.5371C95.8096 27.3843 95.0595 28.1168 94.3006 28.7345C93.5593 29.3346 92.8357 29.7582 92.1297 30.0053C91.4238 30.2347 90.7619 30.1641 90.1442 29.7935Z" fill="#010101"/>
<path d="M103.181 30.1112C102.652 29.9347 102.246 29.6699 101.963 29.3169C101.699 28.9463 101.522 28.5404 101.434 28.0991C101.346 27.6579 101.328 27.199 101.381 26.7225C101.451 26.2283 101.557 25.7606 101.699 25.3193C102.228 24.7545 102.819 24.1103 103.472 23.3867C104.143 22.6454 104.849 21.9218 105.59 21.2158C106.332 20.5098 107.099 19.8568 107.894 19.2567C108.705 18.639 109.526 18.1713 110.356 17.8536C110.638 17.7301 110.859 17.7389 111.018 17.8801C111.194 18.0036 111.318 18.2066 111.388 18.489C111.459 18.7714 111.485 19.0979 111.468 19.4685C111.468 19.8392 111.441 20.201 111.388 20.554C111.335 20.907 111.265 21.2247 111.176 21.507C111.088 21.7894 111 21.9836 110.912 22.0895C110.7 22.3366 110.285 22.6278 109.667 22.9631C109.067 23.2985 108.397 23.6691 107.655 24.075C106.914 24.4633 106.173 24.8693 105.431 25.2929C104.69 25.7164 104.081 26.14 103.605 26.5636C103.128 26.9696 102.846 27.3755 102.758 27.7814C102.669 28.1874 102.916 28.558 103.499 28.8934C104.099 28.9639 104.823 28.9375 105.67 28.8139C106.535 28.6727 107.408 28.4962 108.291 28.2844C109.191 28.055 110.056 27.8256 110.885 27.5961C111.715 27.349 112.394 27.1549 112.924 27.0137L113.241 27.3049C112.853 27.8167 112.218 28.2844 111.335 28.708C110.453 29.1316 109.5 29.4846 108.476 29.767C107.452 30.0317 106.455 30.2082 105.484 30.2965C104.514 30.3671 103.746 30.3053 103.181 30.1112ZM109.508 19.998C109.491 19.9804 109.358 20.0598 109.111 20.2363C108.864 20.3951 108.555 20.6157 108.185 20.8981C107.832 21.1629 107.443 21.4629 107.02 21.7983C106.614 22.1159 106.234 22.416 105.882 22.6984C105.546 22.9808 105.264 23.2279 105.034 23.4397C104.805 23.6338 104.708 23.7309 104.743 23.7309C105.026 23.7838 105.387 23.7485 105.829 23.625C106.287 23.4838 106.755 23.2896 107.232 23.0425C107.726 22.7955 108.194 22.5219 108.635 22.2218C109.076 21.9042 109.42 21.5953 109.667 21.2952C109.932 20.9952 110.064 20.7305 110.064 20.501C110.082 20.2716 109.897 20.1039 109.508 19.998Z" fill="#010101"/>
<path d="M112.738 30.1112C113.462 27.7814 114.115 25.9371 114.697 24.5781C115.298 23.2014 115.792 22.2395 116.18 21.6924C116.586 21.1452 116.859 20.9687 117.001 21.1629C117.142 21.357 117.124 21.8512 116.948 22.6454C116.789 23.4397 116.436 24.5075 115.889 25.8488C115.359 27.1725 114.609 28.6904 113.638 30.4024C113.497 30.4553 113.33 30.4642 113.135 30.4289C112.941 30.3936 112.809 30.2877 112.738 30.1112ZM117.371 17.3771C117.336 17.2888 117.318 17.13 117.318 16.9005C117.318 16.6711 117.336 16.5299 117.371 16.4769C117.777 16.3357 118.086 16.3181 118.298 16.424C118.51 16.5299 118.642 16.6887 118.695 16.9005C118.748 17.0947 118.739 17.3065 118.669 17.5359C118.616 17.7654 118.519 17.9418 118.377 18.0654C118.236 18.1713 118.068 18.1889 117.874 18.1183C117.698 18.0301 117.53 17.783 117.371 17.3771Z" fill="#010101"/>
<path d="M118.177 30.1112C118.142 30.0935 118.142 29.8905 118.177 29.5023C118.23 29.0963 118.301 28.5933 118.389 27.9932C118.477 27.3931 118.592 26.7313 118.733 26.0077C118.874 25.284 119.024 24.5957 119.183 23.9427C119.342 23.272 119.51 22.6896 119.686 22.1954C119.88 21.6835 120.066 21.3305 120.242 21.1364C120.366 21.0129 120.489 21.0129 120.613 21.1364C120.736 21.2423 120.86 21.3835 120.983 21.56C121.107 21.7188 121.231 21.8689 121.354 22.0101C121.478 22.1336 121.61 22.1424 121.751 22.0365C122.245 21.3482 122.784 20.6952 123.366 20.0774C123.966 19.4421 124.628 18.8949 125.352 18.436C125.422 18.3831 125.616 18.3037 125.934 18.1978C126.252 18.0742 126.614 17.9595 127.02 17.8536C127.426 17.7301 127.84 17.633 128.264 17.5624C128.705 17.4741 129.076 17.4388 129.376 17.4565C129.693 17.4565 129.905 17.5359 130.011 17.6948C130.135 17.836 130.082 18.083 129.852 18.436C128.793 18.4537 127.805 18.7625 126.887 19.3626C125.969 19.9627 125.122 20.704 124.346 21.5865C123.569 22.4689 122.863 23.4308 122.228 24.4722C121.592 25.4958 121.036 26.4489 120.56 27.3314C120.101 28.2138 119.713 28.9463 119.395 29.5287C119.095 30.1112 118.874 30.4024 118.733 30.4024C118.715 30.4024 118.636 30.3671 118.495 30.2965C118.354 30.2082 118.248 30.1465 118.177 30.1112Z" fill="#010101"/>
<path d="M127.447 29.7935C127.024 29.4405 126.786 28.9198 126.733 28.2315C126.697 27.5432 126.794 26.7666 127.024 25.9018C127.271 25.0369 127.624 24.1368 128.083 23.2014C128.559 22.2483 129.106 21.3482 129.724 20.501C130.342 19.6362 131.013 18.8684 131.736 18.1978C132.46 17.5094 133.183 17.0064 133.907 16.6887C134.631 16.3534 135.337 16.2387 136.025 16.3446C136.713 16.4328 137.34 16.8299 137.905 17.5359C138.258 17.9771 138.47 18.4272 138.54 18.8861C138.611 19.3273 138.602 19.7862 138.514 20.2628C138.425 20.7216 138.284 21.1982 138.09 21.6924C137.896 22.1689 137.702 22.6543 137.508 23.1484C137.331 23.6426 137.181 24.1456 137.058 24.6575C136.952 25.1693 136.934 25.69 137.005 26.2195C137.093 26.8901 137.393 27.2872 137.905 27.4108C138.417 27.5343 139.025 27.499 139.731 27.3049C140.455 27.1108 141.214 26.8019 142.008 26.3783C142.802 25.9547 143.535 25.5311 144.206 25.1075C144.894 24.6839 145.459 24.3133 145.9 23.9956C146.359 23.6779 146.588 23.5191 146.588 23.5191C147.082 23.4132 147.356 23.4485 147.409 23.625C147.48 23.7838 147.382 24.0309 147.118 24.3663C146.871 24.6839 146.491 25.0546 145.979 25.4782C145.468 25.8841 144.885 26.2812 144.232 26.6695C143.579 27.0578 142.882 27.4108 142.141 27.7285C141.399 28.0462 140.676 28.2668 139.97 28.3903C139.264 28.4962 138.593 28.4874 137.958 28.3639C137.34 28.2227 136.828 27.905 136.422 27.4108C136.228 27.199 136.078 26.9872 135.972 26.7754C135.884 26.5636 135.734 26.3783 135.522 26.2195C135.257 26.4665 134.94 26.7931 134.569 27.199C134.198 27.5873 133.792 27.9844 133.351 28.3903C132.928 28.7786 132.469 29.1493 131.974 29.5023C131.498 29.8552 131.004 30.12 130.492 30.2965C129.98 30.473 129.459 30.5348 128.93 30.4818C128.418 30.4289 127.924 30.1994 127.447 29.7935ZM127.739 28.8934C127.897 29.4581 128.25 29.7229 128.798 29.6876C129.345 29.6346 129.98 29.3611 130.704 28.8669C131.427 28.3727 132.177 27.702 132.954 26.8548C133.731 25.99 134.428 25.0369 135.046 23.9956C135.663 22.9367 136.131 21.8247 136.449 20.6599C136.784 19.495 136.872 18.3478 136.713 17.2182C136.29 16.8829 135.76 16.8741 135.125 17.1917C134.49 17.4918 133.81 17.9948 133.086 18.7008C132.38 19.3891 131.674 20.2186 130.968 21.1894C130.28 22.1424 129.671 23.1131 129.142 24.1015C128.612 25.0722 128.206 25.99 127.924 26.8548C127.659 27.7197 127.597 28.3992 127.739 28.8934Z" fill="#010101"/>
<path d="M16.2771 44.415H17.1967C17.2516 44.6984 17.4887 44.84 17.908 44.84C18.336 44.84 18.55 44.7374 18.55 44.5321C18.55 44.4598 18.5182 44.402 18.4545 44.3586C18.3909 44.3123 18.2868 44.2791 18.1422 44.2588L17.587 44.1764C17.1591 44.1099 16.8468 43.9986 16.6501 43.8424C16.4564 43.6863 16.3595 43.4723 16.3595 43.2005C16.3595 42.8997 16.4954 42.6655 16.7672 42.4978C17.042 42.3301 17.4193 42.2462 17.8993 42.2462C18.7871 42.2462 19.2845 42.5571 19.3915 43.1788L18.5023 43.2655C18.456 43.1383 18.3837 43.0472 18.2854 42.9923C18.1871 42.9344 18.0483 42.9055 17.869 42.9055C17.6781 42.9055 17.5306 42.9286 17.4265 42.9749C17.3253 43.0212 17.2747 43.0877 17.2747 43.1744C17.2747 43.2467 17.3022 43.3017 17.3571 43.3393C17.4121 43.3769 17.5133 43.4072 17.6608 43.4303L18.3374 43.5388C18.7394 43.6024 19.03 43.7108 19.2093 43.8641C19.3886 44.0145 19.4782 44.227 19.4782 44.5017C19.4782 44.8314 19.3452 45.0801 19.0791 45.2478C18.8131 45.4155 18.4213 45.4994 17.9037 45.4994C16.8858 45.4994 16.3436 45.1379 16.2771 44.415Z" fill="#010101"/>
<path d="M22.9822 45.4994C22.6005 45.4994 22.2723 45.4343 21.9976 45.3042C21.7229 45.174 21.5103 44.9875 21.3599 44.7446C21.2125 44.5017 21.1387 44.2111 21.1387 43.8728C21.1387 43.5345 21.2139 43.2438 21.3643 43.0009C21.5147 42.758 21.7286 42.5715 22.0062 42.4414C22.2838 42.3113 22.6149 42.2462 22.9995 42.2462C23.3812 42.2462 23.7094 42.3113 23.9842 42.4414C24.2589 42.5715 24.47 42.758 24.6174 43.0009C24.7678 43.2438 24.843 43.5345 24.843 43.8728C24.843 44.2111 24.7678 44.5017 24.6174 44.7446C24.4671 44.9875 24.2531 45.174 23.9755 45.3042C23.6979 45.4343 23.3668 45.4994 22.9822 45.4994ZM23.8714 43.8728C23.8714 43.5952 23.7933 43.3812 23.6372 43.2308C23.4839 43.0776 23.2685 43.0009 22.9909 43.0009C22.7133 43.0009 22.4964 43.0776 22.3402 43.2308C22.187 43.3841 22.1103 43.5981 22.1103 43.8728C22.1103 44.1504 22.187 44.3658 22.3402 44.5191C22.4964 44.6694 22.7133 44.7446 22.9909 44.7446C23.2685 44.7446 23.4839 44.668 23.6372 44.5147C23.7933 44.3615 23.8714 44.1475 23.8714 43.8728Z" fill="#010101"/>
<path d="M26.7088 42.3243H27.6457V44.6622H29.4067L29.3113 45.4213H26.7088V42.3243Z" fill="#010101"/>
<path d="M32.0044 44.1374C32.0044 44.3456 32.0565 44.4988 32.1606 44.5971C32.2676 44.6955 32.4353 44.7446 32.6637 44.7446C32.8951 44.7446 33.0628 44.6955 33.1669 44.5971C33.2739 44.4988 33.3274 44.3456 33.3274 44.1374V42.3243H34.2643V44.0636C34.2643 44.5726 34.1269 44.9398 33.8522 45.1654C33.5775 45.388 33.1813 45.4994 32.6637 45.4994C32.149 45.4994 31.7543 45.388 31.4796 45.1654C31.2049 44.9398 31.0675 44.5726 31.0675 44.0636V42.3243H32.0044V44.1374Z" fill="#010101"/>
<path d="M39.5032 43.3479L38.5793 43.4477C38.5244 43.2887 38.442 43.1744 38.3321 43.105C38.2222 43.0356 38.0733 43.0009 37.8853 43.0009C37.628 43.0009 37.427 43.0761 37.2824 43.2265C37.1378 43.374 37.0655 43.5894 37.0655 43.8728C37.0655 44.1562 37.1378 44.373 37.2824 44.5234C37.4299 44.6709 37.6366 44.7446 37.9027 44.7446C38.3133 44.7446 38.5547 44.5856 38.627 44.2675H39.5639C39.5264 44.6579 39.3586 44.9615 39.0608 45.1784C38.7658 45.3924 38.3726 45.4994 37.881 45.4994C37.4877 45.4994 37.1581 45.43 36.892 45.2912C36.6289 45.1524 36.4293 44.9615 36.2934 44.7186C36.1604 44.4728 36.0939 44.1909 36.0939 43.8728C36.0939 43.5634 36.1604 43.2858 36.2934 43.04C36.4293 42.7942 36.6303 42.6004 36.8964 42.4587C37.1624 42.317 37.4935 42.2462 37.8897 42.2462C38.7832 42.2462 39.321 42.6134 39.5032 43.3479ZM37.6554 45.3259L38.0675 45.4213L37.9851 45.6121C38.1673 45.6324 38.3017 45.6757 38.3885 45.7423C38.4752 45.8117 38.5186 45.9013 38.5186 46.0112C38.5186 46.1384 38.455 46.2382 38.3277 46.3105C38.2005 46.3828 38.0212 46.4189 37.7899 46.4189C37.5788 46.4189 37.4125 46.3987 37.2911 46.3582V46.0068C37.3634 46.0184 37.427 46.0271 37.4819 46.0329C37.5398 46.0415 37.5947 46.0459 37.6468 46.0459C37.7393 46.0459 37.8058 46.0372 37.8463 46.0199C37.8897 46.0054 37.9113 45.9823 37.9113 45.9505C37.9113 45.91 37.8853 45.8825 37.8333 45.868C37.7841 45.8536 37.6988 45.8464 37.5774 45.8464H37.4255L37.6554 45.3259Z" fill="#010101"/>
<path d="M43.0509 45.4994C42.6692 45.4994 42.341 45.4343 42.0663 45.3042C41.7916 45.174 41.579 44.9875 41.4287 44.7446C41.2812 44.5017 41.2075 44.2111 41.2075 43.8728C41.2075 43.5345 41.2826 43.2438 41.433 43.0009C41.5834 42.758 41.7974 42.5715 42.075 42.4414C42.3526 42.3113 42.6837 42.2462 43.0683 42.2462C43.45 42.2462 43.7782 42.3113 44.0529 42.4414C44.3276 42.5715 44.5387 42.758 44.6862 43.0009C44.8365 43.2438 44.9117 43.5345 44.9117 43.8728C44.9117 44.2111 44.8365 44.5017 44.6862 44.7446C44.5358 44.9875 44.3218 45.174 44.0442 45.3042C43.7666 45.4343 43.4355 45.4994 43.0509 45.4994ZM43.9401 43.8728C43.9401 43.5952 43.862 43.3812 43.7059 43.2308C43.5526 43.0776 43.3372 43.0009 43.0596 43.0009C42.782 43.0009 42.5651 43.0776 42.409 43.2308C42.2557 43.3841 42.1791 43.5981 42.1791 43.8728C42.1791 44.1504 42.2557 44.3658 42.409 44.5191C42.5651 44.6694 42.782 44.7446 43.0596 44.7446C43.3372 44.7446 43.5526 44.668 43.7059 44.5147C43.862 44.3615 43.9401 44.1475 43.9401 43.8728ZM42.0793 42.0684C42.0793 41.811 42.127 41.6259 42.2224 41.5132C42.3179 41.4004 42.461 41.344 42.6519 41.344C42.7907 41.344 42.9555 41.3917 43.1463 41.4871C43.2215 41.5247 43.2794 41.5508 43.3198 41.5652C43.3603 41.5797 43.3965 41.5869 43.4283 41.5869C43.4832 41.5869 43.5194 41.5695 43.5367 41.5348C43.5541 41.4973 43.5627 41.438 43.5627 41.357H44.0789C44.0789 41.6057 44.0312 41.7893 43.9358 41.9079C43.8403 42.0235 43.6972 42.0814 43.5064 42.0814C43.3704 42.0814 43.21 42.0351 43.0249 41.9426C42.8832 41.8732 42.7849 41.8385 42.7299 41.8385C42.6779 41.8385 42.6417 41.8587 42.6215 41.8992C42.6041 41.9368 42.5955 41.9932 42.5955 42.0684H42.0793Z" fill="#010101"/>
<path d="M46.7775 42.3243H49.4885V43.0053H47.6927V43.5084H49.4017V44.1894H47.6927V44.7403H49.5926L49.5058 45.4213H46.7775V42.3243Z" fill="#010101"/>
<path d="M51.1909 44.415H52.1104C52.1654 44.6984 52.4025 44.84 52.8218 44.84C53.2498 44.84 53.4637 44.7374 53.4637 44.5321C53.4637 44.4598 53.4319 44.402 53.3683 44.3586C53.3047 44.3123 53.2006 44.2791 53.056 44.2588L52.5008 44.1764C52.0728 44.1099 51.7605 43.9986 51.5639 43.8424C51.3702 43.6863 51.2733 43.4723 51.2733 43.2005C51.2733 42.8997 51.4092 42.6655 51.681 42.4978C51.9557 42.3301 52.3331 42.2462 52.8131 42.2462C53.7009 42.2462 54.1982 42.5571 54.3052 43.1788L53.416 43.2655C53.3698 43.1383 53.2975 43.0472 53.1992 42.9923C53.1008 42.9344 52.962 42.9055 52.7828 42.9055C52.5919 42.9055 52.4444 42.9286 52.3403 42.9749C52.2391 43.0212 52.1885 43.0877 52.1885 43.1744C52.1885 43.2467 52.216 43.3017 52.2709 43.3393C52.3259 43.3769 52.4271 43.4072 52.5746 43.4303L53.2512 43.5388C53.6532 43.6024 53.9438 43.7108 54.1231 43.8641C54.3023 44.0145 54.392 44.227 54.392 44.5017C54.392 44.8314 54.259 45.0801 53.9929 45.2478C53.7269 45.4155 53.3351 45.4994 52.8175 45.4994C51.7996 45.4994 51.2574 45.1379 51.1909 44.415Z" fill="#010101"/>
<path d="M58.6701 42.3243H60.21C61.1382 42.3243 61.6023 42.6814 61.6023 43.3956C61.6023 43.7629 61.4823 44.0347 61.2423 44.2111C61.0052 44.3846 60.6437 44.4714 60.1579 44.4714H59.5767V45.4213H58.6701V42.3243ZM60.1406 43.7774C60.3285 43.7774 60.4673 43.7484 60.557 43.6906C60.6466 43.6328 60.6914 43.533 60.6914 43.3913C60.6914 43.2583 60.6481 43.1629 60.5613 43.105C60.4746 43.0472 60.3372 43.0183 60.1492 43.0183H59.5767V43.7774H60.1406Z" fill="#010101"/>
<path d="M64.0452 42.3243H65.1383L66.4829 45.4213H65.5113L65.2814 44.8574H63.8674L63.6505 45.4213H62.7006L64.0452 42.3243ZM65.0211 44.1634L64.5787 43.0313L64.1363 44.1634H65.0211Z" fill="#010101"/>
<path d="M68.1771 42.3243H69.769C70.6973 42.3243 71.1614 42.6669 71.1614 43.3523C71.1614 43.572 71.1151 43.7513 71.0226 43.8901C70.93 44.026 70.7941 44.1345 70.6148 44.2154L71.3739 45.4213H70.3719L69.7603 44.3933H69.0533V45.4213H68.1771V42.3243ZM69.7126 43.7253C69.9035 43.7253 70.0423 43.6978 70.129 43.6429C70.2187 43.5851 70.2635 43.4896 70.2635 43.3566C70.2635 43.2236 70.2216 43.1296 70.1377 43.0747C70.0539 43.0197 69.9151 42.9923 69.7213 42.9923H69.0533V43.7253H69.7126Z" fill="#010101"/>
<path d="M74.141 42.3243H75.234L76.5787 45.4213H75.6071L75.3772 44.8574H73.9632L73.7463 45.4213H72.7964L74.141 42.3243ZM75.1169 44.1634L74.6745 43.0313L74.2321 44.1634H75.1169Z" fill="#010101"/>
<path d="M81.7884 42.3243H82.8815L84.2261 45.4213H83.2545L83.0246 44.8574H81.6106L81.3937 45.4213H80.4438L81.7884 42.3243ZM82.7644 44.1634L82.322 43.0313L81.8795 44.1634H82.7644Z" fill="#010101"/>
<path d="M91.6697 43.3479L90.7458 43.4477C90.6909 43.2887 90.6085 43.1744 90.4986 43.105C90.3887 43.0356 90.2398 43.0009 90.0518 43.0009C89.7944 43.0009 89.5935 43.0761 89.4489 43.2265C89.3043 43.374 89.232 43.5894 89.232 43.8728C89.232 44.1562 89.3043 44.373 89.4489 44.5234C89.5964 44.6709 89.8031 44.7446 90.0692 44.7446C90.4798 44.7446 90.7212 44.5856 90.7935 44.2675H91.7304C91.6928 44.6579 91.5251 44.9615 91.2273 45.1784C90.9323 45.3924 90.5391 45.4994 90.0475 45.4994C89.6542 45.4994 89.3245 45.43 89.0585 45.2912C88.7954 45.1524 88.5958 44.9615 88.4599 44.7186C88.3269 44.4728 88.2604 44.1909 88.2604 43.8728C88.2604 43.5634 88.3269 43.2858 88.4599 43.04C88.5958 42.7942 88.7968 42.6004 89.0629 42.4587C89.3289 42.317 89.66 42.2462 90.0561 42.2462C90.9497 42.2462 91.4875 42.6134 91.6697 43.3479Z" fill="#010101"/>
<path d="M95.2174 45.4994C94.8357 45.4994 94.5075 45.4343 94.2328 45.3042C93.9581 45.174 93.7456 44.9875 93.5952 44.7446C93.4477 44.5017 93.374 44.2111 93.374 43.8728C93.374 43.5345 93.4492 43.2438 93.5995 43.0009C93.7499 42.758 93.9639 42.5715 94.2415 42.4414C94.5191 42.3113 94.8502 42.2462 95.2348 42.2462C95.6165 42.2462 95.9447 42.3113 96.2194 42.4414C96.4941 42.5715 96.7052 42.758 96.8527 43.0009C97.003 43.2438 97.0782 43.5345 97.0782 43.8728C97.0782 44.2111 97.003 44.5017 96.8527 44.7446C96.7023 44.9875 96.4883 45.174 96.2107 45.3042C95.9331 45.4343 95.602 45.4994 95.2174 45.4994ZM96.1066 43.8728C96.1066 43.5952 96.0285 43.3812 95.8724 43.2308C95.7191 43.0776 95.5037 43.0009 95.2261 43.0009C94.9485 43.0009 94.7316 43.0776 94.5755 43.2308C94.4222 43.3841 94.3456 43.5981 94.3456 43.8728C94.3456 44.1504 94.4222 44.3658 94.5755 44.5191C94.7316 44.6694 94.9485 44.7446 95.2261 44.7446C95.5037 44.7446 95.7191 44.668 95.8724 44.5147C96.0285 44.3615 96.1066 44.1475 96.1066 43.8728Z" fill="#010101"/>
<path d="M98.944 42.3243H100.002L100.935 44.4193L101.863 42.3243H102.9V45.4213H102.041V43.6169L101.256 45.4213H100.571L99.7898 43.6255V45.4213H98.944V42.3243Z" fill="#010101"/>
<path d="M105.811 44.1374C105.811 44.3456 105.863 44.4988 105.967 44.5971C106.074 44.6955 106.242 44.7446 106.47 44.7446C106.702 44.7446 106.87 44.6955 106.974 44.5971C107.081 44.4988 107.134 44.3456 107.134 44.1374V42.3243H108.071V44.0636C108.071 44.5726 107.934 44.9398 107.659 45.1654C107.384 45.388 106.988 45.4994 106.47 45.4994C105.956 45.4994 105.561 45.388 105.286 45.1654C105.012 44.9398 104.874 44.5726 104.874 44.0636V42.3243H105.811V44.1374Z" fill="#010101"/>
<path d="M110.039 42.3243H110.872L112.421 44.1851V42.3243H113.306V45.4213H112.473L110.924 43.5605V45.4213H110.039V42.3243Z" fill="#010101"/>
<path d="M115.31 42.3243H116.247V45.4213H115.31V42.3243Z" fill="#010101"/>
<path d="M121.521 43.3479L120.597 43.4477C120.542 43.2887 120.46 43.1744 120.35 43.105C120.24 43.0356 120.091 43.0009 119.903 43.0009C119.646 43.0009 119.445 43.0761 119.3 43.2265C119.155 43.374 119.083 43.5894 119.083 43.8728C119.083 44.1562 119.155 44.373 119.3 44.5234C119.447 44.6709 119.654 44.7446 119.92 44.7446C120.331 44.7446 120.572 44.5856 120.645 44.2675H121.582C121.544 44.6579 121.376 44.9615 121.078 45.1784C120.783 45.3924 120.39 45.4994 119.899 45.4994C119.505 45.4994 119.176 45.43 118.91 45.2912C118.646 45.1524 118.447 44.9615 118.311 44.7186C118.178 44.4728 118.111 44.1909 118.111 43.8728C118.111 43.5634 118.178 43.2858 118.311 43.04C118.447 42.7942 118.648 42.6004 118.914 42.4587C119.18 42.317 119.511 42.2462 119.907 42.2462C120.801 42.2462 121.339 42.6134 121.521 43.3479Z" fill="#010101"/>
<path d="M124.29 42.3243H125.383L126.728 45.4213H125.756L125.527 44.8574H124.113L123.896 45.4213H122.946L124.29 42.3243ZM125.266 44.1634L124.824 43.0313L124.381 44.1634H125.266Z" fill="#010101"/>
<path d="M131.502 43.3479L130.578 43.4477C130.523 43.2887 130.441 43.1744 130.331 43.105C130.221 43.0356 130.072 43.0009 129.884 43.0009C129.627 43.0009 129.426 43.0761 129.281 43.2265C129.137 43.374 129.064 43.5894 129.064 43.8728C129.064 44.1562 129.137 44.373 129.281 44.5234C129.429 44.6709 129.636 44.7446 129.902 44.7446C130.312 44.7446 130.554 44.5856 130.626 44.2675H131.563C131.525 44.6579 131.358 44.9615 131.06 45.1784C130.765 45.3924 130.372 45.4994 129.88 45.4994C129.487 45.4994 129.157 45.43 128.891 45.2912C128.628 45.1524 128.428 44.9615 128.292 44.7186C128.159 44.4728 128.093 44.1909 128.093 43.8728C128.093 43.5634 128.159 43.2858 128.292 43.04C128.428 42.7942 128.629 42.6004 128.895 42.4587C129.161 42.317 129.492 42.2462 129.889 42.2462C130.782 42.2462 131.32 42.6134 131.502 43.3479ZM129.654 45.3259L130.066 45.4213L129.984 45.6121C130.166 45.6324 130.301 45.6757 130.387 45.7423C130.474 45.8117 130.518 45.9013 130.518 46.0112C130.518 46.1384 130.454 46.2382 130.327 46.3105C130.199 46.3828 130.02 46.4189 129.789 46.4189C129.578 46.4189 129.412 46.3987 129.29 46.3582V46.0068C129.362 46.0184 129.426 46.0271 129.481 46.0329C129.539 46.0415 129.594 46.0459 129.646 46.0459C129.738 46.0459 129.805 46.0372 129.845 46.0199C129.889 46.0054 129.91 45.9823 129.91 45.9505C129.91 45.91 129.884 45.8825 129.832 45.868C129.783 45.8536 129.698 45.8464 129.576 45.8464H129.425L129.654 45.3259Z" fill="#010101"/>
<path d="M134.272 42.3243H135.365L136.709 45.4213H135.738L135.508 44.8574H134.094L133.877 45.4213H132.927L134.272 42.3243ZM135.248 44.1634L134.805 43.0313L134.363 44.1634H135.248ZM133.838 42.0684C133.838 41.811 133.886 41.6259 133.981 41.5132C134.077 41.4004 134.22 41.344 134.411 41.344C134.549 41.344 134.714 41.3917 134.905 41.4871C134.98 41.5247 135.038 41.5508 135.079 41.5652C135.119 41.5797 135.155 41.5869 135.187 41.5869C135.242 41.5869 135.278 41.5695 135.295 41.5348C135.313 41.4973 135.321 41.438 135.321 41.357H135.838C135.838 41.6057 135.79 41.7893 135.694 41.9079C135.599 42.0235 135.456 42.0814 135.265 42.0814C135.129 42.0814 134.969 42.0351 134.784 41.9426C134.642 41.8732 134.544 41.8385 134.489 41.8385C134.437 41.8385 134.4 41.8587 134.38 41.8992C134.363 41.9368 134.354 41.9932 134.354 42.0684H133.838Z" fill="#010101"/>
<path d="M139.918 45.4994C139.536 45.4994 139.208 45.4343 138.933 45.3042C138.658 45.174 138.446 44.9875 138.296 44.7446C138.148 44.5017 138.074 44.2111 138.074 43.8728C138.074 43.5345 138.149 43.2438 138.3 43.0009C138.45 42.758 138.664 42.5715 138.942 42.4414C139.219 42.3113 139.551 42.2462 139.935 42.2462C140.317 42.2462 140.645 42.3113 140.92 42.4414C141.194 42.5715 141.406 42.758 141.553 43.0009C141.703 43.2438 141.779 43.5345 141.779 43.8728C141.779 44.2111 141.703 44.5017 141.553 44.7446C141.403 44.9875 141.189 45.174 140.911 45.3042C140.633 45.4343 140.302 45.4994 139.918 45.4994ZM140.807 43.8728C140.807 43.5952 140.729 43.3812 140.573 43.2308C140.419 43.0776 140.204 43.0009 139.926 43.0009C139.649 43.0009 139.432 43.0776 139.276 43.2308C139.123 43.3841 139.046 43.5981 139.046 43.8728C139.046 44.1504 139.123 44.3658 139.276 44.5191C139.432 44.6694 139.649 44.7446 139.926 44.7446C140.204 44.7446 140.419 44.668 140.573 44.5147C140.729 44.3615 140.807 44.1475 140.807 43.8728Z" fill="#010101"/>
<path d="M51.1512 50.9213C50.7695 50.9213 50.4413 50.8562 50.1666 50.7261C49.8918 50.596 49.6793 50.4094 49.5289 50.1665C49.3815 49.9236 49.3077 49.633 49.3077 49.2947C49.3077 48.9564 49.3829 48.6658 49.5333 48.4229C49.6836 48.18 49.8976 47.9934 50.1752 47.8633C50.4528 47.7332 50.7839 47.6681 51.1685 47.6681C51.5502 47.6681 51.8784 47.7332 52.1532 47.8633C52.4279 47.9934 52.639 48.18 52.7864 48.4229C52.9368 48.6658 53.012 48.9564 53.012 49.2947C53.012 49.633 52.9368 49.9236 52.7864 50.1665C52.6361 50.4094 52.4221 50.596 52.1445 50.7261C51.8669 50.8562 51.5358 50.9213 51.1512 50.9213ZM52.0404 49.2947C52.0404 49.0171 51.9623 48.8031 51.8061 48.6527C51.6529 48.4995 51.4375 48.4229 51.1599 48.4229C50.8823 48.4229 50.6654 48.4995 50.5092 48.6527C50.356 48.806 50.2793 49.02 50.2793 49.2947C50.2793 49.5723 50.356 49.7877 50.5092 49.941C50.6654 50.0914 50.8823 50.1665 51.1599 50.1665C51.4375 50.1665 51.6529 50.0899 51.8061 49.9367C51.9623 49.7834 52.0404 49.5694 52.0404 49.2947Z" fill="#010101"/>
<path d="M54.8778 47.7462H56.4696C57.3979 47.7462 57.862 48.0889 57.862 48.7742C57.862 48.994 57.8157 49.1732 57.7232 49.312C57.6307 49.448 57.4947 49.5564 57.3155 49.6374L58.0745 50.8432H57.0726L56.461 49.8152H55.7539V50.8432H54.8778V47.7462ZM56.4133 49.1472C56.6041 49.1472 56.7429 49.1198 56.8297 49.0648C56.9193 49.007 56.9641 48.9116 56.9641 48.7785C56.9641 48.6455 56.9222 48.5515 56.8383 48.4966C56.7545 48.4417 56.6157 48.4142 56.4219 48.4142H55.7539V49.1472H56.4133Z" fill="#010101"/>
<path d="M60.8416 47.7462H61.9347L63.2793 50.8432H62.3077L62.0778 50.2793H60.6638L60.4469 50.8432H59.497L60.8416 47.7462ZM61.8176 49.5853L61.3751 48.4532L60.9327 49.5853H61.8176Z" fill="#010101"/>
<path d="M64.9736 47.7462H65.9105V50.0841H67.6715L67.5761 50.8432H64.9736V47.7462Z" fill="#010101"/>
<path d="M71.9051 47.7462H74.6161V48.4272H72.8204V48.9303H74.5293V49.6113H72.8204V50.1622H74.7202L74.6334 50.8432H71.9051V47.7462Z" fill="#010101"/>
<path d="M79.0316 47.7462H81.7425V48.4272H79.9468V48.9303H81.6558V49.6113H79.9468V50.1622H81.8466L81.7599 50.8432H79.0316V47.7462Z" fill="#010101"/>
<path d="M83.445 49.8369H84.3645C84.4194 50.1203 84.6566 50.262 85.0759 50.262C85.5038 50.262 85.7178 50.1593 85.7178 49.954C85.7178 49.8817 85.686 49.8239 85.6224 49.7805C85.5588 49.7342 85.4547 49.701 85.3101 49.6807L84.7549 49.5983C84.3269 49.5318 84.0146 49.4205 83.818 49.2643C83.6242 49.1082 83.5274 48.8942 83.5274 48.6224C83.5274 48.3216 83.6633 48.0874 83.9351 47.9197C84.2098 47.752 84.5872 47.6681 85.0672 47.6681C85.9549 47.6681 86.4523 47.979 86.5593 48.6007L85.6701 48.6874C85.6238 48.5602 85.5516 48.4691 85.4532 48.4142C85.3549 48.3563 85.2161 48.3274 85.0368 48.3274C84.846 48.3274 84.6985 48.3506 84.5944 48.3968C84.4932 48.4431 84.4426 48.5096 84.4426 48.5964C84.4426 48.6686 84.4701 48.7236 84.525 48.7612C84.5799 48.7988 84.6811 48.8291 84.8286 48.8523L85.5053 48.9607C85.9072 49.0243 86.1978 49.1328 86.3771 49.286C86.5564 49.4364 86.6461 49.6489 86.6461 49.9236C86.6461 50.2533 86.513 50.502 86.247 50.6697C85.981 50.8374 85.5891 50.9213 85.0715 50.9213C84.0536 50.9213 83.5115 50.5598 83.445 49.8369Z" fill="#010101"/>
<path d="M91.7159 48.7699L90.792 48.8696C90.7371 48.7106 90.6546 48.5964 90.5448 48.527C90.4349 48.4576 90.2859 48.4229 90.098 48.4229C89.8406 48.4229 89.6397 48.498 89.4951 48.6484C89.3505 48.7959 89.2782 49.0113 89.2782 49.2947C89.2782 49.5781 89.3505 49.795 89.4951 49.9453C89.6425 50.0928 89.8493 50.1665 90.1153 50.1665C90.526 50.1665 90.7674 50.0075 90.8397 49.6894H91.7766C91.739 50.0798 91.5713 50.3834 91.2735 50.6003C90.9785 50.8143 90.5852 50.9213 90.0937 50.9213C89.7004 50.9213 89.3707 50.8519 89.1047 50.7131C88.8416 50.5743 88.642 50.3834 88.5061 50.1405C88.3731 49.8947 88.3066 49.6128 88.3066 49.2947C88.3066 48.9853 88.3731 48.7077 88.5061 48.4619C88.642 48.2161 88.843 48.0224 89.109 47.8807C89.3751 47.739 89.7062 47.6681 90.1023 47.6681C90.9959 47.6681 91.5337 48.0354 91.7159 48.7699Z" fill="#010101"/>
<path d="M93.5589 47.7462H95.1508C96.079 47.7462 96.5432 48.0889 96.5432 48.7742C96.5432 48.994 96.4969 49.1732 96.4044 49.312C96.3118 49.448 96.1759 49.5564 95.9966 49.6374L96.7557 50.8432H95.7537L95.1421 49.8152H94.4351V50.8432H93.5589V47.7462ZM95.0944 49.1472C95.2853 49.1472 95.4241 49.1198 95.5108 49.0648C95.6005 49.007 95.6453 48.9116 95.6453 48.7785C95.6453 48.6455 95.6034 48.5515 95.5195 48.4966C95.4356 48.4417 95.2968 48.4142 95.1031 48.4142H94.4351V49.1472H95.0944Z" fill="#010101"/>
<path d="M98.448 47.7462H99.3849V50.8432H98.448V47.7462Z" fill="#010101"/>
<path d="M102.234 48.5053H101.089V47.7462H104.316V48.5053H103.171V50.8432H102.234V48.5053Z" fill="#010101"/>
<path d="M106.577 47.7462H107.67L109.015 50.8432H108.043L107.813 50.2793H106.399L106.182 50.8432H105.233L106.577 47.7462ZM107.553 49.5853L107.111 48.4532L106.668 49.5853H107.553Z" fill="#010101"/>
</svg>
