<svg width="159" height="58" viewBox="0 0 159 58" fill="none" xmlns="http://www.w3.org/2000/svg">
<path d="M12.8018 29.8981C11.7159 29.4709 10.9682 28.8923 10.5588 28.1625C10.1494 27.4326 9.98026 26.6227 10.0515 25.7326C10.1405 24.8247 10.4253 23.8634 10.9059 22.8488C11.4044 21.8163 12.0096 20.7838 12.7217 19.7513C13.4515 18.7188 14.2526 17.7131 15.1249 16.734C15.9971 15.7549 16.8605 14.8559 17.715 14.0371C18.5694 13.2182 19.3705 12.5062 20.1181 11.9009C20.8658 11.2957 21.4711 10.8506 21.9339 10.5658C22.5747 10.1742 23.1088 9.98727 23.536 10.0051C23.9632 10.0051 24.3015 10.1386 24.5507 10.4056C24.8177 10.6548 24.9957 11.0108 25.0847 11.4737C25.1915 11.9187 25.236 12.3994 25.2182 12.9156C25.2182 13.414 25.1648 13.9214 25.058 14.4376C24.969 14.936 24.8444 15.3722 24.6842 15.746C24.5418 16.1198 24.3816 16.3958 24.2036 16.5738C24.0434 16.7518 23.8831 16.7607 23.7229 16.6005C23.7051 16.4581 23.7229 16.2444 23.7763 15.9596C23.8297 15.657 23.892 15.3188 23.9632 14.9449C24.0523 14.5711 24.1324 14.1884 24.2036 13.7968C24.2748 13.4051 24.3193 13.0491 24.3371 12.7287C24.3727 12.3905 24.3638 12.1056 24.3104 11.8742C24.2748 11.6428 24.1769 11.5093 24.0166 11.4737C23.3936 11.3135 22.6459 11.4648 21.7737 11.9276C20.9192 12.3727 20.0202 13.0224 19.0768 13.8769C18.1511 14.7135 17.2254 15.6926 16.2998 16.8141C15.3919 17.9178 14.5641 19.0571 13.8165 20.232C13.0688 21.4068 12.4547 22.555 11.974 23.6765C11.4934 24.7802 11.2175 25.7593 11.1463 26.6138C11.0928 27.4504 11.2798 28.1002 11.707 28.563C12.152 29.008 12.9264 29.1504 14.0301 28.9902C15.0448 28.8478 15.9793 28.4918 16.8338 27.9222C17.7061 27.3347 18.5427 26.6939 19.3438 25.9996C20.1627 25.2875 20.9726 24.5933 21.7737 23.9168C22.5747 23.2226 23.4114 22.6974 24.2837 22.3414C24.6041 22.2168 24.8533 22.2613 25.0313 22.4749C25.2271 22.6885 25.2805 22.9467 25.1915 23.2493C25.0847 23.5519 24.7643 23.9524 24.2303 24.4509C23.714 24.9493 23.0643 25.4745 22.281 26.0263C21.5156 26.5603 20.67 27.1033 19.7443 27.6551C18.8186 28.1892 17.9108 28.652 17.0207 29.0436C16.1484 29.4353 15.3296 29.7201 14.5641 29.8981C13.8165 30.0761 13.229 30.0761 12.8018 29.8981Z" fill="white"/>
<path d="M25.8441 29.8981C25.8085 29.8803 25.8085 29.6756 25.8441 29.284C25.8975 28.8745 25.9687 28.3672 26.0578 27.7619C26.1468 27.1567 26.2625 26.4891 26.4049 25.7593C26.5473 25.0294 26.6986 24.3352 26.8588 23.6765C27.019 23.0001 27.1881 22.4126 27.3662 21.9142C27.562 21.3979 27.7489 21.0419 27.9269 20.8461C28.0515 20.7215 28.1761 20.7215 28.3007 20.8461C28.4253 20.9529 28.5499 21.0953 28.6746 21.2733C28.7992 21.4335 28.9238 21.5849 29.0484 21.7273C29.173 21.8519 29.3065 21.8608 29.4489 21.754C29.9474 21.0597 30.4903 20.4011 31.0777 19.778C31.683 19.1372 32.3505 18.5853 33.0804 18.1225C33.1516 18.0691 33.3474 17.989 33.6678 17.8822C33.9883 17.7576 34.3532 17.6419 34.7626 17.535C35.1721 17.4104 35.5904 17.3125 36.0176 17.2413C36.4627 17.1523 36.8365 17.1167 37.1391 17.1345C37.4595 17.1345 37.6732 17.2146 37.78 17.3748C37.9046 17.5172 37.8512 17.7665 37.6197 18.1225C36.5517 18.1403 35.5548 18.4518 34.6291 19.0571C33.7034 19.6623 32.849 20.41 32.0657 21.3C31.2825 22.1901 30.5704 23.1603 29.9296 24.2106C29.2887 25.243 28.728 26.2043 28.2473 27.0944C27.7845 27.9845 27.3929 28.7232 27.0724 29.3107C26.7698 29.8981 26.5473 30.1918 26.4049 30.1918C26.3871 30.1918 26.307 30.1562 26.1646 30.085C26.0222 29.996 25.9153 29.9337 25.8441 29.8981Z" fill="white"/>
<path d="M36.5634 29.8981C37.2933 27.5483 37.9519 25.6881 38.5394 24.3174C39.1446 22.9289 39.6431 21.9587 40.0347 21.4068C40.4441 20.855 40.72 20.677 40.8624 20.8728C41.0049 21.0686 40.9871 21.5671 40.809 22.3681C40.6488 23.1692 40.2928 24.2462 39.741 25.5991C39.2069 26.9342 38.4504 28.4651 37.4713 30.1918C37.3289 30.2452 37.1598 30.2541 36.9639 30.2185C36.7681 30.1829 36.6346 30.0761 36.5634 29.8981ZM41.2363 17.0544C41.2007 16.9654 41.1829 16.8052 41.1829 16.5738C41.1829 16.3424 41.2007 16.1999 41.2363 16.1465C41.6457 16.0041 41.9572 15.9863 42.1708 16.0931C42.3845 16.1999 42.518 16.3602 42.5714 16.5738C42.6248 16.7696 42.6159 16.9832 42.5447 17.2146C42.4913 17.446 42.3934 17.6241 42.251 17.7487C42.1085 17.8555 41.9394 17.8733 41.7436 17.8021C41.5656 17.7131 41.3965 17.4638 41.2363 17.0544Z" fill="white"/>
<path d="M42.0491 29.8981C41.8355 29.7557 41.8266 29.5688 42.0224 29.3374C42.236 29.0881 42.5653 28.83 43.0104 28.563C43.4732 28.2782 44.0072 27.9845 44.6125 27.6818C45.2177 27.3792 45.7963 27.0944 46.3481 26.8274C46.9178 26.5603 47.4162 26.3289 47.8434 26.1331C48.2707 25.9195 48.5466 25.7593 48.6712 25.6525C49.2586 25.154 49.5613 24.7446 49.5791 24.4242C49.6147 24.086 49.4723 23.8189 49.1518 23.6231C48.8314 23.4095 48.3775 23.2493 47.79 23.1425C47.2204 23.0179 46.624 22.9111 46.001 22.8221C45.3957 22.7152 44.8083 22.6084 44.2387 22.5016C43.6868 22.3948 43.2685 22.2524 42.9837 22.0744C42.6988 21.8964 42.6009 21.665 42.6899 21.3801C42.7967 21.0775 43.1884 20.6948 43.8648 20.232C44.114 20.0539 44.479 19.7958 44.9596 19.4576C45.4403 19.1194 45.9565 18.7722 46.5083 18.4162C47.078 18.0602 47.6387 17.7398 48.1906 17.4549C48.7424 17.1701 49.2052 16.9832 49.5791 16.8942C49.7749 16.8586 49.9707 16.8764 50.1665 16.9476C50.3801 17.0188 50.5492 17.1256 50.6738 17.268C50.7985 17.3926 50.8519 17.535 50.8341 17.6953C50.8341 17.8555 50.7184 17.9979 50.4869 18.1225C49.4723 18.6921 48.4932 19.2262 47.5497 19.7246C46.624 20.2231 45.6895 20.7927 44.746 21.4335C44.6926 21.576 44.7015 21.7006 44.7727 21.8074C44.8617 21.9142 44.9596 21.9943 45.0664 22.0477C46.9534 22.2435 48.3686 22.5194 49.312 22.8755C50.2733 23.2315 50.8786 23.6231 51.1278 24.0504C51.3948 24.4776 51.3681 24.9315 51.0477 25.4122C50.7273 25.8928 50.2466 26.3645 49.6058 26.8274C48.9827 27.2902 48.2618 27.7263 47.4429 28.1358C46.624 28.5452 45.8319 28.8923 45.0664 29.1771C44.3188 29.462 43.6601 29.6756 43.0905 29.818C42.5208 29.9604 42.1737 29.9871 42.0491 29.8981Z" fill="white"/>
<path d="M65.25 29.8981C64.3599 29.5243 63.7725 29.008 63.4876 28.3494C63.2028 27.6729 63.1049 26.952 63.1939 26.1865C63.2829 25.4033 63.4965 24.62 63.8348 23.8367C64.1908 23.0535 64.5557 22.3592 64.9295 21.754C65.0542 21.5404 65.2856 21.1754 65.6238 20.6592C65.962 20.143 66.3181 19.6 66.6919 19.0304C67.0835 18.4429 67.4484 17.9 67.7867 17.4015C68.1427 16.8853 68.3919 16.5293 68.5343 16.3335C68.7479 14.9628 69.1752 13.8769 69.816 13.0758C70.4569 12.2569 71.1778 11.6962 71.9789 11.3936C72.7978 11.091 73.6344 11.0286 74.4889 11.2067C75.3434 11.3669 76.091 11.7496 76.7319 12.3548C77.3727 12.9423 77.8355 13.7345 78.1204 14.7313C78.4052 15.7282 78.3785 16.8942 78.0403 18.2293C77.7198 19.5644 77.0256 21.0597 75.9575 22.7152C74.8894 24.3708 73.3229 26.1598 71.2579 28.0824C70.9019 28.4206 70.4747 28.7499 69.9762 29.0703C69.4956 29.373 68.9794 29.6222 68.4275 29.818C67.8935 30.0138 67.3505 30.1295 66.7987 30.1651C66.2468 30.2007 65.7306 30.1117 65.25 29.8981ZM64.3154 27.7886C64.4934 28.5897 64.8316 29.0881 65.3301 29.284C65.8285 29.4798 66.416 29.4442 67.0924 29.1771C67.7689 28.9101 68.5076 28.4562 69.3087 27.8153C70.1097 27.1745 70.9108 26.4268 71.7119 25.5724C72.5129 24.7001 73.2784 23.7566 74.0082 22.742C74.7381 21.7273 75.3701 20.7215 75.9041 19.7246C76.4559 18.7277 76.8743 17.7754 77.1591 16.8675C77.4439 15.9596 77.5329 15.1764 77.4261 14.5177C77.3371 13.8413 77.0167 13.3339 76.4648 12.9957C75.9308 12.6575 75.103 12.5596 73.9815 12.702C73.5721 13.058 73.0292 13.5831 72.3527 14.2774C71.6763 14.9538 70.9553 15.7282 70.1899 16.6005C69.4244 17.4727 68.6589 18.4162 67.8935 19.4309C67.128 20.4278 66.4516 21.4246 65.8641 22.4215C65.2767 23.4184 64.8316 24.3797 64.529 25.3053C64.2264 26.231 64.1552 27.0588 64.3154 27.7886Z" fill="white"/>
<path d="M78.2539 29.8981C77.7376 29.5243 77.3994 29.0525 77.2392 28.4829C77.0968 27.9133 77.079 27.2991 77.1858 26.6405C77.2926 25.964 77.4795 25.2697 77.7465 24.5577C78.0314 23.8456 78.334 23.1603 78.6544 22.5016C78.9926 21.843 79.3131 21.2377 79.6157 20.6859C79.9361 20.134 80.1853 19.6801 80.3633 19.3241C80.4167 19.2173 80.5414 18.9592 80.7372 18.5497C80.9508 18.1403 81.1733 17.6953 81.4047 17.2146C81.6361 16.734 81.8498 16.289 82.0456 15.8795C82.2592 15.4523 82.3927 15.1853 82.4461 15.0785C82.4995 14.9895 82.5707 14.8203 82.6597 14.5711C82.7665 14.3041 82.8822 14.0193 83.0068 13.7167C83.1315 13.414 83.265 13.1292 83.4074 12.8622C83.5676 12.5774 83.7278 12.3727 83.888 12.248C84.066 12.1234 84.2351 12.1056 84.3953 12.1946C84.5734 12.2836 84.7425 12.5507 84.9027 12.9957C84.8315 13.1737 84.6535 13.5297 84.3687 14.0638C84.1016 14.5978 83.7812 15.2387 83.4074 15.9863C83.0335 16.734 82.6152 17.5618 82.1524 18.4696C81.7073 19.3775 81.2712 20.2943 80.844 21.2199C80.4167 22.1456 80.0162 23.0535 79.6424 23.9435C79.2686 24.8158 78.957 25.6169 78.7078 26.3467C78.4764 27.0588 78.334 27.6551 78.2806 28.1358C78.245 28.5986 78.334 28.8834 78.5476 28.9902C78.7968 29.1148 79.1172 29.1682 79.5089 29.1504C79.9183 29.1148 80.3366 29.0614 80.7639 28.9902C81.1911 28.919 81.6094 28.8478 82.0189 28.7766C82.4283 28.6876 82.7843 28.652 83.087 28.6698C83.1582 28.83 83.1048 28.9902 82.9267 29.1504C82.7487 29.2929 82.4995 29.4264 82.1791 29.551C81.8587 29.6578 81.4848 29.7557 81.0576 29.8447C80.6482 29.9159 80.2476 29.9693 79.856 30.0049C79.4822 30.0405 79.1439 30.0494 78.8413 30.0316C78.5565 30.0138 78.3607 29.9693 78.2539 29.8981Z" fill="white"/>
<path d="M84.0066 29.8981C84.7364 27.5483 85.3951 25.6881 85.9825 24.3174C86.5878 22.9289 87.0862 21.9587 87.4778 21.4068C87.8873 20.855 88.1632 20.677 88.3056 20.8728C88.448 21.0686 88.4302 21.5671 88.2522 22.3681C88.092 23.1692 87.736 24.2462 87.1841 25.5991C86.6501 26.9342 85.8935 28.4651 84.9144 30.1918C84.772 30.2452 84.6029 30.2541 84.4071 30.2185C84.2113 30.1829 84.0778 30.0761 84.0066 29.8981ZM88.6794 17.0544C88.6438 16.9654 88.626 16.8052 88.626 16.5738C88.626 16.3424 88.6438 16.1999 88.6794 16.1465C89.0889 16.0041 89.4004 15.9863 89.614 16.0931C89.8276 16.1999 89.9611 16.3602 90.0145 16.5738C90.0679 16.7696 90.059 16.9832 89.9878 17.2146C89.9344 17.446 89.8365 17.6241 89.6941 17.7487C89.5517 17.8555 89.3826 17.8733 89.1868 17.8021C89.0088 17.7131 88.8396 17.4638 88.6794 17.0544Z" fill="white"/>
<path d="M90.2399 29.5777C89.8661 29.3641 89.5991 29.0258 89.4388 28.563C89.2786 28.1002 89.1896 27.575 89.1718 26.9876C89.154 26.4001 89.1896 25.786 89.2786 25.1451C89.3676 24.5043 89.4745 23.8812 89.5991 23.276C89.7237 22.6707 89.8483 22.1278 89.9729 21.6472C90.0975 21.1665 90.1865 20.7927 90.2399 20.5257C90.3289 20.4723 90.4179 20.4723 90.5069 20.5257C90.6137 20.5791 90.7116 20.6592 90.8007 20.766C90.9075 20.855 90.9876 20.944 91.041 21.033C91.1122 21.1042 91.1478 21.1398 91.1478 21.1398C91.2012 21.7629 91.2012 22.377 91.1478 22.9823C91.1122 23.5697 91.0588 24.1572 90.9876 24.7446C90.9342 25.3321 90.8808 25.9284 90.8274 26.5336C90.7918 27.1389 90.7918 27.753 90.8274 28.3761C90.9698 28.6431 91.2635 28.652 91.7085 28.4028C92.1536 28.1358 92.6965 27.7174 93.3373 27.1478C93.9782 26.5603 94.6725 25.875 95.4201 25.0917C96.1856 24.2907 96.9332 23.4985 97.6631 22.7152C98.4107 21.932 99.1139 21.2021 99.7726 20.5257C100.431 19.8314 100.983 19.3063 101.428 18.9503C101.891 18.5764 102.211 18.4251 102.389 18.4963C102.567 18.5497 102.541 18.9236 102.309 19.6178C101.882 19.9916 101.375 20.5524 100.787 21.3C100.2 22.0477 99.5589 22.8577 98.8647 23.7299C98.1704 24.5844 97.4495 25.4389 96.7018 26.2933C95.9542 27.1478 95.1976 27.8865 94.4321 28.5096C93.6845 29.1148 92.9546 29.5421 92.2426 29.7913C91.5305 30.0227 90.863 29.9515 90.2399 29.5777Z" fill="white"/>
<path d="M103.389 29.8981C102.855 29.7201 102.446 29.4531 102.161 29.097C101.894 28.7232 101.716 28.3138 101.627 27.8687C101.538 27.4237 101.52 26.9609 101.573 26.4802C101.645 25.9818 101.751 25.5101 101.894 25.065C102.428 24.4954 103.024 23.8456 103.683 23.1158C104.359 22.3681 105.071 21.6383 105.819 20.9262C106.567 20.2142 107.341 19.5555 108.142 18.9503C108.961 18.3272 109.789 17.8555 110.625 17.535C110.91 17.4104 111.133 17.4193 111.293 17.5618C111.471 17.6864 111.596 17.8911 111.667 18.1759C111.738 18.4607 111.765 18.79 111.747 19.1639C111.747 19.5377 111.72 19.9026 111.667 20.2587C111.613 20.6147 111.542 20.9351 111.453 21.2199C111.364 21.5048 111.275 21.7006 111.186 21.8074C110.972 22.0566 110.554 22.3503 109.931 22.6885C109.326 23.0268 108.649 23.4006 107.902 23.81C107.154 24.2017 106.406 24.6111 105.659 25.0383C104.911 25.4656 104.297 25.8928 103.816 26.32C103.336 26.7295 103.051 27.1389 102.962 27.5483C102.873 27.9578 103.122 28.3316 103.709 28.6698C104.315 28.741 105.045 28.7143 105.899 28.5897C106.771 28.4473 107.652 28.2693 108.543 28.0557C109.45 27.8242 110.323 27.5928 111.159 27.3614C111.996 27.1122 112.681 26.9164 113.215 26.774L113.536 27.0677C113.144 27.5839 112.503 28.0557 111.613 28.4829C110.723 28.9101 109.762 29.2662 108.729 29.551C107.697 29.818 106.691 29.996 105.712 30.085C104.733 30.1562 103.959 30.0939 103.389 29.8981ZM109.771 19.6979C109.753 19.6801 109.62 19.7602 109.37 19.9382C109.121 20.0984 108.81 20.321 108.436 20.6058C108.08 20.8728 107.688 21.1754 107.261 21.5137C106.851 21.8341 106.469 22.1367 106.113 22.4215C105.774 22.7063 105.49 22.9556 105.258 23.1692C105.027 23.365 104.929 23.4629 104.964 23.4629C105.249 23.5163 105.614 23.4807 106.059 23.3561C106.522 23.2137 106.994 23.0179 107.474 22.7687C107.973 22.5194 108.445 22.2435 108.89 21.9409C109.335 21.6205 109.682 21.3089 109.931 21.0063C110.198 20.7037 110.332 20.4367 110.332 20.2053C110.349 19.9738 110.162 19.8047 109.771 19.6979Z" fill="white"/>
<path d="M113.029 29.8981C113.758 27.5483 114.417 25.6881 115.004 24.3174C115.61 22.9289 116.108 21.9587 116.5 21.4068C116.909 20.855 117.185 20.677 117.328 20.8728C117.47 21.0686 117.452 21.5671 117.274 22.3681C117.114 23.1692 116.758 24.2462 116.206 25.5991C115.672 26.9342 114.915 28.4651 113.936 30.1918C113.794 30.2452 113.625 30.2541 113.429 30.2185C113.233 30.1829 113.1 30.0761 113.029 29.8981ZM117.701 17.0544C117.666 16.9654 117.648 16.8052 117.648 16.5738C117.648 16.3424 117.666 16.1999 117.701 16.1465C118.111 16.0041 118.422 15.9863 118.636 16.0931C118.85 16.1999 118.983 16.3602 119.036 16.5738C119.09 16.7696 119.081 16.9832 119.01 17.2146C118.956 17.446 118.858 17.6241 118.716 17.7487C118.574 17.8555 118.405 17.8733 118.209 17.8021C118.031 17.7131 117.862 17.4638 117.701 17.0544Z" fill="white"/>
<path d="M118.514 29.8981C118.479 29.8803 118.479 29.6756 118.514 29.284C118.568 28.8745 118.639 28.3672 118.728 27.7619C118.817 27.1567 118.933 26.4891 119.075 25.7593C119.217 25.0294 119.369 24.3352 119.529 23.6765C119.689 23.0001 119.858 22.4126 120.036 21.9142C120.232 21.3979 120.419 21.0419 120.597 20.8461C120.722 20.7215 120.846 20.7215 120.971 20.8461C121.095 20.9529 121.22 21.0953 121.345 21.2733C121.469 21.4335 121.594 21.5849 121.718 21.7273C121.843 21.8519 121.977 21.8608 122.119 21.754C122.617 21.0597 123.16 20.4011 123.748 19.778C124.353 19.1372 125.021 18.5853 125.75 18.1225C125.822 18.0691 126.017 17.989 126.338 17.8822C126.658 17.7576 127.023 17.6419 127.433 17.535C127.842 17.4104 128.26 17.3125 128.688 17.2413C129.133 17.1523 129.507 17.1167 129.809 17.1345C130.13 17.1345 130.343 17.2146 130.45 17.3748C130.575 17.5172 130.521 17.7665 130.29 18.1225C129.222 18.1403 128.225 18.4518 127.299 19.0571C126.373 19.6623 125.519 20.41 124.736 21.3C123.953 22.1901 123.24 23.1603 122.6 24.2106C121.959 25.243 121.398 26.2043 120.917 27.0944C120.455 27.9845 120.063 28.7232 119.742 29.3107C119.44 29.8981 119.217 30.1918 119.075 30.1918C119.057 30.1918 118.977 30.1562 118.835 30.085C118.692 29.996 118.585 29.9337 118.514 29.8981Z" fill="white"/>
<path d="M127.864 29.5777C127.437 29.2217 127.197 28.6965 127.143 28.0023C127.108 27.308 127.206 26.5247 127.437 25.6525C127.686 24.7802 128.042 23.8723 128.505 22.9289C128.986 21.9676 129.538 21.0597 130.161 20.2053C130.784 19.333 131.46 18.5586 132.19 17.8822C132.92 17.1879 133.65 16.6806 134.379 16.3602C135.109 16.0219 135.821 15.9062 136.516 16.013C137.21 16.102 137.842 16.5026 138.411 17.2146C138.768 17.6597 138.981 18.1136 139.052 18.5764C139.124 19.0215 139.115 19.4843 139.026 19.9649C138.937 20.4278 138.794 20.9084 138.598 21.4068C138.403 21.8875 138.207 22.377 138.011 22.8755C137.833 23.3739 137.682 23.8812 137.557 24.3975C137.45 24.9137 137.432 25.4389 137.504 25.9729C137.593 26.6494 137.895 27.0499 138.411 27.1745C138.928 27.2991 139.542 27.2635 140.254 27.0677C140.984 26.8719 141.749 26.5603 142.55 26.1331C143.351 25.7059 144.09 25.2786 144.767 24.8514C145.461 24.4242 146.03 24.0504 146.476 23.7299C146.938 23.4095 147.17 23.2493 147.17 23.2493C147.668 23.1425 147.944 23.1781 147.998 23.3561C148.069 23.5163 147.971 23.7655 147.704 24.1038C147.455 24.4242 147.072 24.798 146.556 25.2252C146.039 25.6347 145.452 26.0352 144.793 26.4268C144.135 26.8185 143.431 27.1745 142.684 27.4949C141.936 27.8153 141.206 28.0379 140.494 28.1625C139.782 28.2693 139.106 28.2604 138.465 28.1358C137.842 27.9934 137.326 27.6729 136.916 27.1745C136.72 26.9609 136.569 26.7473 136.462 26.5336C136.373 26.32 136.222 26.1331 136.008 25.9729C135.741 26.2221 135.421 26.5514 135.047 26.9609C134.673 27.3525 134.264 27.753 133.819 28.1625C133.392 28.5541 132.929 28.9279 132.43 29.284C131.95 29.64 131.451 29.907 130.935 30.085C130.419 30.263 129.894 30.3253 129.359 30.2719C128.843 30.2185 128.345 29.9871 127.864 29.5777ZM128.158 28.6698C128.318 29.2395 128.674 29.5065 129.226 29.4709C129.778 29.4175 130.419 29.1415 131.149 28.6431C131.878 28.1447 132.635 27.4682 133.418 26.6138C134.201 25.7415 134.905 24.7802 135.528 23.7299C136.151 22.6618 136.622 21.5404 136.943 20.3655C137.281 19.1906 137.37 18.0335 137.21 16.8942C136.783 16.556 136.249 16.5471 135.608 16.8675C134.967 17.1701 134.282 17.6775 133.552 18.3895C132.84 19.0838 132.128 19.9204 131.416 20.8995C130.721 21.8608 130.107 22.8399 129.573 23.8367C129.039 24.8158 128.63 25.7415 128.345 26.6138C128.078 27.486 128.015 28.1714 128.158 28.6698Z" fill="white"/>
<path d="M26.6118 43.8582H29.9082V44.6863H27.7247V45.2981H29.8027V46.1262H27.7247V46.796H30.0348L29.9293 47.6241H26.6118V43.8582Z" fill="white"/>
<path d="M32.2631 43.8582H35.4066V44.7127H33.4023V45.4405H35.2958V46.2949H33.4023V47.6241H32.2631V43.8582Z" fill="white"/>
<path d="M37.5693 43.8582H38.7085V47.6241H37.5693V43.8582Z" fill="white"/>
<path d="M45.1217 45.103L43.9983 45.2243C43.9314 45.0309 43.8312 44.892 43.6976 44.8076C43.564 44.7232 43.3829 44.681 43.1544 44.681C42.8414 44.681 42.5971 44.7724 42.4212 44.9553C42.2454 45.1346 42.1575 45.3966 42.1575 45.7411C42.1575 46.0857 42.2454 46.3494 42.4212 46.5323C42.6006 46.7116 42.852 46.8013 43.1755 46.8013C43.6748 46.8013 43.9684 46.6079 44.0563 46.2211H45.1955C45.1498 46.6958 44.9459 47.065 44.5837 47.3287C44.225 47.5889 43.7468 47.719 43.1491 47.719C42.6709 47.719 42.2701 47.6346 41.9466 47.4658C41.6266 47.2971 41.384 47.065 41.2187 46.7696C41.057 46.4708 40.9761 46.1279 40.9761 45.7411C40.9761 45.3649 41.057 45.0274 41.2187 44.7285C41.384 44.4296 41.6284 44.194 41.9518 44.0217C42.2753 43.8494 42.6779 43.7633 43.1596 43.7633C44.2461 43.7633 44.9002 44.2099 45.1217 45.103Z" fill="white"/>
<path d="M48.4894 43.8582H49.8185L51.4535 47.6241H50.2721L49.9925 46.9384H48.2731L48.0094 47.6241H46.8543L48.4894 43.8582ZM49.6761 46.0945L49.1381 44.7179L48.6001 46.0945H49.6761ZM49.2858 42.719H50.5411L49.5126 43.5523H48.4788L49.2858 42.719Z" fill="white"/>
<path d="M57.2587 45.103L56.1352 45.2243C56.0684 45.0309 55.9682 44.892 55.8346 44.8076C55.701 44.7232 55.5199 44.681 55.2914 44.681C54.9784 44.681 54.734 44.7724 54.5582 44.9553C54.3824 45.1346 54.2945 45.3966 54.2945 45.7411C54.2945 46.0857 54.3824 46.3494 54.5582 46.5323C54.7376 46.7116 54.989 46.8013 55.3125 46.8013C55.8117 46.8013 56.1053 46.6079 56.1933 46.2211H57.3325C57.2868 46.6958 57.0828 47.065 56.7207 47.3287C56.362 47.5889 55.8838 47.719 55.2861 47.719C54.8079 47.719 54.407 47.6346 54.0835 47.4658C53.7636 47.2971 53.521 47.065 53.3557 46.7696C53.194 46.4708 53.1131 46.1279 53.1131 45.7411C53.1131 45.3649 53.194 45.0274 53.3557 44.7285C53.521 44.4296 53.7653 44.194 54.0888 44.0217C54.4123 43.8494 54.8149 43.7633 55.2966 43.7633C56.3831 43.7633 57.0371 44.2099 57.2587 45.103Z" fill="white"/>
<path d="M59.4997 43.8582H60.639V47.6241H59.4997V43.8582Z" fill="white"/>
<path d="M64.3358 43.8582H65.665L67.3 47.6241H66.1185L65.839 46.9384H64.1196L63.8559 47.6241H62.7008L64.3358 43.8582ZM65.5226 46.0945L64.9846 44.7179L64.4466 46.0945H65.5226Z" fill="white"/>
<path d="M72.3743 43.8582H75.6707V44.6863H73.4871V45.2981H75.5652V46.1262H73.4871V46.796H75.7973L75.6918 47.6241H72.3743V43.8582Z" fill="white"/>
<path d="M81.0397 43.8582H84.3361V44.6863H82.1526V45.2981H84.2306V46.1262H82.1526V46.796H84.4627L84.3572 47.6241H81.0397V43.8582Z" fill="white"/>
<path d="M86.691 43.8582H89.8345V44.7127H87.8302V45.4405H89.7237V46.2949H87.8302V47.6241H86.691V43.8582Z" fill="white"/>
<path d="M91.9972 43.8582H93.1364V47.6241H91.9972V43.8582Z" fill="white"/>
<path d="M99.5496 45.103L98.4261 45.2243C98.3593 45.0309 98.2591 44.892 98.1255 44.8076C97.9919 44.7232 97.8108 44.681 97.5823 44.681C97.2693 44.681 97.025 44.7724 96.8491 44.9553C96.6733 45.1346 96.5854 45.3966 96.5854 45.7411C96.5854 46.0857 96.6733 46.3494 96.8491 46.5323C97.0285 46.7116 97.2799 46.8013 97.6034 46.8013C98.1027 46.8013 98.3963 46.6079 98.4842 46.2211H99.6234C99.5777 46.6958 99.3738 47.065 99.0116 47.3287C98.6529 47.5889 98.1747 47.719 97.577 47.719C97.0988 47.719 96.698 47.6346 96.3745 47.4658C96.0545 47.2971 95.8119 47.065 95.6466 46.7696C95.4849 46.4708 95.404 46.1279 95.404 45.7411C95.404 45.3649 95.4849 45.0274 95.6466 44.7285C95.8119 44.4296 96.0563 44.194 96.3797 44.0217C96.7032 43.8494 97.1058 43.7633 97.5875 43.7633C98.674 43.7633 99.328 44.2099 99.5496 45.103Z" fill="white"/>
<path d="M101.791 43.8582H102.93V47.6241H101.791V43.8582Z" fill="white"/>
<path d="M105.366 43.8582H108.663V44.6863H106.479V45.2981H108.557V46.1262H106.479V46.796H108.789L108.684 47.6241H105.366V43.8582ZM106.505 42.719H107.529L108.304 43.5523H107.413L107.017 43.1515L106.616 43.5523H105.73L106.505 42.719Z" fill="white"/>
<path d="M111.018 43.8582H112.03L113.913 46.1209V43.8582H114.989V47.6241H113.976L112.093 45.3614V47.6241H111.018V43.8582Z" fill="white"/>
<path d="M121.403 45.103L120.279 45.2243C120.213 45.0309 120.112 44.892 119.979 44.8076C119.845 44.7232 119.664 44.681 119.435 44.681C119.122 44.681 118.878 44.7724 118.702 44.9553C118.527 45.1346 118.439 45.3966 118.439 45.7411C118.439 46.0857 118.527 46.3494 118.702 46.5323C118.882 46.7116 119.133 46.8013 119.457 46.8013C119.956 46.8013 120.249 46.6079 120.337 46.2211H121.477C121.431 46.6958 121.227 47.065 120.865 47.3287C120.506 47.5889 120.028 47.719 119.43 47.719C118.952 47.719 118.551 47.6346 118.228 47.4658C117.908 47.2971 117.665 47.065 117.5 46.7696C117.338 46.4708 117.257 46.1279 117.257 45.7411C117.257 45.3649 117.338 45.0274 117.5 44.7285C117.665 44.4296 117.909 44.194 118.233 44.0217C118.556 43.8494 118.959 43.7633 119.441 43.7633C120.527 43.7633 121.181 44.2099 121.403 45.103Z" fill="white"/>
<path d="M123.644 43.8582H124.783V47.6241H123.644V43.8582Z" fill="white"/>
<path d="M128.48 43.8582H129.809L131.444 47.6241H130.263L129.983 46.9384H128.264L128 47.6241H126.845L128.48 43.8582ZM129.667 46.0945L129.129 44.7179L128.591 46.0945H129.667Z" fill="white"/>
</svg>
