<svg width="158" height="58" viewBox="0 0 158 58" fill="none" xmlns="http://www.w3.org/2000/svg">
<path d="M13.3377 30.0849C12.2606 29.6611 11.519 29.0872 11.1129 28.3633C10.7068 27.6393 10.5391 26.8359 10.6097 25.9531C10.698 25.0525 10.9805 24.0991 11.4572 23.0926C11.9516 22.0685 12.552 21.0443 13.2583 20.0202C13.9822 18.9961 14.7768 17.9985 15.642 17.0273C16.5072 16.0561 17.3636 15.1645 18.2112 14.3522C19.0587 13.54 19.8533 12.8337 20.5949 12.2333C21.3365 11.633 21.9369 11.1916 22.3959 10.909C23.0316 10.5206 23.5613 10.3352 23.9851 10.3528C24.4089 10.3528 24.7444 10.4853 24.9916 10.7501C25.2564 10.9973 25.433 11.3505 25.5213 11.8096C25.6272 12.251 25.6714 12.7277 25.6537 13.2398C25.6537 13.7342 25.6007 14.2374 25.4948 14.7495C25.4065 15.2439 25.2829 15.6765 25.124 16.0473C24.9827 16.4181 24.8238 16.6918 24.6473 16.8684C24.4883 17.045 24.3294 17.0538 24.1705 16.8949C24.1528 16.7536 24.1705 16.5417 24.2235 16.2592C24.2764 15.959 24.3382 15.6235 24.4089 15.2527C24.4972 14.8819 24.5766 14.5023 24.6473 14.1138C24.7179 13.7254 24.762 13.3722 24.7797 13.0544C24.815 12.7189 24.8062 12.4364 24.7532 12.2069C24.7179 11.9773 24.6208 11.8449 24.4619 11.8096C23.8438 11.6506 23.1022 11.8007 22.237 12.2598C21.3895 12.7013 20.4978 13.3458 19.5619 14.1933C18.6438 15.0232 17.7256 15.9943 16.8074 17.1068C15.9069 18.2015 15.0858 19.3316 14.3442 20.497C13.6026 21.6623 12.9934 22.8012 12.5167 23.9137C12.0399 25.0084 11.7662 25.9796 11.6956 26.8271C11.6426 27.657 11.828 28.3015 12.2518 28.7606C12.6933 29.202 13.4613 29.3433 14.5561 29.1844C15.5626 29.0431 16.4896 28.69 17.3371 28.1249C18.2023 27.5422 19.0322 26.9066 19.8268 26.2179C20.639 25.5116 21.4424 24.823 22.237 24.152C23.0316 23.4634 23.8615 22.9425 24.7267 22.5894C25.0445 22.4658 25.2917 22.5099 25.4683 22.7218C25.6625 22.9337 25.7155 23.1897 25.6272 23.4899C25.5213 23.7901 25.2035 24.1873 24.6737 24.6817C24.1617 25.1761 23.5172 25.697 22.7403 26.2444C21.981 26.7741 21.1423 27.3127 20.2241 27.8601C19.3059 28.3898 18.4054 28.8489 17.5225 29.2373C16.6573 29.6258 15.8451 29.9083 15.0858 30.0849C14.3442 30.2615 13.7615 30.2615 13.3377 30.0849Z" fill="#0078A3"/>
<path d="M26.2745 30.0849C26.2392 30.0672 26.2392 29.8642 26.2745 29.4757C26.3275 29.0696 26.3982 28.5664 26.4864 27.966C26.5747 27.3657 26.6895 26.7035 26.8308 25.9796C26.972 25.2556 27.1221 24.567 27.281 23.9137C27.4399 23.2427 27.6077 22.66 27.7842 22.1656C27.9785 21.6535 28.1639 21.3004 28.3405 21.1061C28.4641 20.9825 28.5877 20.9825 28.7113 21.1061C28.8349 21.2121 28.9585 21.3533 29.0821 21.5299C29.2057 21.6888 29.3293 21.8389 29.4529 21.9802C29.5765 22.1038 29.7089 22.1126 29.8502 22.0067C30.3446 21.318 30.8831 20.6647 31.4658 20.0467C32.0661 19.411 32.7283 18.8637 33.4522 18.4046C33.5229 18.3516 33.7171 18.2721 34.0349 18.1662C34.3528 18.0426 34.7147 17.9278 35.1209 17.8219C35.527 17.6983 35.9419 17.6012 36.3657 17.5305C36.8071 17.4422 37.1779 17.4069 37.4781 17.4246C37.7959 17.4246 38.0078 17.504 38.1138 17.663C38.2374 17.8042 38.1844 18.0514 37.9549 18.4046C36.8954 18.4222 35.9066 18.7312 34.9884 19.3316C34.0703 19.9319 33.2227 20.6735 32.4458 21.5564C31.6689 22.4393 30.9626 23.4016 30.3269 24.4434C29.6912 25.4675 29.135 26.421 28.6583 27.3039C28.1992 28.1867 27.8107 28.9195 27.4929 29.5022C27.1927 30.0849 26.972 30.3762 26.8308 30.3762C26.8131 30.3762 26.7336 30.3409 26.5924 30.2703C26.4511 30.182 26.3452 30.1202 26.2745 30.0849Z" fill="#0078A3"/>
<path d="M36.9071 30.0849C37.631 27.7541 38.2843 25.9089 38.867 24.5493C39.4674 23.172 39.9618 22.2097 40.3503 21.6623C40.7564 21.115 41.0301 20.9384 41.1713 21.1326C41.3126 21.3269 41.2949 21.8213 41.1183 22.6158C40.9594 23.4104 40.6063 24.4787 40.0589 25.8206C39.5292 27.1449 38.7787 28.6635 37.8076 30.3762C37.6663 30.4292 37.4986 30.438 37.3044 30.4027C37.1101 30.3674 36.9777 30.2615 36.9071 30.0849ZM41.5421 17.3451C41.5068 17.2568 41.4891 17.0979 41.4891 16.8684C41.4891 16.6388 41.5068 16.4976 41.5421 16.4446C41.9482 16.3034 42.2572 16.2857 42.4691 16.3916C42.681 16.4976 42.8134 16.6565 42.8664 16.8684C42.9194 17.0626 42.9106 17.2745 42.8399 17.504C42.787 17.7336 42.6898 17.9102 42.5486 18.0338C42.4073 18.1397 42.2396 18.1574 42.0454 18.0867C41.8688 17.9985 41.701 17.7512 41.5421 17.3451Z" fill="#0078A3"/>
<path d="M42.3484 30.0849C42.1365 29.9436 42.1276 29.7582 42.3219 29.5287C42.5338 29.2815 42.8604 29.0254 43.3018 28.7606C43.7609 28.4781 44.2907 28.1867 44.891 27.8865C45.4914 27.5864 46.0652 27.3039 46.6126 27.039C47.1776 26.7741 47.672 26.5446 48.0958 26.3504C48.5196 26.1385 48.7933 25.9796 48.9169 25.8736C49.4996 25.3792 49.7997 24.9731 49.8174 24.6553C49.8527 24.3198 49.7115 24.0549 49.3936 23.8607C49.0758 23.6488 48.6255 23.4899 48.0428 23.3839C47.4778 23.2603 46.8863 23.1544 46.2683 23.0661C45.6679 22.9602 45.0852 22.8542 44.5202 22.7483C43.9728 22.6423 43.5579 22.5011 43.2754 22.3245C42.9928 22.1479 42.8957 21.9184 42.984 21.6359C43.09 21.3357 43.4784 20.9561 44.1494 20.497C44.3966 20.3204 44.7586 20.0644 45.2353 19.7289C45.7121 19.3934 46.2241 19.0491 46.7715 18.6959C47.3365 18.3428 47.8927 18.0249 48.4401 17.7424C48.9875 17.4599 49.4466 17.2745 49.8174 17.1862C50.0116 17.1509 50.2059 17.1686 50.4001 17.2392C50.612 17.3098 50.7797 17.4158 50.9033 17.557C51.0269 17.6806 51.0799 17.8219 51.0622 17.9808C51.0622 18.1397 50.9475 18.281 50.7179 18.4046C49.7114 18.9696 48.7403 19.4993 47.8045 19.9937C46.8863 20.4881 45.9593 21.0532 45.0234 21.6888C44.9705 21.8301 44.9793 21.9537 45.0499 22.0596C45.1382 22.1656 45.2353 22.245 45.3413 22.298C47.2129 22.4922 48.6167 22.7659 49.5525 23.1191C50.506 23.4722 51.1064 23.8607 51.3536 24.2845C51.6184 24.7082 51.5919 25.1585 51.2741 25.6352C50.9563 26.112 50.4795 26.5799 49.8439 27.039C49.2259 27.4981 48.5108 27.9307 47.6985 28.3368C46.8863 28.7429 46.1005 29.0872 45.3413 29.3698C44.5997 29.6523 43.9463 29.8642 43.3813 30.0054C42.8163 30.1467 42.472 30.1732 42.3484 30.0849Z" fill="#0078A3"/>
<path d="M65.3615 30.0849C64.4786 29.7141 63.8959 29.202 63.6134 28.5487C63.3309 27.8777 63.2338 27.1626 63.3221 26.4033C63.4103 25.6264 63.6222 24.8495 63.9577 24.0726C64.3109 23.2956 64.6728 22.607 65.0436 22.0067C65.1672 21.7948 65.3968 21.4328 65.7323 20.9207C66.0678 20.4087 66.4209 19.8701 66.7917 19.3051C67.1802 18.7224 67.5422 18.1839 67.8776 17.6894C68.2308 17.1774 68.478 16.8242 68.6192 16.63C68.8311 15.2704 69.2549 14.1933 69.8906 13.3987C70.5262 12.5865 71.2414 12.0303 72.0359 11.7301C72.8482 11.4299 73.6781 11.3681 74.5256 11.5447C75.3732 11.7036 76.1148 12.0833 76.7504 12.6836C77.3861 13.2663 77.8452 14.052 78.1277 15.0409C78.4102 16.0297 78.3837 17.1862 78.0482 18.5105C77.7304 19.8348 77.0418 21.318 75.9823 22.9602C74.9229 24.6023 73.3691 26.3768 71.3208 28.2838C70.9677 28.6193 70.5439 28.946 70.0495 29.2638C69.5727 29.564 69.0607 29.8112 68.5133 30.0054C67.9836 30.1997 67.445 30.3144 66.8977 30.3497C66.3503 30.3851 65.8382 30.2968 65.3615 30.0849ZM64.4345 27.9925C64.611 28.7871 64.9465 29.2815 65.4409 29.4757C65.9353 29.6699 66.518 29.6346 67.189 29.3698C67.86 29.1049 68.5928 28.6546 69.3873 28.019C70.1819 27.3833 70.9765 26.6417 71.7711 25.7942C72.5657 24.9289 73.3249 23.9931 74.0489 22.9866C74.7728 21.9802 75.3997 20.9825 75.9294 19.9937C76.4768 19.0049 76.8917 18.0603 77.1742 17.1597C77.4567 16.2592 77.545 15.4823 77.4391 14.829C77.3508 14.158 77.033 13.6548 76.4856 13.3193C75.9559 12.9838 75.1348 12.8867 74.0224 13.0279C73.6163 13.3811 73.0777 13.902 72.4067 14.5906C71.7358 15.2616 71.0206 16.0297 70.2614 16.8949C69.5021 17.7601 68.7428 18.6959 67.9836 19.7024C67.2243 20.6912 66.5533 21.68 65.9706 22.6688C65.388 23.6576 64.9465 24.6111 64.6464 25.5293C64.3462 26.4475 64.2756 27.2685 64.4345 27.9925Z" fill="#0078A3"/>
<path d="M78.2601 30.0849C77.7481 29.7141 77.4126 29.2462 77.2537 28.6811C77.1124 28.1161 77.0948 27.5069 77.2007 26.8536C77.3066 26.1826 77.492 25.494 77.7569 24.7877C78.0394 24.0814 78.3396 23.4016 78.6574 22.7483C78.9929 22.0949 79.3108 21.4946 79.6109 20.9472C79.9288 20.3998 80.176 19.9496 80.3525 19.5964C80.4055 19.4905 80.5291 19.2345 80.7233 18.8283C80.9352 18.4222 81.1559 17.9808 81.3855 17.504C81.615 17.0273 81.8269 16.5859 82.0211 16.1797C82.233 15.756 82.3655 15.4911 82.4184 15.3852C82.4714 15.2969 82.542 15.1291 82.6303 14.8819C82.7363 14.6171 82.851 14.3346 82.9746 14.0344C83.0982 13.7342 83.2307 13.4517 83.3719 13.1868C83.5308 12.9043 83.6898 12.7013 83.8487 12.5777C84.0253 12.4541 84.193 12.4364 84.3519 12.5247C84.5285 12.613 84.6962 12.8778 84.8551 13.3193C84.7845 13.4958 84.6079 13.849 84.3254 14.3787C84.0606 14.9084 83.7427 15.5441 83.3719 16.2857C83.0011 17.0273 82.5862 17.8484 82.1271 18.7489C81.6857 19.6494 81.2531 20.5588 80.8293 21.4769C80.4055 22.3951 80.0082 23.2956 79.6374 24.1785C79.2666 25.0437 78.9576 25.8383 78.7104 26.5622C78.4809 27.2685 78.3396 27.8601 78.2866 28.3368C78.2513 28.7959 78.3396 29.0784 78.5515 29.1844C78.7987 29.308 79.1165 29.3609 79.505 29.3433C79.9111 29.308 80.326 29.255 80.7498 29.1844C81.1736 29.1137 81.5885 29.0431 81.9947 28.9725C82.4008 28.8842 82.7539 28.8489 83.0541 28.8665C83.1247 29.0254 83.0718 29.1844 82.8952 29.3433C82.7186 29.4845 82.4714 29.617 82.1536 29.7406C81.8357 29.8465 81.4649 29.9436 81.0412 30.0319C80.635 30.1025 80.2378 30.1555 79.8493 30.1908C79.4785 30.2261 79.143 30.235 78.8428 30.2173C78.5603 30.1997 78.3661 30.1555 78.2601 30.0849Z" fill="#0078A3"/>
<path d="M83.9663 30.0849C84.6902 27.7541 85.3436 25.9089 85.9262 24.5493C86.5266 23.172 87.021 22.2097 87.4095 21.6623C87.8156 21.115 88.0893 20.9384 88.2305 21.1326C88.3718 21.3269 88.3541 21.8213 88.1776 22.6158C88.0186 23.4104 87.6655 24.4787 87.1181 25.8206C86.5884 27.1449 85.838 28.6635 84.8668 30.3762C84.7255 30.4292 84.5578 30.438 84.3636 30.4027C84.1693 30.3674 84.0369 30.2615 83.9663 30.0849ZM88.6013 17.3451C88.566 17.2568 88.5484 17.0979 88.5484 16.8684C88.5484 16.6388 88.566 16.4976 88.6013 16.4446C89.0074 16.3034 89.3164 16.2857 89.5283 16.3916C89.7402 16.4976 89.8727 16.6565 89.9256 16.8684C89.9786 17.0626 89.9698 17.2745 89.8991 17.504C89.8462 17.7336 89.749 17.9102 89.6078 18.0338C89.4665 18.1397 89.2988 18.1574 89.1046 18.0867C88.928 17.9985 88.7602 17.7512 88.6013 17.3451Z" fill="#0078A3"/>
<path d="M90.1492 29.767C89.7784 29.5552 89.5135 29.2197 89.3546 28.7606C89.1957 28.3015 89.1074 27.7806 89.0897 27.1979C89.0721 26.6152 89.1074 26.006 89.1957 25.3704C89.284 24.7347 89.3899 24.1167 89.5135 23.5164C89.6371 22.916 89.7607 22.3775 89.8843 21.9007C90.0079 21.424 90.0962 21.0532 90.1492 20.7883C90.2375 20.7353 90.3257 20.7353 90.414 20.7883C90.52 20.8413 90.6171 20.9207 90.7054 21.0267C90.8113 21.115 90.8908 21.2033 90.9437 21.2915C91.0144 21.3622 91.0497 21.3975 91.0497 21.3975C91.1027 22.0155 91.1027 22.6247 91.0497 23.225C91.0144 23.8077 90.9614 24.3904 90.8908 24.9731C90.8378 25.5558 90.7848 26.1473 90.7319 26.7477C90.6965 27.348 90.6965 27.9572 90.7319 28.5752C90.8731 28.84 91.1645 28.8489 91.6059 28.6017C92.0473 28.3368 92.5859 27.9219 93.2215 27.3568C93.8572 26.7741 94.5458 26.0943 95.2875 25.3174C96.0467 24.5228 96.7883 23.7371 97.5123 22.9602C98.2539 22.1832 98.9513 21.4593 99.6047 20.7883C100.258 20.0997 100.805 19.5788 101.247 19.2256C101.706 18.8548 102.024 18.7047 102.2 18.7754C102.377 18.8283 102.35 19.1991 102.121 19.8878C101.697 20.2586 101.194 20.8148 100.611 21.5564C100.028 22.298 99.3928 23.1014 98.7041 23.9666C98.0155 24.8142 97.3004 25.6617 96.5588 26.5093C95.8172 27.3568 95.0667 28.0896 94.3075 28.7076C93.5659 29.308 92.8419 29.7317 92.1356 29.9789C91.4293 30.2085 90.7672 30.1379 90.1492 29.767Z" fill="#0078A3"/>
<path d="M103.192 30.0849C102.662 29.9083 102.256 29.6434 101.974 29.2903C101.709 28.9195 101.532 28.5134 101.444 28.0719C101.356 27.6305 101.338 27.1714 101.391 26.6947C101.461 26.2003 101.567 25.7324 101.709 25.2909C102.238 24.7259 102.83 24.0814 103.483 23.3574C104.154 22.6158 104.861 21.8919 105.602 21.1856C106.344 20.4793 107.112 19.826 107.906 19.2256C108.719 18.6076 109.54 18.1397 110.37 17.8219C110.652 17.6983 110.873 17.7071 111.032 17.8484C111.208 17.972 111.332 18.175 111.403 18.4575C111.473 18.7401 111.5 19.0667 111.482 19.4375C111.482 19.8083 111.456 20.1703 111.403 20.5234C111.35 20.8766 111.279 21.1944 111.191 21.4769C111.102 21.7595 111.014 21.9537 110.926 22.0596C110.714 22.3068 110.299 22.5982 109.681 22.9337C109.081 23.2692 108.41 23.64 107.668 24.0461C106.926 24.4345 106.185 24.8407 105.443 25.2644C104.702 25.6882 104.092 26.112 103.616 26.5358C103.139 26.9419 102.856 27.348 102.768 27.7541C102.68 28.1602 102.927 28.531 103.51 28.8665C104.11 28.9372 104.834 28.9107 105.682 28.7871C106.547 28.6458 107.421 28.4692 108.304 28.2574C109.204 28.0278 110.069 27.7983 110.899 27.5687C111.729 27.3215 112.409 27.1273 112.939 26.986L113.257 27.2774C112.868 27.7894 112.232 28.2574 111.35 28.6811C110.467 29.1049 109.513 29.458 108.489 29.7406C107.465 30.0054 106.467 30.182 105.496 30.2703C104.525 30.3409 103.757 30.2791 103.192 30.0849ZM109.522 19.9672C109.504 19.9496 109.372 20.029 109.125 20.2056C108.878 20.3645 108.569 20.5852 108.198 20.8678C107.845 21.1326 107.456 21.4328 107.032 21.7683C106.626 22.0861 106.247 22.3863 105.893 22.6688C105.558 22.9513 105.275 23.1985 105.046 23.4104C104.816 23.6046 104.719 23.7018 104.755 23.7018C105.037 23.7547 105.399 23.7194 105.841 23.5958C106.3 23.4546 106.768 23.2603 107.244 23.0131C107.739 22.7659 108.207 22.4922 108.648 22.1921C109.089 21.8742 109.434 21.5652 109.681 21.2651C109.946 20.9649 110.078 20.7 110.078 20.4705C110.096 20.2409 109.911 20.0732 109.522 19.9672Z" fill="#0078A3"/>
<path d="M112.753 30.0849C113.477 27.7541 114.131 25.9089 114.713 24.5493C115.314 23.172 115.808 22.2097 116.197 21.6623C116.603 21.115 116.876 20.9384 117.018 21.1326C117.159 21.3269 117.141 21.8213 116.965 22.6158C116.806 23.4104 116.453 24.4787 115.905 25.8206C115.375 27.1449 114.625 28.6635 113.654 30.3762C113.513 30.4292 113.345 30.438 113.151 30.4027C112.956 30.3674 112.824 30.2615 112.753 30.0849ZM117.388 17.3451C117.353 17.2568 117.335 17.0979 117.335 16.8684C117.335 16.6388 117.353 16.4976 117.388 16.4446C117.795 16.3034 118.104 16.2857 118.315 16.3916C118.527 16.4976 118.66 16.6565 118.713 16.8684C118.766 17.0626 118.757 17.2745 118.686 17.504C118.633 17.7336 118.536 17.9102 118.395 18.0338C118.254 18.1397 118.086 18.1574 117.892 18.0867C117.715 17.9985 117.547 17.7512 117.388 17.3451Z" fill="#0078A3"/>
<path d="M118.195 30.0849C118.159 30.0672 118.159 29.8642 118.195 29.4757C118.248 29.0696 118.318 28.5664 118.407 27.966C118.495 27.3657 118.61 26.7035 118.751 25.9796C118.892 25.2556 119.042 24.567 119.201 23.9137C119.36 23.2427 119.528 22.66 119.704 22.1656C119.899 21.6535 120.084 21.3004 120.261 21.1061C120.384 20.9825 120.508 20.9825 120.631 21.1061C120.755 21.2121 120.879 21.3533 121.002 21.5299C121.126 21.6888 121.249 21.8389 121.373 21.9802C121.497 22.1038 121.629 22.1126 121.77 22.0067C122.265 21.318 122.803 20.6647 123.386 20.0467C123.986 19.411 124.648 18.8637 125.372 18.4046C125.443 18.3516 125.637 18.2721 125.955 18.1662C126.273 18.0426 126.635 17.9278 127.041 17.8219C127.447 17.6983 127.862 17.6012 128.286 17.5305C128.727 17.4422 129.098 17.4069 129.398 17.4246C129.716 17.4246 129.928 17.504 130.034 17.663C130.157 17.8042 130.104 18.0514 129.875 18.4046C128.815 18.4222 127.827 18.7312 126.909 19.3316C125.99 19.9319 125.143 20.6735 124.366 21.5564C123.589 22.4393 122.883 23.4016 122.247 24.4434C121.611 25.4675 121.055 26.421 120.578 27.3039C120.119 28.1867 119.731 28.9195 119.413 29.5022C119.113 30.0849 118.892 30.3762 118.751 30.3762C118.733 30.3762 118.654 30.3409 118.512 30.2703C118.371 30.182 118.265 30.1202 118.195 30.0849Z" fill="#0078A3"/>
<path d="M127.469 29.767C127.045 29.4139 126.807 28.893 126.754 28.2044C126.719 27.5157 126.816 26.7388 127.045 25.8736C127.292 25.0084 127.646 24.1079 128.105 23.172C128.581 22.2185 129.129 21.318 129.747 20.4705C130.365 19.6053 131.036 18.8372 131.76 18.1662C132.484 17.4776 133.208 16.9743 133.932 16.6565C134.655 16.321 135.362 16.2062 136.05 16.3122C136.739 16.4005 137.366 16.7978 137.931 17.504C138.284 17.9455 138.496 18.3957 138.567 18.8548C138.637 19.2963 138.628 19.7554 138.54 20.2321C138.452 20.6912 138.311 21.1679 138.116 21.6623C137.922 22.1391 137.728 22.6247 137.534 23.1191C137.357 23.6135 137.207 24.1167 137.083 24.6288C136.977 25.1408 136.96 25.6617 137.03 26.1914C137.119 26.8624 137.419 27.2597 137.931 27.3833C138.443 27.5069 139.052 27.4716 139.758 27.2774C140.482 27.0831 141.242 26.7741 142.036 26.3504C142.831 25.9266 143.564 25.5028 144.235 25.079C144.923 24.6553 145.488 24.2845 145.93 23.9666C146.389 23.6488 146.618 23.4899 146.618 23.4899C147.113 23.3839 147.386 23.4192 147.439 23.5958C147.51 23.7547 147.413 24.0019 147.148 24.3374C146.901 24.6553 146.521 25.0261 146.009 25.4498C145.497 25.856 144.914 26.2532 144.261 26.6417C143.608 27.0302 142.91 27.3833 142.169 27.7011C141.427 28.019 140.703 28.2397 139.997 28.3633C139.291 28.4692 138.62 28.4604 137.984 28.3368C137.366 28.1955 136.854 27.8777 136.448 27.3833C136.253 27.1714 136.103 26.9595 135.997 26.7477C135.909 26.5358 135.759 26.3504 135.547 26.1914C135.282 26.4386 134.964 26.7653 134.594 27.1714C134.223 27.5599 133.817 27.9572 133.375 28.3633C132.952 28.7518 132.492 29.1226 131.998 29.4757C131.521 29.8289 131.027 30.0937 130.515 30.2703C130.003 30.4469 129.482 30.5087 128.952 30.4557C128.44 30.4027 127.946 30.1732 127.469 29.767ZM127.76 28.8665C127.919 29.4316 128.272 29.6964 128.82 29.6611C129.367 29.6081 130.003 29.3344 130.727 28.84C131.451 28.3456 132.201 27.6747 132.978 26.8271C133.755 25.9619 134.452 25.0084 135.07 23.9666C135.688 22.9072 136.156 21.7948 136.474 20.6294C136.81 19.464 136.898 18.3163 136.739 17.1862C136.315 16.8507 135.786 16.8419 135.15 17.1597C134.514 17.4599 133.834 17.9631 133.11 18.6694C132.404 19.3581 131.698 20.188 130.992 21.1591C130.303 22.1126 129.694 23.0838 129.164 24.0726C128.634 25.0437 128.228 25.9619 127.946 26.8271C127.681 27.6923 127.619 28.3721 127.76 28.8665Z" fill="#0078A3"/>
<path d="M26.6118 43.9412H29.9082V44.7693H27.7247V45.3811H29.8027V46.2092H27.7247V46.879H30.0348L29.9293 47.7071H26.6118V43.9412Z" fill="#FF9A2E"/>
<path d="M32.2631 43.9412H35.4066V44.7957H33.4023V45.5235H35.2958V46.378H33.4023V47.7071H32.2631V43.9412Z" fill="#FF9A2E"/>
<path d="M37.5693 43.9412H38.7085V47.7071H37.5693V43.9412Z" fill="#FF9A2E"/>
<path d="M45.1217 45.186L43.9983 45.3073C43.9314 45.1139 43.8312 44.975 43.6976 44.8906C43.564 44.8062 43.3829 44.764 43.1544 44.764C42.8414 44.764 42.5971 44.8554 42.4212 45.0383C42.2454 45.2176 42.1575 45.4796 42.1575 45.8242C42.1575 46.1687 42.2454 46.4325 42.4212 46.6153C42.6006 46.7946 42.852 46.8843 43.1755 46.8843C43.6748 46.8843 43.9684 46.6909 44.0563 46.3041H45.1955C45.1498 46.7788 44.9459 47.148 44.5837 47.4117C44.225 47.6719 43.7468 47.802 43.1491 47.802C42.6709 47.802 42.2701 47.7176 41.9466 47.5488C41.6266 47.3801 41.384 47.148 41.2187 46.8526C41.057 46.5538 40.9761 46.2109 40.9761 45.8242C40.9761 45.4479 41.057 45.1104 41.2187 44.8115C41.384 44.5126 41.6284 44.277 41.9518 44.1047C42.2753 43.9325 42.6779 43.8463 43.1596 43.8463C44.2461 43.8463 44.9002 44.2929 45.1217 45.186Z" fill="#FF9A2E"/>
<path d="M48.4894 43.9412H49.8185L51.4535 47.7071H50.2721L49.9925 47.0214H48.2731L48.0094 47.7071H46.8543L48.4894 43.9412ZM49.6761 46.1775L49.1381 44.8009L48.6001 46.1775H49.6761ZM49.2858 42.802H50.5411L49.5126 43.6353H48.4788L49.2858 42.802Z" fill="#FF9A2E"/>
<path d="M57.2587 45.186L56.1352 45.3073C56.0684 45.1139 55.9682 44.975 55.8346 44.8906C55.701 44.8062 55.5199 44.764 55.2914 44.764C54.9784 44.764 54.734 44.8554 54.5582 45.0383C54.3824 45.2176 54.2945 45.4796 54.2945 45.8242C54.2945 46.1687 54.3824 46.4325 54.5582 46.6153C54.7376 46.7946 54.989 46.8843 55.3125 46.8843C55.8117 46.8843 56.1053 46.6909 56.1933 46.3041H57.3325C57.2868 46.7788 57.0828 47.148 56.7207 47.4117C56.362 47.6719 55.8838 47.802 55.2861 47.802C54.8079 47.802 54.407 47.7176 54.0835 47.5488C53.7636 47.3801 53.521 47.148 53.3557 46.8526C53.194 46.5538 53.1131 46.2109 53.1131 45.8242C53.1131 45.4479 53.194 45.1104 53.3557 44.8115C53.521 44.5126 53.7653 44.277 54.0888 44.1047C54.4123 43.9325 54.8149 43.8463 55.2966 43.8463C56.3831 43.8463 57.0371 44.2929 57.2587 45.186Z" fill="#FF9A2E"/>
<path d="M59.4997 43.9412H60.639V47.7071H59.4997V43.9412Z" fill="#FF9A2E"/>
<path d="M64.3358 43.9412H65.665L67.3 47.7071H66.1185L65.839 47.0214H64.1196L63.8559 47.7071H62.7008L64.3358 43.9412ZM65.5226 46.1775L64.9846 44.8009L64.4466 46.1775H65.5226Z" fill="#FF9A2E"/>
<path d="M72.3743 43.9412H75.6707V44.7693H73.4871V45.3811H75.5652V46.2092H73.4871V46.879H75.7973L75.6918 47.7071H72.3743V43.9412Z" fill="#FF9A2E"/>
<path d="M81.0397 43.9412H84.3361V44.7693H82.1526V45.3811H84.2306V46.2092H82.1526V46.879H84.4627L84.3572 47.7071H81.0397V43.9412Z" fill="#FF9A2E"/>
<path d="M86.691 43.9412H89.8345V44.7957H87.8302V45.5235H89.7237V46.378H87.8302V47.7071H86.691V43.9412Z" fill="#FF9A2E"/>
<path d="M91.9972 43.9412H93.1364V47.7071H91.9972V43.9412Z" fill="#FF9A2E"/>
<path d="M99.5496 45.186L98.4261 45.3073C98.3593 45.1139 98.2591 44.975 98.1255 44.8906C97.9919 44.8062 97.8108 44.764 97.5823 44.764C97.2693 44.764 97.025 44.8554 96.8491 45.0383C96.6733 45.2176 96.5854 45.4796 96.5854 45.8242C96.5854 46.1687 96.6733 46.4325 96.8491 46.6153C97.0285 46.7946 97.2799 46.8843 97.6034 46.8843C98.1027 46.8843 98.3963 46.6909 98.4842 46.3041H99.6234C99.5777 46.7788 99.3738 47.148 99.0116 47.4117C98.6529 47.6719 98.1747 47.802 97.577 47.802C97.0988 47.802 96.698 47.7176 96.3745 47.5488C96.0545 47.3801 95.8119 47.148 95.6466 46.8526C95.4849 46.5538 95.404 46.2109 95.404 45.8242C95.404 45.4479 95.4849 45.1104 95.6466 44.8115C95.8119 44.5126 96.0563 44.277 96.3797 44.1047C96.7032 43.9325 97.1058 43.8463 97.5875 43.8463C98.674 43.8463 99.328 44.2929 99.5496 45.186Z" fill="#FF9A2E"/>
<path d="M101.791 43.9412H102.93V47.7071H101.791V43.9412Z" fill="#FF9A2E"/>
<path d="M105.366 43.9412H108.663V44.7693H106.479V45.3811H108.557V46.2092H106.479V46.879H108.789L108.684 47.7071H105.366V43.9412ZM106.505 42.802H107.529L108.304 43.6353H107.413L107.017 43.2345L106.616 43.6353H105.73L106.505 42.802Z" fill="#FF9A2E"/>
<path d="M111.018 43.9412H112.03L113.913 46.2039V43.9412H114.989V47.7071H113.976L112.093 45.4444V47.7071H111.018V43.9412Z" fill="#FF9A2E"/>
<path d="M121.403 45.186L120.279 45.3073C120.213 45.1139 120.112 44.975 119.979 44.8906C119.845 44.8062 119.664 44.764 119.435 44.764C119.122 44.764 118.878 44.8554 118.702 45.0383C118.527 45.2176 118.439 45.4796 118.439 45.8242C118.439 46.1687 118.527 46.4325 118.702 46.6153C118.882 46.7946 119.133 46.8843 119.457 46.8843C119.956 46.8843 120.249 46.6909 120.337 46.3041H121.477C121.431 46.7788 121.227 47.148 120.865 47.4117C120.506 47.6719 120.028 47.802 119.43 47.802C118.952 47.802 118.551 47.7176 118.228 47.5488C117.908 47.3801 117.665 47.148 117.5 46.8526C117.338 46.5538 117.257 46.2109 117.257 45.8242C117.257 45.4479 117.338 45.1104 117.5 44.8115C117.665 44.5126 117.909 44.277 118.233 44.1047C118.556 43.9325 118.959 43.8463 119.441 43.8463C120.527 43.8463 121.181 44.2929 121.403 45.186Z" fill="#FF9A2E"/>
<path d="M123.644 43.9412H124.783V47.7071H123.644V43.9412Z" fill="#FF9A2E"/>
<path d="M128.48 43.9412H129.809L131.444 47.7071H130.263L129.983 47.0214H128.264L128 47.7071H126.845L128.48 43.9412ZM129.667 46.1775L129.129 44.8009L128.591 46.1775H129.667Z" fill="#FF9A2E"/>
</svg>
