<svg width="158" height="65" viewBox="0 0 158 65" fill="none" xmlns="http://www.w3.org/2000/svg">
<path d="M13.3377 30.5699C12.2606 30.1461 11.519 29.5722 11.1129 28.8483C10.7068 28.1243 10.5391 27.3209 10.6097 26.4381C10.698 25.5375 10.9805 24.584 11.4572 23.5776C11.9516 22.5534 12.552 21.5293 13.2583 20.5052C13.9822 19.4811 14.7768 18.4834 15.642 17.5123C16.5072 16.5411 17.3636 15.6494 18.2112 14.8372C19.0587 14.025 19.8533 13.3187 20.5949 12.7183C21.3365 12.118 21.9369 11.6765 22.3959 11.394C23.0316 11.0056 23.5613 10.8202 23.9851 10.8378C24.4089 10.8378 24.7444 10.9703 24.9916 11.2351C25.2564 11.4823 25.433 11.8355 25.5213 12.2945C25.6272 12.736 25.6714 13.2127 25.6537 13.7248C25.6537 14.2192 25.6007 14.7224 25.4948 15.2345C25.4065 15.7289 25.2829 16.1615 25.124 16.5323C24.9827 16.9031 24.8238 17.1768 24.6473 17.3534C24.4883 17.5299 24.3294 17.5388 24.1705 17.3799C24.1528 17.2386 24.1705 17.0267 24.2235 16.7442C24.2764 16.444 24.3382 16.1085 24.4089 15.7377C24.4972 15.3669 24.5766 14.9873 24.6473 14.5988C24.7179 14.2104 24.762 13.8572 24.7797 13.5394C24.815 13.2039 24.8062 12.9214 24.7532 12.6918C24.7179 12.4623 24.6208 12.3299 24.4619 12.2945C23.8438 12.1356 23.1022 12.2857 22.237 12.7448C21.3895 13.1862 20.4978 13.8307 19.5619 14.6783C18.6438 15.5082 17.7256 16.4793 16.8074 17.5917C15.9069 18.6865 15.0858 19.8166 14.3442 20.9819C13.6026 22.1473 12.9934 23.2862 12.5167 24.3986C12.0399 25.4934 11.7662 26.4645 11.6956 27.3121C11.6426 28.142 11.828 28.7865 12.2518 29.2456C12.6933 29.687 13.4613 29.8283 14.5561 29.6693C15.5626 29.5281 16.4896 29.1749 17.3371 28.6099C18.2023 28.0272 19.0322 27.3916 19.8268 26.7029C20.639 25.9966 21.4424 25.308 22.237 24.637C23.0316 23.9484 23.8615 23.4275 24.7267 23.0743C25.0445 22.9507 25.2917 22.9949 25.4683 23.2068C25.6625 23.4187 25.7155 23.6747 25.6272 23.9749C25.5213 24.275 25.2035 24.6723 24.6737 25.1667C24.1617 25.6611 23.5172 26.182 22.7403 26.7294C21.981 27.2591 21.1423 27.7977 20.2241 28.345C19.3059 28.8748 18.4054 29.3339 17.5225 29.7223C16.6573 30.1108 15.8451 30.3933 15.0858 30.5699C14.3442 30.7464 13.7615 30.7464 13.3377 30.5699Z" fill="#0078A3"/>
<path d="M26.2745 30.5699C26.2392 30.5522 26.2392 30.3492 26.2745 29.9607C26.3275 29.5546 26.3982 29.0513 26.4864 28.451C26.5747 27.8506 26.6895 27.1885 26.8308 26.4645C26.972 25.7406 27.1221 25.052 27.281 24.3986C27.4399 23.7277 27.6077 23.145 27.7842 22.6506C27.9785 22.1385 28.1639 21.7854 28.3405 21.5911C28.4641 21.4675 28.5877 21.4675 28.7113 21.5911C28.8349 21.6971 28.9585 21.8383 29.0821 22.0149C29.2057 22.1738 29.3293 22.3239 29.4529 22.4652C29.5765 22.5888 29.7089 22.5976 29.8502 22.4916C30.3446 21.803 30.8831 21.1497 31.4658 20.5317C32.0661 19.896 32.7283 19.3486 33.4522 18.8896C33.5229 18.8366 33.7171 18.7571 34.0349 18.6512C34.3528 18.5276 34.7147 18.4128 35.1209 18.3069C35.527 18.1833 35.9419 18.0861 36.3657 18.0155C36.8071 17.9272 37.1779 17.8919 37.4781 17.9096C37.7959 17.9096 38.0078 17.989 38.1138 18.1479C38.2374 18.2892 38.1844 18.5364 37.9549 18.8896C36.8954 18.9072 35.9066 19.2162 34.9884 19.8166C34.0703 20.4169 33.2227 21.1585 32.4458 22.0414C31.6689 22.9243 30.9626 23.8866 30.3269 24.9284C29.6912 25.9525 29.135 26.906 28.6583 27.7888C28.1992 28.6717 27.8107 29.4045 27.4929 29.9872C27.1927 30.5699 26.972 30.8612 26.8308 30.8612C26.8131 30.8612 26.7336 30.8259 26.5924 30.7553C26.4511 30.667 26.3452 30.6052 26.2745 30.5699Z" fill="#0078A3"/>
<path d="M36.9071 30.5699C37.631 28.2391 38.2843 26.3939 38.867 25.0343C39.4674 23.657 39.9618 22.6947 40.3503 22.1473C40.7564 21.6 41.0301 21.4234 41.1713 21.6176C41.3126 21.8118 41.2949 22.3062 41.1183 23.1008C40.9594 23.8954 40.6063 24.9637 40.0589 26.3056C39.5292 27.6299 38.7787 29.1485 37.8076 30.8612C37.6663 30.9142 37.4986 30.923 37.3044 30.8877C37.1101 30.8524 36.9777 30.7464 36.9071 30.5699ZM41.5421 17.8301C41.5068 17.7418 41.4891 17.5829 41.4891 17.3534C41.4891 17.1238 41.5068 16.9826 41.5421 16.9296C41.9482 16.7883 42.2572 16.7707 42.4691 16.8766C42.681 16.9826 42.8134 17.1415 42.8664 17.3534C42.9194 17.5476 42.9106 17.7595 42.8399 17.989C42.787 18.2186 42.6898 18.3952 42.5486 18.5188C42.4073 18.6247 42.2396 18.6424 42.0454 18.5717C41.8688 18.4834 41.701 18.2362 41.5421 17.8301Z" fill="#0078A3"/>
<path d="M42.3484 30.5699C42.1365 30.4286 42.1276 30.2432 42.3219 30.0137C42.5338 29.7665 42.8604 29.5104 43.3018 29.2456C43.7609 28.9631 44.2907 28.6717 44.891 28.3715C45.4914 28.0714 46.0652 27.7888 46.6126 27.524C47.1776 27.2591 47.672 27.0296 48.0958 26.8353C48.5196 26.6235 48.7933 26.4645 48.9169 26.3586C49.4996 25.8642 49.7997 25.4581 49.8174 25.1402C49.8527 24.8048 49.7115 24.5399 49.3936 24.3457C49.0758 24.1338 48.6255 23.9749 48.0428 23.8689C47.4778 23.7453 46.8863 23.6394 46.2683 23.5511C45.6679 23.4451 45.0852 23.3392 44.5202 23.2333C43.9728 23.1273 43.5579 22.9861 43.2754 22.8095C42.9928 22.6329 42.8957 22.4034 42.984 22.1208C43.09 21.8207 43.4784 21.441 44.1494 20.9819C44.3966 20.8054 44.7586 20.5493 45.2353 20.2139C45.7121 19.8784 46.2241 19.534 46.7715 19.1809C47.3365 18.8278 47.8927 18.5099 48.4401 18.2274C48.9875 17.9449 49.4466 17.7595 49.8174 17.6712C50.0116 17.6359 50.2059 17.6535 50.4001 17.7242C50.612 17.7948 50.7797 17.9007 50.9033 18.042C51.0269 18.1656 51.0799 18.3069 51.0622 18.4658C51.0622 18.6247 50.9475 18.766 50.7179 18.8896C49.7114 19.4546 48.7403 19.9843 47.8045 20.4787C46.8863 20.9731 45.9593 21.5382 45.0234 22.1738C44.9705 22.3151 44.9793 22.4387 45.0499 22.5446C45.1382 22.6506 45.2353 22.73 45.3413 22.783C47.2129 22.9772 48.6167 23.2509 49.5525 23.6041C50.506 23.9572 51.1064 24.3457 51.3536 24.7694C51.6184 25.1932 51.5919 25.6435 51.2741 26.1202C50.9563 26.597 50.4795 27.0649 49.8439 27.524C49.2259 27.9831 48.5108 28.4157 47.6985 28.8218C46.8863 29.2279 46.1005 29.5722 45.3413 29.8547C44.5997 30.1373 43.9463 30.3492 43.3813 30.4904C42.8163 30.6317 42.472 30.6582 42.3484 30.5699Z" fill="#0078A3"/>
<path d="M65.3615 30.5699C64.4786 30.1991 63.8959 29.687 63.6134 29.0337C63.3309 28.3627 63.2338 27.6476 63.3221 26.8883C63.4103 26.1114 63.6222 25.3345 63.9577 24.5576C64.3109 23.7806 64.6728 23.092 65.0436 22.4916C65.1672 22.2798 65.3968 21.9178 65.7323 21.4057C66.0678 20.8937 66.4209 20.3551 66.7917 19.7901C67.1802 19.2074 67.5422 18.6688 67.8776 18.1744C68.2308 17.6624 68.478 17.3092 68.6192 17.115C68.8311 15.7554 69.2549 14.6783 69.8906 13.8837C70.5262 13.0715 71.2414 12.5153 72.0359 12.2151C72.8482 11.9149 73.6781 11.8531 74.5256 12.0297C75.3732 12.1886 76.1148 12.5682 76.7504 13.1686C77.3861 13.7513 77.8452 14.537 78.1277 15.5258C78.4102 16.5146 78.3837 17.6712 78.0482 18.9955C77.7304 20.3198 77.0418 21.803 75.9823 23.4451C74.9229 25.0873 73.3691 26.8618 71.3208 28.7688C70.9677 29.1043 70.5439 29.431 70.0495 29.7488C69.5727 30.049 69.0607 30.2962 68.5133 30.4904C67.9836 30.6846 67.445 30.7994 66.8977 30.8347C66.3503 30.87 65.8382 30.7818 65.3615 30.5699ZM64.4345 28.4775C64.611 29.2721 64.9465 29.7665 65.4409 29.9607C65.9353 30.1549 66.518 30.1196 67.189 29.8547C67.86 29.5899 68.5928 29.1396 69.3873 28.504C70.1819 27.8683 70.9765 27.1267 71.7711 26.2791C72.5657 25.4139 73.3249 24.4781 74.0489 23.4716C74.7728 22.4652 75.3997 21.4675 75.9294 20.4787C76.4768 19.4899 76.8917 18.5452 77.1742 17.6447C77.4567 16.7442 77.545 15.9673 77.4391 15.314C77.3508 14.643 77.033 14.1397 76.4856 13.8043C75.9559 13.4688 75.1348 13.3716 74.0224 13.5129C73.6163 13.8661 73.0777 14.3869 72.4067 15.0756C71.7358 15.7466 71.0206 16.5146 70.2614 17.3799C69.5021 18.2451 68.7428 19.1809 67.9836 20.1874C67.2243 21.1762 66.5533 22.165 65.9706 23.1538C65.388 24.1426 64.9465 25.0961 64.6464 26.0143C64.3462 26.9325 64.2756 27.7535 64.4345 28.4775Z" fill="#0078A3"/>
<path d="M78.2601 30.5699C77.7481 30.1991 77.4126 29.7311 77.2537 29.1661C77.1124 28.6011 77.0948 27.9919 77.2007 27.3386C77.3066 26.6676 77.492 25.979 77.7569 25.2727C78.0394 24.5664 78.3396 23.8866 78.6574 23.2333C78.9929 22.5799 79.3108 21.9796 79.6109 21.4322C79.9288 20.8848 80.176 20.4346 80.3525 20.0814C80.4055 19.9755 80.5291 19.7194 80.7233 19.3133C80.9352 18.9072 81.1559 18.4658 81.3855 17.989C81.615 17.5123 81.8269 17.0709 82.0211 16.6647C82.233 16.241 82.3655 15.9761 82.4184 15.8702C82.4714 15.7819 82.542 15.6141 82.6303 15.3669C82.7363 15.1021 82.851 14.8195 82.9746 14.5194C83.0982 14.2192 83.2307 13.9367 83.3719 13.6718C83.5308 13.3893 83.6898 13.1862 83.8487 13.0626C84.0253 12.939 84.193 12.9214 84.3519 13.0097C84.5285 13.098 84.6962 13.3628 84.8551 13.8043C84.7845 13.9808 84.6079 14.334 84.3254 14.8637C84.0606 15.3934 83.7427 16.0291 83.3719 16.7707C83.0011 17.5123 82.5862 18.3334 82.1271 19.2339C81.6857 20.1344 81.2531 21.0437 80.8293 21.9619C80.4055 22.8801 80.0082 23.7806 79.6374 24.6635C79.2666 25.5287 78.9576 26.3233 78.7104 27.0472C78.4809 27.7535 78.3396 28.345 78.2866 28.8218C78.2513 29.2809 78.3396 29.5634 78.5515 29.6693C78.7987 29.7929 79.1165 29.8459 79.505 29.8283C79.9111 29.7929 80.326 29.74 80.7498 29.6693C81.1736 29.5987 81.5885 29.5281 81.9947 29.4575C82.4008 29.3692 82.7539 29.3339 83.0541 29.3515C83.1247 29.5104 83.0718 29.6693 82.8952 29.8283C82.7186 29.9695 82.4714 30.1019 82.1536 30.2255C81.8357 30.3315 81.4649 30.4286 81.0412 30.5169C80.635 30.5875 80.2378 30.6405 79.8493 30.6758C79.4785 30.7111 79.143 30.72 78.8428 30.7023C78.5603 30.6846 78.3661 30.6405 78.2601 30.5699Z" fill="#0078A3"/>
<path d="M83.9663 30.5699C84.6902 28.2391 85.3436 26.3939 85.9262 25.0343C86.5266 23.657 87.021 22.6947 87.4095 22.1473C87.8156 21.6 88.0893 21.4234 88.2305 21.6176C88.3718 21.8118 88.3541 22.3062 88.1776 23.1008C88.0186 23.8954 87.6655 24.9637 87.1181 26.3056C86.5884 27.6299 85.838 29.1485 84.8668 30.8612C84.7255 30.9142 84.5578 30.923 84.3636 30.8877C84.1693 30.8524 84.0369 30.7464 83.9663 30.5699ZM88.6013 17.8301C88.566 17.7418 88.5484 17.5829 88.5484 17.3534C88.5484 17.1238 88.566 16.9826 88.6013 16.9296C89.0074 16.7883 89.3164 16.7707 89.5283 16.8766C89.7402 16.9826 89.8727 17.1415 89.9256 17.3534C89.9786 17.5476 89.9698 17.7595 89.8991 17.989C89.8462 18.2186 89.749 18.3952 89.6078 18.5188C89.4665 18.6247 89.2988 18.6424 89.1046 18.5717C88.928 18.4834 88.7602 18.2362 88.6013 17.8301Z" fill="#0078A3"/>
<path d="M90.1492 30.252C89.7784 30.0401 89.5135 29.7047 89.3546 29.2456C89.1957 28.7865 89.1074 28.2656 89.0897 27.6829C89.0721 27.1002 89.1074 26.491 89.1957 25.8554C89.284 25.2197 89.3899 24.6017 89.5135 24.0013C89.6371 23.401 89.7607 22.8625 89.8843 22.3857C90.0079 21.909 90.0962 21.5382 90.1492 21.2733C90.2375 21.2203 90.3257 21.2203 90.414 21.2733C90.52 21.3263 90.6171 21.4057 90.7054 21.5117C90.8113 21.6 90.8908 21.6882 90.9437 21.7765C91.0144 21.8472 91.0497 21.8825 91.0497 21.8825C91.1027 22.5005 91.1027 23.1097 91.0497 23.71C91.0144 24.2927 90.9614 24.8754 90.8908 25.4581C90.8378 26.0408 90.7848 26.6323 90.7319 27.2326C90.6965 27.833 90.6965 28.4422 90.7319 29.0602C90.8731 29.325 91.1645 29.3339 91.6059 29.0867C92.0473 28.8218 92.5859 28.4068 93.2215 27.8418C93.8572 27.2591 94.5458 26.5793 95.2875 25.8024C96.0467 25.0078 96.7883 24.2221 97.5123 23.4451C98.2539 22.6682 98.9513 21.9443 99.6047 21.2733C100.258 20.5847 100.805 20.0638 101.247 19.7106C101.706 19.3398 102.024 19.1897 102.2 19.2604C102.377 19.3133 102.35 19.6841 102.121 20.3728C101.697 20.7436 101.194 21.2998 100.611 22.0414C100.028 22.783 99.3928 23.5864 98.7041 24.4516C98.0155 25.2992 97.3004 26.1467 96.5588 26.9943C95.8172 27.8418 95.0667 28.5746 94.3075 29.1926C93.5659 29.7929 92.8419 30.2167 92.1356 30.4639C91.4293 30.6935 90.7672 30.6228 90.1492 30.252Z" fill="#0078A3"/>
<path d="M103.192 30.5699C102.662 30.3933 102.256 30.1284 101.974 29.7753C101.709 29.4045 101.532 28.9984 101.444 28.5569C101.356 28.1155 101.338 27.6564 101.391 27.1797C101.461 26.6853 101.567 26.2173 101.709 25.7759C102.238 25.2109 102.83 24.5664 103.483 23.8424C104.154 23.1008 104.861 22.3769 105.602 21.6706C106.344 20.9643 107.112 20.311 107.906 19.7106C108.719 19.0926 109.54 18.6247 110.37 18.3069C110.652 18.1833 110.873 18.1921 111.032 18.3334C111.208 18.457 111.332 18.66 111.403 18.9425C111.473 19.225 111.5 19.5517 111.482 19.9225C111.482 20.2933 111.456 20.6553 111.403 21.0084C111.35 21.3616 111.279 21.6794 111.191 21.9619C111.102 22.2444 111.014 22.4387 110.926 22.5446C110.714 22.7918 110.299 23.0832 109.681 23.4187C109.081 23.7541 108.41 24.1249 107.668 24.5311C106.926 24.9195 106.185 25.3256 105.443 25.7494C104.702 26.1732 104.092 26.597 103.616 27.0207C103.139 27.4269 102.856 27.833 102.768 28.2391C102.68 28.6452 102.927 29.016 103.51 29.3515C104.11 29.4221 104.834 29.3957 105.682 29.2721C106.547 29.1308 107.421 28.9542 108.304 28.7423C109.204 28.5128 110.069 28.2832 110.899 28.0537C111.729 27.8065 112.409 27.6123 112.939 27.471L113.257 27.7624C112.868 28.2744 112.232 28.7423 111.35 29.1661C110.467 29.5899 109.513 29.943 108.489 30.2255C107.465 30.4904 106.467 30.667 105.496 30.7553C104.525 30.8259 103.757 30.7641 103.192 30.5699ZM109.522 20.4522C109.504 20.4346 109.372 20.514 109.125 20.6906C108.878 20.8495 108.569 21.0702 108.198 21.3528C107.845 21.6176 107.456 21.9178 107.032 22.2533C106.626 22.5711 106.247 22.8713 105.893 23.1538C105.558 23.4363 105.275 23.6835 105.046 23.8954C104.816 24.0896 104.719 24.1867 104.755 24.1867C105.037 24.2397 105.399 24.2044 105.841 24.0808C106.3 23.9395 106.768 23.7453 107.244 23.4981C107.739 23.2509 108.207 22.9772 108.648 22.677C109.089 22.3592 109.434 22.0502 109.681 21.75C109.946 21.4499 110.078 21.185 110.078 20.9555C110.096 20.7259 109.911 20.5582 109.522 20.4522Z" fill="#0078A3"/>
<path d="M112.753 30.5699C113.477 28.2391 114.131 26.3939 114.713 25.0343C115.314 23.657 115.808 22.6947 116.197 22.1473C116.603 21.6 116.876 21.4234 117.018 21.6176C117.159 21.8118 117.141 22.3062 116.965 23.1008C116.806 23.8954 116.453 24.9637 115.905 26.3056C115.375 27.6299 114.625 29.1485 113.654 30.8612C113.513 30.9142 113.345 30.923 113.151 30.8877C112.956 30.8524 112.824 30.7464 112.753 30.5699ZM117.388 17.8301C117.353 17.7418 117.335 17.5829 117.335 17.3534C117.335 17.1238 117.353 16.9826 117.388 16.9296C117.795 16.7883 118.104 16.7707 118.315 16.8766C118.527 16.9826 118.66 17.1415 118.713 17.3534C118.766 17.5476 118.757 17.7595 118.686 17.989C118.633 18.2186 118.536 18.3952 118.395 18.5188C118.254 18.6247 118.086 18.6424 117.892 18.5717C117.715 18.4834 117.547 18.2362 117.388 17.8301Z" fill="#0078A3"/>
<path d="M118.195 30.5699C118.159 30.5522 118.159 30.3492 118.195 29.9607C118.248 29.5546 118.318 29.0513 118.407 28.451C118.495 27.8506 118.61 27.1885 118.751 26.4645C118.892 25.7406 119.042 25.052 119.201 24.3986C119.36 23.7277 119.528 23.145 119.704 22.6506C119.899 22.1385 120.084 21.7854 120.261 21.5911C120.384 21.4675 120.508 21.4675 120.631 21.5911C120.755 21.6971 120.879 21.8383 121.002 22.0149C121.126 22.1738 121.249 22.3239 121.373 22.4652C121.497 22.5888 121.629 22.5976 121.77 22.4916C122.265 21.803 122.803 21.1497 123.386 20.5317C123.986 19.896 124.648 19.3486 125.372 18.8896C125.443 18.8366 125.637 18.7571 125.955 18.6512C126.273 18.5276 126.635 18.4128 127.041 18.3069C127.447 18.1833 127.862 18.0861 128.286 18.0155C128.727 17.9272 129.098 17.8919 129.398 17.9096C129.716 17.9096 129.928 17.989 130.034 18.1479C130.157 18.2892 130.104 18.5364 129.875 18.8896C128.815 18.9072 127.827 19.2162 126.909 19.8166C125.99 20.4169 125.143 21.1585 124.366 22.0414C123.589 22.9243 122.883 23.8866 122.247 24.9284C121.611 25.9525 121.055 26.906 120.578 27.7888C120.119 28.6717 119.731 29.4045 119.413 29.9872C119.113 30.5699 118.892 30.8612 118.751 30.8612C118.733 30.8612 118.654 30.8259 118.512 30.7553C118.371 30.667 118.265 30.6052 118.195 30.5699Z" fill="#0078A3"/>
<path d="M127.469 30.252C127.045 29.8989 126.807 29.378 126.754 28.6894C126.719 28.0007 126.816 27.2238 127.045 26.3586C127.292 25.4934 127.646 24.5929 128.105 23.657C128.581 22.7035 129.129 21.803 129.747 20.9555C130.365 20.0903 131.036 19.3222 131.76 18.6512C132.484 17.9625 133.208 17.4593 133.932 17.1415C134.655 16.806 135.362 16.6912 136.05 16.7972C136.739 16.8855 137.366 17.2827 137.931 17.989C138.284 18.4305 138.496 18.8807 138.567 19.3398C138.637 19.7812 138.628 20.2403 138.54 20.7171C138.452 21.1762 138.311 21.6529 138.116 22.1473C137.922 22.6241 137.728 23.1097 137.534 23.6041C137.357 24.0985 137.207 24.6017 137.083 25.1138C136.977 25.6258 136.96 26.1467 137.03 26.6764C137.119 27.3474 137.419 27.7447 137.931 27.8683C138.443 27.9919 139.052 27.9566 139.758 27.7624C140.482 27.5681 141.242 27.2591 142.036 26.8353C142.831 26.4116 143.564 25.9878 144.235 25.564C144.923 25.1402 145.488 24.7694 145.93 24.4516C146.389 24.1338 146.618 23.9749 146.618 23.9749C147.113 23.8689 147.386 23.9042 147.439 24.0808C147.51 24.2397 147.413 24.4869 147.148 24.8224C146.901 25.1402 146.521 25.511 146.009 25.9348C145.497 26.3409 144.914 26.7382 144.261 27.1267C143.608 27.5152 142.91 27.8683 142.169 28.1861C141.427 28.504 140.703 28.7247 139.997 28.8483C139.291 28.9542 138.62 28.9454 137.984 28.8218C137.366 28.6805 136.854 28.3627 136.448 27.8683C136.253 27.6564 136.103 27.4445 135.997 27.2326C135.909 27.0207 135.759 26.8353 135.547 26.6764C135.282 26.9236 134.964 27.2503 134.594 27.6564C134.223 28.0449 133.817 28.4422 133.375 28.8483C132.952 29.2367 132.492 29.6075 131.998 29.9607C131.521 30.3138 131.027 30.5787 130.515 30.7553C130.003 30.9318 129.482 30.9936 128.952 30.9407C128.44 30.8877 127.946 30.6582 127.469 30.252ZM127.76 29.3515C127.919 29.9165 128.272 30.1814 128.82 30.1461C129.367 30.0931 130.003 29.8194 130.727 29.325C131.451 28.8306 132.201 28.1596 132.978 27.3121C133.755 26.4469 134.452 25.4934 135.07 24.4516C135.688 23.3922 136.156 22.2798 136.474 21.1144C136.81 19.949 136.898 18.8013 136.739 17.6712C136.315 17.3357 135.786 17.3269 135.15 17.6447C134.514 17.9449 133.834 18.4481 133.11 19.1544C132.404 19.8431 131.698 20.6729 130.992 21.6441C130.303 22.5976 129.694 23.5687 129.164 24.5576C128.634 25.5287 128.228 26.4469 127.946 27.3121C127.681 28.1773 127.619 28.8571 127.76 29.3515Z" fill="#0078A3"/>
<path d="M23.7693 46.7784H24.8147C24.8772 47.1006 25.1467 47.2617 25.6234 47.2617C26.11 47.2617 26.3532 47.145 26.3532 46.9115C26.3532 46.8294 26.3171 46.7636 26.2448 46.7143C26.1724 46.6617 26.0541 46.6239 25.8897 46.6009L25.2585 46.5072C24.772 46.4316 24.4169 46.305 24.1934 46.1275C23.9731 45.95 23.863 45.7067 23.863 45.3977C23.863 45.0558 24.0175 44.7895 24.3265 44.5988C24.6388 44.4081 25.0678 44.3128 25.6136 44.3128C26.6228 44.3128 27.1883 44.6662 27.3099 45.373L26.299 45.4716C26.2464 45.327 26.1642 45.2234 26.0524 45.161C25.9407 45.0952 25.7829 45.0623 25.579 45.0623C25.3621 45.0623 25.1944 45.0886 25.0761 45.1412C24.961 45.1938 24.9035 45.2695 24.9035 45.3681C24.9035 45.4503 24.9347 45.5127 24.9972 45.5555C25.0596 45.5982 25.1747 45.6327 25.3423 45.659L26.1116 45.7823C26.5686 45.8546 26.899 45.9779 27.1028 46.1521C27.3066 46.3231 27.4085 46.5647 27.4085 46.877C27.4085 47.2518 27.2573 47.5345 26.9548 47.7252C26.6524 47.9159 26.2069 48.0112 25.6185 48.0112C24.4613 48.0112 23.8449 47.6003 23.7693 46.7784Z" fill="#0078A3"/>
<path d="M31.3921 48.0112C30.9581 48.0112 30.585 47.9372 30.2727 47.7893C29.9604 47.6414 29.7188 47.4293 29.5478 47.1532C29.3802 46.877 29.2963 46.5466 29.2963 46.162C29.2963 45.7774 29.3818 45.447 29.5527 45.1708C29.7237 44.8947 29.967 44.6826 30.2826 44.5347C30.5982 44.3868 30.9746 44.3128 31.4118 44.3128C31.8458 44.3128 32.2189 44.3868 32.5312 44.5347C32.8435 44.6826 33.0835 44.8947 33.2511 45.1708C33.4221 45.447 33.5076 45.7774 33.5076 46.162C33.5076 46.5466 33.4221 46.877 33.2511 47.1532C33.0802 47.4293 32.8369 47.6414 32.5213 47.7893C32.2057 47.9372 31.8293 48.0112 31.3921 48.0112ZM32.403 46.162C32.403 45.8464 32.3142 45.6031 32.1367 45.4322C31.9625 45.2579 31.7175 45.1708 31.4019 45.1708C31.0863 45.1708 30.8398 45.2579 30.6623 45.4322C30.488 45.6064 30.4009 45.8497 30.4009 46.162C30.4009 46.4776 30.488 46.7225 30.6623 46.8968C30.8398 47.0677 31.0863 47.1532 31.4019 47.1532C31.7175 47.1532 31.9625 47.0661 32.1367 46.8918C32.3142 46.7176 32.403 46.4743 32.403 46.162Z" fill="#0078A3"/>
<path d="M35.6287 44.4016H36.6939V47.0595H38.6959L38.5874 47.9224H35.6287V44.4016Z" fill="#0078A3"/>
<path d="M41.6492 46.4628C41.6492 46.6995 41.7084 46.8737 41.8267 46.9855C41.9483 47.0973 42.139 47.1532 42.3987 47.1532C42.6617 47.1532 42.8524 47.0973 42.9707 46.9855C43.0924 46.8737 43.1532 46.6995 43.1532 46.4628V44.4016H44.2183V46.379C44.2183 46.9576 44.0622 47.3751 43.7499 47.6315C43.4376 47.8846 42.9872 48.0112 42.3987 48.0112C41.8136 48.0112 41.3648 47.8846 41.0525 47.6315C40.7402 47.3751 40.584 46.9576 40.584 46.379V44.4016H41.6492V46.4628Z" fill="#0078A3"/>
<path d="M50.1743 45.5653L49.124 45.6787C49.0615 45.4979 48.9678 45.3681 48.8429 45.2892C48.718 45.2103 48.5487 45.1708 48.335 45.1708C48.0424 45.1708 47.8139 45.2563 47.6495 45.4273C47.4852 45.5949 47.403 45.8398 47.403 46.162C47.403 46.4842 47.4852 46.7307 47.6495 46.9017C47.8172 47.0693 48.0522 47.1532 48.3547 47.1532C48.8215 47.1532 49.096 46.9724 49.1782 46.6107H50.2433C50.2006 47.0546 50.0099 47.3997 49.6713 47.6463C49.336 47.8896 48.8889 48.0112 48.33 48.0112C47.8829 48.0112 47.5082 47.9323 47.2057 47.7745C46.9066 47.6167 46.6797 47.3997 46.5252 47.1236C46.374 46.8442 46.2984 46.5236 46.2984 46.162C46.2984 45.8102 46.374 45.4946 46.5252 45.2152C46.6797 44.9358 46.9082 44.7155 47.2107 44.5544C47.5131 44.3933 47.8895 44.3128 48.3399 44.3128C49.3557 44.3128 49.9672 44.7303 50.1743 45.5653ZM48.0736 47.814L48.5421 47.9224L48.4484 48.1394C48.6555 48.1624 48.8084 48.2117 48.907 48.2874C49.0056 48.3663 49.0549 48.4682 49.0549 48.5931C49.0549 48.7377 48.9826 48.8512 48.838 48.9333C48.6933 49.0155 48.4895 49.0566 48.2265 49.0566C47.9865 49.0566 47.7975 49.0336 47.6594 48.9876V48.5882C47.7416 48.6013 47.8139 48.6112 47.8764 48.6177C47.9421 48.6276 48.0046 48.6325 48.0638 48.6325C48.169 48.6325 48.2446 48.6227 48.2906 48.6029C48.3399 48.5865 48.3646 48.5602 48.3646 48.524C48.3646 48.478 48.335 48.4468 48.2758 48.4304C48.2199 48.4139 48.1229 48.4057 47.9849 48.4057H47.8123L48.0736 47.814Z" fill="#0078A3"/>
<path d="M54.2076 48.0112C53.7736 48.0112 53.4005 47.9372 53.0882 47.7893C52.7759 47.6414 52.5343 47.4293 52.3633 47.1532C52.1956 46.877 52.1118 46.5466 52.1118 46.162C52.1118 45.7774 52.1973 45.447 52.3682 45.1708C52.5392 44.8947 52.7825 44.6826 53.0981 44.5347C53.4137 44.3868 53.7901 44.3128 54.2273 44.3128C54.6612 44.3128 55.0344 44.3868 55.3467 44.5347C55.659 44.6826 55.899 44.8947 56.0666 45.1708C56.2376 45.447 56.3231 45.7774 56.3231 46.162C56.3231 46.5466 56.2376 46.877 56.0666 47.1532C55.8957 47.4293 55.6524 47.6414 55.3368 47.7893C55.0212 47.9372 54.6448 48.0112 54.2076 48.0112ZM55.2185 46.162C55.2185 45.8464 55.1297 45.6031 54.9522 45.4322C54.778 45.2579 54.533 45.1708 54.2174 45.1708C53.9018 45.1708 53.6553 45.2579 53.4778 45.4322C53.3035 45.6064 53.2164 45.8497 53.2164 46.162C53.2164 46.4776 53.3035 46.7225 53.4778 46.8968C53.6553 47.0677 53.9018 47.1532 54.2174 47.1532C54.533 47.1532 54.778 47.0661 54.9522 46.8918C55.1297 46.7176 55.2185 46.4743 55.2185 46.162ZM53.103 44.1106C53.103 43.818 53.1572 43.6076 53.2657 43.4794C53.3742 43.3512 53.5369 43.2871 53.7539 43.2871C53.9117 43.2871 54.0991 43.3414 54.3161 43.4498C54.4015 43.4926 54.4673 43.5222 54.5133 43.5386C54.5593 43.555 54.6004 43.5633 54.6366 43.5633C54.6991 43.5633 54.7401 43.5435 54.7599 43.5041C54.7796 43.4613 54.7895 43.394 54.7895 43.3019H55.3763C55.3763 43.5846 55.322 43.7934 55.2135 43.9282C55.1051 44.0597 54.9423 44.1254 54.7254 44.1254C54.5708 44.1254 54.3884 44.0728 54.178 43.9676C54.0169 43.8887 53.9051 43.8493 53.8427 43.8493C53.7835 43.8493 53.7424 43.8723 53.7194 43.9183C53.6997 43.961 53.6898 44.0251 53.6898 44.1106H53.103Z" fill="#0078A3"/>
<path d="M58.4442 44.4016H61.5262V45.1758H59.4847V45.7478H61.4276V46.522H59.4847V47.1482H61.6446L61.5459 47.9224H58.4442V44.4016Z" fill="#0078A3"/>
<path d="M63.4616 46.7784H64.5071C64.5695 47.1006 64.8391 47.2617 65.3158 47.2617C65.8023 47.2617 66.0456 47.145 66.0456 46.9115C66.0456 46.8294 66.0094 46.7636 65.9371 46.7143C65.8648 46.6617 65.7464 46.6239 65.5821 46.6009L64.9509 46.5072C64.4643 46.4316 64.1093 46.305 63.8857 46.1275C63.6655 45.95 63.5553 45.7067 63.5553 45.3977C63.5553 45.0558 63.7098 44.7895 64.0189 44.5988C64.3312 44.4081 64.7602 44.3128 65.3059 44.3128C66.3152 44.3128 66.8806 44.6662 67.0022 45.373L65.9913 45.4716C65.9387 45.327 65.8566 45.2234 65.7448 45.161C65.633 45.0952 65.4752 45.0623 65.2714 45.0623C65.0544 45.0623 64.8868 45.0886 64.7684 45.1412C64.6533 45.1938 64.5958 45.2695 64.5958 45.3681C64.5958 45.4503 64.627 45.5127 64.6895 45.5555C64.752 45.5982 64.867 45.6327 65.0347 45.659L65.804 45.7823C66.2609 45.8546 66.5913 45.9779 66.7951 46.1521C66.999 46.3231 67.1009 46.5647 67.1009 46.877C67.1009 47.2518 66.9496 47.5345 66.6472 47.7252C66.3447 47.9159 65.8993 48.0112 65.3108 48.0112C64.1537 48.0112 63.5373 47.6003 63.4616 46.7784Z" fill="#0078A3"/>
<path d="M71.9646 44.4016H75.0466V45.1758H73.0051V45.7478H74.948V46.522H73.0051V47.1482H75.1649L75.0663 47.9224H71.9646V44.4016Z" fill="#0078A3"/>
<path d="M77.2483 44.4016H78.915C79.6251 44.4016 80.161 44.5511 80.5226 44.8503C80.8842 45.1462 81.065 45.5834 81.065 46.162C81.065 46.7209 80.876 47.1548 80.4979 47.4638C80.1199 47.7696 79.5775 47.9224 78.8706 47.9224H77.2483V44.4016ZM78.8953 47.0792C79.6218 47.0792 79.9851 46.7718 79.9851 46.1571C79.9851 45.5489 79.635 45.2448 78.9348 45.2448H78.2986V47.0792H78.8953Z" fill="#0078A3"/>
<path d="M84.2174 46.4628C84.2174 46.6995 84.2766 46.8737 84.3949 46.9855C84.5166 47.0973 84.7073 47.1532 84.967 47.1532C85.23 47.1532 85.4206 47.0973 85.539 46.9855C85.6606 46.8737 85.7214 46.6995 85.7214 46.4628V44.4016H86.7866V46.379C86.7866 46.9576 86.6304 47.3751 86.3181 47.6315C86.0058 47.8846 85.5554 48.0112 84.967 48.0112C84.3818 48.0112 83.9331 47.8846 83.6208 47.6315C83.3084 47.3751 83.1523 46.9576 83.1523 46.379V44.4016H84.2174V46.4628Z" fill="#0078A3"/>
<path d="M92.7426 45.5653L91.6922 45.6787C91.6297 45.4979 91.536 45.3681 91.4111 45.2892C91.2862 45.2103 91.1169 45.1708 90.9032 45.1708C90.6106 45.1708 90.3821 45.2563 90.2178 45.4273C90.0534 45.5949 89.9712 45.8398 89.9712 46.162C89.9712 46.4842 90.0534 46.7307 90.2178 46.9017C90.3854 47.0693 90.6205 47.1532 90.9229 47.1532C91.3898 47.1532 91.6643 46.9724 91.7465 46.6107H92.8116C92.7689 47.0546 92.5782 47.3997 92.2396 47.6463C91.9043 47.8896 91.4572 48.0112 90.8983 48.0112C90.4512 48.0112 90.0764 47.9323 89.774 47.7745C89.4748 47.6167 89.248 47.3997 89.0935 47.1236C88.9422 46.8442 88.8666 46.5236 88.8666 46.162C88.8666 45.8102 88.9422 45.4946 89.0935 45.2152C89.248 44.9358 89.4765 44.7155 89.7789 44.5544C90.0814 44.3933 90.4578 44.3128 90.9081 44.3128C91.924 44.3128 92.5354 44.7303 92.7426 45.5653Z" fill="#0078A3"/>
<path d="M95.8912 44.4016H97.1339L98.6625 47.9224H97.558L97.2966 47.2814H95.689L95.4425 47.9224H94.3625L95.8912 44.4016ZM97.0007 46.4924L96.4977 45.2053L95.9948 46.4924H97.0007Z" fill="#0078A3"/>
<path d="M104.09 45.5653L103.04 45.6787C102.977 45.4979 102.884 45.3681 102.759 45.2892C102.634 45.2103 102.464 45.1708 102.251 45.1708C101.958 45.1708 101.73 45.2563 101.565 45.4273C101.401 45.5949 101.319 45.8398 101.319 46.162C101.319 46.4842 101.401 46.7307 101.565 46.9017C101.733 47.0693 101.968 47.1532 102.27 47.1532C102.737 47.1532 103.012 46.9724 103.094 46.6107H104.159C104.116 47.0546 103.926 47.3997 103.587 47.6463C103.252 47.8896 102.805 48.0112 102.246 48.0112C101.799 48.0112 101.424 47.9323 101.122 47.7745C100.822 47.6167 100.596 47.3997 100.441 47.1236C100.29 46.8442 100.214 46.5236 100.214 46.162C100.214 45.8102 100.29 45.4946 100.441 45.2152C100.596 44.9358 100.824 44.7155 101.126 44.5544C101.429 44.3933 101.805 44.3128 102.256 44.3128C103.272 44.3128 103.883 44.7303 104.09 45.5653Z" fill="#0078A3"/>
<path d="M106.185 44.4016H107.251V47.9224H106.185V44.4016Z" fill="#0078A3"/>
<path d="M111.466 48.0112C111.032 48.0112 110.659 47.9372 110.347 47.7893C110.035 47.6414 109.793 47.4293 109.622 47.1532C109.454 46.877 109.371 46.5466 109.371 46.162C109.371 45.7774 109.456 45.447 109.627 45.1708C109.798 44.8947 110.041 44.6826 110.357 44.5347C110.672 44.3868 111.049 44.3128 111.486 44.3128C111.92 44.3128 112.293 44.3868 112.605 44.5347C112.918 44.6826 113.158 44.8947 113.325 45.1708C113.496 45.447 113.582 45.7774 113.582 46.162C113.582 46.5466 113.496 46.877 113.325 47.1532C113.154 47.4293 112.911 47.6414 112.596 47.7893C112.28 47.9372 111.904 48.0112 111.466 48.0112ZM112.477 46.162C112.477 45.8464 112.389 45.6031 112.211 45.4322C112.037 45.2579 111.792 45.1708 111.476 45.1708C111.161 45.1708 110.914 45.2579 110.737 45.4322C110.562 45.6064 110.475 45.8497 110.475 46.162C110.475 46.4776 110.562 46.7225 110.737 46.8968C110.914 47.0677 111.161 47.1532 111.476 47.1532C111.792 47.1532 112.037 47.0661 112.211 46.8918C112.389 46.7176 112.477 46.4743 112.477 46.162Z" fill="#0078A3"/>
<path d="M115.703 44.4016H116.65L118.41 46.517V44.4016H119.416V47.9224H118.469L116.709 45.807V47.9224H115.703V44.4016Z" fill="#0078A3"/>
<path d="M122.873 44.4016H124.116L125.645 47.9224H124.54L124.279 47.2814H122.671L122.424 47.9224H121.345L122.873 44.4016ZM123.983 46.4924L123.48 45.2053L122.977 46.4924H123.983Z" fill="#0078A3"/>
<path d="M127.571 44.4016H128.636V47.9224H127.571V44.4016Z" fill="#0078A3"/>
<path d="M130.647 46.7784H131.693C131.755 47.1006 132.025 47.2617 132.502 47.2617C132.988 47.2617 133.231 47.145 133.231 46.9115C133.231 46.8294 133.195 46.7636 133.123 46.7143C133.051 46.6617 132.932 46.6239 132.768 46.6009L132.137 46.5072C131.65 46.4316 131.295 46.305 131.071 46.1275C130.851 45.95 130.741 45.7067 130.741 45.3977C130.741 45.0558 130.896 44.7895 131.205 44.5988C131.517 44.4081 131.946 44.3128 132.492 44.3128C133.501 44.3128 134.066 44.6662 134.188 45.373L133.177 45.4716C133.124 45.327 133.042 45.2234 132.931 45.161C132.819 45.0952 132.661 45.0623 132.457 45.0623C132.24 45.0623 132.072 45.0886 131.954 45.1412C131.839 45.1938 131.782 45.2695 131.782 45.3681C131.782 45.4503 131.813 45.5127 131.875 45.5555C131.938 45.5982 132.053 45.6327 132.22 45.659L132.99 45.7823C133.447 45.8546 133.777 45.9779 133.981 46.1521C134.185 46.3231 134.287 46.5647 134.287 46.877C134.287 47.2518 134.135 47.5345 133.833 47.7252C133.53 47.9159 133.085 48.0112 132.497 48.0112C131.339 48.0112 130.723 47.6003 130.647 46.7784Z" fill="#0078A3"/>
<path d="M41.2274 50.5656H44.3094V51.3398H42.2679V51.9118H44.2108V52.686H42.2679V53.3122H44.4277L44.3291 54.0864H41.2274V50.5656Z" fill="#0078A3"/>
<path d="M49.3292 50.5656H51.0798C52.135 50.5656 52.6627 50.9716 52.6627 51.7836C52.6627 52.2011 52.5263 52.5101 52.2534 52.7106C51.9838 52.9079 51.5729 53.0065 51.0206 53.0065H50.3598V54.0864H49.3292V50.5656ZM51.0009 52.2175C51.2146 52.2175 51.3724 52.1846 51.4743 52.1189C51.5762 52.0531 51.6271 51.9397 51.6271 51.7786C51.6271 51.6274 51.5778 51.5189 51.4792 51.4532C51.3806 51.3874 51.2244 51.3546 51.0107 51.3546H50.3598V52.2175H51.0009Z" fill="#0078A3"/>
<path d="M55.4399 50.5656H56.6826L58.2113 54.0864H57.1067L56.8453 53.4454H55.2377L54.9912 54.0864H53.9112L55.4399 50.5656ZM56.5494 52.6564L56.0465 51.3694L55.5435 52.6564H56.5494Z" fill="#0078A3"/>
<path d="M60.1374 50.5656H61.9471C63.0024 50.5656 63.5301 50.9551 63.5301 51.7343C63.5301 51.9841 63.4775 52.1879 63.3723 52.3457C63.2671 52.5002 63.1125 52.6235 62.9087 52.7156L63.7717 54.0864H62.6326L61.9373 52.9178H61.1335V54.0864H60.1374V50.5656ZM61.883 52.1583C62.1 52.1583 62.2578 52.1271 62.3564 52.0647C62.4583 51.9989 62.5093 51.8904 62.5093 51.7392C62.5093 51.588 62.4616 51.4811 62.3663 51.4187C62.271 51.3562 62.1132 51.325 61.8929 51.325H61.1335V52.1583H61.883Z" fill="#0078A3"/>
<path d="M66.9175 50.5656H68.1602L69.6888 54.0864H68.5842L68.3229 53.4454H66.7153L66.4687 54.0864H65.3888L66.9175 50.5656ZM68.027 52.6564L67.524 51.3694L67.021 52.6564H68.027Z" fill="#0078A3"/>
<path d="M75.6116 50.5656H76.8543L78.383 54.0864H77.2784L77.017 53.4454H75.4094L75.1629 54.0864H74.083L75.6116 50.5656ZM76.7211 52.6564L76.2182 51.3694L75.7152 52.6564H76.7211Z" fill="#0078A3"/>
<path d="M83.1272 50.5656H86.2092V51.3398H84.1677V51.9118H86.1106V52.686H84.1677V53.3122H86.3276L86.2289 54.0864H83.1272V50.5656Z" fill="#0078A3"/>
<path d="M88.1446 52.9424H89.19C89.2525 53.2646 89.5221 53.4257 89.9988 53.4257C90.4853 53.4257 90.7286 53.309 90.7286 53.0756C90.7286 52.9934 90.6924 52.9276 90.6201 52.8783C90.5478 52.8257 90.4294 52.7879 90.265 52.7649L89.6339 52.6712C89.1473 52.5956 88.7923 52.469 88.5687 52.2915C88.3484 52.114 88.2383 51.8707 88.2383 51.5617C88.2383 51.2198 88.3928 50.9535 88.7019 50.7628C89.0142 50.5721 89.4432 50.4768 89.9889 50.4768C90.9982 50.4768 91.5636 50.8302 91.6852 51.537L90.6743 51.6356C90.6217 51.491 90.5396 51.3874 90.4278 51.325C90.316 51.2592 90.1582 51.2263 89.9544 51.2263C89.7374 51.2263 89.5697 51.2526 89.4514 51.3052C89.3363 51.3578 89.2788 51.4335 89.2788 51.5321C89.2788 51.6143 89.31 51.6767 89.3725 51.7195C89.435 51.7622 89.55 51.7967 89.7177 51.823L90.487 51.9463C90.9439 52.0186 91.2743 52.1419 91.4781 52.3161C91.6819 52.4871 91.7839 52.7287 91.7839 53.041C91.7839 53.4158 91.6326 53.6985 91.3302 53.8892C91.0277 54.0799 90.5823 54.1752 89.9938 54.1752C88.8366 54.1752 88.2202 53.7643 88.1446 52.9424Z" fill="#0078A3"/>
<path d="M97.5476 51.7293L96.4972 51.8428C96.4348 51.6619 96.3411 51.5321 96.2162 51.4532C96.0912 51.3743 95.9219 51.3348 95.7083 51.3348C95.4157 51.3348 95.1872 51.4203 95.0228 51.5913C94.8584 51.7589 94.7763 52.0038 94.7763 52.326C94.7763 52.6482 94.8584 52.8947 95.0228 53.0657C95.1905 53.2334 95.4255 53.3172 95.728 53.3172C96.1948 53.3172 96.4693 53.1364 96.5515 52.7747H97.6166C97.5739 53.2186 97.3832 53.5637 97.0446 53.8103C96.7093 54.0536 96.2622 54.1752 95.7033 54.1752C95.2562 54.1752 94.8815 54.0963 94.579 53.9385C94.2798 53.7807 94.053 53.5637 93.8985 53.2876C93.7473 53.0082 93.6717 52.6876 93.6717 52.326C93.6717 51.9742 93.7473 51.6587 93.8985 51.3792C94.053 51.0998 94.2815 50.8795 94.5839 50.7184C94.8864 50.5573 95.2628 50.4768 95.7132 50.4768C96.729 50.4768 97.3405 50.8943 97.5476 51.7293Z" fill="#0078A3"/>
<path d="M99.6429 50.5656H101.453C102.508 50.5656 103.036 50.9551 103.036 51.7343C103.036 51.9841 102.983 52.1879 102.878 52.3457C102.773 52.5002 102.618 52.6235 102.414 52.7156L103.277 54.0864H102.138L101.443 52.9178H100.639V54.0864H99.6429V50.5656ZM101.389 52.1583C101.606 52.1583 101.763 52.1271 101.862 52.0647C101.964 51.9989 102.015 51.8904 102.015 51.7392C102.015 51.588 101.967 51.4811 101.872 51.4187C101.776 51.3562 101.619 51.325 101.398 51.325H100.639V52.1583H101.389Z" fill="#0078A3"/>
<path d="M105.201 50.5656H106.266V54.0864H105.201V50.5656Z" fill="#0078A3"/>
<path d="M109.506 51.4285H108.204V50.5656H111.873V51.4285H110.571V54.0864H109.506V51.4285Z" fill="#0078A3"/>
<path d="M114.443 50.5656H115.686L117.214 54.0864H116.11L115.848 53.4454H114.241L113.994 54.0864H112.914L114.443 50.5656ZM115.552 52.6564L115.049 51.3694L114.546 52.6564H115.552Z" fill="#0078A3"/>
</svg>
