<svg width="158" height="61" viewBox="0 0 158 61" fill="none" xmlns="http://www.w3.org/2000/svg">
<path d="M13.3668 30.1803C12.2902 29.7567 11.5489 29.1831 11.143 28.4594C10.737 27.7358 10.5694 26.9328 10.64 26.0503C10.7282 25.1502 11.0106 24.1971 11.4871 23.1911C11.9813 22.1674 12.5814 21.1437 13.2874 20.1201C14.011 19.0964 14.8052 18.0992 15.6701 17.1285C16.5349 16.1577 17.3909 15.2664 18.2381 14.4546C19.0852 13.6427 19.8795 12.9367 20.6207 12.3366C21.362 11.7365 21.9621 11.2953 22.421 11.0129C23.0564 10.6246 23.5859 10.4393 24.0094 10.457C24.433 10.457 24.7684 10.5893 25.0155 10.8541C25.2802 11.1012 25.4567 11.4542 25.5449 11.913C25.6508 12.3543 25.695 12.8308 25.6773 13.3427C25.6773 13.8368 25.6244 14.3398 25.5185 14.8517C25.4302 15.3459 25.3067 15.7783 25.1478 16.1489C25.0066 16.5196 24.8478 16.7931 24.6713 16.9696C24.5124 17.1461 24.3536 17.1549 24.1948 16.9961C24.1771 16.8549 24.1948 16.6431 24.2477 16.3607C24.3007 16.0607 24.3624 15.7253 24.433 15.3547C24.5213 14.9841 24.6007 14.6046 24.6713 14.2163C24.7419 13.828 24.786 13.475 24.8037 13.1573C24.839 12.822 24.8301 12.5396 24.7772 12.3102C24.7419 12.0807 24.6448 11.9483 24.486 11.913C23.8682 11.7542 23.127 11.9042 22.2621 12.3631C21.415 12.8043 20.5237 13.4485 19.5882 14.2957C18.6705 15.1252 17.7527 16.096 16.8349 17.2079C15.9348 18.3022 15.1141 19.4317 14.3728 20.5966C13.6315 21.7615 13.0226 22.8998 12.5461 24.0118C12.0696 25.106 11.796 26.0768 11.7254 26.9239C11.6725 27.7535 11.8578 28.3977 12.2814 28.8565C12.7226 29.2978 13.4903 29.439 14.5846 29.2801C15.5906 29.1389 16.5172 28.7859 17.3644 28.2212C18.2292 27.6387 19.0588 27.0033 19.853 26.315C20.6649 25.609 21.4679 24.9207 22.2621 24.25C23.0564 23.5617 23.8859 23.041 24.7507 22.6881C25.0684 22.5645 25.3155 22.6086 25.492 22.8204C25.6861 23.0322 25.7391 23.2881 25.6508 23.5882C25.5449 23.8882 25.2273 24.2853 24.6978 24.7795C24.1859 25.2737 23.5417 25.7944 22.7652 26.3415C22.0062 26.871 21.1679 27.4093 20.2501 27.9564C19.3323 28.4859 18.4322 28.9448 17.5497 29.3331C16.6849 29.7214 15.873 30.0038 15.1141 30.1803C14.3728 30.3568 13.7904 30.3568 13.3668 30.1803Z" fill="#FF9A2E"/>
<path d="M26.2979 30.1803C26.2626 30.1626 26.2626 29.9596 26.2979 29.5714C26.3508 29.1654 26.4214 28.6624 26.5097 28.0623C26.5979 27.4622 26.7126 26.8004 26.8538 26.0768C26.995 25.3531 27.145 24.6648 27.3039 24.0118C27.4627 23.3411 27.6304 22.7586 27.8069 22.2645C28.001 21.7526 28.1864 21.3996 28.3629 21.2055C28.4864 21.0819 28.61 21.0819 28.7335 21.2055C28.857 21.3114 28.9806 21.4526 29.1041 21.6291C29.2277 21.7879 29.3512 21.9379 29.4748 22.0791C29.5983 22.2027 29.7307 22.2115 29.8719 22.1056C30.3661 21.4173 30.9044 20.7643 31.4868 20.1465C32.0869 19.5111 32.7488 18.964 33.4724 18.5051C33.543 18.4522 33.7371 18.3728 34.0548 18.2669C34.3725 18.1433 34.7343 18.0286 35.1403 17.9227C35.5462 17.7991 35.961 17.7021 36.3846 17.6315C36.8258 17.5432 37.1964 17.5079 37.4965 17.5256C37.8142 17.5256 38.026 17.605 38.1318 17.7638C38.2554 17.905 38.2024 18.1521 37.973 18.5051C36.914 18.5228 35.9257 18.8316 35.0079 19.4317C34.0901 20.0318 33.2429 20.7731 32.4664 21.6556C31.6898 22.538 30.9838 23.4999 30.3484 24.5412C29.713 25.5649 29.1571 26.518 28.6806 27.4005C28.2217 28.2829 27.8334 29.0154 27.5157 29.5978C27.2156 30.1803 26.995 30.4715 26.8538 30.4715C26.8362 30.4715 26.7568 30.4362 26.6156 30.3656C26.4744 30.2773 26.3685 30.2156 26.2979 30.1803Z" fill="#FF9A2E"/>
<path d="M36.9257 30.1803C37.6493 27.8505 38.3023 26.0062 38.8848 24.6471C39.4849 23.2705 39.979 22.3086 40.3673 21.7615C40.7733 21.2143 41.0468 21.0378 41.188 21.232C41.3292 21.4261 41.3116 21.9203 41.1351 22.7145C40.9762 23.5088 40.6232 24.5765 40.0761 25.9179C39.5466 27.2416 38.7965 28.7595 37.8258 30.4715C37.6846 30.5244 37.5169 30.5332 37.3228 30.4979C37.1287 30.4626 36.9963 30.3568 36.9257 30.1803ZM41.5587 17.4462C41.5234 17.3579 41.5057 17.1991 41.5057 16.9696C41.5057 16.7402 41.5234 16.599 41.5587 16.546C41.9646 16.4048 42.2735 16.3872 42.4853 16.4931C42.6971 16.599 42.8294 16.7578 42.8824 16.9696C42.9353 17.1638 42.9265 17.3756 42.8559 17.605C42.803 17.8344 42.7059 18.0109 42.5647 18.1345C42.4235 18.2404 42.2558 18.258 42.0617 18.1874C41.8852 18.0992 41.7175 17.8521 41.5587 17.4462Z" fill="#FF9A2E"/>
<path d="M42.3645 30.1803C42.1528 30.0391 42.1439 29.8537 42.3381 29.6243C42.5499 29.3772 42.8764 29.1213 43.3176 28.8565C43.7765 28.5742 44.306 28.2829 44.9061 27.9829C45.5062 27.6829 46.0798 27.4005 46.6269 27.1357C47.1917 26.871 47.6859 26.6415 48.1095 26.4474C48.533 26.2356 48.8066 26.0768 48.9302 25.9709C49.5126 25.4767 49.8126 25.0707 49.8303 24.753C49.8656 24.4177 49.7244 24.153 49.4067 23.9588C49.089 23.747 48.6389 23.5882 48.0565 23.4823C47.4917 23.3587 46.9005 23.2528 46.2827 23.1646C45.6827 23.0587 45.1002 22.9528 44.5354 22.8469C43.9883 22.741 43.5735 22.5998 43.2911 22.4233C43.0088 22.2468 42.9117 22.0174 42.9999 21.735C43.1058 21.4349 43.4941 21.0555 44.1648 20.5966C44.4119 20.4201 44.7737 20.1642 45.2502 19.8288C45.7268 19.4935 46.2386 19.1493 46.7857 18.7963C47.3505 18.4434 47.9065 18.1257 48.4536 17.8433C49.0008 17.5609 49.4596 17.3756 49.8303 17.2873C50.0244 17.252 50.2186 17.2697 50.4127 17.3403C50.6245 17.4109 50.7922 17.5168 50.9157 17.6579C51.0393 17.7815 51.0922 17.9227 51.0746 18.0815C51.0746 18.2404 50.9598 18.3816 50.7304 18.5051C49.7244 19.0699 48.7537 19.5994 47.8182 20.0936C46.9005 20.5878 45.9739 21.1525 45.0384 21.7879C44.9855 21.9291 44.9943 22.0527 45.0649 22.1586C45.1532 22.2645 45.2502 22.3439 45.3561 22.3968C47.227 22.591 48.6301 22.8645 49.5655 23.2175C50.5186 23.5705 51.1187 23.9588 51.3658 24.3824C51.6305 24.806 51.6041 25.2561 51.2864 25.7326C50.9687 26.2091 50.4921 26.6768 49.8568 27.1357C49.239 27.5946 48.5242 28.027 47.7123 28.433C46.9005 28.8389 46.1151 29.1831 45.3561 29.4655C44.6149 29.7478 43.9618 29.9596 43.397 30.1008C42.8323 30.242 42.4881 30.2685 42.3645 30.1803Z" fill="#FF9A2E"/>
<path d="M65.3675 30.1803C64.485 29.8096 63.9026 29.2978 63.6202 28.6448C63.3378 27.9741 63.2407 27.2593 63.329 26.5003C63.4172 25.7238 63.629 24.9472 63.9643 24.1706C64.3173 23.394 64.6791 22.7057 65.0498 22.1056C65.1733 21.8938 65.4028 21.532 65.7381 21.0202C66.0735 20.5083 66.4264 19.97 66.7971 19.4052C67.1854 18.8228 67.5472 18.2845 67.8825 17.7903C68.2355 17.2785 68.4826 16.9255 68.6238 16.7314C68.8356 15.3723 69.2592 14.2957 69.8946 13.5015C70.5299 12.6896 71.2448 12.1337 72.039 11.8336C72.8509 11.5336 73.6804 11.4718 74.5276 11.6483C75.3747 11.8071 76.116 12.1866 76.7514 12.7867C77.3868 13.3691 77.8457 14.1545 78.1281 15.1429C78.4104 16.1313 78.384 17.2873 78.0486 18.611C77.7309 19.9347 77.0426 21.4173 75.9836 23.0587C74.9247 24.7001 73.3715 26.4739 71.3242 28.38C70.9712 28.7154 70.5476 29.0419 70.0534 29.3596C69.5769 29.6596 69.065 29.9067 68.5179 30.1008C67.9884 30.295 67.4501 30.4097 66.903 30.445C66.3558 30.4803 65.844 30.3921 65.3675 30.1803ZM64.4409 28.0888C64.6174 28.883 64.9527 29.3772 65.4469 29.5714C65.9411 29.7655 66.5235 29.7302 67.1942 29.4655C67.8649 29.2007 68.5973 28.7506 69.3916 28.1153C70.1858 27.4799 70.98 26.7386 71.7742 25.8914C72.5685 25.0266 73.3274 24.0912 74.051 23.0852C74.7747 22.0791 75.4012 21.0819 75.9307 20.0936C76.4778 19.1052 76.8926 18.161 77.175 17.2608C77.4574 16.3607 77.5456 15.5841 77.4397 14.9311C77.3515 14.2604 77.0338 13.7574 76.4866 13.4221C75.9572 13.0867 75.1365 12.9897 74.0245 13.1309C73.6186 13.4838 73.0803 14.0045 72.4096 14.6928C71.7389 15.3635 71.0241 16.1313 70.2652 16.9961C69.5063 17.8609 68.7473 18.7963 67.9884 19.8024C67.2295 20.7907 66.5588 21.7791 65.9764 22.7675C65.3939 23.7558 64.9527 24.7089 64.6527 25.6267C64.3526 26.5445 64.282 27.3652 64.4409 28.0888Z" fill="#FF9A2E"/>
<path d="M78.2604 30.1803C77.7486 29.8096 77.4132 29.3419 77.2544 28.7771C77.1132 28.2123 77.0956 27.6034 77.2015 26.9504C77.3074 26.2797 77.4927 25.5914 77.7574 24.8854C78.0398 24.1794 78.3398 23.4999 78.6575 22.8469C78.9929 22.1939 79.3106 21.5938 79.6106 21.0466C79.9283 20.4995 80.1754 20.0495 80.3519 19.6965C80.4048 19.5906 80.5284 19.3347 80.7225 18.9287C80.9343 18.5228 81.1549 18.0815 81.3844 17.605C81.6138 17.1285 81.8256 16.6872 82.0198 16.2813C82.2316 15.8577 82.3639 15.593 82.4169 15.4871C82.4698 15.3988 82.5404 15.2311 82.6287 14.9841C82.7346 14.7193 82.8493 14.4369 82.9728 14.1369C83.0964 13.8368 83.2287 13.5544 83.3699 13.2897C83.5288 13.0073 83.6876 12.8043 83.8465 12.6808C84.023 12.5572 84.1906 12.5396 84.3495 12.6278C84.526 12.7161 84.6936 12.9808 84.8525 13.4221C84.7819 13.5986 84.6054 13.9516 84.323 14.481C84.0583 15.0105 83.7406 15.6459 83.3699 16.3872C82.9993 17.1285 82.5845 17.9492 82.1257 18.8493C81.6844 19.7494 81.252 20.6584 80.8284 21.5761C80.4048 22.4939 80.0077 23.394 79.6371 24.2765C79.2664 25.1413 78.9576 25.9356 78.7105 26.6592C78.481 27.3652 78.3398 27.9564 78.2869 28.433C78.2516 28.8918 78.3398 29.1742 78.5516 29.2801C78.7987 29.4037 79.1164 29.4566 79.5047 29.439C79.9106 29.4037 80.3254 29.3507 80.749 29.2801C81.1726 29.2095 81.5873 29.1389 81.9933 29.0683C82.3992 28.9801 82.7522 28.9448 83.0523 28.9624C83.1228 29.1213 83.0699 29.2801 82.8934 29.439C82.7169 29.5802 82.4698 29.7125 82.1521 29.8361C81.8344 29.942 81.4638 30.0391 81.0402 30.1273C80.6343 30.1979 80.2372 30.2509 79.8489 30.2862C79.4782 30.3215 79.1429 30.3303 78.8428 30.3126C78.5605 30.295 78.3663 30.2509 78.2604 30.1803Z" fill="#FF9A2E"/>
<path d="M83.964 30.1803C84.6877 27.8505 85.3407 26.0062 85.9231 24.6471C86.5232 23.2705 87.0174 22.3086 87.4057 21.7615C87.8116 21.2143 88.0852 21.0378 88.2264 21.232C88.3676 21.4261 88.3499 21.9203 88.1734 22.7145C88.0146 23.5088 87.6616 24.5765 87.1145 25.9179C86.585 27.2416 85.8349 28.7595 84.8641 30.4715C84.723 30.5244 84.5553 30.5332 84.3611 30.4979C84.167 30.4626 84.0346 30.3568 83.964 30.1803ZM88.597 17.4462C88.5617 17.3579 88.5441 17.1991 88.5441 16.9696C88.5441 16.7402 88.5617 16.599 88.597 16.546C89.003 16.4048 89.3118 16.3872 89.5236 16.4931C89.7354 16.599 89.8678 16.7578 89.9207 16.9696C89.9737 17.1638 89.9648 17.3756 89.8942 17.605C89.8413 17.8344 89.7442 18.0109 89.603 18.1345C89.4618 18.2404 89.2942 18.258 89.1 18.1874C88.9235 18.0992 88.7559 17.8521 88.597 17.4462Z" fill="#FF9A2E"/>
<path d="M90.1442 29.8626C89.7735 29.6508 89.5088 29.3154 89.3499 28.8565C89.1911 28.3977 89.1028 27.877 89.0852 27.2946C89.0676 26.7121 89.1028 26.1032 89.1911 25.4678C89.2793 24.8325 89.3852 24.2147 89.5088 23.6146C89.6323 23.0146 89.7559 22.4763 89.8794 21.9997C90.003 21.5232 90.0912 21.1525 90.1442 20.8878C90.2324 20.8349 90.3207 20.8349 90.4089 20.8878C90.5148 20.9408 90.6119 21.0202 90.7001 21.1261C90.806 21.2143 90.8854 21.3026 90.9384 21.3908C91.009 21.4614 91.0443 21.4967 91.0443 21.4967C91.0972 22.1144 91.0972 22.7234 91.0443 23.3234C91.009 23.9059 90.956 24.4883 90.8854 25.0707C90.8325 25.6532 90.7795 26.2444 90.7266 26.8445C90.6913 27.4446 90.6913 28.0535 90.7266 28.6712C90.8678 28.936 91.159 28.9448 91.6003 28.6977C92.0415 28.433 92.5798 28.0182 93.2152 27.4534C93.8506 26.871 94.5389 26.1915 95.2802 25.4149C96.0391 24.6207 96.7804 23.8353 97.504 23.0587C98.2453 22.2821 98.9424 21.5585 99.5955 20.8878C100.248 20.1995 100.796 19.6788 101.237 19.3258C101.696 18.9552 102.013 18.8052 102.19 18.8758C102.366 18.9287 102.34 19.2994 102.111 19.9877C101.687 20.3583 101.184 20.9143 100.601 21.6556C100.019 22.3968 99.3837 23.1999 98.6953 24.0647C98.007 24.9119 97.2922 25.7591 96.5509 26.6062C95.8096 27.4534 95.0595 28.1859 94.3006 28.8036C93.5593 29.4037 92.8357 29.8273 92.1297 30.0744C91.4238 30.3038 90.7619 30.2332 90.1442 29.8626Z" fill="#FF9A2E"/>
<path d="M103.181 30.1803C102.652 30.0038 102.246 29.739 101.963 29.386C101.699 29.0154 101.522 28.6095 101.434 28.1682C101.346 27.727 101.328 27.2681 101.381 26.7916C101.451 26.2974 101.557 25.8297 101.699 25.3884C102.228 24.8236 102.819 24.1794 103.472 23.4558C104.143 22.7145 104.849 21.9909 105.59 21.2849C106.332 20.5789 107.099 19.9259 107.894 19.3258C108.705 18.7081 109.526 18.2404 110.356 17.9227C110.638 17.7991 110.859 17.808 111.018 17.9492C111.194 18.0727 111.318 18.2757 111.388 18.5581C111.459 18.8405 111.485 19.167 111.468 19.5376C111.468 19.9083 111.441 20.2701 111.388 20.6231C111.335 20.9761 111.265 21.2937 111.176 21.5761C111.088 21.8585 111 22.0527 110.912 22.1586C110.7 22.4057 110.285 22.6969 109.667 23.0322C109.067 23.3676 108.397 23.7382 107.655 24.1441C106.914 24.5324 106.173 24.9384 105.431 25.3619C104.69 25.7855 104.081 26.2091 103.605 26.6327C103.128 27.0386 102.846 27.4446 102.758 27.8505C102.669 28.2565 102.916 28.6271 103.499 28.9624C104.099 29.033 104.823 29.0066 105.67 28.883C106.535 28.7418 107.408 28.5653 108.291 28.3535C109.191 28.1241 110.056 27.8946 110.885 27.6652C111.715 27.4181 112.394 27.224 112.924 27.0828L113.241 27.374C112.853 27.8858 112.218 28.3535 111.335 28.7771C110.453 29.2007 109.5 29.5537 108.476 29.8361C107.452 30.1008 106.455 30.2773 105.484 30.3656C104.514 30.4362 103.746 30.3744 103.181 30.1803ZM109.508 20.0671C109.491 20.0495 109.358 20.1289 109.111 20.3054C108.864 20.4642 108.555 20.6848 108.185 20.9672C107.832 21.232 107.443 21.532 107.02 21.8674C106.614 22.185 106.234 22.4851 105.882 22.7675C105.546 23.0499 105.264 23.297 105.034 23.5088C104.805 23.7029 104.708 23.8 104.743 23.8C105.026 23.8529 105.387 23.8176 105.829 23.6941C106.287 23.5529 106.755 23.3587 107.232 23.1116C107.726 22.8645 108.194 22.591 108.635 22.2909C109.076 21.9732 109.42 21.6644 109.667 21.3643C109.932 21.0643 110.064 20.7996 110.064 20.5701C110.082 20.3407 109.897 20.173 109.508 20.0671Z" fill="#FF9A2E"/>
<path d="M112.738 30.1803C113.462 27.8505 114.115 26.0062 114.697 24.6471C115.298 23.2705 115.792 22.3086 116.18 21.7615C116.586 21.2143 116.859 21.0378 117.001 21.232C117.142 21.4261 117.124 21.9203 116.948 22.7145C116.789 23.5088 116.436 24.5765 115.889 25.9179C115.359 27.2416 114.609 28.7595 113.638 30.4715C113.497 30.5244 113.33 30.5332 113.135 30.4979C112.941 30.4626 112.809 30.3568 112.738 30.1803ZM117.371 17.4462C117.336 17.3579 117.318 17.1991 117.318 16.9696C117.318 16.7402 117.336 16.599 117.371 16.546C117.777 16.4048 118.086 16.3872 118.298 16.4931C118.51 16.599 118.642 16.7578 118.695 16.9696C118.748 17.1638 118.739 17.3756 118.669 17.605C118.616 17.8344 118.519 18.0109 118.377 18.1345C118.236 18.2404 118.068 18.258 117.874 18.1874C117.698 18.0992 117.53 17.8521 117.371 17.4462Z" fill="#FF9A2E"/>
<path d="M118.177 30.1803C118.142 30.1626 118.142 29.9596 118.177 29.5714C118.23 29.1654 118.301 28.6624 118.389 28.0623C118.477 27.4622 118.592 26.8004 118.733 26.0768C118.874 25.3531 119.024 24.6648 119.183 24.0118C119.342 23.3411 119.51 22.7586 119.686 22.2645C119.88 21.7526 120.066 21.3996 120.242 21.2055C120.366 21.0819 120.489 21.0819 120.613 21.2055C120.736 21.3114 120.86 21.4526 120.983 21.6291C121.107 21.7879 121.231 21.9379 121.354 22.0791C121.478 22.2027 121.61 22.2115 121.751 22.1056C122.245 21.4173 122.784 20.7643 123.366 20.1465C123.966 19.5111 124.628 18.964 125.352 18.5051C125.422 18.4522 125.616 18.3728 125.934 18.2669C126.252 18.1433 126.614 18.0286 127.02 17.9227C127.426 17.7991 127.84 17.7021 128.264 17.6315C128.705 17.5432 129.076 17.5079 129.376 17.5256C129.693 17.5256 129.905 17.605 130.011 17.7638C130.135 17.905 130.082 18.1521 129.852 18.5051C128.793 18.5228 127.805 18.8316 126.887 19.4317C125.969 20.0318 125.122 20.7731 124.346 21.6556C123.569 22.538 122.863 23.4999 122.228 24.5412C121.592 25.5649 121.036 26.518 120.56 27.4005C120.101 28.2829 119.713 29.0154 119.395 29.5978C119.095 30.1803 118.874 30.4715 118.733 30.4715C118.715 30.4715 118.636 30.4362 118.495 30.3656C118.354 30.2773 118.248 30.2156 118.177 30.1803Z" fill="#FF9A2E"/>
<path d="M127.447 29.8626C127.024 29.5096 126.786 28.9889 126.733 28.3006C126.697 27.6123 126.794 26.8357 127.024 25.9709C127.271 25.106 127.624 24.2059 128.083 23.2705C128.559 22.3174 129.106 21.4173 129.724 20.5701C130.342 19.7053 131.013 18.9375 131.736 18.2669C132.46 17.5785 133.183 17.0755 133.907 16.7578C134.631 16.4225 135.337 16.3078 136.025 16.4137C136.713 16.5019 137.34 16.899 137.905 17.605C138.258 18.0462 138.47 18.4963 138.54 18.9552C138.611 19.3964 138.602 19.8553 138.514 20.3318C138.425 20.7907 138.284 21.2673 138.09 21.7615C137.896 22.238 137.702 22.7234 137.508 23.2175C137.331 23.7117 137.181 24.2147 137.058 24.7266C136.952 25.2384 136.934 25.7591 137.005 26.2885C137.093 26.9592 137.393 27.3563 137.905 27.4799C138.417 27.6034 139.025 27.5681 139.731 27.374C140.455 27.1798 141.214 26.871 142.008 26.4474C142.802 26.0238 143.535 25.6002 144.206 25.1766C144.894 24.753 145.459 24.3824 145.9 24.0647C146.359 23.747 146.588 23.5882 146.588 23.5882C147.082 23.4823 147.356 23.5176 147.409 23.6941C147.48 23.8529 147.382 24.1 147.118 24.4354C146.871 24.753 146.491 25.1237 145.979 25.5473C145.468 25.9532 144.885 26.3503 144.232 26.7386C143.579 27.1269 142.882 27.4799 142.141 27.7976C141.399 28.1153 140.676 28.3359 139.97 28.4594C139.264 28.5653 138.593 28.5565 137.958 28.433C137.34 28.2918 136.828 27.9741 136.422 27.4799C136.228 27.2681 136.078 27.0563 135.972 26.8445C135.884 26.6327 135.734 26.4474 135.522 26.2885C135.257 26.5356 134.94 26.8622 134.569 27.2681C134.198 27.6564 133.792 28.0535 133.351 28.4594C132.928 28.8477 132.469 29.2184 131.974 29.5714C131.498 29.9243 131.004 30.1891 130.492 30.3656C129.98 30.5421 129.459 30.6038 128.93 30.5509C128.418 30.4979 127.924 30.2685 127.447 29.8626ZM127.739 28.9624C127.897 29.5272 128.25 29.792 128.798 29.7567C129.345 29.7037 129.98 29.4302 130.704 28.936C131.427 28.4418 132.177 27.7711 132.954 26.9239C133.731 26.0591 134.428 25.106 135.046 24.0647C135.663 23.0057 136.131 21.8938 136.449 20.729C136.784 19.5641 136.872 18.4169 136.713 17.2873C136.29 16.952 135.76 16.9431 135.125 17.2608C134.49 17.5609 133.81 18.0639 133.086 18.7699C132.38 19.4582 131.674 20.2877 130.968 21.2584C130.28 22.2115 129.671 23.1822 129.142 24.1706C128.612 25.1413 128.206 26.0591 127.924 26.9239C127.659 27.7888 127.597 28.4683 127.739 28.9624Z" fill="#FF9A2E"/>
<path d="M16.2771 44.4841H17.1967C17.2516 44.7674 17.4887 44.9091 17.908 44.9091C18.336 44.9091 18.55 44.8065 18.55 44.6012C18.55 44.5289 18.5182 44.471 18.4545 44.4277C18.3909 44.3814 18.2868 44.3482 18.1422 44.3279L17.587 44.2455C17.1591 44.179 16.8468 44.0677 16.6501 43.9115C16.4564 43.7554 16.3595 43.5414 16.3595 43.2696C16.3595 42.9688 16.4954 42.7346 16.7672 42.5669C17.042 42.3992 17.4193 42.3153 17.8993 42.3153C18.7871 42.3153 19.2845 42.6262 19.3915 43.2479L18.5023 43.3346C18.456 43.2074 18.3837 43.1163 18.2854 43.0614C18.1871 43.0035 18.0483 42.9746 17.869 42.9746C17.6781 42.9746 17.5306 42.9977 17.4265 43.044C17.3253 43.0903 17.2747 43.1568 17.2747 43.2435C17.2747 43.3158 17.3022 43.3708 17.3571 43.4084C17.4121 43.4459 17.5133 43.4763 17.6608 43.4994L18.3374 43.6079C18.7394 43.6715 19.03 43.7799 19.2093 43.9332C19.3886 44.0836 19.4782 44.2961 19.4782 44.5708C19.4782 44.9005 19.3452 45.1492 19.0791 45.3169C18.8131 45.4846 18.4213 45.5684 17.9037 45.5684C16.8858 45.5684 16.3436 45.207 16.2771 44.4841Z" fill="#FF9A2E"/>
<path d="M22.9822 45.5684C22.6005 45.5684 22.2723 45.5034 21.9976 45.3733C21.7229 45.2431 21.5103 45.0566 21.3599 44.8137C21.2125 44.5708 21.1387 44.2802 21.1387 43.9419C21.1387 43.6035 21.2139 43.3129 21.3643 43.07C21.5147 42.8271 21.7286 42.6406 22.0062 42.5105C22.2838 42.3804 22.6149 42.3153 22.9995 42.3153C23.3812 42.3153 23.7094 42.3804 23.9842 42.5105C24.2589 42.6406 24.47 42.8271 24.6174 43.07C24.7678 43.3129 24.843 43.6035 24.843 43.9419C24.843 44.2802 24.7678 44.5708 24.6174 44.8137C24.4671 45.0566 24.2531 45.2431 23.9755 45.3733C23.6979 45.5034 23.3668 45.5684 22.9822 45.5684ZM23.8714 43.9419C23.8714 43.6643 23.7933 43.4503 23.6372 43.2999C23.4839 43.1467 23.2685 43.07 22.9909 43.07C22.7133 43.07 22.4964 43.1467 22.3402 43.2999C22.187 43.4532 22.1103 43.6672 22.1103 43.9419C22.1103 44.2195 22.187 44.4349 22.3402 44.5882C22.4964 44.7385 22.7133 44.8137 22.9909 44.8137C23.2685 44.8137 23.4839 44.7371 23.6372 44.5838C23.7933 44.4306 23.8714 44.2166 23.8714 43.9419Z" fill="#FF9A2E"/>
<path d="M26.7088 42.3934H27.6457V44.7313H29.4067L29.3113 45.4904H26.7088V42.3934Z" fill="#FF9A2E"/>
<path d="M32.0044 44.2065C32.0044 44.4147 32.0565 44.5679 32.1606 44.6662C32.2676 44.7646 32.4353 44.8137 32.6637 44.8137C32.8951 44.8137 33.0628 44.7646 33.1669 44.6662C33.2739 44.5679 33.3274 44.4147 33.3274 44.2065V42.3934H34.2643V44.1327C34.2643 44.6417 34.1269 45.0089 33.8522 45.2345C33.5775 45.4571 33.1813 45.5684 32.6637 45.5684C32.149 45.5684 31.7543 45.4571 31.4796 45.2345C31.2049 45.0089 31.0675 44.6417 31.0675 44.1327V42.3934H32.0044V44.2065Z" fill="#FF9A2E"/>
<path d="M39.5032 43.417L38.5793 43.5168C38.5244 43.3577 38.442 43.2435 38.3321 43.1741C38.2222 43.1047 38.0733 43.07 37.8853 43.07C37.628 43.07 37.427 43.1452 37.2824 43.2956C37.1378 43.4431 37.0655 43.6585 37.0655 43.9419C37.0655 44.2253 37.1378 44.4421 37.2824 44.5925C37.4299 44.74 37.6366 44.8137 37.9027 44.8137C38.3133 44.8137 38.5547 44.6547 38.627 44.3366H39.5639C39.5264 44.727 39.3586 45.0306 39.0608 45.2475C38.7658 45.4615 38.3726 45.5684 37.881 45.5684C37.4877 45.5684 37.1581 45.499 36.892 45.3602C36.6289 45.2214 36.4293 45.0306 36.2934 44.7877C36.1604 44.5419 36.0939 44.26 36.0939 43.9419C36.0939 43.6325 36.1604 43.3549 36.2934 43.1091C36.4293 42.8633 36.6303 42.6695 36.8964 42.5278C37.1624 42.3861 37.4935 42.3153 37.8897 42.3153C38.7832 42.3153 39.321 42.6825 39.5032 43.417ZM37.6554 45.3949L38.0675 45.4904L37.9851 45.6812C38.1673 45.7015 38.3017 45.7448 38.3885 45.8113C38.4752 45.8807 38.5186 45.9704 38.5186 46.0803C38.5186 46.2075 38.455 46.3073 38.3277 46.3796C38.2005 46.4519 38.0212 46.488 37.7899 46.488C37.5788 46.488 37.4125 46.4678 37.2911 46.4273V46.0759C37.3634 46.0875 37.427 46.0962 37.4819 46.102C37.5398 46.1106 37.5947 46.115 37.6468 46.115C37.7393 46.115 37.8058 46.1063 37.8463 46.089C37.8897 46.0745 37.9113 46.0514 37.9113 46.0196C37.9113 45.9791 37.8853 45.9516 37.8333 45.9371C37.7841 45.9227 37.6988 45.9154 37.5774 45.9154H37.4255L37.6554 45.3949Z" fill="#FF9A2E"/>
<path d="M43.0509 45.5684C42.6692 45.5684 42.341 45.5034 42.0663 45.3733C41.7916 45.2431 41.579 45.0566 41.4287 44.8137C41.2812 44.5708 41.2075 44.2802 41.2075 43.9419C41.2075 43.6035 41.2826 43.3129 41.433 43.07C41.5834 42.8271 41.7974 42.6406 42.075 42.5105C42.3526 42.3804 42.6837 42.3153 43.0683 42.3153C43.45 42.3153 43.7782 42.3804 44.0529 42.5105C44.3276 42.6406 44.5387 42.8271 44.6862 43.07C44.8365 43.3129 44.9117 43.6035 44.9117 43.9419C44.9117 44.2802 44.8365 44.5708 44.6862 44.8137C44.5358 45.0566 44.3218 45.2431 44.0442 45.3733C43.7666 45.5034 43.4355 45.5684 43.0509 45.5684ZM43.9401 43.9419C43.9401 43.6643 43.862 43.4503 43.7059 43.2999C43.5526 43.1467 43.3372 43.07 43.0596 43.07C42.782 43.07 42.5651 43.1467 42.409 43.2999C42.2557 43.4532 42.1791 43.6672 42.1791 43.9419C42.1791 44.2195 42.2557 44.4349 42.409 44.5882C42.5651 44.7385 42.782 44.8137 43.0596 44.8137C43.3372 44.8137 43.5526 44.7371 43.7059 44.5838C43.862 44.4306 43.9401 44.2166 43.9401 43.9419ZM42.0793 42.1375C42.0793 41.8801 42.127 41.695 42.2224 41.5823C42.3179 41.4695 42.461 41.4131 42.6519 41.4131C42.7907 41.4131 42.9555 41.4608 43.1463 41.5562C43.2215 41.5938 43.2794 41.6198 43.3198 41.6343C43.3603 41.6488 43.3965 41.656 43.4283 41.656C43.4832 41.656 43.5194 41.6386 43.5367 41.6039C43.5541 41.5663 43.5627 41.5071 43.5627 41.4261H44.0789C44.0789 41.6748 44.0312 41.8584 43.9358 41.977C43.8403 42.0926 43.6972 42.1505 43.5064 42.1505C43.3704 42.1505 43.21 42.1042 43.0249 42.0117C42.8832 41.9423 42.7849 41.9076 42.7299 41.9076C42.6779 41.9076 42.6417 41.9278 42.6215 41.9683C42.6041 42.0059 42.5955 42.0623 42.5955 42.1375H42.0793Z" fill="#FF9A2E"/>
<path d="M46.7775 42.3934H49.4885V43.0744H47.6927V43.5775H49.4017V44.2585H47.6927V44.8094H49.5926L49.5058 45.4904H46.7775V42.3934Z" fill="#FF9A2E"/>
<path d="M51.1909 44.4841H52.1104C52.1654 44.7674 52.4025 44.9091 52.8218 44.9091C53.2498 44.9091 53.4637 44.8065 53.4637 44.6012C53.4637 44.5289 53.4319 44.471 53.3683 44.4277C53.3047 44.3814 53.2006 44.3482 53.056 44.3279L52.5008 44.2455C52.0728 44.179 51.7605 44.0677 51.5639 43.9115C51.3702 43.7554 51.2733 43.5414 51.2733 43.2696C51.2733 42.9688 51.4092 42.7346 51.681 42.5669C51.9557 42.3992 52.3331 42.3153 52.8131 42.3153C53.7009 42.3153 54.1982 42.6262 54.3052 43.2479L53.416 43.3346C53.3698 43.2074 53.2975 43.1163 53.1992 43.0614C53.1008 43.0035 52.962 42.9746 52.7828 42.9746C52.5919 42.9746 52.4444 42.9977 52.3403 43.044C52.2391 43.0903 52.1885 43.1568 52.1885 43.2435C52.1885 43.3158 52.216 43.3708 52.2709 43.4084C52.3259 43.4459 52.4271 43.4763 52.5746 43.4994L53.2512 43.6079C53.6532 43.6715 53.9438 43.7799 54.1231 43.9332C54.3023 44.0836 54.392 44.2961 54.392 44.5708C54.392 44.9005 54.259 45.1492 53.9929 45.3169C53.7269 45.4846 53.3351 45.5684 52.8175 45.5684C51.7996 45.5684 51.2574 45.207 51.1909 44.4841Z" fill="#FF9A2E"/>
<path d="M58.6701 42.3934H60.21C61.1382 42.3934 61.6023 42.7505 61.6023 43.4647C61.6023 43.832 61.4823 44.1038 61.2423 44.2802C61.0052 44.4537 60.6437 44.5405 60.1579 44.5405H59.5767V45.4904H58.6701V42.3934ZM60.1406 43.8464C60.3285 43.8464 60.4673 43.8175 60.557 43.7597C60.6466 43.7019 60.6914 43.6021 60.6914 43.4604C60.6914 43.3274 60.6481 43.232 60.5613 43.1741C60.4746 43.1163 60.3372 43.0874 60.1492 43.0874H59.5767V43.8464H60.1406Z" fill="#FF9A2E"/>
<path d="M64.0452 42.3934H65.1383L66.4829 45.4904H65.5113L65.2814 44.9265H63.8674L63.6505 45.4904H62.7006L64.0452 42.3934ZM65.0211 44.2325L64.5787 43.1004L64.1363 44.2325H65.0211Z" fill="#FF9A2E"/>
<path d="M68.1771 42.3934H69.769C70.6973 42.3934 71.1614 42.736 71.1614 43.4214C71.1614 43.6411 71.1151 43.8204 71.0226 43.9592C70.93 44.0951 70.7941 44.2036 70.6148 44.2845L71.3739 45.4904H70.3719L69.7603 44.4624H69.0533V45.4904H68.1771V42.3934ZM69.7126 43.7944C69.9035 43.7944 70.0423 43.7669 70.129 43.712C70.2187 43.6541 70.2635 43.5587 70.2635 43.4257C70.2635 43.2927 70.2216 43.1987 70.1377 43.1438C70.0539 43.0888 69.9151 43.0614 69.7213 43.0614H69.0533V43.7944H69.7126Z" fill="#FF9A2E"/>
<path d="M74.141 42.3934H75.234L76.5787 45.4904H75.6071L75.3772 44.9265H73.9632L73.7463 45.4904H72.7964L74.141 42.3934ZM75.1169 44.2325L74.6745 43.1004L74.2321 44.2325H75.1169Z" fill="#FF9A2E"/>
<path d="M81.7884 42.3934H82.8815L84.2261 45.4904H83.2545L83.0246 44.9265H81.6106L81.3937 45.4904H80.4438L81.7884 42.3934ZM82.7644 44.2325L82.322 43.1004L81.8795 44.2325H82.7644Z" fill="#FF9A2E"/>
<path d="M91.6697 43.417L90.7458 43.5168C90.6909 43.3577 90.6085 43.2435 90.4986 43.1741C90.3887 43.1047 90.2398 43.07 90.0518 43.07C89.7944 43.07 89.5935 43.1452 89.4489 43.2956C89.3043 43.4431 89.232 43.6585 89.232 43.9419C89.232 44.2253 89.3043 44.4421 89.4489 44.5925C89.5964 44.74 89.8031 44.8137 90.0692 44.8137C90.4798 44.8137 90.7212 44.6547 90.7935 44.3366H91.7304C91.6928 44.727 91.5251 45.0306 91.2273 45.2475C90.9323 45.4615 90.5391 45.5684 90.0475 45.5684C89.6542 45.5684 89.3245 45.499 89.0585 45.3602C88.7954 45.2214 88.5958 45.0306 88.4599 44.7877C88.3269 44.5419 88.2604 44.26 88.2604 43.9419C88.2604 43.6325 88.3269 43.3549 88.4599 43.1091C88.5958 42.8633 88.7968 42.6695 89.0629 42.5278C89.3289 42.3861 89.66 42.3153 90.0561 42.3153C90.9497 42.3153 91.4875 42.6825 91.6697 43.417Z" fill="#FF9A2E"/>
<path d="M95.2174 45.5684C94.8357 45.5684 94.5075 45.5034 94.2328 45.3733C93.9581 45.2431 93.7456 45.0566 93.5952 44.8137C93.4477 44.5708 93.374 44.2802 93.374 43.9419C93.374 43.6035 93.4492 43.3129 93.5995 43.07C93.7499 42.8271 93.9639 42.6406 94.2415 42.5105C94.5191 42.3804 94.8502 42.3153 95.2348 42.3153C95.6165 42.3153 95.9447 42.3804 96.2194 42.5105C96.4941 42.6406 96.7052 42.8271 96.8527 43.07C97.003 43.3129 97.0782 43.6035 97.0782 43.9419C97.0782 44.2802 97.003 44.5708 96.8527 44.8137C96.7023 45.0566 96.4883 45.2431 96.2107 45.3733C95.9331 45.5034 95.602 45.5684 95.2174 45.5684ZM96.1066 43.9419C96.1066 43.6643 96.0285 43.4503 95.8724 43.2999C95.7191 43.1467 95.5037 43.07 95.2261 43.07C94.9485 43.07 94.7316 43.1467 94.5755 43.2999C94.4222 43.4532 94.3456 43.6672 94.3456 43.9419C94.3456 44.2195 94.4222 44.4349 94.5755 44.5882C94.7316 44.7385 94.9485 44.8137 95.2261 44.8137C95.5037 44.8137 95.7191 44.7371 95.8724 44.5838C96.0285 44.4306 96.1066 44.2166 96.1066 43.9419Z" fill="#FF9A2E"/>
<path d="M98.944 42.3934H100.002L100.935 44.4884L101.863 42.3934H102.9V45.4904H102.041V43.686L101.256 45.4904H100.571L99.7898 43.6946V45.4904H98.944V42.3934Z" fill="#FF9A2E"/>
<path d="M105.811 44.2065C105.811 44.4147 105.863 44.5679 105.967 44.6662C106.074 44.7646 106.242 44.8137 106.47 44.8137C106.702 44.8137 106.87 44.7646 106.974 44.6662C107.081 44.5679 107.134 44.4147 107.134 44.2065V42.3934H108.071V44.1327C108.071 44.6417 107.934 45.0089 107.659 45.2345C107.384 45.4571 106.988 45.5684 106.47 45.5684C105.956 45.5684 105.561 45.4571 105.286 45.2345C105.012 45.0089 104.874 44.6417 104.874 44.1327V42.3934H105.811V44.2065Z" fill="#FF9A2E"/>
<path d="M110.039 42.3934H110.872L112.421 44.2542V42.3934H113.306V45.4904H112.473L110.924 43.6296V45.4904H110.039V42.3934Z" fill="#FF9A2E"/>
<path d="M115.31 42.3934H116.247V45.4904H115.31V42.3934Z" fill="#FF9A2E"/>
<path d="M121.521 43.417L120.597 43.5168C120.542 43.3577 120.46 43.2435 120.35 43.1741C120.24 43.1047 120.091 43.07 119.903 43.07C119.646 43.07 119.445 43.1452 119.3 43.2956C119.155 43.4431 119.083 43.6585 119.083 43.9419C119.083 44.2253 119.155 44.4421 119.3 44.5925C119.447 44.74 119.654 44.8137 119.92 44.8137C120.331 44.8137 120.572 44.6547 120.645 44.3366H121.582C121.544 44.727 121.376 45.0306 121.078 45.2475C120.783 45.4615 120.39 45.5684 119.899 45.5684C119.505 45.5684 119.176 45.499 118.91 45.3602C118.646 45.2214 118.447 45.0306 118.311 44.7877C118.178 44.5419 118.111 44.26 118.111 43.9419C118.111 43.6325 118.178 43.3549 118.311 43.1091C118.447 42.8633 118.648 42.6695 118.914 42.5278C119.18 42.3861 119.511 42.3153 119.907 42.3153C120.801 42.3153 121.339 42.6825 121.521 43.417Z" fill="#FF9A2E"/>
<path d="M124.29 42.3934H125.383L126.728 45.4904H125.756L125.527 44.9265H124.113L123.896 45.4904H122.946L124.29 42.3934ZM125.266 44.2325L124.824 43.1004L124.381 44.2325H125.266Z" fill="#FF9A2E"/>
<path d="M131.502 43.417L130.578 43.5168C130.523 43.3577 130.441 43.2435 130.331 43.1741C130.221 43.1047 130.072 43.07 129.884 43.07C129.627 43.07 129.426 43.1452 129.281 43.2956C129.137 43.4431 129.064 43.6585 129.064 43.9419C129.064 44.2253 129.137 44.4421 129.281 44.5925C129.429 44.74 129.636 44.8137 129.902 44.8137C130.312 44.8137 130.554 44.6547 130.626 44.3366H131.563C131.525 44.727 131.358 45.0306 131.06 45.2475C130.765 45.4615 130.372 45.5684 129.88 45.5684C129.487 45.5684 129.157 45.499 128.891 45.3602C128.628 45.2214 128.428 45.0306 128.292 44.7877C128.159 44.5419 128.093 44.26 128.093 43.9419C128.093 43.6325 128.159 43.3549 128.292 43.1091C128.428 42.8633 128.629 42.6695 128.895 42.5278C129.161 42.3861 129.492 42.3153 129.889 42.3153C130.782 42.3153 131.32 42.6825 131.502 43.417ZM129.654 45.3949L130.066 45.4904L129.984 45.6812C130.166 45.7015 130.301 45.7448 130.387 45.8113C130.474 45.8807 130.518 45.9704 130.518 46.0803C130.518 46.2075 130.454 46.3073 130.327 46.3796C130.199 46.4519 130.02 46.488 129.789 46.488C129.578 46.488 129.412 46.4678 129.29 46.4273V46.0759C129.362 46.0875 129.426 46.0962 129.481 46.102C129.539 46.1106 129.594 46.115 129.646 46.115C129.738 46.115 129.805 46.1063 129.845 46.089C129.889 46.0745 129.91 46.0514 129.91 46.0196C129.91 45.9791 129.884 45.9516 129.832 45.9371C129.783 45.9227 129.698 45.9154 129.576 45.9154H129.425L129.654 45.3949Z" fill="#FF9A2E"/>
<path d="M134.272 42.3934H135.365L136.709 45.4904H135.738L135.508 44.9265H134.094L133.877 45.4904H132.927L134.272 42.3934ZM135.248 44.2325L134.805 43.1004L134.363 44.2325H135.248ZM133.838 42.1375C133.838 41.8801 133.886 41.695 133.981 41.5823C134.077 41.4695 134.22 41.4131 134.411 41.4131C134.549 41.4131 134.714 41.4608 134.905 41.5562C134.98 41.5938 135.038 41.6198 135.079 41.6343C135.119 41.6488 135.155 41.656 135.187 41.656C135.242 41.656 135.278 41.6386 135.295 41.6039C135.313 41.5663 135.321 41.5071 135.321 41.4261H135.838C135.838 41.6748 135.79 41.8584 135.694 41.977C135.599 42.0926 135.456 42.1505 135.265 42.1505C135.129 42.1505 134.969 42.1042 134.784 42.0117C134.642 41.9423 134.544 41.9076 134.489 41.9076C134.437 41.9076 134.4 41.9278 134.38 41.9683C134.363 42.0059 134.354 42.0623 134.354 42.1375H133.838Z" fill="#FF9A2E"/>
<path d="M139.918 45.5684C139.536 45.5684 139.208 45.5034 138.933 45.3733C138.658 45.2431 138.446 45.0566 138.296 44.8137C138.148 44.5708 138.074 44.2802 138.074 43.9419C138.074 43.6035 138.149 43.3129 138.3 43.07C138.45 42.8271 138.664 42.6406 138.942 42.5105C139.219 42.3804 139.551 42.3153 139.935 42.3153C140.317 42.3153 140.645 42.3804 140.92 42.5105C141.194 42.6406 141.406 42.8271 141.553 43.07C141.703 43.3129 141.779 43.6035 141.779 43.9419C141.779 44.2802 141.703 44.5708 141.553 44.8137C141.403 45.0566 141.189 45.2431 140.911 45.3733C140.633 45.5034 140.302 45.5684 139.918 45.5684ZM140.807 43.9419C140.807 43.6643 140.729 43.4503 140.573 43.2999C140.419 43.1467 140.204 43.07 139.926 43.07C139.649 43.07 139.432 43.1467 139.276 43.2999C139.123 43.4532 139.046 43.6672 139.046 43.9419C139.046 44.2195 139.123 44.4349 139.276 44.5882C139.432 44.7385 139.649 44.8137 139.926 44.8137C140.204 44.8137 140.419 44.7371 140.573 44.5838C140.729 44.4306 140.807 44.2166 140.807 43.9419Z" fill="#FF9A2E"/>
<path d="M51.1512 50.9904C50.7695 50.9904 50.4413 50.9253 50.1666 50.7952C49.8918 50.6651 49.6793 50.4785 49.5289 50.2356C49.3815 49.9927 49.3077 49.7021 49.3077 49.3638C49.3077 49.0255 49.3829 48.7348 49.5333 48.4919C49.6836 48.249 49.8976 48.0625 50.1752 47.9324C50.4528 47.8023 50.7839 47.7372 51.1685 47.7372C51.5502 47.7372 51.8784 47.8023 52.1532 47.9324C52.4279 48.0625 52.639 48.249 52.7864 48.4919C52.9368 48.7348 53.012 49.0255 53.012 49.3638C53.012 49.7021 52.9368 49.9927 52.7864 50.2356C52.6361 50.4785 52.4221 50.6651 52.1445 50.7952C51.8669 50.9253 51.5358 50.9904 51.1512 50.9904ZM52.0404 49.3638C52.0404 49.0862 51.9623 48.8722 51.8061 48.7218C51.6529 48.5686 51.4375 48.4919 51.1599 48.4919C50.8823 48.4919 50.6654 48.5686 50.5092 48.7218C50.356 48.8751 50.2793 49.0891 50.2793 49.3638C50.2793 49.6414 50.356 49.8568 50.5092 50.0101C50.6654 50.1605 50.8823 50.2356 51.1599 50.2356C51.4375 50.2356 51.6529 50.159 51.8061 50.0057C51.9623 49.8525 52.0404 49.6385 52.0404 49.3638Z" fill="#FF9A2E"/>
<path d="M54.8778 47.8153H56.4696C57.3979 47.8153 57.862 48.158 57.862 48.8433C57.862 49.0631 57.8157 49.2423 57.7232 49.3811C57.6307 49.5171 57.4947 49.6255 57.3155 49.7065L58.0745 50.9123H57.0726L56.461 49.8843H55.7539V50.9123H54.8778V47.8153ZM56.4133 49.2163C56.6041 49.2163 56.7429 49.1888 56.8297 49.1339C56.9193 49.0761 56.9641 48.9806 56.9641 48.8476C56.9641 48.7146 56.9222 48.6206 56.8383 48.5657C56.7545 48.5107 56.6157 48.4833 56.4219 48.4833H55.7539V49.2163H56.4133Z" fill="#FF9A2E"/>
<path d="M60.8416 47.8153H61.9347L63.2793 50.9123H62.3077L62.0778 50.3484H60.6638L60.4469 50.9123H59.497L60.8416 47.8153ZM61.8176 49.6544L61.3751 48.5223L60.9327 49.6544H61.8176Z" fill="#FF9A2E"/>
<path d="M64.9736 47.8153H65.9105V50.1532H67.6715L67.5761 50.9123H64.9736V47.8153Z" fill="#FF9A2E"/>
<path d="M71.9051 47.8153H74.6161V48.4963H72.8204V48.9994H74.5293V49.6804H72.8204V50.2313H74.7202L74.6334 50.9123H71.9051V47.8153Z" fill="#FF9A2E"/>
<path d="M79.0316 47.8153H81.7425V48.4963H79.9468V48.9994H81.6558V49.6804H79.9468V50.2313H81.8466L81.7599 50.9123H79.0316V47.8153Z" fill="#FF9A2E"/>
<path d="M83.445 49.906H84.3645C84.4194 50.1894 84.6566 50.3311 85.0759 50.3311C85.5038 50.3311 85.7178 50.2284 85.7178 50.0231C85.7178 49.9508 85.686 49.893 85.6224 49.8496C85.5588 49.8033 85.4547 49.7701 85.3101 49.7498L84.7549 49.6674C84.3269 49.6009 84.0146 49.4896 83.818 49.3334C83.6242 49.1773 83.5274 48.9633 83.5274 48.6915C83.5274 48.3907 83.6633 48.1565 83.9351 47.9888C84.2098 47.8211 84.5872 47.7372 85.0672 47.7372C85.9549 47.7372 86.4523 48.0481 86.5593 48.6698L85.6701 48.7565C85.6238 48.6293 85.5516 48.5382 85.4532 48.4833C85.3549 48.4254 85.2161 48.3965 85.0368 48.3965C84.846 48.3965 84.6985 48.4197 84.5944 48.4659C84.4932 48.5122 84.4426 48.5787 84.4426 48.6654C84.4426 48.7377 84.4701 48.7927 84.525 48.8303C84.5799 48.8679 84.6811 48.8982 84.8286 48.9214L85.5053 49.0298C85.9072 49.0934 86.1978 49.2019 86.3771 49.3551C86.5564 49.5055 86.6461 49.718 86.6461 49.9927C86.6461 50.3224 86.513 50.5711 86.247 50.7388C85.981 50.9065 85.5891 50.9904 85.0715 50.9904C84.0536 50.9904 83.5115 50.6289 83.445 49.906Z" fill="#FF9A2E"/>
<path d="M91.7159 48.8389L90.792 48.9387C90.7371 48.7797 90.6546 48.6654 90.5448 48.596C90.4349 48.5266 90.2859 48.4919 90.098 48.4919C89.8406 48.4919 89.6397 48.5671 89.4951 48.7175C89.3505 48.865 89.2782 49.0804 89.2782 49.3638C89.2782 49.6472 89.3505 49.8641 89.4951 50.0144C89.6425 50.1619 89.8493 50.2356 90.1153 50.2356C90.526 50.2356 90.7674 50.0766 90.8397 49.7585H91.7766C91.739 50.1489 91.5713 50.4525 91.2735 50.6694C90.9785 50.8834 90.5852 50.9904 90.0937 50.9904C89.7004 50.9904 89.3707 50.921 89.1047 50.7822C88.8416 50.6434 88.642 50.4525 88.5061 50.2096C88.3731 49.9638 88.3066 49.6819 88.3066 49.3638C88.3066 49.0544 88.3731 48.7768 88.5061 48.531C88.642 48.2852 88.843 48.0914 89.109 47.9498C89.3751 47.8081 89.7062 47.7372 90.1023 47.7372C90.9959 47.7372 91.5337 48.1045 91.7159 48.8389Z" fill="#FF9A2E"/>
<path d="M93.5589 47.8153H95.1508C96.079 47.8153 96.5432 48.158 96.5432 48.8433C96.5432 49.0631 96.4969 49.2423 96.4044 49.3811C96.3118 49.5171 96.1759 49.6255 95.9966 49.7065L96.7557 50.9123H95.7537L95.1421 49.8843H94.4351V50.9123H93.5589V47.8153ZM95.0944 49.2163C95.2853 49.2163 95.4241 49.1888 95.5108 49.1339C95.6005 49.0761 95.6453 48.9806 95.6453 48.8476C95.6453 48.7146 95.6034 48.6206 95.5195 48.5657C95.4356 48.5107 95.2968 48.4833 95.1031 48.4833H94.4351V49.2163H95.0944Z" fill="#FF9A2E"/>
<path d="M98.448 47.8153H99.3849V50.9123H98.448V47.8153Z" fill="#FF9A2E"/>
<path d="M102.234 48.5744H101.089V47.8153H104.316V48.5744H103.171V50.9123H102.234V48.5744Z" fill="#FF9A2E"/>
<path d="M106.577 47.8153H107.67L109.015 50.9123H108.043L107.813 50.3484H106.399L106.182 50.9123H105.233L106.577 47.8153ZM107.553 49.6544L107.111 48.5223L106.668 49.6544H107.553Z" fill="#FF9A2E"/>
</svg>
