<svg width="158" height="71" viewBox="0 0 158 71" fill="none" xmlns="http://www.w3.org/2000/svg">
<path d="M13.6323 30.2455C12.5601 29.8237 11.8218 29.2524 11.4175 28.5317C11.0132 27.811 10.8462 27.0112 10.9165 26.1322C11.0044 25.2358 11.2856 24.2865 11.7603 23.2846C12.2524 22.2651 12.8501 21.2455 13.5532 20.226C14.2739 19.2065 15.0649 18.2133 15.9263 17.2465C16.7876 16.2797 17.6401 15.392 18.4839 14.5834C19.3276 13.7748 20.1187 13.0717 20.8569 12.474C21.5952 11.8764 22.1929 11.4369 22.6499 11.1557C23.2827 10.769 23.8101 10.5844 24.2319 10.602C24.6538 10.602 24.9878 10.7338 25.2339 10.9975C25.4976 11.2436 25.6733 11.5951 25.7612 12.0522C25.8667 12.4916 25.9106 12.9662 25.8931 13.476C25.8931 13.9682 25.8403 14.4692 25.7349 14.9789C25.647 15.4711 25.5239 15.9018 25.3657 16.2709C25.2251 16.6401 25.0669 16.9125 24.8911 17.0883C24.7329 17.2641 24.5747 17.2729 24.4165 17.1147C24.3989 16.974 24.4165 16.7631 24.4692 16.4819C24.522 16.183 24.5835 15.849 24.6538 15.4799C24.7417 15.1108 24.8208 14.7328 24.8911 14.3461C24.9614 13.9594 25.0054 13.6078 25.0229 13.2914C25.0581 12.9574 25.0493 12.6762 24.9966 12.4477C24.9614 12.2192 24.8647 12.0873 24.7065 12.0522C24.0913 11.894 23.353 12.0434 22.4917 12.5004C21.6479 12.9399 20.7603 13.5815 19.8286 14.4252C18.9146 15.2514 18.0005 16.2182 17.0864 17.3256C16.1899 18.4155 15.3726 19.5405 14.6343 20.7006C13.896 21.8608 13.2896 22.9946 12.8149 24.102C12.3403 25.1918 12.0679 26.1586 11.9976 27.0024C11.9448 27.8285 12.1294 28.4701 12.5513 28.9272C12.9907 29.3666 13.7554 29.5072 14.8452 29.349C15.8472 29.2084 16.77 28.8569 17.6138 28.2944C18.4751 27.7143 19.3013 27.0815 20.0923 26.3959C20.9009 25.6928 21.7007 25.0072 22.4917 24.3393C23.2827 23.6537 24.1089 23.1352 24.9702 22.7836C25.2866 22.6606 25.5327 22.7045 25.7085 22.9155C25.9019 23.1264 25.9546 23.3813 25.8667 23.6801C25.7612 23.9789 25.4448 24.3744 24.9175 24.8666C24.4077 25.3588 23.7661 25.8774 22.9927 26.4223C22.2368 26.9496 21.4019 27.4858 20.4878 28.0307C19.5737 28.558 18.6772 29.0151 17.7983 29.4018C16.937 29.7885 16.1284 30.0697 15.3726 30.2455C14.6343 30.4213 14.0542 30.4213 13.6323 30.2455Z" fill="white"/>
<path d="M26.5111 30.2455C26.476 30.228 26.476 30.0258 26.5111 29.6391C26.5638 29.2348 26.6342 28.7338 26.7221 28.1362C26.8099 27.5385 26.9242 26.8793 27.0648 26.1586C27.2054 25.4379 27.3549 24.7524 27.5131 24.102C27.6713 23.434 27.8383 22.8539 28.014 22.3617C28.2074 21.852 28.392 21.5004 28.5678 21.3071C28.6908 21.184 28.8138 21.184 28.9369 21.3071C29.0599 21.4125 29.183 21.5531 29.306 21.7289C29.4291 21.8871 29.5521 22.0365 29.6752 22.1772C29.7982 22.3002 29.9301 22.309 30.0707 22.2035C30.5629 21.518 31.099 20.8676 31.6791 20.2524C32.2767 19.6196 32.9359 19.0746 33.6566 18.6176C33.7269 18.5649 33.9203 18.4858 34.2367 18.3803C34.5531 18.2572 34.9135 18.143 35.3178 18.0375C35.722 17.9145 36.1351 17.8178 36.557 17.7475C36.9965 17.6596 37.3656 17.6244 37.6644 17.642C37.9808 17.642 38.1918 17.7211 38.2972 17.8793C38.4203 18.0199 38.3676 18.266 38.139 18.6176C37.0844 18.6352 36.1 18.9428 35.1859 19.5405C34.2719 20.1381 33.4281 20.8764 32.6547 21.7553C31.8812 22.6342 31.1781 23.5922 30.5453 24.6293C29.9125 25.6489 29.3588 26.5981 28.8842 27.477C28.4271 28.3559 28.0404 29.0854 27.724 29.6655C27.4252 30.2455 27.2054 30.5356 27.0648 30.5356C27.0472 30.5356 26.9681 30.5004 26.8275 30.4301C26.6869 30.3422 26.5814 30.2807 26.5111 30.2455Z" fill="white"/>
<path d="M37.096 30.2455C37.8167 27.9252 38.4671 26.0883 39.0471 24.7348C39.6448 23.3637 40.137 22.4057 40.5237 21.8608C40.928 21.3158 41.2004 21.1401 41.3411 21.3334C41.4817 21.5268 41.4641 22.019 41.2883 22.81C41.1301 23.601 40.7786 24.6645 40.2337 26.0004C39.7063 27.3188 38.9592 28.8305 37.9924 30.5356C37.8518 30.5883 37.6848 30.5971 37.4915 30.5619C37.2981 30.5268 37.1663 30.4213 37.096 30.2455ZM41.7102 17.5629C41.6751 17.475 41.6575 17.3168 41.6575 17.0883C41.6575 16.8598 41.6751 16.7192 41.7102 16.6664C42.1145 16.5258 42.4221 16.5082 42.6331 16.6137C42.844 16.7192 42.9758 16.8774 43.0286 17.0883C43.0813 17.2817 43.0725 17.4926 43.0022 17.7211C42.9495 17.9496 42.8528 18.1254 42.7122 18.2485C42.5715 18.3539 42.4046 18.3715 42.2112 18.3012C42.0354 18.2133 41.8684 17.9672 41.7102 17.5629Z" fill="white"/>
<path d="M42.5128 30.2455C42.3019 30.1049 42.2931 29.9203 42.4865 29.6918C42.6974 29.4457 43.0226 29.1908 43.4621 28.9272C43.9191 28.6459 44.4464 28.3559 45.0441 28.0571C45.6417 27.7582 46.213 27.477 46.7579 27.2133C47.3204 26.9496 47.8126 26.7211 48.2345 26.5278C48.6564 26.3168 48.9288 26.1586 49.0519 26.0531C49.632 25.561 49.9308 25.1567 49.9484 24.8403C49.9835 24.5063 49.8429 24.2426 49.5265 24.0492C49.2101 23.8383 48.7619 23.6801 48.1818 23.5746C47.6193 23.4516 47.0304 23.3461 46.4152 23.2582C45.8175 23.1528 45.2374 23.0473 44.6749 22.9418C44.13 22.8364 43.7169 22.6957 43.4357 22.5199C43.1544 22.3442 43.0578 22.1156 43.1456 21.8344C43.2511 21.5356 43.6378 21.1576 44.3058 20.7006C44.5519 20.5248 44.9122 20.2699 45.3869 19.936C45.8615 19.602 46.3712 19.2592 46.9162 18.9076C47.4787 18.5561 48.0324 18.2397 48.5773 17.9584C49.1222 17.6772 49.5792 17.4926 49.9484 17.4047C50.1417 17.3696 50.3351 17.3871 50.5285 17.4574C50.7394 17.5278 50.9064 17.6332 51.0294 17.7739C51.1525 17.8969 51.2052 18.0375 51.1876 18.1957C51.1876 18.3539 51.0734 18.4946 50.8449 18.6176C49.8429 19.1801 48.8761 19.7074 47.9445 20.1996C47.0304 20.6918 46.1076 21.2543 45.1759 21.8871C45.1232 22.0278 45.132 22.1508 45.2023 22.2563C45.2902 22.3617 45.3869 22.4408 45.4923 22.4936C47.3556 22.6869 48.7531 22.9594 49.6847 23.311C50.6339 23.6625 51.2316 24.0492 51.4777 24.4711C51.7413 24.893 51.715 25.3412 51.3986 25.8158C51.0822 26.2905 50.6076 26.7563 49.9747 27.2133C49.3595 27.6703 48.6476 28.101 47.839 28.5053C47.0304 28.9096 46.2482 29.2524 45.4923 29.5336C44.754 29.8149 44.1037 30.0258 43.5412 30.1664C42.9787 30.3071 42.6359 30.3334 42.5128 30.2455Z" fill="white"/>
<path d="M65.4228 30.2455C64.5438 29.8764 63.9638 29.3666 63.6825 28.7162C63.4013 28.0483 63.3046 27.3364 63.3925 26.5805C63.4804 25.8071 63.6913 25.0336 64.0253 24.2602C64.3769 23.4867 64.7372 22.8012 65.1063 22.2035C65.2294 21.9926 65.4579 21.6322 65.7919 21.1225C66.1259 20.6127 66.4774 20.0766 66.8466 19.5141C67.2333 18.934 67.5937 18.3979 67.9276 17.9057C68.2792 17.3959 68.5253 17.0444 68.6659 16.851C68.8769 15.4975 69.2987 14.4252 69.9315 13.6342C70.5644 12.8256 71.2763 12.2719 72.0673 11.9731C72.8759 11.6742 73.702 11.6127 74.5458 11.7885C75.3895 11.9467 76.1278 12.3246 76.7606 12.9223C77.3935 13.5024 77.8505 14.2846 78.1317 15.269C78.413 16.2533 78.3866 17.4047 78.0526 18.7231C77.7362 20.0414 77.0507 21.518 75.996 23.1528C74.9413 24.7875 73.3944 26.5541 71.3554 28.4526C71.0038 28.7865 70.5819 29.1117 70.0897 29.4281C69.6151 29.727 69.1054 29.9731 68.5604 30.1664C68.0331 30.3598 67.497 30.474 66.952 30.5092C66.4071 30.5444 65.8974 30.4565 65.4228 30.2455ZM64.4999 28.1625C64.6757 28.9535 65.0097 29.4457 65.5019 29.6391C65.994 29.8324 66.5741 29.7973 67.2421 29.5336C67.9101 29.2699 68.6395 28.8217 69.4306 28.1889C70.2216 27.5561 71.0126 26.8178 71.8036 25.974C72.5946 25.1127 73.3505 24.1811 74.0712 23.1791C74.7919 22.1772 75.4159 21.184 75.9433 20.1996C76.4882 19.2153 76.9013 18.2748 77.1825 17.3783C77.4638 16.4819 77.5517 15.7084 77.4462 15.058C77.3583 14.3901 77.0419 13.8891 76.497 13.5551C75.9696 13.2211 75.1522 13.1244 74.0448 13.2651C73.6405 13.6166 73.1044 14.1352 72.4364 14.8207C71.7685 15.4887 71.0565 16.2533 70.3007 17.1147C69.5448 17.976 68.789 18.9076 68.0331 19.9096C67.2772 20.894 66.6093 21.8783 66.0292 22.8627C65.4491 23.8471 65.0097 24.7963 64.7108 25.7104C64.412 26.6244 64.3417 27.4418 64.4999 28.1625Z" fill="white"/>
<path d="M78.2636 30.2455C77.7538 29.8764 77.4198 29.4106 77.2616 28.8481C77.121 28.2856 77.1034 27.6791 77.2089 27.0287C77.3144 26.3608 77.4989 25.6752 77.7626 24.9721C78.0438 24.269 78.3427 23.5922 78.6591 22.9418C78.9931 22.2914 79.3095 21.6938 79.6083 21.1489C79.9247 20.6039 80.1708 20.1557 80.3466 19.8041C80.3993 19.6987 80.5224 19.4438 80.7157 19.0395C80.9267 18.6352 81.1464 18.1957 81.3749 17.7211C81.6034 17.2465 81.8144 16.8071 82.0077 16.4028C82.2187 15.9809 82.3505 15.7172 82.4032 15.6117C82.456 15.5239 82.5263 15.3569 82.6142 15.1108C82.7196 14.8471 82.8339 14.5658 82.9569 14.267C83.08 13.9682 83.2118 13.6869 83.3524 13.4233C83.5106 13.142 83.6688 12.9399 83.827 12.8168C84.0028 12.6938 84.1698 12.6762 84.328 12.7641C84.5038 12.852 84.6708 13.1156 84.829 13.5551C84.7587 13.7309 84.5829 14.0824 84.3017 14.6098C84.038 15.1371 83.7216 15.7699 83.3524 16.5082C82.9833 17.2465 82.5702 18.0639 82.1132 18.9604C81.6737 19.8569 81.2431 20.7621 80.8212 21.6762C80.3993 22.5903 80.0038 23.4867 79.6347 24.3656C79.2655 25.227 78.9579 26.018 78.7118 26.7387C78.4833 27.4418 78.3427 28.0307 78.2899 28.5053C78.2548 28.9623 78.3427 29.2436 78.5536 29.349C78.7997 29.4721 79.1161 29.5248 79.5028 29.5072C79.9071 29.4721 80.3202 29.4194 80.7421 29.349C81.164 29.2787 81.577 29.2084 81.9813 29.1381C82.3856 29.0502 82.7372 29.0151 83.036 29.0326C83.1063 29.1908 83.0536 29.349 82.8778 29.5072C82.702 29.6479 82.456 29.7797 82.1395 29.9028C81.8231 30.0082 81.454 30.1049 81.0321 30.1928C80.6278 30.2631 80.2323 30.3158 79.8456 30.351C79.4765 30.3862 79.1425 30.3949 78.8437 30.3774C78.5624 30.3598 78.369 30.3158 78.2636 30.2455Z" fill="white"/>
<path d="M83.9441 30.2455C84.6648 27.9252 85.3152 26.0883 85.8953 24.7348C86.493 23.3637 86.9851 22.4057 87.3719 21.8608C87.7762 21.3158 88.0486 21.1401 88.1892 21.3334C88.3299 21.5268 88.3123 22.019 88.1365 22.81C87.9783 23.601 87.6267 24.6645 87.0818 26.0004C86.5545 27.3188 85.8074 28.8305 84.8406 30.5356C84.7 30.5883 84.533 30.5971 84.3396 30.5619C84.1463 30.5268 84.0144 30.4213 83.9441 30.2455ZM88.5584 17.5629C88.5232 17.475 88.5056 17.3168 88.5056 17.0883C88.5056 16.8598 88.5232 16.7192 88.5584 16.6664C88.9627 16.5258 89.2703 16.5082 89.4812 16.6137C89.6922 16.7192 89.824 16.8774 89.8767 17.0883C89.9295 17.2817 89.9207 17.4926 89.8504 17.7211C89.7976 17.9496 89.701 18.1254 89.5603 18.2485C89.4197 18.3539 89.2527 18.3715 89.0594 18.3012C88.8836 18.2133 88.7166 17.9672 88.5584 17.5629Z" fill="white"/>
<path d="M90.0993 29.9291C89.7301 29.7182 89.4665 29.3842 89.3083 28.9272C89.1501 28.4701 89.0622 27.9516 89.0446 27.3715C89.027 26.7914 89.0622 26.185 89.1501 25.5522C89.2379 24.9194 89.3434 24.3041 89.4665 23.7065C89.5895 23.1088 89.7126 22.5727 89.8356 22.0981C89.9586 21.6235 90.0465 21.2543 90.0993 20.9906C90.1872 20.9379 90.2751 20.9379 90.3629 20.9906C90.4684 21.0434 90.5651 21.1225 90.653 21.228C90.7585 21.3158 90.8376 21.4037 90.8903 21.4916C90.9606 21.5619 90.9958 21.5971 90.9958 21.5971C91.0485 22.2123 91.0485 22.8188 90.9958 23.4164C90.9606 23.9965 90.9079 24.5766 90.8376 25.1567C90.7848 25.7367 90.7321 26.3256 90.6794 26.9233C90.6442 27.5209 90.6442 28.1274 90.6794 28.7426C90.82 29.0063 91.11 29.0151 91.5495 28.769C91.9889 28.5053 92.5251 28.0922 93.1579 27.5297C93.7907 26.9496 94.4762 26.2729 95.2145 25.4994C95.9704 24.7084 96.7086 23.9262 97.4294 23.1528C98.1676 22.3793 98.862 21.6586 99.5124 20.9906C100.163 20.3051 100.708 19.7865 101.147 19.435C101.604 19.0658 101.921 18.9164 102.096 18.9867C102.272 19.0395 102.246 19.4086 102.017 20.0942C101.595 20.4633 101.094 21.017 100.514 21.7553C99.9342 22.4936 99.3014 23.2934 98.6159 24.1547C97.9303 24.9985 97.2184 25.8422 96.4801 26.686C95.7419 27.5297 94.9948 28.2592 94.2389 28.8744C93.5006 29.4721 92.7799 29.894 92.0768 30.1401C91.3737 30.3686 90.7145 30.2983 90.0993 29.9291Z" fill="white"/>
<path d="M103.084 30.2455C102.556 30.0697 102.152 29.8061 101.871 29.4545C101.607 29.0854 101.431 28.6811 101.343 28.2416C101.255 27.8022 101.238 27.3451 101.291 26.8705C101.361 26.3783 101.466 25.9125 101.607 25.4731C102.134 24.9106 102.723 24.269 103.374 23.5483C104.042 22.81 104.745 22.0893 105.483 21.3862C106.221 20.683 106.986 20.0326 107.777 19.435C108.585 18.8197 109.403 18.3539 110.229 18.0375C110.51 17.9145 110.73 17.9233 110.888 18.0639C111.064 18.1869 111.187 18.3891 111.257 18.6703C111.328 18.9516 111.354 19.2768 111.336 19.6459C111.336 20.0151 111.31 20.3754 111.257 20.727C111.205 21.0785 111.134 21.3949 111.046 21.6762C110.959 21.9574 110.871 22.1508 110.783 22.2563C110.572 22.5024 110.159 22.7924 109.543 23.1264C108.946 23.4604 108.278 23.8295 107.54 24.2338C106.801 24.6205 106.063 25.0248 105.325 25.4467C104.586 25.8686 103.98 26.2905 103.505 26.7123C103.031 27.1166 102.75 27.5209 102.662 27.9252C102.574 28.3295 102.82 28.6987 103.4 29.0326C103.998 29.103 104.718 29.0766 105.562 28.9535C106.423 28.8129 107.293 28.6371 108.172 28.4262C109.069 28.1977 109.93 27.9692 110.756 27.7406C111.583 27.4946 112.259 27.3012 112.787 27.1606L113.103 27.4506C112.716 27.9604 112.084 28.4262 111.205 28.8481C110.326 29.2699 109.377 29.6215 108.357 29.9028C107.337 30.1664 106.344 30.3422 105.377 30.4301C104.411 30.5004 103.646 30.4389 103.084 30.2455ZM109.385 20.1733C109.368 20.1557 109.236 20.2348 108.99 20.4106C108.744 20.5688 108.436 20.7885 108.067 21.0697C107.715 21.3334 107.329 21.6322 106.907 21.9662C106.502 22.2826 106.125 22.5815 105.773 22.8627C105.439 23.144 105.158 23.3901 104.929 23.601C104.701 23.7944 104.604 23.891 104.639 23.891C104.92 23.9438 105.281 23.9086 105.72 23.7856C106.177 23.6449 106.643 23.4516 107.118 23.2055C107.61 22.9594 108.076 22.6869 108.515 22.3881C108.955 22.0717 109.297 21.7641 109.543 21.4653C109.807 21.1664 109.939 20.9028 109.939 20.6742C109.957 20.4457 109.772 20.2787 109.385 20.1733Z" fill="white"/>
<path d="M112.602 30.2455C113.323 27.9252 113.973 26.0883 114.553 24.7348C115.151 23.3637 115.643 22.4057 116.03 21.8608C116.434 21.3158 116.707 21.1401 116.847 21.3334C116.988 21.5268 116.97 22.019 116.794 22.81C116.636 23.601 116.285 24.6645 115.74 26.0004C115.212 27.3188 114.465 28.8305 113.499 30.5356C113.358 30.5883 113.191 30.5971 112.998 30.5619C112.804 30.5268 112.672 30.4213 112.602 30.2455ZM117.216 17.5629C117.181 17.475 117.164 17.3168 117.164 17.0883C117.164 16.8598 117.181 16.7192 117.216 16.6664C117.621 16.5258 117.928 16.5082 118.139 16.6137C118.35 16.7192 118.482 16.8774 118.535 17.0883C118.587 17.2817 118.579 17.4926 118.508 17.7211C118.456 17.9496 118.359 18.1254 118.218 18.2485C118.078 18.3539 117.911 18.3715 117.717 18.3012C117.542 18.2133 117.375 17.9672 117.216 17.5629Z" fill="white"/>
<path d="M118.019 30.2455C117.984 30.228 117.984 30.0258 118.019 29.6391C118.072 29.2348 118.142 28.7338 118.23 28.1362C118.318 27.5385 118.432 26.8793 118.573 26.1586C118.713 25.4379 118.863 24.7524 119.021 24.102C119.179 23.434 119.346 22.8539 119.522 22.3617C119.715 21.852 119.9 21.5004 120.076 21.3071C120.199 21.184 120.322 21.184 120.445 21.3071C120.568 21.4125 120.691 21.5531 120.814 21.7289C120.937 21.8871 121.06 22.0365 121.183 22.1772C121.306 22.3002 121.438 22.309 121.579 22.2035C122.071 21.518 122.607 20.8676 123.187 20.2524C123.785 19.6196 124.444 19.0746 125.164 18.6176C125.235 18.5649 125.428 18.4858 125.745 18.3803C126.061 18.2572 126.421 18.143 126.826 18.0375C127.23 17.9145 127.643 17.8178 128.065 17.7475C128.504 17.6596 128.873 17.6244 129.172 17.642C129.489 17.642 129.7 17.7211 129.805 17.8793C129.928 18.0199 129.875 18.266 129.647 18.6176C128.592 18.6352 127.608 18.9428 126.694 19.5405C125.78 20.1381 124.936 20.8764 124.163 21.7553C123.389 22.6342 122.686 23.5922 122.053 24.6293C121.42 25.6489 120.867 26.5981 120.392 27.477C119.935 28.3559 119.548 29.0854 119.232 29.6655C118.933 30.2455 118.713 30.5356 118.573 30.5356C118.555 30.5356 118.476 30.5004 118.335 30.4301C118.195 30.3422 118.089 30.2807 118.019 30.2455Z" fill="white"/>
<path d="M127.252 29.9291C126.83 29.5776 126.593 29.059 126.54 28.3735C126.505 27.6879 126.601 26.9145 126.83 26.0531C127.076 25.1918 127.427 24.2953 127.885 23.3637C128.359 22.4145 128.904 21.518 129.519 20.6742C130.135 19.8129 130.802 19.0483 131.523 18.3803C132.244 17.6947 132.965 17.1938 133.685 16.8774C134.406 16.5434 135.109 16.4291 135.795 16.5346C136.48 16.6225 137.104 17.018 137.667 17.7211C138.018 18.1606 138.229 18.6088 138.3 19.0658C138.37 19.5053 138.361 19.9623 138.273 20.4369C138.185 20.894 138.045 21.3686 137.851 21.8608C137.658 22.3354 137.465 22.8188 137.271 23.311C137.095 23.8031 136.946 24.3041 136.823 24.8139C136.718 25.3237 136.7 25.8422 136.77 26.3696C136.858 27.0375 137.157 27.433 137.667 27.5561C138.177 27.6791 138.783 27.644 139.486 27.4506C140.207 27.2572 140.963 26.9496 141.754 26.5278C142.545 26.1059 143.274 25.684 143.942 25.2621C144.628 24.8403 145.19 24.4711 145.63 24.1547C146.087 23.8383 146.315 23.6801 146.315 23.6801C146.807 23.5746 147.08 23.6098 147.133 23.7856C147.203 23.9438 147.106 24.1899 146.843 24.5239C146.596 24.8403 146.219 25.2094 145.709 25.6313C145.199 26.0356 144.619 26.4311 143.969 26.8178C143.318 27.2045 142.624 27.5561 141.885 27.8725C141.147 28.1889 140.427 28.4086 139.723 28.5317C139.02 28.6371 138.352 28.6283 137.719 28.5053C137.104 28.3647 136.594 28.0483 136.19 27.5561C135.997 27.3451 135.847 27.1342 135.742 26.9233C135.654 26.7123 135.505 26.5278 135.294 26.3696C135.03 26.6156 134.714 26.9408 134.344 27.3451C133.975 27.7319 133.571 28.1274 133.132 28.5317C132.71 28.9184 132.253 29.2875 131.76 29.6391C131.286 29.9906 130.794 30.2543 130.284 30.4301C129.774 30.6059 129.256 30.6674 128.728 30.6147C128.218 30.5619 127.726 30.3334 127.252 29.9291ZM127.542 29.0326C127.7 29.5951 128.052 29.8588 128.596 29.8237C129.141 29.7709 129.774 29.4985 130.495 29.0063C131.216 28.5141 131.963 27.8461 132.736 27.0024C133.51 26.141 134.204 25.1918 134.819 24.1547C135.434 23.1 135.9 21.9926 136.217 20.8324C136.551 19.6723 136.638 18.5297 136.48 17.4047C136.058 17.0707 135.531 17.0619 134.898 17.3783C134.265 17.6772 133.589 18.1781 132.868 18.8813C132.165 19.5668 131.462 20.393 130.759 21.3598C130.073 22.309 129.467 23.2758 128.939 24.2602C128.412 25.227 128.008 26.141 127.726 27.0024C127.463 27.8637 127.401 28.5405 127.542 29.0326Z" fill="white"/>
<path d="M23.4386 42.3037H21.1531V40.7886H27.5942V42.3037H25.3087V46.9701H23.4386V42.3037Z" fill="white"/>
<path d="M32.7937 44.4075C32.7937 44.823 32.8976 45.1289 33.1054 45.3251C33.3189 45.5214 33.6537 45.6195 34.1096 45.6195C34.5714 45.6195 34.9061 45.5214 35.1139 45.3251C35.3274 45.1289 35.4342 44.823 35.4342 44.4075V40.7886H37.3042V44.2603C37.3042 45.2761 37.0301 46.0091 36.4818 46.4593C35.9335 46.9037 35.1427 47.1259 34.1096 47.1259C33.0823 47.1259 32.2944 46.9037 31.7461 46.4593C31.1978 46.0091 30.9237 45.2761 30.9237 44.2603V40.7886H32.7937V44.4075Z" fill="white"/>
<path d="M41.2331 40.7886H44.1593C45.406 40.7886 46.3467 41.0513 46.9816 41.5765C47.6165 42.0959 47.9339 42.8635 47.9339 43.8794C47.9339 44.8605 47.6021 45.6224 46.9383 46.1649C46.2746 46.7017 45.3223 46.9701 44.0814 46.9701H41.2331V40.7886ZM44.1247 45.4896C45.4002 45.4896 46.038 44.95 46.038 43.8707C46.038 42.8029 45.4233 42.2691 44.1939 42.2691H43.0771V45.4896H44.1247Z" fill="white"/>
<path d="M55.07 47.1259C54.3082 47.1259 53.6531 46.996 53.1048 46.7363C52.5565 46.4766 52.1323 46.1043 51.8322 45.6195C51.5378 45.1347 51.3906 44.5546 51.3906 43.8794C51.3906 43.2041 51.5407 42.624 51.8408 42.1392C52.1409 41.6544 52.568 41.2821 53.1221 41.0224C53.6762 40.7627 54.3371 40.6328 55.1047 40.6328C55.8665 40.6328 56.5216 40.7627 57.0699 41.0224C57.6182 41.2821 58.0396 41.6544 58.3339 42.1392C58.634 42.624 58.7841 43.2041 58.7841 43.8794C58.7841 44.5546 58.634 45.1347 58.3339 45.6195C58.0338 46.1043 57.6067 46.4766 57.0526 46.7363C56.4985 46.996 55.8377 47.1259 55.07 47.1259ZM56.8448 43.8794C56.8448 43.3253 56.689 42.8982 56.3773 42.5981C56.0714 42.2922 55.6414 42.1392 55.0874 42.1392C54.5333 42.1392 54.1004 42.2922 53.7887 42.5981C53.4828 42.9039 53.3299 43.3311 53.3299 43.8794C53.3299 44.4334 53.4828 44.8634 53.7887 45.1693C54.1004 45.4694 54.5333 45.6195 55.0874 45.6195C55.6414 45.6195 56.0714 45.4666 56.3773 45.1607C56.689 44.8548 56.8448 44.4277 56.8448 43.8794Z" fill="white"/>
<path d="M67.4557 40.7886H70.3819C71.6286 40.7886 72.5693 41.0513 73.2042 41.5765C73.8391 42.0959 74.1565 42.8635 74.1565 43.8794C74.1565 44.8605 73.8247 45.6224 73.1609 46.1649C72.4972 46.7017 71.5449 46.9701 70.304 46.9701H67.4557V40.7886ZM70.3473 45.4896C71.6228 45.4896 72.2606 44.95 72.2606 43.8707C72.2606 42.8029 71.6459 42.2691 70.4165 42.2691H69.2997V45.4896H70.3473Z" fill="white"/>
<path d="M77.8903 40.7886H83.3012V42.1479H79.717V43.1521H83.128V44.5113H79.717V45.6108H83.509L83.3358 46.9701H77.8903V40.7886Z" fill="white"/>
<path d="M93.8024 42.3037H91.5168V40.7886H97.958V42.3037H95.6724V46.9701H93.8024V42.3037Z" fill="white"/>
<path d="M101.357 40.7886H106.768V42.1479H103.183V43.1521H106.594V44.5113H103.183V45.6108H106.975L106.802 46.9701H101.357V40.7886Z" fill="white"/>
<path d="M117.438 46.9701H115.247L113.672 44.9009L112.096 46.9701H110.018L112.529 43.7582L110.209 40.7886H112.399L113.698 42.5894L115.066 40.7886H117.143L114.849 43.6975L117.438 46.9701Z" fill="white"/>
<path d="M122.511 42.3037H120.225V40.7886H126.666V42.3037H124.381V46.9701H122.511V42.3037Z" fill="white"/>
<path d="M133.188 47.1259C132.426 47.1259 131.771 46.996 131.223 46.7363C130.675 46.4766 130.251 46.1043 129.95 45.6195C129.656 45.1347 129.509 44.5546 129.509 43.8794C129.509 43.2041 129.659 42.624 129.959 42.1392C130.259 41.6544 130.686 41.2821 131.24 41.0224C131.794 40.7627 132.455 40.6328 133.223 40.6328C133.985 40.6328 134.64 40.7627 135.188 41.0224C135.736 41.2821 136.158 41.6544 136.452 42.1392C136.752 42.624 136.902 43.2041 136.902 43.8794C136.902 44.5546 136.752 45.1347 136.452 45.6195C136.152 46.1043 135.725 46.4766 135.171 46.7363C134.617 46.996 133.956 47.1259 133.188 47.1259ZM134.963 43.8794C134.963 43.3253 134.807 42.8982 134.496 42.5981C134.19 42.2922 133.76 42.1392 133.206 42.1392C132.652 42.1392 132.219 42.2922 131.907 42.5981C131.601 42.9039 131.448 43.3311 131.448 43.8794C131.448 44.4334 131.601 44.8634 131.907 45.1693C132.219 45.4694 132.652 45.6195 133.206 45.6195C133.76 45.6195 134.19 45.4666 134.496 45.1607C134.807 44.8548 134.963 44.4277 134.963 43.8794Z" fill="white"/>
<path d="M21.1602 54.958H22.0082C22.0588 55.2193 22.2775 55.35 22.6642 55.35C23.0588 55.35 23.2562 55.2553 23.2562 55.066C23.2562 54.9993 23.2268 54.946 23.1682 54.906C23.1095 54.8633 23.0135 54.8326 22.8802 54.814L22.3682 54.738C21.9735 54.6766 21.6855 54.574 21.5042 54.43C21.3255 54.286 21.2362 54.0886 21.2362 53.838C21.2362 53.5606 21.3615 53.3446 21.6122 53.19C21.8655 53.0353 22.2135 52.958 22.6562 52.958C23.4748 52.958 23.9335 53.2446 24.0322 53.818L23.2122 53.898C23.1695 53.7806 23.1028 53.6966 23.0122 53.646C22.9215 53.5926 22.7935 53.566 22.6282 53.566C22.4522 53.566 22.3162 53.5873 22.2202 53.63C22.1268 53.6726 22.0802 53.734 22.0802 53.814C22.0802 53.8806 22.1055 53.9313 22.1562 53.966C22.2068 54.0006 22.3002 54.0286 22.4362 54.05L23.0602 54.15C23.4308 54.2086 23.6988 54.3086 23.8642 54.45C24.0295 54.5886 24.1122 54.7846 24.1122 55.038C24.1122 55.342 23.9895 55.5713 23.7442 55.726C23.4988 55.8806 23.1375 55.958 22.6602 55.958C21.7215 55.958 21.2215 55.6246 21.1602 54.958Z" fill="white"/>
<path d="M27.3435 55.958C26.9915 55.958 26.6888 55.898 26.4355 55.778C26.1821 55.658 25.9861 55.486 25.8475 55.262C25.7115 55.038 25.6435 54.77 25.6435 54.458C25.6435 54.146 25.7128 53.878 25.8515 53.654C25.9901 53.43 26.1875 53.258 26.4435 53.138C26.6995 53.018 27.0048 52.958 27.3595 52.958C27.7115 52.958 28.0141 53.018 28.2675 53.138C28.5208 53.258 28.7155 53.43 28.8515 53.654C28.9901 53.878 29.0595 54.146 29.0595 54.458C29.0595 54.77 28.9901 55.038 28.8515 55.262C28.7128 55.486 28.5155 55.658 28.2595 55.778C28.0035 55.898 27.6981 55.958 27.3435 55.958ZM28.1635 54.458C28.1635 54.202 28.0915 54.0046 27.9475 53.866C27.8061 53.7246 27.6075 53.654 27.3515 53.654C27.0955 53.654 26.8955 53.7246 26.7515 53.866C26.6101 54.0073 26.5395 54.2046 26.5395 54.458C26.5395 54.714 26.6101 54.9126 26.7515 55.054C26.8955 55.1926 27.0955 55.262 27.3515 55.262C27.6075 55.262 27.8061 55.1913 27.9475 55.05C28.0915 54.9086 28.1635 54.7113 28.1635 54.458Z" fill="white"/>
<path d="M30.7801 53.03H31.6441V55.186H33.2681L33.1801 55.886H30.7801V53.03Z" fill="white"/>
<path d="M35.6636 54.702C35.6636 54.894 35.7116 55.0353 35.8076 55.126C35.9063 55.2166 36.061 55.262 36.2716 55.262C36.485 55.262 36.6396 55.2166 36.7356 55.126C36.8343 55.0353 36.8836 54.894 36.8836 54.702V53.03H37.7476V54.634C37.7476 55.1033 37.621 55.442 37.3676 55.65C37.1143 55.8553 36.749 55.958 36.2716 55.958C35.797 55.958 35.433 55.8553 35.1796 55.65C34.9263 55.442 34.7996 55.1033 34.7996 54.634V53.03H35.6636V54.702Z" fill="white"/>
<path d="M42.5789 53.974L41.7269 54.066C41.6762 53.9193 41.6002 53.814 41.4989 53.75C41.3975 53.686 41.2602 53.654 41.0869 53.654C40.8495 53.654 40.6642 53.7233 40.5309 53.862C40.3975 53.998 40.3309 54.1966 40.3309 54.458C40.3309 54.7193 40.3975 54.9193 40.5309 55.058C40.6669 55.194 40.8575 55.262 41.1029 55.262C41.4815 55.262 41.7042 55.1153 41.7709 54.822H42.6349C42.6002 55.182 42.4455 55.462 42.1709 55.662C41.8989 55.8593 41.5362 55.958 41.0829 55.958C40.7202 55.958 40.4162 55.894 40.1709 55.766C39.9282 55.638 39.7442 55.462 39.6189 55.238C39.4962 55.0113 39.4349 54.7513 39.4349 54.458C39.4349 54.1726 39.4962 53.9166 39.6189 53.69C39.7442 53.4633 39.9295 53.2846 40.1749 53.154C40.4202 53.0233 40.7255 52.958 41.0909 52.958C41.9149 52.958 42.4109 53.2966 42.5789 53.974ZM40.8749 55.798L41.2549 55.886L41.1789 56.062C41.3469 56.0806 41.4709 56.1206 41.5509 56.182C41.6309 56.246 41.6709 56.3286 41.6709 56.43C41.6709 56.5473 41.6122 56.6393 41.4949 56.706C41.3775 56.7726 41.2122 56.806 40.9989 56.806C40.8042 56.806 40.6509 56.7873 40.5389 56.75V56.426C40.6055 56.4366 40.6642 56.4446 40.7149 56.45C40.7682 56.458 40.8189 56.462 40.8669 56.462C40.9522 56.462 41.0135 56.454 41.0509 56.438C41.0909 56.4246 41.1109 56.4033 41.1109 56.374C41.1109 56.3366 41.0869 56.3113 41.0389 56.298C40.9935 56.2846 40.9149 56.278 40.8029 56.278H40.6629L40.8749 55.798Z" fill="white"/>
<path d="M45.8505 55.958C45.4985 55.958 45.1958 55.898 44.9425 55.778C44.6892 55.658 44.4932 55.486 44.3545 55.262C44.2185 55.038 44.1505 54.77 44.1505 54.458C44.1505 54.146 44.2198 53.878 44.3585 53.654C44.4972 53.43 44.6945 53.258 44.9505 53.138C45.2065 53.018 45.5118 52.958 45.8665 52.958C46.2185 52.958 46.5212 53.018 46.7745 53.138C47.0278 53.258 47.2225 53.43 47.3585 53.654C47.4972 53.878 47.5665 54.146 47.5665 54.458C47.5665 54.77 47.4972 55.038 47.3585 55.262C47.2198 55.486 47.0225 55.658 46.7665 55.778C46.5105 55.898 46.2052 55.958 45.8505 55.958ZM46.6705 54.458C46.6705 54.202 46.5985 54.0046 46.4545 53.866C46.3132 53.7246 46.1145 53.654 45.8585 53.654C45.6025 53.654 45.4025 53.7246 45.2585 53.866C45.1172 54.0073 45.0465 54.2046 45.0465 54.458C45.0465 54.714 45.1172 54.9126 45.2585 55.054C45.4025 55.1926 45.6025 55.262 45.8585 55.262C46.1145 55.262 46.3132 55.1913 46.4545 55.05C46.5985 54.9086 46.6705 54.7113 46.6705 54.458ZM44.9545 52.794C44.9545 52.5566 44.9985 52.386 45.0865 52.282C45.1745 52.178 45.3065 52.126 45.4825 52.126C45.6105 52.126 45.7625 52.17 45.9385 52.258C46.0078 52.2926 46.0612 52.3166 46.0985 52.33C46.1358 52.3433 46.1692 52.35 46.1985 52.35C46.2492 52.35 46.2825 52.334 46.2985 52.302C46.3145 52.2673 46.3225 52.2126 46.3225 52.138H46.7985C46.7985 52.3673 46.7545 52.5366 46.6665 52.646C46.5785 52.7526 46.4465 52.806 46.2705 52.806C46.1452 52.806 45.9972 52.7633 45.8265 52.678C45.6958 52.614 45.6052 52.582 45.5545 52.582C45.5065 52.582 45.4732 52.6006 45.4545 52.638C45.4385 52.6726 45.4305 52.7246 45.4305 52.794H44.9545Z" fill="white"/>
<path d="M49.2871 53.03H51.7871V53.658H50.1311V54.122H51.7071V54.75H50.1311V55.258H51.8831L51.8031 55.886H49.2871V53.03Z" fill="white"/>
<path d="M53.357 54.958H54.205C54.2557 55.2193 54.4744 55.35 54.861 55.35C55.2557 55.35 55.453 55.2553 55.453 55.066C55.453 54.9993 55.4237 54.946 55.365 54.906C55.3064 54.8633 55.2104 54.8326 55.077 54.814L54.565 54.738C54.1704 54.6766 53.8824 54.574 53.701 54.43C53.5224 54.286 53.433 54.0886 53.433 53.838C53.433 53.5606 53.5584 53.3446 53.809 53.19C54.0624 53.0353 54.4104 52.958 54.853 52.958C55.6717 52.958 56.1304 53.2446 56.229 53.818L55.409 53.898C55.3664 53.7806 55.2997 53.6966 55.209 53.646C55.1184 53.5926 54.9904 53.566 54.825 53.566C54.649 53.566 54.513 53.5873 54.417 53.63C54.3237 53.6726 54.277 53.734 54.277 53.814C54.277 53.8806 54.3024 53.9313 54.353 53.966C54.4037 54.0006 54.497 54.0286 54.633 54.05L55.257 54.15C55.6277 54.2086 55.8957 54.3086 56.061 54.45C56.2264 54.5886 56.309 54.7846 56.309 55.038C56.309 55.342 56.1864 55.5713 55.941 55.726C55.6957 55.8806 55.3344 55.958 54.857 55.958C53.9184 55.958 53.4184 55.6246 53.357 54.958Z" fill="white"/>
<path d="M60.2543 53.03H61.6743C62.5303 53.03 62.9583 53.3593 62.9583 54.018C62.9583 54.3566 62.8476 54.6073 62.6263 54.77C62.4076 54.93 62.0743 55.01 61.6263 55.01H61.0903V55.886H60.2543V53.03ZM61.6103 54.37C61.7836 54.37 61.9116 54.3433 61.9943 54.29C62.0769 54.2366 62.1183 54.1446 62.1183 54.014C62.1183 53.8913 62.0783 53.8033 61.9983 53.75C61.9183 53.6966 61.7916 53.67 61.6183 53.67H61.0903V54.37H61.6103Z" fill="white"/>
<path d="M65.2111 53.03H66.2191L67.4591 55.886H66.5631L66.3511 55.366H65.0471L64.8471 55.886H63.9711L65.2111 53.03ZM66.1111 54.726L65.7031 53.682L65.2951 54.726H66.1111Z" fill="white"/>
<path d="M69.0215 53.03H70.4895C71.3455 53.03 71.7735 53.346 71.7735 53.978C71.7735 54.1806 71.7308 54.346 71.6455 54.474C71.5601 54.5993 71.4348 54.6993 71.2695 54.774L71.9695 55.886H71.0455L70.4815 54.938H69.8295V55.886H69.0215V53.03ZM70.4375 54.322C70.6135 54.322 70.7415 54.2966 70.8215 54.246C70.9041 54.1926 70.9455 54.1046 70.9455 53.982C70.9455 53.8593 70.9068 53.7726 70.8295 53.722C70.7521 53.6713 70.6241 53.646 70.4455 53.646H69.8295V54.322H70.4375Z" fill="white"/>
<path d="M74.5212 53.03H75.5292L76.7692 55.886H75.8732L75.6612 55.366H74.3572L74.1572 55.886H73.2812L74.5212 53.03ZM75.4212 54.726L75.0132 53.682L74.6052 54.726H75.4212Z" fill="white"/>
<path d="M81.5736 53.03H82.5816L83.8216 55.886H82.9256L82.7136 55.366H81.4096L81.2096 55.886H80.3336L81.5736 53.03ZM82.4736 54.726L82.0656 53.682L81.6576 54.726H82.4736Z" fill="white"/>
<path d="M90.6859 53.974L89.8339 54.066C89.7832 53.9193 89.7072 53.814 89.6059 53.75C89.5046 53.686 89.3672 53.654 89.1939 53.654C88.9566 53.654 88.7712 53.7233 88.6379 53.862C88.5046 53.998 88.4379 54.1966 88.4379 54.458C88.4379 54.7193 88.5046 54.9193 88.6379 55.058C88.7739 55.194 88.9646 55.262 89.2099 55.262C89.5886 55.262 89.8112 55.1153 89.8779 54.822H90.7419C90.7072 55.182 90.5526 55.462 90.2779 55.662C90.0059 55.8593 89.6432 55.958 89.1899 55.958C88.8272 55.958 88.5232 55.894 88.2779 55.766C88.0352 55.638 87.8512 55.462 87.7259 55.238C87.6032 55.0113 87.5419 54.7513 87.5419 54.458C87.5419 54.1726 87.6032 53.9166 87.7259 53.69C87.8512 53.4633 88.0366 53.2846 88.2819 53.154C88.5272 53.0233 88.8326 52.958 89.1979 52.958C90.0219 52.958 90.5179 53.2966 90.6859 53.974Z" fill="white"/>
<path d="M93.9575 55.958C93.6055 55.958 93.3029 55.898 93.0495 55.778C92.7962 55.658 92.6002 55.486 92.4615 55.262C92.3255 55.038 92.2575 54.77 92.2575 54.458C92.2575 54.146 92.3269 53.878 92.4655 53.654C92.6042 53.43 92.8015 53.258 93.0575 53.138C93.3135 53.018 93.6189 52.958 93.9735 52.958C94.3255 52.958 94.6282 53.018 94.8815 53.138C95.1349 53.258 95.3295 53.43 95.4655 53.654C95.6042 53.878 95.6735 54.146 95.6735 54.458C95.6735 54.77 95.6042 55.038 95.4655 55.262C95.3269 55.486 95.1295 55.658 94.8735 55.778C94.6175 55.898 94.3122 55.958 93.9575 55.958ZM94.7775 54.458C94.7775 54.202 94.7055 54.0046 94.5615 53.866C94.4202 53.7246 94.2215 53.654 93.9655 53.654C93.7095 53.654 93.5095 53.7246 93.3655 53.866C93.2242 54.0073 93.1535 54.2046 93.1535 54.458C93.1535 54.714 93.2242 54.9126 93.3655 55.054C93.5095 55.1926 93.7095 55.262 93.9655 55.262C94.2215 55.262 94.4202 55.1913 94.5615 55.05C94.7055 54.9086 94.7775 54.7113 94.7775 54.458Z" fill="white"/>
<path d="M97.3941 53.03H98.3701L99.2301 54.962L100.086 53.03H101.042V55.886H100.25V54.222L99.5261 55.886H98.8941L98.1741 54.23V55.886H97.3941V53.03Z" fill="white"/>
<path d="M103.727 54.702C103.727 54.894 103.775 55.0353 103.871 55.126C103.97 55.2166 104.124 55.262 104.335 55.262C104.548 55.262 104.703 55.2166 104.799 55.126C104.898 55.0353 104.947 54.894 104.947 54.702V53.03H105.811V54.634C105.811 55.1033 105.684 55.442 105.431 55.65C105.178 55.8553 104.812 55.958 104.335 55.958C103.86 55.958 103.496 55.8553 103.243 55.65C102.99 55.442 102.863 55.1033 102.863 54.634V53.03H103.727V54.702Z" fill="white"/>
<path d="M107.626 53.03H108.394L109.822 54.746V53.03H110.638V55.886H109.87L108.442 54.17V55.886H107.626V53.03Z" fill="white"/>
<path d="M112.486 53.03H113.35V55.886H112.486V53.03Z" fill="white"/>
<path d="M118.214 53.974L117.362 54.066C117.311 53.9193 117.235 53.814 117.134 53.75C117.033 53.686 116.895 53.654 116.722 53.654C116.485 53.654 116.299 53.7233 116.166 53.862C116.033 53.998 115.966 54.1966 115.966 54.458C115.966 54.7193 116.033 54.9193 116.166 55.058C116.302 55.194 116.493 55.262 116.738 55.262C117.117 55.262 117.339 55.1153 117.406 54.822H118.27C118.235 55.182 118.081 55.462 117.806 55.662C117.534 55.8593 117.171 55.958 116.718 55.958C116.355 55.958 116.051 55.894 115.806 55.766C115.563 55.638 115.379 55.462 115.254 55.238C115.131 55.0113 115.07 54.7513 115.07 54.458C115.07 54.1726 115.131 53.9166 115.254 53.69C115.379 53.4633 115.565 53.2846 115.81 53.154C116.055 53.0233 116.361 52.958 116.726 52.958C117.55 52.958 118.046 53.2966 118.214 53.974Z" fill="white"/>
<path d="M120.768 53.03H121.776L123.016 55.886H122.12L121.908 55.366H120.604L120.404 55.886H119.528L120.768 53.03ZM121.668 54.726L121.26 53.682L120.852 54.726H121.668Z" fill="white"/>
<path d="M127.419 53.974L126.567 54.066C126.516 53.9193 126.44 53.814 126.339 53.75C126.237 53.686 126.1 53.654 125.927 53.654C125.689 53.654 125.504 53.7233 125.371 53.862C125.237 53.998 125.171 54.1966 125.171 54.458C125.171 54.7193 125.237 54.9193 125.371 55.058C125.507 55.194 125.697 55.262 125.943 55.262C126.321 55.262 126.544 55.1153 126.611 54.822H127.475C127.44 55.182 127.285 55.462 127.011 55.662C126.739 55.8593 126.376 55.958 125.923 55.958C125.56 55.958 125.256 55.894 125.011 55.766C124.768 55.638 124.584 55.462 124.459 55.238C124.336 55.0113 124.275 54.7513 124.275 54.458C124.275 54.1726 124.336 53.9166 124.459 53.69C124.584 53.4633 124.769 53.2846 125.015 53.154C125.26 53.0233 125.565 52.958 125.931 52.958C126.755 52.958 127.251 53.2966 127.419 53.974ZM125.715 55.798L126.095 55.886L126.019 56.062C126.187 56.0806 126.311 56.1206 126.391 56.182C126.471 56.246 126.511 56.3286 126.511 56.43C126.511 56.5473 126.452 56.6393 126.335 56.706C126.217 56.7726 126.052 56.806 125.839 56.806C125.644 56.806 125.491 56.7873 125.379 56.75V56.426C125.445 56.4366 125.504 56.4446 125.555 56.45C125.608 56.458 125.659 56.462 125.707 56.462C125.792 56.462 125.853 56.454 125.891 56.438C125.931 56.4246 125.951 56.4033 125.951 56.374C125.951 56.3366 125.927 56.3113 125.879 56.298C125.833 56.2846 125.755 56.278 125.643 56.278H125.503L125.715 55.798Z" fill="white"/>
<path d="M129.973 53.03H130.981L132.221 55.886H131.325L131.113 55.366H129.809L129.609 55.886H128.733L129.973 53.03ZM130.873 54.726L130.465 53.682L130.057 54.726H130.873ZM129.573 52.794C129.573 52.5566 129.617 52.386 129.705 52.282C129.793 52.178 129.925 52.126 130.101 52.126C130.229 52.126 130.381 52.17 130.557 52.258C130.626 52.2926 130.679 52.3166 130.717 52.33C130.754 52.3433 130.787 52.35 130.817 52.35C130.867 52.35 130.901 52.334 130.917 52.302C130.933 52.2673 130.941 52.2126 130.941 52.138H131.417C131.417 52.3673 131.373 52.5366 131.285 52.646C131.197 52.7526 131.065 52.806 130.889 52.806C130.763 52.806 130.615 52.7633 130.445 52.678C130.314 52.614 130.223 52.582 130.173 52.582C130.125 52.582 130.091 52.6006 130.073 52.638C130.057 52.6726 130.049 52.7246 130.049 52.794H129.573Z" fill="white"/>
<path d="M135.179 55.958C134.827 55.958 134.525 55.898 134.271 55.778C134.018 55.658 133.822 55.486 133.683 55.262C133.547 55.038 133.479 54.77 133.479 54.458C133.479 54.146 133.549 53.878 133.687 53.654C133.826 53.43 134.023 53.258 134.279 53.138C134.535 53.018 134.841 52.958 135.195 52.958C135.547 52.958 135.85 53.018 136.103 53.138C136.357 53.258 136.551 53.43 136.687 53.654C136.826 53.878 136.895 54.146 136.895 54.458C136.895 54.77 136.826 55.038 136.687 55.262C136.549 55.486 136.351 55.658 136.095 55.778C135.839 55.898 135.534 55.958 135.179 55.958ZM135.999 54.458C135.999 54.202 135.927 54.0046 135.783 53.866C135.642 53.7246 135.443 53.654 135.187 53.654C134.931 53.654 134.731 53.7246 134.587 53.866C134.446 54.0073 134.375 54.2046 134.375 54.458C134.375 54.714 134.446 54.9126 134.587 55.054C134.731 55.1926 134.931 55.262 135.187 55.262C135.443 55.262 135.642 55.1913 135.783 55.05C135.927 54.9086 135.999 54.7113 135.999 54.458Z" fill="white"/>
<path d="M53.3204 60.958C52.9684 60.958 52.6658 60.898 52.4124 60.778C52.1591 60.658 51.9631 60.486 51.8244 60.262C51.6884 60.038 51.6204 59.77 51.6204 59.458C51.6204 59.146 51.6898 58.878 51.8284 58.654C51.9671 58.43 52.1644 58.258 52.4204 58.138C52.6764 58.018 52.9818 57.958 53.3364 57.958C53.6884 57.958 53.9911 58.018 54.2444 58.138C54.4978 58.258 54.6924 58.43 54.8284 58.654C54.9671 58.878 55.0364 59.146 55.0364 59.458C55.0364 59.77 54.9671 60.038 54.8284 60.262C54.6898 60.486 54.4924 60.658 54.2364 60.778C53.9804 60.898 53.6751 60.958 53.3204 60.958ZM54.1404 59.458C54.1404 59.202 54.0684 59.0046 53.9244 58.866C53.7831 58.7246 53.5844 58.654 53.3284 58.654C53.0724 58.654 52.8724 58.7246 52.7284 58.866C52.5871 59.0073 52.5164 59.2046 52.5164 59.458C52.5164 59.714 52.5871 59.9126 52.7284 60.054C52.8724 60.1926 53.0724 60.262 53.3284 60.262C53.5844 60.262 53.7831 60.1913 53.9244 60.05C54.0684 59.9086 54.1404 59.7113 54.1404 59.458Z" fill="white"/>
<path d="M56.757 58.03H58.225C59.081 58.03 59.509 58.346 59.509 58.978C59.509 59.1806 59.4664 59.346 59.381 59.474C59.2957 59.5993 59.1703 59.6993 59.005 59.774L59.705 60.886H58.781L58.217 59.938H57.565V60.886H56.757V58.03ZM58.173 59.322C58.349 59.322 58.477 59.2966 58.557 59.246C58.6397 59.1926 58.681 59.1046 58.681 58.982C58.681 58.8593 58.6423 58.7726 58.565 58.722C58.4877 58.6713 58.3597 58.646 58.181 58.646H57.565V59.322H58.173Z" fill="white"/>
<path d="M62.2568 58.03H63.2648L64.5048 60.886H63.6088L63.3968 60.366H62.0928L61.8928 60.886H61.0168L62.2568 58.03ZM63.1568 59.726L62.7488 58.682L62.3408 59.726H63.1568Z" fill="white"/>
<path d="M66.0672 58.03H66.9312V60.186H68.5552L68.4672 60.886H66.0672V58.03Z" fill="white"/>
<path d="M72.4594 58.03H74.9594V58.658H73.3034V59.122H74.8794V59.75H73.3034V60.258H75.0554L74.9754 60.886H72.4594V58.03Z" fill="white"/>
<path d="M79.0312 58.03H81.5312V58.658H79.8752V59.122H81.4512V59.75H79.8752V60.258H81.6272L81.5472 60.886H79.0312V58.03Z" fill="white"/>
<path d="M83.1012 59.958H83.9492C83.9998 60.2193 84.2185 60.35 84.6052 60.35C84.9998 60.35 85.1972 60.2553 85.1972 60.066C85.1972 59.9993 85.1678 59.946 85.1092 59.906C85.0505 59.8633 84.9545 59.8326 84.8212 59.814L84.3092 59.738C83.9145 59.6766 83.6265 59.574 83.4452 59.43C83.2665 59.286 83.1772 59.0886 83.1772 58.838C83.1772 58.5606 83.3025 58.3446 83.5532 58.19C83.8065 58.0353 84.1545 57.958 84.5972 57.958C85.4158 57.958 85.8745 58.2446 85.9732 58.818L85.1532 58.898C85.1105 58.7806 85.0438 58.6966 84.9532 58.646C84.8625 58.5926 84.7345 58.566 84.5692 58.566C84.3932 58.566 84.2572 58.5873 84.1612 58.63C84.0678 58.6726 84.0212 58.734 84.0212 58.814C84.0212 58.8806 84.0465 58.9313 84.0972 58.966C84.1478 59.0006 84.2412 59.0286 84.3772 59.05L85.0012 59.15C85.3718 59.2086 85.6398 59.3086 85.8052 59.45C85.9705 59.5886 86.0532 59.7846 86.0532 60.038C86.0532 60.342 85.9305 60.5713 85.6852 60.726C85.4398 60.8806 85.0785 60.958 84.6012 60.958C83.6625 60.958 83.1625 60.6246 83.1012 59.958Z" fill="white"/>
<path d="M90.7285 58.974L89.8765 59.066C89.8258 58.9193 89.7498 58.814 89.6485 58.75C89.5472 58.686 89.4098 58.654 89.2365 58.654C88.9992 58.654 88.8138 58.7233 88.6805 58.862C88.5472 58.998 88.4805 59.1966 88.4805 59.458C88.4805 59.7193 88.5472 59.9193 88.6805 60.058C88.8165 60.194 89.0072 60.262 89.2525 60.262C89.6312 60.262 89.8538 60.1153 89.9205 59.822H90.7845C90.7498 60.182 90.5952 60.462 90.3205 60.662C90.0485 60.8593 89.6858 60.958 89.2325 60.958C88.8698 60.958 88.5658 60.894 88.3205 60.766C88.0778 60.638 87.8938 60.462 87.7685 60.238C87.6458 60.0113 87.5845 59.7513 87.5845 59.458C87.5845 59.1726 87.6458 58.9166 87.7685 58.69C87.8938 58.4633 88.0792 58.2846 88.3245 58.154C88.5698 58.0233 88.8752 57.958 89.2405 57.958C90.0645 57.958 90.5605 58.2966 90.7285 58.974Z" fill="white"/>
<path d="M92.4281 58.03H93.8961C94.7521 58.03 95.1801 58.346 95.1801 58.978C95.1801 59.1806 95.1374 59.346 95.0521 59.474C94.9668 59.5993 94.8414 59.6993 94.6761 59.774L95.3761 60.886H94.4521L93.8881 59.938H93.2361V60.886H92.4281V58.03ZM93.8441 59.322C94.0201 59.322 94.1481 59.2966 94.2281 59.246C94.3108 59.1926 94.3521 59.1046 94.3521 58.982C94.3521 58.8593 94.3134 58.7726 94.2361 58.722C94.1588 58.6713 94.0308 58.646 93.8521 58.646H93.2361V59.322H93.8441Z" fill="white"/>
<path d="M96.9367 58.03H97.8007V60.886H96.9367V58.03Z" fill="white"/>
<path d="M100.428 58.73H99.3724V58.03H102.348V58.73H101.292V60.886H100.428V58.73Z" fill="white"/>
<path d="M104.433 58.03H105.441L106.681 60.886H105.785L105.573 60.366H104.269L104.069 60.886H103.193L104.433 58.03ZM105.333 59.726L104.925 58.682L104.517 59.726H105.333Z" fill="white"/>
</svg>
