<svg width="158" height="58" viewBox="0 0 158 58" fill="none" xmlns="http://www.w3.org/2000/svg">
<path d="M13.2344 29.9721C12.1556 29.5477 11.4128 28.9729 11.0061 28.2478C10.5993 27.5227 10.4313 26.7181 10.502 25.8338C10.5905 24.9319 10.8734 23.9769 11.3509 22.9688C11.8461 21.9431 12.4474 20.9174 13.1548 19.8916C13.8799 18.8659 14.6757 17.8667 15.5423 16.894C16.4089 15.9213 17.2666 15.0282 18.1155 14.2147C18.9644 13.4012 19.7602 12.6938 20.503 12.0925C21.2457 11.4912 21.847 11.0491 22.3068 10.7661C22.9435 10.377 23.4741 10.1914 23.8985 10.209C24.3229 10.209 24.659 10.3417 24.9066 10.607C25.1718 10.8545 25.3487 11.2082 25.4371 11.6681C25.5432 12.1102 25.5874 12.5877 25.5697 13.1006C25.5697 13.5957 25.5167 14.0998 25.4106 14.6126C25.3221 15.1078 25.1984 15.5411 25.0392 15.9125C24.8977 16.2839 24.7385 16.558 24.5617 16.7348C24.4025 16.9117 24.2434 16.9205 24.0842 16.7614C24.0665 16.6199 24.0842 16.4077 24.1372 16.1247C24.1903 15.8241 24.2522 15.488 24.3229 15.1167C24.4114 14.7453 24.491 14.365 24.5617 13.976C24.6324 13.5869 24.6766 13.2332 24.6943 12.9149C24.7297 12.5788 24.7209 12.2959 24.6678 12.066C24.6324 11.8361 24.5352 11.7034 24.376 11.6681C23.757 11.5089 23.0142 11.6592 22.1477 12.119C21.2988 12.5612 20.4057 13.2067 19.4684 14.0555C18.5488 14.8867 17.6291 15.8594 16.7095 16.9736C15.8076 18.0701 14.9852 19.2019 14.2424 20.3691C13.4997 21.5363 12.8895 22.677 12.412 23.7912C11.9345 24.8877 11.6604 25.8603 11.5897 26.7092C11.5366 27.5404 11.7223 28.1859 12.1468 28.6457C12.5889 29.0879 13.3582 29.2293 14.4547 29.0702C15.4627 28.9287 16.3912 28.575 17.2401 28.0091C18.1066 27.4255 18.9378 26.7888 19.7337 26.0991C20.5472 25.3917 21.3518 24.702 22.1477 24.0299C22.9435 23.3402 23.7747 22.8185 24.6413 22.4648C24.9596 22.341 25.2072 22.3852 25.384 22.5974C25.5786 22.8097 25.6316 23.0661 25.5432 23.3667C25.4371 23.6674 25.1188 24.0653 24.5882 24.5605C24.0754 25.0557 23.4298 25.5774 22.6517 26.1256C21.8912 26.6562 21.0512 27.1956 20.1316 27.7438C19.212 28.2744 18.31 28.7342 17.4258 29.1232C16.5592 29.5123 15.7457 29.7953 14.9852 29.9721C14.2424 30.149 13.6588 30.149 13.2344 29.9721Z" fill="#FF9A2E"/>
<path d="M26.1915 29.9721C26.1562 29.9544 26.1562 29.7511 26.1915 29.362C26.2446 28.9552 26.3153 28.4512 26.4038 27.8499C26.4922 27.2486 26.6071 26.5854 26.7486 25.8603C26.8901 25.1353 27.0404 24.4455 27.1996 23.7912C27.3588 23.1192 27.5268 22.5355 27.7036 22.0404C27.8982 21.5275 28.0839 21.1738 28.2607 20.9793C28.3845 20.8555 28.5083 20.8555 28.6321 20.9793C28.7559 21.0854 28.8797 21.2268 29.0035 21.4037C29.1273 21.5629 29.2511 21.7132 29.3749 21.8547C29.4987 21.9785 29.6313 21.9873 29.7728 21.8812C30.268 21.1915 30.8074 20.5371 31.391 19.9182C31.9923 19.2815 32.6554 18.7333 33.3805 18.2734C33.4513 18.2204 33.6458 18.1408 33.9641 18.0347C34.2825 17.9109 34.645 17.7959 35.0518 17.6898C35.4585 17.566 35.8741 17.4688 36.2986 17.398C36.7407 17.3096 37.1121 17.2742 37.4127 17.2919C37.7311 17.2919 37.9433 17.3715 38.0494 17.5307C38.1732 17.6721 38.1201 17.9197 37.8902 18.2734C36.8291 18.2911 35.8388 18.6006 34.9191 19.2019C33.9995 19.8032 33.1506 20.546 32.3725 21.4302C31.5943 22.3145 30.8869 23.2783 30.2503 24.3217C29.6136 25.3475 29.0565 26.3025 28.579 27.1867C28.1192 28.071 27.7302 28.8049 27.4118 29.3885C27.1112 29.9721 26.8901 30.2639 26.7486 30.2639C26.7309 30.2639 26.6514 30.2286 26.5099 30.1578C26.3684 30.0694 26.2623 30.0075 26.1915 29.9721Z" fill="#FF9A2E"/>
<path d="M36.8408 29.9721C37.5659 27.6377 38.2202 25.7896 38.8038 24.4278C39.4051 23.0484 39.9003 22.0846 40.2894 21.5363C40.6961 20.9881 40.9703 20.8112 41.1117 21.0058C41.2532 21.2003 41.2355 21.6955 41.0587 22.4913C40.8995 23.2872 40.5458 24.3571 39.9976 25.7012C39.467 27.0276 38.7154 28.5485 37.7427 30.2639C37.6013 30.317 37.4332 30.3258 37.2387 30.2905C37.0442 30.2551 36.9115 30.149 36.8408 29.9721ZM41.4831 17.2123C41.4478 17.1239 41.4301 16.9647 41.4301 16.7348C41.4301 16.5049 41.4478 16.3634 41.4831 16.3104C41.8899 16.1689 42.1994 16.1512 42.4116 16.2573C42.6238 16.3634 42.7565 16.5226 42.8095 16.7348C42.8626 16.9294 42.8537 17.1416 42.783 17.3715C42.7299 17.6014 42.6327 17.7783 42.4912 17.9021C42.3497 18.0082 42.1817 18.0258 41.9872 17.9551C41.8103 17.8667 41.6423 17.6191 41.4831 17.2123Z" fill="#FF9A2E"/>
<path d="M42.2906 29.9721C42.0784 29.8306 42.0696 29.6449 42.2641 29.415C42.4763 29.1674 42.8035 28.911 43.2456 28.6457C43.7054 28.3628 44.236 28.071 44.8373 27.7703C45.4386 27.4697 46.0133 27.1867 46.5616 26.9214C47.1275 26.6562 47.6227 26.4263 48.0471 26.2317C48.4716 26.0195 48.7457 25.8603 48.8695 25.7542C49.4531 25.259 49.7537 24.8523 49.7714 24.534C49.8068 24.1979 49.6653 23.9327 49.347 23.7381C49.0287 23.5259 48.5777 23.3667 47.9941 23.2606C47.4282 23.1368 46.8357 23.0307 46.2167 22.9423C45.6154 22.8362 45.0318 22.7301 44.4659 22.624C43.9177 22.5179 43.5021 22.3764 43.2191 22.1995C42.9361 22.0227 42.8389 21.7928 42.9273 21.5098C43.0334 21.2092 43.4225 20.8289 44.0945 20.3691C44.3421 20.1923 44.7047 19.9358 45.1821 19.5998C45.6596 19.2638 46.1725 18.9189 46.7207 18.5652C47.2867 18.2115 47.8438 17.8932 48.392 17.6102C48.9402 17.3273 49.4 17.1416 49.7714 17.0532C49.966 17.0178 50.1605 17.0355 50.355 17.1062C50.5673 17.177 50.7353 17.2831 50.8591 17.4246C50.9829 17.5483 51.0359 17.6898 51.0182 17.849C51.0182 18.0082 50.9033 18.1496 50.6734 18.2734C49.6653 18.8394 48.6926 19.3699 47.7553 19.8651C46.8357 20.3603 45.9072 20.9262 44.9699 21.5629C44.9169 21.7043 44.9257 21.8281 44.9965 21.9342C45.0849 22.0404 45.1821 22.1199 45.2883 22.173C47.1629 22.3675 48.5688 22.6417 49.5062 22.9954C50.4611 23.3491 51.0624 23.7381 51.31 24.1626C51.5753 24.587 51.5488 25.038 51.2304 25.5155C50.9121 25.993 50.4346 26.4616 49.798 26.9214C49.179 27.3813 48.4627 27.8145 47.6492 28.2213C46.8357 28.6281 46.0487 28.9729 45.2883 29.2559C44.5455 29.5388 43.8911 29.7511 43.3252 29.8925C42.7593 30.034 42.4144 30.0605 42.2906 29.9721Z" fill="#FF9A2E"/>
<path d="M65.34 29.9721C64.4557 29.6007 63.8721 29.0879 63.5891 28.4335C63.3062 27.7615 63.2089 27.0452 63.2973 26.2848C63.3858 25.5066 63.598 24.7285 63.934 23.9503C64.2877 23.1722 64.6502 22.4825 65.0216 21.8812C65.1454 21.669 65.3753 21.3064 65.7113 20.7936C66.0474 20.2807 66.4011 19.7413 66.7724 19.1754C67.1615 18.5918 67.5241 18.0524 67.8601 17.5572C68.2138 17.0443 68.4614 16.6906 68.6029 16.4961C68.8151 15.1343 69.2395 14.0555 69.8762 13.2597C70.5128 12.4462 71.2291 11.8891 72.0249 11.5885C72.8384 11.2878 73.6696 11.2259 74.5185 11.4028C75.3674 11.5619 76.1102 11.9422 76.7468 12.5435C77.3835 13.1271 77.8433 13.9141 78.1263 14.9044C78.4092 15.8948 78.3827 17.0532 78.0467 18.3795C77.7284 19.7059 77.0386 21.1915 75.9775 22.8362C74.9164 24.4809 73.3601 26.2583 71.3087 28.1682C70.955 28.5043 70.5305 28.8314 70.0353 29.1498C69.5578 29.4504 69.045 29.698 68.4967 29.8925C67.9662 30.0871 67.4268 30.202 66.8786 30.2374C66.3303 30.2728 65.8175 30.1843 65.34 29.9721ZM64.4115 27.8764C64.5883 28.6723 64.9244 29.1674 65.4195 29.362C65.9147 29.5565 66.4983 29.5212 67.1704 29.2559C67.8424 28.9906 68.5763 28.5396 69.3722 27.903C70.168 27.2663 70.9638 26.5235 71.7596 25.6746C72.5555 24.8081 73.3159 23.8708 74.041 22.8627C74.7661 21.8547 75.3939 20.8555 75.9245 19.8651C76.4727 18.8747 76.8883 17.9286 77.1713 17.0266C77.4542 16.1247 77.5427 15.3466 77.4366 14.6922C77.3481 14.0202 77.0298 13.5161 76.4816 13.1801C75.951 12.8441 75.1287 12.7468 74.0145 12.8883C73.6077 13.242 73.0683 13.7637 72.3963 14.4535C71.7243 15.1255 71.008 15.8948 70.2476 16.7614C69.4871 17.6279 68.7267 18.5652 67.9662 19.5733C67.2057 20.5637 66.5337 21.554 65.9501 22.5444C65.3665 23.5347 64.9244 24.4897 64.6237 25.4094C64.3231 26.329 64.2523 27.1514 64.4115 27.8764Z" fill="#FF9A2E"/>
<path d="M78.2589 29.9721C77.746 29.6007 77.41 29.1321 77.2509 28.5662C77.1094 28.0002 77.0917 27.3901 77.1978 26.7358C77.3039 26.0637 77.4896 25.374 77.7549 24.6666C78.0378 23.9592 78.3385 23.2783 78.6568 22.624C78.9928 21.9696 79.3112 21.3683 79.6118 20.8201C79.9302 20.2719 80.1777 19.8209 80.3546 19.4672C80.4076 19.3611 80.5314 19.1046 80.726 18.6979C80.9382 18.2911 81.1593 17.849 81.3892 17.3715C81.6191 16.894 81.8313 16.4519 82.0258 16.0451C82.2381 15.6207 82.3707 15.3554 82.4238 15.2493C82.4768 15.1609 82.5475 14.9929 82.636 14.7453C82.7421 14.48 82.857 14.197 82.9808 13.8964C83.1046 13.5957 83.2373 13.3128 83.3787 13.0475C83.5379 12.7645 83.6971 12.5612 83.8562 12.4374C84.0331 12.3136 84.2011 12.2959 84.3603 12.3843C84.5371 12.4727 84.7051 12.738 84.8643 13.1801C84.7935 13.357 84.6167 13.7107 84.3337 14.2412C84.0685 14.7718 83.7501 15.4085 83.3787 16.1512C83.0074 16.894 82.5918 17.7164 82.1319 18.6183C81.6898 19.5202 81.2565 20.431 80.8321 21.3506C80.4076 22.2703 80.0097 23.1722 79.6384 24.0565C79.267 24.923 78.9575 25.7189 78.7099 26.4439C78.48 27.1514 78.3385 27.7438 78.2854 28.2213C78.2501 28.6811 78.3385 28.9641 78.5507 29.0702C78.7983 29.194 79.1166 29.247 79.5057 29.2293C79.9125 29.194 80.3281 29.1409 80.7525 29.0702C81.1769 28.9994 81.5926 28.9287 81.9993 28.858C82.4061 28.7695 82.7598 28.7342 83.0604 28.7519C83.1311 28.911 83.0781 29.0702 82.9012 29.2293C82.7244 29.3708 82.4768 29.5035 82.1585 29.6273C81.8401 29.7334 81.4688 29.8306 81.0443 29.9191C80.6376 29.9898 80.2396 30.0429 79.8506 30.0782C79.4792 30.1136 79.1432 30.1224 78.8425 30.1048C78.5596 30.0871 78.365 30.0429 78.2589 29.9721Z" fill="#FF9A2E"/>
<path d="M83.974 29.9721C84.6991 27.6377 85.3535 25.7896 85.9371 24.4278C86.5384 23.0484 87.0335 22.0846 87.4226 21.5363C87.8294 20.9881 88.1035 20.8112 88.245 21.0058C88.3865 21.2003 88.3688 21.6955 88.1919 22.4913C88.0328 23.2872 87.6791 24.3571 87.1308 25.7012C86.6003 27.0276 85.8486 28.5485 84.876 30.2639C84.7345 30.317 84.5665 30.3258 84.3719 30.2905C84.1774 30.2551 84.0448 30.149 83.974 29.9721ZM88.6164 17.2123C88.581 17.1239 88.5633 16.9647 88.5633 16.7348C88.5633 16.5049 88.581 16.3634 88.6164 16.3104C89.0231 16.1689 89.3326 16.1512 89.5448 16.2573C89.757 16.3634 89.8897 16.5226 89.9427 16.7348C89.9958 16.9294 89.987 17.1416 89.9162 17.3715C89.8632 17.6014 89.7659 17.7783 89.6244 17.9021C89.4829 18.0082 89.3149 18.0258 89.1204 17.9551C88.9435 17.8667 88.7755 17.6191 88.6164 17.2123Z" fill="#FF9A2E"/>
<path d="M90.1666 29.6538C89.7953 29.4416 89.53 29.1056 89.3708 28.6457C89.2116 28.1859 89.1232 27.6642 89.1055 27.0806C89.0878 26.497 89.1232 25.8869 89.2116 25.2502C89.3001 24.6135 89.4062 23.9946 89.53 23.3933C89.6538 22.792 89.7776 22.2526 89.9014 21.7751C90.0252 21.2976 90.1136 20.9262 90.1666 20.6609C90.2551 20.6079 90.3435 20.6079 90.4319 20.6609C90.538 20.714 90.6353 20.7936 90.7237 20.8997C90.8298 20.9881 90.9094 21.0765 90.9625 21.1649C91.0332 21.2357 91.0686 21.2711 91.0686 21.2711C91.1216 21.89 91.1216 22.5002 91.0686 23.1015C91.0332 23.6851 90.9802 24.2687 90.9094 24.8523C90.8564 25.4359 90.8033 26.0283 90.7503 26.6296C90.7149 27.2309 90.7149 27.8411 90.7503 28.46C90.8917 28.7253 91.1835 28.7342 91.6257 28.4866C92.0678 28.2213 92.6072 27.8057 93.2439 27.2398C93.8805 26.6562 94.5702 25.9753 95.313 25.1971C96.0735 24.4013 96.8162 23.6143 97.5413 22.8362C98.2841 22.058 98.9827 21.333 99.637 20.6609C100.291 19.9712 100.84 19.4495 101.282 19.0958C101.742 18.7244 102.06 18.5741 102.237 18.6448C102.414 18.6979 102.387 19.0693 102.157 19.759C101.733 20.1304 101.229 20.6875 100.645 21.4302C100.061 22.173 99.4248 22.9777 98.7351 23.8442C98.0453 24.6931 97.3291 25.542 96.5863 26.3909C95.8436 27.2398 95.0919 27.9737 94.3315 28.5927C93.5887 29.194 92.8636 29.6184 92.1562 29.866C91.4488 30.0959 90.7856 30.0252 90.1666 29.6538Z" fill="#FF9A2E"/>
<path d="M103.23 29.9721C102.699 29.7953 102.293 29.53 102.01 29.1763C101.744 28.8049 101.568 28.3981 101.479 27.956C101.391 27.5139 101.373 27.0541 101.426 26.5766C101.497 26.0814 101.603 25.6127 101.744 25.1706C102.275 24.6047 102.867 23.9592 103.522 23.2341C104.194 22.4913 104.901 21.7662 105.644 21.0588C106.387 20.3514 107.156 19.6971 107.952 19.0958C108.765 18.4768 109.588 18.0082 110.419 17.6898C110.702 17.566 110.923 17.5749 111.082 17.7164C111.259 17.8402 111.383 18.0435 111.453 18.3265C111.524 18.6095 111.551 18.9366 111.533 19.308C111.533 19.6794 111.507 20.0419 111.453 20.3956C111.4 20.7493 111.33 21.0677 111.241 21.3506C111.153 21.6336 111.064 21.8281 110.976 21.9342C110.764 22.1818 110.348 22.4736 109.729 22.8097C109.128 23.1457 108.456 23.5171 107.713 23.9238C106.97 24.3129 106.228 24.7197 105.485 25.1441C104.742 25.5685 104.132 25.993 103.654 26.4174C103.177 26.8242 102.894 27.2309 102.805 27.6377C102.717 28.0444 102.965 28.4158 103.548 28.7519C104.15 28.8226 104.875 28.7961 105.723 28.6723C106.59 28.5308 107.465 28.3539 108.35 28.1417C109.252 27.9118 110.118 27.6819 110.949 27.452C111.781 27.2044 112.462 27.0099 112.992 26.8684L113.31 27.1602C112.921 27.6731 112.285 28.1417 111.4 28.5662C110.516 28.9906 109.561 29.3443 108.535 29.6273C107.51 29.8925 106.51 30.0694 105.538 30.1578C104.565 30.2286 103.796 30.1667 103.23 29.9721ZM109.57 19.8386C109.552 19.8209 109.42 19.9005 109.172 20.0773C108.924 20.2365 108.615 20.4575 108.244 20.7405C107.89 21.0058 107.501 21.3064 107.076 21.6424C106.67 21.9608 106.289 22.2614 105.936 22.5444C105.6 22.8273 105.317 23.0749 105.087 23.2872C104.857 23.4817 104.76 23.579 104.795 23.579C105.078 23.632 105.441 23.5966 105.883 23.4729C106.342 23.3314 106.811 23.1368 107.289 22.8892C107.784 22.6417 108.252 22.3675 108.695 22.0669C109.137 21.7486 109.482 21.4391 109.729 21.1384C109.994 20.8378 110.127 20.5725 110.127 20.3426C110.145 20.1127 109.959 19.9447 109.57 19.8386Z" fill="#FF9A2E"/>
<path d="M112.806 29.9721C113.531 27.6377 114.186 25.7896 114.769 24.4278C115.371 23.0484 115.866 22.0846 116.255 21.5363C116.662 20.9881 116.936 20.8112 117.077 21.0058C117.219 21.2003 117.201 21.6955 117.024 22.4913C116.865 23.2872 116.511 24.3571 115.963 25.7012C115.433 27.0276 114.681 28.5485 113.708 30.2639C113.567 30.317 113.399 30.3258 113.204 30.2905C113.01 30.2551 112.877 30.149 112.806 29.9721ZM117.449 17.2123C117.413 17.1239 117.396 16.9647 117.396 16.7348C117.396 16.5049 117.413 16.3634 117.449 16.3104C117.855 16.1689 118.165 16.1512 118.377 16.2573C118.589 16.3634 118.722 16.5226 118.775 16.7348C118.828 16.9294 118.819 17.1416 118.749 17.3715C118.696 17.6014 118.598 17.7783 118.457 17.9021C118.315 18.0082 118.147 18.0258 117.953 17.9551C117.776 17.8667 117.608 17.6191 117.449 17.2123Z" fill="#FF9A2E"/>
<path d="M118.256 29.9721C118.221 29.9544 118.221 29.7511 118.256 29.362C118.309 28.9552 118.38 28.4512 118.468 27.8499C118.557 27.2486 118.672 26.5854 118.813 25.8603C118.955 25.1353 119.105 24.4455 119.264 23.7912C119.423 23.1192 119.591 22.5355 119.768 22.0404C119.963 21.5275 120.149 21.1738 120.325 20.9793C120.449 20.8555 120.573 20.8555 120.697 20.9793C120.821 21.0854 120.944 21.2268 121.068 21.4037C121.192 21.5629 121.316 21.7132 121.44 21.8547C121.563 21.9785 121.696 21.9873 121.837 21.8812C122.333 21.1915 122.872 20.5371 123.456 19.9182C124.057 19.2815 124.72 18.7333 125.445 18.2734C125.516 18.2204 125.71 18.1408 126.029 18.0347C126.347 17.9109 126.71 17.7959 127.116 17.6898C127.523 17.566 127.939 17.4688 128.363 17.398C128.805 17.3096 129.177 17.2742 129.477 17.2919C129.796 17.2919 130.008 17.3715 130.114 17.5307C130.238 17.6721 130.185 17.9197 129.955 18.2734C128.894 18.2911 127.903 18.6006 126.984 19.2019C126.064 19.8032 125.215 20.546 124.437 21.4302C123.659 22.3145 122.952 23.2783 122.315 24.3217C121.678 25.3475 121.121 26.3025 120.644 27.1867C120.184 28.071 119.795 28.8049 119.476 29.3885C119.176 29.9721 118.955 30.2639 118.813 30.2639C118.796 30.2639 118.716 30.2286 118.575 30.1578C118.433 30.0694 118.327 30.0075 118.256 29.9721Z" fill="#FF9A2E"/>
<path d="M127.545 29.6538C127.121 29.3001 126.882 28.7784 126.829 28.0887C126.794 27.3989 126.891 26.6208 127.121 25.7542C127.368 24.8877 127.722 23.9857 128.182 23.0484C128.659 22.0934 129.208 21.1915 129.827 20.3426C130.445 19.476 131.118 18.7067 131.843 18.0347C132.568 17.345 133.293 16.8409 134.018 16.5226C134.743 16.1866 135.45 16.0716 136.14 16.1778C136.83 16.2662 137.458 16.6641 138.024 17.3715C138.377 17.8136 138.589 18.2646 138.66 18.7244C138.731 19.1665 138.722 19.6263 138.634 20.1038C138.545 20.5637 138.404 21.0412 138.209 21.5363C138.015 22.0138 137.82 22.5002 137.626 22.9954C137.449 23.4905 137.298 23.9946 137.175 24.5074C137.069 25.0203 137.051 25.542 137.122 26.0726C137.21 26.7446 137.511 27.1425 138.024 27.2663C138.536 27.3901 139.147 27.3547 139.854 27.1602C140.579 26.9657 141.339 26.6562 142.135 26.2317C142.931 25.8073 143.665 25.3828 144.337 24.9584C145.027 24.534 145.593 24.1626 146.035 23.8442C146.495 23.5259 146.725 23.3667 146.725 23.3667C147.22 23.2606 147.494 23.296 147.547 23.4729C147.618 23.632 147.52 23.8796 147.255 24.2156C147.008 24.534 146.627 24.9053 146.114 25.3298C145.602 25.7365 145.018 26.1345 144.364 26.5235C143.709 26.9126 143.011 27.2663 142.268 27.5846C141.525 27.903 140.8 28.124 140.093 28.2478C139.385 28.3539 138.713 28.3451 138.077 28.2213C137.458 28.0798 136.945 27.7615 136.538 27.2663C136.343 27.0541 136.193 26.8419 136.087 26.6296C135.999 26.4174 135.848 26.2317 135.636 26.0726C135.371 26.3202 135.052 26.6473 134.681 27.0541C134.31 27.4432 133.903 27.8411 133.461 28.2478C133.036 28.6369 132.577 29.0083 132.081 29.362C131.604 29.7157 131.109 29.981 130.596 30.1578C130.083 30.3347 129.561 30.3966 129.031 30.3435C128.518 30.2905 128.023 30.0605 127.545 29.6538ZM127.837 28.7519C127.996 29.3178 128.35 29.583 128.898 29.5477C129.446 29.4946 130.083 29.2205 130.808 28.7253C131.533 28.2301 132.285 27.5581 133.063 26.7092C133.841 25.8427 134.54 24.8877 135.159 23.8442C135.778 22.7831 136.246 21.669 136.565 20.5018C136.901 19.3345 136.989 18.185 136.83 17.0532C136.405 16.7172 135.875 16.7083 135.238 17.0266C134.601 17.3273 133.921 17.8313 133.196 18.5387C132.488 19.2284 131.781 20.0596 131.073 21.0323C130.384 21.9873 129.773 22.96 129.243 23.9503C128.712 24.923 128.306 25.8427 128.023 26.7092C127.757 27.5758 127.695 28.2567 127.837 28.7519Z" fill="#FF9A2E"/>
<path d="M36.2214 43.9959H34.4614V42.8292H39.4214V43.9959H37.6614V47.5892H36.2214V43.9959Z" fill="#FF9A2E"/>
<path d="M43.4253 45.6159C43.4253 45.9359 43.5053 46.1715 43.6653 46.3226C43.8297 46.4737 44.0875 46.5492 44.4386 46.5492C44.7942 46.5492 45.0519 46.4737 45.2119 46.3226C45.3764 46.1715 45.4586 45.9359 45.4586 45.6159V42.8292H46.8986V45.5026C46.8986 46.2848 46.6875 46.8492 46.2653 47.1959C45.8431 47.5381 45.2342 47.7092 44.4386 47.7092C43.6475 47.7092 43.0408 47.5381 42.6186 47.1959C42.1964 46.8492 41.9853 46.2848 41.9853 45.5026V42.8292H43.4253V45.6159Z" fill="#FF9A2E"/>
<path d="M49.924 42.8292H52.1774C53.1374 42.8292 53.8618 43.0315 54.3507 43.4359C54.8396 43.8359 55.084 44.427 55.084 45.2092C55.084 45.9648 54.8285 46.5515 54.3174 46.9692C53.8062 47.3826 53.0729 47.5892 52.1174 47.5892H49.924V42.8292ZM52.1507 46.4492C53.1329 46.4492 53.624 46.0337 53.624 45.2026C53.624 44.3803 53.1507 43.9692 52.204 43.9692H51.344V46.4492H52.1507Z" fill="#FF9A2E"/>
<path d="M60.5792 47.7092C59.9925 47.7092 59.4881 47.6092 59.0659 47.4092C58.6436 47.2092 58.317 46.9226 58.0859 46.5492C57.8592 46.1759 57.7459 45.7292 57.7459 45.2092C57.7459 44.6892 57.8614 44.2426 58.0925 43.8692C58.3236 43.4959 58.6525 43.2092 59.0792 43.0092C59.5059 42.8092 60.0147 42.7092 60.6059 42.7092C61.1925 42.7092 61.697 42.8092 62.1192 43.0092C62.5414 43.2092 62.8659 43.4959 63.0925 43.8692C63.3236 44.2426 63.4392 44.6892 63.4392 45.2092C63.4392 45.7292 63.3236 46.1759 63.0925 46.5492C62.8614 46.9226 62.5325 47.2092 62.1059 47.4092C61.6792 47.6092 61.1703 47.7092 60.5792 47.7092ZM61.9459 45.2092C61.9459 44.7826 61.8259 44.4537 61.5859 44.2226C61.3503 43.987 61.0192 43.8692 60.5925 43.8692C60.1659 43.8692 59.8325 43.987 59.5925 44.2226C59.357 44.4581 59.2392 44.787 59.2392 45.2092C59.2392 45.6359 59.357 45.967 59.5925 46.2026C59.8325 46.4337 60.1659 46.5492 60.5925 46.5492C61.0192 46.5492 61.3503 46.4315 61.5859 46.1959C61.8259 45.9603 61.9459 45.6315 61.9459 45.2092Z" fill="#FF9A2E"/>
<path d="M70.1167 42.8292H72.3701C73.3301 42.8292 74.0545 43.0315 74.5434 43.4359C75.0323 43.8359 75.2767 44.427 75.2767 45.2092C75.2767 45.9648 75.0212 46.5515 74.5101 46.9692C73.999 47.3826 73.2656 47.5892 72.3101 47.5892H70.1167V42.8292ZM72.3434 46.4492C73.3256 46.4492 73.8167 46.0337 73.8167 45.2026C73.8167 44.3803 73.3434 43.9692 72.3967 43.9692H71.5367V46.4492H72.3434Z" fill="#FF9A2E"/>
<path d="M78.1519 42.8292H82.3186V43.8759H79.5586V44.6492H82.1852V45.6959H79.5586V46.5426H82.4786L82.3452 47.5892H78.1519V42.8292Z" fill="#FF9A2E"/>
<path d="M90.405 43.9959H88.645V42.8292H93.605V43.9959H91.845V47.5892H90.405V43.9959Z" fill="#FF9A2E"/>
<path d="M96.2222 42.8292H100.389V43.8759H97.6289V44.6492H100.256V45.6959H97.6289V46.5426H100.549L100.416 47.5892H96.2222V42.8292Z" fill="#FF9A2E"/>
<path d="M108.605 47.5892H106.919L105.705 45.9959L104.492 47.5892H102.892L104.825 45.1159L103.039 42.8292H104.725L105.725 44.2159L106.779 42.8292H108.379L106.612 45.0692L108.605 47.5892Z" fill="#FF9A2E"/>
<path d="M112.512 43.9959H110.752V42.8292H115.712V43.9959H113.952V47.5892H112.512V43.9959Z" fill="#FF9A2E"/>
<path d="M120.734 47.7092C120.147 47.7092 119.643 47.6092 119.221 47.4092C118.799 47.2092 118.472 46.9226 118.241 46.5492C118.014 46.1759 117.901 45.7292 117.901 45.2092C117.901 44.6892 118.016 44.2426 118.247 43.8692C118.479 43.4959 118.807 43.2092 119.234 43.0092C119.661 42.8092 120.17 42.7092 120.761 42.7092C121.347 42.7092 121.852 42.8092 122.274 43.0092C122.696 43.2092 123.021 43.4959 123.247 43.8692C123.479 44.2426 123.594 44.6892 123.594 45.2092C123.594 45.7292 123.479 46.1759 123.247 46.5492C123.016 46.9226 122.687 47.2092 122.261 47.4092C121.834 47.6092 121.325 47.7092 120.734 47.7092ZM122.101 45.2092C122.101 44.7826 121.981 44.4537 121.741 44.2226C121.505 43.987 121.174 43.8692 120.747 43.8692C120.321 43.8692 119.987 43.987 119.747 44.2226C119.512 44.4581 119.394 44.787 119.394 45.2092C119.394 45.6359 119.512 45.967 119.747 46.2026C119.987 46.4337 120.321 46.5492 120.747 46.5492C121.174 46.5492 121.505 46.4315 121.741 46.1959C121.981 45.9603 122.101 45.6315 122.101 45.2092Z" fill="#FF9A2E"/>
</svg>
